<?xml version="1.0" encoding="UTF-8" standalone="no"?>
<!-- Created with Inkscape (http://www.inkscape.org/) -->

<svg
   xmlns:dc="http://purl.org/dc/elements/1.1/"
   xmlns:cc="http://creativecommons.org/ns#"
   xmlns:rdf="http://www.w3.org/1999/02/22-rdf-syntax-ns#"
   xmlns:svg="http://www.w3.org/2000/svg"
   xmlns="http://www.w3.org/2000/svg"
   xmlns:xlink="http://www.w3.org/1999/xlink"
   xmlns:sodipodi="http://sodipodi.sourceforge.net/DTD/sodipodi-0.dtd"
   xmlns:inkscape="http://www.inkscape.org/namespaces/inkscape"
   width="744.09448819"
   height="1052.3622047"
   id="svg2"
   version="1.1"
   inkscape:version="0.48.2 r9819"
   sodipodi:docname="lightingTalk_shhh24_v2.svg">
  <defs
     id="defs4">
    <path
       id="path2985-7-4"
       d="m 380,209.50504 c 0,82.05373 -66.51769,148.57142 -148.57143,148.57142 -82.05373,0 -148.571423,-66.51769 -148.571423,-148.57142 0,-82.05374 66.517693,-148.571431 148.571423,-148.571431 C 313.48231,60.933609 380,127.4513 380,209.50504 z"
       style="fill:none;stroke:none"
       transform="matrix(0.42839589,0,0,0.42839589,177.9998,-4.888912)"
       inkscape:connector-curvature="0" />
    <clipPath
       id="clipPath3057"
       clipPathUnits="userSpaceOnUse">
      <path
         id="path3059"
         d="M 0,0 194,0 194,194 0,194 0,0 z" />
    </clipPath>
  </defs>
  <sodipodi:namedview
     id="base"
     pagecolor="#ffffff"
     bordercolor="#666666"
     borderopacity="1.0"
     inkscape:pageopacity="0.0"
     inkscape:pageshadow="2"
     inkscape:zoom="2.8"
     inkscape:cx="286.39566"
     inkscape:cy="432.66156"
     inkscape:document-units="px"
     inkscape:current-layer="layer1-9"
     showgrid="false"
     inkscape:window-width="1366"
     inkscape:window-height="745"
     inkscape:window-x="-8"
     inkscape:window-y="-8"
     inkscape:window-maximized="1" />
  <metadata
     id="metadata7">
    <rdf:RDF>
      <cc:Work
         rdf:about="">
        <dc:format>image/svg+xml</dc:format>
        <dc:type
           rdf:resource="http://purl.org/dc/dcmitype/StillImage" />
        <dc:title></dc:title>
      </cc:Work>
    </rdf:RDF>
  </metadata>
  <g
     inkscape:label="Layer 1"
     inkscape:groupmode="layer"
     id="layer1">
    <g
       transform="translate(223.8906,574.58188)"
       id="layer1-9"
       inkscape:label="Layer 1">
      <g
         transform="matrix(0.30691281,0,0,-0.30691281,38.985673,59.926824)"
         inkscape:label="VHS"
         id="g3049">
        <g
           id="g3051" />
        <g
           id="g3053">
          <g
             clip-path="url(#clipPath3057)"
             id="g3055">
            <path
               id="path3061"
               style="fill:#ffffff;fill-opacity:1;fill-rule:nonzero;stroke:none"
               d="m 0.26,193.323 192.756,0 0,-192.756 -192.756,0 0,192.756 z"
               inkscape:connector-curvature="0" />
            <path
               id="path3063"
               style="fill:#231f20;fill-opacity:1;fill-rule:evenodd;stroke:none"
               d="m 11.38,140.458 170.516,0 0,-87.026 -170.516,0 0,87.026 z m 6.626,-80.4 157.264,0 0,73.773 -157.264,0 0,-73.773 z m 51.022,69.135 -13.473,-58.449 1.546,-4.722 -14.136,0 -17.229,63.171 13.736,0.01 13.053,-47.022 10.833,46.995 5.67,0.017 z m 35.337,-39.758 -4.856,-5.3 -11.486,0 0,-18.113 -13.252,0 0,18.113 -5.021,0 5.021,5.3 0,39.758 13.252,0 0,-39.758 16.342,0 z m 0.004,39.758 13.252,0 0,-63.171 -13.252,0 0,63.171 z m 65.158,-45.476 c 0,-5.609 -2.126,-9.961 -6.371,-13.053 -4.248,-3.095 -8.642,-4.642 -13.177,-4.642 l -20.707,0 -1.881,5.301 17.905,0 c 4.462,0 7.593,0.846 9.387,2.537 1.795,1.691 2.696,3.603 2.696,5.729 0,2.319 -0.294,3.989 -0.873,5.004 -0.584,1.015 -2.137,2.106 -4.656,3.265 l -16.583,5.512 c -3.203,1.159 -6.064,3.068 -8.583,5.725 -2.523,2.658 -3.783,6.696 -3.783,12.114 0,5.701 2.205,10.125 6.616,13.27 4.411,3.14 9.525,4.714 15.344,4.714 l 23.561,0 -1.456,-5.301 -13.694,0 c -4.76,0 -8.887,-0.728 -12.383,-2.178 -3.496,-1.449 -5.243,-4.013 -5.243,-7.686 0,-3.482 1.785,-6.067 5.357,-7.758 3.571,-1.691 7.651,-3.047 12.234,-4.062 4.583,-1.015 8.445,-2.951 11.583,-5.801 3.136,-2.851 4.707,-7.083 4.707,-12.69"
               inkscape:connector-curvature="0" />
          </g>
        </g>
      </g>
      <path
         transform="matrix(0.47641555,0,0,0.47641555,-39.390029,-27.608569)"
         d="m 380,209.50504 c 0,82.05373 -66.51769,148.57142 -148.57143,148.57142 -82.05373,0 -148.571423,-66.51769 -148.571423,-148.57142 0,-82.05374 66.517693,-148.571431 148.571423,-148.571431 C 313.48231,60.933609 380,127.4513 380,209.50504 z"
         sodipodi:ry="148.57143"
         sodipodi:rx="148.57143"
         sodipodi:cy="209.50504"
         sodipodi:cx="231.42857"
         id="path2985"
         style="fill:none;stroke:#ff0000;stroke-width:0.35433072;stroke-linecap:square;stroke-linejoin:miter;stroke-miterlimit:4;stroke-opacity:1;stroke-dasharray:none"
         sodipodi:type="arc" />
      <text
         transform="translate(0,2.5390623e-6)"
         sodipodi:linespacing="125%"
         id="text3755"
         y="37.719322"
         x="70"
         style="font-size:32px;font-style:normal;font-variant:normal;font-weight:900;font-stretch:normal;text-align:center;line-height:125%;letter-spacing:0px;word-spacing:0px;text-anchor:middle;fill:#000000;fill-opacity:1;stroke:none;font-family:Blackoak Std;-inkscape-font-specification:Blackoak Std Heavy"
         xml:space="preserve"><tspan
           y="37.719322"
           x="70"
           id="tspan3757"
           sodipodi:role="line" /></text>
      <path
         inkscape:connector-curvature="0"
         d="m 58.901476,67.690194 c -1.08313,-2.224728 -3.33628,-3.639946 -5.810275,-3.651314 l -6.087959,-0.02679 3.117866,-8.121879 c 0.326403,-0.774595 0.507466,-1.626326 0.507466,-2.520276 0,-3.587172 -2.905949,-6.495556 -6.493931,-6.495556 h -0.0032 -13.321569 c -2.726508,0 -5.163154,1.702647 -6.100137,4.26352 l -9.548482,26.095883 c -0.727501,1.98684 -0.440886,4.203442 0.766476,5.940186 1.208173,1.736753 3.18607,2.776849 5.301185,2.787404 l 4.762053,0.02274 -5.988901,17.114978 c -1.051468,3.005 0.22978,6.32991 3.026929,7.8515 0.980829,0.53345 2.046911,0.79083 3.100815,0.79083 1.953539,0 3.868102,-0.88096 5.135548,-2.51459 L 58.195086,74.516184 c 1.5159,-1.955148 1.790333,-4.602092 0.70639,-6.826008 z M 26.133026,105.24505 35.131803,79.533214 21.26136,79.465878 30.809826,53.369983 h 13.321569 l -6.563758,17.096261 15.495143,0.06739 -26.929754,34.711426 z"
         id="path3773" />
      <path
         id="path2985-7"
         d="m 380,209.50504 c 0,82.05373 -66.51769,148.57142 -148.57143,148.57142 -82.05373,0 -148.571423,-66.51769 -148.571423,-148.57142 0,-82.05374 66.517693,-148.571431 148.571423,-148.571431 C 313.48231,60.933609 380,127.4513 380,209.50504 z"
         style="fill:none;stroke:none"
         transform="matrix(0.42839589,0,0,0.42839589,177.9998,-4.888912)"
         inkscape:connector-curvature="0" />
      <text
         inkscape:transform-center-y="19.795343"
         inkscape:transform-center-x="29.506276"
         transform="matrix(0,1.0164124,-1.0164124,0,155.52541,-208.71529)"
         sodipodi:linespacing="125%"
         id="text3818"
         style="font-size:8.23124123px;font-style:normal;font-weight:normal;text-align:center;line-height:125%;letter-spacing:0px;word-spacing:0px;text-anchor:middle;fill:#000000;fill-opacity:1;stroke:none;font-family:Sans"
         xml:space="preserve"><textPath
           id="textPath3830"
           startOffset="50%"
           xlink:href="#path2985-7"><tspan
   style="font-size:8.23124123px"
   id="tspan3820">vancouver.hackspace.ca</tspan></textPath></text>
      <flowRoot
         style="font-size:40px;font-style:normal;font-weight:normal;text-align:center;line-height:125%;letter-spacing:0px;word-spacing:0px;text-anchor:middle;fill:#000000;fill-opacity:1;stroke:none;font-family:Sans"
         id="flowRoot3822"
         xml:space="preserve"><flowRegion
           id="flowRegion3824"><rect
             y="-22.994963"
             x="149.64285"
             height="182.14285"
             width="269.64285"
             id="rect3826" /></flowRegion><flowPara
           id="flowPara3828" /></flowRoot>      <g
         transform="matrix(-0.41980264,0.41980264,0.41980264,0.41980264,98.9498,39.593628)"
         id="g3850">
        <ellipse
           d="m 11.223,48.854 c 0,17.500247 -2.0930688,31.687 -4.6750001,31.687 -2.5819314,0 -4.6750002,-14.186753 -4.6750002,-31.687 0,-17.500247 2.0930688,-31.687 4.6750002,-31.687 2.5819313,0 4.6750001,14.186753 4.6750001,31.687 z"
           style="fill:#000000"
           sodipodi:ry="31.687"
           sodipodi:rx="4.6750002"
           sodipodi:cy="48.854"
           sodipodi:cx="6.5479999"
           cx="6.5479999"
           cy="48.854"
           rx="4.6750002"
           ry="31.687"
           id="ellipse3834" />
        <path
           style="fill:#000000"
           inkscape:connector-curvature="0"
           d="m 11.086,80.541 c 2.581,0 4.674,-14.188 4.674,-31.687 0,-17.498 -2.094,-31.686 -4.674,-31.686 H 8.079 c 2.581,0 4.675,14.188 4.675,31.686 0,17.499 -2.094,31.687 -4.675,31.687 h 3.007 z"
           id="path3836" />
        <path
           style="fill:#000000"
           inkscape:connector-curvature="0"
           d="m 17.375,48.415 c 0,-17.477 -2.495,-26.99 -2.495,-26.99 l 74.608,21.847 c 0,0 2.988,1.298 2.988,6.354 0,5.332 -2.988,6.267 -2.988,6.261 L 14.88,77.732 c 0,0 2.495,-11.533 2.495,-29.317 z"
           id="path3838" />
        <path
           style="fill:#000000"
           inkscape:connector-curvature="0"
           d="m 87.301,58.725 c 0,0.008 6.586,-0.223 6.586,-9.066 0,-8.388 -6.586,-8.986 -6.586,-8.986 h 5.719 c 0,0 4.95,0.598 4.95,8.986 0,8.843 -4.95,9.074 -4.95,9.066 h -5.719 z"
           id="path3840" />
        <path
           style="fill:#000000"
           inkscape:connector-curvature="0"
           d="m 68.434,63.67 c 0,0 -0.135,5.577 -3.463,7.91 l -12.605,5.589 c -3.304,1.462 -6.964,1.554 -8.425,-1.745 l 0,0 c -0.495,-1.115 -1.027,-3.256 -0.89,-4.385 l -3.366,0.979 c -0.169,1.412 0.377,3.013 0.993,4.412 l 0,0 c 1.825,4.133 6.663,5.994 10.801,4.164 l 15.779,-7 C 71.43,70.672 71.43,62.826 71.43,62.826 l -2.996,0.844 z"
           id="path3842" />
      </g>
      <path
         transform="matrix(0.90193274,0,0,0.90193274,-136.63136,5.6862496)"
         d="m 238.92858,71.469322 c 0,5.424225 -4.39721,9.821429 -9.82143,9.821429 -5.42423,0 -9.82143,-4.397204 -9.82143,-9.821429 0,-5.424225 4.3972,-9.821428 9.82143,-9.821428 5.42422,0 9.82143,4.397203 9.82143,9.821428 z"
         sodipodi:ry="9.8214283"
         sodipodi:rx="9.8214283"
         sodipodi:cy="71.469322"
         sodipodi:cx="229.10715"
         id="path3860"
         style="fill:#800000;stroke:none"
         sodipodi:type="arc" />
      <text
         inkscape:transform-center-y="-19.621098"
         inkscape:transform-center-x="-29.246545"
         transform="matrix(0,-1.0074657,1.0074657,0,-15.111778,348.67045)"
         sodipodi:linespacing="125%"
         id="text3818-0"
         style="font-size:8.23124123px;font-style:normal;font-weight:normal;text-align:center;line-height:125%;letter-spacing:0px;word-spacing:0px;text-anchor:middle;fill:#000000;fill-opacity:1;stroke:none;font-family:Sans"
         xml:space="preserve"><textPath
           id="textPath3830-9"
           startOffset="50%"
           xlink:href="#path2985-7-4"><tspan
   style="font-size:8.23124123px"
   id="tspan3820-4">SHHH 24 - Nov 11, 2012</tspan></textPath></text>
    </g>
  </g>
</svg>
