999
DXF created by Inkscape
  0
SECTION
  2
HEADER
  9
$ACADVER
  1
AC1014
  9
$HANDSEED
  5
FFFF
  9
$MEASUREMENT
 70
     1
  0
ENDSEC
  0
SECTION
  2
TABLES
  0
TABLE
  2
VPORT
  5
8
330
0
100
AcDbSymbolTable
 70
     4
  0
VPORT
  5
2E
330
8
100
AcDbSymbolTableRecord
100
AcDbViewportTableRecord
  2
*ACTIVE
 70
     0
 10
0.0
 20
0.0
 11
1.0
 21
1.0
 12
210.0
 22
148.5
 13
0.0
 23
0.0
 14
10.0
 24
10.0
 15
10.0
 25
10.0
 16
0.0
 26
0.0
 36
1.0
 17
0.0
 27
0.0
 37
0.0
 40
341.0
 41
1.24
 42
50.0
 43
0.0
 44
0.0
 50
0.0
 51
0.0
 71
     0
 72
   100
 73
     1
 74
     3
 75
     0
 76
     0
 77
     0
 78
     0
  0
ENDTAB
  0
TABLE
  2
LTYPE
  5
5
330
0
100
AcDbSymbolTable
 70
     1
  0
LTYPE
  5
14
330
5
100
AcDbSymbolTableRecord
100
AcDbLinetypeTableRecord
  2
BYBLOCK
 70
     0
  3

 72
    65
 73
     0
 40
0.0
  0
LTYPE
  5
15
330
5
100
AcDbSymbolTableRecord
100
AcDbLinetypeTableRecord
  2
BYLAYER
 70
     0
  3

 72
    65
 73
     0
 40
0.0
  0
LTYPE
  5
16
330
5
100
AcDbSymbolTableRecord
100
AcDbLinetypeTableRecord
  2
CONTINUOUS
 70
     0
  3
Solid line
 72
    65
 73
     0
 40
0.0
  0
ENDTAB
  0
TABLE
  2
LAYER
  5
2
100
AcDbSymbolTable
 70
2
  0
LAYER
  5
50
100
AcDbSymbolTableRecord
100
AcDbLayerTableRecord
  2
0
 70
0
  6
CONTINUOUS
  0
LAYER
  5
51
100
AcDbSymbolTableRecord
100
AcDbLayerTableRecord
  2
Layer_1
 70
0
  6
CONTINUOUS
  0
ENDTAB
  0
TABLE
  2
STYLE
  5
3
330
0
100
AcDbSymbolTable
 70
     1
  0
STYLE
  5
11
330
3
100
AcDbSymbolTableRecord
100
AcDbTextStyleTableRecord
  2
STANDARD
 70
     0
 40
0.0
 41
1.0
 50
0.0
 71
     0
 42
2.5
  3
txt
  4

  0
ENDTAB
  0
TABLE
  2
VIEW
  5
6
330
0
100
AcDbSymbolTable
 70
     0
  0
ENDTAB
  0
TABLE
  2
UCS
  5
7
330
0
100
AcDbSymbolTable
 70
     0
  0
ENDTAB
  0
TABLE
  2
APPID
  5
9
330
0
100
AcDbSymbolTable
 70
     2
  0
APPID
  5
12
330
9
100
AcDbSymbolTableRecord
100
AcDbRegAppTableRecord
  2
ACAD
 70
     0
  0
ENDTAB
  0
TABLE
  2
DIMSTYLE
  5
A
330
0
100
AcDbSymbolTable
 70
     1
  0
DIMSTYLE
105
27
330
A
100
AcDbSymbolTableRecord
100
AcDbDimStyleTableRecord
  2
ISO-25
 70
     0
  3

  4

  5

  6

  7

 40
1.0
 41
2.5
 42
0.625
 43
3.75
 44
1.25
 45
0.0
 46
0.0
 47
0.0
 48
0.0
140
2.5
141
2.5
142
0.0
143
0.03937007874016
144
1.0
145
0.0
146
1.0
147
0.625
 71
     0
 72
     0
 73
     0
 74
     0
 75
     0
 76
     0
 77
     1
 78
     8
170
     0
171
     3
172
     1
173
     0
174
     0
175
     0
176
     0
177
     0
178
     0
270
     2
271
     2
272
     2
273
     2
274
     3
340
11
275
     0
280
     0
281
     0
282
     0
283
     0
284
     8
285
     0
286
     0
287
     3
288
     0
  0
ENDTAB
  0
TABLE
  2
BLOCK_RECORD
  5
1
330
0
100
AcDbSymbolTable
 70
     1
  0
BLOCK_RECORD
  5
1F
330
1
100
AcDbSymbolTableRecord
100
AcDbBlockTableRecord
  2
*MODEL_SPACE
  0
BLOCK_RECORD
  5
1B
330
1
100
AcDbSymbolTableRecord
100
AcDbBlockTableRecord
  2
*PAPER_SPACE
  0
ENDTAB
  0
ENDSEC
  0
SECTION
  2
BLOCKS
  0
BLOCK
  5
20
330
1F
100
AcDbEntity
  8
0
100
AcDbBlockBegin
  2
*MODEL_SPACE
 70
     0
 10
0.0
 20
0.0
 30
0.0
  3
*MODEL_SPACE
  1

  0
ENDBLK
  5
21
330
1F
100
AcDbEntity
  8
0
100
AcDbBlockEnd
  0
BLOCK
  5
1C
330
1B
100
AcDbEntity
 67
     1
  8
0
100
AcDbBlockBegin
  2
*PAPER_SPACE
  1

  0
ENDBLK
  5
1D
330
1B
100
AcDbEntity
 67
     1
  8
0
100
AcDbBlockEnd
  0
ENDSEC
  0
SECTION
  2
ENTITIES
  0
LWPOLYLINE
  5
100
100
AcDbEntity
  8
Layer_1
 62
7
100
AcDbPolyline
 90
6
 70
0
 10
103.870175
 20
122.859705
 30
0.0
 10
103.870175
 20
106.163640
 30
0.0
 10
87.174110
 20
106.163640
 30
0.0
 10
87.174110
 20
122.859705
 30
0.0
 10
103.870175
 20
122.859705
 30
0.0
 10
103.870175
 20
122.859705
 30
0.0
  0
LWPOLYLINE
  5
101
100
AcDbEntity
  8
Layer_1
 62
7
100
AcDbPolyline
 90
6
 70
0
 10
99.291135
 20
121.896517
 30
0.0
 10
99.291135
 20
107.126828
 30
0.0
 10
91.753150
 20
107.126828
 30
0.0
 10
91.753150
 20
121.896517
 30
0.0
 10
99.291135
 20
121.896517
 30
0.0
 10
99.291135
 20
121.896517
 30
0.0
  0
LWPOLYLINE
  5
102
100
AcDbEntity
  8
Layer_1
 62
7
100
AcDbPolyline
 90
6
 70
0
 10
92.327079
 20
121.322589
 30
0.0
 10
92.327079
 20
107.700756
 30
0.0
 10
98.717120
 20
107.700756
 30
0.0
 10
98.717120
 20
121.322589
 30
0.0
 10
92.327079
 20
121.322589
 30
0.0
 10
92.327079
 20
121.322589
 30
0.0
  0
LWPOLYLINE
  5
103
100
AcDbEntity
  8
Layer_1
 62
7
100
AcDbPolyline
 90
10
 70
0
 10
98.315387
 20
116.903185
 30
0.0
 10
93.252674
 20
118.070184
 30
0.0
 10
92.843666
 20
117.936273
 30
0.0
 10
92.843666
 20
119.160700
 30
0.0
 10
98.315387
 20
120.653035
 30
0.0
 10
98.316254
 20
119.463255
 30
0.0
 10
94.243320
 20
118.332635
 30
0.0
 10
98.313915
 20
117.394307
 30
0.0
 10
98.315387
 20
116.903185
 30
0.0
 10
98.315387
 20
116.903185
 30
0.0
  0
LWPOLYLINE
  5
104
100
AcDbEntity
  8
Layer_1
 62
7
100
AcDbPolyline
 90
13
 70
0
 10
94.871644
 20
113.842378
 30
0.0
 10
94.412571
 20
114.262993
 30
0.0
 10
94.412571
 20
115.257883
 30
0.0
 10
92.843666
 20
115.257883
 30
0.0
 10
92.843666
 20
116.405740
 30
0.0
 10
94.412571
 20
116.405740
 30
0.0
 10
94.412571
 20
116.840647
 30
0.0
 10
94.871644
 20
116.405740
 30
0.0
 10
98.315387
 20
116.405740
 30
0.0
 10
98.315387
 20
115.257883
 30
0.0
 10
94.871644
 20
115.257883
 30
0.0
 10
94.871644
 20
113.842378
 30
0.0
 10
94.871644
 20
113.842378
 30
0.0
  0
SPLINE
  5
105
100
AcDbEntity
  8
Layer_1
 62
7
100
AcDbSpline
 70
8
 71
3
 72
8
 73
4
 74
0
 40
0
 40
0
 40
0
 40
0
 40
1
 40
1
 40
1
 40
1
 10
94.376365
 20
108.198201
 30
0.0
 10
93.890526
 20
108.198201
 30
0.0
 10
93.513567
 20
108.382350
 30
0.0
 10
93.245745
 20
108.750042
 30
0.0
  0
SPLINE
  5
106
100
AcDbEntity
  8
Layer_1
 62
7
100
AcDbSpline
 70
8
 71
3
 72
8
 73
4
 74
0
 40
0
 40
0
 40
0
 40
0
 40
1
 40
1
 40
1
 40
1
 10
93.245745
 20
108.750042
 30
0.0
 10
92.977663
 20
109.117994
 30
0.0
 10
92.843666
 20
109.498591
 30
0.0
 10
92.843666
 20
109.891402
 30
0.0
  0
LWPOLYLINE
  5
107
100
AcDbEntity
  8
Layer_1
 62
7
100
AcDbPolyline
 90
6
 70
0
 10
98.315387
 20
113.842032
 30
0.0
 10
98.315387
 20
112.694175
 30
0.0
 10
92.843666
 20
112.694175
 30
0.0
 10
92.843666
 20
113.842032
 30
0.0
 10
98.315387
 20
113.842032
 30
0.0
 10
98.315387
 20
113.842032
 30
0.0
  0
SPLINE
  5
108
100
AcDbEntity
  8
Layer_1
 62
7
100
AcDbSpline
 70
8
 71
3
 72
8
 73
4
 74
0
 40
0
 40
0
 40
0
 40
0
 40
1
 40
1
 40
1
 40
1
 10
93.302826
 20
110.297033
 30
0.0
 10
93.302826
 20
109.910545
 30
0.0
 10
93.376104
 20
109.639345
 30
0.0
 10
93.522575
 20
109.483953
 30
0.0
  0
SPLINE
  5
109
100
AcDbEntity
  8
Layer_1
 62
7
100
AcDbSpline
 70
8
 71
3
 72
8
 73
4
 74
0
 40
0
 40
0
 40
0
 40
0
 40
1
 40
1
 40
1
 40
1
 10
93.522575
 20
109.483953
 30
0.0
 10
93.669045
 20
109.328474
 30
0.0
 10
93.834658
 20
109.250432
 30
0.0
 10
94.018807
 20
109.250432
 30
0.0
  0
SPLINE
  5
10a
100
AcDbEntity
  8
Layer_1
 62
7
100
AcDbSpline
 70
8
 71
3
 72
8
 73
4
 74
0
 40
0
 40
0
 40
0
 40
0
 40
1
 40
1
 40
1
 40
1
 10
94.018807
 20
109.250432
 30
0.0
 10
94.219673
 20
109.250432
 30
0.0
 10
94.364325
 20
109.275897
 30
0.0
 10
94.452242
 20
109.326049
 30
0.0
  0
SPLINE
  5
10b
100
AcDbEntity
  8
Layer_1
 62
7
100
AcDbSpline
 70
8
 71
3
 72
8
 73
4
 74
0
 40
0
 40
0
 40
0
 40
0
 40
1
 40
1
 40
1
 40
1
 10
94.452242
 20
109.326049
 30
0.0
 10
94.540159
 20
109.376634
 30
0.0
 10
94.634658
 20
109.511151
 30
0.0
 10
94.735048
 20
109.729341
 30
0.0
  0
LWPOLYLINE
  5
10c
100
AcDbEntity
  8
Layer_1
 62
7
100
AcDbPolyline
 90
4
 70
0
 10
92.843666
 20
109.891402
 30
0.0
 10
92.843666
 20
111.684993
 30
0.0
 10
93.302826
 20
111.847921
 30
0.0
 10
93.302826
 20
110.297033
 30
0.0
  0
SPLINE
  5
10d
100
AcDbEntity
  8
Layer_1
 62
7
100
AcDbSpline
 70
8
 71
3
 72
8
 73
4
 74
0
 40
0
 40
0
 40
0
 40
0
 40
1
 40
1
 40
1
 40
1
 10
95.212485
 20
111.165721
 30
0.0
 10
95.312874
 20
111.443157
 30
0.0
 10
95.478227
 20
111.690970
 30
0.0
 10
95.708370
 20
111.909160
 30
0.0
  0
SPLINE
  5
10e
100
AcDbEntity
  8
Layer_1
 62
7
100
AcDbSpline
 70
8
 71
3
 72
8
 73
4
 74
0
 40
0
 40
0
 40
0
 40
0
 40
1
 40
1
 40
1
 40
1
 10
95.708370
 20
111.909160
 30
0.0
 10
95.938600
 20
112.127696
 30
0.0
 10
96.288362
 20
112.236834
 30
0.0
 10
96.757656
 20
112.236834
 30
0.0
  0
SPLINE
  5
10f
100
AcDbEntity
  8
Layer_1
 62
7
100
AcDbSpline
 70
8
 71
3
 72
8
 73
4
 74
0
 40
0
 40
0
 40
0
 40
0
 40
1
 40
1
 40
1
 40
1
 10
96.757656
 20
112.236834
 30
0.0
 10
97.251463
 20
112.236834
 30
0.0
 10
97.634659
 20
112.045842
 30
0.0
 10
97.907072
 20
111.663772
 30
0.0
  0
SPLINE
  5
110
100
AcDbEntity
  8
Layer_1
 62
7
100
AcDbSpline
 70
8
 71
3
 72
8
 73
4
 74
0
 40
0
 40
0
 40
0
 40
0
 40
1
 40
1
 40
1
 40
1
 10
97.907072
 20
111.663772
 30
0.0
 10
98.179051
 20
111.281702
 30
0.0
 10
98.315387
 20
110.838739
 30
0.0
 10
98.315387
 20
110.334711
 30
0.0
  0
LWPOLYLINE
  5
111
100
AcDbEntity
  8
Layer_1
 62
7
100
AcDbPolyline
 90
2
 70
0
 10
94.735048
 20
109.729341
 30
0.0
 10
95.212485
 20
111.165721
 30
0.0
  0
SPLINE
  5
112
100
AcDbEntity
  8
Layer_1
 62
7
100
AcDbSpline
 70
8
 71
3
 72
8
 73
4
 74
0
 40
0
 40
0
 40
0
 40
0
 40
1
 40
1
 40
1
 40
1
 10
97.856227
 20
109.606170
 30
0.0
 10
97.856227
 20
110.018470
 30
0.0
 10
97.793170
 20
110.375941
 30
0.0
 10
97.667574
 20
110.678756
 30
0.0
  0
SPLINE
  5
113
100
AcDbEntity
  8
Layer_1
 62
7
100
AcDbSpline
 70
8
 71
3
 72
8
 73
4
 74
0
 40
0
 40
0
 40
0
 40
0
 40
1
 40
1
 40
1
 40
1
 10
97.667574
 20
110.678756
 30
0.0
 10
97.542065
 20
110.981572
 30
0.0
 10
97.319978
 20
111.132893
 30
0.0
 10
97.001831
 20
111.132893
 30
0.0
  0
SPLINE
  5
114
100
AcDbEntity
  8
Layer_1
 62
7
100
AcDbSpline
 70
8
 71
3
 72
8
 73
4
 74
0
 40
0
 40
0
 40
0
 40
0
 40
1
 40
1
 40
1
 40
1
 10
97.001831
 20
111.132893
 30
0.0
 10
96.700229
 20
111.132893
 30
0.0
 10
96.476322
 20
110.978280
 30
0.0
 10
96.329852
 20
110.668882
 30
0.0
  0
SPLINE
  5
115
100
AcDbEntity
  8
Layer_1
 62
7
100
AcDbSpline
 70
8
 71
3
 72
8
 73
4
 74
0
 40
0
 40
0
 40
0
 40
0
 40
1
 40
1
 40
1
 40
1
 10
96.329852
 20
110.668882
 30
0.0
 10
96.183381
 20
110.359570
 30
0.0
 10
96.065928
 20
110.006171
 30
0.0
 10
95.978011
 20
109.609202
 30
0.0
  0
SPLINE
  5
116
100
AcDbEntity
  8
Layer_1
 62
7
100
AcDbSpline
 70
8
 71
3
 72
8
 73
4
 74
0
 40
0
 40
0
 40
0
 40
0
 40
1
 40
1
 40
1
 40
1
 10
95.978011
 20
109.609202
 30
0.0
 10
95.890094
 20
109.212234
 30
0.0
 10
95.722402
 20
108.877716
 30
0.0
 10
95.475542
 20
108.605910
 30
0.0
  0
SPLINE
  5
117
100
AcDbEntity
  8
Layer_1
 62
7
100
AcDbSpline
 70
8
 71
3
 72
8
 73
4
 74
0
 40
0
 40
0
 40
0
 40
0
 40
1
 40
1
 40
1
 40
1
 10
95.475542
 20
108.605910
 30
0.0
 10
95.228595
 20
108.334277
 30
0.0
 10
94.862030
 20
108.198201
 30
0.0
 10
94.376365
 20
108.198201
 30
0.0
  0
LWPOLYLINE
  5
118
100
AcDbEntity
  8
Layer_1
 62
7
100
AcDbPolyline
 90
4
 70
0
 10
98.315387
 20
110.334711
 30
0.0
 10
98.315387
 20
108.293914
 30
0.0
 10
97.856227
 20
108.420029
 30
0.0
 10
97.856227
 20
109.606170
 30
0.0
  0
LWPOLYLINE
  5
119
100
AcDbEntity
  8
Layer_1
 62
7
100
AcDbPolyline
 90
6
 70
0
 10
62.751809
 20
106.556734
 30
0.0
 10
62.751809
 20
123.252799
 30
0.0
 10
79.447874
 20
123.252799
 30
0.0
 10
79.447874
 20
106.556734
 30
0.0
 10
62.751809
 20
106.556734
 30
0.0
 10
62.751809
 20
106.556734
 30
0.0
  0
LWPOLYLINE
  5
11a
100
AcDbEntity
  8
Layer_1
 62
7
100
AcDbPolyline
 90
6
 70
0
 10
67.330849
 20
107.519922
 30
0.0
 10
67.330849
 20
122.289612
 30
0.0
 10
74.868834
 20
122.289612
 30
0.0
 10
74.868834
 20
107.519922
 30
0.0
 10
67.330849
 20
107.519922
 30
0.0
 10
67.330849
 20
107.519922
 30
0.0
  0
LWPOLYLINE
  5
11b
100
AcDbEntity
  8
Layer_1
 62
7
100
AcDbPolyline
 90
6
 70
0
 10
74.294905
 20
108.093851
 30
0.0
 10
74.294905
 20
121.715683
 30
0.0
 10
67.904864
 20
121.715683
 30
0.0
 10
67.904864
 20
108.093851
 30
0.0
 10
74.294905
 20
108.093851
 30
0.0
 10
74.294905
 20
108.093851
 30
0.0
  0
LWPOLYLINE
  5
11c
100
AcDbEntity
  8
Layer_1
 62
7
100
AcDbPolyline
 90
10
 70
0
 10
68.306596
 20
112.513255
 30
0.0
 10
73.369309
 20
111.346255
 30
0.0
 10
73.778318
 20
111.480166
 30
0.0
 10
73.778318
 20
110.255740
 30
0.0
 10
68.306596
 20
108.763405
 30
0.0
 10
68.305730
 20
109.953184
 30
0.0
 10
72.378664
 20
111.083804
 30
0.0
 10
68.308069
 20
112.022133
 30
0.0
 10
68.306596
 20
112.513255
 30
0.0
 10
68.306596
 20
112.513255
 30
0.0
  0
LWPOLYLINE
  5
11d
100
AcDbEntity
  8
Layer_1
 62
7
100
AcDbPolyline
 90
13
 70
0
 10
71.750340
 20
115.574061
 30
0.0
 10
72.209413
 20
115.153446
 30
0.0
 10
72.209413
 20
114.158556
 30
0.0
 10
73.778318
 20
114.158556
 30
0.0
 10
73.778318
 20
113.010700
 30
0.0
 10
72.209413
 20
113.010700
 30
0.0
 10
72.209413
 20
112.575792
 30
0.0
 10
71.750340
 20
113.010700
 30
0.0
 10
68.306596
 20
113.010700
 30
0.0
 10
68.306596
 20
114.158556
 30
0.0
 10
71.750340
 20
114.158556
 30
0.0
 10
71.750340
 20
115.574061
 30
0.0
 10
71.750340
 20
115.574061
 30
0.0
  0
SPLINE
  5
11e
100
AcDbEntity
  8
Layer_1
 62
7
100
AcDbSpline
 70
8
 71
3
 72
8
 73
4
 74
0
 40
0
 40
0
 40
0
 40
0
 40
1
 40
1
 40
1
 40
1
 10
72.245619
 20
121.218238
 30
0.0
 10
72.731457
 20
121.218238
 30
0.0
 10
73.108417
 20
121.034089
 30
0.0
 10
73.376239
 20
120.666397
 30
0.0
  0
SPLINE
  5
11f
100
AcDbEntity
  8
Layer_1
 62
7
100
AcDbSpline
 70
8
 71
3
 72
8
 73
4
 74
0
 40
0
 40
0
 40
0
 40
0
 40
1
 40
1
 40
1
 40
1
 10
73.376239
 20
120.666397
 30
0.0
 10
73.644320
 20
120.298446
 30
0.0
 10
73.778318
 20
119.917848
 30
0.0
 10
73.778318
 20
119.525037
 30
0.0
  0
LWPOLYLINE
  5
120
100
AcDbEntity
  8
Layer_1
 62
7
100
AcDbPolyline
 90
6
 70
0
 10
68.306596
 20
115.574408
 30
0.0
 10
68.306596
 20
116.722264
 30
0.0
 10
73.778318
 20
116.722264
 30
0.0
 10
73.778318
 20
115.574408
 30
0.0
 10
68.306596
 20
115.574408
 30
0.0
 10
68.306596
 20
115.574408
 30
0.0
  0
SPLINE
  5
121
100
AcDbEntity
  8
Layer_1
 62
7
100
AcDbSpline
 70
8
 71
3
 72
8
 73
4
 74
0
 40
0
 40
0
 40
0
 40
0
 40
1
 40
1
 40
1
 40
1
 10
73.319158
 20
119.119407
 30
0.0
 10
73.319158
 20
119.505895
 30
0.0
 10
73.245879
 20
119.777094
 30
0.0
 10
73.099409
 20
119.932486
 30
0.0
  0
SPLINE
  5
122
100
AcDbEntity
  8
Layer_1
 62
7
100
AcDbSpline
 70
8
 71
3
 72
8
 73
4
 74
0
 40
0
 40
0
 40
0
 40
0
 40
1
 40
1
 40
1
 40
1
 10
73.099409
 20
119.932486
 30
0.0
 10
72.952939
 20
120.087965
 30
0.0
 10
72.787326
 20
120.166007
 30
0.0
 10
72.603177
 20
120.166007
 30
0.0
  0
SPLINE
  5
123
100
AcDbEntity
  8
Layer_1
 62
7
100
AcDbSpline
 70
8
 71
3
 72
8
 73
4
 74
0
 40
0
 40
0
 40
0
 40
0
 40
1
 40
1
 40
1
 40
1
 10
72.603177
 20
120.166007
 30
0.0
 10
72.402310
 20
120.166007
 30
0.0
 10
72.257659
 20
120.140542
 30
0.0
 10
72.169742
 20
120.090390
 30
0.0
  0
SPLINE
  5
124
100
AcDbEntity
  8
Layer_1
 62
7
100
AcDbSpline
 70
8
 71
3
 72
8
 73
4
 74
0
 40
0
 40
0
 40
0
 40
0
 40
1
 40
1
 40
1
 40
1
 10
72.169742
 20
120.090390
 30
0.0
 10
72.081825
 20
120.039806
 30
0.0
 10
71.987325
 20
119.905288
 30
0.0
 10
71.886936
 20
119.687099
 30
0.0
  0
LWPOLYLINE
  5
125
100
AcDbEntity
  8
Layer_1
 62
7
100
AcDbPolyline
 90
4
 70
0
 10
73.778318
 20
119.525037
 30
0.0
 10
73.778318
 20
117.731446
 30
0.0
 10
73.319158
 20
117.568518
 30
0.0
 10
73.319158
 20
119.119407
 30
0.0
  0
SPLINE
  5
126
100
AcDbEntity
  8
Layer_1
 62
7
100
AcDbSpline
 70
8
 71
3
 72
8
 73
4
 74
0
 40
0
 40
0
 40
0
 40
0
 40
1
 40
1
 40
1
 40
1
 10
71.409499
 20
118.250719
 30
0.0
 10
71.309109
 20
117.973283
 30
0.0
 10
71.143756
 20
117.725470
 30
0.0
 10
70.913613
 20
117.507280
 30
0.0
  0
SPLINE
  5
127
100
AcDbEntity
  8
Layer_1
 62
7
100
AcDbSpline
 70
8
 71
3
 72
8
 73
4
 74
0
 40
0
 40
0
 40
0
 40
0
 40
1
 40
1
 40
1
 40
1
 10
70.913613
 20
117.507280
 30
0.0
 10
70.683384
 20
117.288744
 30
0.0
 10
70.333622
 20
117.179605
 30
0.0
 10
69.864328
 20
117.179605
 30
0.0
  0
SPLINE
  5
128
100
AcDbEntity
  8
Layer_1
 62
7
100
AcDbSpline
 70
8
 71
3
 72
8
 73
4
 74
0
 40
0
 40
0
 40
0
 40
0
 40
1
 40
1
 40
1
 40
1
 10
69.864328
 20
117.179605
 30
0.0
 10
69.370521
 20
117.179605
 30
0.0
 10
68.987324
 20
117.370597
 30
0.0
 10
68.714912
 20
117.752667
 30
0.0
  0
SPLINE
  5
129
100
AcDbEntity
  8
Layer_1
 62
7
100
AcDbSpline
 70
8
 71
3
 72
8
 73
4
 74
0
 40
0
 40
0
 40
0
 40
0
 40
1
 40
1
 40
1
 40
1
 10
68.714912
 20
117.752667
 30
0.0
 10
68.442933
 20
118.134738
 30
0.0
 10
68.306596
 20
118.577700
 30
0.0
 10
68.306596
 20
119.081728
 30
0.0
  0
LWPOLYLINE
  5
12a
100
AcDbEntity
  8
Layer_1
 62
7
100
AcDbPolyline
 90
2
 70
0
 10
71.886936
 20
119.687099
 30
0.0
 10
71.409499
 20
118.250719
 30
0.0
  0
SPLINE
  5
12b
100
AcDbEntity
  8
Layer_1
 62
7
100
AcDbSpline
 70
8
 71
3
 72
8
 73
4
 74
0
 40
0
 40
0
 40
0
 40
0
 40
1
 40
1
 40
1
 40
1
 10
68.765756
 20
119.810269
 30
0.0
 10
68.765756
 20
119.397969
 30
0.0
 10
68.828814
 20
119.040498
 30
0.0
 10
68.954410
 20
118.737683
 30
0.0
  0
SPLINE
  5
12c
100
AcDbEntity
  8
Layer_1
 62
7
100
AcDbSpline
 70
8
 71
3
 72
8
 73
4
 74
0
 40
0
 40
0
 40
0
 40
0
 40
1
 40
1
 40
1
 40
1
 10
68.954410
 20
118.737683
 30
0.0
 10
69.079919
 20
118.434868
 30
0.0
 10
69.302006
 20
118.283547
 30
0.0
 10
69.620153
 20
118.283547
 30
0.0
  0
SPLINE
  5
12d
100
AcDbEntity
  8
Layer_1
 62
7
100
AcDbSpline
 70
8
 71
3
 72
8
 73
4
 74
0
 40
0
 40
0
 40
0
 40
0
 40
1
 40
1
 40
1
 40
1
 10
69.620153
 20
118.283547
 30
0.0
 10
69.921755
 20
118.283547
 30
0.0
 10
70.145662
 20
118.438159
 30
0.0
 10
70.292132
 20
118.747557
 30
0.0
  0
SPLINE
  5
12e
100
AcDbEntity
  8
Layer_1
 62
7
100
AcDbSpline
 70
8
 71
3
 72
8
 73
4
 74
0
 40
0
 40
0
 40
0
 40
0
 40
1
 40
1
 40
1
 40
1
 10
70.292132
 20
118.747557
 30
0.0
 10
70.438602
 20
119.056869
 30
0.0
 10
70.556056
 20
119.410269
 30
0.0
 10
70.643973
 20
119.807237
 30
0.0
  0
SPLINE
  5
12f
100
AcDbEntity
  8
Layer_1
 62
7
100
AcDbSpline
 70
8
 71
3
 72
8
 73
4
 74
0
 40
0
 40
0
 40
0
 40
0
 40
1
 40
1
 40
1
 40
1
 10
70.643973
 20
119.807237
 30
0.0
 10
70.731890
 20
120.204206
 30
0.0
 10
70.899581
 20
120.538723
 30
0.0
 10
71.146442
 20
120.810529
 30
0.0
  0
SPLINE
  5
130
100
AcDbEntity
  8
Layer_1
 62
7
100
AcDbSpline
 70
8
 71
3
 72
8
 73
4
 74
0
 40
0
 40
0
 40
0
 40
0
 40
1
 40
1
 40
1
 40
1
 10
71.146442
 20
120.810529
 30
0.0
 10
71.393388
 20
121.082162
 30
0.0
 10
71.759954
 20
121.218238
 30
0.0
 10
72.245619
 20
121.218238
 30
0.0
  0
SPLINE
  5
131
100
AcDbEntity
  8
Layer_1
 62
1
100
AcDbSpline
 70
8
 71
3
 72
8
 73
4
 74
0
 40
0
 40
0
 40
0
 40
0
 40
1
 40
1
 40
1
 40
1
 10
103.163082
 20
114.462965
 30
0.0
 10
103.163082
 20
103.430426
 30
0.0
 10
94.219442
 20
94.486786
 30
0.0
 10
83.186902
 20
94.486786
 30
0.0
  0
SPLINE
  5
132
100
AcDbEntity
  8
Layer_1
 62
1
100
AcDbSpline
 70
8
 71
3
 72
8
 73
4
 74
0
 40
0
 40
0
 40
0
 40
0
 40
1
 40
1
 40
1
 40
1
 10
83.186902
 20
94.486786
 30
0.0
 10
72.154364
 20
94.486786
 30
0.0
 10
63.210723
 20
103.430426
 30
0.0
 10
63.210723
 20
114.462965
 30
0.0
  0
SPLINE
  5
133
100
AcDbEntity
  8
Layer_1
 62
1
100
AcDbSpline
 70
8
 71
3
 72
8
 73
4
 74
0
 40
0
 40
0
 40
0
 40
0
 40
1
 40
1
 40
1
 40
1
 10
63.210723
 20
114.462965
 30
0.0
 10
63.210723
 20
125.495505
 30
0.0
 10
72.154364
 20
134.439145
 30
0.0
 10
83.186902
 20
134.439145
 30
0.0
  0
SPLINE
  5
134
100
AcDbEntity
  8
Layer_1
 62
1
100
AcDbSpline
 70
8
 71
3
 72
8
 73
4
 74
0
 40
0
 40
0
 40
0
 40
0
 40
1
 40
1
 40
1
 40
1
 10
83.186902
 20
134.439145
 30
0.0
 10
94.219442
 20
134.439145
 30
0.0
 10
103.163082
 20
125.495505
 30
0.0
 10
103.163082
 20
114.462965
 30
0.0
  0
LWPOLYLINE
  5
135
100
AcDbEntity
  8
Layer_1
 62
7
100
AcDbPolyline
 90
4
 70
0
 10
68.306596
 20
119.081728
 30
0.0
 10
68.306596
 20
121.122526
 30
0.0
 10
68.765756
 20
120.996411
 30
0.0
 10
68.765756
 20
119.810269
 30
0.0
  0
SPLINE
  5
136
100
AcDbEntity
  8
Layer_1
 62
7
100
AcDbSpline
 70
8
 71
3
 72
8
 73
4
 74
0
 40
0
 40
0
 40
0
 40
0
 40
1
 40
1
 40
1
 40
1
 10
89.950049
 20
116.300992
 30
0.0
 10
89.644366
 20
116.928860
 30
0.0
 10
89.008477
 20
117.328266
 30
0.0
 10
88.310261
 20
117.331474
 30
0.0
  0
LWPOLYLINE
  5
137
100
AcDbEntity
  8
Layer_1
 62
1
100
AcDbPolyline
 90
2
 70
0
 10
103.163082
 20
114.462965
 30
0.0
 10
103.163082
 20
114.462965
 30
0.0
  0
SPLINE
  5
138
100
AcDbEntity
  8
Layer_1
 62
7
100
AcDbSpline
 70
8
 71
3
 72
8
 73
4
 74
0
 40
0
 40
0
 40
0
 40
0
 40
1
 40
1
 40
1
 40
1
 10
87.472034
 20
119.631210
 30
0.0
 10
87.564152
 20
119.849818
 30
0.0
 10
87.615252
 20
120.090195
 30
0.0
 10
87.615252
 20
120.342488
 30
0.0
  0
SPLINE
  5
139
100
AcDbEntity
  8
Layer_1
 62
7
100
AcDbSpline
 70
8
 71
3
 72
8
 73
4
 74
0
 40
0
 40
0
 40
0
 40
0
 40
1
 40
1
 40
1
 40
1
 10
87.615252
 20
120.342488
 30
0.0
 10
87.615252
 20
121.354867
 30
0.0
 10
86.795129
 20
122.175678
 30
0.0
 10
85.782521
 20
122.175678
 30
0.0
  0
LWPOLYLINE
  5
13a
100
AcDbEntity
  8
Layer_1
 62
7
100
AcDbPolyline
 90
3
 70
0
 10
88.310261
 20
117.331474
 30
0.0
 10
86.592103
 20
117.339035
 30
0.0
 10
87.472034
 20
119.631210
 30
0.0
  0
SPLINE
  5
13b
100
AcDbEntity
  8
Layer_1
 62
7
100
AcDbSpline
 70
8
 71
3
 72
8
 73
4
 74
0
 40
0
 40
0
 40
0
 40
0
 40
1
 40
1
 40
1
 40
1
 10
82.021975
 20
122.175678
 30
0.0
 10
81.252494
 20
122.175678
 30
0.0
 10
80.564818
 20
121.695153
 30
0.0
 10
80.300381
 20
120.972418
 30
0.0
  0
LWPOLYLINE
  5
13c
100
AcDbEntity
  8
Layer_1
 62
7
100
AcDbPolyline
 90
3
 70
0
 10
85.782521
 20
122.175678
 30
0.0
 10
85.781618
 20
122.175678
 30
0.0
 10
82.021975
 20
122.175678
 30
0.0
  0
SPLINE
  5
13d
100
AcDbEntity
  8
Layer_1
 62
7
100
AcDbSpline
 70
8
 71
3
 72
8
 73
4
 74
0
 40
0
 40
0
 40
0
 40
0
 40
1
 40
1
 40
1
 40
1
 10
77.605587
 20
113.607580
 30
0.0
 10
77.400270
 20
113.046849
 30
0.0
 10
77.481159
 20
112.421275
 30
0.0
 10
77.821903
 20
111.931127
 30
0.0
  0
SPLINE
  5
13e
100
AcDbEntity
  8
Layer_1
 62
7
100
AcDbSpline
 70
8
 71
3
 72
8
 73
4
 74
0
 40
0
 40
0
 40
0
 40
0
 40
1
 40
1
 40
1
 40
1
 10
77.821903
 20
111.931127
 30
0.0
 10
78.162877
 20
111.440977
 30
0.0
 10
78.721083
 20
111.147439
 30
0.0
 10
79.318016
 20
111.144460
 30
0.0
  0
LWPOLYLINE
  5
13f
100
AcDbEntity
  8
Layer_1
 62
7
100
AcDbPolyline
 90
2
 70
0
 10
80.300381
 20
120.972418
 30
0.0
 10
77.605587
 20
113.607580
 30
0.0
  0
SPLINE
  5
140
100
AcDbEntity
  8
Layer_1
 62
7
100
AcDbSpline
 70
8
 71
3
 72
8
 73
4
 74
0
 40
0
 40
0
 40
0
 40
0
 40
1
 40
1
 40
1
 40
1
 10
78.971772
 20
106.307815
 30
0.0
 10
78.675024
 20
105.459737
 30
0.0
 10
79.036621
 20
104.521374
 30
0.0
 10
79.826039
 20
104.091947
 30
0.0
  0
SPLINE
  5
141
100
AcDbEntity
  8
Layer_1
 62
7
100
AcDbSpline
 70
8
 71
3
 72
8
 73
4
 74
0
 40
0
 40
0
 40
0
 40
0
 40
1
 40
1
 40
1
 40
1
 10
79.826039
 20
104.091947
 30
0.0
 10
80.102850
 20
103.941396
 30
0.0
 10
80.403722
 20
103.868758
 30
0.0
 10
80.701157
 20
103.868758
 30
0.0
  0
SPLINE
  5
142
100
AcDbEntity
  8
Layer_1
 62
7
100
AcDbSpline
 70
8
 71
3
 72
8
 73
4
 74
0
 40
0
 40
0
 40
0
 40
0
 40
1
 40
1
 40
1
 40
1
 10
80.701157
 20
103.868758
 30
0.0
 10
81.252490
 20
103.868758
 30
0.0
 10
81.792822
 20
104.117384
 30
0.0
 10
82.150523
 20
104.578431
 30
0.0
  0
LWPOLYLINE
  5
143
100
AcDbEntity
  8
Layer_1
 62
7
100
AcDbPolyline
 90
3
 70
0
 10
79.318016
 20
111.144460
 30
0.0
 10
80.661973
 20
111.138042
 30
0.0
 10
78.971772
 20
106.307815
 30
0.0
  0
SPLINE
  5
144
100
AcDbEntity
  8
Layer_1
 62
7
100
AcDbSpline
 70
8
 71
3
 72
8
 73
4
 74
0
 40
0
 40
0
 40
0
 40
0
 40
1
 40
1
 40
1
 40
1
 10
89.750690
 20
114.374546
 30
0.0
 10
90.178511
 20
114.926333
 30
0.0
 10
90.255962
 20
115.673359
 30
0.0
 10
89.950049
 20
116.300998
 30
0.0
  0
LWPOLYLINE
  5
145
100
AcDbEntity
  8
Layer_1
 62
7
100
AcDbPolyline
 90
2
 70
0
 10
82.150523
 20
104.578431
 30
0.0
 10
89.750690
 20
114.374546
 30
0.0
  0
LWPOLYLINE
  5
146
100
AcDbEntity
  8
Layer_1
 62
7
100
AcDbPolyline
 90
2
 70
0
 10
89.950049
 20
116.300998
 30
0.0
 10
89.950049
 20
116.300992
 30
0.0
  0
SPLINE
  5
147
100
AcDbEntity
  8
Layer_1
 62
7
100
AcDbSpline
 70
8
 71
3
 72
8
 73
4
 74
0
 40
0
 40
0
 40
0
 40
0
 40
1
 40
1
 40
1
 40
1
 10
159.365481
 20
110.890230
 30
0.0
 10
159.365481
 20
100.969701
 30
0.0
 10
151.323303
 20
92.927524
 30
0.0
 10
141.402773
 20
92.927524
 30
0.0
  0
SPLINE
  5
148
100
AcDbEntity
  8
Layer_1
 62
7
100
AcDbSpline
 70
8
 71
3
 72
8
 73
4
 74
0
 40
0
 40
0
 40
0
 40
0
 40
1
 40
1
 40
1
 40
1
 10
141.402773
 20
92.927524
 30
0.0
 10
131.482244
 20
92.927524
 30
0.0
 10
123.440066
 20
100.969701
 30
0.0
 10
123.440066
 20
110.890230
 30
0.0
  0
SPLINE
  5
149
100
AcDbEntity
  8
Layer_1
 62
7
100
AcDbSpline
 70
8
 71
3
 72
8
 73
4
 74
0
 40
0
 40
0
 40
0
 40
0
 40
1
 40
1
 40
1
 40
1
 10
123.440066
 20
110.890230
 30
0.0
 10
123.440066
 20
120.810760
 30
0.0
 10
131.482244
 20
128.852938
 30
0.0
 10
141.402773
 20
128.852938
 30
0.0
  0
SPLINE
  5
14a
100
AcDbEntity
  8
Layer_1
 62
7
100
AcDbSpline
 70
8
 71
3
 72
8
 73
4
 74
0
 40
0
 40
0
 40
0
 40
0
 40
1
 40
1
 40
1
 40
1
 10
141.402773
 20
128.852938
 30
0.0
 10
151.323303
 20
128.852938
 30
0.0
 10
159.365481
 20
120.810760
 30
0.0
 10
159.365481
 20
110.890230
 30
0.0
  0
LWPOLYLINE
  5
14b
100
AcDbEntity
  8
Layer_1
 62
7
100
AcDbPolyline
 90
9
 70
0
 10
80.702064
 20
105.702178
 30
0.0
 10
83.241719
 20
112.958629
 30
0.0
 10
79.327172
 20
112.977634
 30
0.0
 10
82.021961
 20
120.342475
 30
0.0
 10
85.781604
 20
120.342475
 30
0.0
 10
83.929166
 20
115.517531
 30
0.0
 10
88.302240
 20
115.498512
 30
0.0
 10
80.702064
 20
105.702175
 30
0.0
 10
80.702064
 20
105.702178
 30
0.0
  0
LWPOLYLINE
  5
14c
100
AcDbEntity
  8
Layer_1
 62
7
100
AcDbPolyline
 90
2
 70
0
 10
159.365481
 20
110.890230
 30
0.0
 10
159.365481
 20
110.890230
 30
0.0
  0
SPLINE
  5
14d
100
AcDbEntity
  8
Layer_1
 62
7
100
AcDbSpline
 70
8
 71
3
 72
8
 73
4
 74
0
 40
0
 40
0
 40
0
 40
0
 40
1
 40
1
 40
1
 40
1
 10
68.810173
 20
124.813756
 30
0.0
 10
68.897242
 20
124.760882
 30
0.0
 10
68.984485
 20
124.703361
 30
0.0
 10
69.071897
 20
124.641188
 30
0.0
  0
SPLINE
  5
14e
100
AcDbEntity
  8
Layer_1
 62
7
100
AcDbSpline
 70
8
 71
3
 72
8
 73
4
 74
0
 40
0
 40
0
 40
0
 40
0
 40
1
 40
1
 40
1
 40
1
 10
69.071897
 20
124.641188
 30
0.0
 10
69.040078
 20
124.716023
 30
0.0
 10
69.005205
 20
124.808719
 30
0.0
 10
68.967241
 20
124.919277
 30
0.0
  0
LWPOLYLINE
  5
14f
100
AcDbEntity
  8
Layer_1
 62
7
100
AcDbPolyline
 90
4
 70
0
 10
69.169058
 20
124.339075
 30
0.0
 10
67.797981
 20
125.137021
 30
0.0
 10
68.004209
 20
125.303868
 30
0.0
 10
68.810173
 20
124.813756
 30
0.0
  0
SPLINE
  5
150
100
AcDbEntity
  8
Layer_1
 62
7
100
AcDbSpline
 70
8
 71
3
 72
8
 73
4
 74
0
 40
0
 40
0
 40
0
 40
0
 40
1
 40
1
 40
1
 40
1
 10
70.653579
 20
125.677217
 30
0.0
 10
70.622871
 20
125.558982
 30
0.0
 10
70.581638
 20
125.461797
 30
0.0
 10
70.529897
 20
125.385663
 30
0.0
  0
SPLINE
  5
151
100
AcDbEntity
  8
Layer_1
 62
7
100
AcDbSpline
 70
8
 71
3
 72
8
 73
4
 74
0
 40
0
 40
0
 40
0
 40
0
 40
1
 40
1
 40
1
 40
1
 10
70.529897
 20
125.385663
 30
0.0
 10
70.478152
 20
125.309530
 30
0.0
 10
70.411908
 20
125.243116
 30
0.0
 10
70.331165
 20
125.186421
 30
0.0
  0
SPLINE
  5
152
100
AcDbEntity
  8
Layer_1
 62
7
100
AcDbSpline
 70
8
 71
3
 72
8
 73
4
 74
0
 40
0
 40
0
 40
0
 40
0
 40
1
 40
1
 40
1
 40
1
 10
70.331165
 20
125.186421
 30
0.0
 10
70.197857
 20
125.092825
 30
0.0
 10
70.072536
 20
125.053454
 30
0.0
 10
69.955204
 20
125.068307
 30
0.0
  0
SPLINE
  5
153
100
AcDbEntity
  8
Layer_1
 62
7
100
AcDbSpline
 70
8
 71
3
 72
8
 73
4
 74
0
 40
0
 40
0
 40
0
 40
0
 40
1
 40
1
 40
1
 40
1
 10
69.955204
 20
125.068307
 30
0.0
 10
69.837872
 20
125.083175
 30
0.0
 10
69.743636
 20
125.141245
 30
0.0
 10
69.672501
 20
125.242556
 30
0.0
  0
SPLINE
  5
154
100
AcDbEntity
  8
Layer_1
 62
7
100
AcDbSpline
 70
8
 71
3
 72
8
 73
4
 74
0
 40
0
 40
0
 40
0
 40
0
 40
1
 40
1
 40
1
 40
1
 10
69.672501
 20
125.242556
 30
0.0
 10
69.630785
 20
125.301971
 30
0.0
 10
69.606198
 20
125.365742
 30
0.0
 10
69.598740
 20
125.433861
 30
0.0
  0
SPLINE
  5
155
100
AcDbEntity
  8
Layer_1
 62
7
100
AcDbSpline
 70
8
 71
3
 72
8
 73
4
 74
0
 40
0
 40
0
 40
0
 40
0
 40
1
 40
1
 40
1
 40
1
 10
69.598740
 20
125.433861
 30
0.0
 10
69.591272
 20
125.501981
 30
0.0
 10
69.599029
 20
125.566269
 30
0.0
 10
69.621979
 20
125.626733
 30
0.0
  0
SPLINE
  5
156
100
AcDbEntity
  8
Layer_1
 62
7
100
AcDbSpline
 70
8
 71
3
 72
8
 73
4
 74
0
 40
0
 40
0
 40
0
 40
0
 40
1
 40
1
 40
1
 40
1
 10
69.621979
 20
125.626733
 30
0.0
 10
69.644906
 20
125.687193
 30
0.0
 10
69.678466
 20
125.744298
 30
0.0
 10
69.722613
 20
125.798043
 30
0.0
  0
SPLINE
  5
157
100
AcDbEntity
  8
Layer_1
 62
7
100
AcDbSpline
 70
8
 71
3
 72
8
 73
4
 74
0
 40
0
 40
0
 40
0
 40
0
 40
1
 40
1
 40
1
 40
1
 10
69.722613
 20
125.798043
 30
0.0
 10
69.755509
 20
125.837053
 30
0.0
 10
69.809217
 20
125.890125
 30
0.0
 10
69.883773
 20
125.957255
 30
0.0
  0
SPLINE
  5
158
100
AcDbEntity
  8
Layer_1
 62
7
100
AcDbSpline
 70
8
 71
3
 72
8
 73
4
 74
0
 40
0
 40
0
 40
0
 40
0
 40
1
 40
1
 40
1
 40
1
 10
69.883773
 20
125.957255
 30
0.0
 10
70.035926
 20
126.093658
 30
0.0
 10
70.141607
 20
126.203115
 30
0.0
 10
70.200813
 20
126.285626
 30
0.0
  0
SPLINE
  5
159
100
AcDbEntity
  8
Layer_1
 62
7
100
AcDbSpline
 70
8
 71
3
 72
8
 73
4
 74
0
 40
0
 40
0
 40
0
 40
0
 40
1
 40
1
 40
1
 40
1
 10
70.200813
 20
126.285626
 30
0.0
 10
70.181777
 20
126.314354
 30
0.0
 10
70.169585
 20
126.332514
 30
0.0
 10
70.164249
 20
126.340132
 30
0.0
  0
SPLINE
  5
15a
100
AcDbEntity
  8
Layer_1
 62
7
100
AcDbSpline
 70
8
 71
3
 72
8
 73
4
 74
0
 40
0
 40
0
 40
0
 40
0
 40
1
 40
1
 40
1
 40
1
 10
70.164249
 20
126.340132
 30
0.0
 10
70.105418
 20
126.423922
 30
0.0
 10
70.044541
 20
126.469320
 30
0.0
 10
69.981625
 20
126.476323
 30
0.0
  0
SPLINE
  5
15b
100
AcDbEntity
  8
Layer_1
 62
7
100
AcDbSpline
 70
8
 71
3
 72
8
 73
4
 74
0
 40
0
 40
0
 40
0
 40
0
 40
1
 40
1
 40
1
 40
1
 10
69.981625
 20
126.476323
 30
0.0
 10
69.896439
 20
126.485876
 30
0.0
 10
69.802047
 20
126.454300
 30
0.0
 10
69.698450
 20
126.381560
 30
0.0
  0
SPLINE
  5
15c
100
AcDbEntity
  8
Layer_1
 62
7
100
AcDbSpline
 70
8
 71
3
 72
8
 73
4
 74
0
 40
0
 40
0
 40
0
 40
0
 40
1
 40
1
 40
1
 40
1
 10
69.698450
 20
126.381560
 30
0.0
 10
69.601707
 20
126.313631
 30
0.0
 10
69.542191
 20
126.246540
 30
0.0
 10
69.519907
 20
126.180285
 30
0.0
  0
SPLINE
  5
15d
100
AcDbEntity
  8
Layer_1
 62
7
100
AcDbSpline
 70
8
 71
3
 72
8
 73
4
 74
0
 40
0
 40
0
 40
0
 40
0
 40
1
 40
1
 40
1
 40
1
 10
69.519907
 20
126.180285
 30
0.0
 10
69.497606
 20
126.114031
 30
0.0
 10
69.505665
 20
126.030106
 30
0.0
 10
69.544015
 20
125.928520
 30
0.0
  0
LWPOLYLINE
  5
15e
100
AcDbEntity
  8
Layer_1
 62
7
100
AcDbPolyline
 90
5
 70
0
 10
68.967241
 20
124.919277
 30
0.0
 10
68.654373
 20
125.829863
 30
0.0
 10
68.855175
 20
125.992315
 30
0.0
 10
69.351407
 20
124.486600
 30
0.0
 10
69.169058
 20
124.339075
 30
0.0
  0
SPLINE
  5
15f
100
AcDbEntity
  8
Layer_1
 62
7
100
AcDbSpline
 70
8
 71
3
 72
8
 73
4
 74
0
 40
0
 40
0
 40
0
 40
0
 40
1
 40
1
 40
1
 40
1
 10
69.323656
 20
125.814745
 30
0.0
 10
69.281502
 20
125.913656
 30
0.0
 10
69.262786
 20
126.004292
 30
0.0
 10
69.267510
 20
126.086651
 30
0.0
  0
SPLINE
  5
160
100
AcDbEntity
  8
Layer_1
 62
7
100
AcDbSpline
 70
8
 71
3
 72
8
 73
4
 74
0
 40
0
 40
0
 40
0
 40
0
 40
1
 40
1
 40
1
 40
1
 10
69.267510
 20
126.086651
 30
0.0
 10
69.272234
 20
126.169010
 30
0.0
 10
69.304182
 20
126.252282
 30
0.0
 10
69.363347
 20
126.336474
 30
0.0
  0
SPLINE
  5
161
100
AcDbEntity
  8
Layer_1
 62
7
100
AcDbSpline
 70
8
 71
3
 72
8
 73
4
 74
0
 40
0
 40
0
 40
0
 40
0
 40
1
 40
1
 40
1
 40
1
 10
69.363347
 20
126.336474
 30
0.0
 10
69.422511
 20
126.420660
 30
0.0
 10
69.504272
 20
126.499392
 30
0.0
 10
69.608633
 20
126.572667
 30
0.0
  0
SPLINE
  5
162
100
AcDbEntity
  8
Layer_1
 62
7
100
AcDbSpline
 70
8
 71
3
 72
8
 73
4
 74
0
 40
0
 40
0
 40
0
 40
0
 40
1
 40
1
 40
1
 40
1
 10
69.608633
 20
126.572667
 30
0.0
 10
69.712230
 20
126.645407
 30
0.0
 10
69.804961
 20
126.692320
 30
0.0
 10
69.886827
 20
126.713405
 30
0.0
  0
SPLINE
  5
163
100
AcDbEntity
  8
Layer_1
 62
7
100
AcDbSpline
 70
8
 71
3
 72
8
 73
4
 74
0
 40
0
 40
0
 40
0
 40
0
 40
1
 40
1
 40
1
 40
1
 10
69.886827
 20
126.713405
 30
0.0
 10
69.968689
 20
126.734491
 30
0.0
 10
70.037826
 20
126.737270
 30
0.0
 10
70.094236
 20
126.721707
 30
0.0
  0
SPLINE
  5
164
100
AcDbEntity
  8
Layer_1
 62
7
100
AcDbSpline
 70
8
 71
3
 72
8
 73
4
 74
0
 40
0
 40
0
 40
0
 40
0
 40
1
 40
1
 40
1
 40
1
 10
70.094236
 20
126.721707
 30
0.0
 10
70.150646
 20
126.706145
 30
0.0
 10
70.204735
 20
126.674475
 30
0.0
 10
70.256501
 20
126.626663
 30
0.0
  0
SPLINE
  5
165
100
AcDbEntity
  8
Layer_1
 62
7
100
AcDbSpline
 70
8
 71
3
 72
8
 73
4
 74
0
 40
0
 40
0
 40
0
 40
0
 40
1
 40
1
 40
1
 40
1
 10
70.256501
 20
126.626663
 30
0.0
 10
70.287973
 20
126.596441
 30
0.0
 10
70.335778
 20
126.535616
 30
0.0
 10
70.399962
 20
126.444209
 30
0.0
  0
LWPOLYLINE
  5
166
100
AcDbEntity
  8
Layer_1
 62
7
100
AcDbPolyline
 90
2
 70
0
 10
69.544015
 20
125.928520
 30
0.0
 10
69.323656
 20
125.814745
 30
0.0
  0
SPLINE
  5
167
100
AcDbEntity
  8
Layer_1
 62
7
100
AcDbSpline
 70
8
 71
3
 72
8
 73
4
 74
0
 40
0
 40
0
 40
0
 40
0
 40
1
 40
1
 40
1
 40
1
 10
70.592504
 20
126.169979
 30
0.0
 10
70.726750
 20
125.978778
 30
0.0
 10
70.816038
 20
125.860925
 30
0.0
 10
70.860366
 20
125.816423
 30
0.0
  0
SPLINE
  5
168
100
AcDbEntity
  8
Layer_1
 62
7
100
AcDbSpline
 70
8
 71
3
 72
8
 73
4
 74
0
 40
0
 40
0
 40
0
 40
0
 40
1
 40
1
 40
1
 40
1
 10
70.860366
 20
125.816423
 30
0.0
 10
70.904691
 20
125.771914
 30
0.0
 10
70.956120
 20
125.735520
 30
0.0
 10
71.014645
 20
125.707240
 30
0.0
  0
LWPOLYLINE
  5
169
100
AcDbEntity
  8
Layer_1
 62
7
100
AcDbPolyline
 90
2
 70
0
 10
70.399962
 20
126.444209
 30
0.0
 10
70.592504
 20
126.169979
 30
0.0
  0
SPLINE
  5
16a
100
AcDbEntity
  8
Layer_1
 62
7
100
AcDbSpline
 70
8
 71
3
 72
8
 73
4
 74
0
 40
0
 40
0
 40
0
 40
0
 40
1
 40
1
 40
1
 40
1
 10
70.799830
 20
125.556414
 30
0.0
 10
70.748551
 20
125.584100
 30
0.0
 10
70.699807
 20
125.624364
 30
0.0
 10
70.653600
 20
125.677217
 30
0.0
  0
LWPOLYLINE
  5
16b
100
AcDbEntity
  8
Layer_1
 62
7
100
AcDbPolyline
 90
2
 70
0
 10
71.014645
 20
125.707240
 30
0.0
 10
70.799830
 20
125.556414
 30
0.0
  0
SPLINE
  5
16c
100
AcDbEntity
  8
Layer_1
 62
7
100
AcDbSpline
 70
8
 71
3
 72
8
 73
4
 74
0
 40
0
 40
0
 40
0
 40
0
 40
1
 40
1
 40
1
 40
1
 10
70.313928
 20
126.124518
 30
0.0
 10
70.260669
 20
126.041631
 30
0.0
 10
70.166875
 20
125.937111
 30
0.0
 10
70.032550
 20
125.810952
 30
0.0
  0
SPLINE
  5
16d
100
AcDbEntity
  8
Layer_1
 62
7
100
AcDbSpline
 70
8
 71
3
 72
8
 73
4
 74
0
 40
0
 40
0
 40
0
 40
0
 40
1
 40
1
 40
1
 40
1
 10
70.032550
 20
125.810952
 30
0.0
 10
69.956551
 20
125.739393
 30
0.0
 10
69.906384
 20
125.683699
 30
0.0
 10
69.882040
 20
125.643862
 30
0.0
  0
SPLINE
  5
16e
100
AcDbEntity
  8
Layer_1
 62
7
100
AcDbSpline
 70
8
 71
3
 72
8
 73
4
 74
0
 40
0
 40
0
 40
0
 40
0
 40
1
 40
1
 40
1
 40
1
 10
69.882040
 20
125.643862
 30
0.0
 10
69.857689
 20
125.604022
 30
0.0
 10
69.846299
 20
125.562754
 30
0.0
 10
69.847859
 20
125.520055
 30
0.0
  0
SPLINE
  5
16f
100
AcDbEntity
  8
Layer_1
 62
7
100
AcDbSpline
 70
8
 71
3
 72
8
 73
4
 74
0
 40
0
 40
0
 40
0
 40
0
 40
1
 40
1
 40
1
 40
1
 10
69.847859
 20
125.520055
 30
0.0
 10
69.849248
 20
125.477356
 30
0.0
 10
69.862761
 20
125.438106
 30
0.0
 10
69.887886
 20
125.402306
 30
0.0
  0
SPLINE
  5
170
100
AcDbEntity
  8
Layer_1
 62
7
100
AcDbSpline
 70
8
 71
3
 72
8
 73
4
 74
0
 40
0
 40
0
 40
0
 40
0
 40
1
 40
1
 40
1
 40
1
 10
69.887886
 20
125.402306
 30
0.0
 10
69.926396
 20
125.347459
 30
0.0
 10
69.979245
 20
125.316328
 30
0.0
 10
70.046434
 20
125.308915
 30
0.0
  0
SPLINE
  5
171
100
AcDbEntity
  8
Layer_1
 62
7
100
AcDbSpline
 70
8
 71
3
 72
8
 73
4
 74
0
 40
0
 40
0
 40
0
 40
0
 40
1
 40
1
 40
1
 40
1
 10
70.046434
 20
125.308915
 30
0.0
 10
70.113619
 20
125.301481
 30
0.0
 10
70.187207
 20
125.325867
 30
0.0
 10
70.267189
 20
125.382030
 30
0.0
  0
SPLINE
  5
172
100
AcDbEntity
  8
Layer_1
 62
7
100
AcDbSpline
 70
8
 71
3
 72
8
 73
4
 74
0
 40
0
 40
0
 40
0
 40
0
 40
1
 40
1
 40
1
 40
1
 10
70.267189
 20
125.382030
 30
0.0
 10
70.346411
 20
125.437655
 30
0.0
 10
70.404707
 20
125.504454
 30
0.0
 10
70.442074
 20
125.582440
 30
0.0
  0
SPLINE
  5
173
100
AcDbEntity
  8
Layer_1
 62
7
100
AcDbSpline
 70
8
 71
3
 72
8
 73
4
 74
0
 40
0
 40
0
 40
0
 40
0
 40
1
 40
1
 40
1
 40
1
 10
70.442074
 20
125.582440
 30
0.0
 10
70.479438
 20
125.660421
 30
0.0
 10
70.491467
 20
125.739660
 30
0.0
 10
70.478163
 20
125.820164
 30
0.0
  0
SPLINE
  5
174
100
AcDbEntity
  8
Layer_1
 62
7
100
AcDbSpline
 70
8
 71
3
 72
8
 73
4
 74
0
 40
0
 40
0
 40
0
 40
0
 40
1
 40
1
 40
1
 40
1
 10
70.478163
 20
125.820164
 30
0.0
 10
70.467637
 20
125.882142
 30
0.0
 10
70.430538
 20
125.958453
 30
0.0
 10
70.366892
 20
126.049103
 30
0.0
  0
LWPOLYLINE
  5
175
100
AcDbEntity
  8
Layer_1
 62
7
100
AcDbPolyline
 90
2
 70
0
 10
70.653600
 20
125.677217
 30
0.0
 10
70.653579
 20
125.677217
 30
0.0
  0
LWPOLYLINE
  5
176
100
AcDbEntity
  8
Layer_1
 62
7
100
AcDbPolyline
 90
2
 70
0
 10
70.366892
 20
126.049103
 30
0.0
 10
70.313928
 20
126.124518
 30
0.0
  0
SPLINE
  5
177
100
AcDbEntity
  8
Layer_1
 62
7
100
AcDbSpline
 70
8
 71
3
 72
8
 73
4
 74
0
 40
0
 40
0
 40
0
 40
0
 40
1
 40
1
 40
1
 40
1
 10
70.817132
 20
127.082280
 30
0.0
 10
70.826755
 20
127.277976
 30
0.0
 10
70.919750
 20
127.428729
 30
0.0
 10
71.096156
 20
127.534531
 30
0.0
  0
SPLINE
  5
178
100
AcDbEntity
  8
Layer_1
 62
7
100
AcDbSpline
 70
8
 71
3
 72
8
 73
4
 74
0
 40
0
 40
0
 40
0
 40
0
 40
1
 40
1
 40
1
 40
1
 10
71.096156
 20
127.534531
 30
0.0
 10
71.172783
 20
127.580489
 30
0.0
 10
71.251480
 20
127.608967
 30
0.0
 10
71.332255
 20
127.619968
 30
0.0
  0
SPLINE
  5
179
100
AcDbEntity
  8
Layer_1
 62
7
100
AcDbSpline
 70
8
 71
3
 72
8
 73
4
 74
0
 40
0
 40
0
 40
0
 40
0
 40
1
 40
1
 40
1
 40
1
 10
71.332255
 20
127.619968
 30
0.0
 10
71.413026
 20
127.630980
 30
0.0
 10
71.482782
 20
127.623685
 30
0.0
 10
71.541519
 20
127.598153
 30
0.0
  0
SPLINE
  5
17a
100
AcDbEntity
  8
Layer_1
 62
7
100
AcDbSpline
 70
8
 71
3
 72
8
 73
4
 74
0
 40
0
 40
0
 40
0
 40
0
 40
1
 40
1
 40
1
 40
1
 10
71.541519
 20
127.598153
 30
0.0
 10
71.600256
 20
127.572586
 30
0.0
 10
71.654439
 20
127.532923
 30
0.0
 10
71.704076
 20
127.479126
 30
0.0
  0
SPLINE
  5
17b
100
AcDbEntity
  8
Layer_1
 62
7
100
AcDbSpline
 70
8
 71
3
 72
8
 73
4
 74
0
 40
0
 40
0
 40
0
 40
0
 40
1
 40
1
 40
1
 40
1
 10
71.704076
 20
127.479126
 30
0.0
 10
71.735999
 20
127.443999
 30
0.0
 10
71.781877
 20
127.376550
 30
0.0
 10
71.841719
 20
127.276778
 30
0.0
  0
LWPOLYLINE
  5
17c
100
AcDbEntity
  8
Layer_1
 62
7
100
AcDbPolyline
 90
4
 70
0
 10
71.277366
 20
125.875202
 30
0.0
 10
70.514734
 20
127.146742
 30
0.0
 10
70.708700
 20
127.263074
 30
0.0
 10
70.817132
 20
127.082280
 30
0.0
  0
SPLINE
  5
17d
100
AcDbEntity
  8
Layer_1
 62
7
100
AcDbSpline
 70
8
 71
3
 72
8
 73
4
 74
0
 40
0
 40
0
 40
0
 40
0
 40
1
 40
1
 40
1
 40
1
 10
71.631228
 20
127.139135
 30
0.0
 10
71.578566
 20
127.226936
 30
0.0
 10
71.530810
 20
127.287563
 30
0.0
 10
71.487958
 20
127.321012
 30
0.0
  0
SPLINE
  5
17e
100
AcDbEntity
  8
Layer_1
 62
7
100
AcDbSpline
 70
8
 71
3
 72
8
 73
4
 74
0
 40
0
 40
0
 40
0
 40
0
 40
1
 40
1
 40
1
 40
1
 10
71.487958
 20
127.321012
 30
0.0
 10
71.445102
 20
127.354464
 30
0.0
 10
71.394546
 20
127.371350
 30
0.0
 10
71.336281
 20
127.371680
 30
0.0
  0
SPLINE
  5
17f
100
AcDbEntity
  8
Layer_1
 62
7
100
AcDbSpline
 70
8
 71
3
 72
8
 73
4
 74
0
 40
0
 40
0
 40
0
 40
0
 40
1
 40
1
 40
1
 40
1
 10
71.336281
 20
127.371680
 30
0.0
 10
71.278020
 20
127.372006
 30
0.0
 10
71.220151
 20
127.354936
 30
0.0
 10
71.162681
 20
127.320470
 30
0.0
  0
SPLINE
  5
180
100
AcDbEntity
  8
Layer_1
 62
7
100
AcDbSpline
 70
8
 71
3
 72
8
 73
4
 74
0
 40
0
 40
0
 40
0
 40
0
 40
1
 40
1
 40
1
 40
1
 10
71.162681
 20
127.320470
 30
0.0
 10
71.070888
 20
127.265411
 30
0.0
 10
71.009139
 20
127.188764
 30
0.0
 10
70.977438
 20
127.090520
 30
0.0
  0
SPLINE
  5
181
100
AcDbEntity
  8
Layer_1
 62
7
100
AcDbSpline
 70
8
 71
3
 72
8
 73
4
 74
0
 40
0
 40
0
 40
0
 40
0
 40
1
 40
1
 40
1
 40
1
 10
70.977438
 20
127.090520
 30
0.0
 10
70.945723
 20
126.992276
 30
0.0
 10
70.978827
 20
126.861737
 30
0.0
 10
71.076380
 20
126.698906
 30
0.0
  0
LWPOLYLINE
  5
182
100
AcDbEntity
  8
Layer_1
 62
7
100
AcDbPolyline
 90
4
 70
0
 10
71.841719
 20
127.276778
 30
0.0
 10
72.310644
 20
126.494935
 30
0.0
 10
72.095127
 20
126.365675
 30
0.0
 10
71.631228
 20
127.139135
 30
0.0
  0
LWPOLYLINE
  5
183
100
AcDbEntity
  8
Layer_1
 62
7
100
AcDbPolyline
 90
3
 70
0
 10
71.076380
 20
126.698906
 30
0.0
 10
71.492883
 20
126.004466
 30
0.0
 10
71.277366
 20
125.875202
 30
0.0
  0
SPLINE
  5
184
100
AcDbEntity
  8
Layer_1
 62
7
100
AcDbSpline
 70
8
 71
3
 72
8
 73
4
 74
0
 40
0
 40
0
 40
0
 40
0
 40
1
 40
1
 40
1
 40
1
 10
73.500114
 20
127.687678
 30
0.0
 10
73.553484
 20
127.523687
 30
0.0
 10
73.552522
 20
127.373510
 30
0.0
 10
73.497335
 20
127.237153
 30
0.0
  0
SPLINE
  5
185
100
AcDbEntity
  8
Layer_1
 62
7
100
AcDbSpline
 70
8
 71
3
 72
8
 73
4
 74
0
 40
0
 40
0
 40
0
 40
0
 40
1
 40
1
 40
1
 40
1
 10
73.497335
 20
127.237153
 30
0.0
 10
73.442040
 20
127.100792
 30
0.0
 10
73.342264
 20
126.995805
 30
0.0
 10
73.198007
 20
126.922200
 30
0.0
  0
SPLINE
  5
186
100
AcDbEntity
  8
Layer_1
 62
7
100
AcDbSpline
 70
8
 71
3
 72
8
 73
4
 74
0
 40
0
 40
0
 40
0
 40
0
 40
1
 40
1
 40
1
 40
1
 10
73.198007
 20
126.922200
 30
0.0
 10
73.017266
 20
126.829983
 30
0.0
 10
72.841829
 20
126.814921
 30
0.0
 10
72.671696
 20
126.877014
 30
0.0
  0
SPLINE
  5
187
100
AcDbEntity
  8
Layer_1
 62
7
100
AcDbSpline
 70
8
 71
3
 72
8
 73
4
 74
0
 40
0
 40
0
 40
0
 40
0
 40
1
 40
1
 40
1
 40
1
 10
72.671696
 20
126.877014
 30
0.0
 10
72.501563
 20
126.939107
 30
0.0
 10
72.360231
 20
127.080422
 30
0.0
 10
72.247710
 20
127.300958
 30
0.0
  0
SPLINE
  5
188
100
AcDbEntity
  8
Layer_1
 62
7
100
AcDbSpline
 70
8
 71
3
 72
8
 73
4
 74
0
 40
0
 40
0
 40
0
 40
0
 40
1
 40
1
 40
1
 40
1
 10
72.247710
 20
127.300958
 30
0.0
 10
72.174950
 20
127.443558
 30
0.0
 10
72.134915
 20
127.580392
 30
0.0
 10
72.127599
 20
127.711455
 30
0.0
  0
SPLINE
  5
189
100
AcDbEntity
  8
Layer_1
 62
7
100
AcDbSpline
 70
8
 71
3
 72
8
 73
4
 74
0
 40
0
 40
0
 40
0
 40
0
 40
1
 40
1
 40
1
 40
1
 10
72.127599
 20
127.711455
 30
0.0
 10
72.120304
 20
127.842519
 30
0.0
 10
72.151290
 20
127.959427
 30
0.0
 10
72.220587
 20
128.062187
 30
0.0
  0
SPLINE
  5
18a
100
AcDbEntity
  8
Layer_1
 62
7
100
AcDbSpline
 70
8
 71
3
 72
8
 73
4
 74
0
 40
0
 40
0
 40
0
 40
0
 40
1
 40
1
 40
1
 40
1
 10
72.220587
 20
128.062187
 30
0.0
 10
72.289888
 20
128.164943
 30
0.0
 10
72.381334
 20
128.245298
 30
0.0
 10
72.494918
 20
128.303253
 30
0.0
  0
SPLINE
  5
18b
100
AcDbEntity
  8
Layer_1
 62
7
100
AcDbSpline
 70
8
 71
3
 72
8
 73
4
 74
0
 40
0
 40
0
 40
0
 40
0
 40
1
 40
1
 40
1
 40
1
 10
72.494918
 20
128.303253
 30
0.0
 10
72.638348
 20
128.376434
 30
0.0
 10
72.774171
 20
128.400021
 30
0.0
 10
72.902383
 20
128.374010
 30
0.0
  0
SPLINE
  5
18c
100
AcDbEntity
  8
Layer_1
 62
7
100
AcDbSpline
 70
8
 71
3
 72
8
 73
4
 74
0
 40
0
 40
0
 40
0
 40
0
 40
1
 40
1
 40
1
 40
1
 10
72.902383
 20
128.374010
 30
0.0
 10
73.030598
 20
128.347991
 30
0.0
 10
73.141608
 20
128.274807
 30
0.0
 10
73.235416
 20
128.154439
 30
0.0
  0
LWPOLYLINE
  5
18d
100
AcDbEntity
  8
Layer_1
 62
7
100
AcDbPolyline
 90
2
 70
0
 10
73.265398
 20
127.603968
 30
0.0
 10
73.500114
 20
127.687678
 30
0.0
  0
SPLINE
  5
18e
100
AcDbEntity
  8
Layer_1
 62
7
100
AcDbSpline
 70
8
 71
3
 72
8
 73
4
 74
0
 40
0
 40
0
 40
0
 40
0
 40
1
 40
1
 40
1
 40
1
 10
73.034916
 20
128.009821
 30
0.0
 10
72.968922
 20
128.087955
 30
0.0
 10
72.898183
 20
128.135976
 30
0.0
 10
72.822695
 20
128.153887
 30
0.0
  0
SPLINE
  5
18f
100
AcDbEntity
  8
Layer_1
 62
7
100
AcDbSpline
 70
8
 71
3
 72
8
 73
4
 74
0
 40
0
 40
0
 40
0
 40
0
 40
1
 40
1
 40
1
 40
1
 10
72.822695
 20
128.153887
 30
0.0
 10
72.747204
 20
128.171811
 30
0.0
 10
72.672151
 20
128.161702
 30
0.0
 10
72.597532
 20
128.123630
 30
0.0
  0
SPLINE
  5
190
100
AcDbEntity
  8
Layer_1
 62
7
100
AcDbSpline
 70
8
 71
3
 72
8
 73
4
 74
0
 40
0
 40
0
 40
0
 40
0
 40
1
 40
1
 40
1
 40
1
 10
72.597532
 20
128.123630
 30
0.0
 10
72.484778
 20
128.066099
 30
0.0
 10
72.413789
 20
127.978936
 30
0.0
 10
72.384561
 20
127.862146
 30
0.0
  0
SPLINE
  5
191
100
AcDbEntity
  8
Layer_1
 62
7
100
AcDbSpline
 70
8
 71
3
 72
8
 73
4
 74
0
 40
0
 40
0
 40
0
 40
0
 40
1
 40
1
 40
1
 40
1
 10
72.384561
 20
127.862146
 30
0.0
 10
72.355347
 20
127.745352
 30
0.0
 10
72.385256
 20
127.599487
 30
0.0
 10
72.474607
 20
127.424553
 30
0.0
  0
SPLINE
  5
192
100
AcDbEntity
  8
Layer_1
 62
7
100
AcDbSpline
 70
8
 71
3
 72
8
 73
4
 74
0
 40
0
 40
0
 40
0
 40
0
 40
1
 40
1
 40
1
 40
1
 10
72.474607
 20
127.424553
 30
0.0
 10
72.565132
 20
127.247129
 30
0.0
 10
72.664905
 20
127.135550
 30
0.0
 10
72.773924
 20
127.089818
 30
0.0
  0
SPLINE
  5
193
100
AcDbEntity
  8
Layer_1
 62
7
100
AcDbSpline
 70
8
 71
3
 72
8
 73
4
 74
0
 40
0
 40
0
 40
0
 40
0
 40
1
 40
1
 40
1
 40
1
 10
72.773924
 20
127.089818
 30
0.0
 10
72.882940
 20
127.044086
 30
0.0
 10
72.992168
 20
127.049137
 30
0.0
 10
73.101608
 20
127.104964
 30
0.0
  0
SPLINE
  5
194
100
AcDbEntity
  8
Layer_1
 62
7
100
AcDbSpline
 70
8
 71
3
 72
8
 73
4
 74
0
 40
0
 40
0
 40
0
 40
0
 40
1
 40
1
 40
1
 40
1
 10
73.101608
 20
127.104964
 30
0.0
 10
73.189490
 20
127.149802
 30
0.0
 10
73.249116
 20
127.214184
 30
0.0
 10
73.280484
 20
127.298113
 30
0.0
  0
SPLINE
  5
195
100
AcDbEntity
  8
Layer_1
 62
7
100
AcDbSpline
 70
8
 71
3
 72
8
 73
4
 74
0
 40
0
 40
0
 40
0
 40
0
 40
1
 40
1
 40
1
 40
1
 10
73.280484
 20
127.298113
 30
0.0
 10
73.311852
 20
127.382035
 30
0.0
 10
73.306850
 20
127.483978
 30
0.0
 10
73.265512
 20
127.603943
 30
0.0
  0
LWPOLYLINE
  5
196
100
AcDbEntity
  8
Layer_1
 62
7
100
AcDbPolyline
 90
2
 70
0
 10
73.235416
 20
128.154439
 30
0.0
 10
73.034916
 20
128.009821
 30
0.0
  0
SPLINE
  5
197
100
AcDbEntity
  8
Layer_1
 62
7
100
AcDbSpline
 70
8
 71
3
 72
8
 73
4
 74
0
 40
0
 40
0
 40
0
 40
0
 40
1
 40
1
 40
1
 40
1
 10
73.551810
 20
127.966524
 30
0.0
 10
73.444090
 20
128.219088
 30
0.0
 10
73.434509
 20
128.436099
 30
0.0
 10
73.523047
 20
128.617556
 30
0.0
  0
SPLINE
  5
198
100
AcDbEntity
  8
Layer_1
 62
7
100
AcDbSpline
 70
8
 71
3
 72
8
 73
4
 74
0
 40
0
 40
0
 40
0
 40
0
 40
1
 40
1
 40
1
 40
1
 10
73.523047
 20
128.617556
 30
0.0
 10
73.597253
 20
128.768608
 30
0.0
 10
73.718688
 20
128.880100
 30
0.0
 10
73.887347
 20
128.952034
 30
0.0
  0
SPLINE
  5
199
100
AcDbEntity
  8
Layer_1
 62
7
100
AcDbSpline
 70
8
 71
3
 72
8
 73
4
 74
0
 40
0
 40
0
 40
0
 40
0
 40
1
 40
1
 40
1
 40
1
 10
73.887347
 20
128.952034
 30
0.0
 10
74.074842
 20
129.032003
 30
0.0
 10
74.254291
 20
129.035935
 30
0.0
 10
74.425695
 20
128.963845
 30
0.0
  0
SPLINE
  5
19a
100
AcDbEntity
  8
Layer_1
 62
7
100
AcDbSpline
 70
8
 71
3
 72
8
 73
4
 74
0
 40
0
 40
0
 40
0
 40
0
 40
1
 40
1
 40
1
 40
1
 10
74.425695
 20
128.963845
 30
0.0
 10
74.597099
 20
128.891744
 30
0.0
 10
74.728993
 20
128.747390
 30
0.0
 10
74.821377
 20
128.530786
 30
0.0
  0
SPLINE
  5
19b
100
AcDbEntity
  8
Layer_1
 62
7
100
AcDbSpline
 70
8
 71
3
 72
8
 73
4
 74
0
 40
0
 40
0
 40
0
 40
0
 40
1
 40
1
 40
1
 40
1
 10
74.821377
 20
128.530786
 30
0.0
 10
74.896232
 20
128.355276
 30
0.0
 10
74.928785
 20
128.205992
 30
0.0
 10
74.919037
 20
128.082939
 30
0.0
  0
SPLINE
  5
19c
100
AcDbEntity
  8
Layer_1
 62
7
100
AcDbSpline
 70
8
 71
3
 72
8
 73
4
 74
0
 40
0
 40
0
 40
0
 40
0
 40
1
 40
1
 40
1
 40
1
 10
74.919037
 20
128.082939
 30
0.0
 10
74.909276
 20
127.959886
 30
0.0
 10
74.865983
 20
127.849081
 30
0.0
 10
74.789123
 20
127.750528
 30
0.0
  0
SPLINE
  5
19d
100
AcDbEntity
  8
Layer_1
 62
7
100
AcDbSpline
 70
8
 71
3
 72
8
 73
4
 74
0
 40
0
 40
0
 40
0
 40
0
 40
1
 40
1
 40
1
 40
1
 10
74.789123
 20
127.750528
 30
0.0
 10
74.712260
 20
127.651971
 30
0.0
 10
74.614325
 20
127.577317
 30
0.0
 10
74.495323
 20
127.526559
 30
0.0
  0
SPLINE
  5
19e
100
AcDbEntity
  8
Layer_1
 62
7
100
AcDbSpline
 70
8
 71
3
 72
8
 73
4
 74
0
 40
0
 40
0
 40
0
 40
0
 40
1
 40
1
 40
1
 40
1
 10
74.495323
 20
127.526559
 30
0.0
 10
74.304400
 20
127.445132
 30
0.0
 10
74.123971
 20
127.440529
 30
0.0
 10
73.954036
 20
127.512769
 30
0.0
  0
SPLINE
  5
19f
100
AcDbEntity
  8
Layer_1
 62
7
100
AcDbSpline
 70
8
 71
3
 72
8
 73
4
 74
0
 40
0
 40
0
 40
0
 40
0
 40
1
 40
1
 40
1
 40
1
 10
73.954036
 20
127.512769
 30
0.0
 10
73.784098
 20
127.584987
 30
0.0
 10
73.650019
 20
127.736251
 30
0.0
 10
73.551792
 20
127.966552
 30
0.0
  0
LWPOLYLINE
  5
1a0
100
AcDbEntity
  8
Layer_1
 62
7
100
AcDbPolyline
 90
2
 70
0
 10
73.265512
 20
127.603943
 30
0.0
 10
73.265398
 20
127.603968
 30
0.0
  0
SPLINE
  5
1a1
100
AcDbEntity
  8
Layer_1
 62
7
100
AcDbSpline
 70
8
 71
3
 72
8
 73
4
 74
0
 40
0
 40
0
 40
0
 40
0
 40
1
 40
1
 40
1
 40
1
 10
73.789392
 20
128.067856
 30
0.0
 10
73.863882
 20
127.893201
 30
0.0
 10
73.957756
 20
127.778672
 30
0.0
 10
74.071017
 20
127.724273
 30
0.0
  0
SPLINE
  5
1a2
100
AcDbEntity
  8
Layer_1
 62
7
100
AcDbSpline
 70
8
 71
3
 72
8
 73
4
 74
0
 40
0
 40
0
 40
0
 40
0
 40
1
 40
1
 40
1
 40
1
 10
74.071017
 20
127.724273
 30
0.0
 10
74.184275
 20
127.669871
 30
0.0
 10
74.298696
 20
127.667318
 30
0.0
 10
74.414277
 20
127.716631
 30
0.0
  0
SPLINE
  5
1a3
100
AcDbEntity
  8
Layer_1
 62
7
100
AcDbSpline
 70
8
 71
3
 72
8
 73
4
 74
0
 40
0
 40
0
 40
0
 40
0
 40
1
 40
1
 40
1
 40
1
 10
74.414277
 20
127.716631
 30
0.0
 10
74.529000
 20
127.765562
 30
0.0
 10
74.605836
 20
127.849939
 30
0.0
 10
74.644790
 20
127.969765
 30
0.0
  0
SPLINE
  5
1a4
100
AcDbEntity
  8
Layer_1
 62
7
100
AcDbSpline
 70
8
 71
3
 72
8
 73
4
 74
0
 40
0
 40
0
 40
0
 40
0
 40
1
 40
1
 40
1
 40
1
 10
74.644790
 20
127.969765
 30
0.0
 10
74.683741
 20
128.089591
 30
0.0
 10
74.665077
 20
128.238969
 30
0.0
 10
74.588741
 20
128.417907
 30
0.0
  0
SPLINE
  5
1a5
100
AcDbEntity
  8
Layer_1
 62
7
100
AcDbSpline
 70
8
 71
3
 72
8
 73
4
 74
0
 40
0
 40
0
 40
0
 40
0
 40
1
 40
1
 40
1
 40
1
 10
74.588741
 20
128.417907
 30
0.0
 10
74.516808
 20
128.586567
 30
0.0
 10
74.423997
 20
128.698004
 30
0.0
 10
74.310308
 20
128.752226
 30
0.0
  0
SPLINE
  5
1a6
100
AcDbEntity
  8
Layer_1
 62
7
100
AcDbSpline
 70
8
 71
3
 72
8
 73
4
 74
0
 40
0
 40
0
 40
0
 40
0
 40
1
 40
1
 40
1
 40
1
 10
74.310308
 20
128.752226
 30
0.0
 10
74.196620
 20
128.806440
 30
0.0
 10
74.082842
 20
128.809268
 30
0.0
 10
73.968977
 20
128.760701
 30
0.0
  0
SPLINE
  5
1a7
100
AcDbEntity
  8
Layer_1
 62
7
100
AcDbSpline
 70
8
 71
3
 72
8
 73
4
 74
0
 40
0
 40
0
 40
0
 40
0
 40
1
 40
1
 40
1
 40
1
 10
73.968977
 20
128.760701
 30
0.0
 10
73.853395
 20
128.711402
 30
0.0
 10
73.775949
 20
128.627272
 30
0.0
 10
73.736629
 20
128.508304
 30
0.0
  0
SPLINE
  5
1a8
100
AcDbEntity
  8
Layer_1
 62
7
100
AcDbSpline
 70
8
 71
3
 72
8
 73
4
 74
0
 40
0
 40
0
 40
0
 40
0
 40
1
 40
1
 40
1
 40
1
 10
73.736629
 20
128.508304
 30
0.0
 10
73.697314
 20
128.389332
 30
0.0
 10
73.714884
 20
128.242522
 30
0.0
 10
73.789392
 20
128.067870
 30
0.0
  0
LWPOLYLINE
  5
1a9
100
AcDbEntity
  8
Layer_1
 62
7
100
AcDbPolyline
 90
2
 70
0
 10
73.551792
 20
127.966552
 30
0.0
 10
73.551810
 20
127.966524
 30
0.0
  0
LWPOLYLINE
  5
1aa
100
AcDbEntity
  8
Layer_1
 62
7
100
AcDbPolyline
 90
2
 70
0
 10
73.789392
 20
128.067870
 30
0.0
 10
73.789392
 20
128.067856
 30
0.0
  0
SPLINE
  5
1ab
100
AcDbEntity
  8
Layer_1
 62
7
100
AcDbSpline
 70
8
 71
3
 72
8
 73
4
 74
0
 40
0
 40
0
 40
0
 40
0
 40
1
 40
1
 40
1
 40
1
 10
76.246616
 20
128.454711
 30
0.0
 10
76.191845
 20
128.258779
 30
0.0
 10
76.070703
 20
128.128629
 30
0.0
 10
75.883187
 20
128.064264
 30
0.0
  0
SPLINE
  5
1ac
100
AcDbEntity
  8
Layer_1
 62
7
100
AcDbSpline
 70
8
 71
3
 72
8
 73
4
 74
0
 40
0
 40
0
 40
0
 40
0
 40
1
 40
1
 40
1
 40
1
 10
75.883187
 20
128.064264
 30
0.0
 10
75.800436
 20
128.035849
 30
0.0
 10
75.717748
 20
128.025192
 30
0.0
 10
75.635122
 20
128.032237
 30
0.0
  0
SPLINE
  5
1ad
100
AcDbEntity
  8
Layer_1
 62
7
100
AcDbSpline
 70
8
 71
3
 72
8
 73
4
 74
0
 40
0
 40
0
 40
0
 40
0
 40
1
 40
1
 40
1
 40
1
 10
75.635122
 20
128.032237
 30
0.0
 10
75.552492
 20
128.039288
 30
0.0
 10
75.485560
 20
128.060860
 30
0.0
 10
75.434316
 20
128.096900
 30
0.0
  0
SPLINE
  5
1ae
100
AcDbEntity
  8
Layer_1
 62
7
100
AcDbSpline
 70
8
 71
3
 72
8
 73
4
 74
0
 40
0
 40
0
 40
0
 40
0
 40
1
 40
1
 40
1
 40
1
 10
75.434316
 20
128.096900
 30
0.0
 10
75.383075
 20
128.132943
 30
0.0
 10
75.338472
 20
128.183319
 30
0.0
 10
75.300515
 20
128.248031
 30
0.0
  0
SPLINE
  5
1af
100
AcDbEntity
  8
Layer_1
 62
7
100
AcDbSpline
 70
8
 71
3
 72
8
 73
4
 74
0
 40
0
 40
0
 40
0
 40
0
 40
1
 40
1
 40
1
 40
1
 10
75.300515
 20
128.248031
 30
0.0
 10
75.274809
 20
128.291366
 30
0.0
 10
75.244591
 20
128.363654
 30
0.0
 10
75.209840
 20
128.464893
 30
0.0
  0
LWPOLYLINE
  5
1b0
100
AcDbEntity
  8
Layer_1
 62
7
100
AcDbPolyline
 90
2
 70
0
 10
76.317327
 20
128.248709
 30
0.0
 10
76.246616
 20
128.454711
 30
0.0
  0
SPLINE
  5
1b1
100
AcDbEntity
  8
Layer_1
 62
7
100
AcDbSpline
 70
8
 71
3
 72
8
 73
4
 74
0
 40
0
 40
0
 40
0
 40
0
 40
1
 40
1
 40
1
 40
1
 10
75.416260
 20
128.637599
 30
0.0
 10
75.458865
 20
128.513469
 30
0.0
 10
75.492414
 20
128.431496
 30
0.0
 10
75.516907
 20
128.391684
 30
0.0
  0
SPLINE
  5
1b2
100
AcDbEntity
  8
Layer_1
 62
7
100
AcDbSpline
 70
8
 71
3
 72
8
 73
4
 74
0
 40
0
 40
0
 40
0
 40
0
 40
1
 40
1
 40
1
 40
1
 10
75.516907
 20
128.391684
 30
0.0
 10
75.553326
 20
128.334319
 30
0.0
 10
75.601864
 20
128.296115
 30
0.0
 10
75.662522
 20
128.277082
 30
0.0
  0
SPLINE
  5
1b3
100
AcDbEntity
  8
Layer_1
 62
7
100
AcDbSpline
 70
8
 71
3
 72
8
 73
4
 74
0
 40
0
 40
0
 40
0
 40
0
 40
1
 40
1
 40
1
 40
1
 10
75.662522
 20
128.277082
 30
0.0
 10
75.723181
 20
128.258046
 30
0.0
 10
75.789164
 20
128.260756
 30
0.0
 10
75.860473
 20
128.285245
 30
0.0
  0
SPLINE
  5
1b4
100
AcDbEntity
  8
Layer_1
 62
7
100
AcDbSpline
 70
8
 71
3
 72
8
 73
4
 74
0
 40
0
 40
0
 40
0
 40
0
 40
1
 40
1
 40
1
 40
1
 10
75.860473
 20
128.285245
 30
0.0
 10
75.931778
 20
128.309735
 30
0.0
 10
75.992415
 20
128.350955
 30
0.0
 10
76.042378
 20
128.408945
 30
0.0
  0
SPLINE
  5
1b5
100
AcDbEntity
  8
Layer_1
 62
7
100
AcDbSpline
 70
8
 71
3
 72
8
 73
4
 74
0
 40
0
 40
0
 40
0
 40
0
 40
1
 40
1
 40
1
 40
1
 10
76.042378
 20
128.408945
 30
0.0
 10
76.092344
 20
128.466932
 30
0.0
 10
76.119509
 20
128.531859
 30
0.0
 10
76.123872
 20
128.603717
 30
0.0
  0
SPLINE
  5
1b6
100
AcDbEntity
  8
Layer_1
 62
7
100
AcDbSpline
 70
8
 71
3
 72
8
 73
4
 74
0
 40
0
 40
0
 40
0
 40
0
 40
1
 40
1
 40
1
 40
1
 10
76.123872
 20
128.603717
 30
0.0
 10
76.128248
 20
128.675574
 30
0.0
 10
76.109872
 20
128.771369
 30
0.0
 10
76.068775
 20
128.891098
 30
0.0
  0
LWPOLYLINE
  5
1b7
100
AcDbEntity
  8
Layer_1
 62
7
100
AcDbPolyline
 90
4
 70
0
 10
75.209840
 20
128.464893
 30
0.0
 10
74.911590
 20
129.333797
 30
0.0
 10
75.149283
 20
129.415384
 30
0.0
 10
75.416260
 20
128.637599
 30
0.0
  0
LWPOLYLINE
  5
1b8
100
AcDbEntity
  8
Layer_1
 62
7
100
AcDbPolyline
 90
5
 70
0
 10
76.068775
 20
128.891098
 30
0.0
 10
75.810864
 20
129.642472
 30
0.0
 10
76.048558
 20
129.724060
 30
0.0
 10
76.529929
 20
128.321668
 30
0.0
 10
76.317327
 20
128.248709
 30
0.0
  0
SPLINE
  5
1b9
100
AcDbEntity
  8
Layer_1
 62
7
100
AcDbSpline
 70
8
 71
3
 72
8
 73
4
 74
0
 40
0
 40
0
 40
0
 40
0
 40
1
 40
1
 40
1
 40
1
 10
77.171603
 20
129.121201
 30
0.0
 10
77.229680
 20
129.037512
 30
0.0
 10
77.286024
 20
128.949505
 30
0.0
 10
77.340635
 20
128.857177
 30
0.0
  0
SPLINE
  5
1ba
100
AcDbEntity
  8
Layer_1
 62
7
100
AcDbSpline
 70
8
 71
3
 72
8
 73
4
 74
0
 40
0
 40
0
 40
0
 40
0
 40
1
 40
1
 40
1
 40
1
 10
77.340635
 20
128.857177
 30
0.0
 10
77.342024
 20
128.938480
 30
0.0
 10
77.347756
 20
129.037352
 30
0.0
 10
77.358003
 20
129.153799
 30
0.0
  0
LWPOLYLINE
  5
1bb
100
AcDbEntity
  8
Layer_1
 62
7
100
AcDbPolyline
 90
4
 70
0
 10
77.306651
 20
128.541648
 30
0.0
 10
76.378089
 20
129.827858
 30
0.0
 10
76.634318
 20
129.896513
 30
0.0
 10
77.171603
 20
129.121201
 30
0.0
  0
LWPOLYLINE
  5
1bc
100
AcDbEntity
  8
Layer_1
 62
7
100
AcDbPolyline
 90
5
 70
0
 10
77.358003
 20
129.153799
 30
0.0
 10
77.442123
 20
130.112954
 30
0.0
 10
77.691610
 20
130.179799
 30
0.0
 10
77.533222
 20
128.602355
 30
0.0
 10
77.306651
 20
128.541648
 30
0.0
  0
SPLINE
  5
1bd
100
AcDbEntity
  8
Layer_1
 62
7
100
AcDbSpline
 70
8
 71
3
 72
8
 73
4
 74
0
 40
0
 40
0
 40
0
 40
0
 40
1
 40
1
 40
1
 40
1
 10
79.458212
 20
129.476876
 30
0.0
 10
79.447120
 20
129.320124
 30
0.0
 10
79.395259
 20
129.190016
 30
0.0
 10
79.302626
 20
129.086558
 30
0.0
  0
SPLINE
  5
1be
100
AcDbEntity
  8
Layer_1
 62
7
100
AcDbSpline
 70
8
 71
3
 72
8
 73
4
 74
0
 40
0
 40
0
 40
0
 40
0
 40
1
 40
1
 40
1
 40
1
 10
79.302626
 20
129.086558
 30
0.0
 10
79.209991
 20
128.983096
 30
0.0
 10
79.079177
 20
128.914848
 30
0.0
 10
78.910184
 20
128.881816
 30
0.0
  0
SPLINE
  5
1bf
100
AcDbEntity
  8
Layer_1
 62
7
100
AcDbSpline
 70
8
 71
3
 72
8
 73
4
 74
0
 40
0
 40
0
 40
0
 40
0
 40
1
 40
1
 40
1
 40
1
 10
78.910184
 20
128.881816
 30
0.0
 10
78.697343
 20
128.840215
 30
0.0
 10
78.515767
 20
128.872785
 30
0.0
 10
78.365456
 20
128.979484
 30
0.0
  0
SPLINE
  5
1c0
100
AcDbEntity
  8
Layer_1
 62
7
100
AcDbSpline
 70
8
 71
3
 72
8
 73
4
 74
0
 40
0
 40
0
 40
0
 40
0
 40
1
 40
1
 40
1
 40
1
 10
78.365456
 20
128.979484
 30
0.0
 10
78.215144
 20
129.086193
 30
0.0
 10
78.116866
 20
129.257847
 30
0.0
 10
78.070622
 20
129.494436
 30
0.0
  0
SPLINE
  5
1c1
100
AcDbEntity
  8
Layer_1
 62
7
100
AcDbSpline
 70
8
 71
3
 72
8
 73
4
 74
0
 40
0
 40
0
 40
0
 40
0
 40
1
 40
1
 40
1
 40
1
 10
78.070622
 20
129.494436
 30
0.0
 10
78.022771
 20
129.739247
 30
0.0
 10
78.048661
 20
129.941570
 30
0.0
 10
78.148297
 20
130.101407
 30
0.0
  0
SPLINE
  5
1c2
100
AcDbEntity
  8
Layer_1
 62
7
100
AcDbSpline
 70
8
 71
3
 72
8
 73
4
 74
0
 40
0
 40
0
 40
0
 40
0
 40
1
 40
1
 40
1
 40
1
 10
78.148297
 20
130.101407
 30
0.0
 10
78.247931
 20
130.261240
 30
0.0
 10
78.398231
 20
130.360797
 30
0.0
 10
78.599196
 20
130.400081
 30
0.0
  0
SPLINE
  5
1c3
100
AcDbEntity
  8
Layer_1
 62
7
100
AcDbSpline
 70
8
 71
3
 72
8
 73
4
 74
0
 40
0
 40
0
 40
0
 40
0
 40
1
 40
1
 40
1
 40
1
 10
78.599196
 20
130.400081
 30
0.0
 10
78.793767
 20
130.438108
 30
0.0
 10
78.965656
 20
130.402860
 30
0.0
 10
79.114867
 20
130.294602
 30
0.0
  0
SPLINE
  5
1c4
100
AcDbEntity
  8
Layer_1
 62
7
100
AcDbSpline
 70
8
 71
3
 72
8
 73
4
 74
0
 40
0
 40
0
 40
0
 40
0
 40
1
 40
1
 40
1
 40
1
 10
79.114867
 20
130.294602
 30
0.0
 10
79.264075
 20
130.186249
 30
0.0
 10
79.362159
 20
130.011955
 30
0.0
 10
79.409119
 20
129.771709
 30
0.0
  0
SPLINE
  5
1c5
100
AcDbEntity
  8
Layer_1
 62
7
100
AcDbSpline
 70
8
 71
3
 72
8
 73
4
 74
0
 40
0
 40
0
 40
0
 40
0
 40
1
 40
1
 40
1
 40
1
 10
79.409119
 20
129.771709
 30
0.0
 10
79.411967
 20
129.757084
 30
0.0
 10
79.415802
 20
129.735082
 30
0.0
 10
79.420603
 20
129.705673
 30
0.0
  0
LWPOLYLINE
  5
1c6
100
AcDbEntity
  8
Layer_1
 62
7
100
AcDbPolyline
 90
2
 70
0
 10
79.197191
 20
129.458570
 30
0.0
 10
79.458212
 20
129.476876
 30
0.0
  0
SPLINE
  5
1c7
100
AcDbEntity
  8
Layer_1
 62
7
100
AcDbSpline
 70
8
 71
3
 72
8
 73
4
 74
0
 40
0
 40
0
 40
0
 40
0
 40
1
 40
1
 40
1
 40
1
 10
78.335391
 20
129.493553
 30
0.0
 10
78.375771
 20
129.335482
 30
0.0
 10
78.444914
 20
129.221912
 30
0.0
 10
78.542819
 20
129.152850
 30
0.0
  0
SPLINE
  5
1c8
100
AcDbEntity
  8
Layer_1
 62
7
100
AcDbSpline
 70
8
 71
3
 72
8
 73
4
 74
0
 40
0
 40
0
 40
0
 40
0
 40
1
 40
1
 40
1
 40
1
 10
78.542819
 20
129.152850
 30
0.0
 10
78.640724
 20
129.083789
 30
0.0
 10
78.750422
 20
129.061130
 30
0.0
 10
78.871915
 20
129.084877
 30
0.0
  0
SPLINE
  5
1c9
100
AcDbEntity
  8
Layer_1
 62
7
100
AcDbSpline
 70
8
 71
3
 72
8
 73
4
 74
0
 40
0
 40
0
 40
0
 40
0
 40
1
 40
1
 40
1
 40
1
 10
78.871915
 20
129.084877
 30
0.0
 10
78.962349
 20
129.102558
 30
0.0
 10
79.034895
 20
129.141391
 30
0.0
 10
79.089555
 20
129.201392
 30
0.0
  0
SPLINE
  5
1ca
100
AcDbEntity
  8
Layer_1
 62
7
100
AcDbSpline
 70
8
 71
3
 72
8
 73
4
 74
0
 40
0
 40
0
 40
0
 40
0
 40
1
 40
1
 40
1
 40
1
 10
79.089555
 20
129.201392
 30
0.0
 10
79.144213
 20
129.261390
 30
0.0
 10
79.180091
 20
129.347119
 30
0.0
 10
79.197190
 20
129.458577
 30
0.0
  0
LWPOLYLINE
  5
1cb
100
AcDbEntity
  8
Layer_1
 62
7
100
AcDbPolyline
 90
2
 70
0
 10
79.420603
 20
129.705673
 30
0.0
 10
78.335391
 20
129.493553
 30
0.0
  0
LWPOLYLINE
  5
1cc
100
AcDbEntity
  8
Layer_1
 62
7
100
AcDbPolyline
 90
2
 70
0
 10
79.197190
 20
129.458577
 30
0.0
 10
79.197191
 20
129.458570
 30
0.0
  0
SPLINE
  5
1cd
100
AcDbEntity
  8
Layer_1
 62
7
100
AcDbSpline
 70
8
 71
3
 72
8
 73
4
 74
0
 40
0
 40
0
 40
0
 40
0
 40
1
 40
1
 40
1
 40
1
 10
79.121995
 20
129.857840
 30
0.0
 10
79.087106
 20
129.978100
 30
0.0
 10
79.038104
 20
130.063835
 30
0.0
 10
78.974987
 20
130.115038
 30
0.0
  0
SPLINE
  5
1ce
100
AcDbEntity
  8
Layer_1
 62
7
100
AcDbSpline
 70
8
 71
3
 72
8
 73
4
 74
0
 40
0
 40
0
 40
0
 40
0
 40
1
 40
1
 40
1
 40
1
 10
78.974987
 20
130.115038
 30
0.0
 10
78.877858
 20
130.194684
 30
0.0
 10
78.766721
 20
130.222275
 30
0.0
 10
78.641575
 20
130.197817
 30
0.0
  0
SPLINE
  5
1cf
100
AcDbEntity
  8
Layer_1
 62
7
100
AcDbSpline
 70
8
 71
3
 72
8
 73
4
 74
0
 40
0
 40
0
 40
0
 40
0
 40
1
 40
1
 40
1
 40
1
 10
78.641575
 20
130.197817
 30
0.0
 10
78.528303
 20
130.175689
 30
0.0
 10
78.440483
 20
130.119151
 30
0.0
 10
78.378114
 20
130.028247
 30
0.0
  0
SPLINE
  5
1d0
100
AcDbEntity
  8
Layer_1
 62
7
100
AcDbSpline
 70
8
 71
3
 72
8
 73
4
 74
0
 40
0
 40
0
 40
0
 40
0
 40
1
 40
1
 40
1
 40
1
 10
78.378114
 20
130.028247
 30
0.0
 10
78.315745
 20
129.937339
 30
0.0
 10
78.292859
 20
129.827597
 30
0.0
 10
78.309456
 20
129.699017
 30
0.0
  0
LWPOLYLINE
  5
1d1
100
AcDbEntity
  8
Layer_1
 62
7
100
AcDbPolyline
 90
2
 70
0
 10
78.309456
 20
129.699017
 30
0.0
 10
79.121995
 20
129.857840
 30
0.0
  0
LWPOLYLINE
  5
1d2
100
AcDbEntity
  8
Layer_1
 62
7
100
AcDbPolyline
 90
2
 70
0
 10
78.309456
 20
129.699017
 30
0.0
 10
78.309456
 20
129.699017
 30
0.0
  0
SPLINE
  5
1d3
100
AcDbEntity
  8
Layer_1
 62
7
100
AcDbSpline
 70
8
 71
3
 72
8
 73
4
 74
0
 40
0
 40
0
 40
0
 40
0
 40
1
 40
1
 40
1
 40
1
 10
79.910022
 20
130.357341
 30
0.0
 10
79.953018
 20
130.469337
 30
0.0
 10
79.996466
 20
130.545235
 30
0.0
 10
80.040367
 20
130.585026
 30
0.0
  0
SPLINE
  5
1d4
100
AcDbEntity
  8
Layer_1
 62
7
100
AcDbSpline
 70
8
 71
3
 72
8
 73
4
 74
0
 40
0
 40
0
 40
0
 40
0
 40
1
 40
1
 40
1
 40
1
 10
80.040367
 20
130.585026
 30
0.0
 10
80.084266
 20
130.624814
 30
0.0
 10
80.135267
 20
130.648665
 30
0.0
 10
80.193370
 20
130.656575
 30
0.0
  0
SPLINE
  5
1d5
100
AcDbEntity
  8
Layer_1
 62
7
100
AcDbSpline
 70
8
 71
3
 72
8
 73
4
 74
0
 40
0
 40
0
 40
0
 40
0
 40
1
 40
1
 40
1
 40
1
 10
80.193370
 20
130.656575
 30
0.0
 10
80.277296
 20
130.668003
 30
0.0
 10
80.366245
 20
130.652858
 30
0.0
 10
80.460218
 20
130.611169
 30
0.0
  0
LWPOLYLINE
  5
1d6
100
AcDbEntity
  8
Layer_1
 62
7
100
AcDbPolyline
 90
4
 70
0
 10
79.855555
 20
129.080406
 30
0.0
 10
79.655601
 20
130.549570
 30
0.0
 10
79.879710
 20
130.580069
 30
0.0
 10
79.910022
 20
130.357341
 30
0.0
  0
SPLINE
  5
1d7
100
AcDbEntity
  8
Layer_1
 62
7
100
AcDbSpline
 70
8
 71
3
 72
8
 73
4
 74
0
 40
0
 40
0
 40
0
 40
0
 40
1
 40
1
 40
1
 40
1
 10
80.405891
 20
130.368471
 30
0.0
 10
80.340126
 20
130.396156
 30
0.0
 10
80.276809
 20
130.405851
 30
0.0
 10
80.215940
 20
130.397580
 30
0.0
  0
SPLINE
  5
1d8
100
AcDbEntity
  8
Layer_1
 62
7
100
AcDbSpline
 70
8
 71
3
 72
8
 73
4
 74
0
 40
0
 40
0
 40
0
 40
0
 40
1
 40
1
 40
1
 40
1
 10
80.215940
 20
130.397580
 30
0.0
 10
80.161526
 20
130.390181
 30
0.0
 10
80.114874
 20
130.367151
 30
0.0
 10
80.075984
 20
130.328512
 30
0.0
  0
SPLINE
  5
1d9
100
AcDbEntity
  8
Layer_1
 62
7
100
AcDbSpline
 70
8
 71
3
 72
8
 73
4
 74
0
 40
0
 40
0
 40
0
 40
0
 40
1
 40
1
 40
1
 40
1
 10
80.075984
 20
130.328512
 30
0.0
 10
80.037094
 20
130.289871
 30
0.0
 10
80.012380
 20
130.240245
 30
0.0
 10
80.001843
 20
130.179632
 30
0.0
  0
SPLINE
  5
1da
100
AcDbEntity
  8
Layer_1
 62
7
100
AcDbSpline
 70
8
 71
3
 72
8
 73
4
 74
0
 40
0
 40
0
 40
0
 40
0
 40
1
 40
1
 40
1
 40
1
 10
80.001843
 20
130.179632
 30
0.0
 10
79.986225
 20
130.087328
 30
0.0
 10
79.985572
 20
129.988608
 30
0.0
 10
79.999863
 20
129.883472
 30
0.0
  0
LWPOLYLINE
  5
1db
100
AcDbEntity
  8
Layer_1
 62
7
100
AcDbPolyline
 90
2
 70
0
 10
80.460218
 20
130.611169
 30
0.0
 10
80.405891
 20
130.368471
 30
0.0
  0
LWPOLYLINE
  5
1dc
100
AcDbEntity
  8
Layer_1
 62
7
100
AcDbPolyline
 90
3
 70
0
 10
79.999863
 20
129.883472
 30
0.0
 10
80.104547
 20
129.114306
 30
0.0
 10
79.855555
 20
129.080406
 30
0.0
  0
LWPOLYLINE
  5
1dd
100
AcDbEntity
  8
Layer_1
 62
7
100
AcDbPolyline
 90
5
 70
0
 10
80.876582
 20
129.207398
 30
0.0
 10
80.849202
 20
129.492296
 30
0.0
 10
81.134099
 20
129.519669
 30
0.0
 10
81.161479
 20
129.234771
 30
0.0
 10
80.876582
 20
129.207398
 30
0.0
  0
SPLINE
  5
1de
100
AcDbEntity
  8
Layer_1
 62
7
100
AcDbSpline
 70
8
 71
3
 72
8
 73
4
 74
0
 40
0
 40
0
 40
0
 40
0
 40
1
 40
1
 40
1
 40
1
 10
81.790814
 20
130.598855
 30
0.0
 10
81.902228
 20
130.739590
 30
0.0
 10
82.047208
 20
130.813747
 30
0.0
 10
82.225755
 20
130.821316
 30
0.0
  0
SPLINE
  5
1df
100
AcDbEntity
  8
Layer_1
 62
7
100
AcDbSpline
 70
8
 71
3
 72
8
 73
4
 74
0
 40
0
 40
0
 40
0
 40
0
 40
1
 40
1
 40
1
 40
1
 10
82.225755
 20
130.821316
 30
0.0
 10
82.335486
 20
130.825971
 30
0.0
 10
82.431720
 20
130.808394
 30
0.0
 10
82.514458
 20
130.768581
 30
0.0
  0
SPLINE
  5
1e0
100
AcDbEntity
  8
Layer_1
 62
7
100
AcDbSpline
 70
8
 71
3
 72
8
 73
4
 74
0
 40
0
 40
0
 40
0
 40
0
 40
1
 40
1
 40
1
 40
1
 10
82.514458
 20
130.768581
 30
0.0
 10
82.597194
 20
130.728766
 30
0.0
 10
82.657616
 20
130.671473
 30
0.0
 10
82.695723
 20
130.596701
 30
0.0
  0
SPLINE
  5
1e1
100
AcDbEntity
  8
Layer_1
 62
7
100
AcDbSpline
 70
8
 71
3
 72
8
 73
4
 74
0
 40
0
 40
0
 40
0
 40
0
 40
1
 40
1
 40
1
 40
1
 10
82.695723
 20
130.596701
 30
0.0
 10
82.733827
 20
130.521922
 30
0.0
 10
82.755956
 20
130.412000
 30
0.0
 10
82.762108
 20
130.266934
 30
0.0
  0
LWPOLYLINE
  5
1e2
100
AcDbEntity
  8
Layer_1
 62
7
100
AcDbPolyline
 90
4
 70
0
 10
81.595330
 20
129.276991
 30
0.0
 10
81.508623
 20
131.321904
 30
0.0
 10
81.759704
 20
131.332569
 30
0.0
 10
81.790814
 20
130.598855
 30
0.0
  0
SPLINE
  5
1e3
100
AcDbEntity
  8
Layer_1
 62
7
100
AcDbSpline
 70
8
 71
3
 72
8
 73
4
 74
0
 40
0
 40
0
 40
0
 40
0
 40
1
 40
1
 40
1
 40
1
 10
82.511027
 20
130.256269
 30
0.0
 10
82.505702
 20
130.381810
 30
0.0
 10
82.474628
 20
130.472022
 30
0.0
 10
82.417804
 20
130.526907
 30
0.0
  0
SPLINE
  5
1e4
100
AcDbEntity
  8
Layer_1
 62
7
100
AcDbSpline
 70
8
 71
3
 72
8
 73
4
 74
0
 40
0
 40
0
 40
0
 40
0
 40
1
 40
1
 40
1
 40
1
 10
82.417804
 20
130.526907
 30
0.0
 10
82.360977
 20
130.581789
 30
0.0
 10
82.282813
 20
130.607123
 30
0.0
 10
82.183311
 20
130.602902
 30
0.0
  0
SPLINE
  5
1e5
100
AcDbEntity
  8
Layer_1
 62
7
100
AcDbSpline
 70
8
 71
3
 72
8
 73
4
 74
0
 40
0
 40
0
 40
0
 40
0
 40
1
 40
1
 40
1
 40
1
 10
82.183311
 20
130.602902
 30
0.0
 10
82.108917
 20
130.599776
 30
0.0
 10
82.039758
 20
130.577474
 30
0.0
 10
81.975835
 20
130.536113
 30
0.0
  0
SPLINE
  5
1e6
100
AcDbEntity
  8
Layer_1
 62
7
100
AcDbSpline
 70
8
 71
3
 72
8
 73
4
 74
0
 40
0
 40
0
 40
0
 40
0
 40
1
 40
1
 40
1
 40
1
 10
81.975835
 20
130.536113
 30
0.0
 10
81.911910
 20
130.494741
 30
0.0
 10
81.867400
 20
130.440450
 30
0.0
 10
81.842302
 20
130.373243
 30
0.0
  0
SPLINE
  5
1e7
100
AcDbEntity
  8
Layer_1
 62
7
100
AcDbSpline
 70
8
 71
3
 72
8
 73
4
 74
0
 40
0
 40
0
 40
0
 40
0
 40
1
 40
1
 40
1
 40
1
 10
81.842302
 20
130.373243
 30
0.0
 10
81.817204
 20
130.306034
 30
0.0
 10
81.807118
 20
130.214310
 30
0.0
 10
81.812049
 20
130.098072
 30
0.0
  0
LWPOLYLINE
  5
1e8
100
AcDbEntity
  8
Layer_1
 62
7
100
AcDbPolyline
 90
4
 70
0
 10
82.762108
 20
130.266934
 30
0.0
 10
82.801913
 20
129.328169
 30
0.0
 10
82.550832
 20
129.317505
 30
0.0
 10
82.511027
 20
130.256269
 30
0.0
  0
SPLINE
  5
1e9
100
AcDbEntity
  8
Layer_1
 62
7
100
AcDbSpline
 70
8
 71
3
 72
8
 73
4
 74
0
 40
0
 40
0
 40
0
 40
0
 40
1
 40
1
 40
1
 40
1
 10
84.158773
 20
129.486359
 30
0.0
 10
84.063484
 20
129.409924
 30
0.0
 10
83.972347
 20
129.356647
 30
0.0
 10
83.885361
 20
129.326530
 30
0.0
  0
SPLINE
  5
1ea
100
AcDbEntity
  8
Layer_1
 62
7
100
AcDbSpline
 70
8
 71
3
 72
8
 73
4
 74
0
 40
0
 40
0
 40
0
 40
0
 40
1
 40
1
 40
1
 40
1
 10
83.885361
 20
129.326530
 30
0.0
 10
83.798373
 20
129.296413
 30
0.0
 10
83.705570
 20
129.282757
 30
0.0
 10
83.606949
 20
129.285561
 30
0.0
  0
SPLINE
  5
1eb
100
AcDbEntity
  8
Layer_1
 62
7
100
AcDbSpline
 70
8
 71
3
 72
8
 73
4
 74
0
 40
0
 40
0
 40
0
 40
0
 40
1
 40
1
 40
1
 40
1
 10
83.606949
 20
129.285561
 30
0.0
 10
83.444131
 20
129.290181
 30
0.0
 10
83.320124
 20
129.333522
 30
0.0
 10
83.234930
 20
129.415558
 30
0.0
  0
SPLINE
  5
1ec
100
AcDbEntity
  8
Layer_1
 62
7
100
AcDbSpline
 70
8
 71
3
 72
8
 73
4
 74
0
 40
0
 40
0
 40
0
 40
0
 40
1
 40
1
 40
1
 40
1
 10
83.234930
 20
129.415558
 30
0.0
 10
83.149736
 20
129.497593
 30
0.0
 10
83.108898
 20
129.600482
 30
0.0
 10
83.112417
 20
129.724223
 30
0.0
  0
SPLINE
  5
1ed
100
AcDbEntity
  8
Layer_1
 62
7
100
AcDbSpline
 70
8
 71
3
 72
8
 73
4
 74
0
 40
0
 40
0
 40
0
 40
0
 40
1
 40
1
 40
1
 40
1
 10
83.112417
 20
129.724223
 30
0.0
 10
83.114466
 20
129.796792
 30
0.0
 10
83.132881
 20
129.862613
 30
0.0
 10
83.167615
 20
129.921687
 30
0.0
  0
SPLINE
  5
1ee
100
AcDbEntity
  8
Layer_1
 62
7
100
AcDbSpline
 70
8
 71
3
 72
8
 73
4
 74
0
 40
0
 40
0
 40
0
 40
0
 40
1
 40
1
 40
1
 40
1
 10
83.167615
 20
129.921687
 30
0.0
 10
83.202349
 20
129.980754
 30
0.0
 10
83.246982
 20
130.027674
 30
0.0
 10
83.301512
 20
130.062439
 30
0.0
  0
SPLINE
  5
1ef
100
AcDbEntity
  8
Layer_1
 62
7
100
AcDbSpline
 70
8
 71
3
 72
8
 73
4
 74
0
 40
0
 40
0
 40
0
 40
0
 40
1
 40
1
 40
1
 40
1
 10
83.301512
 20
130.062439
 30
0.0
 10
83.356040
 20
130.097200
 30
0.0
 10
83.417063
 20
130.122934
 30
0.0
 10
83.484581
 20
130.139639
 30
0.0
  0
SPLINE
  5
1f0
100
AcDbEntity
  8
Layer_1
 62
7
100
AcDbSpline
 70
8
 71
3
 72
8
 73
4
 74
0
 40
0
 40
0
 40
0
 40
0
 40
1
 40
1
 40
1
 40
1
 10
83.484581
 20
130.139639
 30
0.0
 10
83.534261
 20
130.151276
 30
0.0
 10
83.609050
 20
130.161697
 30
0.0
 10
83.708946
 20
130.170972
 30
0.0
  0
SPLINE
  5
1f1
100
AcDbEntity
  8
Layer_1
 62
7
100
AcDbSpline
 70
8
 71
3
 72
8
 73
4
 74
0
 40
0
 40
0
 40
0
 40
0
 40
1
 40
1
 40
1
 40
1
 10
83.708946
 20
130.170972
 30
0.0
 10
83.912457
 20
130.189383
 30
0.0
 10
84.062605
 20
130.213990
 30
0.0
 10
84.159388
 20
130.244761
 30
0.0
  0
SPLINE
  5
1f2
100
AcDbEntity
  8
Layer_1
 62
7
100
AcDbSpline
 70
8
 71
3
 72
8
 73
4
 74
0
 40
0
 40
0
 40
0
 40
0
 40
1
 40
1
 40
1
 40
1
 10
84.159388
 20
130.244761
 30
0.0
 10
84.161299
 20
130.279151
 30
0.0
 10
84.162376
 20
130.301007
 30
0.0
 10
84.162654
 20
130.310313
 30
0.0
  0
SPLINE
  5
1f3
100
AcDbEntity
  8
Layer_1
 62
7
100
AcDbSpline
 70
8
 71
3
 72
8
 73
4
 74
0
 40
0
 40
0
 40
0
 40
0
 40
1
 40
1
 40
1
 40
1
 10
84.162654
 20
130.310313
 30
0.0
 10
84.165572
 20
130.412653
 30
0.0
 10
84.143889
 20
130.485434
 30
0.0
 10
84.097630
 20
130.528651
 30
0.0
  0
SPLINE
  5
1f4
100
AcDbEntity
  8
Layer_1
 62
7
100
AcDbSpline
 70
8
 71
3
 72
8
 73
4
 74
0
 40
0
 40
0
 40
0
 40
0
 40
1
 40
1
 40
1
 40
1
 10
84.097630
 20
130.528651
 30
0.0
 10
84.035046
 20
130.587229
 30
0.0
 10
83.940488
 20
130.618318
 30
0.0
 10
83.813956
 20
130.621917
 30
0.0
  0
SPLINE
  5
1f5
100
AcDbEntity
  8
Layer_1
 62
7
100
AcDbSpline
 70
8
 71
3
 72
8
 73
4
 74
0
 40
0
 40
0
 40
0
 40
0
 40
1
 40
1
 40
1
 40
1
 10
83.813956
 20
130.621917
 30
0.0
 10
83.695796
 20
130.625391
 30
0.0
 10
83.607984
 20
130.607050
 30
0.0
 10
83.550519
 20
130.567255
 30
0.0
  0
SPLINE
  5
1f6
100
AcDbEntity
  8
Layer_1
 62
7
100
AcDbSpline
 70
8
 71
3
 72
8
 73
4
 74
0
 40
0
 40
0
 40
0
 40
0
 40
1
 40
1
 40
1
 40
1
 10
83.550519
 20
130.567255
 30
0.0
 10
83.493052
 20
130.527453
 30
0.0
 10
83.449334
 20
130.455369
 30
0.0
 10
83.419364
 20
130.351001
 30
0.0
  0
LWPOLYLINE
  5
1f7
100
AcDbEntity
  8
Layer_1
 62
7
100
AcDbPolyline
 90
3
 70
0
 10
81.812049
 20
130.098072
 30
0.0
 10
81.846411
 20
129.287638
 30
0.0
 10
81.595330
 20
129.276991
 30
0.0
  0
SPLINE
  5
1f8
100
AcDbEntity
  8
Layer_1
 62
7
100
AcDbSpline
 70
8
 71
3
 72
8
 73
4
 74
0
 40
0
 40
0
 40
0
 40
0
 40
1
 40
1
 40
1
 40
1
 10
83.174693
 20
130.391481
 30
0.0
 10
83.200013
 20
130.495977
 30
0.0
 10
83.239177
 20
130.579833
 30
0.0
 10
83.292187
 20
130.643041
 30
0.0
  0
SPLINE
  5
1f9
100
AcDbEntity
  8
Layer_1
 62
7
100
AcDbSpline
 70
8
 71
3
 72
8
 73
4
 74
0
 40
0
 40
0
 40
0
 40
0
 40
1
 40
1
 40
1
 40
1
 10
83.292187
 20
130.643041
 30
0.0
 10
83.345197
 20
130.706245
 30
0.0
 10
83.420578
 20
130.753919
 30
0.0
 10
83.518331
 20
130.786058
 30
0.0
  0
SPLINE
  5
1fa
100
AcDbEntity
  8
Layer_1
 62
7
100
AcDbSpline
 70
8
 71
3
 72
8
 73
4
 74
0
 40
0
 40
0
 40
0
 40
0
 40
1
 40
1
 40
1
 40
1
 10
83.518331
 20
130.786058
 30
0.0
 10
83.616083
 20
130.818190
 30
0.0
 10
83.728691
 20
130.832449
 30
0.0
 10
83.856155
 20
130.828826
 30
0.0
  0
SPLINE
  5
1fb
100
AcDbEntity
  8
Layer_1
 62
7
100
AcDbSpline
 70
8
 71
3
 72
8
 73
4
 74
0
 40
0
 40
0
 40
0
 40
0
 40
1
 40
1
 40
1
 40
1
 10
83.856155
 20
130.828826
 30
0.0
 10
83.982686
 20
130.825214
 30
0.0
 10
84.085071
 20
130.807428
 30
0.0
 10
84.163308
 20
130.775397
 30
0.0
  0
SPLINE
  5
1fc
100
AcDbEntity
  8
Layer_1
 62
7
100
AcDbSpline
 70
8
 71
3
 72
8
 73
4
 74
0
 40
0
 40
0
 40
0
 40
0
 40
1
 40
1
 40
1
 40
1
 10
84.163308
 20
130.775397
 30
0.0
 10
84.241543
 20
130.743369
 30
0.0
 10
84.298628
 20
130.704276
 30
0.0
 10
84.334561
 20
130.658093
 30
0.0
  0
SPLINE
  5
1fd
100
AcDbEntity
  8
Layer_1
 62
7
100
AcDbSpline
 70
8
 71
3
 72
8
 73
4
 74
0
 40
0
 40
0
 40
0
 40
0
 40
1
 40
1
 40
1
 40
1
 10
84.334561
 20
130.658093
 30
0.0
 10
84.370493
 20
130.611909
 30
0.0
 10
84.394923
 20
130.554183
 30
0.0
 10
84.407852
 20
130.484913
 30
0.0
  0
SPLINE
  5
1fe
100
AcDbEntity
  8
Layer_1
 62
7
100
AcDbSpline
 70
8
 71
3
 72
8
 73
4
 74
0
 40
0
 40
0
 40
0
 40
0
 40
1
 40
1
 40
1
 40
1
 10
84.407852
 20
130.484913
 30
0.0
 10
84.415008
 20
130.441874
 30
0.0
 10
84.416999
 20
130.364535
 30
0.0
 10
84.413824
 20
130.252889
 30
0.0
  0
LWPOLYLINE
  5
1ff
100
AcDbEntity
  8
Layer_1
 62
7
100
AcDbPolyline
 90
2
 70
0
 10
83.419364
 20
130.351001
 30
0.0
 10
83.174693
 20
130.391481
 30
0.0
  0
SPLINE
  5
200
100
AcDbEntity
  8
Layer_1
 62
7
100
AcDbSpline
 70
8
 71
3
 72
8
 73
4
 74
0
 40
0
 40
0
 40
0
 40
0
 40
1
 40
1
 40
1
 40
1
 10
84.404299
 20
129.917949
 30
0.0
 10
84.397657
 20
129.684421
 30
0.0
 10
84.398807
 20
129.536569
 30
0.0
 10
84.407738
 20
129.474396
 30
0.0
  0
SPLINE
  5
201
100
AcDbEntity
  8
Layer_1
 62
7
100
AcDbSpline
 70
8
 71
3
 72
8
 73
4
 74
0
 40
0
 40
0
 40
0
 40
0
 40
1
 40
1
 40
1
 40
1
 10
84.407738
 20
129.474396
 30
0.0
 10
84.416676
 20
129.412220
 30
0.0
 10
84.436156
 20
129.352305
 30
0.0
 10
84.466177
 20
129.294651
 30
0.0
  0
LWPOLYLINE
  5
202
100
AcDbEntity
  8
Layer_1
 62
7
100
AcDbPolyline
 90
2
 70
0
 10
84.413824
 20
130.252889
 30
0.0
 10
84.404299
 20
129.917949
 30
0.0
  0
SPLINE
  5
203
100
AcDbEntity
  8
Layer_1
 62
7
100
AcDbSpline
 70
8
 71
3
 72
8
 73
4
 74
0
 40
0
 40
0
 40
0
 40
0
 40
1
 40
1
 40
1
 40
1
 10
84.203808
 20
129.302120
 30
0.0
 10
84.179238
 20
129.354962
 30
0.0
 10
84.164223
 20
129.416378
 30
0.0
 10
84.158765
 20
129.486370
 30
0.0
  0
LWPOLYLINE
  5
204
100
AcDbEntity
  8
Layer_1
 62
7
100
AcDbPolyline
 90
2
 70
0
 10
84.466177
 20
129.294651
 30
0.0
 10
84.203808
 20
129.302120
 30
0.0
  0
SPLINE
  5
205
100
AcDbEntity
  8
Layer_1
 62
7
100
AcDbSpline
 70
8
 71
3
 72
8
 73
4
 74
0
 40
0
 40
0
 40
0
 40
0
 40
1
 40
1
 40
1
 40
1
 10
84.153791
 20
130.047978
 30
0.0
 10
84.061554
 20
130.013345
 30
0.0
 10
83.923888
 20
129.985610
 30
0.0
 10
83.740792
 20
129.964747
 30
0.0
  0
SPLINE
  5
206
100
AcDbEntity
  8
Layer_1
 62
7
100
AcDbSpline
 70
8
 71
3
 72
8
 73
4
 74
0
 40
0
 40
0
 40
0
 40
0
 40
1
 40
1
 40
1
 40
1
 10
83.740792
 20
129.964747
 30
0.0
 10
83.637095
 20
129.952798
 30
0.0
 10
83.563583
 20
129.938138
 30
0.0
 10
83.520257
 20
129.920735
 30
0.0
  0
SPLINE
  5
207
100
AcDbEntity
  8
Layer_1
 62
7
100
AcDbSpline
 70
8
 71
3
 72
8
 73
4
 74
0
 40
0
 40
0
 40
0
 40
0
 40
1
 40
1
 40
1
 40
1
 10
83.520257
 20
129.920735
 30
0.0
 10
83.476929
 20
129.903332
 30
0.0
 10
83.443126
 20
129.877070
 30
0.0
 10
83.418848
 20
129.841913
 30
0.0
  0
SPLINE
  5
208
100
AcDbEntity
  8
Layer_1
 62
7
100
AcDbSpline
 70
8
 71
3
 72
8
 73
4
 74
0
 40
0
 40
0
 40
0
 40
0
 40
1
 40
1
 40
1
 40
1
 10
83.418848
 20
129.841913
 30
0.0
 10
83.394571
 20
129.806755
 30
0.0
 10
83.381809
 20
129.767311
 30
0.0
 10
83.380566
 20
129.723584
 30
0.0
  0
SPLINE
  5
209
100
AcDbEntity
  8
Layer_1
 62
7
100
AcDbSpline
 70
8
 71
3
 72
8
 73
4
 74
0
 40
0
 40
0
 40
0
 40
0
 40
1
 40
1
 40
1
 40
1
 10
83.380566
 20
129.723584
 30
0.0
 10
83.378655
 20
129.656593
 30
0.0
 10
83.402426
 20
129.600051
 30
0.0
 10
83.451863
 20
129.553951
 30
0.0
  0
SPLINE
  5
20a
100
AcDbEntity
  8
Layer_1
 62
7
100
AcDbSpline
 70
8
 71
3
 72
8
 73
4
 74
0
 40
0
 40
0
 40
0
 40
0
 40
1
 40
1
 40
1
 40
1
 10
83.451863
 20
129.553951
 30
0.0
 10
83.501299
 20
129.507848
 30
0.0
 10
83.574862
 20
129.483410
 30
0.0
 10
83.672554
 20
129.480631
 30
0.0
  0
SPLINE
  5
20b
100
AcDbEntity
  8
Layer_1
 62
7
100
AcDbSpline
 70
8
 71
3
 72
8
 73
4
 74
0
 40
0
 40
0
 40
0
 40
0
 40
1
 40
1
 40
1
 40
1
 10
83.672554
 20
129.480631
 30
0.0
 10
83.769313
 20
129.477852
 30
0.0
 10
83.855976
 20
129.496610
 30
0.0
 10
83.932542
 20
129.536787
 30
0.0
  0
SPLINE
  5
20c
100
AcDbEntity
  8
Layer_1
 62
7
100
AcDbSpline
 70
8
 71
3
 72
8
 73
4
 74
0
 40
0
 40
0
 40
0
 40
0
 40
1
 40
1
 40
1
 40
1
 10
83.932542
 20
129.536787
 30
0.0
 10
84.009106
 20
129.576979
 30
0.0
 10
84.066111
 20
129.633322
 30
0.0
 10
84.103557
 20
129.705816
 30
0.0
  0
SPLINE
  5
20d
100
AcDbEntity
  8
Layer_1
 62
7
100
AcDbSpline
 70
8
 71
3
 72
8
 73
4
 74
0
 40
0
 40
0
 40
0
 40
0
 40
1
 40
1
 40
1
 40
1
 10
84.103557
 20
129.705816
 30
0.0
 10
84.132149
 20
129.761802
 30
0.0
 10
84.148023
 20
129.845154
 30
0.0
 10
84.151172
 20
129.955872
 30
0.0
  0
LWPOLYLINE
  5
20e
100
AcDbEntity
  8
Layer_1
 62
7
100
AcDbPolyline
 90
2
 70
0
 10
84.158765
 20
129.486370
 30
0.0
 10
84.158773
 20
129.486359
 30
0.0
  0
LWPOLYLINE
  5
20f
100
AcDbEntity
  8
Layer_1
 62
7
100
AcDbPolyline
 90
2
 70
0
 10
84.151172
 20
129.955872
 30
0.0
 10
84.153791
 20
130.047978
 30
0.0
  0
SPLINE
  5
210
100
AcDbEntity
  8
Layer_1
 62
7
100
AcDbSpline
 70
8
 71
3
 72
8
 73
4
 74
0
 40
0
 40
0
 40
0
 40
0
 40
1
 40
1
 40
1
 40
1
 10
86.035106
 20
129.662557
 30
0.0
 10
85.991896
 20
129.495603
 30
0.0
 10
85.910315
 20
129.369514
 30
0.0
 10
85.790361
 20
129.284296
 30
0.0
  0
SPLINE
  5
211
100
AcDbEntity
  8
Layer_1
 62
7
100
AcDbSpline
 70
8
 71
3
 72
8
 73
4
 74
0
 40
0
 40
0
 40
0
 40
0
 40
1
 40
1
 40
1
 40
1
 10
85.790361
 20
129.284296
 30
0.0
 10
85.670404
 20
129.199079
 30
0.0
 10
85.529824
 20
129.164237
 30
0.0
 10
85.368619
 20
129.179772
 30
0.0
  0
SPLINE
  5
212
100
AcDbEntity
  8
Layer_1
 62
7
100
AcDbSpline
 70
8
 71
3
 72
8
 73
4
 74
0
 40
0
 40
0
 40
0
 40
0
 40
1
 40
1
 40
1
 40
1
 10
85.368619
 20
129.179772
 30
0.0
 10
85.166648
 20
129.199225
 30
0.0
 10
85.010646
 20
129.280899
 30
0.0
 10
84.900613
 20
129.424753
 30
0.0
  0
SPLINE
  5
213
100
AcDbEntity
  8
Layer_1
 62
7
100
AcDbSpline
 70
8
 71
3
 72
8
 73
4
 74
0
 40
0
 40
0
 40
0
 40
0
 40
1
 40
1
 40
1
 40
1
 10
84.900613
 20
129.424753
 30
0.0
 10
84.790580
 20
129.568607
 30
0.0
 10
84.747439
 20
129.763754
 30
0.0
 10
84.771192
 20
130.010194
 30
0.0
  0
SPLINE
  5
214
100
AcDbEntity
  8
Layer_1
 62
7
100
AcDbSpline
 70
8
 71
3
 72
8
 73
4
 74
0
 40
0
 40
0
 40
0
 40
0
 40
1
 40
1
 40
1
 40
1
 10
84.771192
 20
130.010194
 30
0.0
 10
84.786549
 20
130.169548
 30
0.0
 10
84.826393
 20
130.306437
 30
0.0
 10
84.890721
 20
130.420861
 30
0.0
  0
SPLINE
  5
215
100
AcDbEntity
  8
Layer_1
 62
7
100
AcDbSpline
 70
8
 71
3
 72
8
 73
4
 74
0
 40
0
 40
0
 40
0
 40
0
 40
1
 40
1
 40
1
 40
1
 10
84.890721
 20
130.420861
 30
0.0
 10
84.955048
 20
130.535286
 30
0.0
 10
85.044059
 20
130.617176
 30
0.0
 10
85.157753
 20
130.666530
 30
0.0
  0
SPLINE
  5
216
100
AcDbEntity
  8
Layer_1
 62
7
100
AcDbSpline
 70
8
 71
3
 72
8
 73
4
 74
0
 40
0
 40
0
 40
0
 40
0
 40
1
 40
1
 40
1
 40
1
 10
85.157753
 20
130.666530
 30
0.0
 10
85.271445
 20
130.715885
 30
0.0
 10
85.391755
 20
130.734445
 30
0.0
 10
85.518683
 20
130.722214
 30
0.0
  0
SPLINE
  5
217
100
AcDbEntity
  8
Layer_1
 62
7
100
AcDbSpline
 70
8
 71
3
 72
8
 73
4
 74
0
 40
0
 40
0
 40
0
 40
0
 40
1
 40
1
 40
1
 40
1
 10
85.518683
 20
130.722214
 30
0.0
 10
85.678961
 20
130.706756
 30
0.0
 10
85.806150
 20
130.653598
 30
0.0
 10
85.900250
 20
130.562707
 30
0.0
  0
SPLINE
  5
218
100
AcDbEntity
  8
Layer_1
 62
7
100
AcDbSpline
 70
8
 71
3
 72
8
 73
4
 74
0
 40
0
 40
0
 40
0
 40
0
 40
1
 40
1
 40
1
 40
1
 10
85.900250
 20
130.562707
 30
0.0
 10
85.994347
 20
130.471821
 30
0.0
 10
86.048568
 20
130.350411
 30
0.0
 10
86.062914
 20
130.198480
 30
0.0
  0
LWPOLYLINE
  5
219
100
AcDbEntity
  8
Layer_1
 62
7
100
AcDbPolyline
 90
2
 70
0
 10
85.792209
 20
129.718227
 30
0.0
 10
86.035106
 20
129.662557
 30
0.0
  0
SPLINE
  5
21a
100
AcDbEntity
  8
Layer_1
 62
7
100
AcDbSpline
 70
8
 71
3
 72
8
 73
4
 74
0
 40
0
 40
0
 40
0
 40
0
 40
1
 40
1
 40
1
 40
1
 10
85.816099
 20
130.184412
 30
0.0
 10
85.802489
 20
130.285775
 30
0.0
 10
85.768682
 20
130.364309
 30
0.0
 10
85.714674
 20
130.420010
 30
0.0
  0
SPLINE
  5
21b
100
AcDbEntity
  8
Layer_1
 62
7
100
AcDbSpline
 70
8
 71
3
 72
8
 73
4
 74
0
 40
0
 40
0
 40
0
 40
0
 40
1
 40
1
 40
1
 40
1
 10
85.714674
 20
130.420010
 30
0.0
 10
85.660664
 20
130.475708
 30
0.0
 10
85.591968
 20
130.507576
 30
0.0
 10
85.508587
 20
130.515614
 30
0.0
  0
SPLINE
  5
21c
100
AcDbEntity
  8
Layer_1
 62
7
100
AcDbSpline
 70
8
 71
3
 72
8
 73
4
 74
0
 40
0
 40
0
 40
0
 40
0
 40
1
 40
1
 40
1
 40
1
 10
85.508587
 20
130.515614
 30
0.0
 10
85.382586
 20
130.527737
 30
0.0
 10
85.275858
 20
130.492444
 30
0.0
 10
85.188403
 20
130.409718
 30
0.0
  0
SPLINE
  5
21d
100
AcDbEntity
  8
Layer_1
 62
7
100
AcDbSpline
 70
8
 71
3
 72
8
 73
4
 74
0
 40
0
 40
0
 40
0
 40
0
 40
1
 40
1
 40
1
 40
1
 10
85.188403
 20
130.409718
 30
0.0
 10
85.100946
 20
130.326977
 30
0.0
 10
85.047798
 20
130.187861
 30
0.0
 10
85.028957
 20
129.992377
 30
0.0
  0
SPLINE
  5
21e
100
AcDbEntity
  8
Layer_1
 62
7
100
AcDbSpline
 70
8
 71
3
 72
8
 73
4
 74
0
 40
0
 40
0
 40
0
 40
0
 40
1
 40
1
 40
1
 40
1
 10
85.028957
 20
129.992377
 30
0.0
 10
85.009848
 20
129.794114
 30
0.0
 10
85.033949
 20
129.646387
 30
0.0
 10
85.101258
 20
129.549196
 30
0.0
  0
SPLINE
  5
21f
100
AcDbEntity
  8
Layer_1
 62
7
100
AcDbSpline
 70
8
 71
3
 72
8
 73
4
 74
0
 40
0
 40
0
 40
0
 40
0
 40
1
 40
1
 40
1
 40
1
 10
85.101258
 20
129.549196
 30
0.0
 10
85.168566
 20
129.452008
 30
0.0
 10
85.263368
 20
129.397519
 30
0.0
 10
85.385663
 20
129.385732
 30
0.0
  0
SPLINE
  5
220
100
AcDbEntity
  8
Layer_1
 62
7
100
AcDbSpline
 70
8
 71
3
 72
8
 73
4
 74
0
 40
0
 40
0
 40
0
 40
0
 40
1
 40
1
 40
1
 40
1
 10
85.385663
 20
129.385732
 30
0.0
 10
85.483868
 20
129.376249
 30
0.0
 10
85.568763
 20
129.398481
 30
0.0
 10
85.640347
 20
129.452355
 30
0.0
  0
SPLINE
  5
221
100
AcDbEntity
  8
Layer_1
 62
7
100
AcDbSpline
 70
8
 71
3
 72
8
 73
4
 74
0
 40
0
 40
0
 40
0
 40
0
 40
1
 40
1
 40
1
 40
1
 10
85.640347
 20
129.452355
 30
0.0
 10
85.711929
 20
129.506236
 30
0.0
 10
85.762550
 20
129.594865
 30
0.0
 10
85.792209
 20
129.718241
 30
0.0
  0
LWPOLYLINE
  5
222
100
AcDbEntity
  8
Layer_1
 62
7
100
AcDbPolyline
 90
2
 70
0
 10
86.062914
 20
130.198480
 30
0.0
 10
85.816099
 20
130.184412
 30
0.0
  0
LWPOLYLINE
  5
223
100
AcDbEntity
  8
Layer_1
 62
7
100
AcDbPolyline
 90
2
 70
0
 10
85.792209
 20
129.718241
 30
0.0
 10
85.792209
 20
129.718227
 30
0.0
  0
LWPOLYLINE
  5
224
100
AcDbEntity
  8
Layer_1
 62
7
100
AcDbPolyline
 90
13
 70
0
 10
86.200407
 20
129.121007
 30
0.0
 10
86.527906
 20
131.141389
 30
0.0
 10
86.775974
 20
131.101177
 30
0.0
 10
86.589215
 20
129.949035
 30
0.0
 10
87.272818
 20
130.449235
 30
0.0
 10
87.593928
 20
130.397181
 30
0.0
 10
86.946378
 20
129.944888
 30
0.0
 10
87.413186
 20
128.924418
 30
0.0
 10
87.107235
 20
128.974013
 30
0.0
 10
86.744806
 20
129.800763
 30
0.0
 10
86.542525
 20
129.661001
 30
0.0
 10
86.448475
 20
129.080795
 30
0.0
 10
86.200407
 20
129.121007
 30
0.0
  0
SPLINE
  5
225
100
AcDbEntity
  8
Layer_1
 62
7
100
AcDbSpline
 70
8
 71
3
 72
8
 73
4
 74
0
 40
0
 40
0
 40
0
 40
0
 40
1
 40
1
 40
1
 40
1
 10
87.860406
 20
129.316758
 30
0.0
 10
87.851728
 20
129.216565
 30
0.0
 10
87.872526
 20
129.133484
 30
0.0
 10
87.922794
 20
129.067511
 30
0.0
  0
SPLINE
  5
226
100
AcDbEntity
  8
Layer_1
 62
7
100
AcDbSpline
 70
8
 71
3
 72
8
 73
4
 74
0
 40
0
 40
0
 40
0
 40
0
 40
1
 40
1
 40
1
 40
1
 10
87.922794
 20
129.067511
 30
0.0
 10
87.973063
 20
129.001535
 30
0.0
 10
88.053989
 20
128.955741
 30
0.0
 10
88.165571
 20
128.930122
 30
0.0
  0
SPLINE
  5
227
100
AcDbEntity
  8
Layer_1
 62
7
100
AcDbSpline
 70
8
 71
3
 72
8
 73
4
 74
0
 40
0
 40
0
 40
0
 40
0
 40
1
 40
1
 40
1
 40
1
 10
88.165571
 20
128.930122
 30
0.0
 10
88.278058
 20
128.904312
 30
0.0
 10
88.366776
 20
128.908029
 30
0.0
 10
88.431724
 20
128.941342
 30
0.0
  0
SPLINE
  5
228
100
AcDbEntity
  8
Layer_1
 62
7
100
AcDbSpline
 70
8
 71
3
 72
8
 73
4
 74
0
 40
0
 40
0
 40
0
 40
0
 40
1
 40
1
 40
1
 40
1
 10
88.431724
 20
128.941342
 30
0.0
 10
88.496670
 20
128.974655
 30
0.0
 10
88.536225
 20
129.022158
 30
0.0
 10
88.550389
 20
129.083845
 30
0.0
  0
SPLINE
  5
229
100
AcDbEntity
  8
Layer_1
 62
7
100
AcDbSpline
 70
8
 71
3
 72
8
 73
4
 74
0
 40
0
 40
0
 40
0
 40
0
 40
1
 40
1
 40
1
 40
1
 10
88.550389
 20
129.083845
 30
0.0
 10
88.563092
 20
129.139185
 30
0.0
 10
88.549034
 20
129.188248
 30
0.0
 10
88.508259
 20
129.231037
 30
0.0
  0
SPLINE
  5
22a
100
AcDbEntity
  8
Layer_1
 62
7
100
AcDbSpline
 70
8
 71
3
 72
8
 73
4
 74
0
 40
0
 40
0
 40
0
 40
0
 40
1
 40
1
 40
1
 40
1
 10
88.508259
 20
129.231037
 30
0.0
 10
88.479691
 20
129.260494
 30
0.0
 10
88.402585
 20
129.307341
 30
0.0
 10
88.276938
 20
129.371521
 30
0.0
  0
SPLINE
  5
22b
100
AcDbEntity
  8
Layer_1
 62
7
100
AcDbSpline
 70
8
 71
3
 72
8
 73
4
 74
0
 40
0
 40
0
 40
0
 40
0
 40
1
 40
1
 40
1
 40
1
 10
88.276938
 20
129.371521
 30
0.0
 10
88.107732
 20
129.458118
 30
0.0
 10
87.992232
 20
129.525936
 30
0.0
 10
87.930436
 20
129.574981
 30
0.0
  0
SPLINE
  5
22c
100
AcDbEntity
  8
Layer_1
 62
7
100
AcDbSpline
 70
8
 71
3
 72
8
 73
4
 74
0
 40
0
 40
0
 40
0
 40
0
 40
1
 40
1
 40
1
 40
1
 10
87.930436
 20
129.574981
 30
0.0
 10
87.868639
 20
129.624023
 30
0.0
 10
87.826541
 20
129.681916
 30
0.0
 10
87.804141
 20
129.748654
 30
0.0
  0
SPLINE
  5
22d
100
AcDbEntity
  8
Layer_1
 62
7
100
AcDbSpline
 70
8
 71
3
 72
8
 73
4
 74
0
 40
0
 40
0
 40
0
 40
0
 40
1
 40
1
 40
1
 40
1
 10
87.804141
 20
129.748654
 30
0.0
 10
87.781743
 20
129.815391
 30
0.0
 10
87.778665
 20
129.884139
 30
0.0
 10
87.794908
 20
129.954899
 30
0.0
  0
SPLINE
  5
22e
100
AcDbEntity
  8
Layer_1
 62
7
100
AcDbSpline
 70
8
 71
3
 72
8
 73
4
 74
0
 40
0
 40
0
 40
0
 40
0
 40
1
 40
1
 40
1
 40
1
 10
87.794908
 20
129.954899
 30
0.0
 10
87.809696
 20
130.019309
 30
0.0
 10
87.838130
 20
130.075569
 30
0.0
 10
87.880213
 20
130.123687
 30
0.0
  0
SPLINE
  5
22f
100
AcDbEntity
  8
Layer_1
 62
7
100
AcDbSpline
 70
8
 71
3
 72
8
 73
4
 74
0
 40
0
 40
0
 40
0
 40
0
 40
1
 40
1
 40
1
 40
1
 10
87.880213
 20
130.123687
 30
0.0
 10
87.922295
 20
130.171799
 30
0.0
 10
87.972903
 20
130.208169
 30
0.0
 10
88.032035
 20
130.232794
 30
0.0
  0
SPLINE
  5
230
100
AcDbEntity
  8
Layer_1
 62
7
100
AcDbSpline
 70
8
 71
3
 72
8
 73
4
 74
0
 40
0
 40
0
 40
0
 40
0
 40
1
 40
1
 40
1
 40
1
 10
88.032035
 20
130.232794
 30
0.0
 10
88.076592
 20
130.252177
 30
0.0
 10
88.133994
 20
130.264057
 30
0.0
 10
88.204242
 20
130.268462
 30
0.0
  0
SPLINE
  5
231
100
AcDbEntity
  8
Layer_1
 62
7
100
AcDbSpline
 70
8
 71
3
 72
8
 73
4
 74
0
 40
0
 40
0
 40
0
 40
0
 40
1
 40
1
 40
1
 40
1
 10
88.204242
 20
130.268462
 30
0.0
 10
88.274488
 20
130.272874
 30
0.0
 10
88.347259
 20
130.266378
 30
0.0
 10
88.422554
 20
130.249148
 30
0.0
  0
SPLINE
  5
232
100
AcDbEntity
  8
Layer_1
 62
7
100
AcDbSpline
 70
8
 71
3
 72
8
 73
4
 74
0
 40
0
 40
0
 40
0
 40
0
 40
1
 40
1
 40
1
 40
1
 10
88.422554
 20
130.249148
 30
0.0
 10
88.535949
 20
130.223095
 30
0.0
 10
88.631761
 20
130.183929
 30
0.0
 10
88.709992
 20
130.131590
 30
0.0
  0
SPLINE
  5
233
100
AcDbEntity
  8
Layer_1
 62
7
100
AcDbSpline
 70
8
 71
3
 72
8
 73
4
 74
0
 40
0
 40
0
 40
0
 40
0
 40
1
 40
1
 40
1
 40
1
 10
88.709992
 20
130.131590
 30
0.0
 10
88.788220
 20
130.079248
 30
0.0
 10
88.841342
 20
130.020497
 30
0.0
 10
88.869357
 20
129.955337
 30
0.0
  0
SPLINE
  5
234
100
AcDbEntity
  8
Layer_1
 62
7
100
AcDbSpline
 70
8
 71
3
 72
8
 73
4
 74
0
 40
0
 40
0
 40
0
 40
0
 40
1
 40
1
 40
1
 40
1
 10
88.869357
 20
129.955337
 30
0.0
 10
88.897369
 20
129.890173
 30
0.0
 10
88.908362
 20
129.809103
 30
0.0
 10
88.902333
 20
129.712124
 30
0.0
  0
LWPOLYLINE
  5
235
100
AcDbEntity
  8
Layer_1
 62
7
100
AcDbPolyline
 90
2
 70
0
 10
87.609446
 20
129.334266
 30
0.0
 10
87.860406
 20
129.316758
 30
0.0
  0
SPLINE
  5
236
100
AcDbEntity
  8
Layer_1
 62
7
100
AcDbSpline
 70
8
 71
3
 72
8
 73
4
 74
0
 40
0
 40
0
 40
0
 40
0
 40
1
 40
1
 40
1
 40
1
 10
88.655344
 20
129.734460
 30
0.0
 10
88.661535
 20
129.811347
 30
0.0
 10
88.643339
 20
129.876643
 30
0.0
 10
88.600760
 20
129.930347
 30
0.0
  0
SPLINE
  5
237
100
AcDbEntity
  8
Layer_1
 62
7
100
AcDbSpline
 70
8
 71
3
 72
8
 73
4
 74
0
 40
0
 40
0
 40
0
 40
0
 40
1
 40
1
 40
1
 40
1
 10
88.600760
 20
129.930347
 30
0.0
 10
88.558177
 20
129.984051
 30
0.0
 10
88.489260
 20
130.021838
 30
0.0
 10
88.394009
 20
130.043705
 30
0.0
  0
SPLINE
  5
238
100
AcDbEntity
  8
Layer_1
 62
7
100
AcDbSpline
 70
8
 71
3
 72
8
 73
4
 74
0
 40
0
 40
0
 40
0
 40
0
 40
1
 40
1
 40
1
 40
1
 10
88.394009
 20
130.043705
 30
0.0
 10
88.281519
 20
130.069549
 30
0.0
 10
88.196966
 20
130.069376
 30
0.0
 10
88.140348
 20
130.043358
 30
0.0
  0
SPLINE
  5
239
100
AcDbEntity
  8
Layer_1
 62
7
100
AcDbSpline
 70
8
 71
3
 72
8
 73
4
 74
0
 40
0
 40
0
 40
0
 40
0
 40
1
 40
1
 40
1
 40
1
 10
88.140348
 20
130.043358
 30
0.0
 10
88.083729
 20
130.017200
 30
0.0
 10
88.049692
 20
129.979174
 30
0.0
 10
88.038238
 20
129.929280
 30
0.0
  0
SPLINE
  5
23a
100
AcDbEntity
  8
Layer_1
 62
7
100
AcDbSpline
 70
8
 71
3
 72
8
 73
4
 74
0
 40
0
 40
0
 40
0
 40
0
 40
1
 40
1
 40
1
 40
1
 10
88.038238
 20
129.929280
 30
0.0
 10
88.030947
 20
129.897531
 30
0.0
 10
88.034365
 20
129.866663
 30
0.0
 10
88.048493
 20
129.836681
 30
0.0
  0
SPLINE
  5
23b
100
AcDbEntity
  8
Layer_1
 62
7
100
AcDbSpline
 70
8
 71
3
 72
8
 73
4
 74
0
 40
0
 40
0
 40
0
 40
0
 40
1
 40
1
 40
1
 40
1
 10
88.048493
 20
129.836681
 30
0.0
 10
88.062408
 20
129.805800
 30
0.0
 10
88.088709
 20
129.776836
 30
0.0
 10
88.127389
 20
129.749810
 30
0.0
  0
SPLINE
  5
23c
100
AcDbEntity
  8
Layer_1
 62
7
100
AcDbSpline
 70
8
 71
3
 72
8
 73
4
 74
0
 40
0
 40
0
 40
0
 40
0
 40
1
 40
1
 40
1
 40
1
 10
88.127389
 20
129.749810
 30
0.0
 10
88.149798
 20
129.735116
 30
0.0
 10
88.217129
 20
129.697694
 30
0.0
 10
88.329378
 20
129.637546
 30
0.0
  0
SPLINE
  5
23d
100
AcDbEntity
  8
Layer_1
 62
7
100
AcDbSpline
 70
8
 71
3
 72
8
 73
4
 74
0
 40
0
 40
0
 40
0
 40
0
 40
1
 40
1
 40
1
 40
1
 10
88.329378
 20
129.637546
 30
0.0
 10
88.492023
 20
129.551499
 30
0.0
 10
88.604208
 20
129.485873
 30
0.0
 10
88.665931
 20
129.440669
 30
0.0
  0
SPLINE
  5
23e
100
AcDbEntity
  8
Layer_1
 62
7
100
AcDbSpline
 70
8
 71
3
 72
8
 73
4
 74
0
 40
0
 40
0
 40
0
 40
0
 40
1
 40
1
 40
1
 40
1
 10
88.665931
 20
129.440669
 30
0.0
 10
88.727652
 20
129.395462
 30
0.0
 10
88.771561
 20
129.340258
 30
0.0
 10
88.797658
 20
129.275060
 30
0.0
  0
SPLINE
  5
23f
100
AcDbEntity
  8
Layer_1
 62
7
100
AcDbSpline
 70
8
 71
3
 72
8
 73
4
 74
0
 40
0
 40
0
 40
0
 40
0
 40
1
 40
1
 40
1
 40
1
 10
88.797658
 20
129.275060
 30
0.0
 10
88.823752
 20
129.209858
 30
0.0
 10
88.827219
 20
129.135530
 30
0.0
 10
88.808062
 20
129.052071
 30
0.0
  0
SPLINE
  5
240
100
AcDbEntity
  8
Layer_1
 62
7
100
AcDbSpline
 70
8
 71
3
 72
8
 73
4
 74
0
 40
0
 40
0
 40
0
 40
0
 40
1
 40
1
 40
1
 40
1
 10
88.808062
 20
129.052071
 30
0.0
 10
88.789317
 20
128.970424
 30
0.0
 10
88.747852
 20
128.899011
 30
0.0
 10
88.683671
 20
128.837825
 30
0.0
  0
SPLINE
  5
241
100
AcDbEntity
  8
Layer_1
 62
7
100
AcDbSpline
 70
8
 71
3
 72
8
 73
4
 74
0
 40
0
 40
0
 40
0
 40
0
 40
1
 40
1
 40
1
 40
1
 10
88.683671
 20
128.837825
 30
0.0
 10
88.619486
 20
128.776639
 30
0.0
 10
88.537960
 20
128.736625
 30
0.0
 10
88.439092
 20
128.717780
 30
0.0
  0
SPLINE
  5
242
100
AcDbEntity
  8
Layer_1
 62
7
100
AcDbSpline
 70
8
 71
3
 72
8
 73
4
 74
0
 40
0
 40
0
 40
0
 40
0
 40
1
 40
1
 40
1
 40
1
 10
88.439092
 20
128.717780
 30
0.0
 10
88.340222
 20
128.698952
 30
0.0
 10
88.234090
 20
128.702530
 30
0.0
 10
88.120696
 20
128.728549
 30
0.0
  0
SPLINE
  5
243
100
AcDbEntity
  8
Layer_1
 62
7
100
AcDbSpline
 70
8
 71
3
 72
8
 73
4
 74
0
 40
0
 40
0
 40
0
 40
0
 40
1
 40
1
 40
1
 40
1
 10
88.120696
 20
128.728549
 30
0.0
 10
87.932912
 20
128.771661
 30
0.0
 10
87.798762
 20
128.843522
 30
0.0
 10
87.718247
 20
128.944135
 30
0.0
  0
SPLINE
  5
244
100
AcDbEntity
  8
Layer_1
 62
7
100
AcDbSpline
 70
8
 71
3
 72
8
 73
4
 74
0
 40
0
 40
0
 40
0
 40
0
 40
1
 40
1
 40
1
 40
1
 10
87.718247
 20
128.944135
 30
0.0
 10
87.637730
 20
129.044748
 30
0.0
 10
87.601463
 20
129.174832
 30
0.0
 10
87.609445
 20
129.334394
 30
0.0
  0
LWPOLYLINE
  5
245
100
AcDbEntity
  8
Layer_1
 62
7
100
AcDbPolyline
 90
2
 70
0
 10
88.902333
 20
129.712124
 30
0.0
 10
88.655344
 20
129.734460
 30
0.0
  0
LWPOLYLINE
  5
246
100
AcDbEntity
  8
Layer_1
 62
7
100
AcDbPolyline
 90
2
 70
0
 10
87.609445
 20
129.334394
 30
0.0
 10
87.609446
 20
129.334266
 30
0.0
  0
SPLINE
  5
247
100
AcDbEntity
  8
Layer_1
 62
7
100
AcDbSpline
 70
8
 71
3
 72
8
 73
4
 74
0
 40
0
 40
0
 40
0
 40
0
 40
1
 40
1
 40
1
 40
1
 10
89.593351
 20
129.718568
 30
0.0
 10
89.666893
 20
129.775043
 30
0.0
 10
89.741646
 20
129.811459
 30
0.0
 10
89.817609
 20
129.827809
 30
0.0
  0
SPLINE
  5
248
100
AcDbEntity
  8
Layer_1
 62
7
100
AcDbSpline
 70
8
 71
3
 72
8
 73
4
 74
0
 40
0
 40
0
 40
0
 40
0
 40
1
 40
1
 40
1
 40
1
 10
89.817609
 20
129.827809
 30
0.0
 10
89.893570
 20
129.844171
 30
0.0
 10
89.977867
 20
129.838300
 30
0.0
 10
90.070501
 20
129.810198
 30
0.0
  0
SPLINE
  5
249
100
AcDbEntity
  8
Layer_1
 62
7
100
AcDbSpline
 70
8
 71
3
 72
8
 73
4
 74
0
 40
0
 40
0
 40
0
 40
0
 40
1
 40
1
 40
1
 40
1
 10
90.070501
 20
129.810198
 30
0.0
 10
90.191633
 20
129.773452
 30
0.0
 10
90.289061
 20
129.709859
 30
0.0
 10
90.362782
 20
129.619417
 30
0.0
  0
SPLINE
  5
24a
100
AcDbEntity
  8
Layer_1
 62
7
100
AcDbSpline
 70
8
 71
3
 72
8
 73
4
 74
0
 40
0
 40
0
 40
0
 40
0
 40
1
 40
1
 40
1
 40
1
 10
90.362782
 20
129.619417
 30
0.0
 10
90.436501
 20
129.528968
 30
0.0
 10
90.479742
 20
129.419806
 30
0.0
 10
90.492504
 20
129.291925
 30
0.0
  0
SPLINE
  5
24b
100
AcDbEntity
  8
Layer_1
 62
7
100
AcDbSpline
 70
8
 71
3
 72
8
 73
4
 74
0
 40
0
 40
0
 40
0
 40
0
 40
1
 40
1
 40
1
 40
1
 10
90.492504
 20
129.291925
 30
0.0
 10
90.505263
 20
129.164043
 30
0.0
 10
90.491115
 20
129.032409
 30
0.0
 10
90.450047
 20
128.897024
 30
0.0
  0
SPLINE
  5
24c
100
AcDbEntity
  8
Layer_1
 62
7
100
AcDbSpline
 70
8
 71
3
 72
8
 73
4
 74
0
 40
0
 40
0
 40
0
 40
0
 40
1
 40
1
 40
1
 40
1
 10
90.450047
 20
128.897024
 30
0.0
 10
90.406009
 20
128.751840
 30
0.0
 10
90.340309
 20
128.629033
 30
0.0
 10
90.252949
 20
128.528601
 30
0.0
  0
SPLINE
  5
24d
100
AcDbEntity
  8
Layer_1
 62
7
100
AcDbSpline
 70
8
 71
3
 72
8
 73
4
 74
0
 40
0
 40
0
 40
0
 40
0
 40
1
 40
1
 40
1
 40
1
 10
90.252949
 20
128.528601
 30
0.0
 10
90.165586
 20
128.428172
 30
0.0
 10
90.062860
 20
128.362067
 30
0.0
 10
89.944773
 20
128.330286
 30
0.0
  0
SPLINE
  5
24e
100
AcDbEntity
  8
Layer_1
 62
7
100
AcDbSpline
 70
8
 71
3
 72
8
 73
4
 74
0
 40
0
 40
0
 40
0
 40
0
 40
1
 40
1
 40
1
 40
1
 10
89.944773
 20
128.330286
 30
0.0
 10
89.826683
 20
128.298501
 30
0.0
 10
89.712861
 20
128.299231
 30
0.0
 10
89.603307
 20
128.332370
 30
0.0
  0
SPLINE
  5
24f
100
AcDbEntity
  8
Layer_1
 62
7
100
AcDbSpline
 70
8
 71
3
 72
8
 73
4
 74
0
 40
0
 40
0
 40
0
 40
0
 40
1
 40
1
 40
1
 40
1
 10
89.603307
 20
128.332370
 30
0.0
 10
89.523144
 20
128.356686
 30
0.0
 10
89.456354
 20
128.395422
 30
0.0
 10
89.402936
 20
128.448587
 30
0.0
  0
SPLINE
  5
250
100
AcDbEntity
  8
Layer_1
 62
7
100
AcDbSpline
 70
8
 71
3
 72
8
 73
4
 74
0
 40
0
 40
0
 40
0
 40
0
 40
1
 40
1
 40
1
 40
1
 10
89.402936
 20
128.448587
 30
0.0
 10
89.349518
 20
128.501749
 30
0.0
 10
89.310157
 20
128.560375
 30
0.0
 10
89.284856
 20
128.624462
 30
0.0
  0
LWPOLYLINE
  5
251
100
AcDbEntity
  8
Layer_1
 62
7
100
AcDbPolyline
 90
4
 70
0
 10
88.834855
 20
128.006760
 30
0.0
 10
89.430164
 20
129.969402
 30
0.0
 10
89.649274
 20
129.902943
 30
0.0
 10
89.593351
 20
129.718568
 30
0.0
  0
SPLINE
  5
252
100
AcDbEntity
  8
Layer_1
 62
7
100
AcDbSpline
 70
8
 71
3
 72
8
 73
4
 74
0
 40
0
 40
0
 40
0
 40
0
 40
1
 40
1
 40
1
 40
1
 10
89.430321
 20
129.185896
 30
0.0
 10
89.374936
 20
129.003303
 30
0.0
 10
89.370970
 20
128.857149
 30
0.0
 10
89.418423
 20
128.747439
 30
0.0
  0
SPLINE
  5
253
100
AcDbEntity
  8
Layer_1
 62
7
100
AcDbSpline
 70
8
 71
3
 72
8
 73
4
 74
0
 40
0
 40
0
 40
0
 40
0
 40
1
 40
1
 40
1
 40
1
 10
89.418423
 20
128.747439
 30
0.0
 10
89.465874
 20
128.637728
 30
0.0
 10
89.542150
 20
128.566933
 30
0.0
 10
89.647253
 20
128.535052
 30
0.0
  0
SPLINE
  5
254
100
AcDbEntity
  8
Layer_1
 62
7
100
AcDbSpline
 70
8
 71
3
 72
8
 73
4
 74
0
 40
0
 40
0
 40
0
 40
0
 40
1
 40
1
 40
1
 40
1
 10
89.647253
 20
128.535052
 30
0.0
 10
89.754135
 20
128.502642
 30
0.0
 10
89.859364
 20
128.520080
 30
0.0
 10
89.962941
 20
128.587383
 30
0.0
  0
SPLINE
  5
255
100
AcDbEntity
  8
Layer_1
 62
7
100
AcDbSpline
 70
8
 71
3
 72
8
 73
4
 74
0
 40
0
 40
0
 40
0
 40
0
 40
1
 40
1
 40
1
 40
1
 10
89.962941
 20
128.587383
 30
0.0
 10
90.066516
 20
128.654687
 30
0.0
 10
90.147077
 20
128.783201
 30
0.0
 10
90.204623
 20
128.972918
 30
0.0
  0
SPLINE
  5
256
100
AcDbEntity
  8
Layer_1
 62
7
100
AcDbSpline
 70
8
 71
3
 72
8
 73
4
 74
0
 40
0
 40
0
 40
0
 40
0
 40
1
 40
1
 40
1
 40
1
 10
90.204623
 20
128.972918
 30
0.0
 10
90.259465
 20
129.153729
 30
0.0
 10
90.263344
 20
129.300393
 30
0.0
 10
90.216260
 20
129.412911
 30
0.0
  0
SPLINE
  5
257
100
AcDbEntity
  8
Layer_1
 62
7
100
AcDbSpline
 70
8
 71
3
 72
8
 73
4
 74
0
 40
0
 40
0
 40
0
 40
0
 40
1
 40
1
 40
1
 40
1
 10
90.216260
 20
129.412911
 30
0.0
 10
90.169173
 20
129.525428
 30
0.0
 10
90.093969
 20
129.597359
 30
0.0
 10
89.990650
 20
129.628699
 30
0.0
  0
SPLINE
  5
258
100
AcDbEntity
  8
Layer_1
 62
7
100
AcDbSpline
 70
8
 71
3
 72
8
 73
4
 74
0
 40
0
 40
0
 40
0
 40
0
 40
1
 40
1
 40
1
 40
1
 10
89.990650
 20
129.628699
 30
0.0
 10
89.888220
 20
129.659754
 30
0.0
 10
89.783070
 20
129.639398
 30
0.0
 10
89.675202
 20
129.567540
 30
0.0
  0
SPLINE
  5
259
100
AcDbEntity
  8
Layer_1
 62
7
100
AcDbSpline
 70
8
 71
3
 72
8
 73
4
 74
0
 40
0
 40
0
 40
0
 40
0
 40
1
 40
1
 40
1
 40
1
 10
89.675202
 20
129.567540
 30
0.0
 10
89.567332
 20
129.495700
 30
0.0
 10
89.485706
 20
129.368485
 30
0.0
 10
89.430323
 20
129.185896
 30
0.0
  0
LWPOLYLINE
  5
25a
100
AcDbEntity
  8
Layer_1
 62
7
100
AcDbPolyline
 90
3
 70
0
 10
89.284856
 20
128.624462
 30
0.0
 10
89.075342
 20
127.933729
 30
0.0
 10
88.834855
 20
128.006760
 30
0.0
  0
SPLINE
  5
25b
100
AcDbEntity
  8
Layer_1
 62
7
100
AcDbSpline
 70
8
 71
3
 72
8
 73
4
 74
0
 40
0
 40
0
 40
0
 40
0
 40
1
 40
1
 40
1
 40
1
 10
91.487807
 20
127.898901
 30
0.0
 10
91.372538
 20
127.858456
 30
0.0
 10
91.268878
 20
127.838479
 30
0.0
 10
91.176828
 20
127.838965
 30
0.0
  0
SPLINE
  5
25c
100
AcDbEntity
  8
Layer_1
 62
7
100
AcDbSpline
 70
8
 71
3
 72
8
 73
4
 74
0
 40
0
 40
0
 40
0
 40
0
 40
1
 40
1
 40
1
 40
1
 10
91.176828
 20
127.838965
 30
0.0
 10
91.084776
 20
127.839313
 30
0.0
 10
90.992705
 20
127.857411
 30
0.0
 10
90.900616
 20
127.892808
 30
0.0
  0
SPLINE
  5
25d
100
AcDbEntity
  8
Layer_1
 62
7
100
AcDbSpline
 70
8
 71
3
 72
8
 73
4
 74
0
 40
0
 40
0
 40
0
 40
0
 40
1
 40
1
 40
1
 40
1
 10
90.900616
 20
127.892808
 30
0.0
 10
90.748581
 20
127.951257
 30
0.0
 10
90.646011
 20
128.033324
 30
0.0
 10
90.592904
 20
128.138998
 30
0.0
  0
SPLINE
  5
25e
100
AcDbEntity
  8
Layer_1
 62
7
100
AcDbSpline
 70
8
 71
3
 72
8
 73
4
 74
0
 40
0
 40
0
 40
0
 40
0
 40
1
 40
1
 40
1
 40
1
 10
90.592904
 20
128.138998
 30
0.0
 10
90.539797
 20
128.244676
 30
0.0
 10
90.535455
 20
128.355286
 30
0.0
 10
90.579878
 20
128.470833
 30
0.0
  0
SPLINE
  5
25f
100
AcDbEntity
  8
Layer_1
 62
7
100
AcDbSpline
 70
8
 71
3
 72
8
 73
4
 74
0
 40
0
 40
0
 40
0
 40
0
 40
1
 40
1
 40
1
 40
1
 10
90.579878
 20
128.470833
 30
0.0
 10
90.605931
 20
128.538598
 30
0.0
 10
90.645149
 20
128.594567
 30
0.0
 10
90.697534
 20
128.638746
 30
0.0
  0
SPLINE
  5
260
100
AcDbEntity
  8
Layer_1
 62
7
100
AcDbSpline
 70
8
 71
3
 72
8
 73
4
 74
0
 40
0
 40
0
 40
0
 40
0
 40
1
 40
1
 40
1
 40
1
 10
90.697534
 20
128.638746
 30
0.0
 10
90.749918
 20
128.682925
 30
0.0
 10
90.807601
 20
128.712351
 30
0.0
 10
90.870582
 20
128.727031
 30
0.0
  0
SPLINE
  5
261
100
AcDbEntity
  8
Layer_1
 62
7
100
AcDbSpline
 70
8
 71
3
 72
8
 73
4
 74
0
 40
0
 40
0
 40
0
 40
0
 40
1
 40
1
 40
1
 40
1
 10
90.870582
 20
128.727031
 30
0.0
 10
90.933562
 20
128.741690
 30
0.0
 10
90.999668
 20
128.745719
 30
0.0
 10
91.068900
 20
128.739050
 30
0.0
  0
SPLINE
  5
262
100
AcDbEntity
  8
Layer_1
 62
7
100
AcDbSpline
 70
8
 71
3
 72
8
 73
4
 74
0
 40
0
 40
0
 40
0
 40
0
 40
1
 40
1
 40
1
 40
1
 10
91.068900
 20
128.739050
 30
0.0
 10
91.119621
 20
128.733492
 30
0.0
 10
91.193631
 20
128.718520
 30
0.0
 10
91.290933
 20
128.694072
 30
0.0
  0
SPLINE
  5
263
100
AcDbEntity
  8
Layer_1
 62
7
100
AcDbSpline
 70
8
 71
3
 72
8
 73
4
 74
0
 40
0
 40
0
 40
0
 40
0
 40
1
 40
1
 40
1
 40
1
 10
91.290933
 20
128.694072
 30
0.0
 10
91.489007
 20
128.643845
 30
0.0
 10
91.638799
 20
128.617167
 30
0.0
 10
91.740308
 20
128.614041
 30
0.0
  0
SPLINE
  5
264
100
AcDbEntity
  8
Layer_1
 62
7
100
AcDbSpline
 70
8
 71
3
 72
8
 73
4
 74
0
 40
0
 40
0
 40
0
 40
0
 40
1
 40
1
 40
1
 40
1
 10
91.740308
 20
128.614041
 30
0.0
 10
91.753532
 20
128.645860
 30
0.0
 10
91.761817
 20
128.666101
 30
0.0
 10
91.765159
 20
128.674789
 30
0.0
  0
SPLINE
  5
265
100
AcDbEntity
  8
Layer_1
 62
7
100
AcDbSpline
 70
8
 71
3
 72
8
 73
4
 74
0
 40
0
 40
0
 40
0
 40
0
 40
1
 40
1
 40
1
 40
1
 10
91.765159
 20
128.674789
 30
0.0
 10
91.801898
 20
128.770355
 30
0.0
 10
91.805631
 20
128.846200
 30
0.0
 10
91.776355
 20
128.902329
 30
0.0
  0
SPLINE
  5
266
100
AcDbEntity
  8
Layer_1
 62
7
100
AcDbSpline
 70
8
 71
3
 72
8
 73
4
 74
0
 40
0
 40
0
 40
0
 40
0
 40
1
 40
1
 40
1
 40
1
 10
91.776355
 20
128.902329
 30
0.0
 10
91.736783
 20
128.978372
 30
0.0
 10
91.657921
 20
129.039103
 30
0.0
 10
91.539770
 20
129.084529
 30
0.0
  0
SPLINE
  5
267
100
AcDbEntity
  8
Layer_1
 62
7
100
AcDbSpline
 70
8
 71
3
 72
8
 73
4
 74
0
 40
0
 40
0
 40
0
 40
0
 40
1
 40
1
 40
1
 40
1
 10
91.539770
 20
129.084529
 30
0.0
 10
91.429435
 20
129.126947
 30
0.0
 10
91.340556
 20
129.138931
 30
0.0
 10
91.273133
 20
129.120479
 30
0.0
  0
SPLINE
  5
268
100
AcDbEntity
  8
Layer_1
 62
7
100
AcDbSpline
 70
8
 71
3
 72
8
 73
4
 74
0
 40
0
 40
0
 40
0
 40
0
 40
1
 40
1
 40
1
 40
1
 10
91.273133
 20
129.120479
 30
0.0
 10
91.205708
 20
129.102033
 30
0.0
 10
91.140528
 20
129.048555
 30
0.0
 10
91.077591
 20
128.960072
 30
0.0
  0
LWPOLYLINE
  5
269
100
AcDbEntity
  8
Layer_1
 62
7
100
AcDbPolyline
 90
2
 70
0
 10
89.430323
 20
129.185896
 30
0.0
 10
89.430321
 20
129.185896
 30
0.0
  0
SPLINE
  5
26a
100
AcDbEntity
  8
Layer_1
 62
7
100
AcDbSpline
 70
8
 71
3
 72
8
 73
4
 74
0
 40
0
 40
0
 40
0
 40
0
 40
1
 40
1
 40
1
 40
1
 10
90.860260
 20
129.079527
 30
0.0
 10
90.918853
 20
129.169681
 30
0.0
 10
90.983648
 20
129.235761
 30
0.0
 10
91.054645
 20
129.277773
 30
0.0
  0
SPLINE
  5
26b
100
AcDbEntity
  8
Layer_1
 62
7
100
AcDbSpline
 70
8
 71
3
 72
8
 73
4
 74
0
 40
0
 40
0
 40
0
 40
0
 40
1
 40
1
 40
1
 40
1
 10
91.054645
 20
129.277773
 30
0.0
 10
91.125640
 20
129.319780
 30
0.0
 10
91.212576
 20
129.339706
 30
0.0
 10
91.315454
 20
129.337548
 30
0.0
  0
SPLINE
  5
26c
100
AcDbEntity
  8
Layer_1
 62
7
100
AcDbSpline
 70
8
 71
3
 72
8
 73
4
 74
0
 40
0
 40
0
 40
0
 40
0
 40
1
 40
1
 40
1
 40
1
 10
91.315454
 20
129.337548
 30
0.0
 10
91.418331
 20
129.335464
 30
0.0
 10
91.529280
 20
129.311426
 30
0.0
 10
91.648303
 20
129.265674
 30
0.0
  0
SPLINE
  5
26d
100
AcDbEntity
  8
Layer_1
 62
7
100
AcDbSpline
 70
8
 71
3
 72
8
 73
4
 74
0
 40
0
 40
0
 40
0
 40
0
 40
1
 40
1
 40
1
 40
1
 10
91.648303
 20
129.265674
 30
0.0
 10
91.766454
 20
129.220248
 30
0.0
 10
91.857109
 20
129.169441
 30
0.0
 10
91.920267
 20
129.113250
 30
0.0
  0
SPLINE
  5
26e
100
AcDbEntity
  8
Layer_1
 62
7
100
AcDbSpline
 70
8
 71
3
 72
8
 73
4
 74
0
 40
0
 40
0
 40
0
 40
0
 40
1
 40
1
 40
1
 40
1
 10
91.920267
 20
129.113250
 30
0.0
 10
91.983423
 20
129.057055
 30
0.0
 10
92.024277
 20
129.001212
 30
0.0
 10
92.042830
 20
128.945719
 30
0.0
  0
SPLINE
  5
26f
100
AcDbEntity
  8
Layer_1
 62
7
100
AcDbSpline
 70
8
 71
3
 72
8
 73
4
 74
0
 40
0
 40
0
 40
0
 40
0
 40
1
 40
1
 40
1
 40
1
 10
92.042830
 20
128.945719
 30
0.0
 10
92.061380
 20
128.890223
 30
0.0
 10
92.065246
 20
128.827657
 30
0.0
 10
92.054432
 20
128.758027
 30
0.0
  0
SPLINE
  5
270
100
AcDbEntity
  8
Layer_1
 62
7
100
AcDbSpline
 70
8
 71
3
 72
8
 73
4
 74
0
 40
0
 40
0
 40
0
 40
0
 40
1
 40
1
 40
1
 40
1
 10
92.054432
 20
128.758027
 30
0.0
 10
92.046884
 20
128.715057
 30
0.0
 10
92.023072
 20
128.641445
 30
0.0
 10
91.982993
 20
128.537191
 30
0.0
  0
LWPOLYLINE
  5
271
100
AcDbEntity
  8
Layer_1
 62
7
100
AcDbPolyline
 90
2
 70
0
 10
91.077591
 20
128.960072
 30
0.0
 10
90.860260
 20
129.079527
 30
0.0
  0
SPLINE
  5
272
100
AcDbEntity
  8
Layer_1
 62
7
100
AcDbSpline
 70
8
 71
3
 72
8
 73
4
 74
0
 40
0
 40
0
 40
0
 40
0
 40
1
 40
1
 40
1
 40
1
 10
91.862750
 20
128.224434
 30
0.0
 10
91.778912
 20
128.006375
 30
0.0
 10
91.730884
 20
127.866536
 30
0.0
 10
91.718665
 20
127.804923
 30
0.0
  0
SPLINE
  5
273
100
AcDbEntity
  8
Layer_1
 62
7
100
AcDbSpline
 70
8
 71
3
 72
8
 73
4
 74
0
 40
0
 40
0
 40
0
 40
0
 40
1
 40
1
 40
1
 40
1
 10
91.718665
 20
127.804923
 30
0.0
 10
91.706444
 20
127.743309
 30
0.0
 10
91.704916
 20
127.680327
 30
0.0
 10
91.714079
 20
127.615973
 30
0.0
  0
LWPOLYLINE
  5
274
100
AcDbEntity
  8
Layer_1
 62
7
100
AcDbPolyline
 90
2
 70
0
 10
91.982993
 20
128.537191
 30
0.0
 10
91.862750
 20
128.224434
 30
0.0
  0
SPLINE
  5
275
100
AcDbEntity
  8
Layer_1
 62
7
100
AcDbSpline
 70
8
 71
3
 72
8
 73
4
 74
0
 40
0
 40
0
 40
0
 40
0
 40
1
 40
1
 40
1
 40
1
 10
91.469086
 20
127.710163
 30
0.0
 10
91.463462
 20
127.768167
 30
0.0
 10
91.469711
 20
127.831084
 30
0.0
 10
91.487806
 20
127.898915
 30
0.0
  0
LWPOLYLINE
  5
276
100
AcDbEntity
  8
Layer_1
 62
7
100
AcDbPolyline
 90
2
 70
0
 10
91.714079
 20
127.615973
 30
0.0
 10
91.469086
 20
127.710163
 30
0.0
  0
SPLINE
  5
277
100
AcDbEntity
  8
Layer_1
 62
7
100
AcDbSpline
 70
8
 71
3
 72
8
 73
4
 74
0
 40
0
 40
0
 40
0
 40
0
 40
1
 40
1
 40
1
 40
1
 10
91.669666
 20
128.430284
 30
0.0
 10
91.571165
 20
128.428200
 30
0.0
 10
91.432100
 20
128.447826
 30
0.0
 10
91.252470
 20
128.488966
 30
0.0
  0
SPLINE
  5
278
100
AcDbEntity
  8
Layer_1
 62
7
100
AcDbSpline
 70
8
 71
3
 72
8
 73
4
 74
0
 40
0
 40
0
 40
0
 40
0
 40
1
 40
1
 40
1
 40
1
 10
91.252470
 20
128.488966
 30
0.0
 10
91.150692
 20
128.512135
 30
0.0
 10
91.076481
 20
128.522730
 30
0.0
 10
91.029838
 20
128.520716
 30
0.0
  0
SPLINE
  5
279
100
AcDbEntity
  8
Layer_1
 62
7
100
AcDbSpline
 70
8
 71
3
 72
8
 73
4
 74
0
 40
0
 40
0
 40
0
 40
0
 40
1
 40
1
 40
1
 40
1
 10
91.029838
 20
128.520716
 30
0.0
 10
90.983194
 20
128.518631
 30
0.0
 10
90.942583
 20
128.505153
 30
0.0
 10
90.908005
 20
128.480052
 30
0.0
  0
SPLINE
  5
27a
100
AcDbEntity
  8
Layer_1
 62
7
100
AcDbSpline
 70
8
 71
3
 72
8
 73
4
 74
0
 40
0
 40
0
 40
0
 40
0
 40
1
 40
1
 40
1
 40
1
 10
90.908005
 20
128.480052
 30
0.0
 10
90.873424
 20
128.454972
 30
0.0
 10
90.848287
 20
128.421989
 30
0.0
 10
90.832590
 20
128.381159
 30
0.0
  0
SPLINE
  5
27b
100
AcDbEntity
  8
Layer_1
 62
7
100
AcDbSpline
 70
8
 71
3
 72
8
 73
4
 74
0
 40
0
 40
0
 40
0
 40
0
 40
1
 40
1
 40
1
 40
1
 10
90.832590
 20
128.381159
 30
0.0
 10
90.808541
 20
128.318607
 30
0.0
 10
90.812175
 20
128.257379
 30
0.0
 10
90.843490
 20
128.197475
 30
0.0
  0
SPLINE
  5
27c
100
AcDbEntity
  8
Layer_1
 62
7
100
AcDbSpline
 70
8
 71
3
 72
8
 73
4
 74
0
 40
0
 40
0
 40
0
 40
0
 40
1
 40
1
 40
1
 40
1
 10
90.843490
 20
128.197475
 30
0.0
 10
90.874806
 20
128.137570
 30
0.0
 10
90.936073
 20
128.090081
 30
0.0
 10
91.027295
 20
128.055010
 30
0.0
  0
SPLINE
  5
27d
100
AcDbEntity
  8
Layer_1
 62
7
100
AcDbSpline
 70
8
 71
3
 72
8
 73
4
 74
0
 40
0
 40
0
 40
0
 40
0
 40
1
 40
1
 40
1
 40
1
 10
91.027295
 20
128.055010
 30
0.0
 10
91.117646
 20
128.020273
 30
0.0
 10
91.205606
 20
128.009143
 30
0.0
 10
91.291175
 20
128.021628
 30
0.0
  0
SPLINE
  5
27e
100
AcDbEntity
  8
Layer_1
 62
7
100
AcDbSpline
 70
8
 71
3
 72
8
 73
4
 74
0
 40
0
 40
0
 40
0
 40
0
 40
1
 40
1
 40
1
 40
1
 10
91.291175
 20
128.021628
 30
0.0
 10
91.376741
 20
128.034099
 30
0.0
 10
91.449225
 20
128.068311
 30
0.0
 10
91.508626
 20
128.124252
 30
0.0
  0
SPLINE
  5
27f
100
AcDbEntity
  8
Layer_1
 62
7
100
AcDbSpline
 70
8
 71
3
 72
8
 73
4
 74
0
 40
0
 40
0
 40
0
 40
0
 40
1
 40
1
 40
1
 40
1
 10
91.508626
 20
128.124252
 30
0.0
 10
91.554194
 20
128.167559
 30
0.0
 10
91.596852
 20
128.240907
 30
0.0
 10
91.636600
 20
128.344288
 30
0.0
  0
LWPOLYLINE
  5
280
100
AcDbEntity
  8
Layer_1
 62
7
100
AcDbPolyline
 90
2
 70
0
 10
91.487806
 20
127.898915
 30
0.0
 10
91.487807
 20
127.898901
 30
0.0
  0
LWPOLYLINE
  5
281
100
AcDbEntity
  8
Layer_1
 62
7
100
AcDbPolyline
 90
2
 70
0
 10
91.636600
 20
128.344288
 30
0.0
 10
91.669666
 20
128.430284
 30
0.0
  0
SPLINE
  5
282
100
AcDbEntity
  8
Layer_1
 62
7
100
AcDbSpline
 70
8
 71
3
 72
8
 73
4
 74
0
 40
0
 40
0
 40
0
 40
0
 40
1
 40
1
 40
1
 40
1
 10
93.315884
 20
127.440001
 30
0.0
 10
93.219514
 20
127.296984
 30
0.0
 10
93.100581
 20
127.205288
 30
0.0
 10
92.959087
 20
127.164906
 30
0.0
  0
SPLINE
  5
283
100
AcDbEntity
  8
Layer_1
 62
7
100
AcDbSpline
 70
8
 71
3
 72
8
 73
4
 74
0
 40
0
 40
0
 40
0
 40
0
 40
1
 40
1
 40
1
 40
1
 10
92.959087
 20
127.164906
 30
0.0
 10
92.817590
 20
127.124528
 30
0.0
 10
92.673434
 20
127.138506
 30
0.0
 10
92.526618
 20
127.206883
 30
0.0
  0
SPLINE
  5
284
100
AcDbEntity
  8
Layer_1
 62
7
100
AcDbSpline
 70
8
 71
3
 72
8
 73
4
 74
0
 40
0
 40
0
 40
0
 40
0
 40
1
 40
1
 40
1
 40
1
 10
92.526618
 20
127.206883
 30
0.0
 10
92.342675
 20
127.292534
 30
0.0
 10
92.222797
 20
127.421507
 30
0.0
 10
92.166984
 20
127.593804
 30
0.0
  0
SPLINE
  5
285
100
AcDbEntity
  8
Layer_1
 62
7
100
AcDbSpline
 70
8
 71
3
 72
8
 73
4
 74
0
 40
0
 40
0
 40
0
 40
0
 40
1
 40
1
 40
1
 40
1
 10
92.166984
 20
127.593804
 30
0.0
 10
92.111171
 20
127.766101
 30
0.0
 10
92.135519
 20
127.964468
 30
0.0
 10
92.240029
 20
128.188912
 30
0.0
  0
SPLINE
  5
286
100
AcDbEntity
  8
Layer_1
 62
7
100
AcDbSpline
 70
8
 71
3
 72
8
 73
4
 74
0
 40
0
 40
0
 40
0
 40
0
 40
1
 40
1
 40
1
 40
1
 10
92.240029
 20
128.188912
 30
0.0
 10
92.307607
 20
128.334041
 30
0.0
 10
92.390785
 20
128.449834
 30
0.0
 10
92.489564
 20
128.536285
 30
0.0
  0
SPLINE
  5
287
100
AcDbEntity
  8
Layer_1
 62
7
100
AcDbSpline
 70
8
 71
3
 72
8
 73
4
 74
0
 40
0
 40
0
 40
0
 40
0
 40
1
 40
1
 40
1
 40
1
 10
92.489564
 20
128.536285
 30
0.0
 10
92.588341
 20
128.622735
 30
0.0
 10
92.699551
 20
128.670287
 30
0.0
 10
92.823193
 20
128.678940
 30
0.0
  0
SPLINE
  5
288
100
AcDbEntity
  8
Layer_1
 62
7
100
AcDbSpline
 70
8
 71
3
 72
8
 73
4
 74
0
 40
0
 40
0
 40
0
 40
0
 40
1
 40
1
 40
1
 40
1
 10
92.823193
 20
128.678940
 30
0.0
 10
92.946834
 20
128.687590
 30
0.0
 10
93.066453
 20
128.665011
 30
0.0
 10
93.182052
 20
128.611178
 30
0.0
  0
SPLINE
  5
289
100
AcDbEntity
  8
Layer_1
 62
7
100
AcDbSpline
 70
8
 71
3
 72
8
 73
4
 74
0
 40
0
 40
0
 40
0
 40
0
 40
1
 40
1
 40
1
 40
1
 10
93.182052
 20
128.611178
 30
0.0
 10
93.328023
 20
128.543208
 30
0.0
 10
93.430228
 20
128.450699
 30
0.0
 10
93.488667
 20
128.333648
 30
0.0
  0
SPLINE
  5
28a
100
AcDbEntity
  8
Layer_1
 62
7
100
AcDbSpline
 70
8
 71
3
 72
8
 73
4
 74
0
 40
0
 40
0
 40
0
 40
0
 40
1
 40
1
 40
1
 40
1
 10
93.488667
 20
128.333648
 30
0.0
 10
93.547102
 20
128.216601
 30
0.0
 10
93.557771
 20
128.084061
 30
0.0
 10
93.520674
 20
127.936035
 30
0.0
  0
LWPOLYLINE
  5
28b
100
AcDbEntity
  8
Layer_1
 62
7
100
AcDbPolyline
 90
2
 70
0
 10
93.105416
 20
127.573427
 30
0.0
 10
93.315884
 20
127.440001
 30
0.0
  0
SPLINE
  5
28c
100
AcDbEntity
  8
Layer_1
 62
7
100
AcDbSpline
 70
8
 71
3
 72
8
 73
4
 74
0
 40
0
 40
0
 40
0
 40
0
 40
1
 40
1
 40
1
 40
1
 10
93.283271
 20
128.004996
 30
0.0
 10
93.304214
 20
128.105102
 30
0.0
 10
93.298507
 20
128.190413
 30
0.0
 10
93.266142
 20
128.260926
 30
0.0
  0
SPLINE
  5
28d
100
AcDbEntity
  8
Layer_1
 62
7
100
AcDbSpline
 70
8
 71
3
 72
8
 73
4
 74
0
 40
0
 40
0
 40
0
 40
0
 40
1
 40
1
 40
1
 40
1
 10
93.266142
 20
128.260926
 30
0.0
 10
93.233777
 20
128.331439
 30
0.0
 10
93.179626
 20
128.384375
 30
0.0
 10
93.103687
 20
128.419734
 30
0.0
  0
SPLINE
  5
28e
100
AcDbEntity
  8
Layer_1
 62
7
100
AcDbSpline
 70
8
 71
3
 72
8
 73
4
 74
0
 40
0
 40
0
 40
0
 40
0
 40
1
 40
1
 40
1
 40
1
 10
93.103687
 20
128.419734
 30
0.0
 10
92.988933
 20
128.473167
 30
0.0
 10
92.876542
 20
128.475449
 30
0.0
 10
92.766515
 20
128.426578
 30
0.0
  0
SPLINE
  5
28f
100
AcDbEntity
  8
Layer_1
 62
7
100
AcDbSpline
 70
8
 71
3
 72
8
 73
4
 74
0
 40
0
 40
0
 40
0
 40
0
 40
1
 40
1
 40
1
 40
1
 10
92.766515
 20
128.426578
 30
0.0
 10
92.656486
 20
128.377706
 30
0.0
 10
92.560022
 20
128.264250
 30
0.0
 10
92.477122
 20
128.086215
 30
0.0
  0
SPLINE
  5
290
100
AcDbEntity
  8
Layer_1
 62
7
100
AcDbSpline
 70
8
 71
3
 72
8
 73
4
 74
0
 40
0
 40
0
 40
0
 40
0
 40
1
 40
1
 40
1
 40
1
 10
92.477122
 20
128.086215
 30
0.0
 10
92.393042
 20
127.905647
 30
0.0
 10
92.366542
 20
127.758330
 30
0.0
 10
92.397622
 20
127.644267
 30
0.0
  0
SPLINE
  5
291
100
AcDbEntity
  8
Layer_1
 62
7
100
AcDbSpline
 70
8
 71
3
 72
8
 73
4
 74
0
 40
0
 40
0
 40
0
 40
0
 40
1
 40
1
 40
1
 40
1
 10
92.397622
 20
127.644267
 30
0.0
 10
92.428701
 20
127.530203
 30
0.0
 10
92.499928
 20
127.447240
 30
0.0
 10
92.611307
 20
127.395377
 30
0.0
  0
SPLINE
  5
292
100
AcDbEntity
  8
Layer_1
 62
7
100
AcDbSpline
 70
8
 71
3
 72
8
 73
4
 74
0
 40
0
 40
0
 40
0
 40
0
 40
1
 40
1
 40
1
 40
1
 10
92.611307
 20
127.395377
 30
0.0
 10
92.700747
 20
127.353731
 30
0.0
 10
92.788190
 20
127.346384
 30
0.0
 10
92.873637
 20
127.373319
 30
0.0
  0
SPLINE
  5
293
100
AcDbEntity
  8
Layer_1
 62
7
100
AcDbSpline
 70
8
 71
3
 72
8
 73
4
 74
0
 40
0
 40
0
 40
0
 40
0
 40
1
 40
1
 40
1
 40
1
 10
92.873637
 20
127.373319
 30
0.0
 10
92.959082
 20
127.400275
 30
0.0
 10
93.036341
 20
127.466968
 30
0.0
 10
93.105415
 20
127.573413
 30
0.0
  0
LWPOLYLINE
  5
294
100
AcDbEntity
  8
Layer_1
 62
7
100
AcDbPolyline
 90
2
 70
0
 10
93.520674
 20
127.936035
 30
0.0
 10
93.283271
 20
128.004996
 30
0.0
  0
LWPOLYLINE
  5
295
100
AcDbEntity
  8
Layer_1
 62
7
100
AcDbPolyline
 90
2
 70
0
 10
93.105415
 20
127.573413
 30
0.0
 10
93.105416
 20
127.573427
 30
0.0
  0
SPLINE
  5
296
100
AcDbEntity
  8
Layer_1
 62
7
100
AcDbSpline
 70
8
 71
3
 72
8
 73
4
 74
0
 40
0
 40
0
 40
0
 40
0
 40
1
 40
1
 40
1
 40
1
 10
94.622226
 20
126.650600
 30
0.0
 10
94.513057
 20
126.537565
 30
0.0
 10
94.389748
 20
126.471140
 30
0.0
 10
94.252299
 20
126.451323
 30
0.0
  0
SPLINE
  5
297
100
AcDbEntity
  8
Layer_1
 62
7
100
AcDbSpline
 70
8
 71
3
 72
8
 73
4
 74
0
 40
0
 40
0
 40
0
 40
0
 40
1
 40
1
 40
1
 40
1
 10
94.252299
 20
126.451323
 30
0.0
 10
94.114848
 20
126.431523
 30
0.0
 10
93.970747
 20
126.463203
 30
0.0
 10
93.819996
 20
126.546413
 30
0.0
  0
SPLINE
  5
298
100
AcDbEntity
  8
Layer_1
 62
7
100
AcDbSpline
 70
8
 71
3
 72
8
 73
4
 74
0
 40
0
 40
0
 40
0
 40
0
 40
1
 40
1
 40
1
 40
1
 10
93.819996
 20
126.546413
 30
0.0
 10
93.630129
 20
126.651211
 30
0.0
 10
93.511852
 20
126.792773
 30
0.0
 10
93.465164
 20
126.971103
 30
0.0
  0
SPLINE
  5
299
100
AcDbEntity
  8
Layer_1
 62
7
100
AcDbSpline
 70
8
 71
3
 72
8
 73
4
 74
0
 40
0
 40
0
 40
0
 40
0
 40
1
 40
1
 40
1
 40
1
 10
93.465164
 20
126.971103
 30
0.0
 10
93.418476
 20
127.149431
 30
0.0
 10
93.453377
 20
127.344123
 30
0.0
 10
93.569869
 20
127.555176
 30
0.0
  0
SPLINE
  5
29a
100
AcDbEntity
  8
Layer_1
 62
7
100
AcDbSpline
 70
8
 71
3
 72
8
 73
4
 74
0
 40
0
 40
0
 40
0
 40
0
 40
1
 40
1
 40
1
 40
1
 10
93.569869
 20
127.555176
 30
0.0
 10
93.690408
 20
127.773562
 30
0.0
 10
93.840187
 20
127.912021
 30
0.0
 10
94.019208
 20
127.970557
 30
0.0
  0
SPLINE
  5
29b
100
AcDbEntity
  8
Layer_1
 62
7
100
AcDbSpline
 70
8
 71
3
 72
8
 73
4
 74
0
 40
0
 40
0
 40
0
 40
0
 40
1
 40
1
 40
1
 40
1
 10
94.019208
 20
127.970557
 30
0.0
 10
94.198226
 20
128.029089
 30
0.0
 10
94.377373
 20
128.008879
 30
0.0
 10
94.556647
 20
127.909930
 30
0.0
  0
SPLINE
  5
29c
100
AcDbEntity
  8
Layer_1
 62
7
100
AcDbSpline
 70
8
 71
3
 72
8
 73
4
 74
0
 40
0
 40
0
 40
0
 40
0
 40
1
 40
1
 40
1
 40
1
 10
94.556647
 20
127.909930
 30
0.0
 10
94.730214
 20
127.814128
 30
0.0
 10
94.839394
 20
127.676788
 30
0.0
 10
94.884187
 20
127.497911
 30
0.0
  0
SPLINE
  5
29d
100
AcDbEntity
  8
Layer_1
 62
7
100
AcDbSpline
 70
8
 71
3
 72
8
 73
4
 74
0
 40
0
 40
0
 40
0
 40
0
 40
1
 40
1
 40
1
 40
1
 10
94.884187
 20
127.497911
 30
0.0
 10
94.928977
 20
127.319035
 30
0.0
 10
94.892225
 20
127.122440
 30
0.0
 10
94.773938
 20
126.908128
 30
0.0
  0
SPLINE
  5
29e
100
AcDbEntity
  8
Layer_1
 62
7
100
AcDbSpline
 70
8
 71
3
 72
8
 73
4
 74
0
 40
0
 40
0
 40
0
 40
0
 40
1
 40
1
 40
1
 40
1
 10
94.773938
 20
126.908128
 30
0.0
 10
94.766740
 20
126.895102
 30
0.0
 10
94.755538
 20
126.875753
 30
0.0
 10
94.740333
 20
126.850131
 30
0.0
  0
LWPOLYLINE
  5
29f
100
AcDbEntity
  8
Layer_1
 62
7
100
AcDbPolyline
 90
2
 70
0
 10
94.410393
 20
126.804201
 30
0.0
 10
94.622226
 20
126.650600
 30
0.0
  0
SPLINE
  5
2a0
100
AcDbEntity
  8
Layer_1
 62
7
100
AcDbSpline
 70
8
 71
3
 72
8
 73
4
 74
0
 40
0
 40
0
 40
0
 40
0
 40
1
 40
1
 40
1
 40
1
 10
93.772259
 20
127.384463
 30
0.0
 10
93.701696
 20
127.237361
 30
0.0
 10
93.681763
 20
127.105905
 30
0.0
 10
93.712459
 20
126.990091
 30
0.0
  0
SPLINE
  5
2a1
100
AcDbEntity
  8
Layer_1
 62
7
100
AcDbSpline
 70
8
 71
3
 72
8
 73
4
 74
0
 40
0
 40
0
 40
0
 40
0
 40
1
 40
1
 40
1
 40
1
 10
93.712459
 20
126.990091
 30
0.0
 10
93.743153
 20
126.874277
 30
0.0
 10
93.812690
 20
126.786461
 30
0.0
 10
93.921069
 20
126.726640
 30
0.0
  0
SPLINE
  5
2a2
100
AcDbEntity
  8
Layer_1
 62
7
100
AcDbSpline
 70
8
 71
3
 72
8
 73
4
 74
0
 40
0
 40
0
 40
0
 40
0
 40
1
 40
1
 40
1
 40
1
 10
93.921069
 20
126.726640
 30
0.0
 10
94.001741
 20
126.682114
 30
0.0
 10
94.082293
 20
126.665294
 30
0.0
 10
94.162723
 20
126.676184
 30
0.0
  0
SPLINE
  5
2a3
100
AcDbEntity
  8
Layer_1
 62
7
100
AcDbSpline
 70
8
 71
3
 72
8
 73
4
 74
0
 40
0
 40
0
 40
0
 40
0
 40
1
 40
1
 40
1
 40
1
 10
94.162723
 20
126.676184
 30
0.0
 10
94.243152
 20
126.687092
 30
0.0
 10
94.325709
 20
126.729745
 30
0.0
 10
94.410394
 20
126.804201
 30
0.0
  0
LWPOLYLINE
  5
2a4
100
AcDbEntity
  8
Layer_1
 62
7
100
AcDbPolyline
 90
2
 70
0
 10
94.740333
 20
126.850131
 30
0.0
 10
93.772259
 20
127.384463
 30
0.0
  0
LWPOLYLINE
  5
2a5
100
AcDbEntity
  8
Layer_1
 62
7
100
AcDbPolyline
 90
2
 70
0
 10
94.410394
 20
126.804201
 30
0.0
 10
94.410393
 20
126.804201
 30
0.0
  0
SPLINE
  5
2a6
100
AcDbEntity
  8
Layer_1
 62
7
100
AcDbSpline
 70
8
 71
3
 72
8
 73
4
 74
0
 40
0
 40
0
 40
0
 40
0
 40
1
 40
1
 40
1
 40
1
 10
94.609164
 20
127.158546
 30
0.0
 10
94.659654
 20
127.273137
 30
0.0
 10
94.677150
 20
127.370325
 30
0.0
 10
94.661653
 20
127.450110
 30
0.0
  0
SPLINE
  5
2a7
100
AcDbEntity
  8
Layer_1
 62
7
100
AcDbSpline
 70
8
 71
3
 72
8
 73
4
 74
0
 40
0
 40
0
 40
0
 40
0
 40
1
 40
1
 40
1
 40
1
 10
94.661653
 20
127.450110
 30
0.0
 10
94.638348
 20
127.573534
 30
0.0
 10
94.570878
 20
127.666057
 30
0.0
 10
94.459242
 20
127.727678
 30
0.0
  0
SPLINE
  5
2a8
100
AcDbEntity
  8
Layer_1
 62
7
100
AcDbSpline
 70
8
 71
3
 72
8
 73
4
 74
0
 40
0
 40
0
 40
0
 40
0
 40
1
 40
1
 40
1
 40
1
 10
94.459242
 20
127.727678
 30
0.0
 10
94.358196
 20
127.783448
 30
0.0
 10
94.254579
 20
127.796520
 30
0.0
 10
94.148392
 20
127.766893
 30
0.0
  0
SPLINE
  5
2a9
100
AcDbEntity
  8
Layer_1
 62
7
100
AcDbSpline
 70
8
 71
3
 72
8
 73
4
 74
0
 40
0
 40
0
 40
0
 40
0
 40
1
 40
1
 40
1
 40
1
 10
94.148392
 20
127.766893
 30
0.0
 10
94.042203
 20
127.737262
 30
0.0
 10
93.954182
 20
127.667839
 30
0.0
 10
93.884330
 20
127.558618
 30
0.0
  0
LWPOLYLINE
  5
2aa
100
AcDbEntity
  8
Layer_1
 62
7
100
AcDbPolyline
 90
2
 70
0
 10
93.884330
 20
127.558618
 30
0.0
 10
94.609164
 20
127.158546
 30
0.0
  0
LWPOLYLINE
  5
2ab
100
AcDbEntity
  8
Layer_1
 62
7
100
AcDbPolyline
 90
2
 70
0
 10
93.884330
 20
127.558618
 30
0.0
 10
93.884330
 20
127.558618
 30
0.0
  0
LWPOLYLINE
  5
2ac
100
AcDbEntity
  8
Layer_1
 62
7
100
AcDbPolyline
 90
5
 70
0
 10
94.734479
 20
126.051601
 30
0.0
 10
94.886102
 20
126.294349
 30
0.0
 10
95.128851
 20
126.142727
 30
0.0
 10
94.977228
 20
125.899980
 30
0.0
 10
94.734479
 20
126.051601
 30
0.0
  0
SPLINE
  5
2ad
100
AcDbEntity
  8
Layer_1
 62
7
100
AcDbSpline
 70
8
 71
3
 72
8
 73
4
 74
0
 40
0
 40
0
 40
0
 40
0
 40
1
 40
1
 40
1
 40
1
 10
96.634793
 20
125.392774
 30
0.0
 10
96.515277
 20
125.268446
 30
0.0
 10
96.382355
 20
125.198551
 30
0.0
 10
96.236026
 20
125.183090
 30
0.0
  0
SPLINE
  5
2ae
100
AcDbEntity
  8
Layer_1
 62
7
100
AcDbSpline
 70
8
 71
3
 72
8
 73
4
 74
0
 40
0
 40
0
 40
0
 40
0
 40
1
 40
1
 40
1
 40
1
 10
96.236026
 20
125.183090
 30
0.0
 10
96.089695
 20
125.167631
 30
0.0
 10
95.950089
 20
125.206190
 30
0.0
 10
95.817206
 20
125.298765
 30
0.0
  0
SPLINE
  5
2af
100
AcDbEntity
  8
Layer_1
 62
7
100
AcDbSpline
 70
8
 71
3
 72
8
 73
4
 74
0
 40
0
 40
0
 40
0
 40
0
 40
1
 40
1
 40
1
 40
1
 10
95.817206
 20
125.298765
 30
0.0
 10
95.650719
 20
125.414756
 30
0.0
 10
95.554791
 20
125.562414
 30
0.0
 10
95.529420
 20
125.741738
 30
0.0
  0
SPLINE
  5
2b0
100
AcDbEntity
  8
Layer_1
 62
7
100
AcDbSpline
 70
8
 71
3
 72
8
 73
4
 74
0
 40
0
 40
0
 40
0
 40
0
 40
1
 40
1
 40
1
 40
1
 10
95.529420
 20
125.741738
 30
0.0
 10
95.504047
 20
125.921062
 30
0.0
 10
95.562125
 20
126.112298
 30
0.0
 10
95.703655
 20
126.315441
 30
0.0
  0
SPLINE
  5
2b1
100
AcDbEntity
  8
Layer_1
 62
7
100
AcDbSpline
 70
8
 71
3
 72
8
 73
4
 74
0
 40
0
 40
0
 40
0
 40
0
 40
1
 40
1
 40
1
 40
1
 10
95.703655
 20
126.315441
 30
0.0
 10
95.795168
 20
126.446797
 30
0.0
 10
95.897009
 20
126.546569
 30
0.0
 10
96.009176
 20
126.614758
 30
0.0
  0
SPLINE
  5
2b2
100
AcDbEntity
  8
Layer_1
 62
7
100
AcDbSpline
 70
8
 71
3
 72
8
 73
4
 74
0
 40
0
 40
0
 40
0
 40
0
 40
1
 40
1
 40
1
 40
1
 10
96.009176
 20
126.614758
 30
0.0
 10
96.121342
 20
126.682947
 30
0.0
 10
96.239069
 20
126.710678
 30
0.0
 10
96.362359
 20
126.697954
 30
0.0
  0
SPLINE
  5
2b3
100
AcDbEntity
  8
Layer_1
 62
7
100
AcDbSpline
 70
8
 71
3
 72
8
 73
4
 74
0
 40
0
 40
0
 40
0
 40
0
 40
1
 40
1
 40
1
 40
1
 10
96.362359
 20
126.697954
 30
0.0
 10
96.485646
 20
126.685240
 30
0.0
 10
96.599604
 20
126.642416
 30
0.0
 10
96.704232
 20
126.569523
 30
0.0
  0
SPLINE
  5
2b4
100
AcDbEntity
  8
Layer_1
 62
7
100
AcDbSpline
 70
8
 71
3
 72
8
 73
4
 74
0
 40
0
 40
0
 40
0
 40
0
 40
1
 40
1
 40
1
 40
1
 10
96.704232
 20
126.569523
 30
0.0
 10
96.836350
 20
126.477476
 30
0.0
 10
96.921135
 20
126.368780
 30
0.0
 10
96.958588
 20
126.243431
 30
0.0
  0
SPLINE
  5
2b5
100
AcDbEntity
  8
Layer_1
 62
7
100
AcDbSpline
 70
8
 71
3
 72
8
 73
4
 74
0
 40
0
 40
0
 40
0
 40
0
 40
1
 40
1
 40
1
 40
1
 10
96.958588
 20
126.243431
 30
0.0
 10
96.996038
 20
126.118078
 30
0.0
 10
96.983770
 20
125.985680
 30
0.0
 10
96.921785
 20
125.846231
 30
0.0
  0
LWPOLYLINE
  5
2b6
100
AcDbEntity
  8
Layer_1
 62
7
100
AcDbPolyline
 90
2
 70
0
 10
96.450387
 20
125.560381
 30
0.0
 10
96.634793
 20
125.392774
 30
0.0
  0
SPLINE
  5
2b7
100
AcDbEntity
  8
Layer_1
 62
7
100
AcDbSpline
 70
8
 71
3
 72
8
 73
4
 74
0
 40
0
 40
0
 40
0
 40
0
 40
1
 40
1
 40
1
 40
1
 10
96.699766
 20
125.954965
 30
0.0
 10
96.737603
 20
126.049982
 30
0.0
 10
96.746640
 20
126.135005
 30
0.0
 10
96.726878
 20
126.210031
 30
0.0
  0
SPLINE
  5
2b8
100
AcDbEntity
  8
Layer_1
 62
7
100
AcDbSpline
 70
8
 71
3
 72
8
 73
4
 74
0
 40
0
 40
0
 40
0
 40
0
 40
1
 40
1
 40
1
 40
1
 10
96.726878
 20
126.210031
 30
0.0
 10
96.707113
 20
126.285056
 30
0.0
 10
96.662865
 20
126.346510
 30
0.0
 10
96.594134
 20
126.394395
 30
0.0
  0
SPLINE
  5
2b9
100
AcDbEntity
  8
Layer_1
 62
7
100
AcDbSpline
 70
8
 71
3
 72
8
 73
4
 74
0
 40
0
 40
0
 40
0
 40
0
 40
1
 40
1
 40
1
 40
1
 10
96.594134
 20
126.394395
 30
0.0
 10
96.490270
 20
126.466757
 30
0.0
 10
96.379943
 20
126.488318
 30
0.0
 10
96.263154
 20
126.459083
 30
0.0
  0
SPLINE
  5
2ba
100
AcDbEntity
  8
Layer_1
 62
7
100
AcDbSpline
 70
8
 71
3
 72
8
 73
4
 74
0
 40
0
 40
0
 40
0
 40
0
 40
1
 40
1
 40
1
 40
1
 10
96.263154
 20
126.459083
 30
0.0
 10
96.146363
 20
126.429834
 30
0.0
 10
96.031836
 20
126.334661
 30
0.0
 10
95.919572
 20
126.173522
 30
0.0
  0
SPLINE
  5
2bb
100
AcDbEntity
  8
Layer_1
 62
7
100
AcDbSpline
 70
8
 71
3
 72
8
 73
4
 74
0
 40
0
 40
0
 40
0
 40
0
 40
1
 40
1
 40
1
 40
1
 10
95.919572
 20
126.173522
 30
0.0
 10
95.805710
 20
126.010090
 30
0.0
 10
95.754287
 20
125.869519
 30
0.0
 10
95.765301
 20
125.751812
 30
0.0
  0
SPLINE
  5
2bc
100
AcDbEntity
  8
Layer_1
 62
7
100
AcDbSpline
 70
8
 71
3
 72
8
 73
4
 74
0
 40
0
 40
0
 40
0
 40
0
 40
1
 40
1
 40
1
 40
1
 10
95.765301
 20
125.751812
 30
0.0
 10
95.776312
 20
125.634104
 30
0.0
 10
95.832224
 20
125.540137
 30
0.0
 10
95.933033
 20
125.469901
 30
0.0
  0
SPLINE
  5
2bd
100
AcDbEntity
  8
Layer_1
 62
7
100
AcDbSpline
 70
8
 71
3
 72
8
 73
4
 74
0
 40
0
 40
0
 40
0
 40
0
 40
1
 40
1
 40
1
 40
1
 10
95.933033
 20
125.469901
 30
0.0
 10
96.013984
 20
125.413505
 30
0.0
 10
96.098863
 20
125.391239
 30
0.0
 10
96.187670
 20
125.403101
 30
0.0
  0
SPLINE
  5
2be
100
AcDbEntity
  8
Layer_1
 62
7
100
AcDbSpline
 70
8
 71
3
 72
8
 73
4
 74
0
 40
0
 40
0
 40
0
 40
0
 40
1
 40
1
 40
1
 40
1
 10
96.187670
 20
125.403101
 30
0.0
 10
96.276476
 20
125.414982
 30
0.0
 10
96.364048
 20
125.467393
 30
0.0
 10
96.450388
 20
125.560381
 30
0.0
  0
LWPOLYLINE
  5
2bf
100
AcDbEntity
  8
Layer_1
 62
7
100
AcDbPolyline
 90
2
 70
0
 10
96.921785
 20
125.846231
 30
0.0
 10
96.699766
 20
125.954965
 30
0.0
  0
SPLINE
  5
2c0
100
AcDbEntity
  8
Layer_1
 62
7
100
AcDbSpline
 70
8
 71
3
 72
8
 73
4
 74
0
 40
0
 40
0
 40
0
 40
0
 40
1
 40
1
 40
1
 40
1
 10
97.382445
 20
124.378970
 30
0.0
 10
97.260335
 20
124.375497
 30
0.0
 10
97.155516
 20
124.388106
 30
0.0
 10
97.067989
 20
124.416612
 30
0.0
  0
SPLINE
  5
2c1
100
AcDbEntity
  8
Layer_1
 62
7
100
AcDbSpline
 70
8
 71
3
 72
8
 73
4
 74
0
 40
0
 40
0
 40
0
 40
0
 40
1
 40
1
 40
1
 40
1
 10
97.067989
 20
124.416612
 30
0.0
 10
96.980460
 20
124.445131
 30
0.0
 10
96.898233
 20
124.490258
 30
0.0
 10
96.821305
 20
124.552032
 30
0.0
  0
SPLINE
  5
2c2
100
AcDbEntity
  8
Layer_1
 62
7
100
AcDbSpline
 70
8
 71
3
 72
8
 73
4
 74
0
 40
0
 40
0
 40
0
 40
0
 40
1
 40
1
 40
1
 40
1
 10
96.821305
 20
124.552032
 30
0.0
 10
96.694300
 20
124.654020
 30
0.0
 10
96.621602
 20
124.763425
 30
0.0
 10
96.603210
 20
124.880257
 30
0.0
  0
SPLINE
  5
2c3
100
AcDbEntity
  8
Layer_1
 62
7
100
AcDbSpline
 70
8
 71
3
 72
8
 73
4
 74
0
 40
0
 40
0
 40
0
 40
0
 40
1
 40
1
 40
1
 40
1
 10
96.603210
 20
124.880257
 30
0.0
 10
96.584817
 20
124.997089
 30
0.0
 10
96.614375
 20
125.103767
 30
0.0
 10
96.691885
 20
125.200291
 30
0.0
  0
SPLINE
  5
2c4
100
AcDbEntity
  8
Layer_1
 62
7
100
AcDbSpline
 70
8
 71
3
 72
8
 73
4
 74
0
 40
0
 40
0
 40
0
 40
0
 40
1
 40
1
 40
1
 40
1
 10
96.691885
 20
125.200291
 30
0.0
 10
96.737341
 20
125.256896
 30
0.0
 10
96.791745
 20
125.298261
 30
0.0
 10
96.855099
 20
125.324383
 30
0.0
  0
SPLINE
  5
2c5
100
AcDbEntity
  8
Layer_1
 62
7
100
AcDbSpline
 70
8
 71
3
 72
8
 73
4
 74
0
 40
0
 40
0
 40
0
 40
0
 40
1
 40
1
 40
1
 40
1
 10
96.855099
 20
125.324383
 30
0.0
 10
96.918451
 20
125.350506
 30
0.0
 10
96.982356
 20
125.360962
 30
0.0
 10
97.046815
 20
125.355751
 30
0.0
  0
SPLINE
  5
2c6
100
AcDbEntity
  8
Layer_1
 62
7
100
AcDbSpline
 70
8
 71
3
 72
8
 73
4
 74
0
 40
0
 40
0
 40
0
 40
0
 40
1
 40
1
 40
1
 40
1
 10
97.046815
 20
125.355751
 30
0.0
 10
97.111272
 20
125.350541
 30
0.0
 10
97.175456
 20
125.334214
 30
0.0
 10
97.239365
 20
125.306775
 30
0.0
  0
SPLINE
  5
2c7
100
AcDbEntity
  8
Layer_1
 62
7
100
AcDbSpline
 70
8
 71
3
 72
8
 73
4
 74
0
 40
0
 40
0
 40
0
 40
0
 40
1
 40
1
 40
1
 40
1
 10
97.239365
 20
125.306775
 30
0.0
 10
97.285987
 20
125.286037
 30
0.0
 10
97.351914
 20
125.249222
 30
0.0
 10
97.437145
 20
125.196300
 30
0.0
  0
SPLINE
  5
2c8
100
AcDbEntity
  8
Layer_1
 62
7
100
AcDbSpline
 70
8
 71
3
 72
8
 73
4
 74
0
 40
0
 40
0
 40
0
 40
0
 40
1
 40
1
 40
1
 40
1
 10
97.437145
 20
125.196300
 30
0.0
 10
97.610507
 20
125.088125
 30
0.0
 10
97.745053
 20
125.017087
 30
0.0
 10
97.840786
 20
124.983190
 30
0.0
  0
SPLINE
  5
2c9
100
AcDbEntity
  8
Layer_1
 62
7
100
AcDbSpline
 70
8
 71
3
 72
8
 73
4
 74
0
 40
0
 40
0
 40
0
 40
0
 40
1
 40
1
 40
1
 40
1
 10
97.840786
 20
124.983190
 30
0.0
 10
97.863073
 20
125.009452
 30
0.0
 10
97.877131
 20
125.026223
 30
0.0
 10
97.882960
 20
125.033480
 30
0.0
  0
SPLINE
  5
2ca
100
AcDbEntity
  8
Layer_1
 62
7
100
AcDbSpline
 70
8
 71
3
 72
8
 73
4
 74
0
 40
0
 40
0
 40
0
 40
0
 40
1
 40
1
 40
1
 40
1
 10
97.882960
 20
125.033480
 30
0.0
 10
97.947063
 20
125.113309
 30
0.0
 10
97.973722
 20
125.184417
 30
0.0
 10
97.962936
 20
125.246798
 30
0.0
  0
SPLINE
  5
2cb
100
AcDbEntity
  8
Layer_1
 62
7
100
AcDbSpline
 70
8
 71
3
 72
8
 73
4
 74
0
 40
0
 40
0
 40
0
 40
0
 40
1
 40
1
 40
1
 40
1
 10
97.962936
 20
125.246798
 30
0.0
 10
97.948409
 20
125.331279
 30
0.0
 10
97.891794
 20
125.413148
 30
0.0
 10
97.793095
 20
125.492404
 30
0.0
  0
SPLINE
  5
2cc
100
AcDbEntity
  8
Layer_1
 62
7
100
AcDbSpline
 70
8
 71
3
 72
8
 73
4
 74
0
 40
0
 40
0
 40
0
 40
0
 40
1
 40
1
 40
1
 40
1
 10
97.793095
 20
125.492404
 30
0.0
 10
97.700925
 20
125.566415
 30
0.0
 10
97.619920
 20
125.604904
 30
0.0
 10
97.550081
 20
125.607867
 30
0.0
  0
SPLINE
  5
2cd
100
AcDbEntity
  8
Layer_1
 62
7
100
AcDbSpline
 70
8
 71
3
 72
8
 73
4
 74
0
 40
0
 40
0
 40
0
 40
0
 40
1
 40
1
 40
1
 40
1
 10
97.550081
 20
125.607867
 30
0.0
 10
97.480239
 20
125.610994
 30
0.0
 10
97.401869
 20
125.579765
 30
0.0
 10
97.314970
 20
125.514650
 30
0.0
  0
LWPOLYLINE
  5
2ce
100
AcDbEntity
  8
Layer_1
 62
7
100
AcDbPolyline
 90
2
 70
0
 10
96.450388
 20
125.560381
 30
0.0
 10
96.450387
 20
125.560381
 30
0.0
  0
SPLINE
  5
2cf
100
AcDbEntity
  8
Layer_1
 62
7
100
AcDbSpline
 70
8
 71
3
 72
8
 73
4
 74
0
 40
0
 40
0
 40
0
 40
0
 40
1
 40
1
 40
1
 40
1
 10
97.144355
 20
125.694627
 30
0.0
 10
97.227625
 20
125.762650
 30
0.0
 10
97.309470
 20
125.805852
 30
0.0
 10
97.389890
 20
125.824239
 30
0.0
  0
SPLINE
  5
2d0
100
AcDbEntity
  8
Layer_1
 62
7
100
AcDbSpline
 70
8
 71
3
 72
8
 73
4
 74
0
 40
0
 40
0
 40
0
 40
0
 40
1
 40
1
 40
1
 40
1
 10
97.389890
 20
125.824239
 30
0.0
 10
97.470307
 20
125.842615
 30
0.0
 10
97.559182
 20
125.835112
 30
0.0
 10
97.656514
 20
125.801729
 30
0.0
  0
SPLINE
  5
2d1
100
AcDbEntity
  8
Layer_1
 62
7
100
AcDbSpline
 70
8
 71
3
 72
8
 73
4
 74
0
 40
0
 40
0
 40
0
 40
0
 40
1
 40
1
 40
1
 40
1
 10
97.656514
 20
125.801729
 30
0.0
 10
97.753843
 20
125.768346
 30
0.0
 10
97.852221
 20
125.711718
 30
0.0
 10
97.951649
 20
125.631878
 30
0.0
  0
SPLINE
  5
2d2
100
AcDbEntity
  8
Layer_1
 62
7
100
AcDbSpline
 70
8
 71
3
 72
8
 73
4
 74
0
 40
0
 40
0
 40
0
 40
0
 40
1
 40
1
 40
1
 40
1
 10
97.951649
 20
125.631878
 30
0.0
 10
98.050348
 20
125.552621
 30
0.0
 10
98.121217
 20
125.476613
 30
0.0
 10
98.164258
 20
125.403855
 30
0.0
  0
SPLINE
  5
2d3
100
AcDbEntity
  8
Layer_1
 62
7
100
AcDbSpline
 70
8
 71
3
 72
8
 73
4
 74
0
 40
0
 40
0
 40
0
 40
0
 40
1
 40
1
 40
1
 40
1
 10
98.164258
 20
125.403855
 30
0.0
 10
98.207296
 20
125.331095
 30
0.0
 10
98.229197
 20
125.265459
 30
0.0
 10
98.229964
 20
125.206951
 30
0.0
  0
SPLINE
  5
2d4
100
AcDbEntity
  8
Layer_1
 62
7
100
AcDbSpline
 70
8
 71
3
 72
8
 73
4
 74
0
 40
0
 40
0
 40
0
 40
0
 40
1
 40
1
 40
1
 40
1
 10
98.229964
 20
125.206951
 30
0.0
 10
98.230728
 20
125.148443
 30
0.0
 10
98.215354
 20
125.087673
 30
0.0
 10
98.183842
 20
125.024642
 30
0.0
  0
SPLINE
  5
2d5
100
AcDbEntity
  8
Layer_1
 62
7
100
AcDbSpline
 70
8
 71
3
 72
8
 73
4
 74
0
 40
0
 40
0
 40
0
 40
0
 40
1
 40
1
 40
1
 40
1
 10
98.183842
 20
125.024642
 30
0.0
 10
98.163562
 20
124.986015
 30
0.0
 10
98.118460
 20
124.923154
 30
0.0
 10
98.048528
 20
124.836068
 30
0.0
  0
LWPOLYLINE
  5
2d6
100
AcDbEntity
  8
Layer_1
 62
7
100
AcDbPolyline
 90
2
 70
0
 10
97.314970
 20
125.514650
 30
0.0
 10
97.144355
 20
125.694627
 30
0.0
  0
SPLINE
  5
2d7
100
AcDbEntity
  8
Layer_1
 62
7
100
AcDbSpline
 70
8
 71
3
 72
8
 73
4
 74
0
 40
0
 40
0
 40
0
 40
0
 40
1
 40
1
 40
1
 40
1
 10
97.838729
 20
124.574802
 30
0.0
 10
97.692452
 20
124.392640
 30
0.0
 10
97.604110
 20
124.274078
 30
0.0
 10
97.573702
 20
124.219117
 30
0.0
  0
SPLINE
  5
2d8
100
AcDbEntity
  8
Layer_1
 62
7
100
AcDbSpline
 70
8
 71
3
 72
8
 73
4
 74
0
 40
0
 40
0
 40
0
 40
0
 40
1
 40
1
 40
1
 40
1
 10
97.573702
 20
124.219117
 30
0.0
 10
97.543293
 20
124.164152
 30
0.0
 10
97.522652
 20
124.104629
 30
0.0
 10
97.511778
 20
124.040543
 30
0.0
  0
LWPOLYLINE
  5
2d9
100
AcDbEntity
  8
Layer_1
 62
7
100
AcDbPolyline
 90
2
 70
0
 10
98.048528
 20
124.836068
 30
0.0
 10
97.838729
 20
124.574802
 30
0.0
  0
SPLINE
  5
2da
100
AcDbEntity
  8
Layer_1
 62
7
100
AcDbSpline
 70
8
 71
3
 72
8
 73
4
 74
0
 40
0
 40
0
 40
0
 40
0
 40
1
 40
1
 40
1
 40
1
 10
97.307120
 20
124.204885
 30
0.0
 10
97.319434
 20
124.261847
 30
0.0
 10
97.344542
 20
124.319872
 30
0.0
 10
97.382445
 20
124.378964
 30
0.0
  0
LWPOLYLINE
  5
2db
100
AcDbEntity
  8
Layer_1
 62
7
100
AcDbPolyline
 90
2
 70
0
 10
97.511778
 20
124.040543
 30
0.0
 10
97.307120
 20
124.204885
 30
0.0
  0
SPLINE
  5
2dc
100
AcDbEntity
  8
Layer_1
 62
7
100
AcDbSpline
 70
8
 71
3
 72
8
 73
4
 74
0
 40
0
 40
0
 40
0
 40
0
 40
1
 40
1
 40
1
 40
1
 10
97.717529
 20
124.829704
 30
0.0
 10
97.623094
 20
124.857772
 30
0.0
 10
97.496597
 20
124.918777
 30
0.0
 10
97.338035
 20
125.012682
 30
0.0
  0
SPLINE
  5
2dd
100
AcDbEntity
  8
Layer_1
 62
7
100
AcDbSpline
 70
8
 71
3
 72
8
 73
4
 74
0
 40
0
 40
0
 40
0
 40
0
 40
1
 40
1
 40
1
 40
1
 10
97.338035
 20
125.012682
 30
0.0
 10
97.248153
 20
125.065757
 30
0.0
 10
97.180693
 20
125.098442
 30
0.0
 10
97.135654
 20
125.110735
 30
0.0
  0
SPLINE
  5
2de
100
AcDbEntity
  8
Layer_1
 62
7
100
AcDbSpline
 70
8
 71
3
 72
8
 73
4
 74
0
 40
0
 40
0
 40
0
 40
0
 40
1
 40
1
 40
1
 40
1
 10
97.135654
 20
125.110735
 30
0.0
 10
97.090614
 20
125.123032
 30
0.0
 10
97.047804
 20
125.122476
 30
0.0
 10
97.007224
 20
125.108998
 30
0.0
  0
SPLINE
  5
2df
100
AcDbEntity
  8
Layer_1
 62
7
100
AcDbSpline
 70
8
 71
3
 72
8
 73
4
 74
0
 40
0
 40
0
 40
0
 40
0
 40
1
 40
1
 40
1
 40
1
 10
97.007224
 20
125.108998
 30
0.0
 10
96.966644
 20
125.095625
 30
0.0
 10
96.932659
 20
125.071885
 30
0.0
 10
96.905269
 20
125.037777
 30
0.0
  0
SPLINE
  5
2e0
100
AcDbEntity
  8
Layer_1
 62
7
100
AcDbSpline
 70
8
 71
3
 72
8
 73
4
 74
0
 40
0
 40
0
 40
0
 40
0
 40
1
 40
1
 40
1
 40
1
 10
96.905269
 20
125.037777
 30
0.0
 10
96.863308
 20
124.985521
 30
0.0
 10
96.848118
 20
124.926096
 30
0.0
 10
96.859698
 20
124.859502
 30
0.0
  0
SPLINE
  5
2e1
100
AcDbEntity
  8
Layer_1
 62
7
100
AcDbSpline
 70
8
 71
3
 72
8
 73
4
 74
0
 40
0
 40
0
 40
0
 40
0
 40
1
 40
1
 40
1
 40
1
 10
96.859698
 20
124.859502
 30
0.0
 10
96.871276
 20
124.792903
 30
0.0
 10
96.915168
 20
124.729011
 30
0.0
 10
96.991371
 20
124.667818
 30
0.0
  0
SPLINE
  5
2e2
100
AcDbEntity
  8
Layer_1
 62
7
100
AcDbSpline
 70
8
 71
3
 72
8
 73
4
 74
0
 40
0
 40
0
 40
0
 40
0
 40
1
 40
1
 40
1
 40
1
 10
96.991371
 20
124.667818
 30
0.0
 10
97.066848
 20
124.607212
 30
0.0
 10
97.147237
 20
124.569814
 30
0.0
 10
97.232538
 20
124.555630
 30
0.0
  0
SPLINE
  5
2e3
100
AcDbEntity
  8
Layer_1
 62
7
100
AcDbSpline
 70
8
 71
3
 72
8
 73
4
 74
0
 40
0
 40
0
 40
0
 40
0
 40
1
 40
1
 40
1
 40
1
 10
97.232538
 20
124.555630
 30
0.0
 10
97.317839
 20
124.541458
 30
0.0
 10
97.397298
 20
124.551948
 30
0.0
 10
97.470916
 20
124.587137
 30
0.0
  0
SPLINE
  5
2e4
100
AcDbEntity
  8
Layer_1
 62
7
100
AcDbSpline
 70
8
 71
3
 72
8
 73
4
 74
0
 40
0
 40
0
 40
0
 40
0
 40
1
 40
1
 40
1
 40
1
 10
97.470916
 20
124.587137
 30
0.0
 10
97.527510
 20
124.614510
 30
0.0
 10
97.590483
 20
124.671375
 30
0.0
 10
97.659835
 20
124.757735
 30
0.0
  0
LWPOLYLINE
  5
2e5
100
AcDbEntity
  8
Layer_1
 62
7
100
AcDbPolyline
 90
2
 70
0
 10
97.382445
 20
124.378964
 30
0.0
 10
97.382445
 20
124.378970
 30
0.0
  0
SPLINE
  5
2e6
100
AcDbEntity
  8
Layer_1
 62
7
100
AcDbSpline
 70
8
 71
3
 72
8
 73
4
 74
0
 40
0
 40
0
 40
0
 40
0
 40
1
 40
1
 40
1
 40
1
 10
84.860079
 20
126.221263
 30
0.0
 10
84.860079
 20
125.313719
 30
0.0
 10
84.124368
 20
124.578009
 30
0.0
 10
83.216824
 20
124.578009
 30
0.0
  0
SPLINE
  5
2e7
100
AcDbEntity
  8
Layer_1
 62
7
100
AcDbSpline
 70
8
 71
3
 72
8
 73
4
 74
0
 40
0
 40
0
 40
0
 40
0
 40
1
 40
1
 40
1
 40
1
 10
83.216824
 20
124.578009
 30
0.0
 10
82.309280
 20
124.578009
 30
0.0
 10
81.573570
 20
125.313719
 30
0.0
 10
81.573570
 20
126.221263
 30
0.0
  0
SPLINE
  5
2e8
100
AcDbEntity
  8
Layer_1
 62
7
100
AcDbSpline
 70
8
 71
3
 72
8
 73
4
 74
0
 40
0
 40
0
 40
0
 40
0
 40
1
 40
1
 40
1
 40
1
 10
81.573570
 20
126.221263
 30
0.0
 10
81.573570
 20
127.128807
 30
0.0
 10
82.309280
 20
127.864517
 30
0.0
 10
83.216824
 20
127.864517
 30
0.0
  0
SPLINE
  5
2e9
100
AcDbEntity
  8
Layer_1
 62
7
100
AcDbSpline
 70
8
 71
3
 72
8
 73
4
 74
0
 40
0
 40
0
 40
0
 40
0
 40
1
 40
1
 40
1
 40
1
 10
83.216824
 20
127.864517
 30
0.0
 10
84.124368
 20
127.864517
 30
0.0
 10
84.860079
 20
127.128807
 30
0.0
 10
84.860079
 20
126.221263
 30
0.0
  0
LWPOLYLINE
  5
2ea
100
AcDbEntity
  8
Layer_1
 62
7
100
AcDbPolyline
 90
2
 70
0
 10
97.659835
 20
124.757735
 30
0.0
 10
97.717529
 20
124.829704
 30
0.0
  0
LWPOLYLINE
  5
2eb
100
AcDbEntity
  8
Layer_1
 62
7
100
AcDbPolyline
 90
2
 70
0
 10
84.860079
 20
126.221263
 30
0.0
 10
84.860079
 20
126.221263
 30
0.0
  0
SPLINE
  5
2ec
100
AcDbEntity
  8
Layer_1
 62
7
100
AcDbSpline
 70
8
 71
3
 72
8
 73
4
 74
0
 40
0
 40
0
 40
0
 40
0
 40
1
 40
1
 40
1
 40
1
 10
96.963132
 20
103.292820
 30
0.0
 10
96.895861
 20
103.359399
 30
0.0
 10
96.827585
 20
103.403594
 30
0.0
 10
96.758298
 20
103.425404
 30
0.0
  0
SPLINE
  5
2ed
100
AcDbEntity
  8
Layer_1
 62
7
100
AcDbSpline
 70
8
 71
3
 72
8
 73
4
 74
0
 40
0
 40
0
 40
0
 40
0
 40
1
 40
1
 40
1
 40
1
 10
96.758298
 20
103.425404
 30
0.0
 10
96.689015
 20
103.447216
 30
0.0
 10
96.609380
 20
103.446036
 30
0.0
 10
96.519394
 20
103.421832
 30
0.0
  0
SPLINE
  5
2ee
100
AcDbEntity
  8
Layer_1
 62
7
100
AcDbSpline
 70
8
 71
3
 72
8
 73
4
 74
0
 40
0
 40
0
 40
0
 40
0
 40
1
 40
1
 40
1
 40
1
 10
96.519394
 20
103.421832
 30
0.0
 10
96.429408
 20
103.397628
 30
0.0
 10
96.342653
 20
103.352262
 30
0.0
 10
96.259131
 20
103.285689
 30
0.0
  0
SPLINE
  5
2ef
100
AcDbEntity
  8
Layer_1
 62
7
100
AcDbSpline
 70
8
 71
3
 72
8
 73
4
 74
0
 40
0
 40
0
 40
0
 40
0
 40
1
 40
1
 40
1
 40
1
 10
96.259131
 20
103.285689
 30
0.0
 10
96.184962
 20
103.226575
 30
0.0
 10
96.128265
 20
103.163357
 30
0.0
 10
96.089044
 20
103.096038
 30
0.0
  0
SPLINE
  5
2f0
100
AcDbEntity
  8
Layer_1
 62
7
100
AcDbSpline
 70
8
 71
3
 72
8
 73
4
 74
0
 40
0
 40
0
 40
0
 40
0
 40
1
 40
1
 40
1
 40
1
 10
96.089044
 20
103.096038
 30
0.0
 10
96.049823
 20
103.028723
 30
0.0
 10
96.031659
 20
102.964803
 30
0.0
 10
96.034548
 20
102.904277
 30
0.0
  0
SPLINE
  5
2f1
100
AcDbEntity
  8
Layer_1
 62
7
100
AcDbSpline
 70
8
 71
3
 72
8
 73
4
 74
0
 40
0
 40
0
 40
0
 40
0
 40
1
 40
1
 40
1
 40
1
 10
96.034548
 20
102.904277
 30
0.0
 10
96.037418
 20
102.843757
 30
0.0
 10
96.056999
 20
102.790779
 30
0.0
 10
96.093209
 20
102.745339
 30
0.0
  0
SPLINE
  5
2f2
100
AcDbEntity
  8
Layer_1
 62
7
100
AcDbSpline
 70
8
 71
3
 72
8
 73
4
 74
0
 40
0
 40
0
 40
0
 40
0
 40
1
 40
1
 40
1
 40
1
 10
96.093209
 20
102.745339
 30
0.0
 10
96.129959
 20
102.699236
 30
0.0
 10
96.175408
 20
102.669627
 30
0.0
 10
96.229563
 20
102.656517
 30
0.0
  0
SPLINE
  5
2f3
100
AcDbEntity
  8
Layer_1
 62
7
100
AcDbSpline
 70
8
 71
3
 72
8
 73
4
 74
0
 40
0
 40
0
 40
0
 40
0
 40
1
 40
1
 40
1
 40
1
 10
96.229563
 20
102.656517
 30
0.0
 10
96.283718
 20
102.643410
 30
0.0
 10
96.350852
 20
102.649661
 30
0.0
 10
96.430965
 20
102.675268
 30
0.0
  0
SPLINE
  5
2f4
100
AcDbEntity
  8
Layer_1
 62
7
100
AcDbSpline
 70
8
 71
3
 72
8
 73
4
 74
0
 40
0
 40
0
 40
0
 40
0
 40
1
 40
1
 40
1
 40
1
 10
96.430965
 20
102.675268
 30
0.0
 10
96.482638
 20
102.691308
 30
0.0
 10
96.588875
 20
102.736933
 30
0.0
 10
96.749679
 20
102.812103
 30
0.0
  0
SPLINE
  5
2f5
100
AcDbEntity
  8
Layer_1
 62
7
100
AcDbSpline
 70
8
 71
3
 72
8
 73
4
 74
0
 40
0
 40
0
 40
0
 40
0
 40
1
 40
1
 40
1
 40
1
 10
96.749679
 20
102.812103
 30
0.0
 10
96.910485
 20
102.887276
 30
0.0
 10
97.029398
 20
102.932062
 30
0.0
 10
97.106421
 20
102.946467
 30
0.0
  0
SPLINE
  5
2f6
100
AcDbEntity
  8
Layer_1
 62
7
100
AcDbSpline
 70
8
 71
3
 72
8
 73
4
 74
0
 40
0
 40
0
 40
0
 40
0
 40
1
 40
1
 40
1
 40
1
 10
97.106421
 20
102.946467
 30
0.0
 10
97.205872
 20
102.965632
 30
0.0
 10
97.294506
 20
102.961710
 30
0.0
 10
97.372323
 20
102.934668
 30
0.0
  0
SPLINE
  5
2f7
100
AcDbEntity
  8
Layer_1
 62
7
100
AcDbSpline
 70
8
 71
3
 72
8
 73
4
 74
0
 40
0
 40
0
 40
0
 40
0
 40
1
 40
1
 40
1
 40
1
 10
97.372323
 20
102.934668
 30
0.0
 10
97.450137
 20
102.907625
 30
0.0
 10
97.515941
 20
102.860378
 30
0.0
 10
97.569729
 20
102.792890
 30
0.0
  0
SPLINE
  5
2f8
100
AcDbEntity
  8
Layer_1
 62
7
100
AcDbSpline
 70
8
 71
3
 72
8
 73
4
 74
0
 40
0
 40
0
 40
0
 40
0
 40
1
 40
1
 40
1
 40
1
 10
97.569729
 20
102.792890
 30
0.0
 10
97.628843
 20
102.718721
 30
0.0
 10
97.663051
 20
102.632622
 30
0.0
 10
97.672347
 20
102.534587
 30
0.0
  0
SPLINE
  5
2f9
100
AcDbEntity
  8
Layer_1
 62
7
100
AcDbSpline
 70
8
 71
3
 72
8
 73
4
 74
0
 40
0
 40
0
 40
0
 40
0
 40
1
 40
1
 40
1
 40
1
 10
97.672347
 20
102.534587
 30
0.0
 10
97.681626
 20
102.436555
 30
0.0
 10
97.659176
 20
102.338616
 30
0.0
 10
97.604957
 20
102.240763
 30
0.0
  0
SPLINE
  5
2fa
100
AcDbEntity
  8
Layer_1
 62
7
100
AcDbSpline
 70
8
 71
3
 72
8
 73
4
 74
0
 40
0
 40
0
 40
0
 40
0
 40
1
 40
1
 40
1
 40
1
 10
97.604957
 20
102.240763
 30
0.0
 10
97.550732
 20
102.142916
 30
0.0
 10
97.474175
 20
102.054582
 30
0.0
 10
97.375285
 20
101.975760
 30
0.0
  0
SPLINE
  5
2fb
100
AcDbEntity
  8
Layer_1
 62
7
100
AcDbSpline
 70
8
 71
3
 72
8
 73
4
 74
0
 40
0
 40
0
 40
0
 40
0
 40
1
 40
1
 40
1
 40
1
 10
97.375285
 20
101.975760
 30
0.0
 10
97.266370
 20
101.888954
 30
0.0
 10
97.156338
 20
101.829936
 30
0.0
 10
97.045187
 20
101.798709
 30
0.0
  0
SPLINE
  5
2fc
100
AcDbEntity
  8
Layer_1
 62
7
100
AcDbSpline
 70
8
 71
3
 72
8
 73
4
 74
0
 40
0
 40
0
 40
0
 40
0
 40
1
 40
1
 40
1
 40
1
 10
97.045187
 20
101.798709
 30
0.0
 10
96.934039
 20
101.767489
 30
0.0
 10
96.828918
 20
101.768127
 30
0.0
 10
96.729827
 20
101.800623
 30
0.0
  0
SPLINE
  5
2fd
100
AcDbEntity
  8
Layer_1
 62
7
100
AcDbSpline
 70
8
 71
3
 72
8
 73
4
 74
0
 40
0
 40
0
 40
0
 40
0
 40
1
 40
1
 40
1
 40
1
 10
96.729827
 20
101.800623
 30
0.0
 10
96.630737
 20
101.833099
 30
0.0
 10
96.545171
 20
101.891103
 30
0.0
 10
96.473129
 20
101.974635
 30
0.0
  0
LWPOLYLINE
  5
2fe
100
AcDbEntity
  8
Layer_1
 62
7
100
AcDbPolyline
 90
2
 70
0
 10
97.133766
 20
103.455045
 30
0.0
 10
96.963132
 20
103.292820
 30
0.0
  0
SPLINE
  5
2ff
100
AcDbEntity
  8
Layer_1
 62
7
100
AcDbSpline
 70
8
 71
3
 72
8
 73
4
 74
0
 40
0
 40
0
 40
0
 40
0
 40
1
 40
1
 40
1
 40
1
 10
96.648369
 20
102.137252
 30
0.0
 10
96.732420
 20
102.052362
 30
0.0
 10
96.822250
 20
102.009232
 30
0.0
 10
96.917861
 20
102.007854
 30
0.0
  0
SPLINE
  5
300
100
AcDbEntity
  8
Layer_1
 62
7
100
AcDbSpline
 70
8
 71
3
 72
8
 73
4
 74
0
 40
0
 40
0
 40
0
 40
0
 40
1
 40
1
 40
1
 40
1
 10
96.917861
 20
102.007854
 30
0.0
 10
97.013473
 20
102.006578
 30
0.0
 10
97.117739
 20
102.050797
 30
0.0
 10
97.230663
 20
102.140799
 30
0.0
  0
SPLINE
  5
301
100
AcDbEntity
  8
Layer_1
 62
7
100
AcDbSpline
 70
8
 71
3
 72
8
 73
4
 74
0
 40
0
 40
0
 40
0
 40
0
 40
1
 40
1
 40
1
 40
1
 10
97.230663
 20
102.140799
 30
0.0
 10
97.348265
 20
102.234532
 30
0.0
 10
97.416783
 20
102.324380
 30
0.0
 10
97.436223
 20
102.410348
 30
0.0
  0
SPLINE
  5
302
100
AcDbEntity
  8
Layer_1
 62
7
100
AcDbSpline
 70
8
 71
3
 72
8
 73
4
 74
0
 40
0
 40
0
 40
0
 40
0
 40
1
 40
1
 40
1
 40
1
 10
97.436223
 20
102.410348
 30
0.0
 10
97.455676
 20
102.496323
 30
0.0
 10
97.441134
 20
102.569710
 30
0.0
 10
97.392688
 20
102.630514
 30
0.0
  0
SPLINE
  5
303
100
AcDbEntity
  8
Layer_1
 62
7
100
AcDbSpline
 70
8
 71
3
 72
8
 73
4
 74
0
 40
0
 40
0
 40
0
 40
0
 40
1
 40
1
 40
1
 40
1
 10
97.392688
 20
102.630514
 30
0.0
 10
97.350616
 20
102.683301
 30
0.0
 10
97.296955
 20
102.711555
 30
0.0
 10
97.231706
 20
102.715277
 30
0.0
  0
SPLINE
  5
304
100
AcDbEntity
  8
Layer_1
 62
7
100
AcDbSpline
 70
8
 71
3
 72
8
 73
4
 74
0
 40
0
 40
0
 40
0
 40
0
 40
1
 40
1
 40
1
 40
1
 10
97.231706
 20
102.715277
 30
0.0
 10
97.167126
 20
102.719518
 30
0.0
 10
97.041577
 20
102.676556
 30
0.0
 10
96.855058
 20
102.586353
 30
0.0
  0
SPLINE
  5
305
100
AcDbEntity
  8
Layer_1
 62
7
100
AcDbSpline
 70
8
 71
3
 72
8
 73
4
 74
0
 40
0
 40
0
 40
0
 40
0
 40
1
 40
1
 40
1
 40
1
 10
96.855058
 20
102.586353
 30
0.0
 10
96.668539
 20
102.496151
 30
0.0
 10
96.535228
 20
102.440978
 30
0.0
 10
96.455124
 20
102.420840
 30
0.0
  0
SPLINE
  5
306
100
AcDbEntity
  8
Layer_1
 62
7
100
AcDbSpline
 70
8
 71
3
 72
8
 73
4
 74
0
 40
0
 40
0
 40
0
 40
0
 40
1
 40
1
 40
1
 40
1
 10
96.455124
 20
102.420840
 30
0.0
 10
96.338175
 20
102.392108
 30
0.0
 10
96.235220
 20
102.391725
 30
0.0
 10
96.146264
 20
102.419565
 30
0.0
  0
SPLINE
  5
307
100
AcDbEntity
  8
Layer_1
 62
7
100
AcDbSpline
 70
8
 71
3
 72
8
 73
4
 74
0
 40
0
 40
0
 40
0
 40
0
 40
1
 40
1
 40
1
 40
1
 10
96.146264
 20
102.419565
 30
0.0
 10
96.057308
 20
102.447564
 30
0.0
 10
95.981407
 20
102.500966
 30
0.0
 10
95.918563
 20
102.579813
 30
0.0
  0
SPLINE
  5
308
100
AcDbEntity
  8
Layer_1
 62
7
100
AcDbSpline
 70
8
 71
3
 72
8
 73
4
 74
0
 40
0
 40
0
 40
0
 40
0
 40
1
 40
1
 40
1
 40
1
 10
95.918563
 20
102.579813
 30
0.0
 10
95.856254
 20
102.657993
 30
0.0
 10
95.819925
 20
102.749501
 30
0.0
 10
95.809570
 20
102.854341
 30
0.0
  0
SPLINE
  5
309
100
AcDbEntity
  8
Layer_1
 62
7
100
AcDbSpline
 70
8
 71
3
 72
8
 73
4
 74
0
 40
0
 40
0
 40
0
 40
0
 40
1
 40
1
 40
1
 40
1
 10
95.809570
 20
102.854341
 30
0.0
 10
95.799206
 20
102.959181
 30
0.0
 10
95.820668
 20
103.064229
 30
0.0
 10
95.873898
 20
103.169487
 30
0.0
  0
SPLINE
  5
30a
100
AcDbEntity
  8
Layer_1
 62
7
100
AcDbSpline
 70
8
 71
3
 72
8
 73
4
 74
0
 40
0
 40
0
 40
0
 40
0
 40
1
 40
1
 40
1
 40
1
 10
95.873898
 20
103.169487
 30
0.0
 10
95.927135
 20
103.274744
 30
0.0
 10
96.006205
 20
103.369179
 30
0.0
 10
96.111109
 20
103.452794
 30
0.0
  0
SPLINE
  5
30b
100
AcDbEntity
  8
Layer_1
 62
7
100
AcDbSpline
 70
8
 71
3
 72
8
 73
4
 74
0
 40
0
 40
0
 40
0
 40
0
 40
1
 40
1
 40
1
 40
1
 10
96.111109
 20
103.452794
 30
0.0
 10
96.244079
 20
103.558772
 30
0.0
 10
96.370945
 20
103.628202
 30
0.0
 10
96.491705
 20
103.661077
 30
0.0
  0
SPLINE
  5
30c
100
AcDbEntity
  8
Layer_1
 62
7
100
AcDbSpline
 70
8
 71
3
 72
8
 73
4
 74
0
 40
0
 40
0
 40
0
 40
0
 40
1
 40
1
 40
1
 40
1
 10
96.491705
 20
103.661077
 30
0.0
 10
96.612467
 20
103.693952
 30
0.0
 10
96.729426
 20
103.691851
 30
0.0
 10
96.842586
 20
103.654731
 30
0.0
  0
SPLINE
  5
30d
100
AcDbEntity
  8
Layer_1
 62
7
100
AcDbSpline
 70
8
 71
3
 72
8
 73
4
 74
0
 40
0
 40
0
 40
0
 40
0
 40
1
 40
1
 40
1
 40
1
 10
96.842586
 20
103.654731
 30
0.0
 10
96.955746
 20
103.617628
 30
0.0
 10
97.052808
 20
103.551030
 30
0.0
 10
97.133766
 20
103.454933
 30
0.0
  0
LWPOLYLINE
  5
30e
100
AcDbEntity
  8
Layer_1
 62
7
100
AcDbPolyline
 90
2
 70
0
 10
96.473129
 20
101.974635
 30
0.0
 10
96.648369
 20
102.137252
 30
0.0
  0
LWPOLYLINE
  5
30f
100
AcDbEntity
  8
Layer_1
 62
7
100
AcDbPolyline
 90
2
 70
0
 10
97.133766
 20
103.454933
 30
0.0
 10
97.133766
 20
103.455045
 30
0.0
  0
LWPOLYLINE
  5
310
100
AcDbEntity
  8
Layer_1
 62
7
100
AcDbPolyline
 90
13
 70
0
 10
95.304076
 20
102.788642
 30
0.0
 10
96.338950
 20
101.220350
 30
0.0
 10
96.131413
 20
101.083403
 30
0.0
 10
95.706452
 20
101.727407
 30
0.0
 10
94.891281
 20
101.189500
 30
0.0
 10
95.316245
 20
100.545496
 30
0.0
 10
95.108707
 20
100.408546
 30
0.0
 10
94.073833
 20
101.976838
 30
0.0
 10
94.281370
 20
102.113785
 30
0.0
 10
94.769157
 20
101.374571
 30
0.0
 10
95.584328
 20
101.912479
 30
0.0
 10
95.096538
 20
102.651695
 30
0.0
 10
95.304076
 20
102.788642
 30
0.0
  0
LWPOLYLINE
  5
311
100
AcDbEntity
  8
Layer_1
 62
7
100
AcDbPolyline
 90
13
 70
0
 10
93.709628
 20
101.759989
 30
0.0
 10
94.593547
 20
100.101922
 30
0.0
 10
94.374131
 20
99.984951
 30
0.0
 10
94.011157
 20
100.665822
 30
0.0
 10
93.149325
 20
100.206376
 30
0.0
 10
93.512299
 20
99.525505
 30
0.0
 10
93.292882
 20
99.408534
 30
0.0
 10
92.408960
 20
101.066601
 30
0.0
 10
92.628376
 20
101.183572
 30
0.0
 10
93.045014
 20
100.402041
 30
0.0
 10
93.906846
 20
100.861487
 30
0.0
 10
93.490212
 20
101.643018
 30
0.0
 10
93.709628
 20
101.759989
 30
0.0
  0
LWPOLYLINE
  5
312
100
AcDbEntity
  8
Layer_1
 62
7
100
AcDbPolyline
 90
13
 70
0
 10
92.026046
 20
100.884782
 30
0.0
 10
92.750641
 20
99.151156
 30
0.0
 10
92.521224
 20
99.055267
 30
0.0
 10
92.223675
 20
99.767167
 30
0.0
 10
91.322568
 20
99.390535
 30
0.0
 10
91.620117
 20
98.678635
 30
0.0
 10
91.390700
 20
98.582749
 30
0.0
 10
90.666105
 20
100.316376
 30
0.0
 10
90.895522
 20
100.412265
 30
0.0
 10
91.237059
 20
99.595116
 30
0.0
 10
92.138170
 20
99.971748
 30
0.0
 10
91.796629
 20
100.788894
 30
0.0
 10
92.026046
 20
100.884782
 30
0.0
  0
SPLINE
  5
313
100
AcDbEntity
  8
Layer_1
 62
7
100
AcDbSpline
 70
8
 71
3
 72
8
 73
4
 74
0
 40
0
 40
0
 40
0
 40
0
 40
1
 40
1
 40
1
 40
1
 10
89.700309
 20
99.984208
 30
0.0
 10
89.717115
 20
99.931242
 30
0.0
 10
89.723047
 20
99.877416
 30
0.0
 10
89.718136
 20
99.822731
 30
0.0
  0
SPLINE
  5
314
100
AcDbEntity
  8
Layer_1
 62
7
100
AcDbSpline
 70
8
 71
3
 72
8
 73
4
 74
0
 40
0
 40
0
 40
0
 40
0
 40
1
 40
1
 40
1
 40
1
 10
89.718136
 20
99.822731
 30
0.0
 10
89.710801
 20
99.732723
 30
0.0
 10
89.684840
 20
99.638757
 30
0.0
 10
89.640233
 20
99.540837
 30
0.0
  0
SPLINE
  5
315
100
AcDbEntity
  8
Layer_1
 62
7
100
AcDbSpline
 70
8
 71
3
 72
8
 73
4
 74
0
 40
0
 40
0
 40
0
 40
0
 40
1
 40
1
 40
1
 40
1
 10
89.640233
 20
99.540837
 30
0.0
 10
89.595625
 20
99.442920
 30
0.0
 10
89.524716
 20
99.324214
 30
0.0
 10
89.427507
 20
99.184726
 30
0.0
  0
SPLINE
  5
316
100
AcDbEntity
  8
Layer_1
 62
7
100
AcDbSpline
 70
8
 71
3
 72
8
 73
4
 74
0
 40
0
 40
0
 40
0
 40
0
 40
1
 40
1
 40
1
 40
1
 10
89.427507
 20
99.184726
 30
0.0
 10
89.276749
 20
98.967877
 30
0.0
 10
89.180197
 20
98.802596
 30
0.0
 10
89.137847
 20
98.688884
 30
0.0
  0
SPLINE
  5
317
100
AcDbEntity
  8
Layer_1
 62
7
100
AcDbSpline
 70
8
 71
3
 72
8
 73
4
 74
0
 40
0
 40
0
 40
0
 40
0
 40
1
 40
1
 40
1
 40
1
 10
89.137847
 20
98.688884
 30
0.0
 10
89.095498
 20
98.575176
 30
0.0
 10
89.086218
 20
98.476398
 30
0.0
 10
89.110008
 20
98.392550
 30
0.0
  0
SPLINE
  5
318
100
AcDbEntity
  8
Layer_1
 62
7
100
AcDbSpline
 70
8
 71
3
 72
8
 73
4
 74
0
 40
0
 40
0
 40
0
 40
0
 40
1
 40
1
 40
1
 40
1
 10
89.110008
 20
98.392550
 30
0.0
 10
89.134945
 20
98.304592
 30
0.0
 10
89.187448
 20
98.239327
 30
0.0
 10
89.267472
 20
98.196745
 30
0.0
  0
SPLINE
  5
319
100
AcDbEntity
  8
Layer_1
 62
7
100
AcDbSpline
 70
8
 71
3
 72
8
 73
4
 74
0
 40
0
 40
0
 40
0
 40
0
 40
1
 40
1
 40
1
 40
1
 10
89.267472
 20
98.196745
 30
0.0
 10
89.347499
 20
98.154166
 30
0.0
 10
89.438065
 20
98.147221
 30
0.0
 10
89.539175
 20
98.175889
 30
0.0
  0
SPLINE
  5
31a
100
AcDbEntity
  8
Layer_1
 62
7
100
AcDbSpline
 70
8
 71
3
 72
8
 73
4
 74
0
 40
0
 40
0
 40
0
 40
0
 40
1
 40
1
 40
1
 40
1
 10
89.539175
 20
98.175889
 30
0.0
 10
89.646037
 20
98.206216
 30
0.0
 10
89.722431
 20
98.262517
 30
0.0
 10
89.768362
 20
98.344824
 30
0.0
  0
SPLINE
  5
31b
100
AcDbEntity
  8
Layer_1
 62
7
100
AcDbSpline
 70
8
 71
3
 72
8
 73
4
 74
0
 40
0
 40
0
 40
0
 40
0
 40
1
 40
1
 40
1
 40
1
 10
89.768362
 20
98.344824
 30
0.0
 10
89.814289
 20
98.427131
 30
0.0
 10
89.821573
 20
98.525122
 30
0.0
 10
89.790206
 20
98.638792
 30
0.0
  0
LWPOLYLINE
  5
31c
100
AcDbEntity
  8
Layer_1
 62
7
100
AcDbPolyline
 90
3
 70
0
 10
88.566009
 20
99.431937
 30
0.0
 10
88.505496
 20
99.645253
 30
0.0
 10
89.700309
 20
99.984208
 30
0.0
  0
SPLINE
  5
31d
100
AcDbEntity
  8
Layer_1
 62
7
100
AcDbSpline
 70
8
 71
3
 72
8
 73
4
 74
0
 40
0
 40
0
 40
0
 40
0
 40
1
 40
1
 40
1
 40
1
 10
90.024965
 20
98.680076
 30
0.0
 10
90.057616
 20
98.505490
 30
0.0
 10
90.035616
 20
98.359140
 30
0.0
 10
89.959001
 20
98.241033
 30
0.0
  0
SPLINE
  5
31e
100
AcDbEntity
  8
Layer_1
 62
7
100
AcDbSpline
 70
8
 71
3
 72
8
 73
4
 74
0
 40
0
 40
0
 40
0
 40
0
 40
1
 40
1
 40
1
 40
1
 10
89.959001
 20
98.241033
 30
0.0
 10
89.882370
 20
98.122930
 30
0.0
 10
89.758154
 20
98.039507
 30
0.0
 10
89.586352
 20
97.990767
 30
0.0
  0
SPLINE
  5
31f
100
AcDbEntity
  8
Layer_1
 62
7
100
AcDbSpline
 70
8
 71
3
 72
8
 73
4
 74
0
 40
0
 40
0
 40
0
 40
0
 40
1
 40
1
 40
1
 40
1
 10
89.586352
 20
97.990767
 30
0.0
 10
89.412904
 20
97.941565
 30
0.0
 10
89.261984
 20
97.950707
 30
0.0
 10
89.133590
 20
98.018192
 30
0.0
  0
SPLINE
  5
320
100
AcDbEntity
  8
Layer_1
 62
7
100
AcDbSpline
 70
8
 71
3
 72
8
 73
4
 74
0
 40
0
 40
0
 40
0
 40
0
 40
1
 40
1
 40
1
 40
1
 10
89.133590
 20
98.018192
 30
0.0
 10
89.005199
 20
98.085690
 30
0.0
 10
88.920829
 20
98.190539
 30
0.0
 10
88.880485
 20
98.332751
 30
0.0
  0
SPLINE
  5
321
100
AcDbEntity
  8
Layer_1
 62
7
100
AcDbSpline
 70
8
 71
3
 72
8
 73
4
 74
0
 40
0
 40
0
 40
0
 40
0
 40
1
 40
1
 40
1
 40
1
 10
88.880485
 20
98.332751
 30
0.0
 10
88.859980
 20
98.405089
 30
0.0
 10
88.854591
 20
98.480393
 30
0.0
 10
88.864349
 20
98.558657
 30
0.0
  0
SPLINE
  5
322
100
AcDbEntity
  8
Layer_1
 62
7
100
AcDbSpline
 70
8
 71
3
 72
8
 73
4
 74
0
 40
0
 40
0
 40
0
 40
0
 40
1
 40
1
 40
1
 40
1
 10
88.864349
 20
98.558657
 30
0.0
 10
88.874108
 20
98.636927
 30
0.0
 10
88.902368
 20
98.724432
 30
0.0
 10
88.949086
 20
98.821172
 30
0.0
  0
SPLINE
  5
323
100
AcDbEntity
  8
Layer_1
 62
7
100
AcDbSpline
 70
8
 71
3
 72
8
 73
4
 74
0
 40
0
 40
0
 40
0
 40
0
 40
1
 40
1
 40
1
 40
1
 10
88.949086
 20
98.821172
 30
0.0
 10
88.995805
 20
98.917915
 30
0.0
 10
89.079776
 20
99.056313
 30
0.0
 10
89.201005
 20
99.236365
 30
0.0
  0
SPLINE
  5
324
100
AcDbEntity
  8
Layer_1
 62
7
100
AcDbSpline
 70
8
 71
3
 72
8
 73
4
 74
0
 40
0
 40
0
 40
0
 40
0
 40
1
 40
1
 40
1
 40
1
 10
89.201005
 20
99.236365
 30
0.0
 10
89.302458
 20
99.385940
 30
0.0
 10
89.366438
 20
99.486022
 30
0.0
 10
89.392938
 20
99.536618
 30
0.0
  0
SPLINE
  5
325
100
AcDbEntity
  8
Layer_1
 62
7
100
AcDbSpline
 70
8
 71
3
 72
8
 73
4
 74
0
 40
0
 40
0
 40
0
 40
0
 40
1
 40
1
 40
1
 40
1
 10
89.392938
 20
99.536618
 30
0.0
 10
89.419439
 20
99.587214
 30
0.0
 10
89.439312
 20
99.636149
 30
0.0
 10
89.452546
 20
99.683422
 30
0.0
  0
LWPOLYLINE
  5
326
100
AcDbEntity
  8
Layer_1
 62
7
100
AcDbPolyline
 90
2
 70
0
 10
89.790206
 20
98.638792
 30
0.0
 10
90.024965
 20
98.680076
 30
0.0
  0
LWPOLYLINE
  5
327
100
AcDbEntity
  8
Layer_1
 62
7
100
AcDbPolyline
 90
2
 70
0
 10
89.452546
 20
99.683422
 30
0.0
 10
88.566009
 20
99.431937
 30
0.0
  0
LWPOLYLINE
  5
328
100
AcDbEntity
  8
Layer_1
 62
7
100
AcDbPolyline
 90
12
 70
0
 10
87.539587
 20
99.435155
 30
0.0
 10
87.630702
 20
98.994603
 30
0.0
 10
88.428964
 20
99.159702
 30
0.0
 10
88.471798
 20
98.952605
 30
0.0
 10
87.878721
 20
97.586566
 30
0.0
 10
87.694216
 20
97.548407
 30
0.0
 10
87.447610
 20
98.740781
 30
0.0
 10
87.199094
 20
98.689385
 30
0.0
 10
87.156262
 20
98.896482
 30
0.0
 10
87.404778
 20
98.947879
 30
0.0
 10
87.313663
 20
99.388430
 30
0.0
 10
87.539587
 20
99.435155
 30
0.0
  0
LWPOLYLINE
  5
329
100
AcDbEntity
  8
Layer_1
 62
7
100
AcDbPolyline
 90
4
 70
0
 10
87.673533
 20
98.787509
 30
0.0
 10
87.845120
 20
97.957867
 30
0.0
 10
88.249639
 20
98.906658
 30
0.0
 10
87.673533
 20
98.787509
 30
0.0
  0
LWPOLYLINE
  5
32a
100
AcDbEntity
  8
Layer_1
 62
7
100
AcDbPolyline
 90
5
 70
0
 10
86.197142
 20
98.641028
 30
0.0
 10
86.222676
 20
98.410453
 30
0.0
 10
85.518206
 20
98.332438
 30
0.0
 10
85.492672
 20
98.563016
 30
0.0
 10
86.197142
 20
98.641028
 30
0.0
  0
SPLINE
  5
32b
100
AcDbEntity
  8
Layer_1
 62
7
100
AcDbSpline
 70
8
 71
3
 72
8
 73
4
 74
0
 40
0
 40
0
 40
0
 40
0
 40
1
 40
1
 40
1
 40
1
 10
82.585290
 20
98.368400
 30
0.0
 10
82.566561
 20
98.117031
 30
0.0
 10
82.482815
 20
97.936054
 30
0.0
 10
82.334055
 20
97.825467
 30
0.0
  0
SPLINE
  5
32c
100
AcDbEntity
  8
Layer_1
 62
7
100
AcDbSpline
 70
8
 71
3
 72
8
 73
4
 74
0
 40
0
 40
0
 40
0
 40
0
 40
1
 40
1
 40
1
 40
1
 10
82.334055
 20
97.825467
 30
0.0
 10
82.209826
 20
97.733619
 30
0.0
 10
82.063779
 20
97.693948
 30
0.0
 10
81.895915
 20
97.706455
 30
0.0
  0
SPLINE
  5
32d
100
AcDbEntity
  8
Layer_1
 62
7
100
AcDbSpline
 70
8
 71
3
 72
8
 73
4
 74
0
 40
0
 40
0
 40
0
 40
0
 40
1
 40
1
 40
1
 40
1
 10
81.895915
 20
97.706455
 30
0.0
 10
81.709306
 20
97.720359
 30
0.0
 10
81.561335
 20
97.792863
 30
0.0
 10
81.452003
 20
97.923965
 30
0.0
  0
SPLINE
  5
32e
100
AcDbEntity
  8
Layer_1
 62
7
100
AcDbSpline
 70
8
 71
3
 72
8
 73
4
 74
0
 40
0
 40
0
 40
0
 40
0
 40
1
 40
1
 40
1
 40
1
 10
81.452003
 20
97.923965
 30
0.0
 10
81.342674
 20
98.055066
 30
0.0
 10
81.296040
 20
98.228408
 30
0.0
 10
81.312101
 20
98.443988
 30
0.0
  0
SPLINE
  5
32f
100
AcDbEntity
  8
Layer_1
 62
7
100
AcDbSpline
 70
8
 71
3
 72
8
 73
4
 74
0
 40
0
 40
0
 40
0
 40
0
 40
1
 40
1
 40
1
 40
1
 10
81.312101
 20
98.443988
 30
0.0
 10
81.325119
 20
98.618670
 30
0.0
 10
81.361559
 20
98.754118
 30
0.0
 10
81.421421
 20
98.850335
 30
0.0
  0
SPLINE
  5
330
100
AcDbEntity
  8
Layer_1
 62
7
100
AcDbSpline
 70
8
 71
3
 72
8
 73
4
 74
0
 40
0
 40
0
 40
0
 40
0
 40
1
 40
1
 40
1
 40
1
 10
81.421421
 20
98.850335
 30
0.0
 10
81.481287
 20
98.946552
 30
0.0
 10
81.563343
 20
99.018623
 30
0.0
 10
81.667591
 20
99.066550
 30
0.0
  0
SPLINE
  5
331
100
AcDbEntity
  8
Layer_1
 62
7
100
AcDbSpline
 70
8
 71
3
 72
8
 73
4
 74
0
 40
0
 40
0
 40
0
 40
0
 40
1
 40
1
 40
1
 40
1
 10
81.667591
 20
99.066550
 30
0.0
 10
81.771841
 20
99.114476
 30
0.0
 10
81.883186
 20
99.134028
 30
0.0
 10
82.001627
 20
99.125201
 30
0.0
  0
SPLINE
  5
332
100
AcDbEntity
  8
Layer_1
 62
7
100
AcDbSpline
 70
8
 71
3
 72
8
 73
4
 74
0
 40
0
 40
0
 40
0
 40
0
 40
1
 40
1
 40
1
 40
1
 10
82.001627
 20
99.125201
 30
0.0
 10
82.191646
 20
99.111042
 30
0.0
 10
82.340697
 20
99.038675
 30
0.0
 10
82.448782
 20
98.908093
 30
0.0
  0
SPLINE
  5
333
100
AcDbEntity
  8
Layer_1
 62
7
100
AcDbSpline
 70
8
 71
3
 72
8
 73
4
 74
0
 40
0
 40
0
 40
0
 40
0
 40
1
 40
1
 40
1
 40
1
 10
82.448782
 20
98.908093
 30
0.0
 10
82.556867
 20
98.777515
 30
0.0
 10
82.602369
 20
98.597616
 30
0.0
 10
82.585290
 20
98.368400
 30
0.0
  0
LWPOLYLINE
  5
334
100
AcDbEntity
  8
Layer_1
 62
7
100
AcDbPolyline
 90
11
 70
0
 10
84.420474
 20
99.044106
 30
0.0
 10
84.434012
 20
97.165193
 30
0.0
 10
84.178961
 20
97.163280
 30
0.0
 10
83.181455
 20
98.631359
 30
0.0
 10
83.192084
 20
97.156169
 30
0.0
 10
82.953695
 20
97.154574
 30
0.0
 10
82.940158
 20
99.033490
 30
0.0
 10
83.195208
 20
99.035403
 30
0.0
 10
84.192724
 20
97.566042
 30
0.0
 10
84.182085
 20
99.042514
 30
0.0
 10
84.420474
 20
99.044106
 30
0.0
  0
SPLINE
  5
335
100
AcDbEntity
  8
Layer_1
 62
7
100
AcDbSpline
 70
8
 71
3
 72
8
 73
4
 74
0
 40
0
 40
0
 40
0
 40
0
 40
1
 40
1
 40
1
 40
1
 10
82.348832
 20
98.386035
 30
0.0
 10
82.361786
 20
98.559865
 30
0.0
 10
82.333564
 20
98.692848
 30
0.0
 10
82.264171
 20
98.784987
 30
0.0
  0
SPLINE
  5
336
100
AcDbEntity
  8
Layer_1
 62
7
100
AcDbSpline
 70
8
 71
3
 72
8
 73
4
 74
0
 40
0
 40
0
 40
0
 40
0
 40
1
 40
1
 40
1
 40
1
 10
82.264171
 20
98.784987
 30
0.0
 10
82.194779
 20
98.877125
 30
0.0
 10
82.102566
 20
98.927479
 30
0.0
 10
81.987532
 20
98.936051
 30
0.0
  0
SPLINE
  5
337
100
AcDbEntity
  8
Layer_1
 62
7
100
AcDbSpline
 70
8
 71
3
 72
8
 73
4
 74
0
 40
0
 40
0
 40
0
 40
0
 40
1
 40
1
 40
1
 40
1
 10
81.987532
 20
98.936051
 30
0.0
 10
81.873351
 20
98.944565
 30
0.0
 10
81.775104
 20
98.908179
 30
0.0
 10
81.692790
 20
98.826918
 30
0.0
  0
SPLINE
  5
338
100
AcDbEntity
  8
Layer_1
 62
7
100
AcDbSpline
 70
8
 71
3
 72
8
 73
4
 74
0
 40
0
 40
0
 40
0
 40
0
 40
1
 40
1
 40
1
 40
1
 10
81.692790
 20
98.826918
 30
0.0
 10
81.610479
 20
98.745654
 30
0.0
 10
81.562687
 20
98.615978
 30
0.0
 10
81.549417
 20
98.437888
 30
0.0
  0
SPLINE
  5
339
100
AcDbEntity
  8
Layer_1
 62
7
100
AcDbSpline
 70
8
 71
3
 72
8
 73
4
 74
0
 40
0
 40
0
 40
0
 40
0
 40
1
 40
1
 40
1
 40
1
 10
81.549417
 20
98.437888
 30
0.0
 10
81.536910
 20
98.270027
 30
0.0
 10
81.565566
 20
98.140010
 30
0.0
 10
81.635383
 20
98.047837
 30
0.0
  0
SPLINE
  5
33a
100
AcDbEntity
  8
Layer_1
 62
7
100
AcDbSpline
 70
8
 71
3
 72
8
 73
4
 74
0
 40
0
 40
0
 40
0
 40
0
 40
1
 40
1
 40
1
 40
1
 10
81.635383
 20
98.047837
 30
0.0
 10
81.705203
 20
97.955669
 30
0.0
 10
81.796777
 20
97.905360
 30
0.0
 10
81.910105
 20
97.896916
 30
0.0
  0
SPLINE
  5
33b
100
AcDbEntity
  8
Layer_1
 62
7
100
AcDbSpline
 70
8
 71
3
 72
8
 73
4
 74
0
 40
0
 40
0
 40
0
 40
0
 40
1
 40
1
 40
1
 40
1
 10
81.910105
 20
97.896916
 30
0.0
 10
82.025140
 20
97.888338
 30
0.0
 10
82.123781
 20
97.924277
 30
0.0
 10
82.206030
 20
98.004674
 30
0.0
  0
SPLINE
  5
33c
100
AcDbEntity
  8
Layer_1
 62
7
100
AcDbSpline
 70
8
 71
3
 72
8
 73
4
 74
0
 40
0
 40
0
 40
0
 40
0
 40
1
 40
1
 40
1
 40
1
 10
82.206030
 20
98.004674
 30
0.0
 10
82.288280
 20
98.085087
 30
0.0
 10
82.335880
 20
98.212208
 30
0.0
 10
82.348832
 20
98.386035
 30
0.0
  0
LWPOLYLINE
  5
33d
100
AcDbEntity
  8
Layer_1
 62
7
100
AcDbPolyline
 90
2
 70
0
 10
82.585290
 20
98.368400
 30
0.0
 10
82.585290
 20
98.368400
 30
0.0
  0
LWPOLYLINE
  5
33e
100
AcDbEntity
  8
Layer_1
 62
7
100
AcDbPolyline
 90
2
 70
0
 10
82.348832
 20
98.386035
 30
0.0
 10
82.348832
 20
98.386035
 30
0.0
  0
SPLINE
  5
33f
100
AcDbEntity
  8
Layer_1
 62
7
100
AcDbSpline
 70
8
 71
3
 72
8
 73
4
 74
0
 40
0
 40
0
 40
0
 40
0
 40
1
 40
1
 40
1
 40
1
 10
80.624548
 20
98.692003
 30
0.0
 10
80.605752
 20
98.783612
 30
0.0
 10
80.589977
 20
98.878238
 30
0.0
 10
80.577225
 20
98.975884
 30
0.0
  0
SPLINE
  5
340
100
AcDbEntity
  8
Layer_1
 62
7
100
AcDbSpline
 70
8
 71
3
 72
8
 73
4
 74
0
 40
0
 40
0
 40
0
 40
0
 40
1
 40
1
 40
1
 40
1
 10
80.577225
 20
98.975884
 30
0.0
 10
80.546735
 20
98.907749
 30
0.0
 10
80.506145
 20
98.826386
 30
0.0
 10
80.455457
 20
98.731798
 30
0.0
  0
LWPOLYLINE
  5
341
100
AcDbEntity
  8
Layer_1
 62
7
100
AcDbPolyline
 90
4
 70
0
 10
80.719843
 20
99.229926
 30
0.0
 10
81.039114
 20
97.809031
 30
0.0
 10
80.798060
 20
97.843612
 30
0.0
 10
80.624548
 20
98.692003
 30
0.0
  0
LWPOLYLINE
  5
342
100
AcDbEntity
  8
Layer_1
 62
7
100
AcDbPolyline
 90
5
 70
0
 10
80.455457
 20
98.731798
 30
0.0
 10
80.038105
 20
97.952630
 30
0.0
 10
79.803395
 20
97.986299
 30
0.0
 10
80.506700
 20
99.260502
 30
0.0
 10
80.719843
 20
99.229926
 30
0.0
  0
SPLINE
  5
343
100
AcDbEntity
  8
Layer_1
 62
7
100
AcDbSpline
 70
8
 71
3
 72
8
 73
4
 74
0
 40
0
 40
0
 40
0
 40
0
 40
1
 40
1
 40
1
 40
1
 10
78.166115
 20
98.232586
 30
0.0
 10
78.232929
 20
98.270365
 30
0.0
 10
78.316519
 20
98.303910
 30
0.0
 10
78.416885
 20
98.333220
 30
0.0
  0
SPLINE
  5
344
100
AcDbEntity
  8
Layer_1
 62
7
100
AcDbSpline
 70
8
 71
3
 72
8
 73
4
 74
0
 40
0
 40
0
 40
0
 40
0
 40
1
 40
1
 40
1
 40
1
 10
78.416885
 20
98.333220
 30
0.0
 10
78.517253
 20
98.362526
 30
0.0
 10
78.605474
 20
98.381252
 30
0.0
 10
78.681548
 20
98.389374
 30
0.0
  0
LWPOLYLINE
  5
345
100
AcDbEntity
  8
Layer_1
 62
7
100
AcDbPolyline
 90
3
 70
0
 10
78.302083
 20
99.714454
 30
0.0
 10
78.525778
 20
99.658012
 30
0.0
 10
78.166115
 20
98.232586
 30
0.0
  0
SPLINE
  5
346
100
AcDbEntity
  8
Layer_1
 62
7
100
AcDbSpline
 70
8
 71
3
 72
8
 73
4
 74
0
 40
0
 40
0
 40
0
 40
0
 40
1
 40
1
 40
1
 40
1
 10
78.626987
 20
98.173137
 30
0.0
 10
78.487042
 20
98.145872
 30
0.0
 10
78.359703
 20
98.102224
 30
0.0
 10
78.244968
 20
98.042167
 30
0.0
  0
SPLINE
  5
347
100
AcDbEntity
  8
Layer_1
 62
7
100
AcDbSpline
 70
8
 71
3
 72
8
 73
4
 74
0
 40
0
 40
0
 40
0
 40
0
 40
1
 40
1
 40
1
 40
1
 10
78.244968
 20
98.042167
 30
0.0
 10
78.130236
 20
97.982112
 30
0.0
 10
78.043470
 20
97.917644
 30
0.0
 10
77.984670
 20
97.848759
 30
0.0
  0
LWPOLYLINE
  5
348
100
AcDbEntity
  8
Layer_1
 62
7
100
AcDbPolyline
 90
2
 70
0
 10
78.681548
 20
98.389374
 30
0.0
 10
78.626987
 20
98.173137
 30
0.0
  0
LWPOLYLINE
  5
349
100
AcDbEntity
  8
Layer_1
 62
7
100
AcDbPolyline
 90
3
 70
0
 10
77.984670
 20
97.848759
 30
0.0
 10
77.840511
 20
97.885136
 30
0.0
 10
78.302083
 20
99.714454
 30
0.0
  0
SPLINE
  5
34a
100
AcDbEntity
  8
Layer_1
 62
7
100
AcDbSpline
 70
8
 71
3
 72
8
 73
4
 74
0
 40
0
 40
0
 40
0
 40
0
 40
1
 40
1
 40
1
 40
1
 10
76.661553
 20
98.672072
 30
0.0
 10
76.730929
 20
98.704912
 30
0.0
 10
76.816731
 20
98.732308
 30
0.0
 10
76.918958
 20
98.754271
 30
0.0
  0
SPLINE
  5
34b
100
AcDbEntity
  8
Layer_1
 62
7
100
AcDbSpline
 70
8
 71
3
 72
8
 73
4
 74
0
 40
0
 40
0
 40
0
 40
0
 40
1
 40
1
 40
1
 40
1
 10
76.918958
 20
98.754271
 30
0.0
 10
77.021186
 20
98.776243
 30
0.0
 10
77.110531
 20
98.788507
 30
0.0
 10
77.186994
 20
98.791094
 30
0.0
  0
LWPOLYLINE
  5
34c
100
AcDbEntity
  8
Layer_1
 62
7
100
AcDbPolyline
 90
3
 70
0
 10
76.904570
 20
100.140192
 30
0.0
 10
77.123585
 20
100.067685
 30
0.0
 10
76.661553
 20
98.672072
 30
0.0
  0
SPLINE
  5
34d
100
AcDbEntity
  8
Layer_1
 62
7
100
AcDbSpline
 70
8
 71
3
 72
8
 73
4
 74
0
 40
0
 40
0
 40
0
 40
0
 40
1
 40
1
 40
1
 40
1
 10
77.116903
 20
98.579379
 30
0.0
 10
76.975352
 20
98.562350
 30
0.0
 10
76.845183
 20
98.528027
 30
0.0
 10
76.726397
 20
98.476442
 30
0.0
  0
SPLINE
  5
34e
100
AcDbEntity
  8
Layer_1
 62
7
100
AcDbSpline
 70
8
 71
3
 72
8
 73
4
 74
0
 40
0
 40
0
 40
0
 40
0
 40
1
 40
1
 40
1
 40
1
 10
76.726397
 20
98.476442
 30
0.0
 10
76.607614
 20
98.424861
 30
0.0
 10
76.516403
 20
98.366850
 30
0.0
 10
76.452765
 20
98.302411
 30
0.0
  0
LWPOLYLINE
  5
34f
100
AcDbEntity
  8
Layer_1
 62
7
100
AcDbPolyline
 90
2
 70
0
 10
77.186994
 20
98.791094
 30
0.0
 10
77.116903
 20
98.579379
 30
0.0
  0
LWPOLYLINE
  5
350
100
AcDbEntity
  8
Layer_1
 62
7
100
AcDbPolyline
 90
3
 70
0
 10
76.452765
 20
98.302411
 30
0.0
 10
76.311622
 20
98.349136
 30
0.0
 10
76.904570
 20
100.140192
 30
0.0
  0
SPLINE
  5
351
100
AcDbEntity
  8
Layer_1
 62
7
100
AcDbSpline
 70
8
 71
3
 72
8
 73
4
 74
0
 40
0
 40
0
 40
0
 40
0
 40
1
 40
1
 40
1
 40
1
 10
75.987287
 20
100.482744
 30
0.0
 10
76.022566
 20
100.572622
 30
0.0
 10
76.066963
 20
100.638958
 30
0.0
 10
76.120475
 20
100.681748
 30
0.0
  0
SPLINE
  5
352
100
AcDbEntity
  8
Layer_1
 62
7
100
AcDbSpline
 70
8
 71
3
 72
8
 73
4
 74
0
 40
0
 40
0
 40
0
 40
0
 40
1
 40
1
 40
1
 40
1
 10
76.120475
 20
100.681748
 30
0.0
 10
76.173989
 20
100.724540
 30
0.0
 10
76.241277
 20
100.747466
 30
0.0
 10
76.322339
 20
100.750530
 30
0.0
  0
LWPOLYLINE
  5
353
100
AcDbEntity
  8
Layer_1
 62
7
100
AcDbPolyline
 90
4
 70
0
 10
76.231868
 20
100.386744
 30
0.0
 10
76.135866
 20
100.142163
 30
0.0
 10
75.891285
 20
100.238164
 30
0.0
 10
75.987287
 20
100.482744
 30
0.0
  0
SPLINE
  5
354
100
AcDbEntity
  8
Layer_1
 62
7
100
AcDbSpline
 70
8
 71
3
 72
8
 73
4
 74
0
 40
0
 40
0
 40
0
 40
0
 40
1
 40
1
 40
1
 40
1
 10
76.345934
 20
100.635250
 30
0.0
 10
76.292792
 20
100.633017
 30
0.0
 10
76.247913
 20
100.617041
 30
0.0
 10
76.211295
 20
100.586895
 30
0.0
  0
SPLINE
  5
355
100
AcDbEntity
  8
Layer_1
 62
7
100
AcDbSpline
 70
8
 71
3
 72
8
 73
4
 74
0
 40
0
 40
0
 40
0
 40
0
 40
1
 40
1
 40
1
 40
1
 10
76.211295
 20
100.586895
 30
0.0
 10
76.174678
 20
100.556760
 30
0.0
 10
76.140972
 20
100.505953
 30
0.0
 10
76.110174
 20
100.434508
 30
0.0
  0
LWPOLYLINE
  5
356
100
AcDbEntity
  8
Layer_1
 62
7
100
AcDbPolyline
 90
2
 70
0
 10
76.322339
 20
100.750530
 30
0.0
 10
76.345934
 20
100.635250
 30
0.0
  0
LWPOLYLINE
  5
357
100
AcDbEntity
  8
Layer_1
 62
7
100
AcDbPolyline
 90
2
 70
0
 10
76.110174
 20
100.434508
 30
0.0
 10
76.231868
 20
100.386744
 30
0.0
  0
SPLINE
  5
358
100
AcDbEntity
  8
Layer_1
 62
7
100
AcDbSpline
 70
8
 71
3
 72
8
 73
4
 74
0
 40
0
 40
0
 40
0
 40
0
 40
1
 40
1
 40
1
 40
1
 10
75.028138
 20
100.884537
 30
0.0
 10
75.004795
 20
100.834113
 30
0.0
 10
74.972858
 20
100.790380
 30
0.0
 10
74.932327
 20
100.753340
 30
0.0
  0
SPLINE
  5
359
100
AcDbEntity
  8
Layer_1
 62
7
100
AcDbSpline
 70
8
 71
3
 72
8
 73
4
 74
0
 40
0
 40
0
 40
0
 40
0
 40
1
 40
1
 40
1
 40
1
 10
74.932327
 20
100.753340
 30
0.0
 10
74.866178
 20
100.691863
 30
0.0
 10
74.783604
 20
100.640046
 30
0.0
 10
74.684605
 20
100.597884
 30
0.0
  0
SPLINE
  5
35a
100
AcDbEntity
  8
Layer_1
 62
7
100
AcDbSpline
 70
8
 71
3
 72
8
 73
4
 74
0
 40
0
 40
0
 40
0
 40
0
 40
1
 40
1
 40
1
 40
1
 10
74.684605
 20
100.597884
 30
0.0
 10
74.585606
 20
100.555726
 30
0.0
 10
74.453172
 20
100.515979
 30
0.0
 10
74.287303
 20
100.478643
 30
0.0
  0
SPLINE
  5
35b
100
AcDbEntity
  8
Layer_1
 62
7
100
AcDbSpline
 70
8
 71
3
 72
8
 73
4
 74
0
 40
0
 40
0
 40
0
 40
0
 40
1
 40
1
 40
1
 40
1
 10
74.287303
 20
100.478643
 30
0.0
 10
74.029711
 20
100.420349
 30
0.0
 10
73.846921
 20
100.363534
 30
0.0
 10
73.738932
 20
100.308199
 30
0.0
  0
SPLINE
  5
35c
100
AcDbEntity
  8
Layer_1
 62
7
100
AcDbSpline
 70
8
 71
3
 72
8
 73
4
 74
0
 40
0
 40
0
 40
0
 40
0
 40
1
 40
1
 40
1
 40
1
 10
73.738932
 20
100.308199
 30
0.0
 10
73.630945
 20
100.252865
 30
0.0
 10
73.557436
 20
100.186231
 30
0.0
 10
73.518405
 20
100.108303
 30
0.0
  0
SPLINE
  5
35d
100
AcDbEntity
  8
Layer_1
 62
7
100
AcDbSpline
 70
8
 71
3
 72
8
 73
4
 74
0
 40
0
 40
0
 40
0
 40
0
 40
1
 40
1
 40
1
 40
1
 10
73.518405
 20
100.108303
 30
0.0
 10
73.477465
 20
100.026557
 30
0.0
 10
73.472154
 20
99.942971
 30
0.0
 10
73.502473
 20
99.857542
 30
0.0
  0
SPLINE
  5
35e
100
AcDbEntity
  8
Layer_1
 62
7
100
AcDbSpline
 70
8
 71
3
 72
8
 73
4
 74
0
 40
0
 40
0
 40
0
 40
0
 40
1
 40
1
 40
1
 40
1
 10
73.502473
 20
99.857542
 30
0.0
 10
73.532797
 20
99.772119
 30
0.0
 10
73.594944
 20
99.705872
 30
0.0
 10
73.688914
 20
99.658806
 30
0.0
  0
SPLINE
  5
35f
100
AcDbEntity
  8
Layer_1
 62
7
100
AcDbSpline
 70
8
 71
3
 72
8
 73
4
 74
0
 40
0
 40
0
 40
0
 40
0
 40
1
 40
1
 40
1
 40
1
 10
73.688914
 20
99.658806
 30
0.0
 10
73.788235
 20
99.609065
 30
0.0
 10
73.882614
 20
99.599067
 30
0.0
 10
73.972050
 20
99.628798
 30
0.0
  0
SPLINE
  5
360
100
AcDbEntity
  8
Layer_1
 62
7
100
AcDbSpline
 70
8
 71
3
 72
8
 73
4
 74
0
 40
0
 40
0
 40
0
 40
0
 40
1
 40
1
 40
1
 40
1
 10
73.972050
 20
99.628798
 30
0.0
 10
74.061489
 20
99.658551
 30
0.0
 10
74.132992
 20
99.725943
 30
0.0
 10
74.186559
 20
99.830991
 30
0.0
  0
LWPOLYLINE
  5
361
100
AcDbEntity
  8
Layer_1
 62
7
100
AcDbPolyline
 90
3
 70
0
 10
73.818372
 20
101.242446
 30
0.0
 10
73.917667
 20
101.440704
 30
0.0
 10
75.028138
 20
100.884537
 30
0.0
  0
SPLINE
  5
362
100
AcDbEntity
  8
Layer_1
 62
7
100
AcDbSpline
 70
8
 71
3
 72
8
 73
4
 74
0
 40
0
 40
0
 40
0
 40
0
 40
1
 40
1
 40
1
 40
1
 10
74.387663
 20
99.703034
 30
0.0
 10
74.293942
 20
99.552158
 30
0.0
 10
74.178955
 20
99.458996
 30
0.0
 10
74.042701
 20
99.423547
 30
0.0
  0
SPLINE
  5
363
100
AcDbEntity
  8
Layer_1
 62
7
100
AcDbSpline
 70
8
 71
3
 72
8
 73
4
 74
0
 40
0
 40
0
 40
0
 40
0
 40
1
 40
1
 40
1
 40
1
 10
74.042701
 20
99.423547
 30
0.0
 10
73.906450
 20
99.388105
 30
0.0
 10
73.758487
 20
99.410377
 30
0.0
 10
73.598810
 20
99.490337
 30
0.0
  0
SPLINE
  5
364
100
AcDbEntity
  8
Layer_1
 62
7
100
AcDbSpline
 70
8
 71
3
 72
8
 73
4
 74
0
 40
0
 40
0
 40
0
 40
0
 40
1
 40
1
 40
1
 40
1
 10
73.598810
 20
99.490337
 30
0.0
 10
73.437608
 20
99.571075
 30
0.0
 10
73.332405
 20
99.679668
 30
0.0
 10
73.283200
 20
99.816121
 30
0.0
  0
SPLINE
  5
365
100
AcDbEntity
  8
Layer_1
 62
7
100
AcDbSpline
 70
8
 71
3
 72
8
 73
4
 74
0
 40
0
 40
0
 40
0
 40
0
 40
1
 40
1
 40
1
 40
1
 10
73.283200
 20
99.816121
 30
0.0
 10
73.233999
 20
99.952573
 30
0.0
 10
73.242496
 20
100.086886
 30
0.0
 10
73.308689
 20
100.219058
 30
0.0
  0
SPLINE
  5
366
100
AcDbEntity
  8
Layer_1
 62
7
100
AcDbSpline
 70
8
 71
3
 72
8
 73
4
 74
0
 40
0
 40
0
 40
0
 40
0
 40
1
 40
1
 40
1
 40
1
 10
73.308689
 20
100.219058
 30
0.0
 10
73.342363
 20
100.286288
 30
0.0
 10
73.389214
 20
100.345488
 30
0.0
 10
73.449240
 20
100.396652
 30
0.0
  0
SPLINE
  5
367
100
AcDbEntity
  8
Layer_1
 62
7
100
AcDbSpline
 70
8
 71
3
 72
8
 73
4
 74
0
 40
0
 40
0
 40
0
 40
0
 40
1
 40
1
 40
1
 40
1
 10
73.449240
 20
100.396652
 30
0.0
 10
73.509270
 20
100.447818
 30
0.0
 10
73.589165
 20
100.493331
 30
0.0
 10
73.688926
 20
100.533196
 30
0.0
  0
SPLINE
  5
368
100
AcDbEntity
  8
Layer_1
 62
7
100
AcDbSpline
 70
8
 71
3
 72
8
 73
4
 74
0
 40
0
 40
0
 40
0
 40
0
 40
1
 40
1
 40
1
 40
1
 10
73.688926
 20
100.533196
 30
0.0
 10
73.788689
 20
100.573062
 30
0.0
 10
73.944054
 20
100.618527
 30
0.0
 10
74.155022
 20
100.669591
 30
0.0
  0
SPLINE
  5
369
100
AcDbEntity
  8
Layer_1
 62
7
100
AcDbSpline
 70
8
 71
3
 72
8
 73
4
 74
0
 40
0
 40
0
 40
0
 40
0
 40
1
 40
1
 40
1
 40
1
 10
74.155022
 20
100.669591
 30
0.0
 10
74.330829
 20
100.711507
 30
0.0
 10
74.445584
 20
100.742191
 30
0.0
 10
74.499285
 20
100.761644
 30
0.0
  0
SPLINE
  5
36a
100
AcDbEntity
  8
Layer_1
 62
7
100
AcDbSpline
 70
8
 71
3
 72
8
 73
4
 74
0
 40
0
 40
0
 40
0
 40
0
 40
1
 40
1
 40
1
 40
1
 10
74.499285
 20
100.761644
 30
0.0
 10
74.552987
 20
100.781097
 30
0.0
 10
74.600673
 20
100.803802
 30
0.0
 10
74.642342
 20
100.829757
 30
0.0
  0
LWPOLYLINE
  5
36b
100
AcDbEntity
  8
Layer_1
 62
7
100
AcDbPolyline
 90
2
 70
0
 10
74.186559
 20
99.830991
 30
0.0
 10
74.387663
 20
99.703034
 30
0.0
  0
SPLINE
  5
36c
100
AcDbEntity
  8
Layer_1
 62
7
100
AcDbSpline
 70
8
 71
3
 72
8
 73
4
 74
0
 40
0
 40
0
 40
0
 40
0
 40
1
 40
1
 40
1
 40
1
 10
73.224959
 20
100.762801
 30
0.0
 10
73.111414
 20
100.571850
 30
0.0
 10
73.000386
 20
100.429852
 30
0.0
 10
72.891875
 20
100.336808
 30
0.0
  0
SPLINE
  5
36d
100
AcDbEntity
  8
Layer_1
 62
7
100
AcDbSpline
 70
8
 71
3
 72
8
 73
4
 74
0
 40
0
 40
0
 40
0
 40
0
 40
1
 40
1
 40
1
 40
1
 10
72.891875
 20
100.336808
 30
0.0
 10
72.783364
 20
100.243767
 30
0.0
 10
72.671589
 20
100.188700
 30
0.0
 10
72.556548
 20
100.171610
 30
0.0
  0
SPLINE
  5
36e
100
AcDbEntity
  8
Layer_1
 62
7
100
AcDbSpline
 70
8
 71
3
 72
8
 73
4
 74
0
 40
0
 40
0
 40
0
 40
0
 40
1
 40
1
 40
1
 40
1
 10
72.556548
 20
100.171610
 30
0.0
 10
72.441510
 20
100.154517
 30
0.0
 10
72.325236
 20
100.180922
 30
0.0
 10
72.207725
 20
100.250789
 30
0.0
  0
SPLINE
  5
36f
100
AcDbEntity
  8
Layer_1
 62
7
100
AcDbSpline
 70
8
 71
3
 72
8
 73
4
 74
0
 40
0
 40
0
 40
0
 40
0
 40
1
 40
1
 40
1
 40
1
 10
72.207725
 20
100.250789
 30
0.0
 10
72.121064
 20
100.302322
 30
0.0
 10
72.055423
 20
100.364966
 30
0.0
 10
72.010801
 20
100.438717
 30
0.0
  0
SPLINE
  5
370
100
AcDbEntity
  8
Layer_1
 62
7
100
AcDbSpline
 70
8
 71
3
 72
8
 73
4
 74
0
 40
0
 40
0
 40
0
 40
0
 40
1
 40
1
 40
1
 40
1
 10
72.010801
 20
100.438717
 30
0.0
 10
71.966182
 20
100.512471
 30
0.0
 10
71.942116
 20
100.594877
 30
0.0
 10
71.938603
 20
100.685938
 30
0.0
  0
SPLINE
  5
371
100
AcDbEntity
  8
Layer_1
 62
7
100
AcDbSpline
 70
8
 71
3
 72
8
 73
4
 74
0
 40
0
 40
0
 40
0
 40
0
 40
1
 40
1
 40
1
 40
1
 10
71.938603
 20
100.685938
 30
0.0
 10
71.935095
 20
100.776999
 30
0.0
 10
71.949280
 20
100.876925
 30
0.0
 10
71.981159
 20
100.985710
 30
0.0
  0
SPLINE
  5
372
100
AcDbEntity
  8
Layer_1
 62
7
100
AcDbSpline
 70
8
 71
3
 72
8
 73
4
 74
0
 40
0
 40
0
 40
0
 40
0
 40
1
 40
1
 40
1
 40
1
 10
71.981159
 20
100.985710
 30
0.0
 10
72.013042
 20
101.094495
 30
0.0
 10
72.076584
 20
101.228941
 30
0.0
 10
72.171786
 20
101.389046
 30
0.0
  0
SPLINE
  5
373
100
AcDbEntity
  8
Layer_1
 62
7
100
AcDbSpline
 70
8
 71
3
 72
8
 73
4
 74
0
 40
0
 40
0
 40
0
 40
0
 40
1
 40
1
 40
1
 40
1
 10
72.171786
 20
101.389046
 30
0.0
 10
72.284459
 20
101.578528
 30
0.0
 10
72.394867
 20
101.719901
 30
0.0
 10
72.503009
 20
101.813162
 30
0.0
  0
SPLINE
  5
374
100
AcDbEntity
  8
Layer_1
 62
7
100
AcDbSpline
 70
8
 71
3
 72
8
 73
4
 74
0
 40
0
 40
0
 40
0
 40
0
 40
1
 40
1
 40
1
 40
1
 10
72.503009
 20
101.813162
 30
0.0
 10
72.611154
 20
101.906423
 30
0.0
 10
72.722855
 20
101.961783
 30
0.0
 10
72.838112
 20
101.979236
 30
0.0
  0
SPLINE
  5
375
100
AcDbEntity
  8
Layer_1
 62
7
100
AcDbSpline
 70
8
 71
3
 72
8
 73
4
 74
0
 40
0
 40
0
 40
0
 40
0
 40
1
 40
1
 40
1
 40
1
 10
72.838112
 20
101.979236
 30
0.0
 10
72.953371
 20
101.996680
 30
0.0
 10
73.070121
 20
101.970275
 30
0.0
 10
73.188364
 20
101.899956
 30
0.0
  0
SPLINE
  5
376
100
AcDbEntity
  8
Layer_1
 62
7
100
AcDbSpline
 70
8
 71
3
 72
8
 73
4
 74
0
 40
0
 40
0
 40
0
 40
0
 40
1
 40
1
 40
1
 40
1
 10
73.188364
 20
101.899956
 30
0.0
 10
73.344064
 20
101.807371
 30
0.0
 10
73.433156
 20
101.678843
 30
0.0
 10
73.455642
 20
101.514366
 30
0.0
  0
SPLINE
  5
377
100
AcDbEntity
  8
Layer_1
 62
7
100
AcDbSpline
 70
8
 71
3
 72
8
 73
4
 74
0
 40
0
 40
0
 40
0
 40
0
 40
1
 40
1
 40
1
 40
1
 10
73.455642
 20
101.514366
 30
0.0
 10
73.482215
 20
101.316641
 30
0.0
 10
73.405322
 20
101.066119
 30
0.0
 10
73.224959
 20
100.762801
 30
0.0
  0
LWPOLYLINE
  5
378
100
AcDbEntity
  8
Layer_1
 62
7
100
AcDbPolyline
 90
2
 70
0
 10
74.642342
 20
100.829757
 30
0.0
 10
73.818372
 20
101.242446
 30
0.0
  0
SPLINE
  5
379
100
AcDbEntity
  8
Layer_1
 62
7
100
AcDbSpline
 70
8
 71
3
 72
8
 73
4
 74
0
 40
0
 40
0
 40
0
 40
0
 40
1
 40
1
 40
1
 40
1
 10
73.021155
 20
100.883988
 30
0.0
 10
73.178808
 20
101.149118
 30
0.0
 10
73.252699
 20
101.344015
 30
0.0
 10
73.242826
 20
101.468681
 30
0.0
  0
SPLINE
  5
37a
100
AcDbEntity
  8
Layer_1
 62
7
100
AcDbSpline
 70
8
 71
3
 72
8
 73
4
 74
0
 40
0
 40
0
 40
0
 40
0
 40
1
 40
1
 40
1
 40
1
 10
73.242826
 20
101.468681
 30
0.0
 10
73.232953
 20
101.593350
 30
0.0
 10
73.182484
 20
101.682759
 30
0.0
 10
73.091414
 20
101.736910
 30
0.0
  0
SPLINE
  5
37b
100
AcDbEntity
  8
Layer_1
 62
7
100
AcDbSpline
 70
8
 71
3
 72
8
 73
4
 74
0
 40
0
 40
0
 40
0
 40
0
 40
1
 40
1
 40
1
 40
1
 10
73.091414
 20
101.736910
 30
0.0
 10
73.000345
 20
101.791062
 30
0.0
 10
72.897578
 20
101.792523
 30
0.0
 10
72.783112
 20
101.741279
 30
0.0
  0
SPLINE
  5
37c
100
AcDbEntity
  8
Layer_1
 62
7
100
AcDbSpline
 70
8
 71
3
 72
8
 73
4
 74
0
 40
0
 40
0
 40
0
 40
0
 40
1
 40
1
 40
1
 40
1
 10
72.783112
 20
101.741279
 30
0.0
 10
72.668648
 20
101.690049
 30
0.0
 10
72.532808
 20
101.532237
 30
0.0
 10
72.375590
 20
101.267843
 30
0.0
  0
SPLINE
  5
37d
100
AcDbEntity
  8
Layer_1
 62
7
100
AcDbSpline
 70
8
 71
3
 72
8
 73
4
 74
0
 40
0
 40
0
 40
0
 40
0
 40
1
 40
1
 40
1
 40
1
 10
72.375590
 20
101.267843
 30
0.0
 10
72.217502
 20
101.001980
 30
0.0
 10
72.143502
 20
100.806898
 30
0.0
 10
72.153591
 20
100.682596
 30
0.0
  0
SPLINE
  5
37e
100
AcDbEntity
  8
Layer_1
 62
7
100
AcDbSpline
 70
8
 71
3
 72
8
 73
4
 74
0
 40
0
 40
0
 40
0
 40
0
 40
1
 40
1
 40
1
 40
1
 10
72.153591
 20
100.682596
 30
0.0
 10
72.163684
 20
100.558300
 30
0.0
 10
72.214998
 20
100.468636
 30
0.0
 10
72.307534
 20
100.413610
 30
0.0
  0
SPLINE
  5
37f
100
AcDbEntity
  8
Layer_1
 62
7
100
AcDbSpline
 70
8
 71
3
 72
8
 73
4
 74
0
 40
0
 40
0
 40
0
 40
0
 40
1
 40
1
 40
1
 40
1
 10
72.307534
 20
100.413610
 30
0.0
 10
72.398605
 20
100.359459
 30
0.0
 10
72.494241
 20
100.354781
 30
0.0
 10
72.594442
 20
100.399579
 30
0.0
  0
SPLINE
  5
380
100
AcDbEntity
  8
Layer_1
 62
7
100
AcDbSpline
 70
8
 71
3
 72
8
 73
4
 74
0
 40
0
 40
0
 40
0
 40
0
 40
1
 40
1
 40
1
 40
1
 10
72.594442
 20
100.399579
 30
0.0
 10
72.721265
 20
100.457379
 30
0.0
 10
72.863502
 20
100.618842
 30
0.0
 10
73.021155
 20
100.883972
 30
0.0
  0
LWPOLYLINE
  5
381
100
AcDbEntity
  8
Layer_1
 62
7
100
AcDbPolyline
 90
2
 70
0
 10
73.224959
 20
100.762801
 30
0.0
 10
73.224959
 20
100.762801
 30
0.0
  0
LWPOLYLINE
  5
382
100
AcDbEntity
  8
Layer_1
 62
7
100
AcDbPolyline
 90
2
 70
0
 10
73.021155
 20
100.883972
 30
0.0
 10
73.021155
 20
100.883988
 30
0.0
  0
SPLINE
  5
383
100
AcDbEntity
  8
Layer_1
 62
7
100
AcDbSpline
 70
8
 71
3
 72
8
 73
4
 74
0
 40
0
 40
0
 40
0
 40
0
 40
1
 40
1
 40
1
 40
1
 10
71.082456
 20
101.471500
 30
0.0
 10
71.158310
 20
101.483235
 30
0.0
 10
71.248361
 20
101.485053
 30
0.0
 10
71.352610
 20
101.477017
 30
0.0
  0
SPLINE
  5
384
100
AcDbEntity
  8
Layer_1
 62
7
100
AcDbSpline
 70
8
 71
3
 72
8
 73
4
 74
0
 40
0
 40
0
 40
0
 40
0
 40
1
 40
1
 40
1
 40
1
 10
71.352610
 20
101.477017
 30
0.0
 10
71.456861
 20
101.468981
 30
0.0
 10
71.546003
 20
101.455300
 30
0.0
 10
71.620038
 20
101.436013
 30
0.0
  0
LWPOLYLINE
  5
385
100
AcDbEntity
  8
Layer_1
 62
7
100
AcDbPolyline
 90
3
 70
0
 10
71.733357
 20
102.809689
 30
0.0
 10
71.922669
 20
102.677835
 30
0.0
 10
71.082456
 20
101.471500
 30
0.0
  0
SPLINE
  5
386
100
AcDbEntity
  8
Layer_1
 62
7
100
AcDbSpline
 70
8
 71
3
 72
8
 73
4
 74
0
 40
0
 40
0
 40
0
 40
0
 40
1
 40
1
 40
1
 40
1
 10
71.492578
 20
101.253011
 30
0.0
 10
71.352032
 20
101.276961
 30
0.0
 10
71.217481
 20
101.281138
 30
0.0
 10
71.088925
 20
101.265512
 30
0.0
  0
SPLINE
  5
387
100
AcDbEntity
  8
Layer_1
 62
7
100
AcDbSpline
 70
8
 71
3
 72
8
 73
4
 74
0
 40
0
 40
0
 40
0
 40
0
 40
1
 40
1
 40
1
 40
1
 10
71.088925
 20
101.265512
 30
0.0
 10
70.960373
 20
101.249886
 30
0.0
 10
70.856422
 20
101.220235
 30
0.0
 10
70.777073
 20
101.176578
 30
0.0
  0
LWPOLYLINE
  5
388
100
AcDbEntity
  8
Layer_1
 62
7
100
AcDbPolyline
 90
2
 70
0
 10
71.620038
 20
101.436013
 30
0.0
 10
71.492578
 20
101.253011
 30
0.0
  0
LWPOLYLINE
  5
389
100
AcDbEntity
  8
Layer_1
 62
7
100
AcDbPolyline
 90
3
 70
0
 10
70.777073
 20
101.176578
 30
0.0
 10
70.655072
 20
101.261551
 30
0.0
 10
71.733357
 20
102.809689
 30
0.0
  0
SPLINE
  5
38a
100
AcDbEntity
  8
Layer_1
 62
7
100
AcDbSpline
 70
8
 71
3
 72
8
 73
4
 74
0
 40
0
 40
0
 40
0
 40
0
 40
1
 40
1
 40
1
 40
1
 10
71.274583
 20
103.136226
 30
0.0
 10
71.240985
 20
103.091969
 30
0.0
 10
71.200425
 20
103.056090
 30
0.0
 10
71.152905
 20
103.028586
 30
0.0
  0
SPLINE
  5
38b
100
AcDbEntity
  8
Layer_1
 62
7
100
AcDbSpline
 70
8
 71
3
 72
8
 73
4
 74
0
 40
0
 40
0
 40
0
 40
0
 40
1
 40
1
 40
1
 40
1
 10
71.152905
 20
103.028586
 30
0.0
 10
71.075127
 20
102.982696
 30
0.0
 10
70.983373
 20
102.949761
 30
0.0
 10
70.877643
 20
102.929776
 30
0.0
  0
SPLINE
  5
38c
100
AcDbEntity
  8
Layer_1
 62
7
100
AcDbSpline
 70
8
 71
3
 72
8
 73
4
 74
0
 40
0
 40
0
 40
0
 40
0
 40
1
 40
1
 40
1
 40
1
 10
70.877643
 20
102.929776
 30
0.0
 10
70.771913
 20
102.909781
 30
0.0
 10
70.634041
 20
102.899321
 30
0.0
 10
70.464024
 20
102.898364
 30
0.0
  0
SPLINE
  5
38d
100
AcDbEntity
  8
Layer_1
 62
7
100
AcDbSpline
 70
8
 71
3
 72
8
 73
4
 74
0
 40
0
 40
0
 40
0
 40
0
 40
1
 40
1
 40
1
 40
1
 10
70.464024
 20
102.898364
 30
0.0
 10
70.199925
 20
102.896451
 30
0.0
 10
70.009209
 20
102.880219
 30
0.0
 10
69.891876
 20
102.849283
 30
0.0
  0
SPLINE
  5
38e
100
AcDbEntity
  8
Layer_1
 62
7
100
AcDbSpline
 70
8
 71
3
 72
8
 73
4
 74
0
 40
0
 40
0
 40
0
 40
0
 40
1
 40
1
 40
1
 40
1
 10
69.891876
 20
102.849283
 30
0.0
 10
69.774546
 20
102.818350
 30
0.0
 10
69.688476
 20
102.769001
 30
0.0
 10
69.633665
 20
102.701239
 30
0.0
  0
SPLINE
  5
38f
100
AcDbEntity
  8
Layer_1
 62
7
100
AcDbSpline
 70
8
 71
3
 72
8
 73
4
 74
0
 40
0
 40
0
 40
0
 40
0
 40
1
 40
1
 40
1
 40
1
 10
69.633665
 20
102.701239
 30
0.0
 10
69.576172
 20
102.630151
 30
0.0
 10
69.553088
 20
102.549642
 30
0.0
 10
69.564415
 20
102.459704
 30
0.0
  0
SPLINE
  5
390
100
AcDbEntity
  8
Layer_1
 62
7
100
AcDbSpline
 70
8
 71
3
 72
8
 73
4
 74
0
 40
0
 40
0
 40
0
 40
0
 40
1
 40
1
 40
1
 40
1
 10
69.564415
 20
102.459704
 30
0.0
 10
69.575746
 20
102.369766
 30
0.0
 10
69.622268
 20
102.291751
 30
0.0
 10
69.703982
 20
102.225660
 30
0.0
  0
SPLINE
  5
391
100
AcDbEntity
  8
Layer_1
 62
7
100
AcDbSpline
 70
8
 71
3
 72
8
 73
4
 74
0
 40
0
 40
0
 40
0
 40
0
 40
1
 40
1
 40
1
 40
1
 10
69.703982
 20
102.225660
 30
0.0
 10
69.790350
 20
102.155806
 30
0.0
 10
69.880400
 20
102.125833
 30
0.0
 10
69.974131
 20
102.135738
 30
0.0
  0
SPLINE
  5
392
100
AcDbEntity
  8
Layer_1
 62
7
100
AcDbSpline
 70
8
 71
3
 72
8
 73
4
 74
0
 40
0
 40
0
 40
0
 40
0
 40
1
 40
1
 40
1
 40
1
 10
69.974131
 20
102.135738
 30
0.0
 10
70.067864
 20
102.145655
 30
0.0
 10
70.152139
 20
102.196172
 30
0.0
 10
70.226956
 20
102.287315
 30
0.0
  0
LWPOLYLINE
  5
393
100
AcDbEntity
  8
Layer_1
 62
7
100
AcDbPolyline
 90
3
 70
0
 10
70.169500
 20
103.744851
 30
0.0
 10
70.308940
 20
103.917253
 30
0.0
 10
71.274583
 20
103.136226
 30
0.0
  0
SPLINE
  5
394
100
AcDbEntity
  8
Layer_1
 62
7
100
AcDbSpline
 70
8
 71
3
 72
8
 73
4
 74
0
 40
0
 40
0
 40
0
 40
0
 40
1
 40
1
 40
1
 40
1
 10
70.396001
 20
102.119270
 30
0.0
 10
70.272149
 20
101.991957
 30
0.0
 10
70.139882
 20
101.925576
 30
0.0
 10
69.999199
 20
101.920119
 30
0.0
  0
SPLINE
  5
395
100
AcDbEntity
  8
Layer_1
 62
7
100
AcDbSpline
 70
8
 71
3
 72
8
 73
4
 74
0
 40
0
 40
0
 40
0
 40
0
 40
1
 40
1
 40
1
 40
1
 10
69.999199
 20
101.920119
 30
0.0
 10
69.858519
 20
101.914666
 30
0.0
 10
69.718753
 20
101.968094
 30
0.0
 10
69.579900
 20
102.080400
 30
0.0
  0
SPLINE
  5
396
100
AcDbEntity
  8
Layer_1
 62
7
100
AcDbSpline
 70
8
 71
3
 72
8
 73
4
 74
0
 40
0
 40
0
 40
0
 40
0
 40
1
 40
1
 40
1
 40
1
 10
69.579900
 20
102.080400
 30
0.0
 10
69.439723
 20
102.193780
 30
0.0
 10
69.360210
 20
102.322378
 30
0.0
 10
69.341361
 20
102.466200
 30
0.0
  0
SPLINE
  5
397
100
AcDbEntity
  8
Layer_1
 62
7
100
AcDbSpline
 70
8
 71
3
 72
8
 73
4
 74
0
 40
0
 40
0
 40
0
 40
0
 40
1
 40
1
 40
1
 40
1
 10
69.341361
 20
102.466200
 30
0.0
 10
69.322517
 20
102.610025
 30
0.0
 10
69.359573
 20
102.739401
 30
0.0
 10
69.452530
 20
102.854338
 30
0.0
  0
SPLINE
  5
398
100
AcDbEntity
  8
Layer_1
 62
7
100
AcDbSpline
 70
8
 71
3
 72
8
 73
4
 74
0
 40
0
 40
0
 40
0
 40
0
 40
1
 40
1
 40
1
 40
1
 10
69.452530
 20
102.854338
 30
0.0
 10
69.499818
 20
102.912801
 30
0.0
 10
69.558256
 20
102.960594
 30
0.0
 10
69.627846
 20
102.997720
 30
0.0
  0
SPLINE
  5
399
100
AcDbEntity
  8
Layer_1
 62
7
100
AcDbSpline
 70
8
 71
3
 72
8
 73
4
 74
0
 40
0
 40
0
 40
0
 40
0
 40
1
 40
1
 40
1
 40
1
 10
69.627846
 20
102.997720
 30
0.0
 10
69.697438
 20
103.034845
 30
0.0
 10
69.785225
 20
103.062200
 30
0.0
 10
69.891208
 20
103.079781
 30
0.0
  0
SPLINE
  5
39a
100
AcDbEntity
  8
Layer_1
 62
7
100
AcDbSpline
 70
8
 71
3
 72
8
 73
4
 74
0
 40
0
 40
0
 40
0
 40
0
 40
1
 40
1
 40
1
 40
1
 10
69.891208
 20
103.079781
 30
0.0
 10
69.997193
 20
103.097352
 30
0.0
 10
70.158690
 20
103.108514
 30
0.0
 10
70.375698
 20
103.113221
 30
0.0
  0
SPLINE
  5
39b
100
AcDbEntity
  8
Layer_1
 62
7
100
AcDbSpline
 70
8
 71
3
 72
8
 73
4
 74
0
 40
0
 40
0
 40
0
 40
0
 40
1
 40
1
 40
1
 40
1
 10
70.375698
 20
103.113221
 30
0.0
 10
70.556403
 20
103.116537
 30
0.0
 10
70.675066
 20
103.121926
 30
0.0
 10
70.731686
 20
103.129420
 30
0.0
  0
SPLINE
  5
39c
100
AcDbEntity
  8
Layer_1
 62
7
100
AcDbSpline
 70
8
 71
3
 72
8
 73
4
 74
0
 40
0
 40
0
 40
0
 40
0
 40
1
 40
1
 40
1
 40
1
 10
70.731686
 20
103.129420
 30
0.0
 10
70.788308
 20
103.136914
 30
0.0
 10
70.839749
 20
103.148905
 30
0.0
 10
70.886009
 20
103.165325
 30
0.0
  0
LWPOLYLINE
  5
39d
100
AcDbEntity
  8
Layer_1
 62
7
100
AcDbPolyline
 90
2
 70
0
 10
70.226956
 20
102.287315
 30
0.0
 10
70.396001
 20
102.119270
 30
0.0
  0
LWPOLYLINE
  5
39e
100
AcDbEntity
  8
Layer_1
 62
7
100
AcDbPolyline
 90
2
 70
0
 10
70.886009
 20
103.165325
 30
0.0
 10
70.169500
 20
103.744851
 30
0.0
  0
ENDSEC
  0
SECTION
  2
OBJECTS
  0
DICTIONARY
  5
C
330
0
100
AcDbDictionary
  3
ACAD_GROUP
350
D
  3
ACAD_MLINESTYLE
350
17
  0
DICTIONARY
  5
D
330
C
100
AcDbDictionary
  0
DICTIONARY
  5
1A
330
C
100
AcDbDictionary
  0
DICTIONARY
  5
17
330
C
100
AcDbDictionary
  3
STANDARD
350
18
  0
DICTIONARY
  5
19
330
C
100
AcDbDictionary
  0
ENDSEC
  0
EOF
