999
DXF created by Inkscape
  0
SECTION
  2
HEADER
  9
$ACADVER
  1
AC1014
  9
$HANDSEED
  5
FFFF
  9
$MEASUREMENT
 70
     1
  0
ENDSEC
  0
SECTION
  2
TABLES
  0
TABLE
  2
VPORT
  5
8
330
0
100
AcDbSymbolTable
 70
     4
  0
VPORT
  5
2E
330
8
100
AcDbSymbolTableRecord
100
AcDbViewportTableRecord
  2
*ACTIVE
 70
     0
 10
0.0
 20
0.0
 11
1.0
 21
1.0
 12
210.0
 22
148.5
 13
0.0
 23
0.0
 14
10.0
 24
10.0
 15
10.0
 25
10.0
 16
0.0
 26
0.0
 36
1.0
 17
0.0
 27
0.0
 37
0.0
 40
341.0
 41
1.24
 42
50.0
 43
0.0
 44
0.0
 50
0.0
 51
0.0
 71
     0
 72
   100
 73
     1
 74
     3
 75
     0
 76
     0
 77
     0
 78
     0
  0
ENDTAB
  0
TABLE
  2
LTYPE
  5
5
330
0
100
AcDbSymbolTable
 70
     1
  0
LTYPE
  5
14
330
5
100
AcDbSymbolTableRecord
100
AcDbLinetypeTableRecord
  2
BYBLOCK
 70
     0
  3

 72
    65
 73
     0
 40
0.0
  0
LTYPE
  5
15
330
5
100
AcDbSymbolTableRecord
100
AcDbLinetypeTableRecord
  2
BYLAYER
 70
     0
  3

 72
    65
 73
     0
 40
0.0
  0
LTYPE
  5
16
330
5
100
AcDbSymbolTableRecord
100
AcDbLinetypeTableRecord
  2
CONTINUOUS
 70
     0
  3
Solid line
 72
    65
 73
     0
 40
0.0
  0
ENDTAB
  0
TABLE
  2
LAYER
  5
2
100
AcDbSymbolTable
 70
2
  0
LAYER
  5
50
100
AcDbSymbolTableRecord
100
AcDbLayerTableRecord
  2
0
 70
0
  6
CONTINUOUS
  0
LAYER
  5
51
100
AcDbSymbolTableRecord
100
AcDbLayerTableRecord
  2
Layer_1
 70
0
  6
CONTINUOUS
  0
ENDTAB
  0
TABLE
  2
STYLE
  5
3
330
0
100
AcDbSymbolTable
 70
     1
  0
STYLE
  5
11
330
3
100
AcDbSymbolTableRecord
100
AcDbTextStyleTableRecord
  2
STANDARD
 70
     0
 40
0.0
 41
1.0
 50
0.0
 71
     0
 42
2.5
  3
txt
  4

  0
ENDTAB
  0
TABLE
  2
VIEW
  5
6
330
0
100
AcDbSymbolTable
 70
     0
  0
ENDTAB
  0
TABLE
  2
UCS
  5
7
330
0
100
AcDbSymbolTable
 70
     0
  0
ENDTAB
  0
TABLE
  2
APPID
  5
9
330
0
100
AcDbSymbolTable
 70
     2
  0
APPID
  5
12
330
9
100
AcDbSymbolTableRecord
100
AcDbRegAppTableRecord
  2
ACAD
 70
     0
  0
ENDTAB
  0
TABLE
  2
DIMSTYLE
  5
A
330
0
100
AcDbSymbolTable
 70
     1
  0
DIMSTYLE
105
27
330
A
100
AcDbSymbolTableRecord
100
AcDbDimStyleTableRecord
  2
ISO-25
 70
     0
  3

  4

  5

  6

  7

 40
1.0
 41
2.5
 42
0.625
 43
3.75
 44
1.25
 45
0.0
 46
0.0
 47
0.0
 48
0.0
140
2.5
141
2.5
142
0.0
143
0.03937007874016
144
1.0
145
0.0
146
1.0
147
0.625
 71
     0
 72
     0
 73
     0
 74
     0
 75
     0
 76
     0
 77
     1
 78
     8
170
     0
171
     3
172
     1
173
     0
174
     0
175
     0
176
     0
177
     0
178
     0
270
     2
271
     2
272
     2
273
     2
274
     3
340
11
275
     0
280
     0
281
     0
282
     0
283
     0
284
     8
285
     0
286
     0
287
     3
288
     0
  0
ENDTAB
  0
TABLE
  2
BLOCK_RECORD
  5
1
330
0
100
AcDbSymbolTable
 70
     1
  0
BLOCK_RECORD
  5
1F
330
1
100
AcDbSymbolTableRecord
100
AcDbBlockTableRecord
  2
*MODEL_SPACE
  0
BLOCK_RECORD
  5
1B
330
1
100
AcDbSymbolTableRecord
100
AcDbBlockTableRecord
  2
*PAPER_SPACE
  0
ENDTAB
  0
ENDSEC
  0
SECTION
  2
BLOCKS
  0
BLOCK
  5
20
330
1F
100
AcDbEntity
  8
0
100
AcDbBlockBegin
  2
*MODEL_SPACE
 70
     0
 10
0.0
 20
0.0
 30
0.0
  3
*MODEL_SPACE
  1

  0
ENDBLK
  5
21
330
1F
100
AcDbEntity
  8
0
100
AcDbBlockEnd
  0
BLOCK
  5
1C
330
1B
100
AcDbEntity
 67
     1
  8
0
100
AcDbBlockBegin
  2
*PAPER_SPACE
  1

  0
ENDBLK
  5
1D
330
1B
100
AcDbEntity
 67
     1
  8
0
100
AcDbBlockEnd
  0
ENDSEC
  0
SECTION
  2
ENTITIES
  0
LWPOLYLINE
  5
100
100
AcDbEntity
  8
Layer_1
 62
7
100
AcDbPolyline
 90
6
 70
0
 10
74.212047
 20
134.672721
 30
0.0
 10
90.908112
 20
134.672721
 30
0.0
 10
90.908112
 20
117.976656
 30
0.0
 10
74.212047
 20
117.976656
 30
0.0
 10
74.212047
 20
134.672721
 30
0.0
 10
74.212047
 20
134.672721
 30
0.0
  0
LWPOLYLINE
  5
101
100
AcDbEntity
  8
Layer_1
 62
7
100
AcDbPolyline
 90
6
 70
0
 10
75.175234
 20
130.093681
 30
0.0
 10
89.944924
 20
130.093681
 30
0.0
 10
89.944924
 20
122.555696
 30
0.0
 10
75.175234
 20
122.555696
 30
0.0
 10
75.175234
 20
130.093681
 30
0.0
 10
75.175234
 20
130.093681
 30
0.0
  0
LWPOLYLINE
  5
102
100
AcDbEntity
  8
Layer_1
 62
7
100
AcDbPolyline
 90
6
 70
0
 10
75.749163
 20
123.129624
 30
0.0
 10
89.370995
 20
123.129624
 30
0.0
 10
89.370995
 20
129.519666
 30
0.0
 10
75.749163
 20
129.519666
 30
0.0
 10
75.749163
 20
123.129624
 30
0.0
 10
75.749163
 20
123.129624
 30
0.0
  0
LWPOLYLINE
  5
103
100
AcDbEntity
  8
Layer_1
 62
7
100
AcDbPolyline
 90
10
 70
0
 10
80.168567
 20
129.117933
 30
0.0
 10
79.001568
 20
124.055220
 30
0.0
 10
79.135478
 20
123.646212
 30
0.0
 10
77.911052
 20
123.646212
 30
0.0
 10
76.418717
 20
129.117933
 30
0.0
 10
77.608496
 20
129.118799
 30
0.0
 10
78.739116
 20
125.045866
 30
0.0
 10
79.677445
 20
129.116461
 30
0.0
 10
80.168567
 20
129.117933
 30
0.0
 10
80.168567
 20
129.117933
 30
0.0
  0
LWPOLYLINE
  5
104
100
AcDbEntity
  8
Layer_1
 62
7
100
AcDbPolyline
 90
13
 70
0
 10
83.229373
 20
125.674190
 30
0.0
 10
82.808758
 20
125.215117
 30
0.0
 10
81.813868
 20
125.215117
 30
0.0
 10
81.813868
 20
123.646212
 30
0.0
 10
80.666012
 20
123.646212
 30
0.0
 10
80.666012
 20
125.215117
 30
0.0
 10
80.231105
 20
125.215117
 30
0.0
 10
80.666012
 20
125.674190
 30
0.0
 10
80.666012
 20
129.117933
 30
0.0
 10
81.813868
 20
129.117933
 30
0.0
 10
81.813868
 20
125.674190
 30
0.0
 10
83.229373
 20
125.674190
 30
0.0
 10
83.229373
 20
125.674190
 30
0.0
  0
SPLINE
  5
105
100
AcDbEntity
  8
Layer_1
 62
7
100
AcDbSpline
 70
8
 71
3
 72
8
 73
4
 74
0
 40
0
 40
0
 40
0
 40
0
 40
1
 40
1
 40
1
 40
1
 10
88.873550
 20
125.178910
 30
0.0
 10
88.873550
 20
124.693072
 30
0.0
 10
88.689401
 20
124.316112
 30
0.0
 10
88.321710
 20
124.048291
 30
0.0
  0
SPLINE
  5
106
100
AcDbEntity
  8
Layer_1
 62
7
100
AcDbSpline
 70
8
 71
3
 72
8
 73
4
 74
0
 40
0
 40
0
 40
0
 40
0
 40
1
 40
1
 40
1
 40
1
 10
88.321710
 20
124.048291
 30
0.0
 10
87.953758
 20
123.780209
 30
0.0
 10
87.573160
 20
123.646212
 30
0.0
 10
87.180349
 20
123.646212
 30
0.0
  0
LWPOLYLINE
  5
107
100
AcDbEntity
  8
Layer_1
 62
7
100
AcDbPolyline
 90
6
 70
0
 10
83.229720
 20
129.117933
 30
0.0
 10
84.377576
 20
129.117933
 30
0.0
 10
84.377576
 20
123.646212
 30
0.0
 10
83.229720
 20
123.646212
 30
0.0
 10
83.229720
 20
129.117933
 30
0.0
 10
83.229720
 20
129.117933
 30
0.0
  0
SPLINE
  5
108
100
AcDbEntity
  8
Layer_1
 62
7
100
AcDbSpline
 70
8
 71
3
 72
8
 73
4
 74
0
 40
0
 40
0
 40
0
 40
0
 40
1
 40
1
 40
1
 40
1
 10
86.774719
 20
124.105372
 30
0.0
 10
87.161207
 20
124.105372
 30
0.0
 10
87.432407
 20
124.178650
 30
0.0
 10
87.587799
 20
124.325121
 30
0.0
  0
SPLINE
  5
109
100
AcDbEntity
  8
Layer_1
 62
7
100
AcDbSpline
 70
8
 71
3
 72
8
 73
4
 74
0
 40
0
 40
0
 40
0
 40
0
 40
1
 40
1
 40
1
 40
1
 10
87.587799
 20
124.325121
 30
0.0
 10
87.743277
 20
124.471591
 30
0.0
 10
87.821320
 20
124.637204
 30
0.0
 10
87.821320
 20
124.821353
 30
0.0
  0
SPLINE
  5
10a
100
AcDbEntity
  8
Layer_1
 62
7
100
AcDbSpline
 70
8
 71
3
 72
8
 73
4
 74
0
 40
0
 40
0
 40
0
 40
0
 40
1
 40
1
 40
1
 40
1
 10
87.821320
 20
124.821353
 30
0.0
 10
87.821320
 20
125.022219
 30
0.0
 10
87.795854
 20
125.166871
 30
0.0
 10
87.745702
 20
125.254787
 30
0.0
  0
SPLINE
  5
10b
100
AcDbEntity
  8
Layer_1
 62
7
100
AcDbSpline
 70
8
 71
3
 72
8
 73
4
 74
0
 40
0
 40
0
 40
0
 40
0
 40
1
 40
1
 40
1
 40
1
 10
87.745702
 20
125.254787
 30
0.0
 10
87.695118
 20
125.342704
 30
0.0
 10
87.560601
 20
125.437204
 30
0.0
 10
87.342411
 20
125.537594
 30
0.0
  0
LWPOLYLINE
  5
10c
100
AcDbEntity
  8
Layer_1
 62
7
100
AcDbPolyline
 90
4
 70
0
 10
87.180349
 20
123.646212
 30
0.0
 10
85.386758
 20
123.646212
 30
0.0
 10
85.223831
 20
124.105372
 30
0.0
 10
86.774719
 20
124.105372
 30
0.0
  0
SPLINE
  5
10d
100
AcDbEntity
  8
Layer_1
 62
7
100
AcDbSpline
 70
8
 71
3
 72
8
 73
4
 74
0
 40
0
 40
0
 40
0
 40
0
 40
1
 40
1
 40
1
 40
1
 10
85.906031
 20
126.015030
 30
0.0
 10
85.628595
 20
126.115420
 30
0.0
 10
85.380782
 20
126.280773
 30
0.0
 10
85.162592
 20
126.510916
 30
0.0
  0
SPLINE
  5
10e
100
AcDbEntity
  8
Layer_1
 62
7
100
AcDbSpline
 70
8
 71
3
 72
8
 73
4
 74
0
 40
0
 40
0
 40
0
 40
0
 40
1
 40
1
 40
1
 40
1
 10
85.162592
 20
126.510916
 30
0.0
 10
84.944056
 20
126.741146
 30
0.0
 10
84.834917
 20
127.090908
 30
0.0
 10
84.834917
 20
127.560202
 30
0.0
  0
SPLINE
  5
10f
100
AcDbEntity
  8
Layer_1
 62
7
100
AcDbSpline
 70
8
 71
3
 72
8
 73
4
 74
0
 40
0
 40
0
 40
0
 40
0
 40
1
 40
1
 40
1
 40
1
 10
84.834917
 20
127.560202
 30
0.0
 10
84.834917
 20
128.054009
 30
0.0
 10
85.025909
 20
128.437205
 30
0.0
 10
85.407980
 20
128.709618
 30
0.0
  0
SPLINE
  5
110
100
AcDbEntity
  8
Layer_1
 62
7
100
AcDbSpline
 70
8
 71
3
 72
8
 73
4
 74
0
 40
0
 40
0
 40
0
 40
0
 40
1
 40
1
 40
1
 40
1
 10
85.407980
 20
128.709618
 30
0.0
 10
85.790050
 20
128.981597
 30
0.0
 10
86.233012
 20
129.117933
 30
0.0
 10
86.737040
 20
129.117933
 30
0.0
  0
LWPOLYLINE
  5
111
100
AcDbEntity
  8
Layer_1
 62
7
100
AcDbPolyline
 90
2
 70
0
 10
87.342411
 20
125.537594
 30
0.0
 10
85.906031
 20
126.015030
 30
0.0
  0
SPLINE
  5
112
100
AcDbEntity
  8
Layer_1
 62
7
100
AcDbSpline
 70
8
 71
3
 72
8
 73
4
 74
0
 40
0
 40
0
 40
0
 40
0
 40
1
 40
1
 40
1
 40
1
 10
87.465581
 20
128.658773
 30
0.0
 10
87.053281
 20
128.658773
 30
0.0
 10
86.695810
 20
128.595715
 30
0.0
 10
86.392995
 20
128.470120
 30
0.0
  0
SPLINE
  5
113
100
AcDbEntity
  8
Layer_1
 62
7
100
AcDbSpline
 70
8
 71
3
 72
8
 73
4
 74
0
 40
0
 40
0
 40
0
 40
0
 40
1
 40
1
 40
1
 40
1
 10
86.392995
 20
128.470120
 30
0.0
 10
86.090180
 20
128.344611
 30
0.0
 10
85.938859
 20
128.122523
 30
0.0
 10
85.938859
 20
127.804377
 30
0.0
  0
SPLINE
  5
114
100
AcDbEntity
  8
Layer_1
 62
7
100
AcDbSpline
 70
8
 71
3
 72
8
 73
4
 74
0
 40
0
 40
0
 40
0
 40
0
 40
1
 40
1
 40
1
 40
1
 10
85.938859
 20
127.804377
 30
0.0
 10
85.938859
 20
127.502774
 30
0.0
 10
86.093471
 20
127.278868
 30
0.0
 10
86.402870
 20
127.132398
 30
0.0
  0
SPLINE
  5
115
100
AcDbEntity
  8
Layer_1
 62
7
100
AcDbSpline
 70
8
 71
3
 72
8
 73
4
 74
0
 40
0
 40
0
 40
0
 40
0
 40
1
 40
1
 40
1
 40
1
 10
86.402870
 20
127.132398
 30
0.0
 10
86.712181
 20
126.985927
 30
0.0
 10
87.065581
 20
126.868474
 30
0.0
 10
87.462549
 20
126.780557
 30
0.0
  0
SPLINE
  5
116
100
AcDbEntity
  8
Layer_1
 62
7
100
AcDbSpline
 70
8
 71
3
 72
8
 73
4
 74
0
 40
0
 40
0
 40
0
 40
0
 40
1
 40
1
 40
1
 40
1
 10
87.462549
 20
126.780557
 30
0.0
 10
87.859518
 20
126.692640
 30
0.0
 10
88.194035
 20
126.524948
 30
0.0
 10
88.465841
 20
126.278088
 30
0.0
  0
SPLINE
  5
117
100
AcDbEntity
  8
Layer_1
 62
7
100
AcDbSpline
 70
8
 71
3
 72
8
 73
4
 74
0
 40
0
 40
0
 40
0
 40
0
 40
1
 40
1
 40
1
 40
1
 10
88.465841
 20
126.278088
 30
0.0
 10
88.737474
 20
126.031141
 30
0.0
 10
88.873550
 20
125.664575
 30
0.0
 10
88.873550
 20
125.178910
 30
0.0
  0
SPLINE
  5
118
100
AcDbEntity
  8
Layer_1
 62
1
100
AcDbSpline
 70
8
 71
3
 72
8
 73
4
 74
0
 40
0
 40
0
 40
0
 40
0
 40
1
 40
1
 40
1
 40
1
 10
103.163082
 20
114.462965
 30
0.0
 10
103.163082
 20
103.430426
 30
0.0
 10
94.219442
 20
94.486786
 30
0.0
 10
83.186902
 20
94.486786
 30
0.0
  0
SPLINE
  5
119
100
AcDbEntity
  8
Layer_1
 62
1
100
AcDbSpline
 70
8
 71
3
 72
8
 73
4
 74
0
 40
0
 40
0
 40
0
 40
0
 40
1
 40
1
 40
1
 40
1
 10
83.186902
 20
94.486786
 30
0.0
 10
72.154364
 20
94.486786
 30
0.0
 10
63.210723
 20
103.430426
 30
0.0
 10
63.210723
 20
114.462965
 30
0.0
  0
SPLINE
  5
11a
100
AcDbEntity
  8
Layer_1
 62
1
100
AcDbSpline
 70
8
 71
3
 72
8
 73
4
 74
0
 40
0
 40
0
 40
0
 40
0
 40
1
 40
1
 40
1
 40
1
 10
63.210723
 20
114.462965
 30
0.0
 10
63.210723
 20
125.495505
 30
0.0
 10
72.154364
 20
134.439145
 30
0.0
 10
83.186902
 20
134.439145
 30
0.0
  0
SPLINE
  5
11b
100
AcDbEntity
  8
Layer_1
 62
1
100
AcDbSpline
 70
8
 71
3
 72
8
 73
4
 74
0
 40
0
 40
0
 40
0
 40
0
 40
1
 40
1
 40
1
 40
1
 10
83.186902
 20
134.439145
 30
0.0
 10
94.219442
 20
134.439145
 30
0.0
 10
103.163082
 20
125.495505
 30
0.0
 10
103.163082
 20
114.462965
 30
0.0
  0
LWPOLYLINE
  5
11c
100
AcDbEntity
  8
Layer_1
 62
7
100
AcDbPolyline
 90
4
 70
0
 10
86.737040
 20
129.117933
 30
0.0
 10
88.777838
 20
129.117933
 30
0.0
 10
88.651723
 20
128.658773
 30
0.0
 10
87.465581
 20
128.658773
 30
0.0
  0
SPLINE
  5
11d
100
AcDbEntity
  8
Layer_1
 62
7
100
AcDbSpline
 70
8
 71
3
 72
8
 73
4
 74
0
 40
0
 40
0
 40
0
 40
0
 40
1
 40
1
 40
1
 40
1
 10
79.810208
 20
115.736548
 30
0.0
 10
79.504525
 20
116.364416
 30
0.0
 10
78.868636
 20
116.763822
 30
0.0
 10
78.170419
 20
116.767030
 30
0.0
  0
LWPOLYLINE
  5
11e
100
AcDbEntity
  8
Layer_1
 62
1
100
AcDbPolyline
 90
2
 70
0
 10
103.163082
 20
114.462965
 30
0.0
 10
103.163082
 20
114.462965
 30
0.0
  0
SPLINE
  5
11f
100
AcDbEntity
  8
Layer_1
 62
7
100
AcDbSpline
 70
8
 71
3
 72
8
 73
4
 74
0
 40
0
 40
0
 40
0
 40
0
 40
1
 40
1
 40
1
 40
1
 10
77.332193
 20
119.066765
 30
0.0
 10
77.424311
 20
119.285373
 30
0.0
 10
77.475411
 20
119.525751
 30
0.0
 10
77.475411
 20
119.778043
 30
0.0
  0
SPLINE
  5
120
100
AcDbEntity
  8
Layer_1
 62
7
100
AcDbSpline
 70
8
 71
3
 72
8
 73
4
 74
0
 40
0
 40
0
 40
0
 40
0
 40
1
 40
1
 40
1
 40
1
 10
77.475411
 20
119.778043
 30
0.0
 10
77.475411
 20
120.790423
 30
0.0
 10
76.655288
 20
121.611234
 30
0.0
 10
75.642680
 20
121.611234
 30
0.0
  0
LWPOLYLINE
  5
121
100
AcDbEntity
  8
Layer_1
 62
7
100
AcDbPolyline
 90
3
 70
0
 10
78.170419
 20
116.767030
 30
0.0
 10
76.452262
 20
116.774591
 30
0.0
 10
77.332193
 20
119.066765
 30
0.0
  0
SPLINE
  5
122
100
AcDbEntity
  8
Layer_1
 62
7
100
AcDbSpline
 70
8
 71
3
 72
8
 73
4
 74
0
 40
0
 40
0
 40
0
 40
0
 40
1
 40
1
 40
1
 40
1
 10
71.882134
 20
121.611234
 30
0.0
 10
71.112653
 20
121.611234
 30
0.0
 10
70.424977
 20
121.130709
 30
0.0
 10
70.160540
 20
120.407973
 30
0.0
  0
LWPOLYLINE
  5
123
100
AcDbEntity
  8
Layer_1
 62
7
100
AcDbPolyline
 90
3
 70
0
 10
75.642680
 20
121.611234
 30
0.0
 10
75.641777
 20
121.611234
 30
0.0
 10
71.882134
 20
121.611234
 30
0.0
  0
SPLINE
  5
124
100
AcDbEntity
  8
Layer_1
 62
7
100
AcDbSpline
 70
8
 71
3
 72
8
 73
4
 74
0
 40
0
 40
0
 40
0
 40
0
 40
1
 40
1
 40
1
 40
1
 10
67.465746
 20
113.043135
 30
0.0
 10
67.260429
 20
112.482405
 30
0.0
 10
67.341318
 20
111.856831
 30
0.0
 10
67.682062
 20
111.366683
 30
0.0
  0
SPLINE
  5
125
100
AcDbEntity
  8
Layer_1
 62
7
100
AcDbSpline
 70
8
 71
3
 72
8
 73
4
 74
0
 40
0
 40
0
 40
0
 40
0
 40
1
 40
1
 40
1
 40
1
 10
67.682062
 20
111.366683
 30
0.0
 10
68.023036
 20
110.876533
 30
0.0
 10
68.581242
 20
110.582994
 30
0.0
 10
69.178175
 20
110.580016
 30
0.0
  0
LWPOLYLINE
  5
126
100
AcDbEntity
  8
Layer_1
 62
7
100
AcDbPolyline
 90
2
 70
0
 10
70.160540
 20
120.407973
 30
0.0
 10
67.465746
 20
113.043135
 30
0.0
  0
SPLINE
  5
127
100
AcDbEntity
  8
Layer_1
 62
7
100
AcDbSpline
 70
8
 71
3
 72
8
 73
4
 74
0
 40
0
 40
0
 40
0
 40
0
 40
1
 40
1
 40
1
 40
1
 10
68.831931
 20
105.743371
 30
0.0
 10
68.535183
 20
104.895293
 30
0.0
 10
68.896780
 20
103.956929
 30
0.0
 10
69.686197
 20
103.527503
 30
0.0
  0
SPLINE
  5
128
100
AcDbEntity
  8
Layer_1
 62
7
100
AcDbSpline
 70
8
 71
3
 72
8
 73
4
 74
0
 40
0
 40
0
 40
0
 40
0
 40
1
 40
1
 40
1
 40
1
 10
69.686197
 20
103.527503
 30
0.0
 10
69.963009
 20
103.376951
 30
0.0
 10
70.263881
 20
103.304313
 30
0.0
 10
70.561316
 20
103.304313
 30
0.0
  0
SPLINE
  5
129
100
AcDbEntity
  8
Layer_1
 62
7
100
AcDbSpline
 70
8
 71
3
 72
8
 73
4
 74
0
 40
0
 40
0
 40
0
 40
0
 40
1
 40
1
 40
1
 40
1
 10
70.561316
 20
103.304313
 30
0.0
 10
71.112648
 20
103.304313
 30
0.0
 10
71.652981
 20
103.552940
 30
0.0
 10
72.010682
 20
104.013986
 30
0.0
  0
LWPOLYLINE
  5
12a
100
AcDbEntity
  8
Layer_1
 62
7
100
AcDbPolyline
 90
3
 70
0
 10
69.178175
 20
110.580016
 30
0.0
 10
70.522132
 20
110.573598
 30
0.0
 10
68.831931
 20
105.743371
 30
0.0
  0
SPLINE
  5
12b
100
AcDbEntity
  8
Layer_1
 62
7
100
AcDbSpline
 70
8
 71
3
 72
8
 73
4
 74
0
 40
0
 40
0
 40
0
 40
0
 40
1
 40
1
 40
1
 40
1
 10
79.610849
 20
113.810102
 30
0.0
 10
80.038670
 20
114.361888
 30
0.0
 10
80.116121
 20
115.108915
 30
0.0
 10
79.810208
 20
115.736553
 30
0.0
  0
LWPOLYLINE
  5
12c
100
AcDbEntity
  8
Layer_1
 62
7
100
AcDbPolyline
 90
2
 70
0
 10
72.010682
 20
104.013986
 30
0.0
 10
79.610849
 20
113.810102
 30
0.0
  0
LWPOLYLINE
  5
12d
100
AcDbEntity
  8
Layer_1
 62
7
100
AcDbPolyline
 90
2
 70
0
 10
79.810208
 20
115.736553
 30
0.0
 10
79.810208
 20
115.736548
 30
0.0
  0
SPLINE
  5
12e
100
AcDbEntity
  8
Layer_1
 62
7
100
AcDbSpline
 70
8
 71
3
 72
8
 73
4
 74
0
 40
0
 40
0
 40
0
 40
0
 40
1
 40
1
 40
1
 40
1
 10
159.365481
 20
110.890230
 30
0.0
 10
159.365481
 20
100.969701
 30
0.0
 10
151.323303
 20
92.927524
 30
0.0
 10
141.402773
 20
92.927524
 30
0.0
  0
SPLINE
  5
12f
100
AcDbEntity
  8
Layer_1
 62
7
100
AcDbSpline
 70
8
 71
3
 72
8
 73
4
 74
0
 40
0
 40
0
 40
0
 40
0
 40
1
 40
1
 40
1
 40
1
 10
141.402773
 20
92.927524
 30
0.0
 10
131.482244
 20
92.927524
 30
0.0
 10
123.440066
 20
100.969701
 30
0.0
 10
123.440066
 20
110.890230
 30
0.0
  0
SPLINE
  5
130
100
AcDbEntity
  8
Layer_1
 62
7
100
AcDbSpline
 70
8
 71
3
 72
8
 73
4
 74
0
 40
0
 40
0
 40
0
 40
0
 40
1
 40
1
 40
1
 40
1
 10
123.440066
 20
110.890230
 30
0.0
 10
123.440066
 20
120.810760
 30
0.0
 10
131.482244
 20
128.852938
 30
0.0
 10
141.402773
 20
128.852938
 30
0.0
  0
SPLINE
  5
131
100
AcDbEntity
  8
Layer_1
 62
7
100
AcDbSpline
 70
8
 71
3
 72
8
 73
4
 74
0
 40
0
 40
0
 40
0
 40
0
 40
1
 40
1
 40
1
 40
1
 10
141.402773
 20
128.852938
 30
0.0
 10
151.323303
 20
128.852938
 30
0.0
 10
159.365481
 20
120.810760
 30
0.0
 10
159.365481
 20
110.890230
 30
0.0
  0
LWPOLYLINE
  5
132
100
AcDbEntity
  8
Layer_1
 62
7
100
AcDbPolyline
 90
9
 70
0
 10
70.562223
 20
105.137733
 30
0.0
 10
73.101878
 20
112.394185
 30
0.0
 10
69.187331
 20
112.413188
 30
0.0
 10
71.882120
 20
119.778030
 30
0.0
 10
75.641763
 20
119.778030
 30
0.0
 10
73.789325
 20
114.953085
 30
0.0
 10
78.162398
 20
114.934066
 30
0.0
 10
70.562223
 20
105.137730
 30
0.0
 10
70.562223
 20
105.137733
 30
0.0
  0
LWPOLYLINE
  5
133
100
AcDbEntity
  8
Layer_1
 62
7
100
AcDbPolyline
 90
2
 70
0
 10
159.365481
 20
110.890230
 30
0.0
 10
159.365481
 20
110.890230
 30
0.0
  0
SPLINE
  5
134
100
AcDbEntity
  8
Layer_1
 62
7
100
AcDbSpline
 70
8
 71
3
 72
8
 73
4
 74
0
 40
0
 40
0
 40
0
 40
0
 40
1
 40
1
 40
1
 40
1
 10
70.891608
 20
128.778725
 30
0.0
 10
70.963508
 20
128.735063
 30
0.0
 10
71.035552
 20
128.687563
 30
0.0
 10
71.107736
 20
128.636222
 30
0.0
  0
SPLINE
  5
135
100
AcDbEntity
  8
Layer_1
 62
7
100
AcDbSpline
 70
8
 71
3
 72
8
 73
4
 74
0
 40
0
 40
0
 40
0
 40
0
 40
1
 40
1
 40
1
 40
1
 10
71.107736
 20
128.636222
 30
0.0
 10
71.081460
 20
128.698019
 30
0.0
 10
71.052662
 20
128.774566
 30
0.0
 10
71.021312
 20
128.865863
 30
0.0
  0
LWPOLYLINE
  5
136
100
AcDbEntity
  8
Layer_1
 62
7
100
AcDbPolyline
 90
4
 70
0
 10
71.187969
 20
128.386742
 30
0.0
 10
70.055758
 20
129.045672
 30
0.0
 10
70.226058
 20
129.183451
 30
0.0
 10
70.891608
 20
128.778725
 30
0.0
  0
SPLINE
  5
137
100
AcDbEntity
  8
Layer_1
 62
7
100
AcDbSpline
 70
8
 71
3
 72
8
 73
4
 74
0
 40
0
 40
0
 40
0
 40
0
 40
1
 40
1
 40
1
 40
1
 10
72.413860
 20
129.491756
 30
0.0
 10
72.388502
 20
129.394119
 30
0.0
 10
72.354453
 20
129.313866
 30
0.0
 10
72.311726
 20
129.250996
 30
0.0
  0
SPLINE
  5
138
100
AcDbEntity
  8
Layer_1
 62
7
100
AcDbSpline
 70
8
 71
3
 72
8
 73
4
 74
0
 40
0
 40
0
 40
0
 40
0
 40
1
 40
1
 40
1
 40
1
 10
72.311726
 20
129.250996
 30
0.0
 10
72.268996
 20
129.188126
 30
0.0
 10
72.214293
 20
129.133283
 30
0.0
 10
72.147616
 20
129.086465
 30
0.0
  0
SPLINE
  5
139
100
AcDbEntity
  8
Layer_1
 62
7
100
AcDbSpline
 70
8
 71
3
 72
8
 73
4
 74
0
 40
0
 40
0
 40
0
 40
0
 40
1
 40
1
 40
1
 40
1
 10
72.147616
 20
129.086465
 30
0.0
 10
72.037533
 20
129.009175
 30
0.0
 10
71.934045
 20
128.976663
 30
0.0
 10
71.837154
 20
128.988929
 30
0.0
  0
SPLINE
  5
13a
100
AcDbEntity
  8
Layer_1
 62
7
100
AcDbSpline
 70
8
 71
3
 72
8
 73
4
 74
0
 40
0
 40
0
 40
0
 40
0
 40
1
 40
1
 40
1
 40
1
 10
71.837154
 20
128.988929
 30
0.0
 10
71.740263
 20
129.001206
 30
0.0
 10
71.662446
 20
129.049160
 30
0.0
 10
71.603704
 20
129.132821
 30
0.0
  0
SPLINE
  5
13b
100
AcDbEntity
  8
Layer_1
 62
7
100
AcDbSpline
 70
8
 71
3
 72
8
 73
4
 74
0
 40
0
 40
0
 40
0
 40
0
 40
1
 40
1
 40
1
 40
1
 10
71.603704
 20
129.132821
 30
0.0
 10
71.569255
 20
129.181884
 30
0.0
 10
71.548952
 20
129.234545
 30
0.0
 10
71.542793
 20
129.290797
 30
0.0
  0
SPLINE
  5
13c
100
AcDbEntity
  8
Layer_1
 62
7
100
AcDbSpline
 70
8
 71
3
 72
8
 73
4
 74
0
 40
0
 40
0
 40
0
 40
0
 40
1
 40
1
 40
1
 40
1
 10
71.542793
 20
129.290797
 30
0.0
 10
71.536626
 20
129.347049
 30
0.0
 10
71.543031
 20
129.400137
 30
0.0
 10
71.561983
 20
129.450067
 30
0.0
  0
SPLINE
  5
13d
100
AcDbEntity
  8
Layer_1
 62
7
100
AcDbSpline
 70
8
 71
3
 72
8
 73
4
 74
0
 40
0
 40
0
 40
0
 40
0
 40
1
 40
1
 40
1
 40
1
 10
71.561983
 20
129.450067
 30
0.0
 10
71.580916
 20
129.499994
 30
0.0
 10
71.608629
 20
129.547150
 30
0.0
 10
71.645085
 20
129.591532
 30
0.0
  0
SPLINE
  5
13e
100
AcDbEntity
  8
Layer_1
 62
7
100
AcDbSpline
 70
8
 71
3
 72
8
 73
4
 74
0
 40
0
 40
0
 40
0
 40
0
 40
1
 40
1
 40
1
 40
1
 10
71.645085
 20
129.591532
 30
0.0
 10
71.672250
 20
129.623746
 30
0.0
 10
71.716601
 20
129.667571
 30
0.0
 10
71.778168
 20
129.723006
 30
0.0
  0
SPLINE
  5
13f
100
AcDbEntity
  8
Layer_1
 62
7
100
AcDbSpline
 70
8
 71
3
 72
8
 73
4
 74
0
 40
0
 40
0
 40
0
 40
0
 40
1
 40
1
 40
1
 40
1
 10
71.778168
 20
129.723006
 30
0.0
 10
71.903813
 20
129.835645
 30
0.0
 10
71.991083
 20
129.926033
 30
0.0
 10
72.039974
 20
129.994169
 30
0.0
  0
SPLINE
  5
140
100
AcDbEntity
  8
Layer_1
 62
7
100
AcDbSpline
 70
8
 71
3
 72
8
 73
4
 74
0
 40
0
 40
0
 40
0
 40
0
 40
1
 40
1
 40
1
 40
1
 10
72.039974
 20
129.994169
 30
0.0
 10
72.024255
 20
130.017892
 30
0.0
 10
72.014186
 20
130.032889
 30
0.0
 10
72.009780
 20
130.039180
 30
0.0
  0
SPLINE
  5
141
100
AcDbEntity
  8
Layer_1
 62
7
100
AcDbSpline
 70
8
 71
3
 72
8
 73
4
 74
0
 40
0
 40
0
 40
0
 40
0
 40
1
 40
1
 40
1
 40
1
 10
72.009780
 20
130.039180
 30
0.0
 10
71.961198
 20
130.108372
 30
0.0
 10
71.910927
 20
130.145861
 30
0.0
 10
71.858972
 20
130.151644
 30
0.0
  0
SPLINE
  5
142
100
AcDbEntity
  8
Layer_1
 62
7
100
AcDbSpline
 70
8
 71
3
 72
8
 73
4
 74
0
 40
0
 40
0
 40
0
 40
0
 40
1
 40
1
 40
1
 40
1
 10
71.858972
 20
130.151644
 30
0.0
 10
71.788627
 20
130.159532
 30
0.0
 10
71.710680
 20
130.133457
 30
0.0
 10
71.625132
 20
130.073390
 30
0.0
  0
SPLINE
  5
143
100
AcDbEntity
  8
Layer_1
 62
7
100
AcDbSpline
 70
8
 71
3
 72
8
 73
4
 74
0
 40
0
 40
0
 40
0
 40
0
 40
1
 40
1
 40
1
 40
1
 10
71.625132
 20
130.073390
 30
0.0
 10
71.545243
 20
130.017295
 30
0.0
 10
71.496096
 20
129.961892
 30
0.0
 10
71.477694
 20
129.907181
 30
0.0
  0
SPLINE
  5
144
100
AcDbEntity
  8
Layer_1
 62
7
100
AcDbSpline
 70
8
 71
3
 72
8
 73
4
 74
0
 40
0
 40
0
 40
0
 40
0
 40
1
 40
1
 40
1
 40
1
 10
71.477694
 20
129.907181
 30
0.0
 10
71.459278
 20
129.852469
 30
0.0
 10
71.465933
 20
129.783165
 30
0.0
 10
71.497602
 20
129.699277
 30
0.0
  0
LWPOLYLINE
  5
145
100
AcDbEntity
  8
Layer_1
 62
7
100
AcDbPolyline
 90
5
 70
0
 10
71.021312
 20
128.865863
 30
0.0
 10
70.762951
 20
129.617808
 30
0.0
 10
70.928770
 20
129.751958
 30
0.0
 10
71.338550
 20
128.508566
 30
0.0
 10
71.187969
 20
128.386742
 30
0.0
  0
SPLINE
  5
146
100
AcDbEntity
  8
Layer_1
 62
7
100
AcDbSpline
 70
8
 71
3
 72
8
 73
4
 74
0
 40
0
 40
0
 40
0
 40
0
 40
1
 40
1
 40
1
 40
1
 10
71.315633
 20
129.605324
 30
0.0
 10
71.280823
 20
129.687003
 30
0.0
 10
71.265368
 20
129.761849
 30
0.0
 10
71.269269
 20
129.829859
 30
0.0
  0
SPLINE
  5
147
100
AcDbEntity
  8
Layer_1
 62
7
100
AcDbSpline
 70
8
 71
3
 72
8
 73
4
 74
0
 40
0
 40
0
 40
0
 40
0
 40
1
 40
1
 40
1
 40
1
 10
71.269269
 20
129.829859
 30
0.0
 10
71.273170
 20
129.897869
 30
0.0
 10
71.299552
 20
129.966634
 30
0.0
 10
71.348409
 20
130.036159
 30
0.0
  0
SPLINE
  5
148
100
AcDbEntity
  8
Layer_1
 62
7
100
AcDbSpline
 70
8
 71
3
 72
8
 73
4
 74
0
 40
0
 40
0
 40
0
 40
0
 40
1
 40
1
 40
1
 40
1
 10
71.348409
 20
130.036159
 30
0.0
 10
71.397266
 20
130.105678
 30
0.0
 10
71.464783
 20
130.170694
 30
0.0
 10
71.550963
 20
130.231203
 30
0.0
  0
SPLINE
  5
149
100
AcDbEntity
  8
Layer_1
 62
7
100
AcDbSpline
 70
8
 71
3
 72
8
 73
4
 74
0
 40
0
 40
0
 40
0
 40
0
 40
1
 40
1
 40
1
 40
1
 10
71.550963
 20
130.231203
 30
0.0
 10
71.636511
 20
130.291270
 30
0.0
 10
71.713087
 20
130.330010
 30
0.0
 10
71.780690
 20
130.347422
 30
0.0
  0
SPLINE
  5
14a
100
AcDbEntity
  8
Layer_1
 62
7
100
AcDbSpline
 70
8
 71
3
 72
8
 73
4
 74
0
 40
0
 40
0
 40
0
 40
0
 40
1
 40
1
 40
1
 40
1
 10
71.780690
 20
130.347422
 30
0.0
 10
71.848290
 20
130.364834
 30
0.0
 10
71.905382
 20
130.367128
 30
0.0
 10
71.951965
 20
130.354277
 30
0.0
  0
SPLINE
  5
14b
100
AcDbEntity
  8
Layer_1
 62
7
100
AcDbSpline
 70
8
 71
3
 72
8
 73
4
 74
0
 40
0
 40
0
 40
0
 40
0
 40
1
 40
1
 40
1
 40
1
 10
71.951965
 20
130.354277
 30
0.0
 10
71.998547
 20
130.341426
 30
0.0
 10
72.043213
 20
130.315274
 30
0.0
 10
72.085960
 20
130.275791
 30
0.0
  0
SPLINE
  5
14c
100
AcDbEntity
  8
Layer_1
 62
7
100
AcDbSpline
 70
8
 71
3
 72
8
 73
4
 74
0
 40
0
 40
0
 40
0
 40
0
 40
1
 40
1
 40
1
 40
1
 10
72.085960
 20
130.275791
 30
0.0
 10
72.111949
 20
130.250835
 30
0.0
 10
72.151426
 20
130.200607
 30
0.0
 10
72.204428
 20
130.125124
 30
0.0
  0
LWPOLYLINE
  5
14d
100
AcDbEntity
  8
Layer_1
 62
7
100
AcDbPolyline
 90
2
 70
0
 10
71.497602
 20
129.699277
 30
0.0
 10
71.315633
 20
129.605324
 30
0.0
  0
SPLINE
  5
14e
100
AcDbEntity
  8
Layer_1
 62
7
100
AcDbSpline
 70
8
 71
3
 72
8
 73
4
 74
0
 40
0
 40
0
 40
0
 40
0
 40
1
 40
1
 40
1
 40
1
 10
72.363425
 20
129.898670
 30
0.0
 10
72.474283
 20
129.740780
 30
0.0
 10
72.548016
 20
129.643459
 30
0.0
 10
72.584621
 20
129.606710
 30
0.0
  0
SPLINE
  5
14f
100
AcDbEntity
  8
Layer_1
 62
7
100
AcDbSpline
 70
8
 71
3
 72
8
 73
4
 74
0
 40
0
 40
0
 40
0
 40
0
 40
1
 40
1
 40
1
 40
1
 10
72.584621
 20
129.606710
 30
0.0
 10
72.621224
 20
129.569955
 30
0.0
 10
72.663693
 20
129.539901
 30
0.0
 10
72.712022
 20
129.516549
 30
0.0
  0
LWPOLYLINE
  5
150
100
AcDbEntity
  8
Layer_1
 62
7
100
AcDbPolyline
 90
2
 70
0
 10
72.204428
 20
130.125124
 30
0.0
 10
72.363425
 20
129.898670
 30
0.0
  0
SPLINE
  5
151
100
AcDbEntity
  8
Layer_1
 62
7
100
AcDbSpline
 70
8
 71
3
 72
8
 73
4
 74
0
 40
0
 40
0
 40
0
 40
0
 40
1
 40
1
 40
1
 40
1
 10
72.534631
 20
129.391999
 30
0.0
 10
72.492286
 20
129.414862
 30
0.0
 10
72.452035
 20
129.448111
 30
0.0
 10
72.413877
 20
129.491756
 30
0.0
  0
LWPOLYLINE
  5
152
100
AcDbEntity
  8
Layer_1
 62
7
100
AcDbPolyline
 90
2
 70
0
 10
72.712022
 20
129.516549
 30
0.0
 10
72.534631
 20
129.391999
 30
0.0
  0
SPLINE
  5
153
100
AcDbEntity
  8
Layer_1
 62
7
100
AcDbSpline
 70
8
 71
3
 72
8
 73
4
 74
0
 40
0
 40
0
 40
0
 40
0
 40
1
 40
1
 40
1
 40
1
 10
72.133383
 20
129.861129
 30
0.0
 10
72.089402
 20
129.792683
 30
0.0
 10
72.011949
 20
129.706371
 30
0.0
 10
71.901025
 20
129.602192
 30
0.0
  0
SPLINE
  5
154
100
AcDbEntity
  8
Layer_1
 62
7
100
AcDbSpline
 70
8
 71
3
 72
8
 73
4
 74
0
 40
0
 40
0
 40
0
 40
0
 40
1
 40
1
 40
1
 40
1
 10
71.901025
 20
129.602192
 30
0.0
 10
71.838267
 20
129.543100
 30
0.0
 10
71.796840
 20
129.497108
 30
0.0
 10
71.776737
 20
129.464212
 30
0.0
  0
SPLINE
  5
155
100
AcDbEntity
  8
Layer_1
 62
7
100
AcDbSpline
 70
8
 71
3
 72
8
 73
4
 74
0
 40
0
 40
0
 40
0
 40
0
 40
1
 40
1
 40
1
 40
1
 10
71.776737
 20
129.464212
 30
0.0
 10
71.756628
 20
129.431313
 30
0.0
 10
71.747222
 20
129.397234
 30
0.0
 10
71.748510
 20
129.361974
 30
0.0
  0
SPLINE
  5
156
100
AcDbEntity
  8
Layer_1
 62
7
100
AcDbSpline
 70
8
 71
3
 72
8
 73
4
 74
0
 40
0
 40
0
 40
0
 40
0
 40
1
 40
1
 40
1
 40
1
 10
71.748510
 20
129.361974
 30
0.0
 10
71.749658
 20
129.326714
 30
0.0
 10
71.760816
 20
129.294303
 30
0.0
 10
71.781565
 20
129.264739
 30
0.0
  0
SPLINE
  5
157
100
AcDbEntity
  8
Layer_1
 62
7
100
AcDbSpline
 70
8
 71
3
 72
8
 73
4
 74
0
 40
0
 40
0
 40
0
 40
0
 40
1
 40
1
 40
1
 40
1
 10
71.781565
 20
129.264739
 30
0.0
 10
71.813365
 20
129.219448
 30
0.0
 10
71.857007
 20
129.193740
 30
0.0
 10
71.912491
 20
129.187619
 30
0.0
  0
SPLINE
  5
158
100
AcDbEntity
  8
Layer_1
 62
7
100
AcDbSpline
 70
8
 71
3
 72
8
 73
4
 74
0
 40
0
 40
0
 40
0
 40
0
 40
1
 40
1
 40
1
 40
1
 10
71.912491
 20
129.187619
 30
0.0
 10
71.967971
 20
129.181480
 30
0.0
 10
72.028738
 20
129.201617
 30
0.0
 10
72.094786
 20
129.247996
 30
0.0
  0
SPLINE
  5
159
100
AcDbEntity
  8
Layer_1
 62
7
100
AcDbSpline
 70
8
 71
3
 72
8
 73
4
 74
0
 40
0
 40
0
 40
0
 40
0
 40
1
 40
1
 40
1
 40
1
 10
72.094786
 20
129.247996
 30
0.0
 10
72.160206
 20
129.293930
 30
0.0
 10
72.208346
 20
129.349092
 30
0.0
 10
72.239203
 20
129.413490
 30
0.0
  0
SPLINE
  5
15a
100
AcDbEntity
  8
Layer_1
 62
7
100
AcDbSpline
 70
8
 71
3
 72
8
 73
4
 74
0
 40
0
 40
0
 40
0
 40
0
 40
1
 40
1
 40
1
 40
1
 10
72.239203
 20
129.413490
 30
0.0
 10
72.270057
 20
129.477886
 30
0.0
 10
72.279991
 20
129.543321
 30
0.0
 10
72.269004
 20
129.609799
 30
0.0
  0
SPLINE
  5
15b
100
AcDbEntity
  8
Layer_1
 62
7
100
AcDbSpline
 70
8
 71
3
 72
8
 73
4
 74
0
 40
0
 40
0
 40
0
 40
0
 40
1
 40
1
 40
1
 40
1
 10
72.269004
 20
129.609799
 30
0.0
 10
72.260313
 20
129.660980
 30
0.0
 10
72.229677
 20
129.723996
 30
0.0
 10
72.177119
 20
129.798853
 30
0.0
  0
LWPOLYLINE
  5
15c
100
AcDbEntity
  8
Layer_1
 62
7
100
AcDbPolyline
 90
2
 70
0
 10
72.413877
 20
129.491756
 30
0.0
 10
72.413860
 20
129.491756
 30
0.0
  0
LWPOLYLINE
  5
15d
100
AcDbEntity
  8
Layer_1
 62
7
100
AcDbPolyline
 90
2
 70
0
 10
72.177119
 20
129.798853
 30
0.0
 10
72.133383
 20
129.861129
 30
0.0
  0
SPLINE
  5
15e
100
AcDbEntity
  8
Layer_1
 62
7
100
AcDbSpline
 70
8
 71
3
 72
8
 73
4
 74
0
 40
0
 40
0
 40
0
 40
0
 40
1
 40
1
 40
1
 40
1
 10
72.548920
 20
130.652032
 30
0.0
 10
72.556865
 20
130.813634
 30
0.0
 10
72.633659
 20
130.938123
 30
0.0
 10
72.779332
 20
131.025493
 30
0.0
  0
SPLINE
  5
15f
100
AcDbEntity
  8
Layer_1
 62
7
100
AcDbSpline
 70
8
 71
3
 72
8
 73
4
 74
0
 40
0
 40
0
 40
0
 40
0
 40
1
 40
1
 40
1
 40
1
 10
72.779332
 20
131.025493
 30
0.0
 10
72.842609
 20
131.063444
 30
0.0
 10
72.907596
 20
131.086960
 30
0.0
 10
72.974298
 20
131.096045
 30
0.0
  0
SPLINE
  5
160
100
AcDbEntity
  8
Layer_1
 62
7
100
AcDbSpline
 70
8
 71
3
 72
8
 73
4
 74
0
 40
0
 40
0
 40
0
 40
0
 40
1
 40
1
 40
1
 40
1
 10
72.974298
 20
131.096045
 30
0.0
 10
73.040998
 20
131.105138
 30
0.0
 10
73.098601
 20
131.099114
 30
0.0
 10
73.147105
 20
131.078031
 30
0.0
  0
SPLINE
  5
161
100
AcDbEntity
  8
Layer_1
 62
7
100
AcDbSpline
 70
8
 71
3
 72
8
 73
4
 74
0
 40
0
 40
0
 40
0
 40
0
 40
1
 40
1
 40
1
 40
1
 10
73.147105
 20
131.078031
 30
0.0
 10
73.195609
 20
131.056918
 30
0.0
 10
73.240353
 20
131.024165
 30
0.0
 10
73.281341
 20
130.979740
 30
0.0
  0
SPLINE
  5
162
100
AcDbEntity
  8
Layer_1
 62
7
100
AcDbSpline
 70
8
 71
3
 72
8
 73
4
 74
0
 40
0
 40
0
 40
0
 40
0
 40
1
 40
1
 40
1
 40
1
 10
73.281341
 20
130.979740
 30
0.0
 10
73.307703
 20
130.950733
 30
0.0
 10
73.345588
 20
130.895035
 30
0.0
 10
73.395005
 20
130.812645
 30
0.0
  0
LWPOLYLINE
  5
163
100
AcDbEntity
  8
Layer_1
 62
7
100
AcDbPolyline
 90
4
 70
0
 10
72.928973
 20
129.655248
 30
0.0
 10
72.299204
 20
130.705264
 30
0.0
 10
72.459378
 20
130.801328
 30
0.0
 10
72.548920
 20
130.652032
 30
0.0
  0
SPLINE
  5
164
100
AcDbEntity
  8
Layer_1
 62
7
100
AcDbSpline
 70
8
 71
3
 72
8
 73
4
 74
0
 40
0
 40
0
 40
0
 40
0
 40
1
 40
1
 40
1
 40
1
 10
73.221185
 20
130.698981
 30
0.0
 10
73.177698
 20
130.771487
 30
0.0
 10
73.138261
 20
130.821551
 30
0.0
 10
73.102875
 20
130.849173
 30
0.0
  0
SPLINE
  5
165
100
AcDbEntity
  8
Layer_1
 62
7
100
AcDbSpline
 70
8
 71
3
 72
8
 73
4
 74
0
 40
0
 40
0
 40
0
 40
0
 40
1
 40
1
 40
1
 40
1
 10
73.102875
 20
130.849173
 30
0.0
 10
73.067486
 20
130.876797
 30
0.0
 10
73.025737
 20
130.890741
 30
0.0
 10
72.977623
 20
130.891013
 30
0.0
  0
SPLINE
  5
166
100
AcDbEntity
  8
Layer_1
 62
7
100
AcDbSpline
 70
8
 71
3
 72
8
 73
4
 74
0
 40
0
 40
0
 40
0
 40
0
 40
1
 40
1
 40
1
 40
1
 10
72.977623
 20
130.891013
 30
0.0
 10
72.929512
 20
130.891283
 30
0.0
 10
72.881725
 20
130.877187
 30
0.0
 10
72.834268
 20
130.848725
 30
0.0
  0
SPLINE
  5
167
100
AcDbEntity
  8
Layer_1
 62
7
100
AcDbSpline
 70
8
 71
3
 72
8
 73
4
 74
0
 40
0
 40
0
 40
0
 40
0
 40
1
 40
1
 40
1
 40
1
 10
72.834268
 20
130.848725
 30
0.0
 10
72.758467
 20
130.803259
 30
0.0
 10
72.707475
 20
130.739964
 30
0.0
 10
72.681297
 20
130.658836
 30
0.0
  0
SPLINE
  5
168
100
AcDbEntity
  8
Layer_1
 62
7
100
AcDbSpline
 70
8
 71
3
 72
8
 73
4
 74
0
 40
0
 40
0
 40
0
 40
0
 40
1
 40
1
 40
1
 40
1
 10
72.681297
 20
130.658836
 30
0.0
 10
72.655107
 20
130.577708
 30
0.0
 10
72.682444
 20
130.469911
 30
0.0
 10
72.763002
 20
130.335448
 30
0.0
  0
LWPOLYLINE
  5
169
100
AcDbEntity
  8
Layer_1
 62
7
100
AcDbPolyline
 90
4
 70
0
 10
73.395005
 20
130.812645
 30
0.0
 10
73.782235
 20
130.167013
 30
0.0
 10
73.604265
 20
130.060272
 30
0.0
 10
73.221185
 20
130.698981
 30
0.0
  0
LWPOLYLINE
  5
16a
100
AcDbEntity
  8
Layer_1
 62
7
100
AcDbPolyline
 90
3
 70
0
 10
72.763002
 20
130.335448
 30
0.0
 10
73.106943
 20
129.761992
 30
0.0
 10
72.928973
 20
129.655248
 30
0.0
  0
SPLINE
  5
16b
100
AcDbEntity
  8
Layer_1
 62
7
100
AcDbSpline
 70
8
 71
3
 72
8
 73
4
 74
0
 40
0
 40
0
 40
0
 40
0
 40
1
 40
1
 40
1
 40
1
 10
74.764478
 20
131.151959
 30
0.0
 10
74.808550
 20
131.016538
 30
0.0
 10
74.807756
 20
130.892525
 30
0.0
 10
74.762183
 20
130.779923
 30
0.0
  0
SPLINE
  5
16c
100
AcDbEntity
  8
Layer_1
 62
7
100
AcDbSpline
 70
8
 71
3
 72
8
 73
4
 74
0
 40
0
 40
0
 40
0
 40
0
 40
1
 40
1
 40
1
 40
1
 10
74.762183
 20
130.779923
 30
0.0
 10
74.716522
 20
130.667318
 30
0.0
 10
74.634128
 20
130.580623
 30
0.0
 10
74.515004
 20
130.519841
 30
0.0
  0
SPLINE
  5
16d
100
AcDbEntity
  8
Layer_1
 62
7
100
AcDbSpline
 70
8
 71
3
 72
8
 73
4
 74
0
 40
0
 40
0
 40
0
 40
0
 40
1
 40
1
 40
1
 40
1
 10
74.515004
 20
130.519841
 30
0.0
 10
74.365751
 20
130.443690
 30
0.0
 10
74.220878
 20
130.431252
 30
0.0
 10
74.080385
 20
130.482527
 30
0.0
  0
SPLINE
  5
16e
100
AcDbEntity
  8
Layer_1
 62
7
100
AcDbSpline
 70
8
 71
3
 72
8
 73
4
 74
0
 40
0
 40
0
 40
0
 40
0
 40
1
 40
1
 40
1
 40
1
 10
74.080385
 20
130.482527
 30
0.0
 10
73.939893
 20
130.533802
 30
0.0
 10
73.823183
 20
130.650497
 30
0.0
 10
73.730265
 20
130.832612
 30
0.0
  0
SPLINE
  5
16f
100
AcDbEntity
  8
Layer_1
 62
7
100
AcDbSpline
 70
8
 71
3
 72
8
 73
4
 74
0
 40
0
 40
0
 40
0
 40
0
 40
1
 40
1
 40
1
 40
1
 10
73.730265
 20
130.832612
 30
0.0
 10
73.670181
 20
130.950369
 30
0.0
 10
73.637121
 20
131.063364
 30
0.0
 10
73.631080
 20
131.171594
 30
0.0
  0
SPLINE
  5
170
100
AcDbEntity
  8
Layer_1
 62
7
100
AcDbSpline
 70
8
 71
3
 72
8
 73
4
 74
0
 40
0
 40
0
 40
0
 40
0
 40
1
 40
1
 40
1
 40
1
 10
73.631080
 20
131.171594
 30
0.0
 10
73.625056
 20
131.279824
 30
0.0
 10
73.650643
 20
131.376365
 30
0.0
 10
73.707868
 20
131.461222
 30
0.0
  0
SPLINE
  5
171
100
AcDbEntity
  8
Layer_1
 62
7
100
AcDbSpline
 70
8
 71
3
 72
8
 73
4
 74
0
 40
0
 40
0
 40
0
 40
0
 40
1
 40
1
 40
1
 40
1
 10
73.707868
 20
131.461222
 30
0.0
 10
73.765095
 20
131.546076
 30
0.0
 10
73.840610
 20
131.612431
 30
0.0
 10
73.934405
 20
131.660290
 30
0.0
  0
SPLINE
  5
172
100
AcDbEntity
  8
Layer_1
 62
7
100
AcDbSpline
 70
8
 71
3
 72
8
 73
4
 74
0
 40
0
 40
0
 40
0
 40
0
 40
1
 40
1
 40
1
 40
1
 10
73.934405
 20
131.660290
 30
0.0
 10
74.052847
 20
131.720722
 30
0.0
 10
74.165007
 20
131.740199
 30
0.0
 10
74.270882
 20
131.718719
 30
0.0
  0
SPLINE
  5
173
100
AcDbEntity
  8
Layer_1
 62
7
100
AcDbSpline
 70
8
 71
3
 72
8
 73
4
 74
0
 40
0
 40
0
 40
0
 40
0
 40
1
 40
1
 40
1
 40
1
 10
74.270882
 20
131.718719
 30
0.0
 10
74.376760
 20
131.697234
 30
0.0
 10
74.468430
 20
131.636800
 30
0.0
 10
74.545895
 20
131.537402
 30
0.0
  0
LWPOLYLINE
  5
174
100
AcDbEntity
  8
Layer_1
 62
7
100
AcDbPolyline
 90
2
 70
0
 10
74.570653
 20
131.082832
 30
0.0
 10
74.764478
 20
131.151959
 30
0.0
  0
SPLINE
  5
175
100
AcDbEntity
  8
Layer_1
 62
7
100
AcDbSpline
 70
8
 71
3
 72
8
 73
4
 74
0
 40
0
 40
0
 40
0
 40
0
 40
1
 40
1
 40
1
 40
1
 10
74.380326
 20
131.417979
 30
0.0
 10
74.325829
 20
131.482501
 30
0.0
 10
74.267414
 20
131.522155
 30
0.0
 10
74.205078
 20
131.536946
 30
0.0
  0
SPLINE
  5
176
100
AcDbEntity
  8
Layer_1
 62
7
100
AcDbSpline
 70
8
 71
3
 72
8
 73
4
 74
0
 40
0
 40
0
 40
0
 40
0
 40
1
 40
1
 40
1
 40
1
 10
74.205078
 20
131.536946
 30
0.0
 10
74.142739
 20
131.551747
 30
0.0
 10
74.080761
 20
131.543400
 30
0.0
 10
74.019142
 20
131.511961
 30
0.0
  0
SPLINE
  5
177
100
AcDbEntity
  8
Layer_1
 62
7
100
AcDbSpline
 70
8
 71
3
 72
8
 73
4
 74
0
 40
0
 40
0
 40
0
 40
0
 40
1
 40
1
 40
1
 40
1
 10
74.019142
 20
131.511961
 30
0.0
 10
73.926032
 20
131.464452
 30
0.0
 10
73.867410
 20
131.392474
 30
0.0
 10
73.843274
 20
131.296031
 30
0.0
  0
SPLINE
  5
178
100
AcDbEntity
  8
Layer_1
 62
7
100
AcDbSpline
 70
8
 71
3
 72
8
 73
4
 74
0
 40
0
 40
0
 40
0
 40
0
 40
1
 40
1
 40
1
 40
1
 10
73.843274
 20
131.296031
 30
0.0
 10
73.819150
 20
131.199585
 30
0.0
 10
73.843848
 20
131.079132
 30
0.0
 10
73.917633
 20
130.934675
 30
0.0
  0
SPLINE
  5
179
100
AcDbEntity
  8
Layer_1
 62
7
100
AcDbSpline
 70
8
 71
3
 72
8
 73
4
 74
0
 40
0
 40
0
 40
0
 40
0
 40
1
 40
1
 40
1
 40
1
 10
73.917633
 20
130.934675
 30
0.0
 10
73.992387
 20
130.788162
 30
0.0
 10
74.074777
 20
130.696021
 30
0.0
 10
74.164803
 20
130.658257
 30
0.0
  0
SPLINE
  5
17a
100
AcDbEntity
  8
Layer_1
 62
7
100
AcDbSpline
 70
8
 71
3
 72
8
 73
4
 74
0
 40
0
 40
0
 40
0
 40
0
 40
1
 40
1
 40
1
 40
1
 10
74.164803
 20
130.658257
 30
0.0
 10
74.254827
 20
130.620492
 30
0.0
 10
74.345025
 20
130.624663
 30
0.0
 10
74.435399
 20
130.670764
 30
0.0
  0
SPLINE
  5
17b
100
AcDbEntity
  8
Layer_1
 62
7
100
AcDbSpline
 70
8
 71
3
 72
8
 73
4
 74
0
 40
0
 40
0
 40
0
 40
0
 40
1
 40
1
 40
1
 40
1
 10
74.435399
 20
130.670764
 30
0.0
 10
74.507970
 20
130.707791
 30
0.0
 10
74.557209
 20
130.760956
 30
0.0
 10
74.583111
 20
130.830263
 30
0.0
  0
SPLINE
  5
17c
100
AcDbEntity
  8
Layer_1
 62
7
100
AcDbSpline
 70
8
 71
3
 72
8
 73
4
 74
0
 40
0
 40
0
 40
0
 40
0
 40
1
 40
1
 40
1
 40
1
 10
74.583111
 20
130.830263
 30
0.0
 10
74.609014
 20
130.899564
 30
0.0
 10
74.604884
 20
130.983747
 30
0.0
 10
74.570748
 20
131.082812
 30
0.0
  0
LWPOLYLINE
  5
17d
100
AcDbEntity
  8
Layer_1
 62
7
100
AcDbPolyline
 90
2
 70
0
 10
74.545895
 20
131.537402
 30
0.0
 10
74.380326
 20
131.417979
 30
0.0
  0
SPLINE
  5
17e
100
AcDbEntity
  8
Layer_1
 62
7
100
AcDbSpline
 70
8
 71
3
 72
8
 73
4
 74
0
 40
0
 40
0
 40
0
 40
0
 40
1
 40
1
 40
1
 40
1
 10
74.807167
 20
131.382225
 30
0.0
 10
74.718214
 20
131.590788
 30
0.0
 10
74.710303
 20
131.769992
 30
0.0
 10
74.783416
 20
131.919836
 30
0.0
  0
SPLINE
  5
17f
100
AcDbEntity
  8
Layer_1
 62
7
100
AcDbSpline
 70
8
 71
3
 72
8
 73
4
 74
0
 40
0
 40
0
 40
0
 40
0
 40
1
 40
1
 40
1
 40
1
 10
74.783416
 20
131.919836
 30
0.0
 10
74.844694
 20
132.044571
 30
0.0
 10
74.944972
 20
132.136640
 30
0.0
 10
75.084249
 20
132.196042
 30
0.0
  0
SPLINE
  5
180
100
AcDbEntity
  8
Layer_1
 62
7
100
AcDbSpline
 70
8
 71
3
 72
8
 73
4
 74
0
 40
0
 40
0
 40
0
 40
0
 40
1
 40
1
 40
1
 40
1
 10
75.084249
 20
132.196042
 30
0.0
 10
75.239078
 20
132.262078
 30
0.0
 10
75.387264
 20
132.265326
 30
0.0
 10
75.528807
 20
132.205795
 30
0.0
  0
SPLINE
  5
181
100
AcDbEntity
  8
Layer_1
 62
7
100
AcDbSpline
 70
8
 71
3
 72
8
 73
4
 74
0
 40
0
 40
0
 40
0
 40
0
 40
1
 40
1
 40
1
 40
1
 10
75.528807
 20
132.205795
 30
0.0
 10
75.670349
 20
132.146255
 30
0.0
 10
75.779265
 20
132.027050
 30
0.0
 10
75.855553
 20
131.848182
 30
0.0
  0
SPLINE
  5
182
100
AcDbEntity
  8
Layer_1
 62
7
100
AcDbSpline
 70
8
 71
3
 72
8
 73
4
 74
0
 40
0
 40
0
 40
0
 40
0
 40
1
 40
1
 40
1
 40
1
 10
75.855553
 20
131.848182
 30
0.0
 10
75.917368
 20
131.703249
 30
0.0
 10
75.944249
 20
131.579974
 30
0.0
 10
75.936200
 20
131.478358
 30
0.0
  0
SPLINE
  5
183
100
AcDbEntity
  8
Layer_1
 62
7
100
AcDbSpline
 70
8
 71
3
 72
8
 73
4
 74
0
 40
0
 40
0
 40
0
 40
0
 40
1
 40
1
 40
1
 40
1
 10
75.936200
 20
131.478358
 30
0.0
 10
75.928139
 20
131.376743
 30
0.0
 10
75.892388
 20
131.285243
 30
0.0
 10
75.828919
 20
131.203859
 30
0.0
  0
SPLINE
  5
184
100
AcDbEntity
  8
Layer_1
 62
7
100
AcDbSpline
 70
8
 71
3
 72
8
 73
4
 74
0
 40
0
 40
0
 40
0
 40
0
 40
1
 40
1
 40
1
 40
1
 10
75.828919
 20
131.203859
 30
0.0
 10
75.765447
 20
131.122473
 30
0.0
 10
75.684574
 20
131.060825
 30
0.0
 10
75.586304
 20
131.018910
 30
0.0
  0
SPLINE
  5
185
100
AcDbEntity
  8
Layer_1
 62
7
100
AcDbSpline
 70
8
 71
3
 72
8
 73
4
 74
0
 40
0
 40
0
 40
0
 40
0
 40
1
 40
1
 40
1
 40
1
 10
75.586304
 20
131.018910
 30
0.0
 10
75.428643
 20
130.951668
 30
0.0
 10
75.279648
 20
130.947868
 30
0.0
 10
75.139319
 20
131.007522
 30
0.0
  0
SPLINE
  5
186
100
AcDbEntity
  8
Layer_1
 62
7
100
AcDbSpline
 70
8
 71
3
 72
8
 73
4
 74
0
 40
0
 40
0
 40
0
 40
0
 40
1
 40
1
 40
1
 40
1
 10
75.139319
 20
131.007522
 30
0.0
 10
74.998987
 20
131.067159
 30
0.0
 10
74.888267
 20
131.192069
 30
0.0
 10
74.807153
 20
131.382248
 30
0.0
  0
LWPOLYLINE
  5
187
100
AcDbEntity
  8
Layer_1
 62
7
100
AcDbPolyline
 90
2
 70
0
 10
74.570748
 20
131.082812
 30
0.0
 10
74.570653
 20
131.082832
 30
0.0
  0
SPLINE
  5
188
100
AcDbEntity
  8
Layer_1
 62
7
100
AcDbSpline
 70
8
 71
3
 72
8
 73
4
 74
0
 40
0
 40
0
 40
0
 40
0
 40
1
 40
1
 40
1
 40
1
 10
75.003359
 20
131.465903
 30
0.0
 10
75.064872
 20
131.321676
 30
0.0
 10
75.142391
 20
131.227100
 30
0.0
 10
75.235920
 20
131.182179
 30
0.0
  0
SPLINE
  5
189
100
AcDbEntity
  8
Layer_1
 62
7
100
AcDbSpline
 70
8
 71
3
 72
8
 73
4
 74
0
 40
0
 40
0
 40
0
 40
0
 40
1
 40
1
 40
1
 40
1
 10
75.235920
 20
131.182179
 30
0.0
 10
75.329446
 20
131.137254
 30
0.0
 10
75.423933
 20
131.135146
 30
0.0
 10
75.519378
 20
131.175868
 30
0.0
  0
SPLINE
  5
18a
100
AcDbEntity
  8
Layer_1
 62
7
100
AcDbSpline
 70
8
 71
3
 72
8
 73
4
 74
0
 40
0
 40
0
 40
0
 40
0
 40
1
 40
1
 40
1
 40
1
 10
75.519378
 20
131.175868
 30
0.0
 10
75.614114
 20
131.216274
 30
0.0
 10
75.677563
 20
131.285951
 30
0.0
 10
75.709731
 20
131.384901
 30
0.0
  0
SPLINE
  5
18b
100
AcDbEntity
  8
Layer_1
 62
7
100
AcDbSpline
 70
8
 71
3
 72
8
 73
4
 74
0
 40
0
 40
0
 40
0
 40
0
 40
1
 40
1
 40
1
 40
1
 10
75.709731
 20
131.384901
 30
0.0
 10
75.741896
 20
131.483852
 30
0.0
 10
75.726483
 20
131.607205
 30
0.0
 10
75.663447
 20
131.754969
 30
0.0
  0
SPLINE
  5
18c
100
AcDbEntity
  8
Layer_1
 62
7
100
AcDbSpline
 70
8
 71
3
 72
8
 73
4
 74
0
 40
0
 40
0
 40
0
 40
0
 40
1
 40
1
 40
1
 40
1
 10
75.663447
 20
131.754969
 30
0.0
 10
75.604045
 20
131.894245
 30
0.0
 10
75.527404
 20
131.986268
 30
0.0
 10
75.433522
 20
132.031043
 30
0.0
  0
SPLINE
  5
18d
100
AcDbEntity
  8
Layer_1
 62
7
100
AcDbSpline
 70
8
 71
3
 72
8
 73
4
 74
0
 40
0
 40
0
 40
0
 40
0
 40
1
 40
1
 40
1
 40
1
 10
75.433522
 20
132.031043
 30
0.0
 10
75.339641
 20
132.075813
 30
0.0
 10
75.245684
 20
132.078148
 30
0.0
 10
75.151656
 20
132.038043
 30
0.0
  0
SPLINE
  5
18e
100
AcDbEntity
  8
Layer_1
 62
7
100
AcDbSpline
 70
8
 71
3
 72
8
 73
4
 74
0
 40
0
 40
0
 40
0
 40
0
 40
1
 40
1
 40
1
 40
1
 10
75.151656
 20
132.038043
 30
0.0
 10
75.056211
 20
131.997332
 30
0.0
 10
74.992257
 20
131.927859
 30
0.0
 10
74.959788
 20
131.829617
 30
0.0
  0
SPLINE
  5
18f
100
AcDbEntity
  8
Layer_1
 62
7
100
AcDbSpline
 70
8
 71
3
 72
8
 73
4
 74
0
 40
0
 40
0
 40
0
 40
0
 40
1
 40
1
 40
1
 40
1
 10
74.959788
 20
131.829617
 30
0.0
 10
74.927322
 20
131.731372
 30
0.0
 10
74.941831
 20
131.610139
 30
0.0
 10
75.003359
 20
131.465915
 30
0.0
  0
LWPOLYLINE
  5
190
100
AcDbEntity
  8
Layer_1
 62
7
100
AcDbPolyline
 90
2
 70
0
 10
74.807153
 20
131.382248
 30
0.0
 10
74.807167
 20
131.382225
 30
0.0
  0
LWPOLYLINE
  5
191
100
AcDbEntity
  8
Layer_1
 62
7
100
AcDbPolyline
 90
2
 70
0
 10
75.003359
 20
131.465915
 30
0.0
 10
75.003359
 20
131.465903
 30
0.0
  0
SPLINE
  5
192
100
AcDbEntity
  8
Layer_1
 62
7
100
AcDbSpline
 70
8
 71
3
 72
8
 73
4
 74
0
 40
0
 40
0
 40
0
 40
0
 40
1
 40
1
 40
1
 40
1
 10
77.032490
 20
131.785361
 30
0.0
 10
76.987262
 20
131.623564
 30
0.0
 10
76.887225
 20
131.516088
 30
0.0
 10
76.732378
 20
131.462937
 30
0.0
  0
SPLINE
  5
193
100
AcDbEntity
  8
Layer_1
 62
7
100
AcDbSpline
 70
8
 71
3
 72
8
 73
4
 74
0
 40
0
 40
0
 40
0
 40
0
 40
1
 40
1
 40
1
 40
1
 10
76.732378
 20
131.462937
 30
0.0
 10
76.664043
 20
131.439473
 30
0.0
 10
76.595761
 20
131.430672
 30
0.0
 10
76.527529
 20
131.436489
 30
0.0
  0
SPLINE
  5
194
100
AcDbEntity
  8
Layer_1
 62
7
100
AcDbSpline
 70
8
 71
3
 72
8
 73
4
 74
0
 40
0
 40
0
 40
0
 40
0
 40
1
 40
1
 40
1
 40
1
 10
76.527529
 20
131.436489
 30
0.0
 10
76.459295
 20
131.442312
 30
0.0
 10
76.404024
 20
131.460126
 30
0.0
 10
76.361708
 20
131.489887
 30
0.0
  0
SPLINE
  5
195
100
AcDbEntity
  8
Layer_1
 62
7
100
AcDbSpline
 70
8
 71
3
 72
8
 73
4
 74
0
 40
0
 40
0
 40
0
 40
0
 40
1
 40
1
 40
1
 40
1
 10
76.361708
 20
131.489887
 30
0.0
 10
76.319394
 20
131.519651
 30
0.0
 10
76.282562
 20
131.561251
 30
0.0
 10
76.251217
 20
131.614689
 30
0.0
  0
SPLINE
  5
196
100
AcDbEntity
  8
Layer_1
 62
7
100
AcDbSpline
 70
8
 71
3
 72
8
 73
4
 74
0
 40
0
 40
0
 40
0
 40
0
 40
1
 40
1
 40
1
 40
1
 10
76.251217
 20
131.614689
 30
0.0
 10
76.229990
 20
131.650474
 30
0.0
 10
76.205037
 20
131.710168
 30
0.0
 10
76.176340
 20
131.793769
 30
0.0
  0
LWPOLYLINE
  5
197
100
AcDbEntity
  8
Layer_1
 62
7
100
AcDbPolyline
 90
2
 70
0
 10
77.090882
 20
131.615248
 30
0.0
 10
77.032490
 20
131.785361
 30
0.0
  0
SPLINE
  5
198
100
AcDbEntity
  8
Layer_1
 62
7
100
AcDbSpline
 70
8
 71
3
 72
8
 73
4
 74
0
 40
0
 40
0
 40
0
 40
0
 40
1
 40
1
 40
1
 40
1
 10
76.346797
 20
131.936387
 30
0.0
 10
76.381980
 20
131.833883
 30
0.0
 10
76.409684
 20
131.766191
 30
0.0
 10
76.429910
 20
131.733314
 30
0.0
  0
SPLINE
  5
199
100
AcDbEntity
  8
Layer_1
 62
7
100
AcDbSpline
 70
8
 71
3
 72
8
 73
4
 74
0
 40
0
 40
0
 40
0
 40
0
 40
1
 40
1
 40
1
 40
1
 10
76.429910
 20
131.733314
 30
0.0
 10
76.459984
 20
131.685943
 30
0.0
 10
76.500066
 20
131.654395
 30
0.0
 10
76.550157
 20
131.638678
 30
0.0
  0
SPLINE
  5
19a
100
AcDbEntity
  8
Layer_1
 62
7
100
AcDbSpline
 70
8
 71
3
 72
8
 73
4
 74
0
 40
0
 40
0
 40
0
 40
0
 40
1
 40
1
 40
1
 40
1
 10
76.550157
 20
131.638678
 30
0.0
 10
76.600247
 20
131.622959
 30
0.0
 10
76.654735
 20
131.625196
 30
0.0
 10
76.713620
 20
131.645419
 30
0.0
  0
SPLINE
  5
19b
100
AcDbEntity
  8
Layer_1
 62
7
100
AcDbSpline
 70
8
 71
3
 72
8
 73
4
 74
0
 40
0
 40
0
 40
0
 40
0
 40
1
 40
1
 40
1
 40
1
 10
76.713620
 20
131.645419
 30
0.0
 10
76.772503
 20
131.665643
 30
0.0
 10
76.822576
 20
131.699681
 30
0.0
 10
76.863834
 20
131.747568
 30
0.0
  0
SPLINE
  5
19c
100
AcDbEntity
  8
Layer_1
 62
7
100
AcDbSpline
 70
8
 71
3
 72
8
 73
4
 74
0
 40
0
 40
0
 40
0
 40
0
 40
1
 40
1
 40
1
 40
1
 10
76.863834
 20
131.747568
 30
0.0
 10
76.905096
 20
131.795453
 30
0.0
 10
76.927528
 20
131.849069
 30
0.0
 10
76.931130
 20
131.908407
 30
0.0
  0
SPLINE
  5
19d
100
AcDbEntity
  8
Layer_1
 62
7
100
AcDbSpline
 70
8
 71
3
 72
8
 73
4
 74
0
 40
0
 40
0
 40
0
 40
0
 40
1
 40
1
 40
1
 40
1
 10
76.931130
 20
131.908407
 30
0.0
 10
76.934745
 20
131.967746
 30
0.0
 10
76.919570
 20
132.046852
 30
0.0
 10
76.885632
 20
132.145722
 30
0.0
  0
LWPOLYLINE
  5
19e
100
AcDbEntity
  8
Layer_1
 62
7
100
AcDbPolyline
 90
4
 70
0
 10
76.176340
 20
131.793769
 30
0.0
 10
75.930050
 20
132.511295
 30
0.0
 10
76.126332
 20
132.578668
 30
0.0
 10
76.346797
 20
131.936387
 30
0.0
  0
LWPOLYLINE
  5
19f
100
AcDbEntity
  8
Layer_1
 62
7
100
AcDbPolyline
 90
5
 70
0
 10
76.885632
 20
132.145722
 30
0.0
 10
76.672655
 20
132.766193
 30
0.0
 10
76.868938
 20
132.833567
 30
0.0
 10
77.266446
 20
131.675496
 30
0.0
 10
77.090882
 20
131.615248
 30
0.0
  0
SPLINE
  5
1a0
100
AcDbEntity
  8
Layer_1
 62
7
100
AcDbSpline
 70
8
 71
3
 72
8
 73
4
 74
0
 40
0
 40
0
 40
0
 40
0
 40
1
 40
1
 40
1
 40
1
 10
77.796328
 20
132.335737
 30
0.0
 10
77.844288
 20
132.266628
 30
0.0
 10
77.890815
 20
132.193954
 30
0.0
 10
77.935912
 20
132.117711
 30
0.0
  0
SPLINE
  5
1a1
100
AcDbEntity
  8
Layer_1
 62
7
100
AcDbSpline
 70
8
 71
3
 72
8
 73
4
 74
0
 40
0
 40
0
 40
0
 40
0
 40
1
 40
1
 40
1
 40
1
 10
77.935912
 20
132.117711
 30
0.0
 10
77.937059
 20
132.184849
 30
0.0
 10
77.941792
 20
132.266496
 30
0.0
 10
77.950254
 20
132.362655
 30
0.0
  0
LWPOLYLINE
  5
1a2
100
AcDbEntity
  8
Layer_1
 62
7
100
AcDbPolyline
 90
4
 70
0
 10
77.907849
 20
131.857152
 30
0.0
 10
77.141059
 20
132.919281
 30
0.0
 10
77.352648
 20
132.975975
 30
0.0
 10
77.796328
 20
132.335737
 30
0.0
  0
LWPOLYLINE
  5
1a3
100
AcDbEntity
  8
Layer_1
 62
7
100
AcDbPolyline
 90
5
 70
0
 10
77.950254
 20
132.362655
 30
0.0
 10
78.019719
 20
133.154708
 30
0.0
 10
78.225741
 20
133.209908
 30
0.0
 10
78.094947
 20
131.907283
 30
0.0
 10
77.907849
 20
131.857152
 30
0.0
  0
SPLINE
  5
1a4
100
AcDbEntity
  8
Layer_1
 62
7
100
AcDbSpline
 70
8
 71
3
 72
8
 73
4
 74
0
 40
0
 40
0
 40
0
 40
0
 40
1
 40
1
 40
1
 40
1
 10
79.684569
 20
132.629447
 30
0.0
 10
79.675410
 20
132.500004
 30
0.0
 10
79.632584
 20
132.392563
 30
0.0
 10
79.556089
 20
132.307129
 30
0.0
  0
SPLINE
  5
1a5
100
AcDbEntity
  8
Layer_1
 62
7
100
AcDbSpline
 70
8
 71
3
 72
8
 73
4
 74
0
 40
0
 40
0
 40
0
 40
0
 40
1
 40
1
 40
1
 40
1
 10
79.556089
 20
132.307129
 30
0.0
 10
79.479593
 20
132.221692
 30
0.0
 10
79.371569
 20
132.165334
 30
0.0
 10
79.232018
 20
132.138057
 30
0.0
  0
SPLINE
  5
1a6
100
AcDbEntity
  8
Layer_1
 62
7
100
AcDbSpline
 70
8
 71
3
 72
8
 73
4
 74
0
 40
0
 40
0
 40
0
 40
0
 40
1
 40
1
 40
1
 40
1
 10
79.232018
 20
132.138057
 30
0.0
 10
79.056258
 20
132.103703
 30
0.0
 10
78.906316
 20
132.130599
 30
0.0
 10
78.782191
 20
132.218709
 30
0.0
  0
SPLINE
  5
1a7
100
AcDbEntity
  8
Layer_1
 62
7
100
AcDbSpline
 70
8
 71
3
 72
8
 73
4
 74
0
 40
0
 40
0
 40
0
 40
0
 40
1
 40
1
 40
1
 40
1
 10
78.782191
 20
132.218709
 30
0.0
 10
78.658066
 20
132.306828
 30
0.0
 10
78.576910
 20
132.448577
 30
0.0
 10
78.538722
 20
132.643947
 30
0.0
  0
SPLINE
  5
1a8
100
AcDbEntity
  8
Layer_1
 62
7
100
AcDbSpline
 70
8
 71
3
 72
8
 73
4
 74
0
 40
0
 40
0
 40
0
 40
0
 40
1
 40
1
 40
1
 40
1
 10
78.538722
 20
132.643947
 30
0.0
 10
78.499208
 20
132.846108
 30
0.0
 10
78.520587
 20
133.013183
 30
0.0
 10
78.602865
 20
133.145173
 30
0.0
  0
SPLINE
  5
1a9
100
AcDbEntity
  8
Layer_1
 62
7
100
AcDbSpline
 70
8
 71
3
 72
8
 73
4
 74
0
 40
0
 40
0
 40
0
 40
0
 40
1
 40
1
 40
1
 40
1
 10
78.602865
 20
133.145173
 30
0.0
 10
78.685141
 20
133.277161
 30
0.0
 10
78.809256
 20
133.359373
 30
0.0
 10
78.975210
 20
133.391813
 30
0.0
  0
SPLINE
  5
1aa
100
AcDbEntity
  8
Layer_1
 62
7
100
AcDbSpline
 70
8
 71
3
 72
8
 73
4
 74
0
 40
0
 40
0
 40
0
 40
0
 40
1
 40
1
 40
1
 40
1
 10
78.975210
 20
133.391813
 30
0.0
 10
79.135882
 20
133.423215
 30
0.0
 10
79.277826
 20
133.394108
 30
0.0
 10
79.401041
 20
133.304710
 30
0.0
  0
SPLINE
  5
1ab
100
AcDbEntity
  8
Layer_1
 62
7
100
AcDbSpline
 70
8
 71
3
 72
8
 73
4
 74
0
 40
0
 40
0
 40
0
 40
0
 40
1
 40
1
 40
1
 40
1
 10
79.401041
 20
133.304710
 30
0.0
 10
79.524254
 20
133.215235
 30
0.0
 10
79.605250
 20
133.071306
 30
0.0
 10
79.644029
 20
132.872914
 30
0.0
  0
SPLINE
  5
1ac
100
AcDbEntity
  8
Layer_1
 62
7
100
AcDbSpline
 70
8
 71
3
 72
8
 73
4
 74
0
 40
0
 40
0
 40
0
 40
0
 40
1
 40
1
 40
1
 40
1
 10
79.644029
 20
132.872914
 30
0.0
 10
79.646381
 20
132.860838
 30
0.0
 10
79.649548
 20
132.842668
 30
0.0
 10
79.653512
 20
132.818383
 30
0.0
  0
LWPOLYLINE
  5
1ad
100
AcDbEntity
  8
Layer_1
 62
7
100
AcDbPolyline
 90
2
 70
0
 10
79.469023
 20
132.614330
 30
0.0
 10
79.684569
 20
132.629447
 30
0.0
  0
SPLINE
  5
1ae
100
AcDbEntity
  8
Layer_1
 62
7
100
AcDbSpline
 70
8
 71
3
 72
8
 73
4
 74
0
 40
0
 40
0
 40
0
 40
0
 40
1
 40
1
 40
1
 40
1
 10
78.757364
 20
132.643219
 30
0.0
 10
78.790709
 20
132.512686
 30
0.0
 10
78.847806
 20
132.418902
 30
0.0
 10
78.928655
 20
132.361872
 30
0.0
  0
SPLINE
  5
1af
100
AcDbEntity
  8
Layer_1
 62
7
100
AcDbSpline
 70
8
 71
3
 72
8
 73
4
 74
0
 40
0
 40
0
 40
0
 40
0
 40
1
 40
1
 40
1
 40
1
 10
78.928655
 20
132.361872
 30
0.0
 10
79.009502
 20
132.304843
 30
0.0
 10
79.100089
 20
132.286131
 30
0.0
 10
79.200416
 20
132.305741
 30
0.0
  0
SPLINE
  5
1b0
100
AcDbEntity
  8
Layer_1
 62
7
100
AcDbSpline
 70
8
 71
3
 72
8
 73
4
 74
0
 40
0
 40
0
 40
0
 40
0
 40
1
 40
1
 40
1
 40
1
 10
79.200416
 20
132.305741
 30
0.0
 10
79.275094
 20
132.320341
 30
0.0
 10
79.335002
 20
132.352409
 30
0.0
 10
79.380139
 20
132.401957
 30
0.0
  0
SPLINE
  5
1b1
100
AcDbEntity
  8
Layer_1
 62
7
100
AcDbSpline
 70
8
 71
3
 72
8
 73
4
 74
0
 40
0
 40
0
 40
0
 40
0
 40
1
 40
1
 40
1
 40
1
 10
79.380139
 20
132.401957
 30
0.0
 10
79.425275
 20
132.451503
 30
0.0
 10
79.454902
 20
132.522295
 30
0.0
 10
79.469022
 20
132.614335
 30
0.0
  0
LWPOLYLINE
  5
1b2
100
AcDbEntity
  8
Layer_1
 62
7
100
AcDbPolyline
 90
2
 70
0
 10
79.653512
 20
132.818383
 30
0.0
 10
78.757364
 20
132.643219
 30
0.0
  0
LWPOLYLINE
  5
1b3
100
AcDbEntity
  8
Layer_1
 62
7
100
AcDbPolyline
 90
2
 70
0
 10
79.469022
 20
132.614335
 30
0.0
 10
79.469023
 20
132.614330
 30
0.0
  0
SPLINE
  5
1b4
100
AcDbEntity
  8
Layer_1
 62
7
100
AcDbSpline
 70
8
 71
3
 72
8
 73
4
 74
0
 40
0
 40
0
 40
0
 40
0
 40
1
 40
1
 40
1
 40
1
 10
79.406927
 20
132.944040
 30
0.0
 10
79.378117
 20
133.043349
 30
0.0
 10
79.337652
 20
133.114147
 30
0.0
 10
79.285531
 20
133.156430
 30
0.0
  0
SPLINE
  5
1b5
100
AcDbEntity
  8
Layer_1
 62
7
100
AcDbSpline
 70
8
 71
3
 72
8
 73
4
 74
0
 40
0
 40
0
 40
0
 40
0
 40
1
 40
1
 40
1
 40
1
 10
79.285531
 20
133.156430
 30
0.0
 10
79.205323
 20
133.222199
 30
0.0
 10
79.113548
 20
133.244984
 30
0.0
 10
79.010205
 20
133.224787
 30
0.0
  0
SPLINE
  5
1b6
100
AcDbEntity
  8
Layer_1
 62
7
100
AcDbSpline
 70
8
 71
3
 72
8
 73
4
 74
0
 40
0
 40
0
 40
0
 40
0
 40
1
 40
1
 40
1
 40
1
 10
79.010205
 20
133.224787
 30
0.0
 10
78.916667
 20
133.206514
 30
0.0
 10
78.844147
 20
133.159826
 30
0.0
 10
78.792644
 20
133.084759
 30
0.0
  0
SPLINE
  5
1b7
100
AcDbEntity
  8
Layer_1
 62
7
100
AcDbSpline
 70
8
 71
3
 72
8
 73
4
 74
0
 40
0
 40
0
 40
0
 40
0
 40
1
 40
1
 40
1
 40
1
 10
78.792644
 20
133.084759
 30
0.0
 10
78.741140
 20
133.009689
 30
0.0
 10
78.722242
 20
132.919066
 30
0.0
 10
78.735947
 20
132.812887
 30
0.0
  0
LWPOLYLINE
  5
1b8
100
AcDbEntity
  8
Layer_1
 62
7
100
AcDbPolyline
 90
2
 70
0
 10
78.735947
 20
132.812887
 30
0.0
 10
79.406927
 20
132.944040
 30
0.0
  0
LWPOLYLINE
  5
1b9
100
AcDbEntity
  8
Layer_1
 62
7
100
AcDbPolyline
 90
2
 70
0
 10
78.735947
 20
132.812887
 30
0.0
 10
78.735947
 20
132.812887
 30
0.0
  0
SPLINE
  5
1ba
100
AcDbEntity
  8
Layer_1
 62
7
100
AcDbSpline
 70
8
 71
3
 72
8
 73
4
 74
0
 40
0
 40
0
 40
0
 40
0
 40
1
 40
1
 40
1
 40
1
 10
80.057666
 20
133.356519
 30
0.0
 10
80.093171
 20
133.449004
 30
0.0
 10
80.129050
 20
133.511678
 30
0.0
 10
80.165302
 20
133.544538
 30
0.0
  0
SPLINE
  5
1bb
100
AcDbEntity
  8
Layer_1
 62
7
100
AcDbSpline
 70
8
 71
3
 72
8
 73
4
 74
0
 40
0
 40
0
 40
0
 40
0
 40
1
 40
1
 40
1
 40
1
 10
80.165302
 20
133.544538
 30
0.0
 10
80.201554
 20
133.577394
 30
0.0
 10
80.243670
 20
133.597089
 30
0.0
 10
80.291650
 20
133.603621
 30
0.0
  0
SPLINE
  5
1bc
100
AcDbEntity
  8
Layer_1
 62
7
100
AcDbSpline
 70
8
 71
3
 72
8
 73
4
 74
0
 40
0
 40
0
 40
0
 40
0
 40
1
 40
1
 40
1
 40
1
 10
80.291650
 20
133.603621
 30
0.0
 10
80.360954
 20
133.613058
 30
0.0
 10
80.434407
 20
133.600552
 30
0.0
 10
80.512008
 20
133.566126
 30
0.0
  0
LWPOLYLINE
  5
1bd
100
AcDbEntity
  8
Layer_1
 62
7
100
AcDbPolyline
 90
4
 70
0
 10
80.012688
 20
132.302049
 30
0.0
 10
79.847570
 20
133.515258
 30
0.0
 10
80.032635
 20
133.540444
 30
0.0
 10
80.057666
 20
133.356519
 30
0.0
  0
SPLINE
  5
1be
100
AcDbEntity
  8
Layer_1
 62
7
100
AcDbSpline
 70
8
 71
3
 72
8
 73
4
 74
0
 40
0
 40
0
 40
0
 40
0
 40
1
 40
1
 40
1
 40
1
 10
80.467146
 20
133.365710
 30
0.0
 10
80.412838
 20
133.388572
 30
0.0
 10
80.360552
 20
133.396578
 30
0.0
 10
80.310288
 20
133.389748
 30
0.0
  0
SPLINE
  5
1bf
100
AcDbEntity
  8
Layer_1
 62
7
100
AcDbSpline
 70
8
 71
3
 72
8
 73
4
 74
0
 40
0
 40
0
 40
0
 40
0
 40
1
 40
1
 40
1
 40
1
 10
80.310288
 20
133.389748
 30
0.0
 10
80.265354
 20
133.383638
 30
0.0
 10
80.226829
 20
133.364620
 30
0.0
 10
80.194715
 20
133.332713
 30
0.0
  0
SPLINE
  5
1c0
100
AcDbEntity
  8
Layer_1
 62
7
100
AcDbSpline
 70
8
 71
3
 72
8
 73
4
 74
0
 40
0
 40
0
 40
0
 40
0
 40
1
 40
1
 40
1
 40
1
 10
80.194715
 20
133.332713
 30
0.0
 10
80.162600
 20
133.300803
 30
0.0
 10
80.142191
 20
133.259823
 30
0.0
 10
80.133490
 20
133.209770
 30
0.0
  0
SPLINE
  5
1c1
100
AcDbEntity
  8
Layer_1
 62
7
100
AcDbSpline
 70
8
 71
3
 72
8
 73
4
 74
0
 40
0
 40
0
 40
0
 40
0
 40
1
 40
1
 40
1
 40
1
 10
80.133490
 20
133.209770
 30
0.0
 10
80.120593
 20
133.133547
 30
0.0
 10
80.120054
 20
133.052026
 30
0.0
 10
80.131855
 20
132.965207
 30
0.0
  0
LWPOLYLINE
  5
1c2
100
AcDbEntity
  8
Layer_1
 62
7
100
AcDbPolyline
 90
2
 70
0
 10
80.512008
 20
133.566126
 30
0.0
 10
80.467146
 20
133.365710
 30
0.0
  0
LWPOLYLINE
  5
1c3
100
AcDbEntity
  8
Layer_1
 62
7
100
AcDbPolyline
 90
3
 70
0
 10
80.131855
 20
132.965207
 30
0.0
 10
80.218301
 20
132.330043
 30
0.0
 10
80.012688
 20
132.302049
 30
0.0
  0
LWPOLYLINE
  5
1c4
100
AcDbEntity
  8
Layer_1
 62
7
100
AcDbPolyline
 90
5
 70
0
 10
80.855834
 20
132.406917
 30
0.0
 10
80.833224
 20
132.642180
 30
0.0
 10
81.068487
 20
132.664784
 30
0.0
 10
81.091097
 20
132.429521
 30
0.0
 10
80.855834
 20
132.406917
 30
0.0
  0
SPLINE
  5
1c5
100
AcDbEntity
  8
Layer_1
 62
7
100
AcDbSpline
 70
8
 71
3
 72
8
 73
4
 74
0
 40
0
 40
0
 40
0
 40
0
 40
1
 40
1
 40
1
 40
1
 10
81.610791
 20
133.555957
 30
0.0
 10
81.702794
 20
133.672173
 30
0.0
 10
81.822516
 20
133.733411
 30
0.0
 10
81.969957
 20
133.739661
 30
0.0
  0
SPLINE
  5
1c6
100
AcDbEntity
  8
Layer_1
 62
7
100
AcDbSpline
 70
8
 71
3
 72
8
 73
4
 74
0
 40
0
 40
0
 40
0
 40
0
 40
1
 40
1
 40
1
 40
1
 10
81.969957
 20
133.739661
 30
0.0
 10
82.060571
 20
133.743505
 30
0.0
 10
82.140039
 20
133.728990
 30
0.0
 10
82.208363
 20
133.696114
 30
0.0
  0
SPLINE
  5
1c7
100
AcDbEntity
  8
Layer_1
 62
7
100
AcDbSpline
 70
8
 71
3
 72
8
 73
4
 74
0
 40
0
 40
0
 40
0
 40
0
 40
1
 40
1
 40
1
 40
1
 10
82.208363
 20
133.696114
 30
0.0
 10
82.276685
 20
133.663235
 30
0.0
 10
82.326580
 20
133.615924
 30
0.0
 10
82.358048
 20
133.554179
 30
0.0
  0
SPLINE
  5
1c8
100
AcDbEntity
  8
Layer_1
 62
7
100
AcDbSpline
 70
8
 71
3
 72
8
 73
4
 74
0
 40
0
 40
0
 40
0
 40
0
 40
1
 40
1
 40
1
 40
1
 10
82.358048
 20
133.554179
 30
0.0
 10
82.389514
 20
133.492428
 30
0.0
 10
82.407787
 20
133.401655
 30
0.0
 10
82.412868
 20
133.281862
 30
0.0
  0
LWPOLYLINE
  5
1c9
100
AcDbEntity
  8
Layer_1
 62
7
100
AcDbPolyline
 90
4
 70
0
 10
81.449363
 20
132.464385
 30
0.0
 10
81.377762
 20
134.153038
 30
0.0
 10
81.585100
 20
134.161845
 30
0.0
 10
81.610791
 20
133.555957
 30
0.0
  0
SPLINE
  5
1ca
100
AcDbEntity
  8
Layer_1
 62
7
100
AcDbSpline
 70
8
 71
3
 72
8
 73
4
 74
0
 40
0
 40
0
 40
0
 40
0
 40
1
 40
1
 40
1
 40
1
 10
82.205530
 20
133.273056
 30
0.0
 10
82.201133
 20
133.376725
 30
0.0
 10
82.175473
 20
133.451221
 30
0.0
 10
82.128548
 20
133.496544
 30
0.0
  0
SPLINE
  5
1cb
100
AcDbEntity
  8
Layer_1
 62
7
100
AcDbSpline
 70
8
 71
3
 72
8
 73
4
 74
0
 40
0
 40
0
 40
0
 40
0
 40
1
 40
1
 40
1
 40
1
 10
82.128548
 20
133.496544
 30
0.0
 10
82.081621
 20
133.541864
 30
0.0
 10
82.017075
 20
133.562784
 30
0.0
 10
81.934908
 20
133.559299
 30
0.0
  0
SPLINE
  5
1cc
100
AcDbEntity
  8
Layer_1
 62
7
100
AcDbSpline
 70
8
 71
3
 72
8
 73
4
 74
0
 40
0
 40
0
 40
0
 40
0
 40
1
 40
1
 40
1
 40
1
 10
81.934908
 20
133.559299
 30
0.0
 10
81.873474
 20
133.556717
 30
0.0
 10
81.816364
 20
133.538301
 30
0.0
 10
81.763578
 20
133.504146
 30
0.0
  0
SPLINE
  5
1cd
100
AcDbEntity
  8
Layer_1
 62
7
100
AcDbSpline
 70
8
 71
3
 72
8
 73
4
 74
0
 40
0
 40
0
 40
0
 40
0
 40
1
 40
1
 40
1
 40
1
 10
81.763578
 20
133.504146
 30
0.0
 10
81.710790
 20
133.469981
 30
0.0
 10
81.674034
 20
133.425149
 30
0.0
 10
81.653308
 20
133.369651
 30
0.0
  0
SPLINE
  5
1ce
100
AcDbEntity
  8
Layer_1
 62
7
100
AcDbSpline
 70
8
 71
3
 72
8
 73
4
 74
0
 40
0
 40
0
 40
0
 40
0
 40
1
 40
1
 40
1
 40
1
 10
81.653308
 20
133.369651
 30
0.0
 10
81.632583
 20
133.314151
 30
0.0
 10
81.624254
 20
133.238407
 30
0.0
 10
81.628326
 20
133.142420
 30
0.0
  0
LWPOLYLINE
  5
1cf
100
AcDbEntity
  8
Layer_1
 62
7
100
AcDbPolyline
 90
4
 70
0
 10
82.412868
 20
133.281862
 30
0.0
 10
82.445738
 20
132.506647
 30
0.0
 10
82.238400
 20
132.497841
 30
0.0
 10
82.205530
 20
133.273056
 30
0.0
  0
SPLINE
  5
1d0
100
AcDbEntity
  8
Layer_1
 62
7
100
AcDbSpline
 70
8
 71
3
 72
8
 73
4
 74
0
 40
0
 40
0
 40
0
 40
0
 40
1
 40
1
 40
1
 40
1
 10
83.566209
 20
132.637278
 30
0.0
 10
83.487521
 20
132.574159
 30
0.0
 10
83.412262
 20
132.530164
 30
0.0
 10
83.340430
 20
132.505294
 30
0.0
  0
SPLINE
  5
1d1
100
AcDbEntity
  8
Layer_1
 62
7
100
AcDbSpline
 70
8
 71
3
 72
8
 73
4
 74
0
 40
0
 40
0
 40
0
 40
0
 40
1
 40
1
 40
1
 40
1
 10
83.340430
 20
132.505294
 30
0.0
 10
83.268597
 20
132.480423
 30
0.0
 10
83.191962
 20
132.469147
 30
0.0
 10
83.110523
 20
132.471462
 30
0.0
  0
SPLINE
  5
1d2
100
AcDbEntity
  8
Layer_1
 62
7
100
AcDbSpline
 70
8
 71
3
 72
8
 73
4
 74
0
 40
0
 40
0
 40
0
 40
0
 40
1
 40
1
 40
1
 40
1
 10
83.110523
 20
132.471462
 30
0.0
 10
82.976070
 20
132.475277
 30
0.0
 10
82.873668
 20
132.511068
 30
0.0
 10
82.803316
 20
132.578811
 30
0.0
  0
SPLINE
  5
1d3
100
AcDbEntity
  8
Layer_1
 62
7
100
AcDbSpline
 70
8
 71
3
 72
8
 73
4
 74
0
 40
0
 40
0
 40
0
 40
0
 40
1
 40
1
 40
1
 40
1
 10
82.803316
 20
132.578811
 30
0.0
 10
82.732964
 20
132.646555
 30
0.0
 10
82.699241
 20
132.731518
 30
0.0
 10
82.702147
 20
132.833701
 30
0.0
  0
SPLINE
  5
1d4
100
AcDbEntity
  8
Layer_1
 62
7
100
AcDbSpline
 70
8
 71
3
 72
8
 73
4
 74
0
 40
0
 40
0
 40
0
 40
0
 40
1
 40
1
 40
1
 40
1
 10
82.702147
 20
132.833701
 30
0.0
 10
82.703839
 20
132.893628
 30
0.0
 10
82.719045
 20
132.947981
 30
0.0
 10
82.747729
 20
132.996764
 30
0.0
  0
SPLINE
  5
1d5
100
AcDbEntity
  8
Layer_1
 62
7
100
AcDbSpline
 70
8
 71
3
 72
8
 73
4
 74
0
 40
0
 40
0
 40
0
 40
0
 40
1
 40
1
 40
1
 40
1
 10
82.747729
 20
132.996764
 30
0.0
 10
82.776411
 20
133.045540
 30
0.0
 10
82.813269
 20
133.084286
 30
0.0
 10
82.858298
 20
133.112994
 30
0.0
  0
SPLINE
  5
1d6
100
AcDbEntity
  8
Layer_1
 62
7
100
AcDbSpline
 70
8
 71
3
 72
8
 73
4
 74
0
 40
0
 40
0
 40
0
 40
0
 40
1
 40
1
 40
1
 40
1
 10
82.858298
 20
133.112994
 30
0.0
 10
82.903327
 20
133.141700
 30
0.0
 10
82.953719
 20
133.162950
 30
0.0
 10
83.009474
 20
133.176745
 30
0.0
  0
SPLINE
  5
1d7
100
AcDbEntity
  8
Layer_1
 62
7
100
AcDbSpline
 70
8
 71
3
 72
8
 73
4
 74
0
 40
0
 40
0
 40
0
 40
0
 40
1
 40
1
 40
1
 40
1
 10
83.009474
 20
133.176745
 30
0.0
 10
83.050499
 20
133.186354
 30
0.0
 10
83.112257
 20
133.194960
 30
0.0
 10
83.194750
 20
133.202619
 30
0.0
  0
SPLINE
  5
1d8
100
AcDbEntity
  8
Layer_1
 62
7
100
AcDbSpline
 70
8
 71
3
 72
8
 73
4
 74
0
 40
0
 40
0
 40
0
 40
0
 40
1
 40
1
 40
1
 40
1
 10
83.194750
 20
133.202619
 30
0.0
 10
83.362806
 20
133.217822
 30
0.0
 10
83.486795
 20
133.238143
 30
0.0
 10
83.566717
 20
133.263552
 30
0.0
  0
SPLINE
  5
1d9
100
AcDbEntity
  8
Layer_1
 62
7
100
AcDbSpline
 70
8
 71
3
 72
8
 73
4
 74
0
 40
0
 40
0
 40
0
 40
0
 40
1
 40
1
 40
1
 40
1
 10
83.566717
 20
133.263552
 30
0.0
 10
83.568295
 20
133.291951
 30
0.0
 10
83.569184
 20
133.310000
 30
0.0
 10
83.569414
 20
133.317685
 30
0.0
  0
SPLINE
  5
1da
100
AcDbEntity
  8
Layer_1
 62
7
100
AcDbSpline
 70
8
 71
3
 72
8
 73
4
 74
0
 40
0
 40
0
 40
0
 40
0
 40
1
 40
1
 40
1
 40
1
 10
83.569414
 20
133.317685
 30
0.0
 10
83.571823
 20
133.402195
 30
0.0
 10
83.553918
 20
133.462296
 30
0.0
 10
83.515718
 20
133.497984
 30
0.0
  0
SPLINE
  5
1db
100
AcDbEntity
  8
Layer_1
 62
7
100
AcDbSpline
 70
8
 71
3
 72
8
 73
4
 74
0
 40
0
 40
0
 40
0
 40
0
 40
1
 40
1
 40
1
 40
1
 10
83.515718
 20
133.497984
 30
0.0
 10
83.464038
 20
133.546356
 30
0.0
 10
83.385954
 20
133.572030
 30
0.0
 10
83.281466
 20
133.575001
 30
0.0
  0
SPLINE
  5
1dc
100
AcDbEntity
  8
Layer_1
 62
7
100
AcDbSpline
 70
8
 71
3
 72
8
 73
4
 74
0
 40
0
 40
0
 40
0
 40
0
 40
1
 40
1
 40
1
 40
1
 10
83.281466
 20
133.575001
 30
0.0
 10
83.183891
 20
133.577870
 30
0.0
 10
83.111377
 20
133.562724
 30
0.0
 10
83.063924
 20
133.529862
 30
0.0
  0
SPLINE
  5
1dd
100
AcDbEntity
  8
Layer_1
 62
7
100
AcDbSpline
 70
8
 71
3
 72
8
 73
4
 74
0
 40
0
 40
0
 40
0
 40
0
 40
1
 40
1
 40
1
 40
1
 10
83.063924
 20
133.529862
 30
0.0
 10
83.016469
 20
133.496994
 30
0.0
 10
82.980367
 20
133.437469
 30
0.0
 10
82.955618
 20
133.351284
 30
0.0
  0
LWPOLYLINE
  5
1de
100
AcDbEntity
  8
Layer_1
 62
7
100
AcDbPolyline
 90
3
 70
0
 10
81.628326
 20
133.142420
 30
0.0
 10
81.656702
 20
132.473177
 30
0.0
 10
81.449363
 20
132.464385
 30
0.0
  0
SPLINE
  5
1df
100
AcDbEntity
  8
Layer_1
 62
7
100
AcDbSpline
 70
8
 71
3
 72
8
 73
4
 74
0
 40
0
 40
0
 40
0
 40
0
 40
1
 40
1
 40
1
 40
1
 10
82.753574
 20
133.384711
 30
0.0
 10
82.774483
 20
133.471002
 30
0.0
 10
82.806823
 20
133.540249
 30
0.0
 10
82.850598
 20
133.592445
 30
0.0
  0
SPLINE
  5
1e0
100
AcDbEntity
  8
Layer_1
 62
7
100
AcDbSpline
 70
8
 71
3
 72
8
 73
4
 74
0
 40
0
 40
0
 40
0
 40
0
 40
1
 40
1
 40
1
 40
1
 10
82.850598
 20
133.592445
 30
0.0
 10
82.894372
 20
133.644638
 30
0.0
 10
82.956621
 20
133.684006
 30
0.0
 10
83.037343
 20
133.710546
 30
0.0
  0
SPLINE
  5
1e1
100
AcDbEntity
  8
Layer_1
 62
7
100
AcDbSpline
 70
8
 71
3
 72
8
 73
4
 74
0
 40
0
 40
0
 40
0
 40
0
 40
1
 40
1
 40
1
 40
1
 10
83.037343
 20
133.710546
 30
0.0
 10
83.118065
 20
133.737080
 30
0.0
 10
83.211055
 20
133.748855
 30
0.0
 10
83.316312
 20
133.745863
 30
0.0
  0
SPLINE
  5
1e2
100
AcDbEntity
  8
Layer_1
 62
7
100
AcDbSpline
 70
8
 71
3
 72
8
 73
4
 74
0
 40
0
 40
0
 40
0
 40
0
 40
1
 40
1
 40
1
 40
1
 10
83.316312
 20
133.745863
 30
0.0
 10
83.420800
 20
133.742880
 30
0.0
 10
83.505347
 20
133.728193
 30
0.0
 10
83.569954
 20
133.701742
 30
0.0
  0
SPLINE
  5
1e3
100
AcDbEntity
  8
Layer_1
 62
7
100
AcDbSpline
 70
8
 71
3
 72
8
 73
4
 74
0
 40
0
 40
0
 40
0
 40
0
 40
1
 40
1
 40
1
 40
1
 10
83.569954
 20
133.701742
 30
0.0
 10
83.634559
 20
133.675294
 30
0.0
 10
83.681699
 20
133.643012
 30
0.0
 10
83.711372
 20
133.604874
 30
0.0
  0
SPLINE
  5
1e4
100
AcDbEntity
  8
Layer_1
 62
7
100
AcDbSpline
 70
8
 71
3
 72
8
 73
4
 74
0
 40
0
 40
0
 40
0
 40
0
 40
1
 40
1
 40
1
 40
1
 10
83.711372
 20
133.604874
 30
0.0
 10
83.741043
 20
133.566737
 30
0.0
 10
83.761218
 20
133.519068
 30
0.0
 10
83.771895
 20
133.461866
 30
0.0
  0
SPLINE
  5
1e5
100
AcDbEntity
  8
Layer_1
 62
7
100
AcDbSpline
 70
8
 71
3
 72
8
 73
4
 74
0
 40
0
 40
0
 40
0
 40
0
 40
1
 40
1
 40
1
 40
1
 10
83.771895
 20
133.461866
 30
0.0
 10
83.777804
 20
133.426325
 30
0.0
 10
83.779447
 20
133.362460
 30
0.0
 10
83.776826
 20
133.270265
 30
0.0
  0
LWPOLYLINE
  5
1e6
100
AcDbEntity
  8
Layer_1
 62
7
100
AcDbPolyline
 90
2
 70
0
 10
82.955618
 20
133.351284
 30
0.0
 10
82.753574
 20
133.384711
 30
0.0
  0
SPLINE
  5
1e7
100
AcDbEntity
  8
Layer_1
 62
7
100
AcDbSpline
 70
8
 71
3
 72
8
 73
4
 74
0
 40
0
 40
0
 40
0
 40
0
 40
1
 40
1
 40
1
 40
1
 10
83.768960
 20
132.993677
 30
0.0
 10
83.763475
 20
132.800834
 30
0.0
 10
83.764425
 20
132.678740
 30
0.0
 10
83.771800
 20
132.627399
 30
0.0
  0
SPLINE
  5
1e8
100
AcDbEntity
  8
Layer_1
 62
7
100
AcDbSpline
 70
8
 71
3
 72
8
 73
4
 74
0
 40
0
 40
0
 40
0
 40
0
 40
1
 40
1
 40
1
 40
1
 10
83.771800
 20
132.627399
 30
0.0
 10
83.779181
 20
132.576055
 30
0.0
 10
83.795267
 20
132.526578
 30
0.0
 10
83.820058
 20
132.478969
 30
0.0
  0
LWPOLYLINE
  5
1e9
100
AcDbEntity
  8
Layer_1
 62
7
100
AcDbPolyline
 90
2
 70
0
 10
83.776826
 20
133.270265
 30
0.0
 10
83.768960
 20
132.993677
 30
0.0
  0
SPLINE
  5
1ea
100
AcDbEntity
  8
Layer_1
 62
7
100
AcDbSpline
 70
8
 71
3
 72
8
 73
4
 74
0
 40
0
 40
0
 40
0
 40
0
 40
1
 40
1
 40
1
 40
1
 10
83.603398
 20
132.485136
 30
0.0
 10
83.583109
 20
132.528773
 30
0.0
 10
83.570710
 20
132.579488
 30
0.0
 10
83.566203
 20
132.637287
 30
0.0
  0
LWPOLYLINE
  5
1eb
100
AcDbEntity
  8
Layer_1
 62
7
100
AcDbPolyline
 90
2
 70
0
 10
83.820058
 20
132.478969
 30
0.0
 10
83.603398
 20
132.485136
 30
0.0
  0
SPLINE
  5
1ec
100
AcDbEntity
  8
Layer_1
 62
7
100
AcDbSpline
 70
8
 71
3
 72
8
 73
4
 74
0
 40
0
 40
0
 40
0
 40
0
 40
1
 40
1
 40
1
 40
1
 10
83.562095
 20
133.101052
 30
0.0
 10
83.485928
 20
133.072453
 30
0.0
 10
83.372245
 20
133.049551
 30
0.0
 10
83.221048
 20
133.032322
 30
0.0
  0
SPLINE
  5
1ed
100
AcDbEntity
  8
Layer_1
 62
7
100
AcDbSpline
 70
8
 71
3
 72
8
 73
4
 74
0
 40
0
 40
0
 40
0
 40
0
 40
1
 40
1
 40
1
 40
1
 10
83.221048
 20
133.032322
 30
0.0
 10
83.135417
 20
133.022454
 30
0.0
 10
83.074712
 20
133.010349
 30
0.0
 10
83.038934
 20
132.995978
 30
0.0
  0
SPLINE
  5
1ee
100
AcDbEntity
  8
Layer_1
 62
7
100
AcDbSpline
 70
8
 71
3
 72
8
 73
4
 74
0
 40
0
 40
0
 40
0
 40
0
 40
1
 40
1
 40
1
 40
1
 10
83.038934
 20
132.995978
 30
0.0
 10
83.003155
 20
132.981606
 30
0.0
 10
82.975241
 20
132.959920
 30
0.0
 10
82.955193
 20
132.930888
 30
0.0
  0
SPLINE
  5
1ef
100
AcDbEntity
  8
Layer_1
 62
7
100
AcDbSpline
 70
8
 71
3
 72
8
 73
4
 74
0
 40
0
 40
0
 40
0
 40
0
 40
1
 40
1
 40
1
 40
1
 10
82.955193
 20
132.930888
 30
0.0
 10
82.935144
 20
132.901855
 30
0.0
 10
82.924606
 20
132.869283
 30
0.0
 10
82.923580
 20
132.833174
 30
0.0
  0
SPLINE
  5
1f0
100
AcDbEntity
  8
Layer_1
 62
7
100
AcDbSpline
 70
8
 71
3
 72
8
 73
4
 74
0
 40
0
 40
0
 40
0
 40
0
 40
1
 40
1
 40
1
 40
1
 10
82.923580
 20
132.833174
 30
0.0
 10
82.922002
 20
132.777854
 30
0.0
 10
82.941631
 20
132.731163
 30
0.0
 10
82.982456
 20
132.693094
 30
0.0
  0
SPLINE
  5
1f1
100
AcDbEntity
  8
Layer_1
 62
7
100
AcDbSpline
 70
8
 71
3
 72
8
 73
4
 74
0
 40
0
 40
0
 40
0
 40
0
 40
1
 40
1
 40
1
 40
1
 10
82.982456
 20
132.693094
 30
0.0
 10
83.023279
 20
132.655023
 30
0.0
 10
83.084026
 20
132.634843
 30
0.0
 10
83.164698
 20
132.632548
 30
0.0
  0
SPLINE
  5
1f2
100
AcDbEntity
  8
Layer_1
 62
7
100
AcDbSpline
 70
8
 71
3
 72
8
 73
4
 74
0
 40
0
 40
0
 40
0
 40
0
 40
1
 40
1
 40
1
 40
1
 10
83.164698
 20
132.632548
 30
0.0
 10
83.244600
 20
132.630253
 30
0.0
 10
83.316165
 20
132.645743
 30
0.0
 10
83.379392
 20
132.678921
 30
0.0
  0
SPLINE
  5
1f3
100
AcDbEntity
  8
Layer_1
 62
7
100
AcDbSpline
 70
8
 71
3
 72
8
 73
4
 74
0
 40
0
 40
0
 40
0
 40
0
 40
1
 40
1
 40
1
 40
1
 10
83.379392
 20
132.678921
 30
0.0
 10
83.442617
 20
132.712110
 30
0.0
 10
83.489691
 20
132.758637
 30
0.0
 10
83.520613
 20
132.818501
 30
0.0
  0
SPLINE
  5
1f4
100
AcDbEntity
  8
Layer_1
 62
7
100
AcDbSpline
 70
8
 71
3
 72
8
 73
4
 74
0
 40
0
 40
0
 40
0
 40
0
 40
1
 40
1
 40
1
 40
1
 10
83.520613
 20
132.818501
 30
0.0
 10
83.544224
 20
132.864733
 30
0.0
 10
83.557332
 20
132.933564
 30
0.0
 10
83.559933
 20
133.024993
 30
0.0
  0
LWPOLYLINE
  5
1f5
100
AcDbEntity
  8
Layer_1
 62
7
100
AcDbPolyline
 90
2
 70
0
 10
83.566203
 20
132.637287
 30
0.0
 10
83.566209
 20
132.637278
 30
0.0
  0
LWPOLYLINE
  5
1f6
100
AcDbEntity
  8
Layer_1
 62
7
100
AcDbPolyline
 90
2
 70
0
 10
83.559933
 20
133.024993
 30
0.0
 10
83.562095
 20
133.101052
 30
0.0
  0
SPLINE
  5
1f7
100
AcDbEntity
  8
Layer_1
 62
7
100
AcDbSpline
 70
8
 71
3
 72
8
 73
4
 74
0
 40
0
 40
0
 40
0
 40
0
 40
1
 40
1
 40
1
 40
1
 10
85.115652
 20
132.782779
 30
0.0
 10
85.079970
 20
132.644911
 30
0.0
 10
85.012601
 20
132.540789
 30
0.0
 10
84.913545
 20
132.470418
 30
0.0
  0
SPLINE
  5
1f8
100
AcDbEntity
  8
Layer_1
 62
7
100
AcDbSpline
 70
8
 71
3
 72
8
 73
4
 74
0
 40
0
 40
0
 40
0
 40
0
 40
1
 40
1
 40
1
 40
1
 10
84.913545
 20
132.470418
 30
0.0
 10
84.814488
 20
132.400047
 30
0.0
 10
84.698399
 20
132.371275
 30
0.0
 10
84.565278
 20
132.384103
 30
0.0
  0
SPLINE
  5
1f9
100
AcDbEntity
  8
Layer_1
 62
7
100
AcDbSpline
 70
8
 71
3
 72
8
 73
4
 74
0
 40
0
 40
0
 40
0
 40
0
 40
1
 40
1
 40
1
 40
1
 10
84.565278
 20
132.384103
 30
0.0
 10
84.398494
 20
132.400167
 30
0.0
 10
84.269671
 20
132.467612
 30
0.0
 10
84.178808
 20
132.586404
 30
0.0
  0
SPLINE
  5
1fa
100
AcDbEntity
  8
Layer_1
 62
7
100
AcDbSpline
 70
8
 71
3
 72
8
 73
4
 74
0
 40
0
 40
0
 40
0
 40
0
 40
1
 40
1
 40
1
 40
1
 10
84.178808
 20
132.586404
 30
0.0
 10
84.087944
 20
132.705196
 30
0.0
 10
84.052320
 20
132.866345
 30
0.0
 10
84.071934
 20
133.069851
 30
0.0
  0
SPLINE
  5
1fb
100
AcDbEntity
  8
Layer_1
 62
7
100
AcDbSpline
 70
8
 71
3
 72
8
 73
4
 74
0
 40
0
 40
0
 40
0
 40
0
 40
1
 40
1
 40
1
 40
1
 10
84.071934
 20
133.069851
 30
0.0
 10
84.084616
 20
133.201443
 30
0.0
 10
84.117518
 20
133.314483
 30
0.0
 10
84.170639
 20
133.408973
 30
0.0
  0
SPLINE
  5
1fc
100
AcDbEntity
  8
Layer_1
 62
7
100
AcDbSpline
 70
8
 71
3
 72
8
 73
4
 74
0
 40
0
 40
0
 40
0
 40
0
 40
1
 40
1
 40
1
 40
1
 10
84.170639
 20
133.408973
 30
0.0
 10
84.223759
 20
133.503463
 30
0.0
 10
84.297262
 20
133.571086
 30
0.0
 10
84.391149
 20
133.611842
 30
0.0
  0
SPLINE
  5
1fd
100
AcDbEntity
  8
Layer_1
 62
7
100
AcDbSpline
 70
8
 71
3
 72
8
 73
4
 74
0
 40
0
 40
0
 40
0
 40
0
 40
1
 40
1
 40
1
 40
1
 10
84.391149
 20
133.611842
 30
0.0
 10
84.485034
 20
133.652598
 30
0.0
 10
84.584384
 20
133.667925
 30
0.0
 10
84.689198
 20
133.657825
 30
0.0
  0
SPLINE
  5
1fe
100
AcDbEntity
  8
Layer_1
 62
7
100
AcDbSpline
 70
8
 71
3
 72
8
 73
4
 74
0
 40
0
 40
0
 40
0
 40
0
 40
1
 40
1
 40
1
 40
1
 10
84.689198
 20
133.657825
 30
0.0
 10
84.821553
 20
133.645060
 30
0.0
 10
84.926584
 20
133.601163
 30
0.0
 10
85.004290
 20
133.526107
 30
0.0
  0
SPLINE
  5
1ff
100
AcDbEntity
  8
Layer_1
 62
7
100
AcDbSpline
 70
8
 71
3
 72
8
 73
4
 74
0
 40
0
 40
0
 40
0
 40
0
 40
1
 40
1
 40
1
 40
1
 10
85.004290
 20
133.526107
 30
0.0
 10
85.081993
 20
133.451055
 30
0.0
 10
85.126768
 20
133.350796
 30
0.0
 10
85.138615
 20
133.225335
 30
0.0
  0
LWPOLYLINE
  5
200
100
AcDbEntity
  8
Layer_1
 62
7
100
AcDbPolyline
 90
2
 70
0
 10
84.915071
 20
132.828750
 30
0.0
 10
85.115652
 20
132.782779
 30
0.0
  0
SPLINE
  5
201
100
AcDbEntity
  8
Layer_1
 62
7
100
AcDbSpline
 70
8
 71
3
 72
8
 73
4
 74
0
 40
0
 40
0
 40
0
 40
0
 40
1
 40
1
 40
1
 40
1
 10
84.934800
 20
133.213717
 30
0.0
 10
84.923561
 20
133.297421
 30
0.0
 10
84.895644
 20
133.362273
 30
0.0
 10
84.851045
 20
133.408270
 30
0.0
  0
SPLINE
  5
202
100
AcDbEntity
  8
Layer_1
 62
7
100
AcDbSpline
 70
8
 71
3
 72
8
 73
4
 74
0
 40
0
 40
0
 40
0
 40
0
 40
1
 40
1
 40
1
 40
1
 10
84.851045
 20
133.408270
 30
0.0
 10
84.806444
 20
133.454264
 30
0.0
 10
84.749716
 20
133.480580
 30
0.0
 10
84.680862
 20
133.487218
 30
0.0
  0
SPLINE
  5
203
100
AcDbEntity
  8
Layer_1
 62
7
100
AcDbSpline
 70
8
 71
3
 72
8
 73
4
 74
0
 40
0
 40
0
 40
0
 40
0
 40
1
 40
1
 40
1
 40
1
 10
84.680862
 20
133.487218
 30
0.0
 10
84.576813
 20
133.497230
 30
0.0
 10
84.488678
 20
133.468085
 30
0.0
 10
84.416459
 20
133.399771
 30
0.0
  0
SPLINE
  5
204
100
AcDbEntity
  8
Layer_1
 62
7
100
AcDbSpline
 70
8
 71
3
 72
8
 73
4
 74
0
 40
0
 40
0
 40
0
 40
0
 40
1
 40
1
 40
1
 40
1
 10
84.416459
 20
133.399771
 30
0.0
 10
84.344239
 20
133.331445
 30
0.0
 10
84.300350
 20
133.216566
 30
0.0
 10
84.284792
 20
133.055138
 30
0.0
  0
SPLINE
  5
205
100
AcDbEntity
  8
Layer_1
 62
7
100
AcDbSpline
 70
8
 71
3
 72
8
 73
4
 74
0
 40
0
 40
0
 40
0
 40
0
 40
1
 40
1
 40
1
 40
1
 10
84.284792
 20
133.055138
 30
0.0
 10
84.269012
 20
132.891416
 30
0.0
 10
84.288914
 20
132.769426
 30
0.0
 10
84.344496
 20
132.689167
 30
0.0
  0
SPLINE
  5
206
100
AcDbEntity
  8
Layer_1
 62
7
100
AcDbSpline
 70
8
 71
3
 72
8
 73
4
 74
0
 40
0
 40
0
 40
0
 40
0
 40
1
 40
1
 40
1
 40
1
 10
84.344496
 20
132.689167
 30
0.0
 10
84.400079
 20
132.608911
 30
0.0
 10
84.478364
 20
132.563915
 30
0.0
 10
84.579353
 20
132.554182
 30
0.0
  0
SPLINE
  5
207
100
AcDbEntity
  8
Layer_1
 62
7
100
AcDbSpline
 70
8
 71
3
 72
8
 73
4
 74
0
 40
0
 40
0
 40
0
 40
0
 40
1
 40
1
 40
1
 40
1
 10
84.579353
 20
132.554182
 30
0.0
 10
84.660449
 20
132.546351
 30
0.0
 10
84.730553
 20
132.564710
 30
0.0
 10
84.789667
 20
132.609198
 30
0.0
  0
SPLINE
  5
208
100
AcDbEntity
  8
Layer_1
 62
7
100
AcDbSpline
 70
8
 71
3
 72
8
 73
4
 74
0
 40
0
 40
0
 40
0
 40
0
 40
1
 40
1
 40
1
 40
1
 10
84.789667
 20
132.609198
 30
0.0
 10
84.848778
 20
132.653692
 30
0.0
 10
84.890580
 20
132.726880
 30
0.0
 10
84.915071
 20
132.828762
 30
0.0
  0
LWPOLYLINE
  5
209
100
AcDbEntity
  8
Layer_1
 62
7
100
AcDbPolyline
 90
2
 70
0
 10
85.138615
 20
133.225335
 30
0.0
 10
84.934800
 20
133.213717
 30
0.0
  0
LWPOLYLINE
  5
20a
100
AcDbEntity
  8
Layer_1
 62
7
100
AcDbPolyline
 90
2
 70
0
 10
84.915071
 20
132.828762
 30
0.0
 10
84.915071
 20
132.828750
 30
0.0
  0
LWPOLYLINE
  5
20b
100
AcDbEntity
  8
Layer_1
 62
7
100
AcDbPolyline
 90
13
 70
0
 10
85.252154
 20
132.335576
 30
0.0
 10
85.522597
 20
134.003972
 30
0.0
 10
85.727447
 20
133.970766
 30
0.0
 10
85.573225
 20
133.019348
 30
0.0
 10
86.137732
 20
133.432403
 30
0.0
 10
86.402899
 20
133.389418
 30
0.0
 10
85.868164
 20
133.015923
 30
0.0
 10
86.253646
 20
132.173237
 30
0.0
 10
86.000997
 20
132.214191
 30
0.0
 10
85.701709
 20
132.896907
 30
0.0
 10
85.534669
 20
132.781494
 30
0.0
 10
85.457005
 20
132.302370
 30
0.0
 10
85.252154
 20
132.335576
 30
0.0
  0
SPLINE
  5
20c
100
AcDbEntity
  8
Layer_1
 62
7
100
AcDbSpline
 70
8
 71
3
 72
8
 73
4
 74
0
 40
0
 40
0
 40
0
 40
0
 40
1
 40
1
 40
1
 40
1
 10
86.622952
 20
132.497224
 30
0.0
 10
86.615786
 20
132.414487
 30
0.0
 10
86.632960
 20
132.345880
 30
0.0
 10
86.674471
 20
132.291401
 30
0.0
  0
SPLINE
  5
20d
100
AcDbEntity
  8
Layer_1
 62
7
100
AcDbSpline
 70
8
 71
3
 72
8
 73
4
 74
0
 40
0
 40
0
 40
0
 40
0
 40
1
 40
1
 40
1
 40
1
 10
86.674471
 20
132.291401
 30
0.0
 10
86.715982
 20
132.236919
 30
0.0
 10
86.782809
 20
132.199103
 30
0.0
 10
86.874952
 20
132.177947
 30
0.0
  0
SPLINE
  5
20e
100
AcDbEntity
  8
Layer_1
 62
7
100
AcDbSpline
 70
8
 71
3
 72
8
 73
4
 74
0
 40
0
 40
0
 40
0
 40
0
 40
1
 40
1
 40
1
 40
1
 10
86.874952
 20
132.177947
 30
0.0
 10
86.967842
 20
132.156634
 30
0.0
 10
87.041103
 20
132.159703
 30
0.0
 10
87.094736
 20
132.187212
 30
0.0
  0
SPLINE
  5
20f
100
AcDbEntity
  8
Layer_1
 62
7
100
AcDbSpline
 70
8
 71
3
 72
8
 73
4
 74
0
 40
0
 40
0
 40
0
 40
0
 40
1
 40
1
 40
1
 40
1
 10
87.094736
 20
132.187212
 30
0.0
 10
87.148368
 20
132.214722
 30
0.0
 10
87.181031
 20
132.253949
 30
0.0
 10
87.192727
 20
132.304889
 30
0.0
  0
SPLINE
  5
210
100
AcDbEntity
  8
Layer_1
 62
7
100
AcDbSpline
 70
8
 71
3
 72
8
 73
4
 74
0
 40
0
 40
0
 40
0
 40
0
 40
1
 40
1
 40
1
 40
1
 10
87.192727
 20
132.304889
 30
0.0
 10
87.203217
 20
132.350587
 30
0.0
 10
87.191608
 20
132.391103
 30
0.0
 10
87.157938
 20
132.426437
 30
0.0
  0
SPLINE
  5
211
100
AcDbEntity
  8
Layer_1
 62
7
100
AcDbSpline
 70
8
 71
3
 72
8
 73
4
 74
0
 40
0
 40
0
 40
0
 40
0
 40
1
 40
1
 40
1
 40
1
 10
87.157938
 20
132.426437
 30
0.0
 10
87.134347
 20
132.450763
 30
0.0
 10
87.070673
 20
132.489448
 30
0.0
 10
86.966917
 20
132.542447
 30
0.0
  0
SPLINE
  5
212
100
AcDbEntity
  8
Layer_1
 62
7
100
AcDbSpline
 70
8
 71
3
 72
8
 73
4
 74
0
 40
0
 40
0
 40
0
 40
0
 40
1
 40
1
 40
1
 40
1
 10
86.966917
 20
132.542447
 30
0.0
 10
86.827190
 20
132.613957
 30
0.0
 10
86.731811
 20
132.669959
 30
0.0
 10
86.680781
 20
132.710460
 30
0.0
  0
SPLINE
  5
213
100
AcDbEntity
  8
Layer_1
 62
7
100
AcDbSpline
 70
8
 71
3
 72
8
 73
4
 74
0
 40
0
 40
0
 40
0
 40
0
 40
1
 40
1
 40
1
 40
1
 10
86.680781
 20
132.710460
 30
0.0
 10
86.629750
 20
132.750958
 30
0.0
 10
86.594987
 20
132.798765
 30
0.0
 10
86.576490
 20
132.853876
 30
0.0
  0
SPLINE
  5
214
100
AcDbEntity
  8
Layer_1
 62
7
100
AcDbSpline
 70
8
 71
3
 72
8
 73
4
 74
0
 40
0
 40
0
 40
0
 40
0
 40
1
 40
1
 40
1
 40
1
 10
86.576490
 20
132.853876
 30
0.0
 10
86.557993
 20
132.908986
 30
0.0
 10
86.555452
 20
132.965758
 30
0.0
 10
86.568865
 20
133.024190
 30
0.0
  0
SPLINE
  5
215
100
AcDbEntity
  8
Layer_1
 62
7
100
AcDbSpline
 70
8
 71
3
 72
8
 73
4
 74
0
 40
0
 40
0
 40
0
 40
0
 40
1
 40
1
 40
1
 40
1
 10
86.568865
 20
133.024190
 30
0.0
 10
86.581076
 20
133.077378
 30
0.0
 10
86.604557
 20
133.123837
 30
0.0
 10
86.639308
 20
133.163572
 30
0.0
  0
SPLINE
  5
216
100
AcDbEntity
  8
Layer_1
 62
7
100
AcDbSpline
 70
8
 71
3
 72
8
 73
4
 74
0
 40
0
 40
0
 40
0
 40
0
 40
1
 40
1
 40
1
 40
1
 10
86.639308
 20
133.163572
 30
0.0
 10
86.674059
 20
133.203302
 30
0.0
 10
86.715850
 20
133.233335
 30
0.0
 10
86.764680
 20
133.253670
 30
0.0
  0
SPLINE
  5
217
100
AcDbEntity
  8
Layer_1
 62
7
100
AcDbSpline
 70
8
 71
3
 72
8
 73
4
 74
0
 40
0
 40
0
 40
0
 40
0
 40
1
 40
1
 40
1
 40
1
 10
86.764680
 20
133.253670
 30
0.0
 10
86.801474
 20
133.269677
 30
0.0
 10
86.848876
 20
133.279487
 30
0.0
 10
86.906885
 20
133.283124
 30
0.0
  0
SPLINE
  5
218
100
AcDbEntity
  8
Layer_1
 62
7
100
AcDbSpline
 70
8
 71
3
 72
8
 73
4
 74
0
 40
0
 40
0
 40
0
 40
0
 40
1
 40
1
 40
1
 40
1
 10
86.906885
 20
133.283124
 30
0.0
 10
86.964893
 20
133.286767
 30
0.0
 10
87.024986
 20
133.281403
 30
0.0
 10
87.087164
 20
133.267175
 30
0.0
  0
SPLINE
  5
219
100
AcDbEntity
  8
Layer_1
 62
7
100
AcDbSpline
 70
8
 71
3
 72
8
 73
4
 74
0
 40
0
 40
0
 40
0
 40
0
 40
1
 40
1
 40
1
 40
1
 10
87.087164
 20
133.267175
 30
0.0
 10
87.180803
 20
133.245661
 30
0.0
 10
87.259923
 20
133.213318
 30
0.0
 10
87.324525
 20
133.170098
 30
0.0
  0
SPLINE
  5
21a
100
AcDbEntity
  8
Layer_1
 62
7
100
AcDbSpline
 70
8
 71
3
 72
8
 73
4
 74
0
 40
0
 40
0
 40
0
 40
0
 40
1
 40
1
 40
1
 40
1
 10
87.324525
 20
133.170098
 30
0.0
 10
87.389124
 20
133.126875
 30
0.0
 10
87.432991
 20
133.078359
 30
0.0
 10
87.456126
 20
133.024551
 30
0.0
  0
SPLINE
  5
21b
100
AcDbEntity
  8
Layer_1
 62
7
100
AcDbSpline
 70
8
 71
3
 72
8
 73
4
 74
0
 40
0
 40
0
 40
0
 40
0
 40
1
 40
1
 40
1
 40
1
 10
87.456126
 20
133.024551
 30
0.0
 10
87.479258
 20
132.970740
 30
0.0
 10
87.488335
 20
132.903794
 30
0.0
 10
87.483357
 20
132.823710
 30
0.0
  0
LWPOLYLINE
  5
21c
100
AcDbEntity
  8
Layer_1
 62
7
100
AcDbPolyline
 90
2
 70
0
 10
86.415713
 20
132.511682
 30
0.0
 10
86.622952
 20
132.497224
 30
0.0
  0
SPLINE
  5
21d
100
AcDbEntity
  8
Layer_1
 62
7
100
AcDbSpline
 70
8
 71
3
 72
8
 73
4
 74
0
 40
0
 40
0
 40
0
 40
0
 40
1
 40
1
 40
1
 40
1
 10
87.279398
 20
132.842155
 30
0.0
 10
87.284510
 20
132.905647
 30
0.0
 10
87.269484
 20
132.959567
 30
0.0
 10
87.234323
 20
133.003915
 30
0.0
  0
SPLINE
  5
21e
100
AcDbEntity
  8
Layer_1
 62
7
100
AcDbSpline
 70
8
 71
3
 72
8
 73
4
 74
0
 40
0
 40
0
 40
0
 40
0
 40
1
 40
1
 40
1
 40
1
 10
87.234323
 20
133.003915
 30
0.0
 10
87.199158
 20
133.048263
 30
0.0
 10
87.142248
 20
133.079467
 30
0.0
 10
87.063591
 20
133.097524
 30
0.0
  0
SPLINE
  5
21f
100
AcDbEntity
  8
Layer_1
 62
7
100
AcDbSpline
 70
8
 71
3
 72
8
 73
4
 74
0
 40
0
 40
0
 40
0
 40
0
 40
1
 40
1
 40
1
 40
1
 10
87.063591
 20
133.097524
 30
0.0
 10
86.970700
 20
133.118866
 30
0.0
 10
86.900877
 20
133.118723
 30
0.0
 10
86.854123
 20
133.097237
 30
0.0
  0
SPLINE
  5
220
100
AcDbEntity
  8
Layer_1
 62
7
100
AcDbSpline
 70
8
 71
3
 72
8
 73
4
 74
0
 40
0
 40
0
 40
0
 40
0
 40
1
 40
1
 40
1
 40
1
 10
86.854123
 20
133.097237
 30
0.0
 10
86.807368
 20
133.075637
 30
0.0
 10
86.779261
 20
133.044235
 30
0.0
 10
86.769803
 20
133.003034
 30
0.0
  0
SPLINE
  5
221
100
AcDbEntity
  8
Layer_1
 62
7
100
AcDbSpline
 70
8
 71
3
 72
8
 73
4
 74
0
 40
0
 40
0
 40
0
 40
0
 40
1
 40
1
 40
1
 40
1
 10
86.769803
 20
133.003034
 30
0.0
 10
86.763782
 20
132.976816
 30
0.0
 10
86.766604
 20
132.951326
 30
0.0
 10
86.778271
 20
132.926568
 30
0.0
  0
SPLINE
  5
222
100
AcDbEntity
  8
Layer_1
 62
7
100
AcDbSpline
 70
8
 71
3
 72
8
 73
4
 74
0
 40
0
 40
0
 40
0
 40
0
 40
1
 40
1
 40
1
 40
1
 10
86.778271
 20
132.926568
 30
0.0
 10
86.789762
 20
132.901066
 30
0.0
 10
86.811480
 20
132.877148
 30
0.0
 10
86.843422
 20
132.854831
 30
0.0
  0
SPLINE
  5
223
100
AcDbEntity
  8
Layer_1
 62
7
100
AcDbSpline
 70
8
 71
3
 72
8
 73
4
 74
0
 40
0
 40
0
 40
0
 40
0
 40
1
 40
1
 40
1
 40
1
 10
86.843422
 20
132.854831
 30
0.0
 10
86.861927
 20
132.842697
 30
0.0
 10
86.917527
 20
132.811794
 30
0.0
 10
87.010220
 20
132.762126
 30
0.0
  0
SPLINE
  5
224
100
AcDbEntity
  8
Layer_1
 62
7
100
AcDbSpline
 70
8
 71
3
 72
8
 73
4
 74
0
 40
0
 40
0
 40
0
 40
0
 40
1
 40
1
 40
1
 40
1
 10
87.010220
 20
132.762126
 30
0.0
 10
87.144530
 20
132.691069
 30
0.0
 10
87.237170
 20
132.636876
 30
0.0
 10
87.288140
 20
132.599548
 30
0.0
  0
SPLINE
  5
225
100
AcDbEntity
  8
Layer_1
 62
7
100
AcDbSpline
 70
8
 71
3
 72
8
 73
4
 74
0
 40
0
 40
0
 40
0
 40
0
 40
1
 40
1
 40
1
 40
1
 10
87.288140
 20
132.599548
 30
0.0
 10
87.339108
 20
132.562217
 30
0.0
 10
87.375368
 20
132.516630
 30
0.0
 10
87.396918
 20
132.462790
 30
0.0
  0
SPLINE
  5
226
100
AcDbEntity
  8
Layer_1
 62
7
100
AcDbSpline
 70
8
 71
3
 72
8
 73
4
 74
0
 40
0
 40
0
 40
0
 40
0
 40
1
 40
1
 40
1
 40
1
 10
87.396918
 20
132.462790
 30
0.0
 10
87.418466
 20
132.408948
 30
0.0
 10
87.421329
 20
132.347570
 30
0.0
 10
87.405509
 20
132.278650
 30
0.0
  0
SPLINE
  5
227
100
AcDbEntity
  8
Layer_1
 62
7
100
AcDbSpline
 70
8
 71
3
 72
8
 73
4
 74
0
 40
0
 40
0
 40
0
 40
0
 40
1
 40
1
 40
1
 40
1
 10
87.405509
 20
132.278650
 30
0.0
 10
87.390030
 20
132.211228
 30
0.0
 10
87.355789
 20
132.152256
 30
0.0
 10
87.302789
 20
132.101730
 30
0.0
  0
SPLINE
  5
228
100
AcDbEntity
  8
Layer_1
 62
7
100
AcDbSpline
 70
8
 71
3
 72
8
 73
4
 74
0
 40
0
 40
0
 40
0
 40
0
 40
1
 40
1
 40
1
 40
1
 10
87.302789
 20
132.101730
 30
0.0
 10
87.249787
 20
132.051203
 30
0.0
 10
87.182464
 20
132.018161
 30
0.0
 10
87.100821
 20
132.002599
 30
0.0
  0
SPLINE
  5
229
100
AcDbEntity
  8
Layer_1
 62
7
100
AcDbSpline
 70
8
 71
3
 72
8
 73
4
 74
0
 40
0
 40
0
 40
0
 40
0
 40
1
 40
1
 40
1
 40
1
 10
87.100821
 20
132.002599
 30
0.0
 10
87.019176
 20
131.987051
 30
0.0
 10
86.931534
 20
131.990006
 30
0.0
 10
86.837895
 20
132.011491
 30
0.0
  0
SPLINE
  5
22a
100
AcDbEntity
  8
Layer_1
 62
7
100
AcDbSpline
 70
8
 71
3
 72
8
 73
4
 74
0
 40
0
 40
0
 40
0
 40
0
 40
1
 40
1
 40
1
 40
1
 10
86.837895
 20
132.011491
 30
0.0
 10
86.682826
 20
132.047093
 30
0.0
 10
86.572048
 20
132.106434
 30
0.0
 10
86.505559
 20
132.189519
 30
0.0
  0
SPLINE
  5
22b
100
AcDbEntity
  8
Layer_1
 62
7
100
AcDbSpline
 70
8
 71
3
 72
8
 73
4
 74
0
 40
0
 40
0
 40
0
 40
0
 40
1
 40
1
 40
1
 40
1
 10
86.505559
 20
132.189519
 30
0.0
 10
86.439070
 20
132.272603
 30
0.0
 10
86.409121
 20
132.380024
 30
0.0
 10
86.415713
 20
132.511788
 30
0.0
  0
LWPOLYLINE
  5
22c
100
AcDbEntity
  8
Layer_1
 62
7
100
AcDbPolyline
 90
2
 70
0
 10
87.483357
 20
132.823710
 30
0.0
 10
87.279398
 20
132.842155
 30
0.0
  0
LWPOLYLINE
  5
22d
100
AcDbEntity
  8
Layer_1
 62
7
100
AcDbPolyline
 90
2
 70
0
 10
86.415713
 20
132.511788
 30
0.0
 10
86.415713
 20
132.511682
 30
0.0
  0
SPLINE
  5
22e
100
AcDbEntity
  8
Layer_1
 62
7
100
AcDbSpline
 70
8
 71
3
 72
8
 73
4
 74
0
 40
0
 40
0
 40
0
 40
0
 40
1
 40
1
 40
1
 40
1
 10
88.053987
 20
132.829031
 30
0.0
 10
88.114717
 20
132.875668
 30
0.0
 10
88.176447
 20
132.905739
 30
0.0
 10
88.239176
 20
132.919241
 30
0.0
  0
SPLINE
  5
22f
100
AcDbEntity
  8
Layer_1
 62
7
100
AcDbSpline
 70
8
 71
3
 72
8
 73
4
 74
0
 40
0
 40
0
 40
0
 40
0
 40
1
 40
1
 40
1
 40
1
 10
88.239176
 20
132.919241
 30
0.0
 10
88.301903
 20
132.932752
 30
0.0
 10
88.371514
 20
132.927904
 30
0.0
 10
88.448009
 20
132.904698
 30
0.0
  0
SPLINE
  5
230
100
AcDbEntity
  8
Layer_1
 62
7
100
AcDbSpline
 70
8
 71
3
 72
8
 73
4
 74
0
 40
0
 40
0
 40
0
 40
0
 40
1
 40
1
 40
1
 40
1
 10
88.448009
 20
132.904698
 30
0.0
 10
88.548038
 20
132.874354
 30
0.0
 10
88.628492
 20
132.821840
 30
0.0
 10
88.689370
 20
132.747155
 30
0.0
  0
SPLINE
  5
231
100
AcDbEntity
  8
Layer_1
 62
7
100
AcDbSpline
 70
8
 71
3
 72
8
 73
4
 74
0
 40
0
 40
0
 40
0
 40
0
 40
1
 40
1
 40
1
 40
1
 10
88.689370
 20
132.747155
 30
0.0
 10
88.750245
 20
132.672464
 30
0.0
 10
88.785953
 20
132.582320
 30
0.0
 10
88.796492
 20
132.476717
 30
0.0
  0
SPLINE
  5
232
100
AcDbEntity
  8
Layer_1
 62
7
100
AcDbSpline
 70
8
 71
3
 72
8
 73
4
 74
0
 40
0
 40
0
 40
0
 40
0
 40
1
 40
1
 40
1
 40
1
 10
88.796492
 20
132.476717
 30
0.0
 10
88.807028
 20
132.371115
 30
0.0
 10
88.795344
 20
132.262414
 30
0.0
 10
88.761432
 20
132.150616
 30
0.0
  0
SPLINE
  5
233
100
AcDbEntity
  8
Layer_1
 62
7
100
AcDbSpline
 70
8
 71
3
 72
8
 73
4
 74
0
 40
0
 40
0
 40
0
 40
0
 40
1
 40
1
 40
1
 40
1
 10
88.761432
 20
132.150616
 30
0.0
 10
88.725065
 20
132.030725
 30
0.0
 10
88.670812
 20
131.929313
 30
0.0
 10
88.598671
 20
131.846378
 30
0.0
  0
SPLINE
  5
234
100
AcDbEntity
  8
Layer_1
 62
7
100
AcDbSpline
 70
8
 71
3
 72
8
 73
4
 74
0
 40
0
 40
0
 40
0
 40
0
 40
1
 40
1
 40
1
 40
1
 10
88.598671
 20
131.846378
 30
0.0
 10
88.526528
 20
131.763446
 30
0.0
 10
88.441699
 20
131.708857
 30
0.0
 10
88.344185
 20
131.682613
 30
0.0
  0
SPLINE
  5
235
100
AcDbEntity
  8
Layer_1
 62
7
100
AcDbSpline
 70
8
 71
3
 72
8
 73
4
 74
0
 40
0
 40
0
 40
0
 40
0
 40
1
 40
1
 40
1
 40
1
 10
88.344185
 20
131.682613
 30
0.0
 10
88.246669
 20
131.656366
 30
0.0
 10
88.152677
 20
131.656968
 30
0.0
 10
88.062209
 20
131.684334
 30
0.0
  0
SPLINE
  5
236
100
AcDbEntity
  8
Layer_1
 62
7
100
AcDbSpline
 70
8
 71
3
 72
8
 73
4
 74
0
 40
0
 40
0
 40
0
 40
0
 40
1
 40
1
 40
1
 40
1
 10
88.062209
 20
131.684334
 30
0.0
 10
87.996012
 20
131.704414
 30
0.0
 10
87.940857
 20
131.736401
 30
0.0
 10
87.896746
 20
131.780304
 30
0.0
  0
SPLINE
  5
237
100
AcDbEntity
  8
Layer_1
 62
7
100
AcDbSpline
 70
8
 71
3
 72
8
 73
4
 74
0
 40
0
 40
0
 40
0
 40
0
 40
1
 40
1
 40
1
 40
1
 10
87.896746
 20
131.780304
 30
0.0
 10
87.852634
 20
131.824204
 30
0.0
 10
87.820131
 20
131.872617
 30
0.0
 10
87.799237
 20
131.925538
 30
0.0
  0
LWPOLYLINE
  5
238
100
AcDbEntity
  8
Layer_1
 62
7
100
AcDbPolyline
 90
4
 70
0
 10
87.427635
 20
131.415451
 30
0.0
 10
87.919230
 20
133.036166
 30
0.0
 10
88.100168
 20
132.981285
 30
0.0
 10
88.053987
 20
132.829031
 30
0.0
  0
SPLINE
  5
239
100
AcDbEntity
  8
Layer_1
 62
7
100
AcDbSpline
 70
8
 71
3
 72
8
 73
4
 74
0
 40
0
 40
0
 40
0
 40
0
 40
1
 40
1
 40
1
 40
1
 10
87.919359
 20
132.389161
 30
0.0
 10
87.873624
 20
132.238379
 30
0.0
 10
87.870349
 20
132.117688
 30
0.0
 10
87.909535
 20
132.027090
 30
0.0
  0
SPLINE
  5
23a
100
AcDbEntity
  8
Layer_1
 62
7
100
AcDbSpline
 70
8
 71
3
 72
8
 73
4
 74
0
 40
0
 40
0
 40
0
 40
0
 40
1
 40
1
 40
1
 40
1
 10
87.909535
 20
132.027090
 30
0.0
 10
87.948719
 20
131.936493
 30
0.0
 10
88.011706
 20
131.878032
 30
0.0
 10
88.098498
 20
131.851705
 30
0.0
  0
SPLINE
  5
23b
100
AcDbEntity
  8
Layer_1
 62
7
100
AcDbSpline
 70
8
 71
3
 72
8
 73
4
 74
0
 40
0
 40
0
 40
0
 40
0
 40
1
 40
1
 40
1
 40
1
 10
88.098498
 20
131.851705
 30
0.0
 10
88.186760
 20
131.824941
 30
0.0
 10
88.273656
 20
131.839342
 30
0.0
 10
88.359188
 20
131.894920
 30
0.0
  0
SPLINE
  5
23c
100
AcDbEntity
  8
Layer_1
 62
7
100
AcDbSpline
 70
8
 71
3
 72
8
 73
4
 74
0
 40
0
 40
0
 40
0
 40
0
 40
1
 40
1
 40
1
 40
1
 10
88.359188
 20
131.894920
 30
0.0
 10
88.444718
 20
131.950498
 30
0.0
 10
88.511244
 20
132.056622
 30
0.0
 10
88.558765
 20
132.213287
 30
0.0
  0
SPLINE
  5
23d
100
AcDbEntity
  8
Layer_1
 62
7
100
AcDbSpline
 70
8
 71
3
 72
8
 73
4
 74
0
 40
0
 40
0
 40
0
 40
0
 40
1
 40
1
 40
1
 40
1
 10
88.558765
 20
132.213287
 30
0.0
 10
88.604052
 20
132.362598
 30
0.0
 10
88.607255
 20
132.483711
 30
0.0
 10
88.568374
 20
132.576626
 30
0.0
  0
SPLINE
  5
23e
100
AcDbEntity
  8
Layer_1
 62
7
100
AcDbSpline
 70
8
 71
3
 72
8
 73
4
 74
0
 40
0
 40
0
 40
0
 40
0
 40
1
 40
1
 40
1
 40
1
 10
88.568374
 20
132.576626
 30
0.0
 10
88.529490
 20
132.669541
 30
0.0
 10
88.467389
 20
132.728939
 30
0.0
 10
88.382070
 20
132.754819
 30
0.0
  0
SPLINE
  5
23f
100
AcDbEntity
  8
Layer_1
 62
7
100
AcDbSpline
 70
8
 71
3
 72
8
 73
4
 74
0
 40
0
 40
0
 40
0
 40
0
 40
1
 40
1
 40
1
 40
1
 10
88.382070
 20
132.754819
 30
0.0
 10
88.297484
 20
132.780464
 30
0.0
 10
88.210654
 20
132.763654
 30
0.0
 10
88.121578
 20
132.704316
 30
0.0
  0
SPLINE
  5
240
100
AcDbEntity
  8
Layer_1
 62
7
100
AcDbSpline
 70
8
 71
3
 72
8
 73
4
 74
0
 40
0
 40
0
 40
0
 40
0
 40
1
 40
1
 40
1
 40
1
 10
88.121578
 20
132.704316
 30
0.0
 10
88.032501
 20
132.644992
 30
0.0
 10
87.965096
 20
132.539940
 30
0.0
 10
87.919362
 20
132.389161
 30
0.0
  0
LWPOLYLINE
  5
241
100
AcDbEntity
  8
Layer_1
 62
7
100
AcDbPolyline
 90
3
 70
0
 10
87.799237
 20
131.925538
 30
0.0
 10
87.626225
 20
131.355143
 30
0.0
 10
87.427635
 20
131.415451
 30
0.0
  0
SPLINE
  5
242
100
AcDbEntity
  8
Layer_1
 62
7
100
AcDbSpline
 70
8
 71
3
 72
8
 73
4
 74
0
 40
0
 40
0
 40
0
 40
0
 40
1
 40
1
 40
1
 40
1
 10
89.618395
 20
131.326383
 30
0.0
 10
89.523208
 20
131.292985
 30
0.0
 10
89.437608
 20
131.276488
 30
0.0
 10
89.361594
 20
131.276889
 30
0.0
  0
SPLINE
  5
243
100
AcDbEntity
  8
Layer_1
 62
7
100
AcDbSpline
 70
8
 71
3
 72
8
 73
4
 74
0
 40
0
 40
0
 40
0
 40
0
 40
1
 40
1
 40
1
 40
1
 10
89.361594
 20
131.276889
 30
0.0
 10
89.285579
 20
131.277176
 30
0.0
 10
89.209549
 20
131.292121
 30
0.0
 10
89.133504
 20
131.321352
 30
0.0
  0
SPLINE
  5
244
100
AcDbEntity
  8
Layer_1
 62
7
100
AcDbSpline
 70
8
 71
3
 72
8
 73
4
 74
0
 40
0
 40
0
 40
0
 40
0
 40
1
 40
1
 40
1
 40
1
 10
89.133504
 20
131.321352
 30
0.0
 10
89.007956
 20
131.369618
 30
0.0
 10
88.923255
 20
131.437387
 30
0.0
 10
88.879400
 20
131.524651
 30
0.0
  0
SPLINE
  5
245
100
AcDbEntity
  8
Layer_1
 62
7
100
AcDbSpline
 70
8
 71
3
 72
8
 73
4
 74
0
 40
0
 40
0
 40
0
 40
0
 40
1
 40
1
 40
1
 40
1
 10
88.879400
 20
131.524651
 30
0.0
 10
88.835546
 20
131.611918
 30
0.0
 10
88.831960
 20
131.703258
 30
0.0
 10
88.868643
 20
131.798674
 30
0.0
  0
SPLINE
  5
246
100
AcDbEntity
  8
Layer_1
 62
7
100
AcDbSpline
 70
8
 71
3
 72
8
 73
4
 74
0
 40
0
 40
0
 40
0
 40
0
 40
1
 40
1
 40
1
 40
1
 10
88.868643
 20
131.798674
 30
0.0
 10
88.890157
 20
131.854634
 30
0.0
 10
88.922543
 20
131.900852
 30
0.0
 10
88.965802
 20
131.937334
 30
0.0
  0
SPLINE
  5
247
100
AcDbEntity
  8
Layer_1
 62
7
100
AcDbSpline
 70
8
 71
3
 72
8
 73
4
 74
0
 40
0
 40
0
 40
0
 40
0
 40
1
 40
1
 40
1
 40
1
 10
88.965802
 20
131.937334
 30
0.0
 10
89.009060
 20
131.973816
 30
0.0
 10
89.056693
 20
131.998115
 30
0.0
 10
89.108702
 20
132.010238
 30
0.0
  0
SPLINE
  5
248
100
AcDbEntity
  8
Layer_1
 62
7
100
AcDbSpline
 70
8
 71
3
 72
8
 73
4
 74
0
 40
0
 40
0
 40
0
 40
0
 40
1
 40
1
 40
1
 40
1
 10
89.108702
 20
132.010238
 30
0.0
 10
89.160710
 20
132.022343
 30
0.0
 10
89.215299
 20
132.025671
 30
0.0
 10
89.272470
 20
132.020163
 30
0.0
  0
SPLINE
  5
249
100
AcDbEntity
  8
Layer_1
 62
7
100
AcDbSpline
 70
8
 71
3
 72
8
 73
4
 74
0
 40
0
 40
0
 40
0
 40
0
 40
1
 40
1
 40
1
 40
1
 10
89.272470
 20
132.020163
 30
0.0
 10
89.314353
 20
132.015573
 30
0.0
 10
89.375470
 20
132.003210
 30
0.0
 10
89.455820
 20
131.983021
 30
0.0
  0
SPLINE
  5
24a
100
AcDbEntity
  8
Layer_1
 62
7
100
AcDbSpline
 70
8
 71
3
 72
8
 73
4
 74
0
 40
0
 40
0
 40
0
 40
0
 40
1
 40
1
 40
1
 40
1
 10
89.455820
 20
131.983021
 30
0.0
 10
89.619386
 20
131.941545
 30
0.0
 10
89.743082
 20
131.919514
 30
0.0
 10
89.826906
 20
131.916933
 30
0.0
  0
SPLINE
  5
24b
100
AcDbEntity
  8
Layer_1
 62
7
100
AcDbSpline
 70
8
 71
3
 72
8
 73
4
 74
0
 40
0
 40
0
 40
0
 40
0
 40
1
 40
1
 40
1
 40
1
 10
89.826906
 20
131.916933
 30
0.0
 10
89.837826
 20
131.943209
 30
0.0
 10
89.844668
 20
131.959924
 30
0.0
 10
89.847427
 20
131.967098
 30
0.0
  0
SPLINE
  5
24c
100
AcDbEntity
  8
Layer_1
 62
7
100
AcDbSpline
 70
8
 71
3
 72
8
 73
4
 74
0
 40
0
 40
0
 40
0
 40
0
 40
1
 40
1
 40
1
 40
1
 10
89.847427
 20
131.967098
 30
0.0
 10
89.877766
 20
132.046014
 30
0.0
 10
89.880848
 20
132.108646
 30
0.0
 10
89.856673
 20
132.154996
 30
0.0
  0
SPLINE
  5
24d
100
AcDbEntity
  8
Layer_1
 62
7
100
AcDbSpline
 70
8
 71
3
 72
8
 73
4
 74
0
 40
0
 40
0
 40
0
 40
0
 40
1
 40
1
 40
1
 40
1
 10
89.856673
 20
132.154996
 30
0.0
 10
89.823995
 20
132.217791
 30
0.0
 10
89.758872
 20
132.267942
 30
0.0
 10
89.661305
 20
132.305454
 30
0.0
  0
SPLINE
  5
24e
100
AcDbEntity
  8
Layer_1
 62
7
100
AcDbSpline
 70
8
 71
3
 72
8
 73
4
 74
0
 40
0
 40
0
 40
0
 40
0
 40
1
 40
1
 40
1
 40
1
 10
89.661305
 20
132.305454
 30
0.0
 10
89.570193
 20
132.340481
 30
0.0
 10
89.496798
 20
132.350378
 30
0.0
 10
89.441121
 20
132.335140
 30
0.0
  0
SPLINE
  5
24f
100
AcDbEntity
  8
Layer_1
 62
7
100
AcDbSpline
 70
8
 71
3
 72
8
 73
4
 74
0
 40
0
 40
0
 40
0
 40
0
 40
1
 40
1
 40
1
 40
1
 10
89.441121
 20
132.335140
 30
0.0
 10
89.385443
 20
132.319908
 30
0.0
 10
89.331618
 20
132.275747
 30
0.0
 10
89.279646
 20
132.202680
 30
0.0
  0
LWPOLYLINE
  5
250
100
AcDbEntity
  8
Layer_1
 62
7
100
AcDbPolyline
 90
2
 70
0
 10
87.919362
 20
132.389161
 30
0.0
 10
87.919359
 20
132.389161
 30
0.0
  0
SPLINE
  5
251
100
AcDbEntity
  8
Layer_1
 62
7
100
AcDbSpline
 70
8
 71
3
 72
8
 73
4
 74
0
 40
0
 40
0
 40
0
 40
0
 40
1
 40
1
 40
1
 40
1
 10
89.100178
 20
132.301323
 30
0.0
 10
89.148563
 20
132.375770
 30
0.0
 10
89.202069
 20
132.430339
 30
0.0
 10
89.260697
 20
132.465031
 30
0.0
  0
SPLINE
  5
252
100
AcDbEntity
  8
Layer_1
 62
7
100
AcDbSpline
 70
8
 71
3
 72
8
 73
4
 74
0
 40
0
 40
0
 40
0
 40
0
 40
1
 40
1
 40
1
 40
1
 10
89.260697
 20
132.465031
 30
0.0
 10
89.319324
 20
132.499720
 30
0.0
 10
89.391114
 20
132.516174
 30
0.0
 10
89.476069
 20
132.514393
 30
0.0
  0
SPLINE
  5
253
100
AcDbEntity
  8
Layer_1
 62
7
100
AcDbSpline
 70
8
 71
3
 72
8
 73
4
 74
0
 40
0
 40
0
 40
0
 40
0
 40
1
 40
1
 40
1
 40
1
 10
89.476069
 20
132.514393
 30
0.0
 10
89.561023
 20
132.512671
 30
0.0
 10
89.652643
 20
132.492821
 30
0.0
 10
89.750930
 20
132.455040
 30
0.0
  0
SPLINE
  5
254
100
AcDbEntity
  8
Layer_1
 62
7
100
AcDbSpline
 70
8
 71
3
 72
8
 73
4
 74
0
 40
0
 40
0
 40
0
 40
0
 40
1
 40
1
 40
1
 40
1
 10
89.750930
 20
132.455040
 30
0.0
 10
89.848497
 20
132.417528
 30
0.0
 10
89.923358
 20
132.375572
 30
0.0
 10
89.975513
 20
132.329171
 30
0.0
  0
SPLINE
  5
255
100
AcDbEntity
  8
Layer_1
 62
7
100
AcDbSpline
 70
8
 71
3
 72
8
 73
4
 74
0
 40
0
 40
0
 40
0
 40
0
 40
1
 40
1
 40
1
 40
1
 10
89.975513
 20
132.329171
 30
0.0
 10
90.027666
 20
132.282766
 30
0.0
 10
90.061403
 20
132.236652
 30
0.0
 10
90.076723
 20
132.190827
 30
0.0
  0
SPLINE
  5
256
100
AcDbEntity
  8
Layer_1
 62
7
100
AcDbSpline
 70
8
 71
3
 72
8
 73
4
 74
0
 40
0
 40
0
 40
0
 40
0
 40
1
 40
1
 40
1
 40
1
 10
90.076723
 20
132.190827
 30
0.0
 10
90.092041
 20
132.144999
 30
0.0
 10
90.095234
 20
132.093334
 30
0.0
 10
90.086304
 20
132.035834
 30
0.0
  0
SPLINE
  5
257
100
AcDbEntity
  8
Layer_1
 62
7
100
AcDbSpline
 70
8
 71
3
 72
8
 73
4
 74
0
 40
0
 40
0
 40
0
 40
0
 40
1
 40
1
 40
1
 40
1
 10
90.086304
 20
132.035834
 30
0.0
 10
90.080071
 20
132.000350
 30
0.0
 10
90.060407
 20
131.939563
 30
0.0
 10
90.027311
 20
131.853472
 30
0.0
  0
LWPOLYLINE
  5
258
100
AcDbEntity
  8
Layer_1
 62
7
100
AcDbPolyline
 90
2
 70
0
 10
89.279646
 20
132.202680
 30
0.0
 10
89.100178
 20
132.301323
 30
0.0
  0
SPLINE
  5
259
100
AcDbEntity
  8
Layer_1
 62
7
100
AcDbSpline
 70
8
 71
3
 72
8
 73
4
 74
0
 40
0
 40
0
 40
0
 40
0
 40
1
 40
1
 40
1
 40
1
 10
89.928016
 20
131.595203
 30
0.0
 10
89.858785
 20
131.415133
 30
0.0
 10
89.819124
 20
131.299657
 30
0.0
 10
89.809033
 20
131.248778
 30
0.0
  0
SPLINE
  5
25a
100
AcDbEntity
  8
Layer_1
 62
7
100
AcDbSpline
 70
8
 71
3
 72
8
 73
4
 74
0
 40
0
 40
0
 40
0
 40
0
 40
1
 40
1
 40
1
 40
1
 10
89.809033
 20
131.248778
 30
0.0
 10
89.798942
 20
131.197898
 30
0.0
 10
89.797680
 20
131.145889
 30
0.0
 10
89.805247
 20
131.092746
 30
0.0
  0
LWPOLYLINE
  5
25b
100
AcDbEntity
  8
Layer_1
 62
7
100
AcDbPolyline
 90
2
 70
0
 10
90.027311
 20
131.853472
 30
0.0
 10
89.928016
 20
131.595203
 30
0.0
  0
SPLINE
  5
25c
100
AcDbEntity
  8
Layer_1
 62
7
100
AcDbSpline
 70
8
 71
3
 72
8
 73
4
 74
0
 40
0
 40
0
 40
0
 40
0
 40
1
 40
1
 40
1
 40
1
 10
89.602936
 20
131.170527
 30
0.0
 10
89.598292
 20
131.218426
 30
0.0
 10
89.603452
 20
131.270381
 30
0.0
 10
89.618394
 20
131.326395
 30
0.0
  0
LWPOLYLINE
  5
25d
100
AcDbEntity
  8
Layer_1
 62
7
100
AcDbPolyline
 90
2
 70
0
 10
89.805247
 20
131.092746
 30
0.0
 10
89.602936
 20
131.170527
 30
0.0
  0
SPLINE
  5
25e
100
AcDbEntity
  8
Layer_1
 62
7
100
AcDbSpline
 70
8
 71
3
 72
8
 73
4
 74
0
 40
0
 40
0
 40
0
 40
0
 40
1
 40
1
 40
1
 40
1
 10
89.768571
 20
131.765190
 30
0.0
 10
89.687231
 20
131.763469
 30
0.0
 10
89.572393
 20
131.779676
 30
0.0
 10
89.424058
 20
131.813648
 30
0.0
  0
SPLINE
  5
25f
100
AcDbEntity
  8
Layer_1
 62
7
100
AcDbSpline
 70
8
 71
3
 72
8
 73
4
 74
0
 40
0
 40
0
 40
0
 40
0
 40
1
 40
1
 40
1
 40
1
 10
89.424058
 20
131.813648
 30
0.0
 10
89.340011
 20
131.832781
 30
0.0
 10
89.278730
 20
131.841530
 30
0.0
 10
89.240213
 20
131.839866
 30
0.0
  0
SPLINE
  5
260
100
AcDbEntity
  8
Layer_1
 62
7
100
AcDbSpline
 70
8
 71
3
 72
8
 73
4
 74
0
 40
0
 40
0
 40
0
 40
0
 40
1
 40
1
 40
1
 40
1
 10
89.240213
 20
131.839866
 30
0.0
 10
89.201695
 20
131.838145
 30
0.0
 10
89.168159
 20
131.827015
 30
0.0
 10
89.139605
 20
131.806287
 30
0.0
  0
SPLINE
  5
261
100
AcDbEntity
  8
Layer_1
 62
7
100
AcDbSpline
 70
8
 71
3
 72
8
 73
4
 74
0
 40
0
 40
0
 40
0
 40
0
 40
1
 40
1
 40
1
 40
1
 10
89.139605
 20
131.806287
 30
0.0
 10
89.111049
 20
131.785576
 30
0.0
 10
89.090291
 20
131.758340
 30
0.0
 10
89.077328
 20
131.724623
 30
0.0
  0
SPLINE
  5
262
100
AcDbEntity
  8
Layer_1
 62
7
100
AcDbSpline
 70
8
 71
3
 72
8
 73
4
 74
0
 40
0
 40
0
 40
0
 40
0
 40
1
 40
1
 40
1
 40
1
 10
89.077328
 20
131.724623
 30
0.0
 10
89.057469
 20
131.672969
 30
0.0
 10
89.060470
 20
131.622408
 30
0.0
 10
89.086330
 20
131.572940
 30
0.0
  0
SPLINE
  5
263
100
AcDbEntity
  8
Layer_1
 62
7
100
AcDbSpline
 70
8
 71
3
 72
8
 73
4
 74
0
 40
0
 40
0
 40
0
 40
0
 40
1
 40
1
 40
1
 40
1
 10
89.086330
 20
131.572940
 30
0.0
 10
89.112190
 20
131.523472
 30
0.0
 10
89.162783
 20
131.484256
 30
0.0
 10
89.238112
 20
131.455295
 30
0.0
  0
SPLINE
  5
264
100
AcDbEntity
  8
Layer_1
 62
7
100
AcDbSpline
 70
8
 71
3
 72
8
 73
4
 74
0
 40
0
 40
0
 40
0
 40
0
 40
1
 40
1
 40
1
 40
1
 10
89.238112
 20
131.455295
 30
0.0
 10
89.312723
 20
131.426610
 30
0.0
 10
89.385359
 20
131.417419
 30
0.0
 10
89.456020
 20
131.427729
 30
0.0
  0
SPLINE
  5
265
100
AcDbEntity
  8
Layer_1
 62
7
100
AcDbSpline
 70
8
 71
3
 72
8
 73
4
 74
0
 40
0
 40
0
 40
0
 40
0
 40
1
 40
1
 40
1
 40
1
 10
89.456020
 20
131.427729
 30
0.0
 10
89.526679
 20
131.438027
 30
0.0
 10
89.586535
 20
131.466279
 30
0.0
 10
89.635587
 20
131.512474
 30
0.0
  0
SPLINE
  5
266
100
AcDbEntity
  8
Layer_1
 62
7
100
AcDbSpline
 70
8
 71
3
 72
8
 73
4
 74
0
 40
0
 40
0
 40
0
 40
0
 40
1
 40
1
 40
1
 40
1
 10
89.635587
 20
131.512474
 30
0.0
 10
89.673216
 20
131.548236
 30
0.0
 10
89.708442
 20
131.608805
 30
0.0
 10
89.741266
 20
131.694176
 30
0.0
  0
LWPOLYLINE
  5
267
100
AcDbEntity
  8
Layer_1
 62
7
100
AcDbPolyline
 90
2
 70
0
 10
89.618394
 20
131.326395
 30
0.0
 10
89.618395
 20
131.326383
 30
0.0
  0
LWPOLYLINE
  5
268
100
AcDbEntity
  8
Layer_1
 62
7
100
AcDbPolyline
 90
2
 70
0
 10
89.741266
 20
131.694176
 30
0.0
 10
89.768571
 20
131.765190
 30
0.0
  0
SPLINE
  5
269
100
AcDbEntity
  8
Layer_1
 62
7
100
AcDbSpline
 70
8
 71
3
 72
8
 73
4
 74
0
 40
0
 40
0
 40
0
 40
0
 40
1
 40
1
 40
1
 40
1
 10
91.127989
 20
130.947432
 30
0.0
 10
91.048408
 20
130.829331
 30
0.0
 10
90.950196
 20
130.753610
 30
0.0
 10
90.833352
 20
130.720263
 30
0.0
  0
SPLINE
  5
26a
100
AcDbEntity
  8
Layer_1
 62
7
100
AcDbSpline
 70
8
 71
3
 72
8
 73
4
 74
0
 40
0
 40
0
 40
0
 40
0
 40
1
 40
1
 40
1
 40
1
 10
90.833352
 20
130.720263
 30
0.0
 10
90.716507
 20
130.686919
 30
0.0
 10
90.597465
 20
130.698462
 30
0.0
 10
90.476227
 20
130.754927
 30
0.0
  0
SPLINE
  5
26b
100
AcDbEntity
  8
Layer_1
 62
7
100
AcDbSpline
 70
8
 71
3
 72
8
 73
4
 74
0
 40
0
 40
0
 40
0
 40
0
 40
1
 40
1
 40
1
 40
1
 10
90.476227
 20
130.754927
 30
0.0
 10
90.324330
 20
130.825656
 30
0.0
 10
90.225337
 20
130.932159
 30
0.0
 10
90.179248
 20
131.074439
 30
0.0
  0
SPLINE
  5
26c
100
AcDbEntity
  8
Layer_1
 62
7
100
AcDbSpline
 70
8
 71
3
 72
8
 73
4
 74
0
 40
0
 40
0
 40
0
 40
0
 40
1
 40
1
 40
1
 40
1
 10
90.179248
 20
131.074439
 30
0.0
 10
90.133158
 20
131.216719
 30
0.0
 10
90.153264
 20
131.380527
 30
0.0
 10
90.239567
 20
131.565869
 30
0.0
  0
SPLINE
  5
26d
100
AcDbEntity
  8
Layer_1
 62
7
100
AcDbSpline
 70
8
 71
3
 72
8
 73
4
 74
0
 40
0
 40
0
 40
0
 40
0
 40
1
 40
1
 40
1
 40
1
 10
90.239567
 20
131.565869
 30
0.0
 10
90.295371
 20
131.685714
 30
0.0
 10
90.364058
 20
131.781334
 30
0.0
 10
90.445628
 20
131.852723
 30
0.0
  0
SPLINE
  5
26e
100
AcDbEntity
  8
Layer_1
 62
7
100
AcDbSpline
 70
8
 71
3
 72
8
 73
4
 74
0
 40
0
 40
0
 40
0
 40
0
 40
1
 40
1
 40
1
 40
1
 10
90.445628
 20
131.852723
 30
0.0
 10
90.527197
 20
131.924113
 30
0.0
 10
90.619032
 20
131.963380
 30
0.0
 10
90.721134
 20
131.970526
 30
0.0
  0
SPLINE
  5
26f
100
AcDbEntity
  8
Layer_1
 62
7
100
AcDbSpline
 70
8
 71
3
 72
8
 73
4
 74
0
 40
0
 40
0
 40
0
 40
0
 40
1
 40
1
 40
1
 40
1
 10
90.721134
 20
131.970526
 30
0.0
 10
90.823234
 20
131.977668
 30
0.0
 10
90.922013
 20
131.959023
 30
0.0
 10
91.017472
 20
131.914569
 30
0.0
  0
SPLINE
  5
270
100
AcDbEntity
  8
Layer_1
 62
7
100
AcDbSpline
 70
8
 71
3
 72
8
 73
4
 74
0
 40
0
 40
0
 40
0
 40
0
 40
1
 40
1
 40
1
 40
1
 10
91.017472
 20
131.914569
 30
0.0
 10
91.138013
 20
131.858440
 30
0.0
 10
91.222412
 20
131.782048
 30
0.0
 10
91.270670
 20
131.685390
 30
0.0
  0
SPLINE
  5
271
100
AcDbEntity
  8
Layer_1
 62
7
100
AcDbSpline
 70
8
 71
3
 72
8
 73
4
 74
0
 40
0
 40
0
 40
0
 40
0
 40
1
 40
1
 40
1
 40
1
 10
91.270670
 20
131.685390
 30
0.0
 10
91.318925
 20
131.588734
 30
0.0
 10
91.327735
 20
131.479285
 30
0.0
 10
91.297101
 20
131.357048
 30
0.0
  0
LWPOLYLINE
  5
272
100
AcDbEntity
  8
Layer_1
 62
7
100
AcDbPolyline
 90
2
 70
0
 10
90.954188
 20
131.057612
 30
0.0
 10
91.127989
 20
130.947432
 30
0.0
  0
SPLINE
  5
273
100
AcDbEntity
  8
Layer_1
 62
7
100
AcDbSpline
 70
8
 71
3
 72
8
 73
4
 74
0
 40
0
 40
0
 40
0
 40
0
 40
1
 40
1
 40
1
 40
1
 10
91.101057
 20
131.413994
 30
0.0
 10
91.118352
 20
131.496660
 30
0.0
 10
91.113639
 20
131.567108
 30
0.0
 10
91.086912
 20
131.625337
 30
0.0
  0
SPLINE
  5
274
100
AcDbEntity
  8
Layer_1
 62
7
100
AcDbSpline
 70
8
 71
3
 72
8
 73
4
 74
0
 40
0
 40
0
 40
0
 40
0
 40
1
 40
1
 40
1
 40
1
 10
91.086912
 20
131.625337
 30
0.0
 10
91.060186
 20
131.683565
 30
0.0
 10
91.015469
 20
131.727279
 30
0.0
 10
90.952760
 20
131.756478
 30
0.0
  0
SPLINE
  5
275
100
AcDbEntity
  8
Layer_1
 62
7
100
AcDbSpline
 70
8
 71
3
 72
8
 73
4
 74
0
 40
0
 40
0
 40
0
 40
0
 40
1
 40
1
 40
1
 40
1
 10
90.952760
 20
131.756478
 30
0.0
 10
90.857998
 20
131.800602
 30
0.0
 10
90.765188
 20
131.802486
 30
0.0
 10
90.674329
 20
131.762129
 30
0.0
  0
SPLINE
  5
276
100
AcDbEntity
  8
Layer_1
 62
7
100
AcDbSpline
 70
8
 71
3
 72
8
 73
4
 74
0
 40
0
 40
0
 40
0
 40
0
 40
1
 40
1
 40
1
 40
1
 10
90.674329
 20
131.762129
 30
0.0
 10
90.583469
 20
131.721771
 30
0.0
 10
90.503811
 20
131.628082
 30
0.0
 10
90.435354
 20
131.481064
 30
0.0
  0
SPLINE
  5
277
100
AcDbEntity
  8
Layer_1
 62
7
100
AcDbSpline
 70
8
 71
3
 72
8
 73
4
 74
0
 40
0
 40
0
 40
0
 40
0
 40
1
 40
1
 40
1
 40
1
 10
90.435354
 20
131.481064
 30
0.0
 10
90.365922
 20
131.331954
 30
0.0
 10
90.344039
 20
131.210302
 30
0.0
 10
90.369704
 20
131.116110
 30
0.0
  0
SPLINE
  5
278
100
AcDbEntity
  8
Layer_1
 62
7
100
AcDbSpline
 70
8
 71
3
 72
8
 73
4
 74
0
 40
0
 40
0
 40
0
 40
0
 40
1
 40
1
 40
1
 40
1
 10
90.369704
 20
131.116110
 30
0.0
 10
90.395369
 20
131.021919
 30
0.0
 10
90.454187
 20
130.953410
 30
0.0
 10
90.546162
 20
130.910582
 30
0.0
  0
SPLINE
  5
279
100
AcDbEntity
  8
Layer_1
 62
7
100
AcDbSpline
 70
8
 71
3
 72
8
 73
4
 74
0
 40
0
 40
0
 40
0
 40
0
 40
1
 40
1
 40
1
 40
1
 10
90.546162
 20
130.910582
 30
0.0
 10
90.620019
 20
130.876191
 30
0.0
 10
90.692228
 20
130.870124
 30
0.0
 10
90.762789
 20
130.892367
 30
0.0
  0
SPLINE
  5
27a
100
AcDbEntity
  8
Layer_1
 62
7
100
AcDbSpline
 70
8
 71
3
 72
8
 73
4
 74
0
 40
0
 40
0
 40
0
 40
0
 40
1
 40
1
 40
1
 40
1
 10
90.762789
 20
130.892367
 30
0.0
 10
90.833348
 20
130.914627
 30
0.0
 10
90.897147
 20
130.969700
 30
0.0
 10
90.954187
 20
131.057601
 30
0.0
  0
LWPOLYLINE
  5
27b
100
AcDbEntity
  8
Layer_1
 62
7
100
AcDbPolyline
 90
2
 70
0
 10
91.297101
 20
131.357048
 30
0.0
 10
91.101057
 20
131.413994
 30
0.0
  0
LWPOLYLINE
  5
27c
100
AcDbEntity
  8
Layer_1
 62
7
100
AcDbPolyline
 90
2
 70
0
 10
90.954187
 20
131.057601
 30
0.0
 10
90.954188
 20
131.057612
 30
0.0
  0
SPLINE
  5
27d
100
AcDbEntity
  8
Layer_1
 62
7
100
AcDbSpline
 70
8
 71
3
 72
8
 73
4
 74
0
 40
0
 40
0
 40
0
 40
0
 40
1
 40
1
 40
1
 40
1
 10
92.206743
 20
130.295558
 30
0.0
 10
92.116593
 20
130.202216
 30
0.0
 10
92.014767
 20
130.147364
 30
0.0
 10
91.901264
 20
130.130999
 30
0.0
  0
SPLINE
  5
27e
100
AcDbEntity
  8
Layer_1
 62
7
100
AcDbSpline
 70
8
 71
3
 72
8
 73
4
 74
0
 40
0
 40
0
 40
0
 40
0
 40
1
 40
1
 40
1
 40
1
 10
91.901264
 20
130.130999
 30
0.0
 10
91.787759
 20
130.114648
 30
0.0
 10
91.668763
 20
130.140809
 30
0.0
 10
91.544275
 20
130.209522
 30
0.0
  0
SPLINE
  5
27f
100
AcDbEntity
  8
Layer_1
 62
7
100
AcDbSpline
 70
8
 71
3
 72
8
 73
4
 74
0
 40
0
 40
0
 40
0
 40
0
 40
1
 40
1
 40
1
 40
1
 10
91.544275
 20
130.209522
 30
0.0
 10
91.387486
 20
130.296063
 30
0.0
 10
91.289815
 20
130.412962
 30
0.0
 10
91.251261
 20
130.560224
 30
0.0
  0
SPLINE
  5
280
100
AcDbEntity
  8
Layer_1
 62
7
100
AcDbSpline
 70
8
 71
3
 72
8
 73
4
 74
0
 40
0
 40
0
 40
0
 40
0
 40
1
 40
1
 40
1
 40
1
 10
91.251261
 20
130.560224
 30
0.0
 10
91.212707
 20
130.707484
 30
0.0
 10
91.241528
 20
130.868257
 30
0.0
 10
91.337725
 20
131.042541
 30
0.0
  0
SPLINE
  5
281
100
AcDbEntity
  8
Layer_1
 62
7
100
AcDbSpline
 70
8
 71
3
 72
8
 73
4
 74
0
 40
0
 40
0
 40
0
 40
0
 40
1
 40
1
 40
1
 40
1
 10
91.337725
 20
131.042541
 30
0.0
 10
91.437264
 20
131.222880
 30
0.0
 10
91.560949
 20
131.337218
 30
0.0
 10
91.708781
 20
131.385555
 30
0.0
  0
SPLINE
  5
282
100
AcDbEntity
  8
Layer_1
 62
7
100
AcDbSpline
 70
8
 71
3
 72
8
 73
4
 74
0
 40
0
 40
0
 40
0
 40
0
 40
1
 40
1
 40
1
 40
1
 10
91.708781
 20
131.385555
 30
0.0
 10
91.856611
 20
131.433890
 30
0.0
 10
92.004547
 20
131.417201
 30
0.0
 10
92.152589
 20
131.335491
 30
0.0
  0
SPLINE
  5
283
100
AcDbEntity
  8
Layer_1
 62
7
100
AcDbSpline
 70
8
 71
3
 72
8
 73
4
 74
0
 40
0
 40
0
 40
0
 40
0
 40
1
 40
1
 40
1
 40
1
 10
92.152589
 20
131.335491
 30
0.0
 10
92.295917
 20
131.256379
 30
0.0
 10
92.386076
 20
131.142966
 30
0.0
 10
92.423065
 20
130.995253
 30
0.0
  0
SPLINE
  5
284
100
AcDbEntity
  8
Layer_1
 62
7
100
AcDbSpline
 70
8
 71
3
 72
8
 73
4
 74
0
 40
0
 40
0
 40
0
 40
0
 40
1
 40
1
 40
1
 40
1
 10
92.423065
 20
130.995253
 30
0.0
 10
92.460052
 20
130.847540
 30
0.0
 10
92.429703
 20
130.685195
 30
0.0
 10
92.332024
 20
130.508221
 30
0.0
  0
SPLINE
  5
285
100
AcDbEntity
  8
Layer_1
 62
7
100
AcDbSpline
 70
8
 71
3
 72
8
 73
4
 74
0
 40
0
 40
0
 40
0
 40
0
 40
1
 40
1
 40
1
 40
1
 10
92.332024
 20
130.508221
 30
0.0
 10
92.326080
 20
130.497464
 30
0.0
 10
92.316829
 20
130.481486
 30
0.0
 10
92.304273
 20
130.460327
 30
0.0
  0
LWPOLYLINE
  5
286
100
AcDbEntity
  8
Layer_1
 62
7
100
AcDbPolyline
 90
2
 70
0
 10
92.031814
 20
130.422400
 30
0.0
 10
92.206743
 20
130.295558
 30
0.0
  0
SPLINE
  5
287
100
AcDbEntity
  8
Layer_1
 62
7
100
AcDbSpline
 70
8
 71
3
 72
8
 73
4
 74
0
 40
0
 40
0
 40
0
 40
0
 40
1
 40
1
 40
1
 40
1
 10
91.504855
 20
130.901569
 30
0.0
 10
91.446586
 20
130.780095
 30
0.0
 10
91.430125
 20
130.671541
 30
0.0
 10
91.455473
 20
130.575904
 30
0.0
  0
SPLINE
  5
288
100
AcDbEntity
  8
Layer_1
 62
7
100
AcDbSpline
 70
8
 71
3
 72
8
 73
4
 74
0
 40
0
 40
0
 40
0
 40
0
 40
1
 40
1
 40
1
 40
1
 10
91.455473
 20
130.575904
 30
0.0
 10
91.480819
 20
130.480267
 30
0.0
 10
91.538242
 20
130.407750
 30
0.0
 10
91.627740
 20
130.358351
 30
0.0
  0
SPLINE
  5
289
100
AcDbEntity
  8
Layer_1
 62
7
100
AcDbSpline
 70
8
 71
3
 72
8
 73
4
 74
0
 40
0
 40
0
 40
0
 40
0
 40
1
 40
1
 40
1
 40
1
 10
91.627740
 20
130.358351
 30
0.0
 10
91.694357
 20
130.321582
 30
0.0
 10
91.760875
 20
130.307692
 30
0.0
 10
91.827293
 20
130.316685
 30
0.0
  0
SPLINE
  5
28a
100
AcDbEntity
  8
Layer_1
 62
7
100
AcDbSpline
 70
8
 71
3
 72
8
 73
4
 74
0
 40
0
 40
0
 40
0
 40
0
 40
1
 40
1
 40
1
 40
1
 10
91.827293
 20
130.316685
 30
0.0
 10
91.893710
 20
130.325692
 30
0.0
 10
91.961884
 20
130.360915
 30
0.0
 10
92.031816
 20
130.422400
 30
0.0
  0
LWPOLYLINE
  5
28b
100
AcDbEntity
  8
Layer_1
 62
7
100
AcDbPolyline
 90
2
 70
0
 10
92.304273
 20
130.460327
 30
0.0
 10
91.504855
 20
130.901569
 30
0.0
  0
LWPOLYLINE
  5
28c
100
AcDbEntity
  8
Layer_1
 62
7
100
AcDbPolyline
 90
2
 70
0
 10
92.031816
 20
130.422400
 30
0.0
 10
92.031814
 20
130.422400
 30
0.0
  0
SPLINE
  5
28d
100
AcDbEntity
  8
Layer_1
 62
7
100
AcDbSpline
 70
8
 71
3
 72
8
 73
4
 74
0
 40
0
 40
0
 40
0
 40
0
 40
1
 40
1
 40
1
 40
1
 10
92.195956
 20
130.715011
 30
0.0
 10
92.237650
 20
130.809638
 30
0.0
 10
92.252098
 20
130.889894
 30
0.0
 10
92.239301
 20
130.955779
 30
0.0
  0
SPLINE
  5
28e
100
AcDbEntity
  8
Layer_1
 62
7
100
AcDbSpline
 70
8
 71
3
 72
8
 73
4
 74
0
 40
0
 40
0
 40
0
 40
0
 40
1
 40
1
 40
1
 40
1
 10
92.239301
 20
130.955779
 30
0.0
 10
92.220056
 20
131.057701
 30
0.0
 10
92.164341
 20
131.134105
 30
0.0
 10
92.072153
 20
131.184990
 30
0.0
  0
SPLINE
  5
28f
100
AcDbEntity
  8
Layer_1
 62
7
100
AcDbSpline
 70
8
 71
3
 72
8
 73
4
 74
0
 40
0
 40
0
 40
0
 40
0
 40
1
 40
1
 40
1
 40
1
 10
92.072153
 20
131.184990
 30
0.0
 10
91.988711
 20
131.231044
 30
0.0
 10
91.903146
 20
131.241839
 30
0.0
 10
91.815459
 20
131.217373
 30
0.0
  0
SPLINE
  5
290
100
AcDbEntity
  8
Layer_1
 62
7
100
AcDbSpline
 70
8
 71
3
 72
8
 73
4
 74
0
 40
0
 40
0
 40
0
 40
0
 40
1
 40
1
 40
1
 40
1
 10
91.815459
 20
131.217373
 30
0.0
 10
91.727770
 20
131.192904
 30
0.0
 10
91.655084
 20
131.135576
 30
0.0
 10
91.597402
 20
131.045384
 30
0.0
  0
LWPOLYLINE
  5
291
100
AcDbEntity
  8
Layer_1
 62
7
100
AcDbPolyline
 90
2
 70
0
 10
91.597402
 20
131.045384
 30
0.0
 10
92.195956
 20
130.715011
 30
0.0
  0
LWPOLYLINE
  5
292
100
AcDbEntity
  8
Layer_1
 62
7
100
AcDbPolyline
 90
2
 70
0
 10
91.597402
 20
131.045384
 30
0.0
 10
91.597402
 20
131.045384
 30
0.0
  0
LWPOLYLINE
  5
293
100
AcDbEntity
  8
Layer_1
 62
7
100
AcDbPolyline
 90
5
 70
0
 10
92.299440
 20
129.800916
 30
0.0
 10
92.424647
 20
130.001372
 30
0.0
 10
92.625104
 20
129.876166
 30
0.0
 10
92.499897
 20
129.675710
 30
0.0
 10
92.299440
 20
129.800916
 30
0.0
  0
SPLINE
  5
294
100
AcDbEntity
  8
Layer_1
 62
7
100
AcDbSpline
 70
8
 71
3
 72
8
 73
4
 74
0
 40
0
 40
0
 40
0
 40
0
 40
1
 40
1
 40
1
 40
1
 10
93.868684
 20
129.256868
 30
0.0
 10
93.769991
 20
129.154200
 30
0.0
 10
93.660226
 20
129.096482
 30
0.0
 10
93.539390
 20
129.083714
 30
0.0
  0
SPLINE
  5
295
100
AcDbEntity
  8
Layer_1
 62
7
100
AcDbSpline
 70
8
 71
3
 72
8
 73
4
 74
0
 40
0
 40
0
 40
0
 40
0
 40
1
 40
1
 40
1
 40
1
 10
93.539390
 20
129.083714
 30
0.0
 10
93.418552
 20
129.070949
 30
0.0
 10
93.303268
 20
129.102790
 30
0.0
 10
93.193536
 20
129.179237
 30
0.0
  0
SPLINE
  5
296
100
AcDbEntity
  8
Layer_1
 62
7
100
AcDbSpline
 70
8
 71
3
 72
8
 73
4
 74
0
 40
0
 40
0
 40
0
 40
0
 40
1
 40
1
 40
1
 40
1
 10
93.193536
 20
129.179237
 30
0.0
 10
93.056054
 20
129.275020
 30
0.0
 10
92.976838
 20
129.396953
 30
0.0
 10
92.955887
 20
129.545036
 30
0.0
  0
SPLINE
  5
297
100
AcDbEntity
  8
Layer_1
 62
7
100
AcDbSpline
 70
8
 71
3
 72
8
 73
4
 74
0
 40
0
 40
0
 40
0
 40
0
 40
1
 40
1
 40
1
 40
1
 10
92.955887
 20
129.545036
 30
0.0
 10
92.934935
 20
129.693119
 30
0.0
 10
92.982894
 20
129.851038
 30
0.0
 10
93.099767
 20
130.018790
 30
0.0
  0
SPLINE
  5
298
100
AcDbEntity
  8
Layer_1
 62
7
100
AcDbSpline
 70
8
 71
3
 72
8
 73
4
 74
0
 40
0
 40
0
 40
0
 40
0
 40
1
 40
1
 40
1
 40
1
 10
93.099767
 20
130.018790
 30
0.0
 10
93.175338
 20
130.127261
 30
0.0
 10
93.259436
 20
130.209651
 30
0.0
 10
93.352061
 20
130.265961
 30
0.0
  0
SPLINE
  5
299
100
AcDbEntity
  8
Layer_1
 62
7
100
AcDbSpline
 70
8
 71
3
 72
8
 73
4
 74
0
 40
0
 40
0
 40
0
 40
0
 40
1
 40
1
 40
1
 40
1
 10
93.352061
 20
130.265961
 30
0.0
 10
93.444686
 20
130.322270
 30
0.0
 10
93.541903
 20
130.345170
 30
0.0
 10
93.643713
 20
130.334662
 30
0.0
  0
SPLINE
  5
29a
100
AcDbEntity
  8
Layer_1
 62
7
100
AcDbSpline
 70
8
 71
3
 72
8
 73
4
 74
0
 40
0
 40
0
 40
0
 40
0
 40
1
 40
1
 40
1
 40
1
 10
93.643713
 20
130.334662
 30
0.0
 10
93.745522
 20
130.324163
 30
0.0
 10
93.839626
 20
130.288800
 30
0.0
 10
93.926026
 20
130.228607
 30
0.0
  0
SPLINE
  5
29b
100
AcDbEntity
  8
Layer_1
 62
7
100
AcDbSpline
 70
8
 71
3
 72
8
 73
4
 74
0
 40
0
 40
0
 40
0
 40
0
 40
1
 40
1
 40
1
 40
1
 10
93.926026
 20
130.228607
 30
0.0
 10
94.035127
 20
130.152596
 30
0.0
 10
94.105141
 20
130.062836
 30
0.0
 10
94.136069
 20
129.959325
 30
0.0
  0
SPLINE
  5
29c
100
AcDbEntity
  8
Layer_1
 62
7
100
AcDbSpline
 70
8
 71
3
 72
8
 73
4
 74
0
 40
0
 40
0
 40
0
 40
0
 40
1
 40
1
 40
1
 40
1
 10
94.136069
 20
129.959325
 30
0.0
 10
94.166994
 20
129.855811
 30
0.0
 10
94.156863
 20
129.746479
 30
0.0
 10
94.105678
 20
129.631325
 30
0.0
  0
LWPOLYLINE
  5
29d
100
AcDbEntity
  8
Layer_1
 62
7
100
AcDbPolyline
 90
2
 70
0
 10
93.716405
 20
129.395275
 30
0.0
 10
93.868684
 20
129.256868
 30
0.0
  0
SPLINE
  5
29e
100
AcDbEntity
  8
Layer_1
 62
7
100
AcDbSpline
 70
8
 71
3
 72
8
 73
4
 74
0
 40
0
 40
0
 40
0
 40
0
 40
1
 40
1
 40
1
 40
1
 10
93.922338
 20
129.721116
 30
0.0
 10
93.953583
 20
129.799579
 30
0.0
 10
93.961046
 20
129.869789
 30
0.0
 10
93.944727
 20
129.931744
 30
0.0
  0
SPLINE
  5
29f
100
AcDbEntity
  8
Layer_1
 62
7
100
AcDbSpline
 70
8
 71
3
 72
8
 73
4
 74
0
 40
0
 40
0
 40
0
 40
0
 40
1
 40
1
 40
1
 40
1
 10
93.944727
 20
129.931744
 30
0.0
 10
93.928405
 20
129.993699
 30
0.0
 10
93.891866
 20
130.044446
 30
0.0
 10
93.835109
 20
130.083989
 30
0.0
  0
SPLINE
  5
2a0
100
AcDbEntity
  8
Layer_1
 62
7
100
AcDbSpline
 70
8
 71
3
 72
8
 73
4
 74
0
 40
0
 40
0
 40
0
 40
0
 40
1
 40
1
 40
1
 40
1
 10
93.835109
 20
130.083989
 30
0.0
 10
93.749340
 20
130.143744
 30
0.0
 10
93.658234
 20
130.161549
 30
0.0
 10
93.561792
 20
130.137407
 30
0.0
  0
SPLINE
  5
2a1
100
AcDbEntity
  8
Layer_1
 62
7
100
AcDbSpline
 70
8
 71
3
 72
8
 73
4
 74
0
 40
0
 40
0
 40
0
 40
0
 40
1
 40
1
 40
1
 40
1
 10
93.561792
 20
130.137407
 30
0.0
 10
93.465348
 20
130.113254
 30
0.0
 10
93.370773
 20
130.034662
 30
0.0
 10
93.278068
 20
129.901596
 30
0.0
  0
SPLINE
  5
2a2
100
AcDbEntity
  8
Layer_1
 62
7
100
AcDbSpline
 70
8
 71
3
 72
8
 73
4
 74
0
 40
0
 40
0
 40
0
 40
0
 40
1
 40
1
 40
1
 40
1
 10
93.278068
 20
129.901596
 30
0.0
 10
93.184043
 20
129.766637
 30
0.0
 10
93.141578
 20
129.650555
 30
0.0
 10
93.150673
 20
129.553355
 30
0.0
  0
SPLINE
  5
2a3
100
AcDbEntity
  8
Layer_1
 62
7
100
AcDbSpline
 70
8
 71
3
 72
8
 73
4
 74
0
 40
0
 40
0
 40
0
 40
0
 40
1
 40
1
 40
1
 40
1
 10
93.150673
 20
129.553355
 30
0.0
 10
93.159767
 20
129.456154
 30
0.0
 10
93.205937
 20
129.378557
 30
0.0
 10
93.289184
 20
129.320558
 30
0.0
  0
SPLINE
  5
2a4
100
AcDbEntity
  8
Layer_1
 62
7
100
AcDbSpline
 70
8
 71
3
 72
8
 73
4
 74
0
 40
0
 40
0
 40
0
 40
0
 40
1
 40
1
 40
1
 40
1
 10
93.289184
 20
129.320558
 30
0.0
 10
93.356032
 20
129.273987
 30
0.0
 10
93.426123
 20
129.255600
 30
0.0
 10
93.499459
 20
129.265396
 30
0.0
  0
SPLINE
  5
2a5
100
AcDbEntity
  8
Layer_1
 62
7
100
AcDbSpline
 70
8
 71
3
 72
8
 73
4
 74
0
 40
0
 40
0
 40
0
 40
0
 40
1
 40
1
 40
1
 40
1
 10
93.499459
 20
129.265396
 30
0.0
 10
93.572793
 20
129.275207
 30
0.0
 10
93.645108
 20
129.318487
 30
0.0
 10
93.716406
 20
129.395275
 30
0.0
  0
LWPOLYLINE
  5
2a6
100
AcDbEntity
  8
Layer_1
 62
7
100
AcDbPolyline
 90
2
 70
0
 10
94.105678
 20
129.631325
 30
0.0
 10
93.922338
 20
129.721116
 30
0.0
  0
SPLINE
  5
2a7
100
AcDbEntity
  8
Layer_1
 62
7
100
AcDbSpline
 70
8
 71
3
 72
8
 73
4
 74
0
 40
0
 40
0
 40
0
 40
0
 40
1
 40
1
 40
1
 40
1
 10
94.486083
 20
128.419687
 30
0.0
 10
94.385246
 20
128.416818
 30
0.0
 10
94.298689
 20
128.427231
 30
0.0
 10
94.226410
 20
128.450771
 30
0.0
  0
SPLINE
  5
2a8
100
AcDbEntity
  8
Layer_1
 62
7
100
AcDbSpline
 70
8
 71
3
 72
8
 73
4
 74
0
 40
0
 40
0
 40
0
 40
0
 40
1
 40
1
 40
1
 40
1
 10
94.226410
 20
128.450771
 30
0.0
 10
94.154131
 20
128.474321
 30
0.0
 10
94.086228
 20
128.511586
 30
0.0
 10
94.022703
 20
128.562598
 30
0.0
  0
SPLINE
  5
2a9
100
AcDbEntity
  8
Layer_1
 62
7
100
AcDbSpline
 70
8
 71
3
 72
8
 73
4
 74
0
 40
0
 40
0
 40
0
 40
0
 40
1
 40
1
 40
1
 40
1
 10
94.022703
 20
128.562598
 30
0.0
 10
93.917825
 20
128.646818
 30
0.0
 10
93.857792
 20
128.737163
 30
0.0
 10
93.842604
 20
128.833641
 30
0.0
  0
SPLINE
  5
2aa
100
AcDbEntity
  8
Layer_1
 62
7
100
AcDbSpline
 70
8
 71
3
 72
8
 73
4
 74
0
 40
0
 40
0
 40
0
 40
0
 40
1
 40
1
 40
1
 40
1
 10
93.842604
 20
128.833641
 30
0.0
 10
93.827415
 20
128.930118
 30
0.0
 10
93.851823
 20
129.018211
 30
0.0
 10
93.915830
 20
129.097919
 30
0.0
  0
SPLINE
  5
2ab
100
AcDbEntity
  8
Layer_1
 62
7
100
AcDbSpline
 70
8
 71
3
 72
8
 73
4
 74
0
 40
0
 40
0
 40
0
 40
0
 40
1
 40
1
 40
1
 40
1
 10
93.915830
 20
129.097919
 30
0.0
 10
93.953367
 20
129.144662
 30
0.0
 10
93.998293
 20
129.178821
 30
0.0
 10
94.050609
 20
129.200392
 30
0.0
  0
SPLINE
  5
2ac
100
AcDbEntity
  8
Layer_1
 62
7
100
AcDbSpline
 70
8
 71
3
 72
8
 73
4
 74
0
 40
0
 40
0
 40
0
 40
0
 40
1
 40
1
 40
1
 40
1
 10
94.050609
 20
129.200392
 30
0.0
 10
94.102924
 20
129.221964
 30
0.0
 10
94.155696
 20
129.230598
 30
0.0
 10
94.208925
 20
129.226295
 30
0.0
  0
SPLINE
  5
2ad
100
AcDbEntity
  8
Layer_1
 62
7
100
AcDbSpline
 70
8
 71
3
 72
8
 73
4
 74
0
 40
0
 40
0
 40
0
 40
0
 40
1
 40
1
 40
1
 40
1
 10
94.208925
 20
129.226295
 30
0.0
 10
94.262153
 20
129.221992
 30
0.0
 10
94.315154
 20
129.208510
 30
0.0
 10
94.367930
 20
129.185852
 30
0.0
  0
SPLINE
  5
2ae
100
AcDbEntity
  8
Layer_1
 62
7
100
AcDbSpline
 70
8
 71
3
 72
8
 73
4
 74
0
 40
0
 40
0
 40
0
 40
0
 40
1
 40
1
 40
1
 40
1
 10
94.367930
 20
129.185852
 30
0.0
 10
94.406429
 20
129.168726
 30
0.0
 10
94.460870
 20
129.138326
 30
0.0
 10
94.531253
 20
129.094623
 30
0.0
  0
SPLINE
  5
2af
100
AcDbEntity
  8
Layer_1
 62
7
100
AcDbSpline
 70
8
 71
3
 72
8
 73
4
 74
0
 40
0
 40
0
 40
0
 40
0
 40
1
 40
1
 40
1
 40
1
 10
94.531253
 20
129.094623
 30
0.0
 10
94.674412
 20
129.005294
 30
0.0
 10
94.785518
 20
128.946632
 30
0.0
 10
94.864572
 20
128.918641
 30
0.0
  0
SPLINE
  5
2b0
100
AcDbEntity
  8
Layer_1
 62
7
100
AcDbSpline
 70
8
 71
3
 72
8
 73
4
 74
0
 40
0
 40
0
 40
0
 40
0
 40
1
 40
1
 40
1
 40
1
 10
94.864572
 20
128.918641
 30
0.0
 10
94.882977
 20
128.940327
 30
0.0
 10
94.894585
 20
128.954177
 30
0.0
 10
94.899399
 20
128.960169
 30
0.0
  0
SPLINE
  5
2b1
100
AcDbEntity
  8
Layer_1
 62
7
100
AcDbSpline
 70
8
 71
3
 72
8
 73
4
 74
0
 40
0
 40
0
 40
0
 40
0
 40
1
 40
1
 40
1
 40
1
 10
94.899399
 20
128.960169
 30
0.0
 10
94.952334
 20
129.026091
 30
0.0
 10
94.974349
 20
129.084810
 30
0.0
 10
94.965442
 20
129.136323
 30
0.0
  0
SPLINE
  5
2b2
100
AcDbEntity
  8
Layer_1
 62
7
100
AcDbSpline
 70
8
 71
3
 72
8
 73
4
 74
0
 40
0
 40
0
 40
0
 40
0
 40
1
 40
1
 40
1
 40
1
 10
94.965442
 20
129.136323
 30
0.0
 10
94.953445
 20
129.206086
 30
0.0
 10
94.906694
 20
129.273692
 30
0.0
 10
94.825190
 20
129.339141
 30
0.0
  0
SPLINE
  5
2b3
100
AcDbEntity
  8
Layer_1
 62
7
100
AcDbSpline
 70
8
 71
3
 72
8
 73
4
 74
0
 40
0
 40
0
 40
0
 40
0
 40
1
 40
1
 40
1
 40
1
 10
94.825190
 20
129.339141
 30
0.0
 10
94.749078
 20
129.400258
 30
0.0
 10
94.682185
 20
129.432041
 30
0.0
 10
94.624513
 20
129.434488
 30
0.0
  0
SPLINE
  5
2b4
100
AcDbEntity
  8
Layer_1
 62
7
100
AcDbSpline
 70
8
 71
3
 72
8
 73
4
 74
0
 40
0
 40
0
 40
0
 40
0
 40
1
 40
1
 40
1
 40
1
 10
94.624513
 20
129.434488
 30
0.0
 10
94.566839
 20
129.437070
 30
0.0
 10
94.502122
 20
129.411282
 30
0.0
 10
94.430363
 20
129.357511
 30
0.0
  0
LWPOLYLINE
  5
2b5
100
AcDbEntity
  8
Layer_1
 62
7
100
AcDbPolyline
 90
2
 70
0
 10
93.716406
 20
129.395275
 30
0.0
 10
93.716405
 20
129.395275
 30
0.0
  0
SPLINE
  5
2b6
100
AcDbEntity
  8
Layer_1
 62
7
100
AcDbSpline
 70
8
 71
3
 72
8
 73
4
 74
0
 40
0
 40
0
 40
0
 40
0
 40
1
 40
1
 40
1
 40
1
 10
94.289472
 20
129.506133
 30
0.0
 10
94.358235
 20
129.562305
 30
0.0
 10
94.425821
 20
129.597981
 30
0.0
 10
94.492230
 20
129.613164
 30
0.0
  0
SPLINE
  5
2b7
100
AcDbEntity
  8
Layer_1
 62
7
100
AcDbSpline
 70
8
 71
3
 72
8
 73
4
 74
0
 40
0
 40
0
 40
0
 40
0
 40
1
 40
1
 40
1
 40
1
 10
94.492230
 20
129.613164
 30
0.0
 10
94.558637
 20
129.628338
 30
0.0
 10
94.632028
 20
129.622142
 30
0.0
 10
94.712403
 20
129.594576
 30
0.0
  0
SPLINE
  5
2b8
100
AcDbEntity
  8
Layer_1
 62
7
100
AcDbSpline
 70
8
 71
3
 72
8
 73
4
 74
0
 40
0
 40
0
 40
0
 40
0
 40
1
 40
1
 40
1
 40
1
 10
94.712403
 20
129.594576
 30
0.0
 10
94.792776
 20
129.567009
 30
0.0
 10
94.874015
 20
129.520246
 30
0.0
 10
94.956121
 20
129.454315
 30
0.0
  0
SPLINE
  5
2b9
100
AcDbEntity
  8
Layer_1
 62
7
100
AcDbSpline
 70
8
 71
3
 72
8
 73
4
 74
0
 40
0
 40
0
 40
0
 40
0
 40
1
 40
1
 40
1
 40
1
 10
94.956121
 20
129.454315
 30
0.0
 10
95.037625
 20
129.388867
 30
0.0
 10
95.096148
 20
129.326100
 30
0.0
 10
95.131690
 20
129.266019
 30
0.0
  0
SPLINE
  5
2ba
100
AcDbEntity
  8
Layer_1
 62
7
100
AcDbSpline
 70
8
 71
3
 72
8
 73
4
 74
0
 40
0
 40
0
 40
0
 40
0
 40
1
 40
1
 40
1
 40
1
 10
95.131690
 20
129.266019
 30
0.0
 10
95.167229
 20
129.205934
 30
0.0
 10
95.185316
 20
129.151733
 30
0.0
 10
95.185949
 20
129.103418
 30
0.0
  0
SPLINE
  5
2bb
100
AcDbEntity
  8
Layer_1
 62
7
100
AcDbSpline
 70
8
 71
3
 72
8
 73
4
 74
0
 40
0
 40
0
 40
0
 40
0
 40
1
 40
1
 40
1
 40
1
 10
95.185949
 20
129.103418
 30
0.0
 10
95.186580
 20
129.055103
 30
0.0
 10
95.173884
 20
129.004921
 30
0.0
 10
95.147862
 20
128.952871
 30
0.0
  0
SPLINE
  5
2bc
100
AcDbEntity
  8
Layer_1
 62
7
100
AcDbSpline
 70
8
 71
3
 72
8
 73
4
 74
0
 40
0
 40
0
 40
0
 40
0
 40
1
 40
1
 40
1
 40
1
 10
95.147862
 20
128.952871
 30
0.0
 10
95.131115
 20
128.920973
 30
0.0
 10
95.093870
 20
128.869064
 30
0.0
 10
95.036122
 20
128.797150
 30
0.0
  0
LWPOLYLINE
  5
2bd
100
AcDbEntity
  8
Layer_1
 62
7
100
AcDbPolyline
 90
2
 70
0
 10
94.430363
 20
129.357511
 30
0.0
 10
94.289472
 20
129.506133
 30
0.0
  0
SPLINE
  5
2be
100
AcDbEntity
  8
Layer_1
 62
7
100
AcDbSpline
 70
8
 71
3
 72
8
 73
4
 74
0
 40
0
 40
0
 40
0
 40
0
 40
1
 40
1
 40
1
 40
1
 10
94.862874
 20
128.581401
 30
0.0
 10
94.742081
 20
128.430975
 30
0.0
 10
94.669129
 20
128.333069
 30
0.0
 10
94.644019
 20
128.287682
 30
0.0
  0
SPLINE
  5
2bf
100
AcDbEntity
  8
Layer_1
 62
7
100
AcDbSpline
 70
8
 71
3
 72
8
 73
4
 74
0
 40
0
 40
0
 40
0
 40
0
 40
1
 40
1
 40
1
 40
1
 10
94.644019
 20
128.287682
 30
0.0
 10
94.618908
 20
128.242294
 30
0.0
 10
94.601863
 20
128.193141
 30
0.0
 10
94.592884
 20
128.140219
 30
0.0
  0
LWPOLYLINE
  5
2c0
100
AcDbEntity
  8
Layer_1
 62
7
100
AcDbPolyline
 90
2
 70
0
 10
95.036122
 20
128.797150
 30
0.0
 10
94.862874
 20
128.581401
 30
0.0
  0
SPLINE
  5
2c1
100
AcDbEntity
  8
Layer_1
 62
7
100
AcDbSpline
 70
8
 71
3
 72
8
 73
4
 74
0
 40
0
 40
0
 40
0
 40
0
 40
1
 40
1
 40
1
 40
1
 10
94.423880
 20
128.275930
 30
0.0
 10
94.434049
 20
128.322968
 30
0.0
 10
94.454783
 20
128.370885
 30
0.0
 10
94.486083
 20
128.419681
 30
0.0
  0
LWPOLYLINE
  5
2c2
100
AcDbEntity
  8
Layer_1
 62
7
100
AcDbPolyline
 90
2
 70
0
 10
94.592884
 20
128.140219
 30
0.0
 10
94.423880
 20
128.275930
 30
0.0
  0
SPLINE
  5
2c3
100
AcDbEntity
  8
Layer_1
 62
7
100
AcDbSpline
 70
8
 71
3
 72
8
 73
4
 74
0
 40
0
 40
0
 40
0
 40
0
 40
1
 40
1
 40
1
 40
1
 10
94.762789
 20
128.791895
 30
0.0
 10
94.684806
 20
128.815072
 30
0.0
 10
94.580347
 20
128.865450
 30
0.0
 10
94.449410
 20
128.942995
 30
0.0
  0
SPLINE
  5
2c4
100
AcDbEntity
  8
Layer_1
 62
7
100
AcDbSpline
 70
8
 71
3
 72
8
 73
4
 74
0
 40
0
 40
0
 40
0
 40
0
 40
1
 40
1
 40
1
 40
1
 10
94.449410
 20
128.942995
 30
0.0
 10
94.375187
 20
128.986824
 30
0.0
 10
94.319479
 20
129.013814
 30
0.0
 10
94.282287
 20
129.023965
 30
0.0
  0
SPLINE
  5
2c5
100
AcDbEntity
  8
Layer_1
 62
7
100
AcDbSpline
 70
8
 71
3
 72
8
 73
4
 74
0
 40
0
 40
0
 40
0
 40
0
 40
1
 40
1
 40
1
 40
1
 10
94.282287
 20
129.023965
 30
0.0
 10
94.245094
 20
129.034120
 30
0.0
 10
94.209742
 20
129.033661
 30
0.0
 10
94.176232
 20
129.022531
 30
0.0
  0
SPLINE
  5
2c6
100
AcDbEntity
  8
Layer_1
 62
7
100
AcDbSpline
 70
8
 71
3
 72
8
 73
4
 74
0
 40
0
 40
0
 40
0
 40
0
 40
1
 40
1
 40
1
 40
1
 10
94.176232
 20
129.022531
 30
0.0
 10
94.142721
 20
129.011487
 30
0.0
 10
94.114657
 20
128.991884
 30
0.0
 10
94.092039
 20
128.963717
 30
0.0
  0
SPLINE
  5
2c7
100
AcDbEntity
  8
Layer_1
 62
7
100
AcDbSpline
 70
8
 71
3
 72
8
 73
4
 74
0
 40
0
 40
0
 40
0
 40
0
 40
1
 40
1
 40
1
 40
1
 10
94.092039
 20
128.963717
 30
0.0
 10
94.057389
 20
128.920566
 30
0.0
 10
94.044845
 20
128.871494
 30
0.0
 10
94.054408
 20
128.816501
 30
0.0
  0
SPLINE
  5
2c8
100
AcDbEntity
  8
Layer_1
 62
7
100
AcDbSpline
 70
8
 71
3
 72
8
 73
4
 74
0
 40
0
 40
0
 40
0
 40
0
 40
1
 40
1
 40
1
 40
1
 10
94.054408
 20
128.816501
 30
0.0
 10
94.063969
 20
128.761505
 30
0.0
 10
94.100214
 20
128.708744
 30
0.0
 10
94.163141
 20
128.658212
 30
0.0
  0
SPLINE
  5
2c9
100
AcDbEntity
  8
Layer_1
 62
7
100
AcDbSpline
 70
8
 71
3
 72
8
 73
4
 74
0
 40
0
 40
0
 40
0
 40
0
 40
1
 40
1
 40
1
 40
1
 10
94.163141
 20
128.658212
 30
0.0
 10
94.225468
 20
128.608165
 30
0.0
 10
94.291851
 20
128.577282
 30
0.0
 10
94.362292
 20
128.565570
 30
0.0
  0
SPLINE
  5
2ca
100
AcDbEntity
  8
Layer_1
 62
7
100
AcDbSpline
 70
8
 71
3
 72
8
 73
4
 74
0
 40
0
 40
0
 40
0
 40
0
 40
1
 40
1
 40
1
 40
1
 10
94.362292
 20
128.565570
 30
0.0
 10
94.432732
 20
128.553866
 30
0.0
 10
94.498347
 20
128.562529
 30
0.0
 10
94.559140
 20
128.591587
 30
0.0
  0
SPLINE
  5
2cb
100
AcDbEntity
  8
Layer_1
 62
7
100
AcDbSpline
 70
8
 71
3
 72
8
 73
4
 74
0
 40
0
 40
0
 40
0
 40
0
 40
1
 40
1
 40
1
 40
1
 10
94.559140
 20
128.591587
 30
0.0
 10
94.605875
 20
128.614191
 30
0.0
 10
94.657877
 20
128.661149
 30
0.0
 10
94.715146
 20
128.732464
 30
0.0
  0
LWPOLYLINE
  5
2cc
100
AcDbEntity
  8
Layer_1
 62
7
100
AcDbPolyline
 90
2
 70
0
 10
94.486083
 20
128.419681
 30
0.0
 10
94.486083
 20
128.419687
 30
0.0
  0
SPLINE
  5
2cd
100
AcDbEntity
  8
Layer_1
 62
7
100
AcDbSpline
 70
8
 71
3
 72
8
 73
4
 74
0
 40
0
 40
0
 40
0
 40
0
 40
1
 40
1
 40
1
 40
1
 10
95.571167
 20
116.548242
 30
0.0
 10
97.644555
 20
114.474855
 30
0.0
 10
99.573350
 20
113.042024
 30
0.0
 10
99.879251
 20
113.347925
 30
0.0
  0
SPLINE
  5
2ce
100
AcDbEntity
  8
Layer_1
 62
7
100
AcDbSpline
 70
8
 71
3
 72
8
 73
4
 74
0
 40
0
 40
0
 40
0
 40
0
 40
1
 40
1
 40
1
 40
1
 10
99.879251
 20
113.347925
 30
0.0
 10
100.185152
 20
113.653826
 30
0.0
 10
98.752321
 20
115.582621
 30
0.0
 10
96.678933
 20
117.656008
 30
0.0
  0
SPLINE
  5
2cf
100
AcDbEntity
  8
Layer_1
 62
7
100
AcDbSpline
 70
8
 71
3
 72
8
 73
4
 74
0
 40
0
 40
0
 40
0
 40
0
 40
1
 40
1
 40
1
 40
1
 10
96.678933
 20
117.656008
 30
0.0
 10
94.605545
 20
119.729396
 30
0.0
 10
92.676750
 20
121.162227
 30
0.0
 10
92.370849
 20
120.856326
 30
0.0
  0
SPLINE
  5
2d0
100
AcDbEntity
  8
Layer_1
 62
7
100
AcDbSpline
 70
8
 71
3
 72
8
 73
4
 74
0
 40
0
 40
0
 40
0
 40
0
 40
1
 40
1
 40
1
 40
1
 10
92.370849
 20
120.856326
 30
0.0
 10
92.064948
 20
120.550425
 30
0.0
 10
93.497779
 20
118.621630
 30
0.0
 10
95.571167
 20
116.548242
 30
0.0
  0
LWPOLYLINE
  5
2d1
100
AcDbEntity
  8
Layer_1
 62
7
100
AcDbPolyline
 90
2
 70
0
 10
94.715146
 20
128.732464
 30
0.0
 10
94.762789
 20
128.791895
 30
0.0
  0
SPLINE
  5
2d2
100
AcDbEntity
  8
Layer_1
 62
7
100
AcDbSpline
 70
8
 71
3
 72
8
 73
4
 74
0
 40
0
 40
0
 40
0
 40
0
 40
1
 40
1
 40
1
 40
1
 10
99.341599
 20
112.810273
 30
0.0
 10
99.035808
 20
112.504482
 30
0.0
 10
97.106874
 20
113.937469
 30
0.0
 10
95.033634
 20
116.010709
 30
0.0
  0
SPLINE
  5
2d3
100
AcDbEntity
  8
Layer_1
 62
7
100
AcDbSpline
 70
8
 71
3
 72
8
 73
4
 74
0
 40
0
 40
0
 40
0
 40
0
 40
1
 40
1
 40
1
 40
1
 10
95.033634
 20
116.010709
 30
0.0
 10
92.960512
 20
118.083831
 30
0.0
 10
91.527644
 20
120.012884
 30
0.0
 10
91.833316
 20
120.318556
 30
0.0
  0
LWPOLYLINE
  5
2d4
100
AcDbEntity
  8
Layer_1
 62
7
100
AcDbPolyline
 90
2
 70
0
 10
95.571167
 20
116.548242
 30
0.0
 10
95.571167
 20
116.548242
 30
0.0
  0
SPLINE
  5
2d5
100
AcDbEntity
  8
Layer_1
 62
7
100
AcDbSpline
 70
8
 71
3
 72
8
 73
4
 74
0
 40
0
 40
0
 40
0
 40
0
 40
1
 40
1
 40
1
 40
1
 10
92.189578
 20
120.674818
 30
0.0
 10
91.883788
 20
120.369028
 30
0.0
 10
93.316656
 20
118.439975
 30
0.0
 10
95.389778
 20
116.366853
 30
0.0
  0
SPLINE
  5
2d6
100
AcDbEntity
  8
Layer_1
 62
7
100
AcDbSpline
 70
8
 71
3
 72
8
 73
4
 74
0
 40
0
 40
0
 40
0
 40
0
 40
1
 40
1
 40
1
 40
1
 10
95.389778
 20
116.366853
 30
0.0
 10
97.463018
 20
114.293613
 30
0.0
 10
99.392071
 20
112.860745
 30
0.0
 10
99.697861
 20
113.166535
 30
0.0
  0
LWPOLYLINE
  5
2d7
100
AcDbEntity
  8
Layer_1
 62
7
100
AcDbPolyline
 90
2
 70
0
 10
91.833316
 20
120.318556
 30
0.0
 10
92.189578
 20
120.674818
 30
0.0
  0
SPLINE
  5
2d8
100
AcDbEntity
  8
Layer_1
 62
7
100
AcDbSpline
 70
8
 71
3
 72
8
 73
4
 74
0
 40
0
 40
0
 40
0
 40
0
 40
1
 40
1
 40
1
 40
1
 10
94.790281
 20
115.871380
 30
0.0
 10
92.719647
 20
117.942013
 30
0.0
 10
91.888171
 20
119.364693
 30
0.0
 10
91.888171
 20
119.364693
 30
0.0
  0
LWPOLYLINE
  5
2d9
100
AcDbEntity
  8
Layer_1
 62
7
100
AcDbPolyline
 90
3
 70
0
 10
99.697861
 20
113.166535
 30
0.0
 10
99.341599
 20
112.810273
 30
0.0
 10
99.341599
 20
112.810273
 30
0.0
  0
SPLINE
  5
2da
100
AcDbEntity
  8
Layer_1
 62
7
100
AcDbSpline
 70
8
 71
3
 72
8
 73
4
 74
0
 40
0
 40
0
 40
0
 40
0
 40
1
 40
1
 40
1
 40
1
 10
85.637173
 20
107.936933
 30
0.0
 10
85.637173
 20
107.936933
 30
0.0
 10
85.436946
 20
107.429137
 30
0.0
 10
86.035968
 20
106.830115
 30
0.0
  0
SPLINE
  5
2db
100
AcDbEntity
  8
Layer_1
 62
7
100
AcDbSpline
 70
8
 71
3
 72
8
 73
4
 74
0
 40
0
 40
0
 40
0
 40
0
 40
1
 40
1
 40
1
 40
1
 10
86.035968
 20
106.830115
 30
0.0
 10
86.667691
 20
106.198392
 30
0.0
 10
87.132479
 20
106.441626
 30
0.0
 10
87.131768
 20
106.442337
 30
0.0
  0
LWPOLYLINE
  5
2dc
100
AcDbEntity
  8
Layer_1
 62
7
100
AcDbPolyline
 90
2
 70
0
 10
91.888171
 20
119.364693
 30
0.0
 10
85.637173
 20
107.936933
 30
0.0
  0
SPLINE
  5
2dd
100
AcDbEntity
  8
Layer_1
 62
7
100
AcDbSpline
 70
8
 71
3
 72
8
 73
4
 74
0
 40
0
 40
0
 40
0
 40
0
 40
1
 40
1
 40
1
 40
1
 10
98.559291
 20
112.693573
 30
0.0
 10
98.559291
 20
112.693573
 30
0.0
 10
96.897287
 20
113.764374
 30
0.0
 10
94.790281
 20
115.871380
 30
0.0
  0
LWPOLYLINE
  5
2de
100
AcDbEntity
  8
Layer_1
 62
7
100
AcDbPolyline
 90
2
 70
0
 10
87.131768
 20
106.442337
 30
0.0
 10
98.559291
 20
112.693573
 30
0.0
  0
SPLINE
  5
2df
100
AcDbEntity
  8
Layer_1
 62
7
100
AcDbSpline
 70
8
 71
3
 72
8
 73
4
 74
0
 40
0
 40
0
 40
0
 40
0
 40
1
 40
1
 40
1
 40
1
 10
87.727118
 20
106.365208
 30
0.0
 10
87.728066
 20
106.364260
 30
0.0
 10
86.920404
 20
105.611335
 30
0.0
 10
85.872706
 20
106.659033
 30
0.0
  0
SPLINE
  5
2e0
100
AcDbEntity
  8
Layer_1
 62
7
100
AcDbSpline
 70
8
 71
3
 72
8
 73
4
 74
0
 40
0
 40
0
 40
0
 40
0
 40
1
 40
1
 40
1
 40
1
 10
85.872706
 20
106.659033
 30
0.0
 10
84.878916
 20
107.652823
 30
0.0
 10
85.588360
 20
108.503967
 30
0.0
 10
85.588360
 20
108.503967
 30
0.0
  0
LWPOLYLINE
  5
2e1
100
AcDbEntity
  8
Layer_1
 62
7
100
AcDbPolyline
 90
2
 70
0
 10
94.790281
 20
115.871380
 30
0.0
 10
94.790281
 20
115.871380
 30
0.0
  0
SPLINE
  5
2e2
100
AcDbEntity
  8
Layer_1
 62
7
100
AcDbSpline
 70
8
 71
3
 72
8
 73
4
 74
0
 40
0
 40
0
 40
0
 40
0
 40
1
 40
1
 40
1
 40
1
 10
84.910786
 20
107.826393
 30
0.0
 10
84.910786
 20
107.826393
 30
0.0
 10
84.395172
 20
107.169079
 30
0.0
 10
85.388962
 20
106.175289
 30
0.0
  0
SPLINE
  5
2e3
100
AcDbEntity
  8
Layer_1
 62
7
100
AcDbSpline
 70
8
 71
3
 72
8
 73
4
 74
0
 40
0
 40
0
 40
0
 40
0
 40
1
 40
1
 40
1
 40
1
 10
85.388962
 20
106.175289
 30
0.0
 10
86.436660
 20
105.127591
 30
0.0
 10
87.050492
 20
105.686687
 30
0.0
 10
87.049545
 20
105.687635
 30
0.0
  0
LWPOLYLINE
  5
2e4
100
AcDbEntity
  8
Layer_1
 62
7
100
AcDbPolyline
 90
2
 70
0
 10
85.588360
 20
108.503967
 30
0.0
 10
84.910786
 20
107.826393
 30
0.0
  0
SPLINE
  5
2e5
100
AcDbEntity
  8
Layer_1
 62
7
100
AcDbSpline
 70
8
 71
3
 72
8
 73
4
 74
0
 40
0
 40
0
 40
0
 40
0
 40
1
 40
1
 40
1
 40
1
 10
90.548308
 20
108.014654
 30
0.0
 10
90.548308
 20
108.014654
 30
0.0
 10
91.225052
 20
107.369899
 30
0.0
 10
91.895754
 20
107.487784
 30
0.0
  0
LWPOLYLINE
  5
2e6
100
AcDbEntity
  8
Layer_1
 62
7
100
AcDbPolyline
 90
3
 70
0
 10
87.049545
 20
105.687635
 30
0.0
 10
87.727118
 20
106.365208
 30
0.0
 10
87.727118
 20
106.365208
 30
0.0
  0
SPLINE
  5
2e7
100
AcDbEntity
  8
Layer_1
 62
7
100
AcDbSpline
 70
8
 71
3
 72
8
 73
4
 74
0
 40
0
 40
0
 40
0
 40
0
 40
1
 40
1
 40
1
 40
1
 10
94.051336
 20
108.319023
 30
0.0
 10
94.616000
 20
108.537259
 30
0.0
 10
95.060528
 20
108.959987
 30
0.0
 10
94.842766
 20
109.523941
 30
0.0
  0
LWPOLYLINE
  5
2e8
100
AcDbEntity
  8
Layer_1
 62
7
100
AcDbPolyline
 90
2
 70
0
 10
91.895754
 20
107.487784
 30
0.0
 10
94.051336
 20
108.319023
 30
0.0
  0
SPLINE
  5
2e9
100
AcDbEntity
  8
Layer_1
 62
7
100
AcDbSpline
 70
8
 71
3
 72
8
 73
4
 74
0
 40
0
 40
0
 40
0
 40
0
 40
1
 40
1
 40
1
 40
1
 10
94.842766
 20
109.523941
 30
0.0
 10
94.769310
 20
109.714690
 30
0.0
 10
94.578680
 20
110.031380
 30
0.0
 10
94.428687
 20
110.148910
 30
0.0
  0
LWPOLYLINE
  5
2ea
100
AcDbEntity
  8
Layer_1
 62
7
100
AcDbPolyline
 90
2
 70
0
 10
94.842766
 20
109.523941
 30
0.0
 10
94.842766
 20
109.523941
 30
0.0
  0
SPLINE
  5
2eb
100
AcDbEntity
  8
Layer_1
 62
7
100
AcDbSpline
 70
8
 71
3
 72
8
 73
4
 74
0
 40
0
 40
0
 40
0
 40
0
 40
1
 40
1
 40
1
 40
1
 10
94.943472
 20
110.431716
 30
0.0
 10
95.130786
 20
110.284448
 30
0.0
 10
95.255779
 20
110.030077
 30
0.0
 10
95.348547
 20
109.791345
 30
0.0
  0
LWPOLYLINE
  5
2ec
100
AcDbEntity
  8
Layer_1
 62
7
100
AcDbPolyline
 90
2
 70
0
 10
94.428687
 20
110.148910
 30
0.0
 10
94.943472
 20
110.431716
 30
0.0
  0
SPLINE
  5
2ed
100
AcDbEntity
  8
Layer_1
 62
7
100
AcDbSpline
 70
8
 71
3
 72
8
 73
4
 74
0
 40
0
 40
0
 40
0
 40
0
 40
1
 40
1
 40
1
 40
1
 10
95.348547
 20
109.791345
 30
0.0
 10
95.621994
 20
109.085455
 30
0.0
 10
95.269286
 20
108.291773
 30
0.0
 10
94.562211
 20
108.018327
 30
0.0
  0
LWPOLYLINE
  5
2ee
100
AcDbEntity
  8
Layer_1
 62
7
100
AcDbPolyline
 90
2
 70
0
 10
95.348547
 20
109.791345
 30
0.0
 10
95.348547
 20
109.791345
 30
0.0
  0
SPLINE
  5
2ef
100
AcDbEntity
  8
Layer_1
 62
7
100
AcDbSpline
 70
8
 71
3
 72
8
 73
4
 74
0
 40
0
 40
0
 40
0
 40
0
 40
1
 40
1
 40
1
 40
1
 10
91.863409
 20
106.978212
 30
0.0
 10
91.022929
 20
106.830115
 30
0.0
 10
90.093354
 20
107.759690
 30
0.0
 10
90.093354
 20
107.759690
 30
0.0
  0
LWPOLYLINE
  5
2f0
100
AcDbEntity
  8
Layer_1
 62
7
100
AcDbPolyline
 90
2
 70
0
 10
94.562211
 20
108.018327
 30
0.0
 10
91.863409
 20
106.978212
 30
0.0
  0
SPLINE
  5
2f1
100
AcDbEntity
  8
Layer_1
 62
7
100
AcDbSpline
 70
8
 71
3
 72
8
 73
4
 74
0
 40
0
 40
0
 40
0
 40
0
 40
1
 40
1
 40
1
 40
1
 10
85.444682
 20
115.043247
 30
0.0
 10
85.444682
 20
113.662536
 30
0.0
 10
84.325393
 20
112.543247
 30
0.0
 10
82.944682
 20
112.543247
 30
0.0
  0
SPLINE
  5
2f2
100
AcDbEntity
  8
Layer_1
 62
7
100
AcDbSpline
 70
8
 71
3
 72
8
 73
4
 74
0
 40
0
 40
0
 40
0
 40
0
 40
1
 40
1
 40
1
 40
1
 10
82.944682
 20
112.543247
 30
0.0
 10
81.563969
 20
112.543247
 30
0.0
 10
80.444682
 20
113.662536
 30
0.0
 10
80.444682
 20
115.043247
 30
0.0
  0
SPLINE
  5
2f3
100
AcDbEntity
  8
Layer_1
 62
7
100
AcDbSpline
 70
8
 71
3
 72
8
 73
4
 74
0
 40
0
 40
0
 40
0
 40
0
 40
1
 40
1
 40
1
 40
1
 10
80.444682
 20
115.043247
 30
0.0
 10
80.444682
 20
116.423959
 30
0.0
 10
81.563969
 20
117.543247
 30
0.0
 10
82.944682
 20
117.543247
 30
0.0
  0
SPLINE
  5
2f4
100
AcDbEntity
  8
Layer_1
 62
7
100
AcDbSpline
 70
8
 71
3
 72
8
 73
4
 74
0
 40
0
 40
0
 40
0
 40
0
 40
1
 40
1
 40
1
 40
1
 10
82.944682
 20
117.543247
 30
0.0
 10
84.325393
 20
117.543247
 30
0.0
 10
85.444682
 20
116.423959
 30
0.0
 10
85.444682
 20
115.043247
 30
0.0
  0
LWPOLYLINE
  5
2f5
100
AcDbEntity
  8
Layer_1
 62
7
100
AcDbPolyline
 90
3
 70
0
 10
90.093354
 20
107.759690
 30
0.0
 10
90.548308
 20
108.014654
 30
0.0
 10
90.548308
 20
108.014654
 30
0.0
  0
LWPOLYLINE
  5
2f6
100
AcDbEntity
  8
Layer_1
 62
7
100
AcDbPolyline
 90
2
 70
0
 10
85.444682
 20
115.043247
 30
0.0
 10
85.444682
 20
115.043247
 30
0.0
  0
SPLINE
  5
2f7
100
AcDbEntity
  8
Layer_1
 62
7
100
AcDbSpline
 70
8
 71
3
 72
8
 73
4
 74
0
 40
0
 40
0
 40
0
 40
0
 40
1
 40
1
 40
1
 40
1
 10
95.033920
 20
100.934129
 30
0.0
 10
94.973940
 20
100.993491
 30
0.0
 10
94.913065
 20
101.032896
 30
0.0
 10
94.851289
 20
101.052341
 30
0.0
  0
SPLINE
  5
2f8
100
AcDbEntity
  8
Layer_1
 62
7
100
AcDbSpline
 70
8
 71
3
 72
8
 73
4
 74
0
 40
0
 40
0
 40
0
 40
0
 40
1
 40
1
 40
1
 40
1
 10
94.851289
 20
101.052341
 30
0.0
 10
94.789516
 20
101.071790
 30
0.0
 10
94.718513
 20
101.070738
 30
0.0
 10
94.638281
 20
101.049157
 30
0.0
  0
SPLINE
  5
2f9
100
AcDbEntity
  8
Layer_1
 62
7
100
AcDbSpline
 70
8
 71
3
 72
8
 73
4
 74
0
 40
0
 40
0
 40
0
 40
0
 40
1
 40
1
 40
1
 40
1
 10
94.638281
 20
101.049157
 30
0.0
 10
94.558049
 20
101.027576
 30
0.0
 10
94.480697
 20
100.987128
 30
0.0
 10
94.406229
 20
100.927771
 30
0.0
  0
SPLINE
  5
2fa
100
AcDbEntity
  8
Layer_1
 62
7
100
AcDbSpline
 70
8
 71
3
 72
8
 73
4
 74
0
 40
0
 40
0
 40
0
 40
0
 40
1
 40
1
 40
1
 40
1
 10
94.406229
 20
100.927771
 30
0.0
 10
94.340099
 20
100.875065
 30
0.0
 10
94.289549
 20
100.818700
 30
0.0
 10
94.254579
 20
100.758678
 30
0.0
  0
SPLINE
  5
2fb
100
AcDbEntity
  8
Layer_1
 62
7
100
AcDbSpline
 70
8
 71
3
 72
8
 73
4
 74
0
 40
0
 40
0
 40
0
 40
0
 40
1
 40
1
 40
1
 40
1
 10
94.254579
 20
100.758678
 30
0.0
 10
94.219609
 20
100.698659
 30
0.0
 10
94.203414
 20
100.641668
 30
0.0
 10
94.205990
 20
100.587702
 30
0.0
  0
SPLINE
  5
2fc
100
AcDbEntity
  8
Layer_1
 62
7
100
AcDbSpline
 70
8
 71
3
 72
8
 73
4
 74
0
 40
0
 40
0
 40
0
 40
0
 40
1
 40
1
 40
1
 40
1
 10
94.205990
 20
100.587702
 30
0.0
 10
94.208549
 20
100.533742
 30
0.0
 10
94.226007
 20
100.486506
 30
0.0
 10
94.258292
 20
100.445992
 30
0.0
  0
SPLINE
  5
2fd
100
AcDbEntity
  8
Layer_1
 62
7
100
AcDbSpline
 70
8
 71
3
 72
8
 73
4
 74
0
 40
0
 40
0
 40
0
 40
0
 40
1
 40
1
 40
1
 40
1
 10
94.258292
 20
100.445992
 30
0.0
 10
94.291058
 20
100.404887
 30
0.0
 10
94.331581
 20
100.378487
 30
0.0
 10
94.379866
 20
100.366798
 30
0.0
  0
SPLINE
  5
2fe
100
AcDbEntity
  8
Layer_1
 62
7
100
AcDbSpline
 70
8
 71
3
 72
8
 73
4
 74
0
 40
0
 40
0
 40
0
 40
0
 40
1
 40
1
 40
1
 40
1
 10
94.379866
 20
100.366798
 30
0.0
 10
94.428151
 20
100.355112
 30
0.0
 10
94.488007
 20
100.360685
 30
0.0
 10
94.559437
 20
100.383517
 30
0.0
  0
SPLINE
  5
2ff
100
AcDbEntity
  8
Layer_1
 62
7
100
AcDbSpline
 70
8
 71
3
 72
8
 73
4
 74
0
 40
0
 40
0
 40
0
 40
0
 40
1
 40
1
 40
1
 40
1
 10
94.559437
 20
100.383517
 30
0.0
 10
94.605509
 20
100.397818
 30
0.0
 10
94.700231
 20
100.438497
 30
0.0
 10
94.843604
 20
100.505519
 30
0.0
  0
SPLINE
  5
300
100
AcDbEntity
  8
Layer_1
 62
7
100
AcDbSpline
 70
8
 71
3
 72
8
 73
4
 74
0
 40
0
 40
0
 40
0
 40
0
 40
1
 40
1
 40
1
 40
1
 10
94.843604
 20
100.505519
 30
0.0
 10
94.986980
 20
100.572544
 30
0.0
 10
95.093003
 20
100.612476
 30
0.0
 10
95.161677
 20
100.625319
 30
0.0
  0
SPLINE
  5
301
100
AcDbEntity
  8
Layer_1
 62
7
100
AcDbSpline
 70
8
 71
3
 72
8
 73
4
 74
0
 40
0
 40
0
 40
0
 40
0
 40
1
 40
1
 40
1
 40
1
 10
95.161677
 20
100.625319
 30
0.0
 10
95.250348
 20
100.642407
 30
0.0
 10
95.329375
 20
100.638910
 30
0.0
 10
95.398757
 20
100.614799
 30
0.0
  0
SPLINE
  5
302
100
AcDbEntity
  8
Layer_1
 62
7
100
AcDbSpline
 70
8
 71
3
 72
8
 73
4
 74
0
 40
0
 40
0
 40
0
 40
0
 40
1
 40
1
 40
1
 40
1
 10
95.398757
 20
100.614799
 30
0.0
 10
95.468136
 20
100.590687
 30
0.0
 10
95.526807
 20
100.548561
 30
0.0
 10
95.574765
 20
100.488389
 30
0.0
  0
SPLINE
  5
303
100
AcDbEntity
  8
Layer_1
 62
7
100
AcDbSpline
 70
8
 71
3
 72
8
 73
4
 74
0
 40
0
 40
0
 40
0
 40
0
 40
1
 40
1
 40
1
 40
1
 10
95.574765
 20
100.488389
 30
0.0
 10
95.627471
 20
100.422259
 30
0.0
 10
95.657971
 20
100.345493
 30
0.0
 10
95.666259
 20
100.258085
 30
0.0
  0
SPLINE
  5
304
100
AcDbEntity
  8
Layer_1
 62
7
100
AcDbSpline
 70
8
 71
3
 72
8
 73
4
 74
0
 40
0
 40
0
 40
0
 40
0
 40
1
 40
1
 40
1
 40
1
 10
95.666259
 20
100.258085
 30
0.0
 10
95.674533
 20
100.170679
 30
0.0
 10
95.654516
 20
100.083356
 30
0.0
 10
95.606175
 20
99.996110
 30
0.0
  0
SPLINE
  5
305
100
AcDbEntity
  8
Layer_1
 62
7
100
AcDbSpline
 70
8
 71
3
 72
8
 73
4
 74
0
 40
0
 40
0
 40
0
 40
0
 40
1
 40
1
 40
1
 40
1
 10
95.606175
 20
99.996110
 30
0.0
 10
95.557827
 20
99.908869
 30
0.0
 10
95.489569
 20
99.830110
 30
0.0
 10
95.401398
 20
99.759832
 30
0.0
  0
SPLINE
  5
306
100
AcDbEntity
  8
Layer_1
 62
7
100
AcDbSpline
 70
8
 71
3
 72
8
 73
4
 74
0
 40
0
 40
0
 40
0
 40
0
 40
1
 40
1
 40
1
 40
1
 10
95.401398
 20
99.759832
 30
0.0
 10
95.304288
 20
99.682435
 30
0.0
 10
95.206183
 20
99.629814
 30
0.0
 10
95.107080
 20
99.601972
 30
0.0
  0
SPLINE
  5
307
100
AcDbEntity
  8
Layer_1
 62
7
100
AcDbSpline
 70
8
 71
3
 72
8
 73
4
 74
0
 40
0
 40
0
 40
0
 40
0
 40
1
 40
1
 40
1
 40
1
 10
95.107080
 20
99.601972
 30
0.0
 10
95.007980
 20
99.574137
 30
0.0
 10
94.914254
 20
99.574705
 30
0.0
 10
94.825904
 20
99.603678
 30
0.0
  0
SPLINE
  5
308
100
AcDbEntity
  8
Layer_1
 62
7
100
AcDbSpline
 70
8
 71
3
 72
8
 73
4
 74
0
 40
0
 40
0
 40
0
 40
0
 40
1
 40
1
 40
1
 40
1
 10
94.825904
 20
99.603678
 30
0.0
 10
94.737555
 20
99.632634
 30
0.0
 10
94.661263
 20
99.684351
 30
0.0
 10
94.597031
 20
99.758828
 30
0.0
  0
LWPOLYLINE
  5
309
100
AcDbEntity
  8
Layer_1
 62
7
100
AcDbPolyline
 90
2
 70
0
 10
95.186058
 20
101.078770
 30
0.0
 10
95.033920
 20
100.934129
 30
0.0
  0
SPLINE
  5
30a
100
AcDbEntity
  8
Layer_1
 62
7
100
AcDbSpline
 70
8
 71
3
 72
8
 73
4
 74
0
 40
0
 40
0
 40
0
 40
0
 40
1
 40
1
 40
1
 40
1
 10
94.753275
 20
99.903819
 30
0.0
 10
94.828216
 20
99.828131
 30
0.0
 10
94.908309
 20
99.789675
 30
0.0
 10
94.993556
 20
99.788447
 30
0.0
  0
SPLINE
  5
30b
100
AcDbEntity
  8
Layer_1
 62
7
100
AcDbSpline
 70
8
 71
3
 72
8
 73
4
 74
0
 40
0
 40
0
 40
0
 40
0
 40
1
 40
1
 40
1
 40
1
 10
94.993556
 20
99.788447
 30
0.0
 10
95.078804
 20
99.787310
 30
0.0
 10
95.171768
 20
99.826735
 30
0.0
 10
95.272452
 20
99.906981
 30
0.0
  0
SPLINE
  5
30c
100
AcDbEntity
  8
Layer_1
 62
7
100
AcDbSpline
 70
8
 71
3
 72
8
 73
4
 74
0
 40
0
 40
0
 40
0
 40
0
 40
1
 40
1
 40
1
 40
1
 10
95.272452
 20
99.906981
 30
0.0
 10
95.377307
 20
99.990554
 30
0.0
 10
95.438398
 20
100.070664
 30
0.0
 10
95.455730
 20
100.147313
 30
0.0
  0
SPLINE
  5
30d
100
AcDbEntity
  8
Layer_1
 62
7
100
AcDbSpline
 70
8
 71
3
 72
8
 73
4
 74
0
 40
0
 40
0
 40
0
 40
0
 40
1
 40
1
 40
1
 40
1
 10
95.455730
 20
100.147313
 30
0.0
 10
95.473075
 20
100.223968
 30
0.0
 10
95.460109
 20
100.289401
 30
0.0
 10
95.416914
 20
100.343614
 30
0.0
  0
SPLINE
  5
30e
100
AcDbEntity
  8
Layer_1
 62
7
100
AcDbSpline
 70
8
 71
3
 72
8
 73
4
 74
0
 40
0
 40
0
 40
0
 40
0
 40
1
 40
1
 40
1
 40
1
 10
95.416914
 20
100.343614
 30
0.0
 10
95.379402
 20
100.390679
 30
0.0
 10
95.331558
 20
100.415870
 30
0.0
 10
95.273382
 20
100.419189
 30
0.0
  0
SPLINE
  5
30f
100
AcDbEntity
  8
Layer_1
 62
7
100
AcDbSpline
 70
8
 71
3
 72
8
 73
4
 74
0
 40
0
 40
0
 40
0
 40
0
 40
1
 40
1
 40
1
 40
1
 10
95.273382
 20
100.419189
 30
0.0
 10
95.215802
 20
100.422970
 30
0.0
 10
95.103862
 20
100.384665
 30
0.0
 10
94.937560
 20
100.304240
 30
0.0
  0
SPLINE
  5
310
100
AcDbEntity
  8
Layer_1
 62
7
100
AcDbSpline
 70
8
 71
3
 72
8
 73
4
 74
0
 40
0
 40
0
 40
0
 40
0
 40
1
 40
1
 40
1
 40
1
 10
94.937560
 20
100.304240
 30
0.0
 10
94.771259
 20
100.223815
 30
0.0
 10
94.652398
 20
100.174623
 30
0.0
 10
94.580977
 20
100.156667
 30
0.0
  0
SPLINE
  5
311
100
AcDbEntity
  8
Layer_1
 62
7
100
AcDbSpline
 70
8
 71
3
 72
8
 73
4
 74
0
 40
0
 40
0
 40
0
 40
0
 40
1
 40
1
 40
1
 40
1
 10
94.580977
 20
100.156667
 30
0.0
 10
94.476705
 20
100.131049
 30
0.0
 10
94.384910
 20
100.130708
 30
0.0
 10
94.305596
 20
100.155530
 30
0.0
  0
SPLINE
  5
312
100
AcDbEntity
  8
Layer_1
 62
7
100
AcDbSpline
 70
8
 71
3
 72
8
 73
4
 74
0
 40
0
 40
0
 40
0
 40
0
 40
1
 40
1
 40
1
 40
1
 10
94.305596
 20
100.155530
 30
0.0
 10
94.226282
 20
100.180494
 30
0.0
 10
94.158609
 20
100.228108
 30
0.0
 10
94.102577
 20
100.298408
 30
0.0
  0
SPLINE
  5
313
100
AcDbEntity
  8
Layer_1
 62
7
100
AcDbSpline
 70
8
 71
3
 72
8
 73
4
 74
0
 40
0
 40
0
 40
0
 40
0
 40
1
 40
1
 40
1
 40
1
 10
94.102577
 20
100.298408
 30
0.0
 10
94.047021
 20
100.368115
 30
0.0
 10
94.014631
 20
100.449703
 30
0.0
 10
94.005398
 20
100.543179
 30
0.0
  0
SPLINE
  5
314
100
AcDbEntity
  8
Layer_1
 62
7
100
AcDbSpline
 70
8
 71
3
 72
8
 73
4
 74
0
 40
0
 40
0
 40
0
 40
0
 40
1
 40
1
 40
1
 40
1
 10
94.005398
 20
100.543179
 30
0.0
 10
93.996158
 20
100.636655
 30
0.0
 10
94.015293
 20
100.730316
 30
0.0
 10
94.062753
 20
100.824164
 30
0.0
  0
SPLINE
  5
315
100
AcDbEntity
  8
Layer_1
 62
7
100
AcDbSpline
 70
8
 71
3
 72
8
 73
4
 74
0
 40
0
 40
0
 40
0
 40
0
 40
1
 40
1
 40
1
 40
1
 10
94.062753
 20
100.824164
 30
0.0
 10
94.110219
 20
100.918013
 30
0.0
 10
94.180719
 20
101.002211
 30
0.0
 10
94.274252
 20
101.076762
 30
0.0
  0
SPLINE
  5
316
100
AcDbEntity
  8
Layer_1
 62
7
100
AcDbSpline
 70
8
 71
3
 72
8
 73
4
 74
0
 40
0
 40
0
 40
0
 40
0
 40
1
 40
1
 40
1
 40
1
 10
94.274252
 20
101.076762
 30
0.0
 10
94.392808
 20
101.171254
 30
0.0
 10
94.505923
 20
101.233158
 30
0.0
 10
94.613593
 20
101.262469
 30
0.0
  0
SPLINE
  5
317
100
AcDbEntity
  8
Layer_1
 62
7
100
AcDbSpline
 70
8
 71
3
 72
8
 73
4
 74
0
 40
0
 40
0
 40
0
 40
0
 40
1
 40
1
 40
1
 40
1
 10
94.613593
 20
101.262469
 30
0.0
 10
94.721265
 20
101.291781
 30
0.0
 10
94.825546
 20
101.289907
 30
0.0
 10
94.926440
 20
101.256811
 30
0.0
  0
SPLINE
  5
318
100
AcDbEntity
  8
Layer_1
 62
7
100
AcDbSpline
 70
8
 71
3
 72
8
 73
4
 74
0
 40
0
 40
0
 40
0
 40
0
 40
1
 40
1
 40
1
 40
1
 10
94.926440
 20
101.256811
 30
0.0
 10
95.027335
 20
101.223729
 30
0.0
 10
95.113876
 20
101.164350
 30
0.0
 10
95.186058
 20
101.078670
 30
0.0
  0
LWPOLYLINE
  5
319
100
AcDbEntity
  8
Layer_1
 62
7
100
AcDbPolyline
 90
2
 70
0
 10
94.597031
 20
99.758828
 30
0.0
 10
94.753275
 20
99.903819
 30
0.0
  0
LWPOLYLINE
  5
31a
100
AcDbEntity
  8
Layer_1
 62
7
100
AcDbPolyline
 90
2
 70
0
 10
95.186058
 20
101.078670
 30
0.0
 10
95.186058
 20
101.078770
 30
0.0
  0
LWPOLYLINE
  5
31b
100
AcDbEntity
  8
Layer_1
 62
7
100
AcDbPolyline
 90
13
 70
0
 10
93.554697
 20
100.484601
 30
0.0
 10
94.477396
 20
99.086304
 30
0.0
 10
94.292355
 20
98.964202
 30
0.0
 10
93.913458
 20
99.538399
 30
0.0
 10
93.186647
 20
99.058798
 30
0.0
 10
93.565547
 20
98.484601
 30
0.0
 10
93.380505
 20
98.362496
 30
0.0
 10
92.457806
 20
99.760793
 30
0.0
 10
92.642847
 20
99.882895
 30
0.0
 10
93.077760
 20
99.223809
 30
0.0
 10
93.804571
 20
99.703410
 30
0.0
 10
93.369655
 20
100.362499
 30
0.0
 10
93.554697
 20
100.484601
 30
0.0
  0
LWPOLYLINE
  5
31c
100
AcDbEntity
  8
Layer_1
 62
7
100
AcDbPolyline
 90
13
 70
0
 10
92.133079
 20
99.567449
 30
0.0
 10
92.921186
 20
98.089108
 30
0.0
 10
92.725553
 20
97.984816
 30
0.0
 10
92.401924
 20
98.591884
 30
0.0
 10
91.633510
 20
98.182240
 30
0.0
 10
91.957139
 20
97.575171
 30
0.0
 10
91.761506
 20
97.470880
 30
0.0
 10
90.973397
 20
98.949221
 30
0.0
 10
91.169030
 20
99.053513
 30
0.0
 10
91.540506
 20
98.356696
 30
0.0
 10
92.308920
 20
98.766340
 30
0.0
 10
91.937447
 20
99.463157
 30
0.0
 10
92.133079
 20
99.567449
 30
0.0
  0
LWPOLYLINE
  5
31d
100
AcDbEntity
  8
Layer_1
 62
7
100
AcDbPolyline
 90
13
 70
0
 10
90.631989
 20
98.787111
 30
0.0
 10
91.278042
 20
97.241400
 30
0.0
 10
91.073492
 20
97.155905
 30
0.0
 10
90.808196
 20
97.790639
 30
0.0
 10
90.004764
 20
97.454832
 30
0.0
 10
90.270060
 20
96.820098
 30
0.0
 10
90.065511
 20
96.734606
 30
0.0
 10
89.419458
 20
98.280316
 30
0.0
 10
89.624008
 20
98.365811
 30
0.0
 10
89.928524
 20
97.637238
 30
0.0
 10
90.731959
 20
97.973045
 30
0.0
 10
90.427440
 20
98.701616
 30
0.0
 10
90.631989
 20
98.787111
 30
0.0
  0
SPLINE
  5
31e
100
AcDbEntity
  8
Layer_1
 62
7
100
AcDbSpline
 70
8
 71
3
 72
8
 73
4
 74
0
 40
0
 40
0
 40
0
 40
0
 40
1
 40
1
 40
1
 40
1
 10
88.558350
 20
97.984153
 30
0.0
 10
88.573334
 20
97.936929
 30
0.0
 10
88.578623
 20
97.888937
 30
0.0
 10
88.574244
 20
97.840181
 30
0.0
  0
SPLINE
  5
31f
100
AcDbEntity
  8
Layer_1
 62
7
100
AcDbSpline
 70
8
 71
3
 72
8
 73
4
 74
0
 40
0
 40
0
 40
0
 40
0
 40
1
 40
1
 40
1
 40
1
 10
88.574244
 20
97.840181
 30
0.0
 10
88.567705
 20
97.759929
 30
0.0
 10
88.544557
 20
97.676148
 30
0.0
 10
88.504786
 20
97.588842
 30
0.0
  0
SPLINE
  5
320
100
AcDbEntity
  8
Layer_1
 62
7
100
AcDbSpline
 70
8
 71
3
 72
8
 73
4
 74
0
 40
0
 40
0
 40
0
 40
0
 40
1
 40
1
 40
1
 40
1
 10
88.504786
 20
97.588842
 30
0.0
 10
88.465014
 20
97.501539
 30
0.0
 10
88.401790
 20
97.395700
 30
0.0
 10
88.315118
 20
97.271332
 30
0.0
  0
SPLINE
  5
321
100
AcDbEntity
  8
Layer_1
 62
7
100
AcDbSpline
 70
8
 71
3
 72
8
 73
4
 74
0
 40
0
 40
0
 40
0
 40
0
 40
1
 40
1
 40
1
 40
1
 10
88.315118
 20
97.271332
 30
0.0
 10
88.180701
 20
97.077988
 30
0.0
 10
88.094615
 20
96.930623
 30
0.0
 10
88.056856
 20
96.829237
 30
0.0
  0
SPLINE
  5
322
100
AcDbEntity
  8
Layer_1
 62
7
100
AcDbSpline
 70
8
 71
3
 72
8
 73
4
 74
0
 40
0
 40
0
 40
0
 40
0
 40
1
 40
1
 40
1
 40
1
 10
88.056856
 20
96.829237
 30
0.0
 10
88.019097
 20
96.727853
 30
0.0
 10
88.010823
 20
96.639782
 30
0.0
 10
88.032034
 20
96.565024
 30
0.0
  0
SPLINE
  5
323
100
AcDbEntity
  8
Layer_1
 62
7
100
AcDbSpline
 70
8
 71
3
 72
8
 73
4
 74
0
 40
0
 40
0
 40
0
 40
0
 40
1
 40
1
 40
1
 40
1
 10
88.032034
 20
96.565024
 30
0.0
 10
88.054269
 20
96.486600
 30
0.0
 10
88.101081
 20
96.428409
 30
0.0
 10
88.172430
 20
96.390443
 30
0.0
  0
SPLINE
  5
324
100
AcDbEntity
  8
Layer_1
 62
7
100
AcDbSpline
 70
8
 71
3
 72
8
 73
4
 74
0
 40
0
 40
0
 40
0
 40
0
 40
1
 40
1
 40
1
 40
1
 10
88.172430
 20
96.390443
 30
0.0
 10
88.243783
 20
96.352479
 30
0.0
 10
88.324532
 20
96.346286
 30
0.0
 10
88.414682
 20
96.371848
 30
0.0
  0
SPLINE
  5
325
100
AcDbEntity
  8
Layer_1
 62
7
100
AcDbSpline
 70
8
 71
3
 72
8
 73
4
 74
0
 40
0
 40
0
 40
0
 40
0
 40
1
 40
1
 40
1
 40
1
 10
88.414682
 20
96.371848
 30
0.0
 10
88.509960
 20
96.398887
 30
0.0
 10
88.578074
 20
96.449086
 30
0.0
 10
88.619026
 20
96.522471
 30
0.0
  0
SPLINE
  5
326
100
AcDbEntity
  8
Layer_1
 62
7
100
AcDbSpline
 70
8
 71
3
 72
8
 73
4
 74
0
 40
0
 40
0
 40
0
 40
0
 40
1
 40
1
 40
1
 40
1
 10
88.619026
 20
96.522471
 30
0.0
 10
88.659975
 20
96.595856
 30
0.0
 10
88.666469
 20
96.683225
 30
0.0
 10
88.638503
 20
96.784574
 30
0.0
  0
LWPOLYLINE
  5
327
100
AcDbEntity
  8
Layer_1
 62
7
100
AcDbPolyline
 90
3
 70
0
 10
87.547003
 20
97.491746
 30
0.0
 10
87.493048
 20
97.681940
 30
0.0
 10
88.558350
 20
97.984153
 30
0.0
  0
SPLINE
  5
328
100
AcDbEntity
  8
Layer_1
 62
7
100
AcDbSpline
 70
8
 71
3
 72
8
 73
4
 74
0
 40
0
 40
0
 40
0
 40
0
 40
1
 40
1
 40
1
 40
1
 10
88.847814
 20
96.821383
 30
0.0
 10
88.876927
 20
96.665722
 30
0.0
 10
88.857311
 20
96.535235
 30
0.0
 10
88.789001
 20
96.429930
 30
0.0
  0
SPLINE
  5
329
100
AcDbEntity
  8
Layer_1
 62
7
100
AcDbSpline
 70
8
 71
3
 72
8
 73
4
 74
0
 40
0
 40
0
 40
0
 40
0
 40
1
 40
1
 40
1
 40
1
 10
88.789001
 20
96.429930
 30
0.0
 10
88.720677
 20
96.324629
 30
0.0
 10
88.609925
 20
96.250249
 30
0.0
 10
88.456745
 20
96.206792
 30
0.0
  0
SPLINE
  5
32a
100
AcDbEntity
  8
Layer_1
 62
7
100
AcDbSpline
 70
8
 71
3
 72
8
 73
4
 74
0
 40
0
 40
0
 40
0
 40
0
 40
1
 40
1
 40
1
 40
1
 10
88.456745
 20
96.206792
 30
0.0
 10
88.302099
 20
96.162923
 30
0.0
 10
88.167537
 20
96.171074
 30
0.0
 10
88.053060
 20
96.231244
 30
0.0
  0
SPLINE
  5
32b
100
AcDbEntity
  8
Layer_1
 62
7
100
AcDbSpline
 70
8
 71
3
 72
8
 73
4
 74
0
 40
0
 40
0
 40
0
 40
0
 40
1
 40
1
 40
1
 40
1
 10
88.053060
 20
96.231244
 30
0.0
 10
87.938587
 20
96.291425
 30
0.0
 10
87.863362
 20
96.384910
 30
0.0
 10
87.827391
 20
96.511706
 30
0.0
  0
SPLINE
  5
32c
100
AcDbEntity
  8
Layer_1
 62
7
100
AcDbSpline
 70
8
 71
3
 72
8
 73
4
 74
0
 40
0
 40
0
 40
0
 40
0
 40
1
 40
1
 40
1
 40
1
 10
87.827391
 20
96.511706
 30
0.0
 10
87.809109
 20
96.576204
 30
0.0
 10
87.804304
 20
96.643345
 30
0.0
 10
87.813004
 20
96.713125
 30
0.0
  0
SPLINE
  5
32d
100
AcDbEntity
  8
Layer_1
 62
7
100
AcDbSpline
 70
8
 71
3
 72
8
 73
4
 74
0
 40
0
 40
0
 40
0
 40
0
 40
1
 40
1
 40
1
 40
1
 10
87.813004
 20
96.713125
 30
0.0
 10
87.821704
 20
96.782911
 30
0.0
 10
87.846902
 20
96.860931
 30
0.0
 10
87.888556
 20
96.947185
 30
0.0
  0
SPLINE
  5
32e
100
AcDbEntity
  8
Layer_1
 62
7
100
AcDbSpline
 70
8
 71
3
 72
8
 73
4
 74
0
 40
0
 40
0
 40
0
 40
0
 40
1
 40
1
 40
1
 40
1
 10
87.888556
 20
96.947185
 30
0.0
 10
87.930210
 20
97.033442
 30
0.0
 10
88.005080
 20
97.156838
 30
0.0
 10
88.113168
 20
97.317373
 30
0.0
  0
SPLINE
  5
32f
100
AcDbEntity
  8
Layer_1
 62
7
100
AcDbSpline
 70
8
 71
3
 72
8
 73
4
 74
0
 40
0
 40
0
 40
0
 40
0
 40
1
 40
1
 40
1
 40
1
 10
88.113168
 20
97.317373
 30
0.0
 10
88.203624
 20
97.450735
 30
0.0
 10
88.260669
 20
97.539969
 30
0.0
 10
88.284297
 20
97.585080
 30
0.0
  0
SPLINE
  5
330
100
AcDbEntity
  8
Layer_1
 62
7
100
AcDbSpline
 70
8
 71
3
 72
8
 73
4
 74
0
 40
0
 40
0
 40
0
 40
0
 40
1
 40
1
 40
1
 40
1
 10
88.284297
 20
97.585080
 30
0.0
 10
88.307924
 20
97.630192
 30
0.0
 10
88.325644
 20
97.673822
 30
0.0
 10
88.337444
 20
97.715971
 30
0.0
  0
LWPOLYLINE
  5
331
100
AcDbEntity
  8
Layer_1
 62
7
100
AcDbPolyline
 90
2
 70
0
 10
88.638503
 20
96.784574
 30
0.0
 10
88.847814
 20
96.821383
 30
0.0
  0
LWPOLYLINE
  5
332
100
AcDbEntity
  8
Layer_1
 62
7
100
AcDbPolyline
 90
2
 70
0
 10
88.337444
 20
97.715971
 30
0.0
 10
87.547003
 20
97.491746
 30
0.0
  0
LWPOLYLINE
  5
333
100
AcDbEntity
  8
Layer_1
 62
7
100
AcDbPolyline
 90
12
 70
0
 10
86.631839
 20
97.494615
 30
0.0
 10
86.713078
 20
97.101817
 30
0.0
 10
87.424812
 20
97.249020
 30
0.0
 10
87.463003
 20
97.064371
 30
0.0
 10
86.934212
 20
95.846404
 30
0.0
 10
86.769707
 20
95.812382
 30
0.0
 10
86.549832
 20
96.875508
 30
0.0
 10
86.328254
 20
96.829683
 30
0.0
 10
86.290065
 20
97.014332
 30
0.0
 10
86.511643
 20
97.060157
 30
0.0
 10
86.430405
 20
97.452955
 30
0.0
 10
86.631839
 20
97.494615
 30
0.0
  0
LWPOLYLINE
  5
334
100
AcDbEntity
  8
Layer_1
 62
7
100
AcDbPolyline
 90
4
 70
0
 10
86.751266
 20
96.917171
 30
0.0
 10
86.904254
 20
96.177457
 30
0.0
 10
87.264925
 20
97.023405
 30
0.0
 10
86.751266
 20
96.917171
 30
0.0
  0
LWPOLYLINE
  5
335
100
AcDbEntity
  8
Layer_1
 62
7
100
AcDbPolyline
 90
5
 70
0
 10
85.434909
 20
96.786567
 30
0.0
 10
85.457675
 20
96.580986
 30
0.0
 10
84.829566
 20
96.511428
 30
0.0
 10
84.806800
 20
96.717012
 30
0.0
 10
85.434909
 20
96.786567
 30
0.0
  0
SPLINE
  5
336
100
AcDbEntity
  8
Layer_1
 62
7
100
AcDbSpline
 70
8
 71
3
 72
8
 73
4
 74
0
 40
0
 40
0
 40
0
 40
0
 40
1
 40
1
 40
1
 40
1
 10
82.214563
 20
96.543491
 30
0.0
 10
82.197864
 20
96.319369
 30
0.0
 10
82.123196
 20
96.158009
 30
0.0
 10
81.990561
 20
96.059410
 30
0.0
  0
SPLINE
  5
337
100
AcDbEntity
  8
Layer_1
 62
7
100
AcDbSpline
 70
8
 71
3
 72
8
 73
4
 74
0
 40
0
 40
0
 40
0
 40
0
 40
1
 40
1
 40
1
 40
1
 10
81.990561
 20
96.059410
 30
0.0
 10
81.879797
 20
95.977517
 30
0.0
 10
81.749581
 20
95.942147
 30
0.0
 10
81.599912
 20
95.953298
 30
0.0
  0
SPLINE
  5
338
100
AcDbEntity
  8
Layer_1
 62
7
100
AcDbSpline
 70
8
 71
3
 72
8
 73
4
 74
0
 40
0
 40
0
 40
0
 40
0
 40
1
 40
1
 40
1
 40
1
 10
81.599912
 20
95.953298
 30
0.0
 10
81.433531
 20
95.965695
 30
0.0
 10
81.301600
 20
96.030340
 30
0.0
 10
81.204118
 20
96.147230
 30
0.0
  0
SPLINE
  5
339
100
AcDbEntity
  8
Layer_1
 62
7
100
AcDbSpline
 70
8
 71
3
 72
8
 73
4
 74
0
 40
0
 40
0
 40
0
 40
0
 40
1
 40
1
 40
1
 40
1
 10
81.204118
 20
96.147230
 30
0.0
 10
81.106640
 20
96.264121
 30
0.0
 10
81.065061
 20
96.418674
 30
0.0
 10
81.079381
 20
96.610886
 30
0.0
  0
SPLINE
  5
33a
100
AcDbEntity
  8
Layer_1
 62
7
100
AcDbSpline
 70
8
 71
3
 72
8
 73
4
 74
0
 40
0
 40
0
 40
0
 40
0
 40
1
 40
1
 40
1
 40
1
 10
81.079381
 20
96.610886
 30
0.0
 10
81.090988
 20
96.766633
 30
0.0
 10
81.123478
 20
96.887399
 30
0.0
 10
81.176852
 20
96.973187
 30
0.0
  0
SPLINE
  5
33b
100
AcDbEntity
  8
Layer_1
 62
7
100
AcDbSpline
 70
8
 71
3
 72
8
 73
4
 74
0
 40
0
 40
0
 40
0
 40
0
 40
1
 40
1
 40
1
 40
1
 10
81.176852
 20
96.973187
 30
0.0
 10
81.230228
 20
97.058975
 30
0.0
 10
81.303390
 20
97.123233
 30
0.0
 10
81.396337
 20
97.165965
 30
0.0
  0
SPLINE
  5
33c
100
AcDbEntity
  8
Layer_1
 62
7
100
AcDbSpline
 70
8
 71
3
 72
8
 73
4
 74
0
 40
0
 40
0
 40
0
 40
0
 40
1
 40
1
 40
1
 40
1
 10
81.396337
 20
97.165965
 30
0.0
 10
81.489287
 20
97.208697
 30
0.0
 10
81.588563
 20
97.226129
 30
0.0
 10
81.694166
 20
97.218259
 30
0.0
  0
SPLINE
  5
33d
100
AcDbEntity
  8
Layer_1
 62
7
100
AcDbSpline
 70
8
 71
3
 72
8
 73
4
 74
0
 40
0
 40
0
 40
0
 40
0
 40
1
 40
1
 40
1
 40
1
 10
81.694166
 20
97.218259
 30
0.0
 10
81.863588
 20
97.205634
 30
0.0
 10
81.996483
 20
97.141112
 30
0.0
 10
82.092851
 20
97.024685
 30
0.0
  0
SPLINE
  5
33e
100
AcDbEntity
  8
Layer_1
 62
7
100
AcDbSpline
 70
8
 71
3
 72
8
 73
4
 74
0
 40
0
 40
0
 40
0
 40
0
 40
1
 40
1
 40
1
 40
1
 10
82.092851
 20
97.024685
 30
0.0
 10
82.189220
 20
96.908260
 30
0.0
 10
82.229791
 20
96.747862
 30
0.0
 10
82.214563
 20
96.543491
 30
0.0
  0
LWPOLYLINE
  5
33f
100
AcDbEntity
  8
Layer_1
 62
7
100
AcDbPolyline
 90
11
 70
0
 10
83.850822
 20
97.145954
 30
0.0
 10
83.862892
 20
95.470706
 30
0.0
 10
83.635488
 20
95.469000
 30
0.0
 10
82.746106
 20
96.777946
 30
0.0
 10
82.755583
 20
95.462659
 30
0.0
 10
82.543034
 20
95.461238
 30
0.0
 10
82.530965
 20
97.136488
 30
0.0
 10
82.758369
 20
97.138194
 30
0.0
 10
83.647759
 20
95.828105
 30
0.0
 10
83.638274
 20
97.144535
 30
0.0
 10
83.850822
 20
97.145954
 30
0.0
  0
SPLINE
  5
340
100
AcDbEntity
  8
Layer_1
 62
7
100
AcDbSpline
 70
8
 71
3
 72
8
 73
4
 74
0
 40
0
 40
0
 40
0
 40
0
 40
1
 40
1
 40
1
 40
1
 10
82.003736
 20
96.559215
 30
0.0
 10
82.015285
 20
96.714203
 30
0.0
 10
81.990122
 20
96.832771
 30
0.0
 10
81.928252
 20
96.914922
 30
0.0
  0
SPLINE
  5
341
100
AcDbEntity
  8
Layer_1
 62
7
100
AcDbSpline
 70
8
 71
3
 72
8
 73
4
 74
0
 40
0
 40
0
 40
0
 40
0
 40
1
 40
1
 40
1
 40
1
 10
81.928252
 20
96.914922
 30
0.0
 10
81.866381
 20
96.997073
 30
0.0
 10
81.784164
 20
97.041969
 30
0.0
 10
81.681599
 20
97.049612
 30
0.0
  0
SPLINE
  5
342
100
AcDbEntity
  8
Layer_1
 62
7
100
AcDbSpline
 70
8
 71
3
 72
8
 73
4
 74
0
 40
0
 40
0
 40
0
 40
0
 40
1
 40
1
 40
1
 40
1
 10
81.681599
 20
97.049612
 30
0.0
 10
81.579795
 20
97.057203
 30
0.0
 10
81.492197
 20
97.024761
 30
0.0
 10
81.418805
 20
96.952309
 30
0.0
  0
SPLINE
  5
343
100
AcDbEntity
  8
Layer_1
 62
7
100
AcDbSpline
 70
8
 71
3
 72
8
 73
4
 74
0
 40
0
 40
0
 40
0
 40
0
 40
1
 40
1
 40
1
 40
1
 10
81.418805
 20
96.952309
 30
0.0
 10
81.345416
 20
96.879853
 30
0.0
 10
81.302805
 20
96.764233
 30
0.0
 10
81.290973
 20
96.605447
 30
0.0
  0
SPLINE
  5
344
100
AcDbEntity
  8
Layer_1
 62
7
100
AcDbSpline
 70
8
 71
3
 72
8
 73
4
 74
0
 40
0
 40
0
 40
0
 40
0
 40
1
 40
1
 40
1
 40
1
 10
81.290973
 20
96.605447
 30
0.0
 10
81.279821
 20
96.455782
 30
0.0
 10
81.305371
 20
96.339858
 30
0.0
 10
81.367621
 20
96.257675
 30
0.0
  0
SPLINE
  5
345
100
AcDbEntity
  8
Layer_1
 62
7
100
AcDbSpline
 70
8
 71
3
 72
8
 73
4
 74
0
 40
0
 40
0
 40
0
 40
0
 40
1
 40
1
 40
1
 40
1
 10
81.367621
 20
96.257675
 30
0.0
 10
81.429872
 20
96.175498
 30
0.0
 10
81.511520
 20
96.130643
 30
0.0
 10
81.612564
 20
96.123114
 30
0.0
  0
SPLINE
  5
346
100
AcDbEntity
  8
Layer_1
 62
7
100
AcDbSpline
 70
8
 71
3
 72
8
 73
4
 74
0
 40
0
 40
0
 40
0
 40
0
 40
1
 40
1
 40
1
 40
1
 10
81.612564
 20
96.123114
 30
0.0
 10
81.715130
 20
96.115465
 30
0.0
 10
81.803079
 20
96.147509
 30
0.0
 10
81.876412
 20
96.219191
 30
0.0
  0
SPLINE
  5
347
100
AcDbEntity
  8
Layer_1
 62
7
100
AcDbSpline
 70
8
 71
3
 72
8
 73
4
 74
0
 40
0
 40
0
 40
0
 40
0
 40
1
 40
1
 40
1
 40
1
 10
81.876412
 20
96.219191
 30
0.0
 10
81.949747
 20
96.290888
 30
0.0
 10
81.992188
 20
96.404230
 30
0.0
 10
82.003736
 20
96.559215
 30
0.0
  0
LWPOLYLINE
  5
348
100
AcDbEntity
  8
Layer_1
 62
7
100
AcDbPolyline
 90
2
 70
0
 10
82.214563
 20
96.543491
 30
0.0
 10
82.214563
 20
96.543491
 30
0.0
  0
LWPOLYLINE
  5
349
100
AcDbEntity
  8
Layer_1
 62
7
100
AcDbPolyline
 90
2
 70
0
 10
82.003736
 20
96.559215
 30
0.0
 10
82.003736
 20
96.559215
 30
0.0
  0
SPLINE
  5
34a
100
AcDbEntity
  8
Layer_1
 62
7
100
AcDbSpline
 70
8
 71
3
 72
8
 73
4
 74
0
 40
0
 40
0
 40
0
 40
0
 40
1
 40
1
 40
1
 40
1
 10
80.466355
 20
96.832017
 30
0.0
 10
80.449597
 20
96.913697
 30
0.0
 10
80.435532
 20
96.998066
 30
0.0
 10
80.424161
 20
97.085127
 30
0.0
  0
SPLINE
  5
34b
100
AcDbEntity
  8
Layer_1
 62
7
100
AcDbSpline
 70
8
 71
3
 72
8
 73
4
 74
0
 40
0
 40
0
 40
0
 40
0
 40
1
 40
1
 40
1
 40
1
 10
80.424161
 20
97.085127
 30
0.0
 10
80.396977
 20
97.024377
 30
0.0
 10
80.360786
 20
96.951834
 30
0.0
 10
80.315593
 20
96.867499
 30
0.0
  0
LWPOLYLINE
  5
34c
100
AcDbEntity
  8
Layer_1
 62
7
100
AcDbPolyline
 90
4
 70
0
 10
80.551320
 20
97.311632
 30
0.0
 10
80.835984
 20
96.044755
 30
0.0
 10
80.621059
 20
96.075588
 30
0.0
 10
80.466355
 20
96.832017
 30
0.0
  0
LWPOLYLINE
  5
34d
100
AcDbEntity
  8
Layer_1
 62
7
100
AcDbPolyline
 90
5
 70
0
 10
80.315593
 20
96.867499
 30
0.0
 10
79.943480
 20
96.172789
 30
0.0
 10
79.734211
 20
96.202808
 30
0.0
 10
80.361282
 20
97.338894
 30
0.0
 10
80.551320
 20
97.311632
 30
0.0
  0
SPLINE
  5
34e
100
AcDbEntity
  8
Layer_1
 62
7
100
AcDbSpline
 70
8
 71
3
 72
8
 73
4
 74
0
 40
0
 40
0
 40
0
 40
0
 40
1
 40
1
 40
1
 40
1
 10
78.274404
 20
96.422398
 30
0.0
 10
78.333976
 20
96.456083
 30
0.0
 10
78.408505
 20
96.485992
 30
0.0
 10
78.497992
 20
96.512124
 30
0.0
  0
SPLINE
  5
34f
100
AcDbEntity
  8
Layer_1
 62
7
100
AcDbSpline
 70
8
 71
3
 72
8
 73
4
 74
0
 40
0
 40
0
 40
0
 40
0
 40
1
 40
1
 40
1
 40
1
 10
78.497992
 20
96.512124
 30
0.0
 10
78.587481
 20
96.538254
 30
0.0
 10
78.666138
 20
96.554950
 30
0.0
 10
78.733966
 20
96.562192
 30
0.0
  0
LWPOLYLINE
  5
350
100
AcDbEntity
  8
Layer_1
 62
7
100
AcDbPolyline
 90
3
 70
0
 10
78.395634
 20
97.743639
 30
0.0
 10
78.595081
 20
97.693316
 30
0.0
 10
78.274404
 20
96.422398
 30
0.0
  0
SPLINE
  5
351
100
AcDbEntity
  8
Layer_1
 62
7
100
AcDbSpline
 70
8
 71
3
 72
8
 73
4
 74
0
 40
0
 40
0
 40
0
 40
0
 40
1
 40
1
 40
1
 40
1
 10
78.685319
 20
96.369394
 30
0.0
 10
78.560544
 20
96.345084
 30
0.0
 10
78.447008
 20
96.306168
 30
0.0
 10
78.344710
 20
96.252620
 30
0.0
  0
SPLINE
  5
352
100
AcDbEntity
  8
Layer_1
 62
7
100
AcDbSpline
 70
8
 71
3
 72
8
 73
4
 74
0
 40
0
 40
0
 40
0
 40
0
 40
1
 40
1
 40
1
 40
1
 10
78.344710
 20
96.252620
 30
0.0
 10
78.242414
 20
96.199075
 30
0.0
 10
78.165053
 20
96.141595
 30
0.0
 10
78.112626
 20
96.080177
 30
0.0
  0
LWPOLYLINE
  5
353
100
AcDbEntity
  8
Layer_1
 62
7
100
AcDbPolyline
 90
2
 70
0
 10
78.733966
 20
96.562192
 30
0.0
 10
78.685319
 20
96.369394
 30
0.0
  0
LWPOLYLINE
  5
354
100
AcDbEntity
  8
Layer_1
 62
7
100
AcDbPolyline
 90
3
 70
0
 10
78.112626
 20
96.080177
 30
0.0
 10
77.984094
 20
96.112610
 30
0.0
 10
78.395634
 20
97.743639
 30
0.0
  0
SPLINE
  5
355
100
AcDbEntity
  8
Layer_1
 62
7
100
AcDbSpline
 70
8
 71
3
 72
8
 73
4
 74
0
 40
0
 40
0
 40
0
 40
0
 40
1
 40
1
 40
1
 40
1
 10
76.932928
 20
96.814247
 30
0.0
 10
76.994785
 20
96.843527
 30
0.0
 10
77.071286
 20
96.867954
 30
0.0
 10
77.162432
 20
96.887535
 30
0.0
  0
SPLINE
  5
356
100
AcDbEntity
  8
Layer_1
 62
7
100
AcDbSpline
 70
8
 71
3
 72
8
 73
4
 74
0
 40
0
 40
0
 40
0
 40
0
 40
1
 40
1
 40
1
 40
1
 10
77.162432
 20
96.887535
 30
0.0
 10
77.253580
 20
96.907126
 30
0.0
 10
77.333240
 20
96.918061
 30
0.0
 10
77.401414
 20
96.920367
 30
0.0
  0
LWPOLYLINE
  5
357
100
AcDbEntity
  8
Layer_1
 62
7
100
AcDbPolyline
 90
3
 70
0
 10
77.149604
 20
98.123230
 30
0.0
 10
77.344879
 20
98.058582
 30
0.0
 10
76.932928
 20
96.814247
 30
0.0
  0
SPLINE
  5
358
100
AcDbEntity
  8
Layer_1
 62
7
100
AcDbSpline
 70
8
 71
3
 72
8
 73
4
 74
0
 40
0
 40
0
 40
0
 40
0
 40
1
 40
1
 40
1
 40
1
 10
77.338921
 20
96.731601
 30
0.0
 10
77.212713
 20
96.716418
 30
0.0
 10
77.096654
 20
96.685815
 30
0.0
 10
76.990744
 20
96.639822
 30
0.0
  0
SPLINE
  5
359
100
AcDbEntity
  8
Layer_1
 62
7
100
AcDbSpline
 70
8
 71
3
 72
8
 73
4
 74
0
 40
0
 40
0
 40
0
 40
0
 40
1
 40
1
 40
1
 40
1
 10
76.990744
 20
96.639822
 30
0.0
 10
76.884836
 20
96.593832
 30
0.0
 10
76.803512
 20
96.542110
 30
0.0
 10
76.746772
 20
96.484655
 30
0.0
  0
LWPOLYLINE
  5
35a
100
AcDbEntity
  8
Layer_1
 62
7
100
AcDbPolyline
 90
2
 70
0
 10
77.401414
 20
96.920367
 30
0.0
 10
77.338921
 20
96.731601
 30
0.0
  0
LWPOLYLINE
  5
35b
100
AcDbEntity
  8
Layer_1
 62
7
100
AcDbPolyline
 90
3
 70
0
 10
76.746772
 20
96.484655
 30
0.0
 10
76.620929
 20
96.526315
 30
0.0
 10
77.149604
 20
98.123230
 30
0.0
  0
SPLINE
  5
35c
100
AcDbEntity
  8
Layer_1
 62
7
100
AcDbSpline
 70
8
 71
3
 72
8
 73
4
 74
0
 40
0
 40
0
 40
0
 40
0
 40
1
 40
1
 40
1
 40
1
 10
76.331750
 20
98.428651
 30
0.0
 10
76.363205
 20
98.508786
 30
0.0
 10
76.402789
 20
98.567932
 30
0.0
 10
76.450501
 20
98.606084
 30
0.0
  0
SPLINE
  5
35d
100
AcDbEntity
  8
Layer_1
 62
7
100
AcDbSpline
 70
8
 71
3
 72
8
 73
4
 74
0
 40
0
 40
0
 40
0
 40
0
 40
1
 40
1
 40
1
 40
1
 10
76.450501
 20
98.606084
 30
0.0
 10
76.498214
 20
98.644238
 30
0.0
 10
76.558208
 20
98.664678
 30
0.0
 10
76.630484
 20
98.667411
 30
0.0
  0
LWPOLYLINE
  5
35e
100
AcDbEntity
  8
Layer_1
 62
7
100
AcDbPolyline
 90
4
 70
0
 10
76.549819
 20
98.343057
 30
0.0
 10
76.464223
 20
98.124987
 30
0.0
 10
76.246154
 20
98.210582
 30
0.0
 10
76.331750
 20
98.428651
 30
0.0
  0
SPLINE
  5
35f
100
AcDbEntity
  8
Layer_1
 62
7
100
AcDbSpline
 70
8
 71
3
 72
8
 73
4
 74
0
 40
0
 40
0
 40
0
 40
0
 40
1
 40
1
 40
1
 40
1
 10
76.651521
 20
98.564626
 30
0.0
 10
76.604140
 20
98.562635
 30
0.0
 10
76.564125
 20
98.548391
 30
0.0
 10
76.531476
 20
98.521513
 30
0.0
  0
SPLINE
  5
360
100
AcDbEntity
  8
Layer_1
 62
7
100
AcDbSpline
 70
8
 71
3
 72
8
 73
4
 74
0
 40
0
 40
0
 40
0
 40
0
 40
1
 40
1
 40
1
 40
1
 10
76.531476
 20
98.521513
 30
0.0
 10
76.498829
 20
98.494644
 30
0.0
 10
76.468776
 20
98.449344
 30
0.0
 10
76.441317
 20
98.385643
 30
0.0
  0
LWPOLYLINE
  5
361
100
AcDbEntity
  8
Layer_1
 62
7
100
AcDbPolyline
 90
2
 70
0
 10
76.630484
 20
98.667411
 30
0.0
 10
76.651521
 20
98.564626
 30
0.0
  0
LWPOLYLINE
  5
362
100
AcDbEntity
  8
Layer_1
 62
7
100
AcDbPolyline
 90
2
 70
0
 10
76.441317
 20
98.385643
 30
0.0
 10
76.549819
 20
98.343057
 30
0.0
  0
SPLINE
  5
363
100
AcDbEntity
  8
Layer_1
 62
7
100
AcDbSpline
 70
8
 71
3
 72
8
 73
4
 74
0
 40
0
 40
0
 40
0
 40
0
 40
1
 40
1
 40
1
 40
1
 10
75.476568
 20
98.786892
 30
0.0
 10
75.455755
 20
98.741933
 30
0.0
 10
75.427280
 20
98.702941
 30
0.0
 10
75.391142
 20
98.669916
 30
0.0
  0
SPLINE
  5
364
100
AcDbEntity
  8
Layer_1
 62
7
100
AcDbSpline
 70
8
 71
3
 72
8
 73
4
 74
0
 40
0
 40
0
 40
0
 40
0
 40
1
 40
1
 40
1
 40
1
 10
75.391142
 20
98.669916
 30
0.0
 10
75.332164
 20
98.615103
 30
0.0
 10
75.258540
 20
98.568902
 30
0.0
 10
75.170271
 20
98.531311
 30
0.0
  0
SPLINE
  5
365
100
AcDbEntity
  8
Layer_1
 62
7
100
AcDbSpline
 70
8
 71
3
 72
8
 73
4
 74
0
 40
0
 40
0
 40
0
 40
0
 40
1
 40
1
 40
1
 40
1
 10
75.170271
 20
98.531311
 30
0.0
 10
75.082004
 20
98.493723
 30
0.0
 10
74.963925
 20
98.458284
 30
0.0
 10
74.816036
 20
98.424995
 30
0.0
  0
SPLINE
  5
366
100
AcDbEntity
  8
Layer_1
 62
7
100
AcDbSpline
 70
8
 71
3
 72
8
 73
4
 74
0
 40
0
 40
0
 40
0
 40
0
 40
1
 40
1
 40
1
 40
1
 10
74.816036
 20
98.424995
 30
0.0
 10
74.586365
 20
98.373019
 30
0.0
 10
74.423388
 20
98.322363
 30
0.0
 10
74.327104
 20
98.273026
 30
0.0
  0
SPLINE
  5
367
100
AcDbEntity
  8
Layer_1
 62
7
100
AcDbSpline
 70
8
 71
3
 72
8
 73
4
 74
0
 40
0
 40
0
 40
0
 40
0
 40
1
 40
1
 40
1
 40
1
 10
74.327104
 20
98.273026
 30
0.0
 10
74.230823
 20
98.223689
 30
0.0
 10
74.165282
 20
98.164279
 30
0.0
 10
74.130482
 20
98.094797
 30
0.0
  0
SPLINE
  5
368
100
AcDbEntity
  8
Layer_1
 62
7
100
AcDbSpline
 70
8
 71
3
 72
8
 73
4
 74
0
 40
0
 40
0
 40
0
 40
0
 40
1
 40
1
 40
1
 40
1
 10
74.130482
 20
98.094797
 30
0.0
 10
74.093979
 20
98.021912
 30
0.0
 10
74.089244
 20
97.947387
 30
0.0
 10
74.116277
 20
97.871218
 30
0.0
  0
SPLINE
  5
369
100
AcDbEntity
  8
Layer_1
 62
7
100
AcDbSpline
 70
8
 71
3
 72
8
 73
4
 74
0
 40
0
 40
0
 40
0
 40
0
 40
1
 40
1
 40
1
 40
1
 10
74.116277
 20
97.871218
 30
0.0
 10
74.143314
 20
97.795055
 30
0.0
 10
74.198724
 20
97.735988
 30
0.0
 10
74.282508
 20
97.694024
 30
0.0
  0
SPLINE
  5
36a
100
AcDbEntity
  8
Layer_1
 62
7
100
AcDbSpline
 70
8
 71
3
 72
8
 73
4
 74
0
 40
0
 40
0
 40
0
 40
0
 40
1
 40
1
 40
1
 40
1
 10
74.282508
 20
97.694024
 30
0.0
 10
74.371063
 20
97.649674
 30
0.0
 10
74.455212
 20
97.640761
 30
0.0
 10
74.534954
 20
97.667269
 30
0.0
  0
SPLINE
  5
36b
100
AcDbEntity
  8
Layer_1
 62
7
100
AcDbSpline
 70
8
 71
3
 72
8
 73
4
 74
0
 40
0
 40
0
 40
0
 40
0
 40
1
 40
1
 40
1
 40
1
 10
74.534954
 20
97.667269
 30
0.0
 10
74.614698
 20
97.693796
 30
0.0
 10
74.678451
 20
97.753884
 30
0.0
 10
74.726211
 20
97.847545
 30
0.0
  0
LWPOLYLINE
  5
36c
100
AcDbEntity
  8
Layer_1
 62
7
100
AcDbPolyline
 90
3
 70
0
 10
74.397934
 20
99.106006
 30
0.0
 10
74.486466
 20
99.282773
 30
0.0
 10
75.476568
 20
98.786892
 30
0.0
  0
SPLINE
  5
36d
100
AcDbEntity
  8
Layer_1
 62
7
100
AcDbSpline
 70
8
 71
3
 72
8
 73
4
 74
0
 40
0
 40
0
 40
0
 40
0
 40
1
 40
1
 40
1
 40
1
 10
74.905517
 20
97.733458
 30
0.0
 10
74.821954
 20
97.598936
 30
0.0
 10
74.719431
 20
97.515872
 30
0.0
 10
74.597947
 20
97.484266
 30
0.0
  0
SPLINE
  5
36e
100
AcDbEntity
  8
Layer_1
 62
7
100
AcDbSpline
 70
8
 71
3
 72
8
 73
4
 74
0
 40
0
 40
0
 40
0
 40
0
 40
1
 40
1
 40
1
 40
1
 10
74.597947
 20
97.484266
 30
0.0
 10
74.476465
 20
97.452665
 30
0.0
 10
74.344540
 20
97.472523
 30
0.0
 10
74.202171
 20
97.543816
 30
0.0
  0
SPLINE
  5
36f
100
AcDbEntity
  8
Layer_1
 62
7
100
AcDbSpline
 70
8
 71
3
 72
8
 73
4
 74
0
 40
0
 40
0
 40
0
 40
0
 40
1
 40
1
 40
1
 40
1
 10
74.202171
 20
97.543816
 30
0.0
 10
74.058443
 20
97.615802
 30
0.0
 10
73.964643
 20
97.712625
 30
0.0
 10
73.920772
 20
97.834286
 30
0.0
  0
SPLINE
  5
370
100
AcDbEntity
  8
Layer_1
 62
7
100
AcDbSpline
 70
8
 71
3
 72
8
 73
4
 74
0
 40
0
 40
0
 40
0
 40
0
 40
1
 40
1
 40
1
 40
1
 10
73.920772
 20
97.834286
 30
0.0
 10
73.876904
 20
97.955948
 30
0.0
 10
73.884480
 20
98.075702
 30
0.0
 10
73.943498
 20
98.193548
 30
0.0
  0
SPLINE
  5
371
100
AcDbEntity
  8
Layer_1
 62
7
100
AcDbSpline
 70
8
 71
3
 72
8
 73
4
 74
0
 40
0
 40
0
 40
0
 40
0
 40
1
 40
1
 40
1
 40
1
 10
73.943498
 20
98.193548
 30
0.0
 10
73.973522
 20
98.253490
 30
0.0
 10
74.015294
 20
98.306273
 30
0.0
 10
74.068814
 20
98.351891
 30
0.0
  0
SPLINE
  5
372
100
AcDbEntity
  8
Layer_1
 62
7
100
AcDbSpline
 70
8
 71
3
 72
8
 73
4
 74
0
 40
0
 40
0
 40
0
 40
0
 40
1
 40
1
 40
1
 40
1
 10
74.068814
 20
98.351891
 30
0.0
 10
74.122337
 20
98.397511
 30
0.0
 10
74.193572
 20
98.438091
 30
0.0
 10
74.282519
 20
98.473635
 30
0.0
  0
SPLINE
  5
373
100
AcDbEntity
  8
Layer_1
 62
7
100
AcDbSpline
 70
8
 71
3
 72
8
 73
4
 74
0
 40
0
 40
0
 40
0
 40
0
 40
1
 40
1
 40
1
 40
1
 10
74.282519
 20
98.473635
 30
0.0
 10
74.371469
 20
98.509179
 30
0.0
 10
74.509993
 20
98.549716
 30
0.0
 10
74.698092
 20
98.595245
 30
0.0
  0
SPLINE
  5
374
100
AcDbEntity
  8
Layer_1
 62
7
100
AcDbSpline
 70
8
 71
3
 72
8
 73
4
 74
0
 40
0
 40
0
 40
0
 40
0
 40
1
 40
1
 40
1
 40
1
 10
74.698092
 20
98.595245
 30
0.0
 10
74.854843
 20
98.632617
 30
0.0
 10
74.957159
 20
98.659976
 30
0.0
 10
75.005039
 20
98.677320
 30
0.0
  0
SPLINE
  5
375
100
AcDbEntity
  8
Layer_1
 62
7
100
AcDbSpline
 70
8
 71
3
 72
8
 73
4
 74
0
 40
0
 40
0
 40
0
 40
0
 40
1
 40
1
 40
1
 40
1
 10
75.005039
 20
98.677320
 30
0.0
 10
75.052921
 20
98.694664
 30
0.0
 10
75.095437
 20
98.714908
 30
0.0
 10
75.132589
 20
98.738049
 30
0.0
  0
LWPOLYLINE
  5
376
100
AcDbEntity
  8
Layer_1
 62
7
100
AcDbPolyline
 90
2
 70
0
 10
74.726211
 20
97.847545
 30
0.0
 10
74.905517
 20
97.733458
 30
0.0
  0
SPLINE
  5
377
100
AcDbEntity
  8
Layer_1
 62
7
100
AcDbSpline
 70
8
 71
3
 72
8
 73
4
 74
0
 40
0
 40
0
 40
0
 40
0
 40
1
 40
1
 40
1
 40
1
 10
73.868844
 20
98.678352
 30
0.0
 10
73.767607
 20
98.508098
 30
0.0
 10
73.668614
 20
98.381492
 30
0.0
 10
73.571864
 20
98.298533
 30
0.0
  0
SPLINE
  5
378
100
AcDbEntity
  8
Layer_1
 62
7
100
AcDbSpline
 70
8
 71
3
 72
8
 73
4
 74
0
 40
0
 40
0
 40
0
 40
0
 40
1
 40
1
 40
1
 40
1
 10
73.571864
 20
98.298533
 30
0.0
 10
73.475116
 20
98.215578
 30
0.0
 10
73.375457
 20
98.166480
 30
0.0
 10
73.272886
 20
98.151242
 30
0.0
  0
SPLINE
  5
379
100
AcDbEntity
  8
Layer_1
 62
7
100
AcDbSpline
 70
8
 71
3
 72
8
 73
4
 74
0
 40
0
 40
0
 40
0
 40
0
 40
1
 40
1
 40
1
 40
1
 10
73.272886
 20
98.151242
 30
0.0
 10
73.170317
 20
98.136002
 30
0.0
 10
73.066646
 20
98.159545
 30
0.0
 10
72.961873
 20
98.221838
 30
0.0
  0
SPLINE
  5
37a
100
AcDbEntity
  8
Layer_1
 62
7
100
AcDbSpline
 70
8
 71
3
 72
8
 73
4
 74
0
 40
0
 40
0
 40
0
 40
0
 40
1
 40
1
 40
1
 40
1
 10
72.961873
 20
98.221838
 30
0.0
 10
72.884606
 20
98.267786
 30
0.0
 10
72.826079
 20
98.323640
 30
0.0
 10
72.786294
 20
98.389396
 30
0.0
  0
SPLINE
  5
37b
100
AcDbEntity
  8
Layer_1
 62
7
100
AcDbSpline
 70
8
 71
3
 72
8
 73
4
 74
0
 40
0
 40
0
 40
0
 40
0
 40
1
 40
1
 40
1
 40
1
 10
72.786294
 20
98.389396
 30
0.0
 10
72.746512
 20
98.455156
 30
0.0
 10
72.725055
 20
98.528630
 30
0.0
 10
72.721922
 20
98.609820
 30
0.0
  0
SPLINE
  5
37c
100
AcDbEntity
  8
Layer_1
 62
7
100
AcDbSpline
 70
8
 71
3
 72
8
 73
4
 74
0
 40
0
 40
0
 40
0
 40
0
 40
1
 40
1
 40
1
 40
1
 10
72.721922
 20
98.609820
 30
0.0
 10
72.718795
 20
98.691010
 30
0.0
 10
72.731442
 20
98.780105
 30
0.0
 10
72.759865
 20
98.877098
 30
0.0
  0
SPLINE
  5
37d
100
AcDbEntity
  8
Layer_1
 62
7
100
AcDbSpline
 70
8
 71
3
 72
8
 73
4
 74
0
 40
0
 40
0
 40
0
 40
0
 40
1
 40
1
 40
1
 40
1
 10
72.759865
 20
98.877098
 30
0.0
 10
72.788292
 20
98.974091
 30
0.0
 10
72.844947
 20
99.093964
 30
0.0
 10
72.929829
 20
99.236715
 30
0.0
  0
SPLINE
  5
37e
100
AcDbEntity
  8
Layer_1
 62
7
100
AcDbSpline
 70
8
 71
3
 72
8
 73
4
 74
0
 40
0
 40
0
 40
0
 40
0
 40
1
 40
1
 40
1
 40
1
 10
72.929829
 20
99.236715
 30
0.0
 10
73.030289
 20
99.405657
 30
0.0
 10
73.128729
 20
99.531706
 30
0.0
 10
73.225150
 20
99.614858
 30
0.0
  0
SPLINE
  5
37f
100
AcDbEntity
  8
Layer_1
 62
7
100
AcDbSpline
 70
8
 71
3
 72
8
 73
4
 74
0
 40
0
 40
0
 40
0
 40
0
 40
1
 40
1
 40
1
 40
1
 10
73.225150
 20
99.614858
 30
0.0
 10
73.321572
 20
99.698010
 30
0.0
 10
73.421165
 20
99.747370
 30
0.0
 10
73.523929
 20
99.762931
 30
0.0
  0
SPLINE
  5
380
100
AcDbEntity
  8
Layer_1
 62
7
100
AcDbSpline
 70
8
 71
3
 72
8
 73
4
 74
0
 40
0
 40
0
 40
0
 40
0
 40
1
 40
1
 40
1
 40
1
 10
73.523929
 20
99.762931
 30
0.0
 10
73.626694
 20
99.778484
 30
0.0
 10
73.730790
 20
99.754942
 30
0.0
 10
73.836215
 20
99.692244
 30
0.0
  0
SPLINE
  5
381
100
AcDbEntity
  8
Layer_1
 62
7
100
AcDbSpline
 70
8
 71
3
 72
8
 73
4
 74
0
 40
0
 40
0
 40
0
 40
0
 40
1
 40
1
 40
1
 40
1
 10
73.836215
 20
99.692244
 30
0.0
 10
73.975038
 20
99.609695
 30
0.0
 10
74.054473
 20
99.495099
 30
0.0
 10
74.074522
 20
99.348450
 30
0.0
  0
SPLINE
  5
382
100
AcDbEntity
  8
Layer_1
 62
7
100
AcDbSpline
 70
8
 71
3
 72
8
 73
4
 74
0
 40
0
 40
0
 40
0
 40
0
 40
1
 40
1
 40
1
 40
1
 10
74.074522
 20
99.348450
 30
0.0
 10
74.098215
 20
99.172158
 30
0.0
 10
74.029656
 20
98.948791
 30
0.0
 10
73.868844
 20
98.678352
 30
0.0
  0
LWPOLYLINE
  5
383
100
AcDbEntity
  8
Layer_1
 62
7
100
AcDbPolyline
 90
2
 70
0
 10
75.132589
 20
98.738049
 30
0.0
 10
74.397934
 20
99.106006
 30
0.0
  0
SPLINE
  5
384
100
AcDbEntity
  8
Layer_1
 62
7
100
AcDbSpline
 70
8
 71
3
 72
8
 73
4
 74
0
 40
0
 40
0
 40
0
 40
0
 40
1
 40
1
 40
1
 40
1
 10
73.687131
 20
98.786403
 30
0.0
 10
73.827696
 20
99.022794
 30
0.0
 10
73.893577
 20
99.196564
 30
0.0
 10
73.884774
 20
99.307717
 30
0.0
  0
SPLINE
  5
385
100
AcDbEntity
  8
Layer_1
 62
7
100
AcDbSpline
 70
8
 71
3
 72
8
 73
4
 74
0
 40
0
 40
0
 40
0
 40
0
 40
1
 40
1
 40
1
 40
1
 10
73.884774
 20
99.307717
 30
0.0
 10
73.875972
 20
99.418873
 30
0.0
 10
73.830973
 20
99.498590
 30
0.0
 10
73.749774
 20
99.546872
 30
0.0
  0
SPLINE
  5
386
100
AcDbEntity
  8
Layer_1
 62
7
100
AcDbSpline
 70
8
 71
3
 72
8
 73
4
 74
0
 40
0
 40
0
 40
0
 40
0
 40
1
 40
1
 40
1
 40
1
 10
73.749774
 20
99.546872
 30
0.0
 10
73.668577
 20
99.595154
 30
0.0
 10
73.576949
 20
99.596456
 30
0.0
 10
73.474891
 20
99.550768
 30
0.0
  0
SPLINE
  5
387
100
AcDbEntity
  8
Layer_1
 62
7
100
AcDbSpline
 70
8
 71
3
 72
8
 73
4
 74
0
 40
0
 40
0
 40
0
 40
0
 40
1
 40
1
 40
1
 40
1
 10
73.474891
 20
99.550768
 30
0.0
 10
73.372834
 20
99.505090
 30
0.0
 10
73.251718
 20
99.364384
 30
0.0
 10
73.111542
 20
99.128650
 30
0.0
  0
SPLINE
  5
388
100
AcDbEntity
  8
Layer_1
 62
7
100
AcDbSpline
 70
8
 71
3
 72
8
 73
4
 74
0
 40
0
 40
0
 40
0
 40
0
 40
1
 40
1
 40
1
 40
1
 10
73.111542
 20
99.128650
 30
0.0
 10
72.970590
 20
98.891604
 30
0.0
 10
72.904611
 20
98.717669
 30
0.0
 10
72.913607
 20
98.606840
 30
0.0
  0
SPLINE
  5
389
100
AcDbEntity
  8
Layer_1
 62
7
100
AcDbSpline
 70
8
 71
3
 72
8
 73
4
 74
0
 40
0
 40
0
 40
0
 40
0
 40
1
 40
1
 40
1
 40
1
 10
72.913607
 20
98.606840
 30
0.0
 10
72.922606
 20
98.496017
 30
0.0
 10
72.968357
 20
98.416072
 30
0.0
 10
73.050863
 20
98.367011
 30
0.0
  0
SPLINE
  5
38a
100
AcDbEntity
  8
Layer_1
 62
7
100
AcDbSpline
 70
8
 71
3
 72
8
 73
4
 74
0
 40
0
 40
0
 40
0
 40
0
 40
1
 40
1
 40
1
 40
1
 10
73.050863
 20
98.367011
 30
0.0
 10
73.132062
 20
98.318729
 30
0.0
 10
73.217332
 20
98.314558
 30
0.0
 10
73.306672
 20
98.354501
 30
0.0
  0
SPLINE
  5
38b
100
AcDbEntity
  8
Layer_1
 62
7
100
AcDbSpline
 70
8
 71
3
 72
8
 73
4
 74
0
 40
0
 40
0
 40
0
 40
0
 40
1
 40
1
 40
1
 40
1
 10
73.306672
 20
98.354501
 30
0.0
 10
73.419748
 20
98.406035
 30
0.0
 10
73.546567
 20
98.549997
 30
0.0
 10
73.687131
 20
98.786388
 30
0.0
  0
LWPOLYLINE
  5
38c
100
AcDbEntity
  8
Layer_1
 62
7
100
AcDbPolyline
 90
2
 70
0
 10
73.868844
 20
98.678352
 30
0.0
 10
73.868844
 20
98.678352
 30
0.0
  0
LWPOLYLINE
  5
38d
100
AcDbEntity
  8
Layer_1
 62
7
100
AcDbPolyline
 90
2
 70
0
 10
73.687131
 20
98.786388
 30
0.0
 10
73.687131
 20
98.786403
 30
0.0
  0
SPLINE
  5
38e
100
AcDbEntity
  8
Layer_1
 62
7
100
AcDbSpline
 70
8
 71
3
 72
8
 73
4
 74
0
 40
0
 40
0
 40
0
 40
0
 40
1
 40
1
 40
1
 40
1
 10
71.958577
 20
99.310231
 30
0.0
 10
72.026209
 20
99.320694
 30
0.0
 10
72.106499
 20
99.322315
 30
0.0
 10
72.199448
 20
99.315150
 30
0.0
  0
SPLINE
  5
38f
100
AcDbEntity
  8
Layer_1
 62
7
100
AcDbSpline
 70
8
 71
3
 72
8
 73
4
 74
0
 40
0
 40
0
 40
0
 40
0
 40
1
 40
1
 40
1
 40
1
 10
72.199448
 20
99.315150
 30
0.0
 10
72.292398
 20
99.307985
 30
0.0
 10
72.371879
 20
99.295787
 30
0.0
 10
72.437888
 20
99.278591
 30
0.0
  0
LWPOLYLINE
  5
390
100
AcDbEntity
  8
Layer_1
 62
7
100
AcDbPolyline
 90
3
 70
0
 10
72.538924
 20
100.503367
 30
0.0
 10
72.707715
 20
100.385806
 30
0.0
 10
71.958577
 20
99.310231
 30
0.0
  0
SPLINE
  5
391
100
AcDbEntity
  8
Layer_1
 62
7
100
AcDbSpline
 70
8
 71
3
 72
8
 73
4
 74
0
 40
0
 40
0
 40
0
 40
0
 40
1
 40
1
 40
1
 40
1
 10
72.324244
 20
99.115425
 30
0.0
 10
72.198932
 20
99.136779
 30
0.0
 10
72.078966
 20
99.140503
 30
0.0
 10
71.964345
 20
99.126571
 30
0.0
  0
SPLINE
  5
392
100
AcDbEntity
  8
Layer_1
 62
7
100
AcDbSpline
 70
8
 71
3
 72
8
 73
4
 74
0
 40
0
 40
0
 40
0
 40
0
 40
1
 40
1
 40
1
 40
1
 10
71.964345
 20
99.126571
 30
0.0
 10
71.849728
 20
99.112639
 30
0.0
 10
71.757044
 20
99.086202
 30
0.0
 10
71.686296
 20
99.047277
 30
0.0
  0
LWPOLYLINE
  5
393
100
AcDbEntity
  8
Layer_1
 62
7
100
AcDbPolyline
 90
2
 70
0
 10
72.437888
 20
99.278591
 30
0.0
 10
72.324244
 20
99.115425
 30
0.0
  0
LWPOLYLINE
  5
394
100
AcDbEntity
  8
Layer_1
 62
7
100
AcDbPolyline
 90
3
 70
0
 10
71.686296
 20
99.047277
 30
0.0
 10
71.577519
 20
99.123040
 30
0.0
 10
72.538924
 20
100.503367
 30
0.0
  0
SPLINE
  5
395
100
AcDbEntity
  8
Layer_1
 62
7
100
AcDbSpline
 70
8
 71
3
 72
8
 73
4
 74
0
 40
0
 40
0
 40
0
 40
0
 40
1
 40
1
 40
1
 40
1
 10
72.129879
 20
100.794509
 30
0.0
 10
72.099922
 20
100.755050
 30
0.0
 10
72.063759
 20
100.723060
 30
0.0
 10
72.021390
 20
100.698536
 30
0.0
  0
SPLINE
  5
396
100
AcDbEntity
  8
Layer_1
 62
7
100
AcDbSpline
 70
8
 71
3
 72
8
 73
4
 74
0
 40
0
 40
0
 40
0
 40
0
 40
1
 40
1
 40
1
 40
1
 10
72.021390
 20
100.698536
 30
0.0
 10
71.952043
 20
100.657621
 30
0.0
 10
71.870234
 20
100.628256
 30
0.0
 10
71.775965
 20
100.610437
 30
0.0
  0
SPLINE
  5
397
100
AcDbEntity
  8
Layer_1
 62
7
100
AcDbSpline
 70
8
 71
3
 72
8
 73
4
 74
0
 40
0
 40
0
 40
0
 40
0
 40
1
 40
1
 40
1
 40
1
 10
71.775965
 20
100.610437
 30
0.0
 10
71.681696
 20
100.592610
 30
0.0
 10
71.558768
 20
100.583284
 30
0.0
 10
71.407180
 20
100.582431
 30
0.0
  0
SPLINE
  5
398
100
AcDbEntity
  8
Layer_1
 62
7
100
AcDbSpline
 70
8
 71
3
 72
8
 73
4
 74
0
 40
0
 40
0
 40
0
 40
0
 40
1
 40
1
 40
1
 40
1
 10
71.407180
 20
100.582431
 30
0.0
 10
71.171708
 20
100.580725
 30
0.0
 10
71.001665
 20
100.566252
 30
0.0
 10
70.897050
 20
100.538669
 30
0.0
  0
SPLINE
  5
399
100
AcDbEntity
  8
Layer_1
 62
7
100
AcDbSpline
 70
8
 71
3
 72
8
 73
4
 74
0
 40
0
 40
0
 40
0
 40
0
 40
1
 40
1
 40
1
 40
1
 10
70.897050
 20
100.538669
 30
0.0
 10
70.792438
 20
100.511089
 30
0.0
 10
70.715698
 20
100.467090
 30
0.0
 10
70.666828
 20
100.406672
 30
0.0
  0
SPLINE
  5
39a
100
AcDbEntity
  8
Layer_1
 62
7
100
AcDbSpline
 70
8
 71
3
 72
8
 73
4
 74
0
 40
0
 40
0
 40
0
 40
0
 40
1
 40
1
 40
1
 40
1
 10
70.666828
 20
100.406672
 30
0.0
 10
70.615566
 20
100.343290
 30
0.0
 10
70.594985
 20
100.271508
 30
0.0
 10
70.605084
 20
100.191319
 30
0.0
  0
SPLINE
  5
39b
100
AcDbEntity
  8
Layer_1
 62
7
100
AcDbSpline
 70
8
 71
3
 72
8
 73
4
 74
0
 40
0
 40
0
 40
0
 40
0
 40
1
 40
1
 40
1
 40
1
 10
70.605084
 20
100.191319
 30
0.0
 10
70.615187
 20
100.111129
 30
0.0
 10
70.656666
 20
100.041571
 30
0.0
 10
70.729523
 20
99.982644
 30
0.0
  0
SPLINE
  5
39c
100
AcDbEntity
  8
Layer_1
 62
7
100
AcDbSpline
 70
8
 71
3
 72
8
 73
4
 74
0
 40
0
 40
0
 40
0
 40
0
 40
1
 40
1
 40
1
 40
1
 10
70.729523
 20
99.982644
 30
0.0
 10
70.806529
 20
99.920361
 30
0.0
 10
70.886818
 20
99.893637
 30
0.0
 10
70.970389
 20
99.902469
 30
0.0
  0
SPLINE
  5
39d
100
AcDbEntity
  8
Layer_1
 62
7
100
AcDbSpline
 70
8
 71
3
 72
8
 73
4
 74
0
 40
0
 40
0
 40
0
 40
0
 40
1
 40
1
 40
1
 40
1
 10
70.970389
 20
99.902469
 30
0.0
 10
71.053962
 20
99.911311
 30
0.0
 10
71.129102
 20
99.956352
 30
0.0
 10
71.195809
 20
100.037616
 30
0.0
  0
LWPOLYLINE
  5
39e
100
AcDbEntity
  8
Layer_1
 62
7
100
AcDbPolyline
 90
3
 70
0
 10
71.144581
 20
101.337163
 30
0.0
 10
71.268906
 20
101.490877
 30
0.0
 10
72.129879
 20
100.794509
 30
0.0
  0
SPLINE
  5
39f
100
AcDbEntity
  8
Layer_1
 62
7
100
AcDbSpline
 70
8
 71
3
 72
8
 73
4
 74
0
 40
0
 40
0
 40
0
 40
0
 40
1
 40
1
 40
1
 40
1
 10
71.346530
 20
99.887786
 30
0.0
 10
71.236104
 20
99.774273
 30
0.0
 10
71.118174
 20
99.715087
 30
0.0
 10
70.992740
 20
99.710222
 30
0.0
  0
SPLINE
  5
3a0
100
AcDbEntity
  8
Layer_1
 62
7
100
AcDbSpline
 70
8
 71
3
 72
8
 73
4
 74
0
 40
0
 40
0
 40
0
 40
0
 40
1
 40
1
 40
1
 40
1
 10
70.992740
 20
99.710222
 30
0.0
 10
70.867309
 20
99.705360
 30
0.0
 10
70.742693
 20
99.752997
 30
0.0
 10
70.618891
 20
99.853129
 30
0.0
  0
SPLINE
  5
3a1
100
AcDbEntity
  8
Layer_1
 62
7
100
AcDbSpline
 70
8
 71
3
 72
8
 73
4
 74
0
 40
0
 40
0
 40
0
 40
0
 40
1
 40
1
 40
1
 40
1
 10
70.618891
 20
99.853129
 30
0.0
 10
70.493908
 20
99.954219
 30
0.0
 10
70.423014
 20
100.068878
 30
0.0
 10
70.406208
 20
100.197110
 30
0.0
  0
SPLINE
  5
3a2
100
AcDbEntity
  8
Layer_1
 62
7
100
AcDbSpline
 70
8
 71
3
 72
8
 73
4
 74
0
 40
0
 40
0
 40
0
 40
0
 40
1
 40
1
 40
1
 40
1
 10
70.406208
 20
100.197110
 30
0.0
 10
70.389407
 20
100.325346
 30
0.0
 10
70.422446
 20
100.440698
 30
0.0
 10
70.505327
 20
100.543176
 30
0.0
  0
SPLINE
  5
3a3
100
AcDbEntity
  8
Layer_1
 62
7
100
AcDbSpline
 70
8
 71
3
 72
8
 73
4
 74
0
 40
0
 40
0
 40
0
 40
0
 40
1
 40
1
 40
1
 40
1
 10
70.505327
 20
100.543176
 30
0.0
 10
70.547489
 20
100.595302
 30
0.0
 10
70.599593
 20
100.637915
 30
0.0
 10
70.661639
 20
100.671016
 30
0.0
  0
SPLINE
  5
3a4
100
AcDbEntity
  8
Layer_1
 62
7
100
AcDbSpline
 70
8
 71
3
 72
8
 73
4
 74
0
 40
0
 40
0
 40
0
 40
0
 40
1
 40
1
 40
1
 40
1
 10
70.661639
 20
100.671016
 30
0.0
 10
70.723688
 20
100.704118
 30
0.0
 10
70.801960
 20
100.728507
 30
0.0
 10
70.896454
 20
100.744183
 30
0.0
  0
SPLINE
  5
3a5
100
AcDbEntity
  8
Layer_1
 62
7
100
AcDbSpline
 70
8
 71
3
 72
8
 73
4
 74
0
 40
0
 40
0
 40
0
 40
0
 40
1
 40
1
 40
1
 40
1
 10
70.896454
 20
100.744183
 30
0.0
 10
70.990951
 20
100.759849
 30
0.0
 10
71.134942
 20
100.769801
 30
0.0
 10
71.328428
 20
100.773997
 30
0.0
  0
SPLINE
  5
3a6
100
AcDbEntity
  8
Layer_1
 62
7
100
AcDbSpline
 70
8
 71
3
 72
8
 73
4
 74
0
 40
0
 40
0
 40
0
 40
0
 40
1
 40
1
 40
1
 40
1
 10
71.328428
 20
100.773997
 30
0.0
 10
71.489546
 20
100.776954
 30
0.0
 10
71.595346
 20
100.781760
 30
0.0
 10
71.645829
 20
100.788441
 30
0.0
  0
SPLINE
  5
3a7
100
AcDbEntity
  8
Layer_1
 62
7
100
AcDbSpline
 70
8
 71
3
 72
8
 73
4
 74
0
 40
0
 40
0
 40
0
 40
0
 40
1
 40
1
 40
1
 40
1
 10
71.645829
 20
100.788441
 30
0.0
 10
71.696314
 20
100.795123
 30
0.0
 10
71.742179
 20
100.805814
 30
0.0
 10
71.783424
 20
100.820454
 30
0.0
  0
LWPOLYLINE
  5
3a8
100
AcDbEntity
  8
Layer_1
 62
7
100
AcDbPolyline
 90
2
 70
0
 10
71.195809
 20
100.037616
 30
0.0
 10
71.346530
 20
99.887786
 30
0.0
  0
LWPOLYLINE
  5
3a9
100
AcDbEntity
  8
Layer_1
 62
7
100
AcDbPolyline
 90
2
 70
0
 10
71.783424
 20
100.820454
 30
0.0
 10
71.144581
 20
101.337163
 30
0.0
  0
ENDSEC
  0
SECTION
  2
OBJECTS
  0
DICTIONARY
  5
C
330
0
100
AcDbDictionary
  3
ACAD_GROUP
350
D
  3
ACAD_MLINESTYLE
350
17
  0
DICTIONARY
  5
D
330
C
100
AcDbDictionary
  0
DICTIONARY
  5
1A
330
C
100
AcDbDictionary
  0
DICTIONARY
  5
17
330
C
100
AcDbDictionary
  3
STANDARD
350
18
  0
DICTIONARY
  5
19
330
C
100
AcDbDictionary
  0
ENDSEC
  0
EOF
