999
DXF created by Inkscape
  0
SECTION
  2
HEADER
  9
$ACADVER
  1
AC1014
  9
$HANDSEED
  5
FFFF
  9
$MEASUREMENT
 70
     1
  0
ENDSEC
  0
SECTION
  2
TABLES
  0
TABLE
  2
VPORT
  5
8
330
0
100
AcDbSymbolTable
 70
     4
  0
VPORT
  5
2E
330
8
100
AcDbSymbolTableRecord
100
AcDbViewportTableRecord
  2
*ACTIVE
 70
     0
 10
0.0
 20
0.0
 11
1.0
 21
1.0
 12
210.0
 22
148.5
 13
0.0
 23
0.0
 14
10.0
 24
10.0
 15
10.0
 25
10.0
 16
0.0
 26
0.0
 36
1.0
 17
0.0
 27
0.0
 37
0.0
 40
341.0
 41
1.24
 42
50.0
 43
0.0
 44
0.0
 50
0.0
 51
0.0
 71
     0
 72
   100
 73
     1
 74
     3
 75
     0
 76
     0
 77
     0
 78
     0
  0
ENDTAB
  0
TABLE
  2
LTYPE
  5
5
330
0
100
AcDbSymbolTable
 70
     1
  0
LTYPE
  5
14
330
5
100
AcDbSymbolTableRecord
100
AcDbLinetypeTableRecord
  2
BYBLOCK
 70
     0
  3

 72
    65
 73
     0
 40
0.0
  0
LTYPE
  5
15
330
5
100
AcDbSymbolTableRecord
100
AcDbLinetypeTableRecord
  2
BYLAYER
 70
     0
  3

 72
    65
 73
     0
 40
0.0
  0
LTYPE
  5
16
330
5
100
AcDbSymbolTableRecord
100
AcDbLinetypeTableRecord
  2
CONTINUOUS
 70
     0
  3
Solid line
 72
    65
 73
     0
 40
0.0
  0
ENDTAB
  0
TABLE
  2
LAYER
  5
2
100
AcDbSymbolTable
 70
2
  0
LAYER
  5
50
100
AcDbSymbolTableRecord
100
AcDbLayerTableRecord
  2
0
 70
0
  6
CONTINUOUS
  0
LAYER
  5
51
100
AcDbSymbolTableRecord
100
AcDbLayerTableRecord
  2
Layer_1
 70
0
  6
CONTINUOUS
  0
ENDTAB
  0
TABLE
  2
STYLE
  5
3
330
0
100
AcDbSymbolTable
 70
     1
  0
STYLE
  5
11
330
3
100
AcDbSymbolTableRecord
100
AcDbTextStyleTableRecord
  2
STANDARD
 70
     0
 40
0.0
 41
1.0
 50
0.0
 71
     0
 42
2.5
  3
txt
  4

  0
ENDTAB
  0
TABLE
  2
VIEW
  5
6
330
0
100
AcDbSymbolTable
 70
     0
  0
ENDTAB
  0
TABLE
  2
UCS
  5
7
330
0
100
AcDbSymbolTable
 70
     0
  0
ENDTAB
  0
TABLE
  2
APPID
  5
9
330
0
100
AcDbSymbolTable
 70
     2
  0
APPID
  5
12
330
9
100
AcDbSymbolTableRecord
100
AcDbRegAppTableRecord
  2
ACAD
 70
     0
  0
ENDTAB
  0
TABLE
  2
DIMSTYLE
  5
A
330
0
100
AcDbSymbolTable
 70
     1
  0
DIMSTYLE
105
27
330
A
100
AcDbSymbolTableRecord
100
AcDbDimStyleTableRecord
  2
ISO-25
 70
     0
  3

  4

  5

  6

  7

 40
1.0
 41
2.5
 42
0.625
 43
3.75
 44
1.25
 45
0.0
 46
0.0
 47
0.0
 48
0.0
140
2.5
141
2.5
142
0.0
143
0.03937007874016
144
1.0
145
0.0
146
1.0
147
0.625
 71
     0
 72
     0
 73
     0
 74
     0
 75
     0
 76
     0
 77
     1
 78
     8
170
     0
171
     3
172
     1
173
     0
174
     0
175
     0
176
     0
177
     0
178
     0
270
     2
271
     2
272
     2
273
     2
274
     3
340
11
275
     0
280
     0
281
     0
282
     0
283
     0
284
     8
285
     0
286
     0
287
     3
288
     0
  0
ENDTAB
  0
TABLE
  2
BLOCK_RECORD
  5
1
330
0
100
AcDbSymbolTable
 70
     1
  0
BLOCK_RECORD
  5
1F
330
1
100
AcDbSymbolTableRecord
100
AcDbBlockTableRecord
  2
*MODEL_SPACE
  0
BLOCK_RECORD
  5
1B
330
1
100
AcDbSymbolTableRecord
100
AcDbBlockTableRecord
  2
*PAPER_SPACE
  0
ENDTAB
  0
ENDSEC
  0
SECTION
  2
BLOCKS
  0
BLOCK
  5
20
330
1F
100
AcDbEntity
  8
0
100
AcDbBlockBegin
  2
*MODEL_SPACE
 70
     0
 10
0.0
 20
0.0
 30
0.0
  3
*MODEL_SPACE
  1

  0
ENDBLK
  5
21
330
1F
100
AcDbEntity
  8
0
100
AcDbBlockEnd
  0
BLOCK
  5
1C
330
1B
100
AcDbEntity
 67
     1
  8
0
100
AcDbBlockBegin
  2
*PAPER_SPACE
  1

  0
ENDBLK
  5
1D
330
1B
100
AcDbEntity
 67
     1
  8
0
100
AcDbBlockEnd
  0
ENDSEC
  0
SECTION
  2
ENTITIES
  0
LWPOLYLINE
  5
100
100
AcDbEntity
  8
Layer_1
 62
7
100
AcDbPolyline
 90
6
 70
0
 10
104.962788
 20
122.917576
 30
0.0
 10
104.962788
 20
102.586646
 30
0.0
 10
84.631858
 20
102.586646
 30
0.0
 10
84.631858
 20
122.917576
 30
0.0
 10
104.962788
 20
122.917576
 30
0.0
 10
104.962788
 20
122.917576
 30
0.0
  0
LWPOLYLINE
  5
101
100
AcDbEntity
  8
Layer_1
 62
7
100
AcDbPolyline
 90
6
 70
0
 10
99.386855
 20
121.744695
 30
0.0
 10
99.386855
 20
103.759527
 30
0.0
 10
90.207791
 20
103.759527
 30
0.0
 10
90.207791
 20
121.744695
 30
0.0
 10
99.386855
 20
121.744695
 30
0.0
 10
99.386855
 20
121.744695
 30
0.0
  0
LWPOLYLINE
  5
102
100
AcDbEntity
  8
Layer_1
 62
7
100
AcDbPolyline
 90
6
 70
0
 10
90.906668
 20
121.045818
 30
0.0
 10
90.906668
 20
104.458404
 30
0.0
 10
98.687872
 20
104.458404
 30
0.0
 10
98.687872
 20
121.045818
 30
0.0
 10
90.906668
 20
121.045818
 30
0.0
 10
90.906668
 20
121.045818
 30
0.0
  0
LWPOLYLINE
  5
103
100
AcDbEntity
  8
Layer_1
 62
7
100
AcDbPolyline
 90
10
 70
0
 10
98.198679
 20
115.664274
 30
0.0
 10
92.033774
 20
117.085339
 30
0.0
 10
91.535721
 20
116.922274
 30
0.0
 10
91.535721
 20
118.413268
 30
0.0
 10
98.198679
 20
120.230496
 30
0.0
 10
98.199734
 20
118.781692
 30
0.0
 10
93.240091
 20
117.404928
 30
0.0
 10
98.196886
 20
116.262317
 30
0.0
 10
98.198679
 20
115.664274
 30
0.0
 10
98.198679
 20
115.664274
 30
0.0
  0
LWPOLYLINE
  5
104
100
AcDbEntity
  8
Layer_1
 62
7
100
AcDbPolyline
 90
13
 70
0
 10
94.005206
 20
111.937106
 30
0.0
 10
93.446189
 20
112.449292
 30
0.0
 10
93.446189
 20
113.660778
 30
0.0
 10
91.535721
 20
113.660778
 30
0.0
 10
91.535721
 20
115.058532
 30
0.0
 10
93.446189
 20
115.058532
 30
0.0
 10
93.446189
 20
115.588122
 30
0.0
 10
94.005206
 20
115.058532
 30
0.0
 10
98.198679
 20
115.058532
 30
0.0
 10
98.198679
 20
113.660778
 30
0.0
 10
94.005206
 20
113.660778
 30
0.0
 10
94.005206
 20
111.937106
 30
0.0
 10
94.005206
 20
111.937106
 30
0.0
  0
SPLINE
  5
105
100
AcDbEntity
  8
Layer_1
 62
7
100
AcDbSpline
 70
8
 71
3
 72
8
 73
4
 74
0
 40
0
 40
0
 40
0
 40
0
 40
1
 40
1
 40
1
 40
1
 10
93.402100
 20
105.064147
 30
0.0
 10
92.810491
 20
105.064147
 30
0.0
 10
92.351464
 20
105.288387
 30
0.0
 10
92.025336
 20
105.736128
 30
0.0
  0
SPLINE
  5
106
100
AcDbEntity
  8
Layer_1
 62
7
100
AcDbSpline
 70
8
 71
3
 72
8
 73
4
 74
0
 40
0
 40
0
 40
0
 40
0
 40
1
 40
1
 40
1
 40
1
 10
92.025336
 20
105.736128
 30
0.0
 10
91.698891
 20
106.184185
 30
0.0
 10
91.535721
 20
106.647642
 30
0.0
 10
91.535721
 20
107.125971
 30
0.0
  0
LWPOLYLINE
  5
107
100
AcDbEntity
  8
Layer_1
 62
7
100
AcDbPolyline
 90
6
 70
0
 10
98.198679
 20
111.936684
 30
0.0
 10
98.198679
 20
110.538930
 30
0.0
 10
91.535721
 20
110.538930
 30
0.0
 10
91.535721
 20
111.936684
 30
0.0
 10
98.198679
 20
111.936684
 30
0.0
 10
98.198679
 20
111.936684
 30
0.0
  0
SPLINE
  5
108
100
AcDbEntity
  8
Layer_1
 62
7
100
AcDbSpline
 70
8
 71
3
 72
8
 73
4
 74
0
 40
0
 40
0
 40
0
 40
0
 40
1
 40
1
 40
1
 40
1
 10
92.094844
 20
107.619910
 30
0.0
 10
92.094844
 20
107.149281
 30
0.0
 10
92.184075
 20
106.819039
 30
0.0
 10
92.362434
 20
106.629817
 30
0.0
  0
SPLINE
  5
109
100
AcDbEntity
  8
Layer_1
 62
7
100
AcDbSpline
 70
8
 71
3
 72
8
 73
4
 74
0
 40
0
 40
0
 40
0
 40
0
 40
1
 40
1
 40
1
 40
1
 10
92.362434
 20
106.629817
 30
0.0
 10
92.540792
 20
106.440489
 30
0.0
 10
92.742460
 20
106.345457
 30
0.0
 10
92.966700
 20
106.345457
 30
0.0
  0
SPLINE
  5
10a
100
AcDbEntity
  8
Layer_1
 62
7
100
AcDbSpline
 70
8
 71
3
 72
8
 73
4
 74
0
 40
0
 40
0
 40
0
 40
0
 40
1
 40
1
 40
1
 40
1
 10
92.966700
 20
106.345457
 30
0.0
 10
93.211296
 20
106.345457
 30
0.0
 10
93.387439
 20
106.376466
 30
0.0
 10
93.494496
 20
106.437536
 30
0.0
  0
SPLINE
  5
10b
100
AcDbEntity
  8
Layer_1
 62
7
100
AcDbSpline
 70
8
 71
3
 72
8
 73
4
 74
0
 40
0
 40
0
 40
0
 40
0
 40
1
 40
1
 40
1
 40
1
 10
93.494496
 20
106.437536
 30
0.0
 10
93.601553
 20
106.499134
 30
0.0
 10
93.716627
 20
106.662936
 30
0.0
 10
93.838872
 20
106.928628
 30
0.0
  0
LWPOLYLINE
  5
10c
100
AcDbEntity
  8
Layer_1
 62
7
100
AcDbPolyline
 90
4
 70
0
 10
91.535721
 20
107.125971
 30
0.0
 10
91.535721
 20
109.310041
 30
0.0
 10
92.094844
 20
109.508440
 30
0.0
 10
92.094844
 20
107.619910
 30
0.0
  0
SPLINE
  5
10d
100
AcDbEntity
  8
Layer_1
 62
7
100
AcDbSpline
 70
8
 71
3
 72
8
 73
4
 74
0
 40
0
 40
0
 40
0
 40
0
 40
1
 40
1
 40
1
 40
1
 10
94.420250
 20
108.677719
 30
0.0
 10
94.542496
 20
109.015555
 30
0.0
 10
94.743847
 20
109.317319
 30
0.0
 10
95.024094
 20
109.583010
 30
0.0
  0
SPLINE
  5
10e
100
AcDbEntity
  8
Layer_1
 62
7
100
AcDbSpline
 70
8
 71
3
 72
8
 73
4
 74
0
 40
0
 40
0
 40
0
 40
0
 40
1
 40
1
 40
1
 40
1
 10
95.024094
 20
109.583010
 30
0.0
 10
95.304447
 20
109.849124
 30
0.0
 10
95.730354
 20
109.982022
 30
0.0
 10
96.301818
 20
109.982022
 30
0.0
  0
SPLINE
  5
10f
100
AcDbEntity
  8
Layer_1
 62
7
100
AcDbSpline
 70
8
 71
3
 72
8
 73
4
 74
0
 40
0
 40
0
 40
0
 40
0
 40
1
 40
1
 40
1
 40
1
 10
96.301818
 20
109.982022
 30
0.0
 10
96.903130
 20
109.982022
 30
0.0
 10
97.369752
 20
109.749450
 30
0.0
 10
97.701470
 20
109.284200
 30
0.0
  0
SPLINE
  5
110
100
AcDbEntity
  8
Layer_1
 62
7
100
AcDbSpline
 70
8
 71
3
 72
8
 73
4
 74
0
 40
0
 40
0
 40
0
 40
0
 40
1
 40
1
 40
1
 40
1
 10
97.701470
 20
109.284200
 30
0.0
 10
98.032662
 20
108.818950
 30
0.0
 10
98.198679
 20
108.279551
 30
0.0
 10
98.198679
 20
107.665792
 30
0.0
  0
LWPOLYLINE
  5
111
100
AcDbEntity
  8
Layer_1
 62
7
100
AcDbPolyline
 90
2
 70
0
 10
93.838872
 20
106.928628
 30
0.0
 10
94.420250
 20
108.677719
 30
0.0
  0
SPLINE
  5
112
100
AcDbEntity
  8
Layer_1
 62
7
100
AcDbSpline
 70
8
 71
3
 72
8
 73
4
 74
0
 40
0
 40
0
 40
0
 40
0
 40
1
 40
1
 40
1
 40
1
 10
97.639557
 20
106.778642
 30
0.0
 10
97.639557
 20
107.280703
 30
0.0
 10
97.562771
 20
107.715998
 30
0.0
 10
97.409832
 20
108.084739
 30
0.0
  0
SPLINE
  5
113
100
AcDbEntity
  8
Layer_1
 62
7
100
AcDbSpline
 70
8
 71
3
 72
8
 73
4
 74
0
 40
0
 40
0
 40
0
 40
0
 40
1
 40
1
 40
1
 40
1
 10
97.409832
 20
108.084739
 30
0.0
 10
97.256999
 20
108.453479
 30
0.0
 10
96.986561
 20
108.637744
 30
0.0
 10
96.599152
 20
108.637744
 30
0.0
  0
SPLINE
  5
114
100
AcDbEntity
  8
Layer_1
 62
7
100
AcDbSpline
 70
8
 71
3
 72
8
 73
4
 74
0
 40
0
 40
0
 40
0
 40
0
 40
1
 40
1
 40
1
 40
1
 10
96.599152
 20
108.637744
 30
0.0
 10
96.231888
 20
108.637744
 30
0.0
 10
95.959235
 20
108.449471
 30
0.0
 10
95.780877
 20
108.072714
 30
0.0
  0
SPLINE
  5
115
100
AcDbEntity
  8
Layer_1
 62
7
100
AcDbSpline
 70
8
 71
3
 72
8
 73
4
 74
0
 40
0
 40
0
 40
0
 40
0
 40
1
 40
1
 40
1
 40
1
 10
95.780877
 20
108.072714
 30
0.0
 10
95.602519
 20
107.696063
 30
0.0
 10
95.459495
 20
107.265726
 30
0.0
 10
95.352438
 20
106.782334
 30
0.0
  0
SPLINE
  5
116
100
AcDbEntity
  8
Layer_1
 62
7
100
AcDbSpline
 70
8
 71
3
 72
8
 73
4
 74
0
 40
0
 40
0
 40
0
 40
0
 40
1
 40
1
 40
1
 40
1
 10
95.352438
 20
106.782334
 30
0.0
 10
95.245381
 20
106.298942
 30
0.0
 10
95.041181
 20
105.891598
 30
0.0
 10
94.740577
 20
105.560617
 30
0.0
  0
SPLINE
  5
117
100
AcDbEntity
  8
Layer_1
 62
7
100
AcDbSpline
 70
8
 71
3
 72
8
 73
4
 74
0
 40
0
 40
0
 40
0
 40
0
 40
1
 40
1
 40
1
 40
1
 10
94.740577
 20
105.560617
 30
0.0
 10
94.439868
 20
105.229848
 30
0.0
 10
93.993498
 20
105.064147
 30
0.0
 10
93.402100
 20
105.064147
 30
0.0
  0
LWPOLYLINE
  5
118
100
AcDbEntity
  8
Layer_1
 62
7
100
AcDbPolyline
 90
4
 70
0
 10
98.198679
 20
107.665792
 30
0.0
 10
98.198679
 20
105.180697
 30
0.0
 10
97.639557
 20
105.334268
 30
0.0
 10
97.639557
 20
106.778642
 30
0.0
  0
LWPOLYLINE
  5
119
100
AcDbEntity
  8
Layer_1
 62
7
100
AcDbPolyline
 90
6
 70
0
 10
61.622920
 20
102.357424
 30
0.0
 10
61.622920
 20
122.688354
 30
0.0
 10
81.953851
 20
122.688354
 30
0.0
 10
81.953851
 20
102.357424
 30
0.0
 10
61.622920
 20
102.357424
 30
0.0
 10
61.622920
 20
102.357424
 30
0.0
  0
LWPOLYLINE
  5
11a
100
AcDbEntity
  8
Layer_1
 62
7
100
AcDbPolyline
 90
6
 70
0
 10
67.198854
 20
103.530305
 30
0.0
 10
67.198854
 20
121.515473
 30
0.0
 10
76.377917
 20
121.515473
 30
0.0
 10
76.377917
 20
103.530305
 30
0.0
 10
67.198854
 20
103.530305
 30
0.0
 10
67.198854
 20
103.530305
 30
0.0
  0
LWPOLYLINE
  5
11b
100
AcDbEntity
  8
Layer_1
 62
7
100
AcDbPolyline
 90
6
 70
0
 10
75.679040
 20
104.229182
 30
0.0
 10
75.679040
 20
120.816596
 30
0.0
 10
67.897836
 20
120.816596
 30
0.0
 10
67.897836
 20
104.229182
 30
0.0
 10
75.679040
 20
104.229182
 30
0.0
 10
75.679040
 20
104.229182
 30
0.0
  0
LWPOLYLINE
  5
11c
100
AcDbEntity
  8
Layer_1
 62
7
100
AcDbPolyline
 90
10
 70
0
 10
68.387029
 20
109.610725
 30
0.0
 10
74.551935
 20
108.189661
 30
0.0
 10
75.049987
 20
108.352726
 30
0.0
 10
75.049987
 20
106.861732
 30
0.0
 10
68.387029
 20
105.044504
 30
0.0
 10
68.385974
 20
106.493308
 30
0.0
 10
73.345618
 20
107.870072
 30
0.0
 10
68.388822
 20
109.012682
 30
0.0
 10
68.387029
 20
109.610725
 30
0.0
 10
68.387029
 20
109.610725
 30
0.0
  0
LWPOLYLINE
  5
11d
100
AcDbEntity
  8
Layer_1
 62
7
100
AcDbPolyline
 90
13
 70
0
 10
72.580502
 20
113.337894
 30
0.0
 10
73.139520
 20
112.825708
 30
0.0
 10
73.139520
 20
111.614222
 30
0.0
 10
75.049987
 20
111.614222
 30
0.0
 10
75.049987
 20
110.216468
 30
0.0
 10
73.139520
 20
110.216468
 30
0.0
 10
73.139520
 20
109.686878
 30
0.0
 10
72.580502
 20
110.216468
 30
0.0
 10
68.387029
 20
110.216468
 30
0.0
 10
68.387029
 20
111.614222
 30
0.0
 10
72.580502
 20
111.614222
 30
0.0
 10
72.580502
 20
113.337894
 30
0.0
 10
72.580502
 20
113.337894
 30
0.0
  0
SPLINE
  5
11e
100
AcDbEntity
  8
Layer_1
 62
7
100
AcDbSpline
 70
8
 71
3
 72
8
 73
4
 74
0
 40
0
 40
0
 40
0
 40
0
 40
1
 40
1
 40
1
 40
1
 10
73.183608
 20
120.210853
 30
0.0
 10
73.775217
 20
120.210853
 30
0.0
 10
74.234244
 20
119.986613
 30
0.0
 10
74.560373
 20
119.538872
 30
0.0
  0
SPLINE
  5
11f
100
AcDbEntity
  8
Layer_1
 62
7
100
AcDbSpline
 70
8
 71
3
 72
8
 73
4
 74
0
 40
0
 40
0
 40
0
 40
0
 40
1
 40
1
 40
1
 40
1
 10
74.560373
 20
119.538872
 30
0.0
 10
74.886818
 20
119.090814
 30
0.0
 10
75.049987
 20
118.627358
 30
0.0
 10
75.049987
 20
118.149029
 30
0.0
  0
LWPOLYLINE
  5
120
100
AcDbEntity
  8
Layer_1
 62
7
100
AcDbPolyline
 90
6
 70
0
 10
68.387029
 20
113.338316
 30
0.0
 10
68.387029
 20
114.736070
 30
0.0
 10
75.049987
 20
114.736070
 30
0.0
 10
75.049987
 20
113.338316
 30
0.0
 10
68.387029
 20
113.338316
 30
0.0
 10
68.387029
 20
113.338316
 30
0.0
  0
SPLINE
  5
121
100
AcDbEntity
  8
Layer_1
 62
7
100
AcDbSpline
 70
8
 71
3
 72
8
 73
4
 74
0
 40
0
 40
0
 40
0
 40
0
 40
1
 40
1
 40
1
 40
1
 10
74.490865
 20
117.655089
 30
0.0
 10
74.490865
 20
118.125719
 30
0.0
 10
74.401633
 20
118.455961
 30
0.0
 10
74.223275
 20
118.645183
 30
0.0
  0
SPLINE
  5
122
100
AcDbEntity
  8
Layer_1
 62
7
100
AcDbSpline
 70
8
 71
3
 72
8
 73
4
 74
0
 40
0
 40
0
 40
0
 40
0
 40
1
 40
1
 40
1
 40
1
 10
74.223275
 20
118.645183
 30
0.0
 10
74.044917
 20
118.834510
 30
0.0
 10
73.843248
 20
118.929543
 30
0.0
 10
73.619009
 20
118.929543
 30
0.0
  0
SPLINE
  5
123
100
AcDbEntity
  8
Layer_1
 62
7
100
AcDbSpline
 70
8
 71
3
 72
8
 73
4
 74
0
 40
0
 40
0
 40
0
 40
0
 40
1
 40
1
 40
1
 40
1
 10
73.619009
 20
118.929543
 30
0.0
 10
73.374412
 20
118.929543
 30
0.0
 10
73.198269
 20
118.898534
 30
0.0
 10
73.091212
 20
118.837464
 30
0.0
  0
SPLINE
  5
124
100
AcDbEntity
  8
Layer_1
 62
7
100
AcDbSpline
 70
8
 71
3
 72
8
 73
4
 74
0
 40
0
 40
0
 40
0
 40
0
 40
1
 40
1
 40
1
 40
1
 10
73.091212
 20
118.837464
 30
0.0
 10
72.984155
 20
118.775866
 30
0.0
 10
72.869082
 20
118.612064
 30
0.0
 10
72.746836
 20
118.346372
 30
0.0
  0
LWPOLYLINE
  5
125
100
AcDbEntity
  8
Layer_1
 62
7
100
AcDbPolyline
 90
4
 70
0
 10
75.049987
 20
118.149029
 30
0.0
 10
75.049987
 20
115.964959
 30
0.0
 10
74.490865
 20
115.766560
 30
0.0
 10
74.490865
 20
117.655089
 30
0.0
  0
SPLINE
  5
126
100
AcDbEntity
  8
Layer_1
 62
7
100
AcDbSpline
 70
8
 71
3
 72
8
 73
4
 74
0
 40
0
 40
0
 40
0
 40
0
 40
1
 40
1
 40
1
 40
1
 10
72.165458
 20
116.597281
 30
0.0
 10
72.043213
 20
116.259445
 30
0.0
 10
71.841861
 20
115.957681
 30
0.0
 10
71.561614
 20
115.691990
 30
0.0
  0
SPLINE
  5
127
100
AcDbEntity
  8
Layer_1
 62
7
100
AcDbSpline
 70
8
 71
3
 72
8
 73
4
 74
0
 40
0
 40
0
 40
0
 40
0
 40
1
 40
1
 40
1
 40
1
 10
71.561614
 20
115.691990
 30
0.0
 10
71.281262
 20
115.425876
 30
0.0
 10
70.855354
 20
115.292978
 30
0.0
 10
70.283891
 20
115.292978
 30
0.0
  0
SPLINE
  5
128
100
AcDbEntity
  8
Layer_1
 62
7
100
AcDbSpline
 70
8
 71
3
 72
8
 73
4
 74
0
 40
0
 40
0
 40
0
 40
0
 40
1
 40
1
 40
1
 40
1
 10
70.283891
 20
115.292978
 30
0.0
 10
69.682578
 20
115.292978
 30
0.0
 10
69.215957
 20
115.525550
 30
0.0
 10
68.884238
 20
115.990800
 30
0.0
  0
SPLINE
  5
129
100
AcDbEntity
  8
Layer_1
 62
7
100
AcDbSpline
 70
8
 71
3
 72
8
 73
4
 74
0
 40
0
 40
0
 40
0
 40
0
 40
1
 40
1
 40
1
 40
1
 10
68.884238
 20
115.990800
 30
0.0
 10
68.553047
 20
116.456050
 30
0.0
 10
68.387029
 20
116.995449
 30
0.0
 10
68.387029
 20
117.609208
 30
0.0
  0
LWPOLYLINE
  5
12a
100
AcDbEntity
  8
Layer_1
 62
7
100
AcDbPolyline
 90
2
 70
0
 10
72.746836
 20
118.346372
 30
0.0
 10
72.165458
 20
116.597281
 30
0.0
  0
SPLINE
  5
12b
100
AcDbEntity
  8
Layer_1
 62
7
100
AcDbSpline
 70
8
 71
3
 72
8
 73
4
 74
0
 40
0
 40
0
 40
0
 40
0
 40
1
 40
1
 40
1
 40
1
 10
68.946152
 20
118.496358
 30
0.0
 10
68.946152
 20
117.994297
 30
0.0
 10
69.022937
 20
117.559002
 30
0.0
 10
69.175876
 20
117.190261
 30
0.0
  0
SPLINE
  5
12c
100
AcDbEntity
  8
Layer_1
 62
7
100
AcDbSpline
 70
8
 71
3
 72
8
 73
4
 74
0
 40
0
 40
0
 40
0
 40
0
 40
1
 40
1
 40
1
 40
1
 10
69.175876
 20
117.190261
 30
0.0
 10
69.328709
 20
116.821521
 30
0.0
 10
69.599147
 20
116.637256
 30
0.0
 10
69.986557
 20
116.637256
 30
0.0
  0
SPLINE
  5
12d
100
AcDbEntity
  8
Layer_1
 62
7
100
AcDbSpline
 70
8
 71
3
 72
8
 73
4
 74
0
 40
0
 40
0
 40
0
 40
0
 40
1
 40
1
 40
1
 40
1
 10
69.986557
 20
116.637256
 30
0.0
 10
70.353820
 20
116.637256
 30
0.0
 10
70.626473
 20
116.825529
 30
0.0
 10
70.804831
 20
117.202285
 30
0.0
  0
SPLINE
  5
12e
100
AcDbEntity
  8
Layer_1
 62
7
100
AcDbSpline
 70
8
 71
3
 72
8
 73
4
 74
0
 40
0
 40
0
 40
0
 40
0
 40
1
 40
1
 40
1
 40
1
 10
70.804831
 20
117.202285
 30
0.0
 10
70.983190
 20
117.578936
 30
0.0
 10
71.126214
 20
118.009274
 30
0.0
 10
71.233271
 20
118.492666
 30
0.0
  0
SPLINE
  5
12f
100
AcDbEntity
  8
Layer_1
 62
7
100
AcDbSpline
 70
8
 71
3
 72
8
 73
4
 74
0
 40
0
 40
0
 40
0
 40
0
 40
1
 40
1
 40
1
 40
1
 10
71.233271
 20
118.492666
 30
0.0
 10
71.340328
 20
118.976058
 30
0.0
 10
71.544527
 20
119.383402
 30
0.0
 10
71.845131
 20
119.714382
 30
0.0
  0
SPLINE
  5
130
100
AcDbEntity
  8
Layer_1
 62
7
100
AcDbSpline
 70
8
 71
3
 72
8
 73
4
 74
0
 40
0
 40
0
 40
0
 40
0
 40
1
 40
1
 40
1
 40
1
 10
71.845131
 20
119.714382
 30
0.0
 10
72.145840
 20
120.045152
 30
0.0
 10
72.592210
 20
120.210853
 30
0.0
 10
73.183608
 20
120.210853
 30
0.0
  0
SPLINE
  5
131
100
AcDbEntity
  8
Layer_1
 62
1
100
AcDbSpline
 70
8
 71
3
 72
8
 73
4
 74
0
 40
0
 40
0
 40
0
 40
0
 40
1
 40
1
 40
1
 40
1
 10
103.163082
 20
114.462965
 30
0.0
 10
103.163082
 20
103.430426
 30
0.0
 10
94.219442
 20
94.486786
 30
0.0
 10
83.186902
 20
94.486786
 30
0.0
  0
SPLINE
  5
132
100
AcDbEntity
  8
Layer_1
 62
1
100
AcDbSpline
 70
8
 71
3
 72
8
 73
4
 74
0
 40
0
 40
0
 40
0
 40
0
 40
1
 40
1
 40
1
 40
1
 10
83.186902
 20
94.486786
 30
0.0
 10
72.154364
 20
94.486786
 30
0.0
 10
63.210723
 20
103.430426
 30
0.0
 10
63.210723
 20
114.462965
 30
0.0
  0
SPLINE
  5
133
100
AcDbEntity
  8
Layer_1
 62
1
100
AcDbSpline
 70
8
 71
3
 72
8
 73
4
 74
0
 40
0
 40
0
 40
0
 40
0
 40
1
 40
1
 40
1
 40
1
 10
63.210723
 20
114.462965
 30
0.0
 10
63.210723
 20
125.495505
 30
0.0
 10
72.154364
 20
134.439145
 30
0.0
 10
83.186902
 20
134.439145
 30
0.0
  0
SPLINE
  5
134
100
AcDbEntity
  8
Layer_1
 62
1
100
AcDbSpline
 70
8
 71
3
 72
8
 73
4
 74
0
 40
0
 40
0
 40
0
 40
0
 40
1
 40
1
 40
1
 40
1
 10
83.186902
 20
134.439145
 30
0.0
 10
94.219442
 20
134.439145
 30
0.0
 10
103.163082
 20
125.495505
 30
0.0
 10
103.163082
 20
114.462965
 30
0.0
  0
LWPOLYLINE
  5
135
100
AcDbEntity
  8
Layer_1
 62
7
100
AcDbPolyline
 90
4
 70
0
 10
68.387029
 20
117.609208
 30
0.0
 10
68.387029
 20
120.094303
 30
0.0
 10
68.946152
 20
119.940732
 30
0.0
 10
68.946152
 20
118.496358
 30
0.0
  0
SPLINE
  5
136
100
AcDbEntity
  8
Layer_1
 62
7
100
AcDbSpline
 70
8
 71
3
 72
8
 73
4
 74
0
 40
0
 40
0
 40
0
 40
0
 40
1
 40
1
 40
1
 40
1
 10
89.391335
 20
115.802089
 30
0.0
 10
89.085652
 20
116.429957
 30
0.0
 10
88.449763
 20
116.829363
 30
0.0
 10
87.751547
 20
116.832571
 30
0.0
  0
LWPOLYLINE
  5
137
100
AcDbEntity
  8
Layer_1
 62
1
100
AcDbPolyline
 90
2
 70
0
 10
103.163082
 20
114.462965
 30
0.0
 10
103.163082
 20
114.462965
 30
0.0
  0
SPLINE
  5
138
100
AcDbEntity
  8
Layer_1
 62
7
100
AcDbSpline
 70
8
 71
3
 72
8
 73
4
 74
0
 40
0
 40
0
 40
0
 40
0
 40
1
 40
1
 40
1
 40
1
 10
86.913320
 20
119.132307
 30
0.0
 10
87.005439
 20
119.350915
 30
0.0
 10
87.056539
 20
119.591292
 30
0.0
 10
87.056539
 20
119.843585
 30
0.0
  0
SPLINE
  5
139
100
AcDbEntity
  8
Layer_1
 62
7
100
AcDbSpline
 70
8
 71
3
 72
8
 73
4
 74
0
 40
0
 40
0
 40
0
 40
0
 40
1
 40
1
 40
1
 40
1
 10
87.056539
 20
119.843585
 30
0.0
 10
87.056539
 20
120.855964
 30
0.0
 10
86.236415
 20
121.676775
 30
0.0
 10
85.223807
 20
121.676775
 30
0.0
  0
LWPOLYLINE
  5
13a
100
AcDbEntity
  8
Layer_1
 62
7
100
AcDbPolyline
 90
3
 70
0
 10
87.751547
 20
116.832571
 30
0.0
 10
86.033389
 20
116.840132
 30
0.0
 10
86.913320
 20
119.132307
 30
0.0
  0
SPLINE
  5
13b
100
AcDbEntity
  8
Layer_1
 62
7
100
AcDbSpline
 70
8
 71
3
 72
8
 73
4
 74
0
 40
0
 40
0
 40
0
 40
0
 40
1
 40
1
 40
1
 40
1
 10
81.463261
 20
121.676775
 30
0.0
 10
80.693780
 20
121.676775
 30
0.0
 10
80.006104
 20
121.196250
 30
0.0
 10
79.741667
 20
120.473515
 30
0.0
  0
LWPOLYLINE
  5
13c
100
AcDbEntity
  8
Layer_1
 62
7
100
AcDbPolyline
 90
3
 70
0
 10
85.223807
 20
121.676775
 30
0.0
 10
85.222904
 20
121.676775
 30
0.0
 10
81.463261
 20
121.676775
 30
0.0
  0
SPLINE
  5
13d
100
AcDbEntity
  8
Layer_1
 62
7
100
AcDbSpline
 70
8
 71
3
 72
8
 73
4
 74
0
 40
0
 40
0
 40
0
 40
0
 40
1
 40
1
 40
1
 40
1
 10
77.046873
 20
113.108677
 30
0.0
 10
76.841556
 20
112.547946
 30
0.0
 10
76.922445
 20
111.922372
 30
0.0
 10
77.263190
 20
111.432224
 30
0.0
  0
SPLINE
  5
13e
100
AcDbEntity
  8
Layer_1
 62
7
100
AcDbSpline
 70
8
 71
3
 72
8
 73
4
 74
0
 40
0
 40
0
 40
0
 40
0
 40
1
 40
1
 40
1
 40
1
 10
77.263190
 20
111.432224
 30
0.0
 10
77.604163
 20
110.942074
 30
0.0
 10
78.162369
 20
110.648536
 30
0.0
 10
78.759302
 20
110.645557
 30
0.0
  0
LWPOLYLINE
  5
13f
100
AcDbEntity
  8
Layer_1
 62
7
100
AcDbPolyline
 90
2
 70
0
 10
79.741667
 20
120.473515
 30
0.0
 10
77.046873
 20
113.108677
 30
0.0
  0
SPLINE
  5
140
100
AcDbEntity
  8
Layer_1
 62
7
100
AcDbSpline
 70
8
 71
3
 72
8
 73
4
 74
0
 40
0
 40
0
 40
0
 40
0
 40
1
 40
1
 40
1
 40
1
 10
78.413058
 20
105.808911
 30
0.0
 10
78.116310
 20
104.960833
 30
0.0
 10
78.477907
 20
104.022470
 30
0.0
 10
79.267325
 20
103.593043
 30
0.0
  0
SPLINE
  5
141
100
AcDbEntity
  8
Layer_1
 62
7
100
AcDbSpline
 70
8
 71
3
 72
8
 73
4
 74
0
 40
0
 40
0
 40
0
 40
0
 40
1
 40
1
 40
1
 40
1
 10
79.267325
 20
103.593043
 30
0.0
 10
79.544136
 20
103.442492
 30
0.0
 10
79.845008
 20
103.369854
 30
0.0
 10
80.142444
 20
103.369854
 30
0.0
  0
SPLINE
  5
142
100
AcDbEntity
  8
Layer_1
 62
7
100
AcDbSpline
 70
8
 71
3
 72
8
 73
4
 74
0
 40
0
 40
0
 40
0
 40
0
 40
1
 40
1
 40
1
 40
1
 10
80.142444
 20
103.369854
 30
0.0
 10
80.693776
 20
103.369854
 30
0.0
 10
81.234108
 20
103.618480
 30
0.0
 10
81.591809
 20
104.079527
 30
0.0
  0
LWPOLYLINE
  5
143
100
AcDbEntity
  8
Layer_1
 62
7
100
AcDbPolyline
 90
3
 70
0
 10
78.759302
 20
110.645557
 30
0.0
 10
80.103259
 20
110.639139
 30
0.0
 10
78.413058
 20
105.808911
 30
0.0
  0
SPLINE
  5
144
100
AcDbEntity
  8
Layer_1
 62
7
100
AcDbSpline
 70
8
 71
3
 72
8
 73
4
 74
0
 40
0
 40
0
 40
0
 40
0
 40
1
 40
1
 40
1
 40
1
 10
89.191976
 20
113.875643
 30
0.0
 10
89.619797
 20
114.427429
 30
0.0
 10
89.697248
 20
115.174456
 30
0.0
 10
89.391335
 20
115.802094
 30
0.0
  0
LWPOLYLINE
  5
145
100
AcDbEntity
  8
Layer_1
 62
7
100
AcDbPolyline
 90
2
 70
0
 10
81.591809
 20
104.079527
 30
0.0
 10
89.191976
 20
113.875643
 30
0.0
  0
LWPOLYLINE
  5
146
100
AcDbEntity
  8
Layer_1
 62
7
100
AcDbPolyline
 90
2
 70
0
 10
89.391335
 20
115.802094
 30
0.0
 10
89.391335
 20
115.802089
 30
0.0
  0
LWPOLYLINE
  5
147
100
AcDbEntity
  8
Layer_1
 62
7
100
AcDbPolyline
 90
9
 70
0
 10
80.143351
 20
105.203274
 30
0.0
 10
82.683005
 20
112.459726
 30
0.0
 10
78.768458
 20
112.478731
 30
0.0
 10
81.463247
 20
119.843572
 30
0.0
 10
85.222890
 20
119.843572
 30
0.0
 10
83.370452
 20
115.018627
 30
0.0
 10
87.743526
 20
114.999608
 30
0.0
 10
80.143351
 20
105.203271
 30
0.0
 10
80.143351
 20
105.203274
 30
0.0
  0
SPLINE
  5
148
100
AcDbEntity
  8
Layer_1
 62
7
100
AcDbSpline
 70
8
 71
3
 72
8
 73
4
 74
0
 40
0
 40
0
 40
0
 40
0
 40
1
 40
1
 40
1
 40
1
 10
68.818982
 20
123.590225
 30
0.0
 10
68.890822
 20
123.519124
 30
0.0
 10
68.963734
 20
123.471927
 30
0.0
 10
69.037725
 20
123.448637
 30
0.0
  0
SPLINE
  5
149
100
AcDbEntity
  8
Layer_1
 62
7
100
AcDbSpline
 70
8
 71
3
 72
8
 73
4
 74
0
 40
0
 40
0
 40
0
 40
0
 40
1
 40
1
 40
1
 40
1
 10
69.037725
 20
123.448637
 30
0.0
 10
69.111713
 20
123.425343
 30
0.0
 10
69.196756
 20
123.426603
 30
0.0
 10
69.292853
 20
123.452451
 30
0.0
  0
SPLINE
  5
14a
100
AcDbEntity
  8
Layer_1
 62
7
100
AcDbSpline
 70
8
 71
3
 72
8
 73
4
 74
0
 40
0
 40
0
 40
0
 40
0
 40
1
 40
1
 40
1
 40
1
 10
69.292853
 20
123.452451
 30
0.0
 10
69.388949
 20
123.478299
 30
0.0
 10
69.481596
 20
123.526746
 30
0.0
 10
69.570790
 20
123.597839
 30
0.0
  0
SPLINE
  5
14b
100
AcDbEntity
  8
Layer_1
 62
7
100
AcDbSpline
 70
8
 71
3
 72
8
 73
4
 74
0
 40
0
 40
0
 40
0
 40
0
 40
1
 40
1
 40
1
 40
1
 10
69.570790
 20
123.597839
 30
0.0
 10
69.649995
 20
123.660967
 30
0.0
 10
69.710542
 20
123.728478
 30
0.0
 10
69.752426
 20
123.800368
 30
0.0
  0
SPLINE
  5
14c
100
AcDbEntity
  8
Layer_1
 62
7
100
AcDbSpline
 70
8
 71
3
 72
8
 73
4
 74
0
 40
0
 40
0
 40
0
 40
0
 40
1
 40
1
 40
1
 40
1
 10
69.752426
 20
123.800368
 30
0.0
 10
69.794311
 20
123.872255
 30
0.0
 10
69.813709
 20
123.940516
 30
0.0
 10
69.810623
 20
124.005152
 30
0.0
  0
SPLINE
  5
14d
100
AcDbEntity
  8
Layer_1
 62
7
100
AcDbSpline
 70
8
 71
3
 72
8
 73
4
 74
0
 40
0
 40
0
 40
0
 40
0
 40
1
 40
1
 40
1
 40
1
 10
69.810623
 20
124.005152
 30
0.0
 10
69.807558
 20
124.069782
 30
0.0
 10
69.786648
 20
124.126358
 30
0.0
 10
69.747979
 20
124.174883
 30
0.0
  0
SPLINE
  5
14e
100
AcDbEntity
  8
Layer_1
 62
7
100
AcDbSpline
 70
8
 71
3
 72
8
 73
4
 74
0
 40
0
 40
0
 40
0
 40
0
 40
1
 40
1
 40
1
 40
1
 10
69.747979
 20
124.174883
 30
0.0
 10
69.708734
 20
124.224116
 30
0.0
 10
69.660198
 20
124.255737
 30
0.0
 10
69.602366
 20
124.269737
 30
0.0
  0
SPLINE
  5
14f
100
AcDbEntity
  8
Layer_1
 62
7
100
AcDbSpline
 70
8
 71
3
 72
8
 73
4
 74
0
 40
0
 40
0
 40
0
 40
0
 40
1
 40
1
 40
1
 40
1
 10
69.602366
 20
124.269737
 30
0.0
 10
69.544534
 20
124.283733
 30
0.0
 10
69.472841
 20
124.277058
 30
0.0
 10
69.387287
 20
124.249712
 30
0.0
  0
SPLINE
  5
150
100
AcDbEntity
  8
Layer_1
 62
7
100
AcDbSpline
 70
8
 71
3
 72
8
 73
4
 74
0
 40
0
 40
0
 40
0
 40
0
 40
1
 40
1
 40
1
 40
1
 10
69.387287
 20
124.249712
 30
0.0
 10
69.332104
 20
124.232582
 30
0.0
 10
69.218653
 20
124.183860
 30
0.0
 10
69.046930
 20
124.103585
 30
0.0
  0
SPLINE
  5
151
100
AcDbEntity
  8
Layer_1
 62
7
100
AcDbSpline
 70
8
 71
3
 72
8
 73
4
 74
0
 40
0
 40
0
 40
0
 40
0
 40
1
 40
1
 40
1
 40
1
 10
69.046930
 20
124.103585
 30
0.0
 10
68.875204
 20
124.023307
 30
0.0
 10
68.748216
 20
123.975480
 30
0.0
 10
68.665962
 20
123.960097
 30
0.0
  0
SPLINE
  5
152
100
AcDbEntity
  8
Layer_1
 62
7
100
AcDbSpline
 70
8
 71
3
 72
8
 73
4
 74
0
 40
0
 40
0
 40
0
 40
0
 40
1
 40
1
 40
1
 40
1
 10
68.665962
 20
123.960097
 30
0.0
 10
68.559758
 20
123.939630
 30
0.0
 10
68.465105
 20
123.943819
 30
0.0
 10
68.382004
 20
123.972698
 30
0.0
  0
SPLINE
  5
153
100
AcDbEntity
  8
Layer_1
 62
7
100
AcDbSpline
 70
8
 71
3
 72
8
 73
4
 74
0
 40
0
 40
0
 40
0
 40
0
 40
1
 40
1
 40
1
 40
1
 10
68.382004
 20
123.972698
 30
0.0
 10
68.298906
 20
124.001576
 30
0.0
 10
68.228633
 20
124.052032
 30
0.0
 10
68.171193
 20
124.124103
 30
0.0
  0
SPLINE
  5
154
100
AcDbEntity
  8
Layer_1
 62
7
100
AcDbSpline
 70
8
 71
3
 72
8
 73
4
 74
0
 40
0
 40
0
 40
0
 40
0
 40
1
 40
1
 40
1
 40
1
 10
68.171193
 20
124.124103
 30
0.0
 10
68.108065
 20
124.203309
 30
0.0
 10
68.071534
 20
124.295254
 30
0.0
 10
68.061607
 20
124.399946
 30
0.0
  0
SPLINE
  5
155
100
AcDbEntity
  8
Layer_1
 62
7
100
AcDbSpline
 70
8
 71
3
 72
8
 73
4
 74
0
 40
0
 40
0
 40
0
 40
0
 40
1
 40
1
 40
1
 40
1
 10
68.061607
 20
124.399946
 30
0.0
 10
68.051697
 20
124.504635
 30
0.0
 10
68.075671
 20
124.609225
 30
0.0
 10
68.133572
 20
124.713723
 30
0.0
  0
SPLINE
  5
156
100
AcDbEntity
  8
Layer_1
 62
7
100
AcDbSpline
 70
8
 71
3
 72
8
 73
4
 74
0
 40
0
 40
0
 40
0
 40
0
 40
1
 40
1
 40
1
 40
1
 10
68.133572
 20
124.713723
 30
0.0
 10
68.191479
 20
124.818215
 30
0.0
 10
68.273235
 20
124.912547
 30
0.0
 10
68.378840
 20
124.996722
 30
0.0
  0
SPLINE
  5
157
100
AcDbEntity
  8
Layer_1
 62
7
100
AcDbSpline
 70
8
 71
3
 72
8
 73
4
 74
0
 40
0
 40
0
 40
0
 40
0
 40
1
 40
1
 40
1
 40
1
 10
68.378840
 20
124.996722
 30
0.0
 10
68.495152
 20
125.089423
 30
0.0
 10
68.612656
 20
125.152449
 30
0.0
 10
68.731355
 20
125.185796
 30
0.0
  0
SPLINE
  5
158
100
AcDbEntity
  8
Layer_1
 62
7
100
AcDbSpline
 70
8
 71
3
 72
8
 73
4
 74
0
 40
0
 40
0
 40
0
 40
0
 40
1
 40
1
 40
1
 40
1
 10
68.731355
 20
125.185796
 30
0.0
 10
68.850051
 20
125.219136
 30
0.0
 10
68.962310
 20
125.218454
 30
0.0
 10
69.068130
 20
125.183752
 30
0.0
  0
SPLINE
  5
159
100
AcDbEntity
  8
Layer_1
 62
7
100
AcDbSpline
 70
8
 71
3
 72
8
 73
4
 74
0
 40
0
 40
0
 40
0
 40
0
 40
1
 40
1
 40
1
 40
1
 10
69.068130
 20
125.183752
 30
0.0
 10
69.173949
 20
125.149071
 30
0.0
 10
69.265326
 20
125.087128
 30
0.0
 10
69.342260
 20
124.997924
 30
0.0
  0
LWPOLYLINE
  5
15a
100
AcDbEntity
  8
Layer_1
 62
7
100
AcDbPolyline
 90
2
 70
0
 10
68.636760
 20
123.416983
 30
0.0
 10
68.818982
 20
123.590225
 30
0.0
  0
SPLINE
  5
15b
100
AcDbEntity
  8
Layer_1
 62
7
100
AcDbSpline
 70
8
 71
3
 72
8
 73
4
 74
0
 40
0
 40
0
 40
0
 40
0
 40
1
 40
1
 40
1
 40
1
 10
69.155120
 20
124.824263
 30
0.0
 10
69.065361
 20
124.914918
 30
0.0
 10
68.969431
 20
124.960977
 30
0.0
 10
68.867327
 20
124.962448
 30
0.0
  0
SPLINE
  5
15c
100
AcDbEntity
  8
Layer_1
 62
7
100
AcDbSpline
 70
8
 71
3
 72
8
 73
4
 74
0
 40
0
 40
0
 40
0
 40
0
 40
1
 40
1
 40
1
 40
1
 10
68.867327
 20
124.962448
 30
0.0
 10
68.765223
 20
124.963811
 30
0.0
 10
68.653876
 20
124.916590
 30
0.0
 10
68.533284
 20
124.820476
 30
0.0
  0
SPLINE
  5
15d
100
AcDbEntity
  8
Layer_1
 62
7
100
AcDbSpline
 70
8
 71
3
 72
8
 73
4
 74
0
 40
0
 40
0
 40
0
 40
0
 40
1
 40
1
 40
1
 40
1
 10
68.533284
 20
124.820476
 30
0.0
 10
68.407695
 20
124.720378
 30
0.0
 10
68.334524
 20
124.624428
 30
0.0
 10
68.313764
 20
124.532622
 30
0.0
  0
SPLINE
  5
15e
100
AcDbEntity
  8
Layer_1
 62
7
100
AcDbSpline
 70
8
 71
3
 72
8
 73
4
 74
0
 40
0
 40
0
 40
0
 40
0
 40
1
 40
1
 40
1
 40
1
 10
68.313764
 20
124.532622
 30
0.0
 10
68.292991
 20
124.440809
 30
0.0
 10
68.308520
 20
124.362438
 30
0.0
 10
68.360256
 20
124.297505
 30
0.0
  0
SPLINE
  5
15f
100
AcDbEntity
  8
Layer_1
 62
7
100
AcDbSpline
 70
8
 71
3
 72
8
 73
4
 74
0
 40
0
 40
0
 40
0
 40
0
 40
1
 40
1
 40
1
 40
1
 10
68.360256
 20
124.297505
 30
0.0
 10
68.405185
 20
124.241134
 30
0.0
 10
68.462490
 20
124.210961
 30
0.0
 10
68.532170
 20
124.206987
 30
0.0
  0
SPLINE
  5
160
100
AcDbEntity
  8
Layer_1
 62
7
100
AcDbSpline
 70
8
 71
3
 72
8
 73
4
 74
0
 40
0
 40
0
 40
0
 40
0
 40
1
 40
1
 40
1
 40
1
 10
68.532170
 20
124.206987
 30
0.0
 10
68.601135
 20
124.202457
 30
0.0
 10
68.735210
 20
124.248336
 30
0.0
 10
68.934395
 20
124.344665
 30
0.0
  0
SPLINE
  5
161
100
AcDbEntity
  8
Layer_1
 62
7
100
AcDbSpline
 70
8
 71
3
 72
8
 73
4
 74
0
 40
0
 40
0
 40
0
 40
0
 40
1
 40
1
 40
1
 40
1
 10
68.934395
 20
124.344665
 30
0.0
 10
69.133580
 20
124.440993
 30
0.0
 10
69.275944
 20
124.499912
 30
0.0
 10
69.361487
 20
124.521418
 30
0.0
  0
SPLINE
  5
162
100
AcDbEntity
  8
Layer_1
 62
7
100
AcDbSpline
 70
8
 71
3
 72
8
 73
4
 74
0
 40
0
 40
0
 40
0
 40
0
 40
1
 40
1
 40
1
 40
1
 10
69.361487
 20
124.521418
 30
0.0
 10
69.486378
 20
124.552101
 30
0.0
 10
69.596325
 20
124.552510
 30
0.0
 10
69.691321
 20
124.522780
 30
0.0
  0
SPLINE
  5
163
100
AcDbEntity
  8
Layer_1
 62
7
100
AcDbSpline
 70
8
 71
3
 72
8
 73
4
 74
0
 40
0
 40
0
 40
0
 40
0
 40
1
 40
1
 40
1
 40
1
 10
69.691321
 20
124.522780
 30
0.0
 10
69.786318
 20
124.492879
 30
0.0
 10
69.867373
 20
124.435851
 30
0.0
 10
69.934485
 20
124.351649
 30
0.0
  0
SPLINE
  5
164
100
AcDbEntity
  8
Layer_1
 62
7
100
AcDbSpline
 70
8
 71
3
 72
8
 73
4
 74
0
 40
0
 40
0
 40
0
 40
0
 40
1
 40
1
 40
1
 40
1
 10
69.934485
 20
124.351649
 30
0.0
 10
70.001025
 20
124.268160
 30
0.0
 10
70.039821
 20
124.170439
 30
0.0
 10
70.050879
 20
124.058479
 30
0.0
  0
SPLINE
  5
165
100
AcDbEntity
  8
Layer_1
 62
7
100
AcDbSpline
 70
8
 71
3
 72
8
 73
4
 74
0
 40
0
 40
0
 40
0
 40
0
 40
1
 40
1
 40
1
 40
1
 10
70.050879
 20
124.058479
 30
0.0
 10
70.061947
 20
123.946519
 30
0.0
 10
70.039028
 20
123.834338
 30
0.0
 10
69.982183
 20
123.721933
 30
0.0
  0
SPLINE
  5
166
100
AcDbEntity
  8
Layer_1
 62
7
100
AcDbSpline
 70
8
 71
3
 72
8
 73
4
 74
0
 40
0
 40
0
 40
0
 40
0
 40
1
 40
1
 40
1
 40
1
 10
69.982183
 20
123.721933
 30
0.0
 10
69.925331
 20
123.609527
 30
0.0
 10
69.840891
 20
123.508680
 30
0.0
 10
69.728864
 20
123.419387
 30
0.0
  0
SPLINE
  5
167
100
AcDbEntity
  8
Layer_1
 62
7
100
AcDbSpline
 70
8
 71
3
 72
8
 73
4
 74
0
 40
0
 40
0
 40
0
 40
0
 40
1
 40
1
 40
1
 40
1
 10
69.728864
 20
123.419387
 30
0.0
 10
69.586864
 20
123.306212
 30
0.0
 10
69.451383
 20
123.232067
 30
0.0
 10
69.322423
 20
123.196959
 30
0.0
  0
SPLINE
  5
168
100
AcDbEntity
  8
Layer_1
 62
7
100
AcDbSpline
 70
8
 71
3
 72
8
 73
4
 74
0
 40
0
 40
0
 40
0
 40
0
 40
1
 40
1
 40
1
 40
1
 10
69.322423
 20
123.196959
 30
0.0
 10
69.193459
 20
123.161852
 30
0.0
 10
69.068559
 20
123.164096
 30
0.0
 10
68.947714
 20
123.203736
 30
0.0
  0
SPLINE
  5
169
100
AcDbEntity
  8
Layer_1
 62
7
100
AcDbSpline
 70
8
 71
3
 72
8
 73
4
 74
0
 40
0
 40
0
 40
0
 40
0
 40
1
 40
1
 40
1
 40
1
 10
68.947714
 20
123.203736
 30
0.0
 10
68.826869
 20
123.243359
 30
0.0
 10
68.723216
 20
123.314480
 30
0.0
 10
68.636760
 20
123.417102
 30
0.0
  0
LWPOLYLINE
  5
16a
100
AcDbEntity
  8
Layer_1
 62
7
100
AcDbPolyline
 90
2
 70
0
 10
69.342260
 20
124.997924
 30
0.0
 10
69.155120
 20
124.824263
 30
0.0
  0
LWPOLYLINE
  5
16b
100
AcDbEntity
  8
Layer_1
 62
7
100
AcDbPolyline
 90
2
 70
0
 10
68.636760
 20
123.417102
 30
0.0
 10
68.636760
 20
123.416983
 30
0.0
  0
LWPOLYLINE
  5
16c
100
AcDbEntity
  8
Layer_1
 62
7
100
AcDbPolyline
 90
13
 70
0
 10
70.590700
 20
124.128639
 30
0.0
 10
69.485550
 20
125.803430
 30
0.0
 10
69.707181
 20
125.949676
 30
0.0
 10
70.160999
 20
125.261939
 30
0.0
 10
71.031527
 20
125.836374
 30
0.0
 10
70.577705
 20
126.524111
 30
0.0
 10
70.799335
 20
126.670361
 30
0.0
 10
71.904485
 20
124.995570
 30
0.0
 10
71.682855
 20
124.849324
 30
0.0
 10
71.161944
 20
125.638736
 30
0.0
 10
70.291417
 20
125.064301
 30
0.0
 10
70.812331
 20
124.274886
 30
0.0
 10
70.590700
 20
124.128639
 30
0.0
  0
LWPOLYLINE
  5
16d
100
AcDbEntity
  8
Layer_1
 62
7
100
AcDbPolyline
 90
13
 70
0
 10
72.293422
 20
125.227145
 30
0.0
 10
71.349479
 20
126.997807
 30
0.0
 10
71.583795
 20
127.122722
 30
0.0
 10
71.971417
 20
126.395614
 30
0.0
 10
72.891774
 20
126.886260
 30
0.0
 10
72.504152
 20
127.613367
 30
0.0
 10
72.738468
 20
127.738282
 30
0.0
 10
73.682415
 20
125.967619
 30
0.0
 10
73.448099
 20
125.842705
 30
0.0
 10
73.003168
 20
126.677308
 30
0.0
 10
72.082812
 20
126.186662
 30
0.0
 10
72.527739
 20
125.352060
 30
0.0
 10
72.293422
 20
125.227145
 30
0.0
  0
LWPOLYLINE
  5
16e
100
AcDbEntity
  8
Layer_1
 62
7
100
AcDbPolyline
 90
13
 70
0
 10
74.091332
 20
126.161785
 30
0.0
 10
73.317531
 20
128.013137
 30
0.0
 10
73.562527
 20
128.115537
 30
0.0
 10
73.880282
 20
127.355294
 30
0.0
 10
74.842581
 20
127.757502
 30
0.0
 10
74.524826
 20
128.517745
 30
0.0
 10
74.769822
 20
128.620142
 30
0.0
 10
75.543623
 20
126.768790
 30
0.0
 10
75.298627
 20
126.666390
 30
0.0
 10
74.933896
 20
127.539028
 30
0.0
 10
73.971594
 20
127.136820
 30
0.0
 10
74.336328
 20
126.264185
 30
0.0
 10
74.091332
 20
126.161785
 30
0.0
  0
SPLINE
  5
16f
100
AcDbEntity
  8
Layer_1
 62
7
100
AcDbSpline
 70
8
 71
3
 72
8
 73
4
 74
0
 40
0
 40
0
 40
0
 40
0
 40
1
 40
1
 40
1
 40
1
 10
76.575003
 20
127.123515
 30
0.0
 10
76.557056
 20
127.180077
 30
0.0
 10
76.550721
 20
127.237559
 30
0.0
 10
76.555966
 20
127.295957
 30
0.0
  0
SPLINE
  5
170
100
AcDbEntity
  8
Layer_1
 62
7
100
AcDbSpline
 70
8
 71
3
 72
8
 73
4
 74
0
 40
0
 40
0
 40
0
 40
0
 40
1
 40
1
 40
1
 40
1
 10
76.555966
 20
127.295957
 30
0.0
 10
76.563798
 20
127.392077
 30
0.0
 10
76.591523
 20
127.492424
 30
0.0
 10
76.639159
 20
127.596994
 30
0.0
  0
SPLINE
  5
171
100
AcDbEntity
  8
Layer_1
 62
7
100
AcDbSpline
 70
8
 71
3
 72
8
 73
4
 74
0
 40
0
 40
0
 40
0
 40
0
 40
1
 40
1
 40
1
 40
1
 10
76.639159
 20
127.596994
 30
0.0
 10
76.686795
 20
127.701560
 30
0.0
 10
76.762520
 20
127.828327
 30
0.0
 10
76.866331
 20
127.977287
 30
0.0
  0
SPLINE
  5
172
100
AcDbEntity
  8
Layer_1
 62
7
100
AcDbSpline
 70
8
 71
3
 72
8
 73
4
 74
0
 40
0
 40
0
 40
0
 40
0
 40
1
 40
1
 40
1
 40
1
 10
76.866331
 20
127.977287
 30
0.0
 10
77.027326
 20
128.208862
 30
0.0
 10
77.130435
 20
128.385366
 30
0.0
 10
77.175660
 20
128.506800
 30
0.0
  0
SPLINE
  5
173
100
AcDbEntity
  8
Layer_1
 62
7
100
AcDbSpline
 70
8
 71
3
 72
8
 73
4
 74
0
 40
0
 40
0
 40
0
 40
0
 40
1
 40
1
 40
1
 40
1
 10
77.175660
 20
128.506800
 30
0.0
 10
77.220885
 20
128.628230
 30
0.0
 10
77.230795
 20
128.733716
 30
0.0
 10
77.205390
 20
128.823257
 30
0.0
  0
SPLINE
  5
174
100
AcDbEntity
  8
Layer_1
 62
7
100
AcDbSpline
 70
8
 71
3
 72
8
 73
4
 74
0
 40
0
 40
0
 40
0
 40
0
 40
1
 40
1
 40
1
 40
1
 10
77.205390
 20
128.823257
 30
0.0
 10
77.178759
 20
128.917188
 30
0.0
 10
77.122691
 20
128.986885
 30
0.0
 10
77.037233
 20
129.032359
 30
0.0
  0
SPLINE
  5
175
100
AcDbEntity
  8
Layer_1
 62
7
100
AcDbSpline
 70
8
 71
3
 72
8
 73
4
 74
0
 40
0
 40
0
 40
0
 40
0
 40
1
 40
1
 40
1
 40
1
 10
77.037233
 20
129.032359
 30
0.0
 10
76.951771
 20
129.077830
 30
0.0
 10
76.855055
 20
129.085247
 30
0.0
 10
76.747080
 20
129.054631
 30
0.0
  0
SPLINE
  5
176
100
AcDbEntity
  8
Layer_1
 62
7
100
AcDbSpline
 70
8
 71
3
 72
8
 73
4
 74
0
 40
0
 40
0
 40
0
 40
0
 40
1
 40
1
 40
1
 40
1
 10
76.747080
 20
129.054631
 30
0.0
 10
76.632961
 20
129.022245
 30
0.0
 10
76.551379
 20
128.962121
 30
0.0
 10
76.502329
 20
128.874224
 30
0.0
  0
SPLINE
  5
177
100
AcDbEntity
  8
Layer_1
 62
7
100
AcDbSpline
 70
8
 71
3
 72
8
 73
4
 74
0
 40
0
 40
0
 40
0
 40
0
 40
1
 40
1
 40
1
 40
1
 10
76.502329
 20
128.874224
 30
0.0
 10
76.453283
 20
128.786328
 30
0.0
 10
76.445505
 20
128.681683
 30
0.0
 10
76.479001
 20
128.560294
 30
0.0
  0
LWPOLYLINE
  5
178
100
AcDbEntity
  8
Layer_1
 62
7
100
AcDbPolyline
 90
3
 70
0
 10
77.786330
 20
127.713289
 30
0.0
 10
77.850953
 20
127.485487
 30
0.0
 10
76.575003
 20
127.123515
 30
0.0
  0
SPLINE
  5
179
100
AcDbEntity
  8
Layer_1
 62
7
100
AcDbSpline
 70
8
 71
3
 72
8
 73
4
 74
0
 40
0
 40
0
 40
0
 40
0
 40
1
 40
1
 40
1
 40
1
 10
76.228301
 20
128.516206
 30
0.0
 10
76.193432
 20
128.702648
 30
0.0
 10
76.216927
 20
128.858937
 30
0.0
 10
76.298744
 20
128.985063
 30
0.0
  0
SPLINE
  5
17a
100
AcDbEntity
  8
Layer_1
 62
7
100
AcDbSpline
 70
8
 71
3
 72
8
 73
4
 74
0
 40
0
 40
0
 40
0
 40
0
 40
1
 40
1
 40
1
 40
1
 10
76.298744
 20
128.985063
 30
0.0
 10
76.380579
 20
129.111187
 30
0.0
 10
76.513230
 20
129.200275
 30
0.0
 10
76.696699
 20
129.252325
 30
0.0
  0
SPLINE
  5
17b
100
AcDbEntity
  8
Layer_1
 62
7
100
AcDbSpline
 70
8
 71
3
 72
8
 73
4
 74
0
 40
0
 40
0
 40
0
 40
0
 40
1
 40
1
 40
1
 40
1
 10
76.696699
 20
129.252325
 30
0.0
 10
76.881924
 20
129.304868
 30
0.0
 10
77.043094
 20
129.295105
 30
0.0
 10
77.180206
 20
129.223037
 30
0.0
  0
SPLINE
  5
17c
100
AcDbEntity
  8
Layer_1
 62
7
100
AcDbSpline
 70
8
 71
3
 72
8
 73
4
 74
0
 40
0
 40
0
 40
0
 40
0
 40
1
 40
1
 40
1
 40
1
 10
77.180206
 20
129.223037
 30
0.0
 10
77.317316
 20
129.150956
 30
0.0
 10
77.407415
 20
129.038986
 30
0.0
 10
77.450499
 20
128.887118
 30
0.0
  0
SPLINE
  5
17d
100
AcDbEntity
  8
Layer_1
 62
7
100
AcDbSpline
 70
8
 71
3
 72
8
 73
4
 74
0
 40
0
 40
0
 40
0
 40
0
 40
1
 40
1
 40
1
 40
1
 10
77.450499
 20
128.887118
 30
0.0
 10
77.472396
 20
128.809867
 30
0.0
 10
77.478151
 20
128.729449
 30
0.0
 10
77.467730
 20
128.645871
 30
0.0
  0
SPLINE
  5
17e
100
AcDbEntity
  8
Layer_1
 62
7
100
AcDbSpline
 70
8
 71
3
 72
8
 73
4
 74
0
 40
0
 40
0
 40
0
 40
0
 40
1
 40
1
 40
1
 40
1
 10
77.467730
 20
128.645871
 30
0.0
 10
77.457310
 20
128.562286
 30
0.0
 10
77.427130
 20
128.468839
 30
0.0
 10
77.377239
 20
128.365529
 30
0.0
  0
SPLINE
  5
17f
100
AcDbEntity
  8
Layer_1
 62
7
100
AcDbSpline
 70
8
 71
3
 72
8
 73
4
 74
0
 40
0
 40
0
 40
0
 40
0
 40
1
 40
1
 40
1
 40
1
 10
77.377239
 20
128.365529
 30
0.0
 10
77.327348
 20
128.262216
 30
0.0
 10
77.237674
 20
128.114420
 30
0.0
 10
77.108214
 20
127.922142
 30
0.0
  0
SPLINE
  5
180
100
AcDbEntity
  8
Layer_1
 62
7
100
AcDbSpline
 70
8
 71
3
 72
8
 73
4
 74
0
 40
0
 40
0
 40
0
 40
0
 40
1
 40
1
 40
1
 40
1
 10
77.108214
 20
127.922142
 30
0.0
 10
76.999871
 20
127.762410
 30
0.0
 10
76.931546
 20
127.655531
 30
0.0
 10
76.903246
 20
127.601499
 30
0.0
  0
SPLINE
  5
181
100
AcDbEntity
  8
Layer_1
 62
7
100
AcDbSpline
 70
8
 71
3
 72
8
 73
4
 74
0
 40
0
 40
0
 40
0
 40
0
 40
1
 40
1
 40
1
 40
1
 10
76.903246
 20
127.601499
 30
0.0
 10
76.874947
 20
127.547467
 30
0.0
 10
76.853723
 20
127.495210
 30
0.0
 10
76.839591
 20
127.444726
 30
0.0
  0
LWPOLYLINE
  5
182
100
AcDbEntity
  8
Layer_1
 62
7
100
AcDbPolyline
 90
2
 70
0
 10
76.479001
 20
128.560294
 30
0.0
 10
76.228301
 20
128.516206
 30
0.0
  0
LWPOLYLINE
  5
183
100
AcDbEntity
  8
Layer_1
 62
7
100
AcDbPolyline
 90
2
 70
0
 10
76.839591
 20
127.444726
 30
0.0
 10
77.786330
 20
127.713289
 30
0.0
  0
LWPOLYLINE
  5
184
100
AcDbEntity
  8
Layer_1
 62
7
100
AcDbPolyline
 90
12
 70
0
 10
78.882453
 20
127.709852
 30
0.0
 10
78.785152
 20
128.180320
 30
0.0
 10
77.932682
 20
128.004010
 30
0.0
 10
77.886939
 20
128.225171
 30
0.0
 10
78.520291
 20
129.683973
 30
0.0
 10
78.717324
 20
129.724724
 30
0.0
 10
78.980677
 20
128.451379
 30
0.0
 10
79.246069
 20
128.506265
 30
0.0
 10
79.291809
 20
128.285105
 30
0.0
 10
79.026417
 20
128.230218
 30
0.0
 10
79.123719
 20
127.759750
 30
0.0
 10
78.882453
 20
127.709852
 30
0.0
  0
LWPOLYLINE
  5
185
100
AcDbEntity
  8
Layer_1
 62
7
100
AcDbPolyline
 90
4
 70
0
 10
78.739411
 20
128.401478
 30
0.0
 10
78.556173
 20
129.287459
 30
0.0
 10
78.124184
 20
128.274238
 30
0.0
 10
78.739411
 20
128.401478
 30
0.0
  0
LWPOLYLINE
  5
186
100
AcDbEntity
  8
Layer_1
 62
7
100
AcDbPolyline
 90
5
 70
0
 10
80.316060
 20
128.557907
 30
0.0
 10
80.288792
 20
128.804139
 30
0.0
 10
81.041101
 20
128.887451
 30
0.0
 10
81.068369
 20
128.641216
 30
0.0
 10
80.316060
 20
128.557907
 30
0.0
  0
SPLINE
  5
187
100
AcDbEntity
  8
Layer_1
 62
7
100
AcDbSpline
 70
8
 71
3
 72
8
 73
4
 74
0
 40
0
 40
0
 40
0
 40
0
 40
1
 40
1
 40
1
 40
1
 10
84.173183
 20
128.849047
 30
0.0
 10
84.193184
 20
129.117487
 30
0.0
 10
84.282617
 20
129.310753
 30
0.0
 10
84.441479
 20
129.428849
 30
0.0
  0
SPLINE
  5
188
100
AcDbEntity
  8
Layer_1
 62
7
100
AcDbSpline
 70
8
 71
3
 72
8
 73
4
 74
0
 40
0
 40
0
 40
0
 40
0
 40
1
 40
1
 40
1
 40
1
 10
84.441479
 20
129.428849
 30
0.0
 10
84.574144
 20
129.526935
 30
0.0
 10
84.730108
 20
129.569300
 30
0.0
 10
84.909372
 20
129.555943
 30
0.0
  0
SPLINE
  5
189
100
AcDbEntity
  8
Layer_1
 62
7
100
AcDbSpline
 70
8
 71
3
 72
8
 73
4
 74
0
 40
0
 40
0
 40
0
 40
0
 40
1
 40
1
 40
1
 40
1
 10
84.909372
 20
129.555943
 30
0.0
 10
85.108653
 20
129.541095
 30
0.0
 10
85.266672
 20
129.463667
 30
0.0
 10
85.383428
 20
129.323663
 30
0.0
  0
SPLINE
  5
18a
100
AcDbEntity
  8
Layer_1
 62
7
100
AcDbSpline
 70
8
 71
3
 72
8
 73
4
 74
0
 40
0
 40
0
 40
0
 40
0
 40
1
 40
1
 40
1
 40
1
 10
85.383428
 20
129.323663
 30
0.0
 10
85.500182
 20
129.183659
 30
0.0
 10
85.549983
 20
128.998546
 30
0.0
 10
85.532831
 20
128.768326
 30
0.0
  0
SPLINE
  5
18b
100
AcDbEntity
  8
Layer_1
 62
7
100
AcDbSpline
 70
8
 71
3
 72
8
 73
4
 74
0
 40
0
 40
0
 40
0
 40
0
 40
1
 40
1
 40
1
 40
1
 10
85.532831
 20
128.768326
 30
0.0
 10
85.518929
 20
128.581783
 30
0.0
 10
85.480015
 20
128.437137
 30
0.0
 10
85.416087
 20
128.334386
 30
0.0
  0
SPLINE
  5
18c
100
AcDbEntity
  8
Layer_1
 62
7
100
AcDbSpline
 70
8
 71
3
 72
8
 73
4
 74
0
 40
0
 40
0
 40
0
 40
0
 40
1
 40
1
 40
1
 40
1
 10
85.416087
 20
128.334386
 30
0.0
 10
85.352156
 20
128.231635
 30
0.0
 10
85.264527
 20
128.154670
 30
0.0
 10
85.153201
 20
128.103489
 30
0.0
  0
SPLINE
  5
18d
100
AcDbEntity
  8
Layer_1
 62
7
100
AcDbSpline
 70
8
 71
3
 72
8
 73
4
 74
0
 40
0
 40
0
 40
0
 40
0
 40
1
 40
1
 40
1
 40
1
 10
85.153201
 20
128.103489
 30
0.0
 10
85.041872
 20
128.052307
 30
0.0
 10
84.922965
 20
128.031428
 30
0.0
 10
84.796481
 20
128.040855
 30
0.0
  0
SPLINE
  5
18e
100
AcDbEntity
  8
Layer_1
 62
7
100
AcDbSpline
 70
8
 71
3
 72
8
 73
4
 74
0
 40
0
 40
0
 40
0
 40
0
 40
1
 40
1
 40
1
 40
1
 10
84.796481
 20
128.040855
 30
0.0
 10
84.593559
 20
128.055975
 30
0.0
 10
84.434386
 20
128.133256
 30
0.0
 10
84.318962
 20
128.272705
 30
0.0
  0
SPLINE
  5
18f
100
AcDbEntity
  8
Layer_1
 62
7
100
AcDbSpline
 70
8
 71
3
 72
8
 73
4
 74
0
 40
0
 40
0
 40
0
 40
0
 40
1
 40
1
 40
1
 40
1
 10
84.318962
 20
128.272705
 30
0.0
 10
84.203537
 20
128.412151
 30
0.0
 10
84.154944
 20
128.604266
 30
0.0
 10
84.173183
 20
128.849047
 30
0.0
  0
LWPOLYLINE
  5
190
100
AcDbEntity
  8
Layer_1
 62
7
100
AcDbPolyline
 90
11
 70
0
 10
82.213377
 20
128.127457
 30
0.0
 10
82.198920
 20
130.133961
 30
0.0
 10
82.471290
 20
130.136004
 30
0.0
 10
83.536535
 20
128.568232
 30
0.0
 10
83.525184
 20
130.143598
 30
0.0
 10
83.779761
 20
130.145301
 30
0.0
 10
83.794217
 20
128.138794
 30
0.0
 10
83.521847
 20
128.136750
 30
0.0
 10
82.456593
 20
129.705891
 30
0.0
 10
82.467954
 20
128.129156
 30
0.0
 10
82.213377
 20
128.127457
 30
0.0
  0
SPLINE
  5
191
100
AcDbEntity
  8
Layer_1
 62
7
100
AcDbSpline
 70
8
 71
3
 72
8
 73
4
 74
0
 40
0
 40
0
 40
0
 40
0
 40
1
 40
1
 40
1
 40
1
 10
84.425698
 20
128.830215
 30
0.0
 10
84.411865
 20
128.644580
 30
0.0
 10
84.442004
 20
128.502567
 30
0.0
 10
84.516108
 20
128.404172
 30
0.0
  0
SPLINE
  5
192
100
AcDbEntity
  8
Layer_1
 62
7
100
AcDbSpline
 70
8
 71
3
 72
8
 73
4
 74
0
 40
0
 40
0
 40
0
 40
0
 40
1
 40
1
 40
1
 40
1
 10
84.516108
 20
128.404172
 30
0.0
 10
84.590212
 20
128.305776
 30
0.0
 10
84.688688
 20
128.252003
 30
0.0
 10
84.811533
 20
128.242849
 30
0.0
  0
SPLINE
  5
193
100
AcDbEntity
  8
Layer_1
 62
7
100
AcDbSpline
 70
8
 71
3
 72
8
 73
4
 74
0
 40
0
 40
0
 40
0
 40
0
 40
1
 40
1
 40
1
 40
1
 10
84.811533
 20
128.242849
 30
0.0
 10
84.933468
 20
128.233756
 30
0.0
 10
85.038386
 20
128.272613
 30
0.0
 10
85.126290
 20
128.359393
 30
0.0
  0
SPLINE
  5
194
100
AcDbEntity
  8
Layer_1
 62
7
100
AcDbSpline
 70
8
 71
3
 72
8
 73
4
 74
0
 40
0
 40
0
 40
0
 40
0
 40
1
 40
1
 40
1
 40
1
 10
85.126290
 20
128.359393
 30
0.0
 10
85.214191
 20
128.446175
 30
0.0
 10
85.265228
 20
128.584657
 30
0.0
 10
85.279400
 20
128.774841
 30
0.0
  0
SPLINE
  5
195
100
AcDbEntity
  8
Layer_1
 62
7
100
AcDbSpline
 70
8
 71
3
 72
8
 73
4
 74
0
 40
0
 40
0
 40
0
 40
0
 40
1
 40
1
 40
1
 40
1
 10
85.279400
 20
128.774841
 30
0.0
 10
85.292756
 20
128.954101
 30
0.0
 10
85.262154
 20
129.092947
 30
0.0
 10
85.187596
 20
129.191380
 30
0.0
  0
SPLINE
  5
196
100
AcDbEntity
  8
Layer_1
 62
7
100
AcDbSpline
 70
8
 71
3
 72
8
 73
4
 74
0
 40
0
 40
0
 40
0
 40
0
 40
1
 40
1
 40
1
 40
1
 10
85.187596
 20
129.191380
 30
0.0
 10
85.113035
 20
129.289806
 30
0.0
 10
85.015242
 20
129.343531
 30
0.0
 10
84.894218
 20
129.352549
 30
0.0
  0
SPLINE
  5
197
100
AcDbEntity
  8
Layer_1
 62
7
100
AcDbSpline
 70
8
 71
3
 72
8
 73
4
 74
0
 40
0
 40
0
 40
0
 40
0
 40
1
 40
1
 40
1
 40
1
 10
84.894218
 20
129.352549
 30
0.0
 10
84.771372
 20
129.361710
 30
0.0
 10
84.666032
 20
129.323330
 30
0.0
 10
84.578198
 20
129.237473
 30
0.0
  0
SPLINE
  5
198
100
AcDbEntity
  8
Layer_1
 62
7
100
AcDbSpline
 70
8
 71
3
 72
8
 73
4
 74
0
 40
0
 40
0
 40
0
 40
0
 40
1
 40
1
 40
1
 40
1
 10
84.578198
 20
129.237473
 30
0.0
 10
84.490363
 20
129.151600
 30
0.0
 10
84.439530
 20
129.015846
 30
0.0
 10
84.425698
 20
128.830215
 30
0.0
  0
LWPOLYLINE
  5
199
100
AcDbEntity
  8
Layer_1
 62
7
100
AcDbPolyline
 90
2
 70
0
 10
84.173183
 20
128.849047
 30
0.0
 10
84.173183
 20
128.849047
 30
0.0
  0
LWPOLYLINE
  5
19a
100
AcDbEntity
  8
Layer_1
 62
7
100
AcDbPolyline
 90
2
 70
0
 10
84.425698
 20
128.830215
 30
0.0
 10
84.425698
 20
128.830215
 30
0.0
  0
SPLINE
  5
19b
100
AcDbEntity
  8
Layer_1
 62
7
100
AcDbSpline
 70
8
 71
3
 72
8
 73
4
 74
0
 40
0
 40
0
 40
0
 40
0
 40
1
 40
1
 40
1
 40
1
 10
86.267074
 20
128.503470
 30
0.0
 10
86.287146
 20
128.405639
 30
0.0
 10
86.303992
 20
128.304588
 30
0.0
 10
86.317611
 20
128.200311
 30
0.0
  0
SPLINE
  5
19c
100
AcDbEntity
  8
Layer_1
 62
7
100
AcDbSpline
 70
8
 71
3
 72
8
 73
4
 74
0
 40
0
 40
0
 40
0
 40
0
 40
1
 40
1
 40
1
 40
1
 10
86.317611
 20
128.200311
 30
0.0
 10
86.350171
 20
128.273073
 30
0.0
 10
86.393517
 20
128.359961
 30
0.0
 10
86.447647
 20
128.460972
 30
0.0
  0
LWPOLYLINE
  5
19d
100
AcDbEntity
  8
Layer_1
 62
7
100
AcDbPolyline
 90
4
 70
0
 10
86.165308
 20
127.929018
 30
0.0
 10
85.824356
 20
129.446401
 30
0.0
 10
86.081779
 20
129.409472
 30
0.0
 10
86.267074
 20
128.503470
 30
0.0
  0
LWPOLYLINE
  5
19e
100
AcDbEntity
  8
Layer_1
 62
7
100
AcDbPolyline
 90
5
 70
0
 10
86.447647
 20
128.460972
 30
0.0
 10
86.893340
 20
129.293051
 30
0.0
 10
87.143989
 20
129.257096
 30
0.0
 10
86.392924
 20
127.896365
 30
0.0
 10
86.165308
 20
127.929018
 30
0.0
  0
SPLINE
  5
19f
100
AcDbEntity
  8
Layer_1
 62
7
100
AcDbSpline
 70
8
 71
3
 72
8
 73
4
 74
0
 40
0
 40
0
 40
0
 40
0
 40
1
 40
1
 40
1
 40
1
 10
88.892452
 20
128.994085
 30
0.0
 10
88.821101
 20
128.953740
 30
0.0
 10
88.731834
 20
128.917917
 30
0.0
 10
88.624653
 20
128.886617
 30
0.0
  0
SPLINE
  5
1a0
100
AcDbEntity
  8
Layer_1
 62
7
100
AcDbSpline
 70
8
 71
3
 72
8
 73
4
 74
0
 40
0
 40
0
 40
0
 40
0
 40
1
 40
1
 40
1
 40
1
 10
88.624653
 20
128.886617
 30
0.0
 10
88.517469
 20
128.855320
 30
0.0
 10
88.423258
 20
128.835323
 30
0.0
 10
88.342018
 20
128.826649
 30
0.0
  0
LWPOLYLINE
  5
1a1
100
AcDbEntity
  8
Layer_1
 62
7
100
AcDbPolyline
 90
3
 70
0
 10
88.747250
 20
127.411587
 30
0.0
 10
88.508366
 20
127.471862
 30
0.0
 10
88.892452
 20
128.994085
 30
0.0
  0
SPLINE
  5
1a2
100
AcDbEntity
  8
Layer_1
 62
7
100
AcDbSpline
 70
8
 71
3
 72
8
 73
4
 74
0
 40
0
 40
0
 40
0
 40
0
 40
1
 40
1
 40
1
 40
1
 10
88.400284
 20
129.057570
 30
0.0
 10
88.549732
 20
129.086687
 30
0.0
 10
88.685718
 20
129.133299
 30
0.0
 10
88.808244
 20
129.197435
 30
0.0
  0
SPLINE
  5
1a3
100
AcDbEntity
  8
Layer_1
 62
7
100
AcDbSpline
 70
8
 71
3
 72
8
 73
4
 74
0
 40
0
 40
0
 40
0
 40
0
 40
1
 40
1
 40
1
 40
1
 10
88.808244
 20
129.197435
 30
0.0
 10
88.930768
 20
129.261567
 30
0.0
 10
89.023426
 20
129.330413
 30
0.0
 10
89.086219
 20
129.403976
 30
0.0
  0
LWPOLYLINE
  5
1a4
100
AcDbEntity
  8
Layer_1
 62
7
100
AcDbPolyline
 90
2
 70
0
 10
88.342018
 20
128.826649
 30
0.0
 10
88.400284
 20
129.057570
 30
0.0
  0
LWPOLYLINE
  5
1a5
100
AcDbEntity
  8
Layer_1
 62
7
100
AcDbPolyline
 90
3
 70
0
 10
89.086219
 20
129.403976
 30
0.0
 10
89.240167
 20
129.365129
 30
0.0
 10
88.747250
 20
127.411587
 30
0.0
  0
SPLINE
  5
1a6
100
AcDbEntity
  8
Layer_1
 62
7
100
AcDbSpline
 70
8
 71
3
 72
8
 73
4
 74
0
 40
0
 40
0
 40
0
 40
0
 40
1
 40
1
 40
1
 40
1
 10
90.499185
 20
128.524754
 30
0.0
 10
90.425097
 20
128.489684
 30
0.0
 10
90.333469
 20
128.460427
 30
0.0
 10
90.224301
 20
128.436974
 30
0.0
  0
SPLINE
  5
1a7
100
AcDbEntity
  8
Layer_1
 62
7
100
AcDbSpline
 70
8
 71
3
 72
8
 73
4
 74
0
 40
0
 40
0
 40
0
 40
0
 40
1
 40
1
 40
1
 40
1
 10
90.224301
 20
128.436974
 30
0.0
 10
90.115130
 20
128.413510
 30
0.0
 10
90.019717
 20
128.400412
 30
0.0
 10
89.938063
 20
128.397650
 30
0.0
  0
LWPOLYLINE
  5
1a8
100
AcDbEntity
  8
Layer_1
 62
7
100
AcDbPolyline
 90
3
 70
0
 10
90.239665
 20
126.956938
 30
0.0
 10
90.005778
 20
127.034369
 30
0.0
 10
90.499185
 20
128.524754
 30
0.0
  0
SPLINE
  5
1a9
100
AcDbEntity
  8
Layer_1
 62
7
100
AcDbSpline
 70
8
 71
3
 72
8
 73
4
 74
0
 40
0
 40
0
 40
0
 40
0
 40
1
 40
1
 40
1
 40
1
 10
90.012913
 20
128.623742
 30
0.0
 10
90.164077
 20
128.641927
 30
0.0
 10
90.303085
 20
128.678581
 30
0.0
 10
90.429937
 20
128.733669
 30
0.0
  0
SPLINE
  5
1aa
100
AcDbEntity
  8
Layer_1
 62
7
100
AcDbSpline
 70
8
 71
3
 72
8
 73
4
 74
0
 40
0
 40
0
 40
0
 40
0
 40
1
 40
1
 40
1
 40
1
 10
90.429937
 20
128.733669
 30
0.0
 10
90.556787
 20
128.788753
 30
0.0
 10
90.654192
 20
128.850702
 30
0.0
 10
90.722151
 20
128.919518
 30
0.0
  0
LWPOLYLINE
  5
1ab
100
AcDbEntity
  8
Layer_1
 62
7
100
AcDbPolyline
 90
2
 70
0
 10
89.938063
 20
128.397650
 30
0.0
 10
90.012913
 20
128.623742
 30
0.0
  0
LWPOLYLINE
  5
1ac
100
AcDbEntity
  8
Layer_1
 62
7
100
AcDbPolyline
 90
3
 70
0
 10
90.722151
 20
128.919518
 30
0.0
 10
90.872878
 20
128.869620
 30
0.0
 10
90.239665
 20
126.956938
 30
0.0
  0
SPLINE
  5
1ad
100
AcDbEntity
  8
Layer_1
 62
7
100
AcDbSpline
 70
8
 71
3
 72
8
 73
4
 74
0
 40
0
 40
0
 40
0
 40
0
 40
1
 40
1
 40
1
 40
1
 10
91.219238
 20
126.591125
 30
0.0
 10
91.181563
 20
126.495144
 30
0.0
 10
91.134152
 20
126.424302
 30
0.0
 10
91.077005
 20
126.378607
 30
0.0
  0
SPLINE
  5
1ae
100
AcDbEntity
  8
Layer_1
 62
7
100
AcDbSpline
 70
8
 71
3
 72
8
 73
4
 74
0
 40
0
 40
0
 40
0
 40
0
 40
1
 40
1
 40
1
 40
1
 10
91.077005
 20
126.378607
 30
0.0
 10
91.019858
 20
126.332908
 30
0.0
 10
90.948001
 20
126.308426
 30
0.0
 10
90.861434
 20
126.305153
 30
0.0
  0
LWPOLYLINE
  5
1af
100
AcDbEntity
  8
Layer_1
 62
7
100
AcDbPolyline
 90
4
 70
0
 10
90.958049
 20
126.693644
 30
0.0
 10
91.060570
 20
126.954833
 30
0.0
 10
91.321760
 20
126.852314
 30
0.0
 10
91.219238
 20
126.591125
 30
0.0
  0
SPLINE
  5
1b0
100
AcDbEntity
  8
Layer_1
 62
7
100
AcDbSpline
 70
8
 71
3
 72
8
 73
4
 74
0
 40
0
 40
0
 40
0
 40
0
 40
1
 40
1
 40
1
 40
1
 10
90.836237
 20
126.428263
 30
0.0
 10
90.892987
 20
126.430647
 30
0.0
 10
90.940914
 20
126.447708
 30
0.0
 10
90.980018
 20
126.479900
 30
0.0
  0
SPLINE
  5
1b1
100
AcDbEntity
  8
Layer_1
 62
7
100
AcDbSpline
 70
8
 71
3
 72
8
 73
4
 74
0
 40
0
 40
0
 40
0
 40
0
 40
1
 40
1
 40
1
 40
1
 10
90.980018
 20
126.479900
 30
0.0
 10
91.019122
 20
126.512083
 30
0.0
 10
91.055117
 20
126.566339
 30
0.0
 10
91.088006
 20
126.642636
 30
0.0
  0
LWPOLYLINE
  5
1b2
100
AcDbEntity
  8
Layer_1
 62
7
100
AcDbPolyline
 90
2
 70
0
 10
90.861434
 20
126.305153
 30
0.0
 10
90.836237
 20
126.428263
 30
0.0
  0
LWPOLYLINE
  5
1b3
100
AcDbEntity
  8
Layer_1
 62
7
100
AcDbPolyline
 90
2
 70
0
 10
91.088006
 20
126.642636
 30
0.0
 10
90.958049
 20
126.693644
 30
0.0
  0
SPLINE
  5
1b4
100
AcDbEntity
  8
Layer_1
 62
7
100
AcDbSpline
 70
8
 71
3
 72
8
 73
4
 74
0
 40
0
 40
0
 40
0
 40
0
 40
1
 40
1
 40
1
 40
1
 10
92.243520
 20
126.162047
 30
0.0
 10
92.268448
 20
126.215895
 30
0.0
 10
92.302554
 20
126.262598
 30
0.0
 10
92.345837
 20
126.302153
 30
0.0
  0
SPLINE
  5
1b5
100
AcDbEntity
  8
Layer_1
 62
7
100
AcDbSpline
 70
8
 71
3
 72
8
 73
4
 74
0
 40
0
 40
0
 40
0
 40
0
 40
1
 40
1
 40
1
 40
1
 10
92.345837
 20
126.302153
 30
0.0
 10
92.416478
 20
126.367805
 30
0.0
 10
92.504660
 20
126.423141
 30
0.0
 10
92.610382
 20
126.468165
 30
0.0
  0
SPLINE
  5
1b6
100
AcDbEntity
  8
Layer_1
 62
7
100
AcDbSpline
 70
8
 71
3
 72
8
 73
4
 74
0
 40
0
 40
0
 40
0
 40
0
 40
1
 40
1
 40
1
 40
1
 10
92.610382
 20
126.468165
 30
0.0
 10
92.716104
 20
126.513186
 30
0.0
 10
92.857531
 20
126.555632
 30
0.0
 10
93.034663
 20
126.595504
 30
0.0
  0
SPLINE
  5
1b7
100
AcDbEntity
  8
Layer_1
 62
7
100
AcDbSpline
 70
8
 71
3
 72
8
 73
4
 74
0
 40
0
 40
0
 40
0
 40
0
 40
1
 40
1
 40
1
 40
1
 10
93.034663
 20
126.595504
 30
0.0
 10
93.309747
 20
126.657757
 30
0.0
 10
93.504951
 20
126.718429
 30
0.0
 10
93.620273
 20
126.777522
 30
0.0
  0
SPLINE
  5
1b8
100
AcDbEntity
  8
Layer_1
 62
7
100
AcDbSpline
 70
8
 71
3
 72
8
 73
4
 74
0
 40
0
 40
0
 40
0
 40
0
 40
1
 40
1
 40
1
 40
1
 10
93.620273
 20
126.777522
 30
0.0
 10
93.735593
 20
126.836614
 30
0.0
 10
93.814093
 20
126.907772
 30
0.0
 10
93.855775
 20
126.990993
 30
0.0
  0
SPLINE
  5
1b9
100
AcDbEntity
  8
Layer_1
 62
7
100
AcDbSpline
 70
8
 71
3
 72
8
 73
4
 74
0
 40
0
 40
0
 40
0
 40
0
 40
1
 40
1
 40
1
 40
1
 10
93.855775
 20
126.990993
 30
0.0
 10
93.899496
 20
127.078290
 30
0.0
 10
93.905167
 20
127.167552
 30
0.0
 10
93.872789
 20
127.258782
 30
0.0
  0
SPLINE
  5
1ba
100
AcDbEntity
  8
Layer_1
 62
7
100
AcDbSpline
 70
8
 71
3
 72
8
 73
4
 74
0
 40
0
 40
0
 40
0
 40
0
 40
1
 40
1
 40
1
 40
1
 10
93.872789
 20
127.258782
 30
0.0
 10
93.840406
 20
127.350005
 30
0.0
 10
93.774039
 20
127.420752
 30
0.0
 10
93.673688
 20
127.471014
 30
0.0
  0
SPLINE
  5
1bb
100
AcDbEntity
  8
Layer_1
 62
7
100
AcDbSpline
 70
8
 71
3
 72
8
 73
4
 74
0
 40
0
 40
0
 40
0
 40
0
 40
1
 40
1
 40
1
 40
1
 10
93.673688
 20
127.471014
 30
0.0
 10
93.567622
 20
127.524133
 30
0.0
 10
93.466834
 20
127.534809
 30
0.0
 10
93.371325
 20
127.503059
 30
0.0
  0
SPLINE
  5
1bc
100
AcDbEntity
  8
Layer_1
 62
7
100
AcDbSpline
 70
8
 71
3
 72
8
 73
4
 74
0
 40
0
 40
0
 40
0
 40
0
 40
1
 40
1
 40
1
 40
1
 10
93.371325
 20
127.503059
 30
0.0
 10
93.275812
 20
127.471286
 30
0.0
 10
93.199453
 20
127.399317
 30
0.0
 10
93.142249
 20
127.287136
 30
0.0
  0
LWPOLYLINE
  5
1bd
100
AcDbEntity
  8
Layer_1
 62
7
100
AcDbPolyline
 90
3
 70
0
 10
93.535438
 20
125.779833
 30
0.0
 10
93.429400
 20
125.568112
 30
0.0
 10
92.243520
 20
126.162047
 30
0.0
  0
SPLINE
  5
1be
100
AcDbEntity
  8
Layer_1
 62
7
100
AcDbSpline
 70
8
 71
3
 72
8
 73
4
 74
0
 40
0
 40
0
 40
0
 40
0
 40
1
 40
1
 40
1
 40
1
 10
92.927488
 20
127.423783
 30
0.0
 10
93.027574
 20
127.584904
 30
0.0
 10
93.150369
 20
127.684393
 30
0.0
 10
93.295875
 20
127.722248
 30
0.0
  0
SPLINE
  5
1bf
100
AcDbEntity
  8
Layer_1
 62
7
100
AcDbSpline
 70
8
 71
3
 72
8
 73
4
 74
0
 40
0
 40
0
 40
0
 40
0
 40
1
 40
1
 40
1
 40
1
 10
93.295875
 20
127.722248
 30
0.0
 10
93.441379
 20
127.760097
 30
0.0
 10
93.599390
 20
127.736313
 30
0.0
 10
93.769911
 20
127.650923
 30
0.0
  0
SPLINE
  5
1c0
100
AcDbEntity
  8
Layer_1
 62
7
100
AcDbSpline
 70
8
 71
3
 72
8
 73
4
 74
0
 40
0
 40
0
 40
0
 40
0
 40
1
 40
1
 40
1
 40
1
 10
93.769911
 20
127.650923
 30
0.0
 10
93.942059
 20
127.564703
 30
0.0
 10
94.054406
 20
127.448735
 30
0.0
 10
94.106952
 20
127.303016
 30
0.0
  0
SPLINE
  5
1c1
100
AcDbEntity
  8
Layer_1
 62
7
100
AcDbSpline
 70
8
 71
3
 72
8
 73
4
 74
0
 40
0
 40
0
 40
0
 40
0
 40
1
 40
1
 40
1
 40
1
 10
94.106952
 20
127.303016
 30
0.0
 10
94.159494
 20
127.157298
 30
0.0
 10
94.150420
 20
127.013864
 30
0.0
 10
94.079732
 20
126.872716
 30
0.0
  0
SPLINE
  5
1c2
100
AcDbEntity
  8
Layer_1
 62
7
100
AcDbSpline
 70
8
 71
3
 72
8
 73
4
 74
0
 40
0
 40
0
 40
0
 40
0
 40
1
 40
1
 40
1
 40
1
 10
94.079732
 20
126.872716
 30
0.0
 10
94.043771
 20
126.800921
 30
0.0
 10
93.993740
 20
126.737701
 30
0.0
 10
93.929637
 20
126.683063
 30
0.0
  0
SPLINE
  5
1c3
100
AcDbEntity
  8
Layer_1
 62
7
100
AcDbSpline
 70
8
 71
3
 72
8
 73
4
 74
0
 40
0
 40
0
 40
0
 40
0
 40
1
 40
1
 40
1
 40
1
 10
93.929637
 20
126.683063
 30
0.0
 10
93.865530
 20
126.628422
 30
0.0
 10
93.780210
 20
126.579818
 30
0.0
 10
93.673675
 20
126.537246
 30
0.0
  0
SPLINE
  5
1c4
100
AcDbEntity
  8
Layer_1
 62
7
100
AcDbSpline
 70
8
 71
3
 72
8
 73
4
 74
0
 40
0
 40
0
 40
0
 40
0
 40
1
 40
1
 40
1
 40
1
 10
93.673675
 20
126.537246
 30
0.0
 10
93.567137
 20
126.494674
 30
0.0
 10
93.401221
 20
126.446121
 30
0.0
 10
93.175928
 20
126.391589
 30
0.0
  0
SPLINE
  5
1c5
100
AcDbEntity
  8
Layer_1
 62
7
100
AcDbSpline
 70
8
 71
3
 72
8
 73
4
 74
0
 40
0
 40
0
 40
0
 40
0
 40
1
 40
1
 40
1
 40
1
 10
93.175928
 20
126.391589
 30
0.0
 10
92.988182
 20
126.346827
 30
0.0
 10
92.865635
 20
126.314059
 30
0.0
 10
92.808287
 20
126.293285
 30
0.0
  0
SPLINE
  5
1c6
100
AcDbEntity
  8
Layer_1
 62
7
100
AcDbSpline
 70
8
 71
3
 72
8
 73
4
 74
0
 40
0
 40
0
 40
0
 40
0
 40
1
 40
1
 40
1
 40
1
 10
92.808287
 20
126.293285
 30
0.0
 10
92.750937
 20
126.272512
 30
0.0
 10
92.700014
 20
126.248264
 30
0.0
 10
92.655515
 20
126.220547
 30
0.0
  0
LWPOLYLINE
  5
1c7
100
AcDbEntity
  8
Layer_1
 62
7
100
AcDbPolyline
 90
2
 70
0
 10
93.142249
 20
127.287136
 30
0.0
 10
92.927488
 20
127.423783
 30
0.0
  0
SPLINE
  5
1c8
100
AcDbEntity
  8
Layer_1
 62
7
100
AcDbSpline
 70
8
 71
3
 72
8
 73
4
 74
0
 40
0
 40
0
 40
0
 40
0
 40
1
 40
1
 40
1
 40
1
 10
94.169148
 20
126.292049
 30
0.0
 10
94.290404
 20
126.495968
 30
0.0
 10
94.408971
 20
126.647608
 30
0.0
 10
94.524852
 20
126.746971
 30
0.0
  0
SPLINE
  5
1c9
100
AcDbEntity
  8
Layer_1
 62
7
100
AcDbSpline
 70
8
 71
3
 72
8
 73
4
 74
0
 40
0
 40
0
 40
0
 40
0
 40
1
 40
1
 40
1
 40
1
 10
94.524852
 20
126.746971
 30
0.0
 10
94.640730
 20
126.846330
 30
0.0
 10
94.760096
 20
126.905137
 30
0.0
 10
94.882949
 20
126.923387
 30
0.0
  0
SPLINE
  5
1ca
100
AcDbEntity
  8
Layer_1
 62
7
100
AcDbSpline
 70
8
 71
3
 72
8
 73
4
 74
0
 40
0
 40
0
 40
0
 40
0
 40
1
 40
1
 40
1
 40
1
 10
94.882949
 20
126.923387
 30
0.0
 10
95.005799
 20
126.941640
 30
0.0
 10
95.129969
 20
126.913443
 30
0.0
 10
95.255459
 20
126.838831
 30
0.0
  0
SPLINE
  5
1cb
100
AcDbEntity
  8
Layer_1
 62
7
100
AcDbSpline
 70
8
 71
3
 72
8
 73
4
 74
0
 40
0
 40
0
 40
0
 40
0
 40
1
 40
1
 40
1
 40
1
 10
95.255459
 20
126.838831
 30
0.0
 10
95.348006
 20
126.783798
 30
0.0
 10
95.418105
 20
126.716900
 30
0.0
 10
95.465757
 20
126.638141
 30
0.0
  0
SPLINE
  5
1cc
100
AcDbEntity
  8
Layer_1
 62
7
100
AcDbSpline
 70
8
 71
3
 72
8
 73
4
 74
0
 40
0
 40
0
 40
0
 40
0
 40
1
 40
1
 40
1
 40
1
 10
95.465757
 20
126.638141
 30
0.0
 10
95.513405
 20
126.559378
 30
0.0
 10
95.539105
 20
126.471376
 30
0.0
 10
95.542857
 20
126.374132
 30
0.0
  0
SPLINE
  5
1cd
100
AcDbEntity
  8
Layer_1
 62
7
100
AcDbSpline
 70
8
 71
3
 72
8
 73
4
 74
0
 40
0
 40
0
 40
0
 40
0
 40
1
 40
1
 40
1
 40
1
 10
95.542857
 20
126.374132
 30
0.0
 10
95.546603
 20
126.276888
 30
0.0
 10
95.531455
 20
126.170176
 30
0.0
 10
95.497412
 20
126.054004
 30
0.0
  0
SPLINE
  5
1ce
100
AcDbEntity
  8
Layer_1
 62
7
100
AcDbSpline
 70
8
 71
3
 72
8
 73
4
 74
0
 40
0
 40
0
 40
0
 40
0
 40
1
 40
1
 40
1
 40
1
 10
95.497412
 20
126.054004
 30
0.0
 10
95.463363
 20
125.937831
 30
0.0
 10
95.395506
 20
125.794255
 30
0.0
 10
95.293840
 20
125.623278
 30
0.0
  0
SPLINE
  5
1cf
100
AcDbEntity
  8
Layer_1
 62
7
100
AcDbSpline
 70
8
 71
3
 72
8
 73
4
 74
0
 40
0
 40
0
 40
0
 40
0
 40
1
 40
1
 40
1
 40
1
 10
95.293840
 20
125.623278
 30
0.0
 10
95.173515
 20
125.420929
 30
0.0
 10
95.055610
 20
125.269956
 30
0.0
 10
94.940124
 20
125.170362
 30
0.0
  0
SPLINE
  5
1d0
100
AcDbEntity
  8
Layer_1
 62
7
100
AcDbSpline
 70
8
 71
3
 72
8
 73
4
 74
0
 40
0
 40
0
 40
0
 40
0
 40
1
 40
1
 40
1
 40
1
 10
94.940124
 20
125.170362
 30
0.0
 10
94.824635
 20
125.070768
 30
0.0
 10
94.705349
 20
125.011648
 30
0.0
 10
94.582265
 20
124.993010
 30
0.0
  0
SPLINE
  5
1d1
100
AcDbEntity
  8
Layer_1
 62
7
100
AcDbSpline
 70
8
 71
3
 72
8
 73
4
 74
0
 40
0
 40
0
 40
0
 40
0
 40
1
 40
1
 40
1
 40
1
 10
94.582265
 20
124.993010
 30
0.0
 10
94.459179
 20
124.974381
 30
0.0
 10
94.334501
 20
125.002579
 30
0.0
 10
94.208229
 20
125.077674
 30
0.0
  0
SPLINE
  5
1d2
100
AcDbEntity
  8
Layer_1
 62
7
100
AcDbSpline
 70
8
 71
3
 72
8
 73
4
 74
0
 40
0
 40
0
 40
0
 40
0
 40
1
 40
1
 40
1
 40
1
 10
94.208229
 20
125.077674
 30
0.0
 10
94.041955
 20
125.176546
 30
0.0
 10
93.946813
 20
125.313802
 30
0.0
 10
93.922801
 20
125.489448
 30
0.0
  0
SPLINE
  5
1d3
100
AcDbEntity
  8
Layer_1
 62
7
100
AcDbSpline
 70
8
 71
3
 72
8
 73
4
 74
0
 40
0
 40
0
 40
0
 40
0
 40
1
 40
1
 40
1
 40
1
 10
93.922801
 20
125.489448
 30
0.0
 10
93.894423
 20
125.700600
 30
0.0
 10
93.976538
 20
125.968134
 30
0.0
 10
94.169148
 20
126.292049
 30
0.0
  0
LWPOLYLINE
  5
1d4
100
AcDbEntity
  8
Layer_1
 62
7
100
AcDbPolyline
 90
2
 70
0
 10
92.655515
 20
126.220547
 30
0.0
 10
93.535438
 20
125.779833
 30
0.0
  0
SPLINE
  5
1d5
100
AcDbEntity
  8
Layer_1
 62
7
100
AcDbSpline
 70
8
 71
3
 72
8
 73
4
 74
0
 40
0
 40
0
 40
0
 40
0
 40
1
 40
1
 40
1
 40
1
 10
94.386793
 20
126.162633
 30
0.0
 10
94.218433
 20
125.879498
 30
0.0
 10
94.139525
 20
125.671367
 30
0.0
 10
94.150068
 20
125.538235
 30
0.0
  0
SPLINE
  5
1d6
100
AcDbEntity
  8
Layer_1
 62
7
100
AcDbSpline
 70
8
 71
3
 72
8
 73
4
 74
0
 40
0
 40
0
 40
0
 40
0
 40
1
 40
1
 40
1
 40
1
 10
94.150068
 20
125.538235
 30
0.0
 10
94.160611
 20
125.405100
 30
0.0
 10
94.214508
 20
125.309620
 30
0.0
 10
94.311762
 20
125.251791
 30
0.0
  0
SPLINE
  5
1d7
100
AcDbEntity
  8
Layer_1
 62
7
100
AcDbSpline
 70
8
 71
3
 72
8
 73
4
 74
0
 40
0
 40
0
 40
0
 40
0
 40
1
 40
1
 40
1
 40
1
 10
94.311762
 20
125.251791
 30
0.0
 10
94.409015
 20
125.193962
 30
0.0
 10
94.518761
 20
125.192402
 30
0.0
 10
94.641000
 20
125.247125
 30
0.0
  0
SPLINE
  5
1d8
100
AcDbEntity
  8
Layer_1
 62
7
100
AcDbSpline
 70
8
 71
3
 72
8
 73
4
 74
0
 40
0
 40
0
 40
0
 40
0
 40
1
 40
1
 40
1
 40
1
 10
94.641000
 20
125.247125
 30
0.0
 10
94.763236
 20
125.301835
 30
0.0
 10
94.908301
 20
125.470364
 30
0.0
 10
95.076196
 20
125.752711
 30
0.0
  0
SPLINE
  5
1d9
100
AcDbEntity
  8
Layer_1
 62
7
100
AcDbSpline
 70
8
 71
3
 72
8
 73
4
 74
0
 40
0
 40
0
 40
0
 40
0
 40
1
 40
1
 40
1
 40
1
 10
95.076196
 20
125.752711
 30
0.0
 10
95.245019
 20
126.036629
 30
0.0
 10
95.324044
 20
126.244958
 30
0.0
 10
95.313270
 20
126.377701
 30
0.0
  0
SPLINE
  5
1da
100
AcDbEntity
  8
Layer_1
 62
7
100
AcDbSpline
 70
8
 71
3
 72
8
 73
4
 74
0
 40
0
 40
0
 40
0
 40
0
 40
1
 40
1
 40
1
 40
1
 10
95.313270
 20
126.377701
 30
0.0
 10
95.302492
 20
126.510438
 30
0.0
 10
95.247693
 20
126.606191
 30
0.0
 10
95.148873
 20
126.664953
 30
0.0
  0
SPLINE
  5
1db
100
AcDbEntity
  8
Layer_1
 62
7
100
AcDbSpline
 70
8
 71
3
 72
8
 73
4
 74
0
 40
0
 40
0
 40
0
 40
0
 40
1
 40
1
 40
1
 40
1
 10
95.148873
 20
126.664953
 30
0.0
 10
95.051618
 20
126.722782
 30
0.0
 10
94.949488
 20
126.727778
 30
0.0
 10
94.842482
 20
126.679937
 30
0.0
  0
SPLINE
  5
1dc
100
AcDbEntity
  8
Layer_1
 62
7
100
AcDbSpline
 70
8
 71
3
 72
8
 73
4
 74
0
 40
0
 40
0
 40
0
 40
0
 40
1
 40
1
 40
1
 40
1
 10
94.842482
 20
126.679937
 30
0.0
 10
94.707047
 20
126.618212
 30
0.0
 10
94.555151
 20
126.445784
 30
0.0
 10
94.386793
 20
126.162650
 30
0.0
  0
LWPOLYLINE
  5
1dd
100
AcDbEntity
  8
Layer_1
 62
7
100
AcDbPolyline
 90
2
 70
0
 10
94.169148
 20
126.292049
 30
0.0
 10
94.169148
 20
126.292049
 30
0.0
  0
LWPOLYLINE
  5
1de
100
AcDbEntity
  8
Layer_1
 62
7
100
AcDbPolyline
 90
2
 70
0
 10
94.386793
 20
126.162650
 30
0.0
 10
94.386793
 20
126.162633
 30
0.0
  0
SPLINE
  5
1df
100
AcDbEntity
  8
Layer_1
 62
7
100
AcDbSpline
 70
8
 71
3
 72
8
 73
4
 74
0
 40
0
 40
0
 40
0
 40
0
 40
1
 40
1
 40
1
 40
1
 10
96.457143
 20
125.535225
 30
0.0
 10
96.376138
 20
125.522693
 30
0.0
 10
96.279971
 20
125.520752
 30
0.0
 10
96.168643
 20
125.529333
 30
0.0
  0
SPLINE
  5
1e0
100
AcDbEntity
  8
Layer_1
 62
7
100
AcDbSpline
 70
8
 71
3
 72
8
 73
4
 74
0
 40
0
 40
0
 40
0
 40
0
 40
1
 40
1
 40
1
 40
1
 10
96.168643
 20
125.529333
 30
0.0
 10
96.057313
 20
125.537915
 30
0.0
 10
95.962117
 20
125.552525
 30
0.0
 10
95.883055
 20
125.573122
 30
0.0
  0
LWPOLYLINE
  5
1e1
100
AcDbEntity
  8
Layer_1
 62
7
100
AcDbPolyline
 90
3
 70
0
 10
95.762041
 20
124.106163
 30
0.0
 10
95.559874
 20
124.246971
 30
0.0
 10
96.457143
 20
125.535225
 30
0.0
  0
SPLINE
  5
1e2
100
AcDbEntity
  8
Layer_1
 62
7
100
AcDbSpline
 70
8
 71
3
 72
8
 73
4
 74
0
 40
0
 40
0
 40
0
 40
0
 40
1
 40
1
 40
1
 40
1
 10
96.019171
 20
125.768550
 30
0.0
 10
96.169261
 20
125.742975
 30
0.0
 10
96.312949
 20
125.738514
 30
0.0
 10
96.450234
 20
125.755201
 30
0.0
  0
SPLINE
  5
1e3
100
AcDbEntity
  8
Layer_1
 62
7
100
AcDbSpline
 70
8
 71
3
 72
8
 73
4
 74
0
 40
0
 40
0
 40
0
 40
0
 40
1
 40
1
 40
1
 40
1
 10
96.450234
 20
125.755201
 30
0.0
 10
96.587516
 20
125.771888
 30
0.0
 10
96.698526
 20
125.803552
 30
0.0
 10
96.783264
 20
125.850174
 30
0.0
  0
LWPOLYLINE
  5
1e4
100
AcDbEntity
  8
Layer_1
 62
7
100
AcDbPolyline
 90
2
 70
0
 10
95.883055
 20
125.573122
 30
0.0
 10
96.019171
 20
125.768550
 30
0.0
  0
LWPOLYLINE
  5
1e5
100
AcDbEntity
  8
Layer_1
 62
7
100
AcDbPolyline
 90
3
 70
0
 10
96.783264
 20
125.850174
 30
0.0
 10
96.913550
 20
125.759430
 30
0.0
 10
95.762041
 20
124.106163
 30
0.0
  0
SPLINE
  5
1e6
100
AcDbEntity
  8
Layer_1
 62
7
100
AcDbSpline
 70
8
 71
3
 72
8
 73
4
 74
0
 40
0
 40
0
 40
0
 40
0
 40
1
 40
1
 40
1
 40
1
 10
96.251969
 20
123.757452
 30
0.0
 10
96.287849
 20
123.804714
 30
0.0
 10
96.331162
 20
123.843029
 30
0.0
 10
96.381910
 20
123.872402
 30
0.0
  0
SPLINE
  5
1e7
100
AcDbEntity
  8
Layer_1
 62
7
100
AcDbSpline
 70
8
 71
3
 72
8
 73
4
 74
0
 40
0
 40
0
 40
0
 40
0
 40
1
 40
1
 40
1
 40
1
 10
96.381910
 20
123.872402
 30
0.0
 10
96.464970
 20
123.921407
 30
0.0
 10
96.562954
 20
123.956579
 30
0.0
 10
96.675864
 20
123.977922
 30
0.0
  0
SPLINE
  5
1e8
100
AcDbEntity
  8
Layer_1
 62
7
100
AcDbSpline
 70
8
 71
3
 72
8
 73
4
 74
0
 40
0
 40
0
 40
0
 40
0
 40
1
 40
1
 40
1
 40
1
 10
96.675864
 20
123.977922
 30
0.0
 10
96.788774
 20
123.999274
 30
0.0
 10
96.936009
 20
124.010444
 30
0.0
 10
97.117571
 20
124.011466
 30
0.0
  0
SPLINE
  5
1e9
100
AcDbEntity
  8
Layer_1
 62
7
100
AcDbSpline
 70
8
 71
3
 72
8
 73
4
 74
0
 40
0
 40
0
 40
0
 40
0
 40
1
 40
1
 40
1
 40
1
 10
97.117571
 20
124.011466
 30
0.0
 10
97.399604
 20
124.013509
 30
0.0
 10
97.603271
 20
124.030843
 30
0.0
 10
97.728572
 20
124.063880
 30
0.0
  0
SPLINE
  5
1ea
100
AcDbEntity
  8
Layer_1
 62
7
100
AcDbSpline
 70
8
 71
3
 72
8
 73
4
 74
0
 40
0
 40
0
 40
0
 40
0
 40
1
 40
1
 40
1
 40
1
 10
97.728572
 20
124.063880
 30
0.0
 10
97.853869
 20
124.096914
 30
0.0
 10
97.945784
 20
124.149614
 30
0.0
 10
98.004317
 20
124.221978
 30
0.0
  0
SPLINE
  5
1eb
100
AcDbEntity
  8
Layer_1
 62
7
100
AcDbSpline
 70
8
 71
3
 72
8
 73
4
 74
0
 40
0
 40
0
 40
0
 40
0
 40
1
 40
1
 40
1
 40
1
 10
98.004317
 20
124.221978
 30
0.0
 10
98.065715
 20
124.297893
 30
0.0
 10
98.090366
 20
124.383869
 30
0.0
 10
98.078269
 20
124.479915
 30
0.0
  0
SPLINE
  5
1ec
100
AcDbEntity
  8
Layer_1
 62
7
100
AcDbSpline
 70
8
 71
3
 72
8
 73
4
 74
0
 40
0
 40
0
 40
0
 40
0
 40
1
 40
1
 40
1
 40
1
 10
98.078269
 20
124.479915
 30
0.0
 10
98.066170
 20
124.575960
 30
0.0
 10
98.016488
 20
124.659273
 30
0.0
 10
97.929225
 20
124.729852
 30
0.0
  0
SPLINE
  5
1ed
100
AcDbEntity
  8
Layer_1
 62
7
100
AcDbSpline
 70
8
 71
3
 72
8
 73
4
 74
0
 40
0
 40
0
 40
0
 40
0
 40
1
 40
1
 40
1
 40
1
 10
97.929225
 20
124.729852
 30
0.0
 10
97.836992
 20
124.804450
 30
0.0
 10
97.740827
 20
124.836458
 30
0.0
 10
97.640731
 20
124.825881
 30
0.0
  0
SPLINE
  5
1ee
100
AcDbEntity
  8
Layer_1
 62
7
100
AcDbSpline
 70
8
 71
3
 72
8
 73
4
 74
0
 40
0
 40
0
 40
0
 40
0
 40
1
 40
1
 40
1
 40
1
 10
97.640731
 20
124.825881
 30
0.0
 10
97.540632
 20
124.815289
 30
0.0
 10
97.450635
 20
124.761343
 30
0.0
 10
97.370738
 20
124.664010
 30
0.0
  0
LWPOLYLINE
  5
1ef
100
AcDbEntity
  8
Layer_1
 62
7
100
AcDbPolyline
 90
3
 70
0
 10
97.432095
 20
123.107497
 30
0.0
 10
97.283186
 20
122.923388
 30
0.0
 10
96.251969
 20
123.757452
 30
0.0
  0
SPLINE
  5
1f0
100
AcDbEntity
  8
Layer_1
 62
7
100
AcDbSpline
 70
8
 71
3
 72
8
 73
4
 74
0
 40
0
 40
0
 40
0
 40
0
 40
1
 40
1
 40
1
 40
1
 10
97.190213
 20
124.843467
 30
0.0
 10
97.322475
 20
124.979425
 30
0.0
 10
97.463724
 20
125.050314
 30
0.0
 10
97.613961
 20
125.056141
 30
0.0
  0
SPLINE
  5
1f1
100
AcDbEntity
  8
Layer_1
 62
7
100
AcDbSpline
 70
8
 71
3
 72
8
 73
4
 74
0
 40
0
 40
0
 40
0
 40
0
 40
1
 40
1
 40
1
 40
1
 10
97.613961
 20
125.056141
 30
0.0
 10
97.764194
 20
125.061964
 30
0.0
 10
97.913451
 20
125.004908
 30
0.0
 10
98.061733
 20
124.884976
 30
0.0
  0
SPLINE
  5
1f2
100
AcDbEntity
  8
Layer_1
 62
7
100
AcDbSpline
 70
8
 71
3
 72
8
 73
4
 74
0
 40
0
 40
0
 40
0
 40
0
 40
1
 40
1
 40
1
 40
1
 10
98.061733
 20
124.884976
 30
0.0
 10
98.211429
 20
124.763897
 30
0.0
 10
98.296342
 20
124.626566
 30
0.0
 10
98.316471
 20
124.472978
 30
0.0
  0
SPLINE
  5
1f3
100
AcDbEntity
  8
Layer_1
 62
7
100
AcDbSpline
 70
8
 71
3
 72
8
 73
4
 74
0
 40
0
 40
0
 40
0
 40
0
 40
1
 40
1
 40
1
 40
1
 10
98.316471
 20
124.472978
 30
0.0
 10
98.336594
 20
124.319386
 30
0.0
 10
98.297022
 20
124.181224
 30
0.0
 10
98.197752
 20
124.058482
 30
0.0
  0
SPLINE
  5
1f4
100
AcDbEntity
  8
Layer_1
 62
7
100
AcDbSpline
 70
8
 71
3
 72
8
 73
4
 74
0
 40
0
 40
0
 40
0
 40
0
 40
1
 40
1
 40
1
 40
1
 10
98.197752
 20
124.058482
 30
0.0
 10
98.147253
 20
123.996049
 30
0.0
 10
98.084847
 20
123.945011
 30
0.0
 10
98.010532
 20
123.905364
 30
0.0
  0
SPLINE
  5
1f5
100
AcDbEntity
  8
Layer_1
 62
7
100
AcDbSpline
 70
8
 71
3
 72
8
 73
4
 74
0
 40
0
 40
0
 40
0
 40
0
 40
1
 40
1
 40
1
 40
1
 10
98.010532
 20
123.905364
 30
0.0
 10
97.936213
 20
123.865717
 30
0.0
 10
97.842465
 20
123.836504
 30
0.0
 10
97.729285
 20
123.817730
 30
0.0
  0
SPLINE
  5
1f6
100
AcDbEntity
  8
Layer_1
 62
7
100
AcDbSpline
 70
8
 71
3
 72
8
 73
4
 74
0
 40
0
 40
0
 40
0
 40
0
 40
1
 40
1
 40
1
 40
1
 10
97.729285
 20
123.817730
 30
0.0
 10
97.616103
 20
123.798965
 30
0.0
 10
97.443640
 20
123.787046
 30
0.0
 10
97.211895
 20
123.782020
 30
0.0
  0
SPLINE
  5
1f7
100
AcDbEntity
  8
Layer_1
 62
7
100
AcDbSpline
 70
8
 71
3
 72
8
 73
4
 74
0
 40
0
 40
0
 40
0
 40
0
 40
1
 40
1
 40
1
 40
1
 10
97.211895
 20
123.782020
 30
0.0
 10
97.018919
 20
123.778478
 30
0.0
 10
96.892198
 20
123.772723
 30
0.0
 10
96.831732
 20
123.764720
 30
0.0
  0
SPLINE
  5
1f8
100
AcDbEntity
  8
Layer_1
 62
7
100
AcDbSpline
 70
8
 71
3
 72
8
 73
4
 74
0
 40
0
 40
0
 40
0
 40
0
 40
1
 40
1
 40
1
 40
1
 10
96.831732
 20
123.764720
 30
0.0
 10
96.771265
 20
123.756717
 30
0.0
 10
96.716331
 20
123.743912
 30
0.0
 10
96.666930
 20
123.726377
 30
0.0
  0
LWPOLYLINE
  5
1f9
100
AcDbEntity
  8
Layer_1
 62
7
100
AcDbPolyline
 90
2
 70
0
 10
97.370738
 20
124.664010
 30
0.0
 10
97.190213
 20
124.843467
 30
0.0
  0
LWPOLYLINE
  5
1fa
100
AcDbEntity
  8
Layer_1
 62
7
100
AcDbPolyline
 90
2
 70
0
 10
96.666930
 20
123.726377
 30
0.0
 10
97.432095
 20
123.107497
 30
0.0
  0
ENDSEC
  0
SECTION
  2
OBJECTS
  0
DICTIONARY
  5
C
330
0
100
AcDbDictionary
  3
ACAD_GROUP
350
D
  3
ACAD_MLINESTYLE
350
17
  0
DICTIONARY
  5
D
330
C
100
AcDbDictionary
  0
DICTIONARY
  5
1A
330
C
100
AcDbDictionary
  0
DICTIONARY
  5
17
330
C
100
AcDbDictionary
  3
STANDARD
350
18
  0
DICTIONARY
  5
19
330
C
100
AcDbDictionary
  0
ENDSEC
  0
EOF
