<?xml version="1.0" encoding="UTF-8" standalone="no"?>
<!-- Created with Inkscape (http://www.inkscape.org/) -->

<svg
   xmlns:dc="http://purl.org/dc/elements/1.1/"
   xmlns:cc="http://creativecommons.org/ns#"
   xmlns:rdf="http://www.w3.org/1999/02/22-rdf-syntax-ns#"
   xmlns:svg="http://www.w3.org/2000/svg"
   xmlns="http://www.w3.org/2000/svg"
   xmlns:sodipodi="http://sodipodi.sourceforge.net/DTD/sodipodi-0.dtd"
   xmlns:inkscape="http://www.inkscape.org/namespaces/inkscape"
   width="744.09448819"
   height="1052.3622047"
   id="svg2"
   version="1.1"
   inkscape:version="0.48.2 r9819"
   sodipodi:docname="lighting.svg">
  <defs
     id="defs4" />
  <sodipodi:namedview
     id="base"
     pagecolor="#ffffff"
     bordercolor="#666666"
     borderopacity="1.0"
     inkscape:pageopacity="0.0"
     inkscape:pageshadow="2"
     inkscape:zoom="2.8"
     inkscape:cx="30.897882"
     inkscape:cy="982.67153"
     inkscape:document-units="mm"
     inkscape:current-layer="layer1"
     showgrid="false"
     inkscape:object-paths="true"
     inkscape:window-width="1280"
     inkscape:window-height="972"
     inkscape:window-x="-8"
     inkscape:window-y="-8"
     inkscape:window-maximized="1" />
  <metadata
     id="metadata7">
    <rdf:RDF>
      <cc:Work
         rdf:about="">
        <dc:format>image/svg+xml</dc:format>
        <dc:type
           rdf:resource="http://purl.org/dc/dcmitype/StillImage" />
        <dc:title></dc:title>
      </cc:Work>
    </rdf:RDF>
  </metadata>
  <g
     inkscape:label="Layer 1"
     inkscape:groupmode="layer"
     id="layer1">
    <path
       sodipodi:type="arc"
       style="fill:#00ff00;fill-opacity:0;stroke:#000000;stroke-width:1.77165353;stroke-miterlimit:4;stroke-opacity:1;stroke-dasharray:none"
       id="path2985"
       sodipodi:cx="71.428574"
       sodipodi:cy="70.933609"
       sodipodi:rx="71.428574"
       sodipodi:ry="71.428574"
       d="m 142.85715,70.933609 a 71.428574,71.428574 0 1 1 -142.85715,0 71.428574,71.428574 0 1 1 142.85715,0 z"
       transform="matrix(0.73497956,0,0,0.73497956,1.4080948,1.4941219)" />
    <g
       style="font-size:40px;font-style:normal;font-variant:normal;font-weight:normal;font-stretch:normal;line-height:125%;letter-spacing:0px;word-spacing:0px;fill:#ff0000;fill-opacity:1;stroke:none;font-family:Army;-inkscape-font-specification:Army"
       id="text2987">
      <path
         d="m 42.599979,31.65667 -0.919799,3.419799 -2.579956,0 -3.460083,-11.680297 c -0.01343,-0.03986 -0.03011,-0.07974 -0.05005,-0.119629 -0.01994,-0.03986 -0.03662,-0.07323 -0.05005,-0.100098 -0.02686,-0.08015 -0.06022,-0.136808 -0.100098,-0.169983 -0.03988,-0.03315 -0.0999,-0.06316 -0.180053,-0.09003 -0.06673,-0.02644 -0.123394,-0.05309 -0.169983,-0.07996 -0.04659,-0.02684 -0.08982,-0.0535 -0.1297,-0.07996 -0.08016,-0.05329 -0.133566,-0.109952 -0.160217,-0.169983 -0.02665,-0.06001 -0.03998,-0.136604 -0.03998,-0.229797 -10e-7,-0.200183 0.0767,-0.350227 0.230102,-0.450134 0.153401,-0.09988 0.390014,-0.149828 0.709839,-0.149842 l 4.34021,-0.02014 c 0.266514,0.01344 0.446466,0.02677 0.539856,0.03998 0.09338,0.01324 0.166721,0.03328 0.220032,0.06012 0.08015,0.03989 0.146884,0.103163 0.200195,0.18982 0.0533,0.08668 0.07995,0.183321 0.07996,0.289917 -7e-6,0.10662 -0.02666,0.203259 -0.07996,0.289917 -0.05331,0.08668 -0.13998,0.156669 -0.26001,0.209961 -0.173346,0.08017 -0.290024,0.166943 -0.350036,0.260315 -0.06002,0.0934 -0.09003,0.220043 -0.09003,0.379943 l 0.03967,0.239869 2.260131,7.960205 z m 0.380249,-1.400147 -0.520019,-1.84021 1.119995,-4.099731 0.05981,-0.460205 c -9e-6,-0.226633 -0.05006,-0.423268 -0.150146,-0.589905 -0.100107,-0.166614 -0.236825,-0.283293 -0.410156,-0.350037 l -0.299683,-0.120239 c -0.120044,-0.02644 -0.213428,-0.08635 -0.280151,-0.179749 -0.06674,-0.09337 -0.100106,-0.193367 -0.100098,-0.299987 -8e-6,-0.186755 0.07334,-0.326729 0.220032,-0.419922 0.146679,-0.09317 0.346773,-0.139757 0.600281,-0.139771 l 2.37976,-0.02014 c 0.306792,0.01344 0.520212,0.06013 0.640259,0.140075 0.120024,0.07997 0.180042,0.213128 0.180054,0.399475 -1.2e-5,0.120049 -0.02341,0.213433 -0.07019,0.280152 -0.0468,0.06674 -0.13673,0.133476 -0.269775,0.200195 l -0.500488,0.219727 c -0.01303,0.02687 -0.02961,0.04365 -0.04974,0.05035 -0.02015,0.0067 -0.03673,0.01659 -0.04974,0.0296 -0.186778,0.120047 -0.363475,0.320141 -0.53009,0.600281 -0.166636,0.280162 -0.303253,0.586863 -0.409851,0.920104 l -1.560059,5.679932 z"
         style="font-size:20px"
         id="path3024" />
      <path
         d="m 52.93018,35.076469 -4.359742,0 -0.260009,0 c -0.253501,0 -0.440269,-0.04333 -0.560303,-0.130004 -0.120037,-0.08667 -0.180055,-0.216675 -0.180054,-0.390015 -1e-6,-0.120035 0.03336,-0.223388 0.100098,-0.310059 0.06673,-0.08667 0.166828,-0.149942 0.300293,-0.189819 0.0533,-0.01343 0.103249,-0.03011 0.149841,-0.05005 0.04659,-0.01994 0.09003,-0.03662 0.13031,-0.05005 0.146483,-0.06673 0.236408,-0.140074 0.269776,-0.220031 0.03336,-0.07995 0.05005,-0.220031 0.05005,-0.420227 l 0,-9.799805 c -2e-6,-0.186756 -0.01669,-0.320118 -0.05005,-0.400086 -0.03337,-0.07994 -0.123293,-0.153287 -0.269776,-0.220031 -0.04028,-0.01301 -0.08372,-0.02959 -0.13031,-0.04974 -0.04659,-0.02013 -0.09654,-0.03691 -0.149841,-0.05035 -0.133465,-0.03986 -0.233563,-0.103137 -0.300293,-0.189819 -0.06673,-0.08666 -0.100099,-0.19001 -0.100098,-0.310059 -1e-6,-0.186755 0.06337,-0.323371 0.190125,-0.409851 0.126748,-0.08645 0.310159,-0.129686 0.550232,-0.1297 l 0.260009,-0.02014 4.359742,0 0.260009,0 c 0.240065,0.02646 0.416762,0.07966 0.530091,0.159607 0.113314,0.07997 0.169975,0.206617 0.169983,0.379943 -8e-6,0.133477 -0.03002,0.243543 -0.09003,0.330201 -0.06002,0.08668 -0.156766,0.149955 -0.290222,0.189819 l -0.299683,0.08057 c -0.09319,0.03989 -0.163174,0.113131 -0.209961,0.219727 -0.0468,0.10662 -0.0702,0.253308 -0.07019,0.440063 l 0,9.760132 c -7e-6,0.186363 0.02339,0.336204 0.07019,0.449524 0.04679,0.113323 0.116774,0.183412 0.209961,0.210266 l 0.299683,0.07996 c 0.133456,0.0533 0.230197,0.123292 0.290222,0.209961 0.06001,0.08667 0.09002,0.196738 0.09003,0.3302 -8e-6,0.173341 -0.05667,0.299988 -0.169983,0.379944 -0.113329,0.07996 -0.290026,0.119934 -0.530091,0.119934 l -0.260009,0 z m 0.80017,-7.299804 1.580201,0 0,-4.260254 c -9e-6,-0.173328 -0.02341,-0.313302 -0.07019,-0.419922 -0.0468,-0.106596 -0.116789,-0.173328 -0.209961,-0.200195 l -0.319824,-0.119629 c -0.120044,-0.02684 -0.21007,-0.08025 -0.27008,-0.160218 -0.06003,-0.07994 -0.09004,-0.186653 -0.09003,-0.320129 -8e-6,-0.186755 0.05665,-0.323371 0.169983,-0.409851 0.113313,-0.08645 0.283296,-0.129686 0.509948,-0.1297 l 0.26001,-0.02014 4.379883,0 0.26001,0 c 0.253485,0.02646 0.440151,0.07966 0.559997,0.159607 0.119819,0.07997 0.179735,0.21333 0.179749,0.400085 -1.4e-5,0.120049 -0.03328,0.223401 -0.09979,0.310059 -0.06654,0.08668 -0.166538,0.149955 -0.299988,0.189819 -0.05332,0.01344 -0.103264,0.03023 -0.149841,0.05035 -0.0466,0.02015 -0.09004,0.03674 -0.13031,0.04974 -0.146498,0.06674 -0.236423,0.140087 -0.269775,0.220031 -0.03338,0.07997 -0.05006,0.220044 -0.05005,0.420227 l 0,9.760132 c -1.3e-5,0.213218 0.01667,0.359804 0.05005,0.439759 0.03335,0.07996 0.116767,0.153301 0.250244,0.220031 0.03986,0.01343 0.08645,0.03011 0.13977,0.05005 0.05329,0.01994 0.106595,0.03662 0.159912,0.05005 0.13345,0.03988 0.233446,0.10315 0.299988,0.189819 0.06651,0.08667 0.09978,0.190024 0.09979,0.310059 -1.4e-5,0.17334 -0.06329,0.303345 -0.18982,0.390015 -0.12656,0.08667 -0.309868,0.130004 -0.549926,0.130004 l -0.26001,0 -4.379883,0 -0.26001,0 c -0.226652,0 -0.396635,-0.03998 -0.509948,-0.119934 -0.11333,-0.07996 -0.169991,-0.206603 -0.169983,-0.379944 -8e-6,-0.120035 0.03326,-0.226744 0.09979,-0.320129 0.06652,-0.09338 0.153292,-0.160013 0.260315,-0.19989 l 0.319824,-0.120239 c 0.09317,-0.01343 0.163159,-0.0768 0.209961,-0.190125 0.04678,-0.11332 0.07018,-0.256651 0.07019,-0.429992 l 0,-4.459839 -1.580201,0 0,-1.079712 z"
         style="font-size:20px"
         id="path3026" />
      <path
         d="m 67.007328,21.476616 0,1.119995 c -0.413416,0.120048 -0.730087,0.293388 -0.950012,0.52002 -0.219934,0.226655 -0.329899,0.513317 -0.329895,0.859985 -4e-6,0.306407 0.0767,0.576284 0.230102,0.809631 0.153398,0.233368 0.396724,0.450144 0.729981,0.65033 0.106603,0.05331 0.246577,0.1233 0.419922,0.209961 0.173334,0.08668 0.446771,0.20997 0.820312,0.369873 l 0.839844,0.360107 c 0.253085,0.120045 0.473015,0.226754 0.65979,0.32013 0.18676,0.09339 0.353385,0.17996 0.499878,0.259704 0.133455,0.06674 0.253491,0.140084 0.360107,0.220032 0.1066,0.07996 0.206697,0.160022 0.300293,0.240173 0.03987,0.03988 0.07985,0.0765 0.119934,0.109864 0.04007,0.03337 0.08005,0.06999 0.119934,0.109863 0.466706,0.426846 0.813386,0.893561 1.04004,1.400146 0.226633,0.506598 0.339955,1.073207 0.339965,1.699829 -10e-6,1.293542 -0.456654,2.370303 -1.369934,3.230286 -0.913297,0.859986 -2.096666,1.31663 -3.55011,1.369934 l 0,-1.119995 c 0.546869,-0.120035 0.946954,-0.300088 1.200257,-0.540161 0.253289,-0.24007 0.379936,-0.560097 0.379944,-0.960083 -8e-6,-0.25309 -0.0467,-0.476275 -0.140076,-0.669556 -0.09339,-0.193275 -0.260118,-0.376583 -0.500183,-0.549926 -0.159919,-0.120033 -0.35991,-0.243425 -0.599976,-0.370179 -0.240077,-0.126745 -0.533452,-0.263362 -0.880127,-0.409851 -0.626632,-0.266922 -1.133223,-0.500381 -1.519775,-0.700378 -0.386559,-0.199987 -0.7133,-0.386652 -0.980225,-0.559998 -0.599774,-0.439854 -1.053061,-0.953159 -1.359863,-1.539917 -0.306804,-0.586743 -0.460206,-1.246736 -0.460205,-1.97998 -10e-7,-1.293121 0.410053,-2.339771 1.230163,-3.139954 0.820107,-0.800158 1.936744,-1.233405 3.349915,-1.299743 z m -0.520019,12.739868 0,1.119995 c -0.14649,0 -0.293075,-0.01 -0.439759,-0.02991 -0.146692,-0.01994 -0.293278,-0.05005 -0.439758,-0.09033 -0.146895,-0.03988 -0.293685,-0.08311 -0.440369,-0.1297 -0.146691,-0.04659 -0.293277,-0.109965 -0.439758,-0.190124 -0.200198,-0.09318 -0.346988,-0.15981 -0.440369,-0.19989 -0.09339,-0.04008 -0.17324,-0.06683 -0.239563,-0.08026 -0.02686,10e-7 -0.0469,10e-7 -0.06012,0 -0.01323,10e-7 -0.03327,10e-7 -0.06012,0 -0.03988,10e-7 -0.07986,0.0034 -0.119934,0.01007 -0.04008,0.0067 -0.07335,0.01679 -0.09979,0.03021 -0.05371,0.02645 -0.10722,0.06643 -0.160522,0.119934 -0.05331,0.05351 -0.119834,0.133565 -0.199585,0.240173 -0.01343,0.01302 -0.02686,0.02625 -0.04028,0.03967 -0.01343,0.01343 -0.02665,0.02685 -0.03967,0.04028 -0.05331,0.03988 -0.1,0.06978 -0.140076,0.08972 -0.04008,0.01994 -0.09349,0.02991 -0.160217,0.02991 -0.173341,0 -0.306703,-0.07334 -0.400085,-0.220032 -0.09338,-0.146687 -0.140077,-0.353291 -0.140076,-0.619812 l 0,-3.56018 c -10e-7,-0.173336 0.0534,-0.323279 0.160217,-0.44983 0.106811,-0.126541 0.240172,-0.189814 0.400086,-0.189819 0.146483,5e-6 0.259804,0.04334 0.339965,0.130005 0.08016,0.08667 0.14689,0.236617 0.200196,0.449829 0.146482,0.533451 0.33976,1.020206 0.579834,1.460266 0.240069,0.440066 0.546668,0.846662 0.9198,1.219788 0.02685,0.02686 0.05025,0.05025 0.07019,0.07019 0.01994,0.01994 0.04333,0.04313 0.07019,0.06958 0.186357,0.173341 0.386247,0.313417 0.599671,0.420227 0.213415,0.106813 0.453385,0.186871 0.71991,0.240174 z m 1.32019,-11.619873 0,-1.080322 c 0.133457,0.02687 0.25685,0.04691 0.370178,0.06012 0.113315,0.01324 0.229994,0.03328 0.350037,0.06012 0.186353,0.03989 0.392957,0.09981 0.619812,0.179749 0.226839,0.07997 0.513399,0.193392 0.85968,0.340271 l 0.320435,0.05981 c 0.06672,0.01344 0.123384,0.0068 0.169982,-0.01984 0.04658,-0.02664 0.0833,-0.0599 0.110169,-0.09979 l 0.219726,-0.300293 c 0.0533,-0.06672 0.109956,-0.116767 0.169983,-0.150146 0.06001,-0.03335 0.130098,-0.05004 0.210266,-0.05005 0.173331,1.3e-5 0.299978,0.06339 0.379944,0.190124 0.07995,0.126763 0.119924,0.323398 0.119934,0.589905 l 0,3.200073 c -1e-5,0.200205 -0.05342,0.363576 -0.160217,0.490113 -0.106821,0.126555 -0.246897,0.189828 -0.420227,0.189819 -0.159921,9e-6 -0.286467,-0.05329 -0.379639,-0.159912 -0.09319,-0.106599 -0.166634,-0.286653 -0.220337,-0.540161 -0.146493,-0.733226 -0.469775,-1.366465 -0.969848,-1.899719 -0.500089,-0.533232 -1.083381,-0.87981 -1.749878,-1.039734 z"
         style="font-size:20px"
         id="path3028" />
    </g>
    <g
       style="font-size:10px;font-style:normal;font-variant:normal;font-weight:normal;font-stretch:normal;text-align:center;line-height:125%;letter-spacing:0px;word-spacing:0px;text-anchor:middle;fill:#00ff00;fill-opacity:1;stroke:none;font-family:Army;-inkscape-font-specification:Army"
       id="text2991">
      <path
         d="m 20.289959,43.433609 -2.180176,0 -0.130005,0 c -0.126547,0 -0.219829,-0.02167 -0.279846,-0.065 -0.06002,-0.04333 -0.09003,-0.108338 -0.09003,-0.195008 0,-0.06002 0.01663,-0.111694 0.0499,-0.155029 0.03326,-0.04333 0.08326,-0.07497 0.149994,-0.09491 0.02665,-0.0067 0.05168,-0.01505 0.07507,-0.02502 0.0234,-0.01 0.04506,-0.01831 0.065,-0.02503 0.07324,-0.03336 0.118204,-0.07004 0.134888,-0.110015 0.01668,-0.03998 0.02502,-0.110016 0.02502,-0.210114 l 0,-4.899902 c -1e-6,-0.09338 -0.0083,-0.160059 -0.02502,-0.200043 -0.01668,-0.03997 -0.06165,-0.07664 -0.134888,-0.110016 -0.01994,-0.0065 -0.04161,-0.01479 -0.065,-0.02487 -0.0234,-0.01006 -0.04842,-0.01846 -0.07507,-0.02518 -0.06673,-0.01993 -0.11673,-0.05157 -0.149994,-0.09491 -0.03326,-0.04333 -0.0499,-0.09501 -0.0499,-0.15503 0,-0.09338 0.03164,-0.161685 0.09491,-0.204925 0.06327,-0.04323 0.154927,-0.06484 0.274963,-0.06485 l 0.130005,-0.01007 2.189942,0 0.160217,0 c 0.153195,0.01323 0.26316,0.04151 0.329895,0.08484 0.06673,0.04334 0.100094,0.111701 0.100098,0.205078 -4e-6,0.06674 -0.02004,0.121772 -0.06012,0.1651 -0.04008,0.04334 -0.09674,0.07498 -0.169983,0.09491 -0.02666,0.0067 -0.05,0.01338 -0.07004,0.01999 -0.02004,0.0066 -0.04003,0.0099 -0.05997,0.0099 -0.106611,0.03337 -0.173241,0.0734 -0.19989,0.120087 -0.02666,0.0467 -0.03998,0.126704 -0.03998,0.240021 l 0,5.72998 z m 0.359802,0 0,-0.549927 c 0.126746,-0.01343 0.226793,-0.03179 0.300141,-0.05508 0.07334,-0.02329 0.143276,-0.05163 0.209808,-0.08499 0.0067,-0.0067 0.01175,-0.01175 0.01511,-0.01511 0.0034,-0.0034 0.0084,-0.005 0.01511,-0.005 0.166622,-0.09989 0.316616,-0.251515 0.449982,-0.454865 0.133357,-0.203347 0.240016,-0.438383 0.319977,-0.705108 0.01993,-0.0533 0.03656,-0.101622 0.0499,-0.144959 0.01332,-0.04333 0.0267,-0.07833 0.04013,-0.10498 0.03336,-0.07324 0.06835,-0.12156 0.10498,-0.144959 0.03662,-0.02339 0.08494,-0.03509 0.144959,-0.03509 0.08666,2e-6 0.146682,0.02503 0.180053,0.07507 0.03336,0.05005 0.05004,0.131737 0.05005,0.245057 l 0,1.97998 -1.880188,0 z"
         style=""
         id="path2999" />
      <path
         d="m 25.602459,43.433609 -2.180176,0 -0.130005,0 c -0.126547,0 -0.219829,-0.02167 -0.279846,-0.065 -0.06002,-0.04333 -0.09003,-0.108338 -0.09003,-0.195008 0,-0.06002 0.01663,-0.111694 0.0499,-0.155029 0.03326,-0.04333 0.08326,-0.07497 0.149994,-0.09491 0.02665,-0.0067 0.05168,-0.01505 0.07507,-0.02502 0.0234,-0.01 0.04506,-0.01831 0.065,-0.02503 0.07324,-0.03336 0.118204,-0.07004 0.134888,-0.110015 0.01668,-0.03998 0.02502,-0.110016 0.02502,-0.210114 l 0,-4.899902 c -1e-6,-0.09338 -0.0083,-0.160059 -0.02502,-0.200043 -0.01668,-0.03997 -0.06165,-0.07664 -0.134888,-0.110016 -0.01994,-0.0065 -0.04161,-0.01479 -0.065,-0.02487 -0.0234,-0.01006 -0.04842,-0.01846 -0.07507,-0.02518 -0.06673,-0.01993 -0.11673,-0.05157 -0.149994,-0.09491 -0.03326,-0.04333 -0.0499,-0.09501 -0.0499,-0.15503 0,-0.09338 0.03164,-0.161685 0.09491,-0.204925 0.06327,-0.04323 0.154927,-0.06484 0.274963,-0.06485 l 0.130005,-0.01007 2.180176,0 0.130005,0 c 0.126543,0.01323 0.219825,0.03983 0.279846,0.0798 0.06001,0.03998 0.09002,0.106665 0.09003,0.200042 -4e-6,0.06003 -0.01669,0.111701 -0.05005,0.15503 -0.03337,0.04334 -0.08332,0.07498 -0.149841,0.09491 -0.02666,0.0067 -0.05168,0.01511 -0.07507,0.02518 -0.0234,0.01008 -0.04507,0.01837 -0.065,0.02487 -0.07345,0.03337 -0.118462,0.07004 -0.13504,0.110016 -0.01659,0.03998 -0.02488,0.110022 -0.02487,0.210114 l 0,4.880065 c -3e-6,0.106609 0.0083,0.179902 0.02487,0.21988 0.01658,0.03998 0.06159,0.07665 0.13504,0.110015 0.01993,0.0067 0.0416,0.01506 0.065,0.02503 0.02339,0.01 0.04842,0.01831 0.07507,0.02502 0.06653,0.01994 0.116472,0.05157 0.149841,0.09491 0.03336,0.04334 0.05005,0.09501 0.05005,0.155029 -4e-6,0.08667 -0.03169,0.151673 -0.09506,0.195008 -0.06338,0.04334 -0.154982,0.065 -0.274811,0.065 l -0.130005,0 z"
         style=""
         id="path3001" />
      <path
         d="m 29.456829,36.633682 0,0.539856 c -0.146691,0.03337 -0.255028,0.108395 -0.325012,0.225067 -0.06999,0.116685 -0.104983,0.271663 -0.104981,0.464936 l 0,4.5401 c -2e-6,0.186565 0.02497,0.323182 0.07492,0.409851 0.04995,0.08667 0.138293,0.156759 0.265045,0.210266 l 0,0.539856 -0.05005,0 c -0.07345,0 -0.161796,-0.01165 -0.265045,-0.03494 -0.103253,-0.0233 -0.211642,-0.05498 -0.325165,-0.09506 -0.06653,-0.01343 -0.129803,-0.03347 -0.189819,-0.06012 -0.06002,-0.02665 -0.120038,-0.05666 -0.180054,-0.09003 -0.526734,-0.273234 -0.933432,-0.678202 -1.220092,-1.214905 -0.286663,-0.536701 -0.429993,-1.1617 -0.429993,-1.875 0,-0.753374 0.141703,-1.41006 0.42511,-1.970063 0.283405,-0.559991 0.685118,-0.983321 1.205139,-1.269989 0.146482,-0.07995 0.283099,-0.143273 0.409851,-0.189971 0.126747,-0.04669 0.253395,-0.08 0.379944,-0.09995 0.0533,-0.0067 0.108284,-0.01169 0.164947,-0.01495 0.05666,-0.0032 0.111743,-0.0049 0.165253,-0.0049 z m 0.309753,6.929932 0,-0.549927 c 0.153399,-0.03336 0.260108,-0.09674 0.32013,-0.190124 0.06001,-0.09338 0.09002,-0.23 0.09003,-0.409851 l 0,-1.440125 c -4e-6,-0.106605 -0.01333,-0.183255 -0.03998,-0.22995 -0.02666,-0.04669 -0.09339,-0.08672 -0.200196,-0.120087 -0.01994,3e-6 -0.03988,-0.0033 -0.05981,-0.0099 -0.01994,-0.0066 -0.04334,-0.01327 -0.07019,-0.01999 -0.07325,-0.01342 -0.129856,-0.04343 -0.169831,-0.09003 -0.03998,-0.04659 -0.05997,-0.103248 -0.05997,-0.169983 -3e-6,-0.09338 0.03499,-0.161739 0.104981,-0.205078 0.06998,-0.04333 0.178321,-0.065 0.325012,-0.065 l 0.169983,-0.01007 1.789856,0 c 0.153396,0.0067 0.260105,0.03006 0.320129,0.07004 0.06001,0.03998 0.09002,0.113376 0.09003,0.220184 -6e-6,0.03988 -0.0067,0.0765 -0.01999,0.109864 -0.01333,0.03337 -0.03332,0.06673 -0.05997,0.100097 -0.01343,0.0067 -0.02681,0.01674 -0.04013,0.03006 -0.01333,0.01333 -0.02996,0.0266 -0.0499,0.03983 -0.01343,0.0067 -0.02345,0.01338 -0.03006,0.01999 -0.0066,0.0066 -0.01328,0.01328 -0.01999,0.01999 -0.0466,0.02665 -0.07493,0.06165 -0.08499,0.104981 -0.01008,0.04334 -0.01511,0.10834 -0.01511,0.195007 l 0,1.650086 c -0.03337,0.04008 -0.07172,0.07843 -0.115052,0.115051 -0.04334,0.03662 -0.0883,0.07162 -0.134887,0.10498 -0.07325,0.05331 -0.151576,0.106609 -0.234986,0.159913 -0.08342,0.0533 -0.165105,0.103353 -0.245056,0.150146 -0.05331,0.02665 -0.104934,0.0533 -0.154877,0.07996 -0.04995,0.02665 -0.09832,0.04995 -0.145111,0.06988 -0.193282,0.08667 -0.39658,0.151673 -0.609894,0.195008 -0.213321,0.04333 -0.430047,0.06836 -0.650177,0.07507 z m 0.09003,-6.400147 0,-0.529785 c 0.26672,0.03337 0.505062,0.07005 0.715027,0.110016 0.209957,0.03999 0.404964,0.0966 0.585022,0.16983 l 0.230103,0.05005 c 0.01993,0.0067 0.03824,0.01008 0.05493,0.01007 0.01668,7e-6 0.03163,-0.0033 0.04486,-0.01007 0.02014,-0.01322 0.04353,-0.03483 0.07019,-0.06485 0.02665,-0.03 0.06663,-0.07837 0.119934,-0.145111 0.0067,-0.01342 0.01505,-0.02344 0.02502,-0.03006 0.01,-0.0066 0.0183,-0.01327 0.02502,-0.01999 0.02665,-0.01993 0.0533,-0.03488 0.07996,-0.04486 0.02665,-0.01 0.05665,-0.01495 0.09003,-0.01495 0.09338,7e-6 0.158381,0.0233 0.195008,0.06989 0.03661,0.0466 0.05493,0.12991 0.05493,0.249939 l 0,1.900025 c -5e-6,0.126754 -0.02167,0.221765 -0.065,0.285034 -0.04334,0.06328 -0.1117,0.09491 -0.205078,0.09491 -0.07996,4e-6 -0.143285,-0.01999 -0.189972,-0.05997 -0.0467,-0.03997 -0.08662,-0.116623 -0.119782,-0.229949 -0.0067,-0.01342 -0.01008,-0.02512 -0.01007,-0.0351 -5e-6,-0.01 -0.0034,-0.02156 -0.01007,-0.03479 -0.01994,-0.08016 -0.04659,-0.163569 -0.07996,-0.250244 -0.03337,-0.08667 -0.07335,-0.173335 -0.119934,-0.26001 -0.04008,-0.09318 -0.08678,-0.186457 -0.140076,-0.279846 -0.05331,-0.09338 -0.106613,-0.180048 -0.159912,-0.26001 -0.03337,-0.0533 -0.06674,-0.101617 -0.100098,-0.144958 -0.03337,-0.04333 -0.06674,-0.08168 -0.100097,-0.115051 -0.12004,-0.126744 -0.260014,-0.223434 -0.419922,-0.29007 -0.159916,-0.06662 -0.349939,-0.103296 -0.570069,-0.110016 z"
         style=""
         id="path3003" />
      <path
         d="m 35.878033,43.433609 -2.179871,0 -0.130005,0 c -0.12675,0 -0.220134,-0.02167 -0.280151,-0.065 -0.06002,-0.04333 -0.09003,-0.108338 -0.09003,-0.195008 -10e-7,-0.06002 0.01668,-0.111694 0.05005,-0.155029 0.03337,-0.04333 0.08341,-0.07497 0.150146,-0.09491 0.02665,-0.0067 0.05163,-0.01505 0.07492,-0.02502 0.02329,-0.01 0.04501,-0.01831 0.06515,-0.02503 0.07324,-0.03336 0.118204,-0.07004 0.134888,-0.110015 0.01668,-0.03998 0.02502,-0.110016 0.02502,-0.210114 l 0,-4.899902 c -1e-6,-0.09338 -0.0083,-0.160059 -0.02502,-0.200043 -0.01668,-0.03997 -0.06165,-0.07664 -0.134888,-0.110016 -0.02014,-0.0065 -0.04186,-0.01479 -0.06515,-0.02487 -0.0233,-0.01006 -0.04827,-0.01846 -0.07492,-0.02518 -0.06673,-0.01993 -0.116781,-0.05157 -0.150146,-0.09491 -0.03337,-0.04333 -0.05005,-0.09501 -0.05005,-0.15503 -10e-7,-0.09338 0.03169,-0.161685 0.09506,-0.204925 0.06337,-0.04323 0.15508,-0.06484 0.275116,-0.06485 l 0.130005,-0.01007 2.179871,0 0.130005,0 c 0.120032,0.01323 0.20838,0.03983 0.265045,0.0798 0.05666,0.03998 0.08499,0.103308 0.08499,0.189972 -3e-6,0.06674 -0.01501,0.121771 -0.04501,0.1651 -0.03001,0.04334 -0.07838,0.07498 -0.145111,0.09491 l -0.149842,0.04028 c -0.04659,0.01995 -0.08159,0.05657 -0.10498,0.109864 -0.0234,0.05331 -0.0351,0.126654 -0.03509,0.220032 l 0,4.880065 c -3e-6,0.09318 0.01169,0.168102 0.03509,0.224762 0.02339,0.05666 0.05839,0.09171 0.10498,0.105133 l 0.149842,0.03998 c 0.06673,0.02665 0.115098,0.06165 0.145111,0.104981 0.03001,0.04334 0.04501,0.09837 0.04501,0.1651 -3e-6,0.08667 -0.02833,0.149994 -0.08499,0.189972 -0.05667,0.03998 -0.145013,0.05997 -0.265045,0.05997 l -0.130005,0 z m 0.400085,-3.649902 0.7901,0 0,-2.130127 c -4e-6,-0.08666 -0.0117,-0.156651 -0.03509,-0.209961 -0.0234,-0.0533 -0.0584,-0.08666 -0.10498,-0.100098 l -0.159913,-0.05981 c -0.06002,-0.01342 -0.105035,-0.04012 -0.13504,-0.08011 -0.03001,-0.03997 -0.04502,-0.09333 -0.04501,-0.160065 -4e-6,-0.09338 0.02833,-0.161685 0.08499,-0.204925 0.05666,-0.04323 0.141648,-0.06484 0.254975,-0.06485 l 0.130004,-0.01007 2.189942,0 0.130005,0 c 0.126743,0.01323 0.220075,0.03983 0.279998,0.0798 0.05991,0.03998 0.08987,0.106665 0.08987,0.200042 -7e-6,0.06003 -0.01664,0.111701 -0.0499,0.15503 -0.03327,0.04334 -0.08327,0.07498 -0.149994,0.09491 -0.02666,0.0067 -0.05163,0.01511 -0.07492,0.02518 -0.0233,0.01008 -0.04502,0.01837 -0.06516,0.02487 -0.07325,0.03337 -0.118211,0.07004 -0.134888,0.110016 -0.01669,0.03998 -0.02503,0.110022 -0.02502,0.210114 l 0,4.880065 c -7e-6,0.106609 0.0083,0.179902 0.02502,0.21988 0.01668,0.03998 0.05838,0.07665 0.125122,0.110015 0.01993,0.0067 0.04323,0.01506 0.06989,0.02503 0.02665,0.01 0.0533,0.01831 0.07996,0.02502 0.06672,0.01994 0.116722,0.05157 0.149994,0.09491 0.03326,0.04334 0.04989,0.09501 0.0499,0.155029 -7e-6,0.08667 -0.03164,0.151673 -0.09491,0.195008 -0.06328,0.04334 -0.154934,0.065 -0.274963,0.065 l -0.130005,0 -2.189942,0 -0.130004,0 c -0.113327,0 -0.198318,-0.01999 -0.254975,-0.05997 -0.05666,-0.03998 -0.08499,-0.103302 -0.08499,-0.189972 -4e-6,-0.06002 0.01663,-0.113372 0.0499,-0.160065 0.03326,-0.04669 0.07665,-0.08001 0.130157,-0.09995 l 0.159913,-0.06012 c 0.04659,-0.0067 0.08158,-0.0384 0.10498,-0.09506 0.02339,-0.05666 0.03509,-0.128325 0.03509,-0.214996 l 0,-2.229919 -0.7901,0 0,-0.539856 z"
         style=""
         id="path3005" />
      <path
         d="m 44.316753,36.763687 0,5.740051 c -4e-6,0.126547 0.015,0.213166 0.04501,0.259858 0.03001,0.04669 0.10167,0.08672 0.214996,0.120086 0.01993,0.0067 0.03824,0.0117 0.05493,0.01495 0.01668,0.0033 0.03499,0.0082 0.05493,0.01495 0.07344,0.01343 0.131832,0.04181 0.175171,0.08514 0.04333,0.04333 0.065,0.09827 0.065,0.164794 -5e-6,0.09338 -0.035,0.161744 -0.104981,0.205079 -0.06999,0.04334 -0.181685,0.065 -0.335083,0.065 l -0.159912,0 -2.190246,0 -0.169983,0 c -0.14669,0 -0.255027,-0.02167 -0.325013,-0.065 -0.06999,-0.04333 -0.104981,-0.111695 -0.10498,-0.205079 -1e-6,-0.06653 0.02004,-0.121459 0.06012,-0.164794 0.04008,-0.04333 0.09674,-0.07172 0.169983,-0.08514 0.02665,-0.0067 0.05,-0.0117 0.07004,-0.01495 0.02004,-0.0033 0.03667,-0.0082 0.0499,-0.01495 0.11332,-0.03337 0.183307,-0.07339 0.209961,-0.120086 0.02665,-0.04669 0.03998,-0.130055 0.03998,-0.250092 l 0,-5.749817 2.180175,0 z m -3.860168,0 1.280212,0 0,0.599976 c -0.16683,0.0999 -0.301871,0.244858 -0.405121,0.434875 -0.103252,0.190028 -0.181529,0.425014 -0.234832,0.704956 l -0.05005,0.290222 c -0.01343,0.106613 -0.04679,0.186569 -0.100098,0.239869 -0.0533,0.05331 -0.119934,0.07996 -0.19989,0.07996 -0.08667,4e-6 -0.156708,-0.03 -0.210113,-0.09003 -0.05341,-0.06001 -0.08011,-0.136613 -0.08011,-0.229798 l 0,-2.030029 z m 5.540161,0 0,2.019959 c -6e-6,0.0999 -0.02666,0.179854 -0.07996,0.239868 -0.05331,0.06002 -0.123297,0.09003 -0.209961,0.09003 -0.08017,4e-6 -0.146897,-0.02833 -0.200195,-0.08499 -0.05331,-0.05666 -0.08993,-0.131679 -0.109864,-0.225067 l -0.05005,-0.309753 c -0.0466,-0.273433 -0.121567,-0.505163 -0.224915,-0.695191 -0.103358,-0.190017 -0.238347,-0.331618 -0.404968,-0.424804 l 0,-0.610047 1.279907,0 z"
         style=""
         id="path3007" />
      <path
         d="m 49.274334,43.433609 -2.180176,0 -0.130005,0 c -0.126547,0 -0.219829,-0.02167 -0.279846,-0.065 -0.06002,-0.04333 -0.09003,-0.108338 -0.09003,-0.195008 0,-0.06002 0.01663,-0.111694 0.0499,-0.155029 0.03326,-0.04333 0.08326,-0.07497 0.149994,-0.09491 0.02665,-0.0067 0.05168,-0.01505 0.07507,-0.02502 0.0234,-0.01 0.04506,-0.01831 0.065,-0.02503 0.07324,-0.03336 0.118204,-0.07004 0.134888,-0.110015 0.01668,-0.03998 0.02502,-0.110016 0.02502,-0.210114 l 0,-4.899902 c -10e-7,-0.09338 -0.0083,-0.160059 -0.02502,-0.200043 -0.01668,-0.03997 -0.06165,-0.07664 -0.134888,-0.110016 -0.01994,-0.0065 -0.04161,-0.01479 -0.065,-0.02487 -0.0234,-0.01006 -0.04842,-0.01846 -0.07507,-0.02518 -0.06673,-0.01993 -0.11673,-0.05157 -0.149994,-0.09491 -0.03326,-0.04333 -0.0499,-0.09501 -0.0499,-0.15503 0,-0.09338 0.03164,-0.161685 0.09491,-0.204925 0.06327,-0.04323 0.154927,-0.06484 0.274963,-0.06485 l 0.130005,-0.01007 2.180176,0 0.130005,0 c 0.126543,0.01323 0.219825,0.03983 0.279846,0.0798 0.06001,0.03998 0.09002,0.106665 0.09003,0.200042 -4e-6,0.06003 -0.01669,0.111701 -0.05005,0.15503 -0.03337,0.04334 -0.08332,0.07498 -0.149841,0.09491 -0.02666,0.0067 -0.05168,0.01511 -0.07507,0.02518 -0.0234,0.01008 -0.04507,0.01837 -0.065,0.02487 -0.07345,0.03337 -0.118462,0.07004 -0.13504,0.110016 -0.01658,0.03998 -0.02488,0.110022 -0.02487,0.210114 l 0,4.880065 c -3e-6,0.106609 0.0083,0.179902 0.02487,0.21988 0.01658,0.03998 0.06159,0.07665 0.13504,0.110015 0.01993,0.0067 0.0416,0.01506 0.065,0.02503 0.02339,0.01 0.04842,0.01831 0.07507,0.02502 0.06652,0.01994 0.116472,0.05157 0.149841,0.09491 0.03336,0.04334 0.05005,0.09501 0.05005,0.155029 -4e-6,0.08667 -0.03169,0.151673 -0.09506,0.195008 -0.06338,0.04334 -0.154982,0.065 -0.274811,0.065 l -0.130005,0 z"
         style=""
         id="path3009" />
      <path
         d="m 51.298565,38.473587 0.509949,0.870056 0,2.619934 c -2e-6,0.233359 0.03835,0.423382 0.115051,0.570069 0.0767,0.146688 0.198362,0.266724 0.36499,0.360107 l 0.140076,0.06989 c 0.04659,0.03337 0.0799,0.06836 0.09994,0.104981 0.02004,0.03662 0.03006,0.07833 0.03006,0.125122 -3e-6,0.08667 -0.03169,0.148315 -0.09506,0.184936 -0.06338,0.03662 -0.171663,0.05493 -0.324859,0.05493 l -1.119995,0 c -0.146689,0 -0.256705,-0.01999 -0.330048,-0.05997 -0.07334,-0.03998 -0.110016,-0.103302 -0.110016,-0.189972 0,-0.02665 0.0033,-0.05 0.0099,-0.07004 0.0066,-0.02004 0.01663,-0.03667 0.03006,-0.0499 0.01994,-0.02014 0.04659,-0.04186 0.07996,-0.06515 0.03337,-0.0233 0.0767,-0.05163 0.130005,-0.08499 0.159912,-0.09338 0.278218,-0.216724 0.35492,-0.370025 0.0767,-0.153299 0.11505,-0.343271 0.115051,-0.569916 l 0,-3.500061 z m 2.0401,-1.7099 2.599792,4.509888 0,2.160034 -1.329956,0 -3.309936,-5.710144 c -0.04008,-0.05981 -0.07513,-0.111383 -0.105133,-0.154724 -0.03001,-0.04333 -0.05834,-0.07832 -0.08499,-0.104981 -0.02665,-0.02685 -0.05331,-0.04694 -0.07996,-0.06027 -0.02665,-0.01332 -0.05666,-0.0266 -0.09003,-0.03983 l -0.179748,-0.07996 c -0.04679,-0.0067 -0.0852,-0.03173 -0.115204,-0.07507 -0.03001,-0.04333 -0.04501,-0.09165 -0.04501,-0.144958 -10e-7,-0.06001 0.01836,-0.115045 0.05508,-0.1651 0.03672,-0.05004 0.07838,-0.08168 0.124969,-0.09491 0.03337,-0.01342 0.08336,-0.02176 0.149994,-0.02502 0.06663,-0.0032 0.156605,-0.0049 0.269928,-0.0049 l 2.140198,-0.01007 z m 2.599792,3.729859 -0.509948,-0.870057 0,-1.349792 c -5e-6,-0.266718 -0.03998,-0.473424 -0.119934,-0.620117 -0.07996,-0.146682 -0.219935,-0.269973 -0.419922,-0.369873 -0.0067,-0.0067 -0.01506,-0.01174 -0.02502,-0.01511 -0.01,-0.0033 -0.01832,-0.0084 -0.02502,-0.01511 -0.04659,-0.02665 -0.07991,-0.0566 -0.09994,-0.08987 -0.02004,-0.03326 -0.03006,-0.0799 -0.03006,-0.139923 -4e-6,-0.08666 0.02833,-0.149987 0.08499,-0.189972 0.05666,-0.03997 0.148361,-0.05996 0.275116,-0.05997 l 1.219787,-0.01007 c 0.139968,0.0067 0.241642,0.03169 0.305023,0.07492 0.06337,0.04324 0.09506,0.111548 0.09506,0.204925 -7e-6,0.03337 -0.0034,0.0617 -0.01007,0.08499 -0.0067,0.0233 -0.02005,0.04838 -0.03998,0.07523 -0.01994,0.01994 -0.04828,0.03988 -0.08499,0.05981 -0.03673,0.01994 -0.08174,0.04334 -0.13504,0.07019 -0.159918,0.08668 -0.279903,0.206661 -0.359955,0.359955 -0.08006,0.153306 -0.120092,0.34989 -0.120087,0.589753 l 0,2.210083 z"
         style=""
         id="path3011" />
      <path
         d="m 59.847454,36.633682 0,0.539856 c -0.146691,0.03337 -0.255028,0.108395 -0.325012,0.225067 -0.06999,0.116685 -0.104983,0.271663 -0.104981,0.464936 l 0,4.5401 c -2e-6,0.186565 0.02497,0.323182 0.07492,0.409851 0.04995,0.08667 0.138293,0.156759 0.265045,0.210266 l 0,0.539856 -0.05005,0 c -0.07345,0 -0.161796,-0.01165 -0.265045,-0.03494 -0.103253,-0.0233 -0.211642,-0.05498 -0.325165,-0.09506 -0.06653,-0.01343 -0.129803,-0.03347 -0.189819,-0.06012 -0.06002,-0.02665 -0.120038,-0.05666 -0.180054,-0.09003 -0.526734,-0.273234 -0.933432,-0.678202 -1.220092,-1.214905 -0.286663,-0.536701 -0.429993,-1.1617 -0.429993,-1.875 0,-0.753374 0.141703,-1.41006 0.42511,-1.970063 0.283405,-0.559991 0.685118,-0.983321 1.205139,-1.269989 0.146482,-0.07995 0.283099,-0.143273 0.409851,-0.189971 0.126747,-0.04669 0.253395,-0.08 0.379944,-0.09995 0.0533,-0.0067 0.108284,-0.01169 0.164947,-0.01495 0.05666,-0.0032 0.111743,-0.0049 0.165253,-0.0049 z m 0.309753,6.929932 0,-0.549927 c 0.153399,-0.03336 0.260108,-0.09674 0.32013,-0.190124 0.06001,-0.09338 0.09002,-0.23 0.09003,-0.409851 l 0,-1.440125 c -4e-6,-0.106605 -0.01333,-0.183255 -0.03998,-0.22995 -0.02666,-0.04669 -0.09339,-0.08672 -0.200196,-0.120087 -0.01994,3e-6 -0.03988,-0.0033 -0.05981,-0.0099 -0.01994,-0.0066 -0.04334,-0.01327 -0.07019,-0.01999 -0.07325,-0.01342 -0.129856,-0.04343 -0.169831,-0.09003 -0.03998,-0.04659 -0.05997,-0.103248 -0.05997,-0.169983 -3e-6,-0.09338 0.03499,-0.161739 0.104981,-0.205078 0.06998,-0.04333 0.178321,-0.065 0.325012,-0.065 l 0.169983,-0.01007 1.789856,0 c 0.153396,0.0067 0.260105,0.03006 0.320129,0.07004 0.06001,0.03998 0.09002,0.113376 0.09003,0.220184 -6e-6,0.03988 -0.0067,0.0765 -0.01999,0.109864 -0.01333,0.03337 -0.03332,0.06673 -0.05997,0.100097 -0.01343,0.0067 -0.02681,0.01674 -0.04013,0.03006 -0.01333,0.01333 -0.02996,0.0266 -0.0499,0.03983 -0.01343,0.0067 -0.02345,0.01338 -0.03006,0.01999 -0.0066,0.0066 -0.01328,0.01328 -0.01999,0.01999 -0.0466,0.02665 -0.07493,0.06165 -0.08499,0.104981 -0.01008,0.04334 -0.01511,0.10834 -0.01511,0.195007 l 0,1.650086 c -0.03337,0.04008 -0.07172,0.07843 -0.115052,0.115051 -0.04334,0.03662 -0.0883,0.07162 -0.134887,0.10498 -0.07325,0.05331 -0.151576,0.106609 -0.234986,0.159913 -0.08342,0.0533 -0.165105,0.103353 -0.245056,0.150146 -0.05331,0.02665 -0.104934,0.0533 -0.154877,0.07996 -0.04995,0.02665 -0.09832,0.04995 -0.145111,0.06988 -0.193282,0.08667 -0.39658,0.151673 -0.609894,0.195008 -0.213321,0.04333 -0.430047,0.06836 -0.650177,0.07507 z m 0.09003,-6.400147 0,-0.529785 c 0.26672,0.03337 0.505062,0.07005 0.715027,0.110016 0.209957,0.03999 0.404964,0.0966 0.585022,0.16983 l 0.230103,0.05005 c 0.01993,0.0067 0.03824,0.01008 0.05493,0.01007 0.01668,7e-6 0.03163,-0.0033 0.04486,-0.01007 0.02014,-0.01322 0.04353,-0.03483 0.07019,-0.06485 0.02665,-0.03 0.06662,-0.07837 0.119934,-0.145111 0.0067,-0.01342 0.01505,-0.02344 0.02502,-0.03006 0.01,-0.0066 0.01831,-0.01327 0.02502,-0.01999 0.02665,-0.01993 0.0533,-0.03488 0.07996,-0.04486 0.02665,-0.01 0.05665,-0.01495 0.09003,-0.01495 0.09338,7e-6 0.158381,0.0233 0.195008,0.06989 0.03661,0.0466 0.05493,0.12991 0.05493,0.249939 l 0,1.900025 c -5e-6,0.126754 -0.02167,0.221765 -0.065,0.285034 -0.04334,0.06328 -0.1117,0.09491 -0.205078,0.09491 -0.07996,4e-6 -0.143285,-0.01999 -0.189972,-0.05997 -0.0467,-0.03997 -0.08662,-0.116623 -0.119782,-0.229949 -0.0067,-0.01342 -0.01008,-0.02512 -0.01007,-0.0351 -5e-6,-0.01 -0.0034,-0.02156 -0.01007,-0.03479 -0.01994,-0.08016 -0.04659,-0.163569 -0.07996,-0.250244 -0.03337,-0.08667 -0.07335,-0.173335 -0.119934,-0.26001 -0.04009,-0.09318 -0.08678,-0.186457 -0.140076,-0.279846 -0.05331,-0.09338 -0.106613,-0.180048 -0.159912,-0.26001 -0.03337,-0.0533 -0.06674,-0.101617 -0.100098,-0.144958 -0.03337,-0.04333 -0.06674,-0.08168 -0.100097,-0.115051 -0.12004,-0.126744 -0.260014,-0.223434 -0.419922,-0.29007 -0.159916,-0.06662 -0.349939,-0.103296 -0.570069,-0.110016 z"
         style=""
         id="path3013" />
      <path
         d="m 69.922222,36.763687 0,5.740051 c -4e-6,0.126547 0.015,0.213166 0.04501,0.259858 0.03,0.04669 0.10167,0.08672 0.214996,0.120086 0.01993,0.0067 0.03824,0.0117 0.05493,0.01495 0.01668,0.0033 0.03499,0.0082 0.05493,0.01495 0.07344,0.01343 0.131832,0.04181 0.175171,0.08514 0.04333,0.04333 0.065,0.09827 0.065,0.164794 -5e-6,0.09338 -0.035,0.161744 -0.104981,0.205079 -0.06999,0.04334 -0.181686,0.065 -0.335083,0.065 l -0.159912,0 -2.190247,0 -0.169983,0 c -0.146689,0 -0.255026,-0.02167 -0.325012,-0.065 -0.06999,-0.04333 -0.104982,-0.111695 -0.10498,-0.205079 -2e-6,-0.06653 0.02004,-0.121459 0.06012,-0.164794 0.04008,-0.04333 0.09674,-0.07172 0.169983,-0.08514 0.02665,-0.0067 0.05,-0.0117 0.07004,-0.01495 0.02004,-0.0033 0.03667,-0.0082 0.0499,-0.01495 0.113321,-0.03337 0.183307,-0.07339 0.209961,-0.120086 0.02665,-0.04669 0.03998,-0.130055 0.03998,-0.250092 l 0,-5.749817 2.180176,0 z m -3.860168,0 1.280212,0 0,0.599976 c -0.166831,0.0999 -0.301871,0.244858 -0.405121,0.434875 -0.103252,0.190028 -0.181529,0.425014 -0.234833,0.704956 l -0.05005,0.290222 c -0.01343,0.106613 -0.0468,0.186569 -0.100098,0.239869 -0.0533,0.05331 -0.119935,0.07996 -0.19989,0.07996 -0.08667,4e-6 -0.156708,-0.03 -0.210114,-0.09003 -0.05341,-0.06001 -0.08011,-0.136613 -0.08011,-0.229798 l 0,-2.030029 z m 5.540161,0 0,2.019959 c -6e-6,0.0999 -0.02666,0.179854 -0.07996,0.239868 -0.05331,0.06002 -0.123297,0.09003 -0.209961,0.09003 -0.08016,4e-6 -0.146897,-0.02833 -0.200195,-0.08499 -0.05331,-0.05666 -0.08993,-0.131679 -0.109864,-0.225067 l -0.05005,-0.309753 c -0.04659,-0.273433 -0.121566,-0.505163 -0.224914,-0.695191 -0.103358,-0.190017 -0.238347,-0.331618 -0.404968,-0.424804 l 0,-0.610047 1.279907,0 z"
         style=""
         id="path3015" />
      <path
         d="m 73.819622,38.013687 0.249939,1.009827 -0.869751,3.150024 c -0.0067,0.02665 -0.01175,0.05168 -0.01511,0.07507 -0.0034,0.0234 -0.005,0.04507 -0.005,0.065 -0.0067,0.01994 -0.01007,0.04161 -0.01007,0.065 -2e-6,0.0234 -2e-6,0.04507 0,0.065 -2e-6,0.09338 0.02502,0.178376 0.07507,0.254974 0.05005,0.0766 0.121662,0.134939 0.214844,0.175018 l 0.160217,0.06989 c 0.0533,0.03337 0.09496,0.07172 0.124969,0.115051 0.03001,0.04333 0.04501,0.09165 0.04501,0.144958 -2e-6,0.07345 -0.03169,0.130158 -0.09506,0.170136 -0.06338,0.03998 -0.151725,0.05997 -0.265046,0.05997 l -1.239929,0 c -0.113322,0 -0.206655,-0.02335 -0.279999,-0.07004 -0.07334,-0.04669 -0.110015,-0.110016 -0.110015,-0.189972 0,-0.0533 0.01668,-0.09994 0.05005,-0.139923 0.03337,-0.03998 0.09003,-0.07665 0.169983,-0.110016 0.206706,-0.09338 0.358378,-0.200093 0.455017,-0.320129 0.09664,-0.120035 0.178324,-0.306701 0.245057,-0.559998 l 1.099853,-4.029846 z m 0.339966,-1.25 1.970215,0 1.349792,5.740051 c 0.0067,0.02665 0.01174,0.04827 0.01511,0.06485 0.0034,0.01658 0.0084,0.03494 0.01511,0.05508 0.02665,0.09338 0.05828,0.161744 0.09491,0.205079 0.03662,0.04334 0.09155,0.07833 0.164795,0.10498 0.0067,0.0065 0.0151,0.01144 0.02518,0.0148 0.01006,0.0034 0.01836,0.005 0.02487,0.005 0.06673,0.03337 0.111739,0.06836 0.13504,0.10498 0.02329,0.03662 0.03494,0.08494 0.03494,0.144958 -6e-6,0.07345 -0.03164,0.130158 -0.09491,0.170136 -0.06328,0.03998 -0.15829,0.05997 -0.285034,0.05997 l -2.43988,0 c -0.09339,0 -0.170088,-0.02167 -0.230103,-0.065 -0.06002,-0.04333 -0.09003,-0.104981 -0.09003,-0.184937 -3e-6,-0.04008 0.005,-0.07344 0.01511,-0.100098 0.01007,-0.02665 0.02507,-0.04995 0.04501,-0.06988 0.01993,-0.01343 0.04323,-0.02848 0.06988,-0.04517 0.02665,-0.01668 0.05666,-0.03499 0.09003,-0.05493 0.0067,-0.0067 0.01337,-0.0117 0.01999,-0.01495 0.0066,-0.0033 0.01327,-0.0049 0.01999,-0.0049 0.04679,-0.03336 0.08016,-0.06841 0.100098,-0.105133 0.01993,-0.03672 0.0299,-0.08509 0.02991,-0.145111 l -0.01007,-0.139771 -0.159912,-0.710144 -1.359863,0 0.130005,-0.599975 1.099853,0 -0.899963,-3.94989 0.119934,-0.480042 z"
         style=""
         id="path3017" />
      <path
         d="m 81.071209,43.433609 -2.180176,0 -0.130005,0 c -0.126547,0 -0.219829,-0.02167 -0.279846,-0.065 -0.06002,-0.04333 -0.09003,-0.108338 -0.09003,-0.195008 0,-0.06002 0.01663,-0.111694 0.0499,-0.155029 0.03326,-0.04333 0.08326,-0.07497 0.149994,-0.09491 0.02665,-0.0067 0.05168,-0.01505 0.07507,-0.02502 0.0234,-0.01 0.04506,-0.01831 0.065,-0.02503 0.07324,-0.03336 0.118204,-0.07004 0.134888,-0.110015 0.01668,-0.03998 0.02502,-0.110016 0.02502,-0.210114 l 0,-4.899902 c -10e-7,-0.09338 -0.0083,-0.160059 -0.02502,-0.200043 -0.01668,-0.03997 -0.06165,-0.07664 -0.134888,-0.110016 -0.01994,-0.0065 -0.04161,-0.01479 -0.065,-0.02487 -0.0234,-0.01006 -0.04842,-0.01846 -0.07507,-0.02518 -0.06673,-0.01993 -0.11673,-0.05157 -0.149994,-0.09491 -0.03326,-0.04333 -0.0499,-0.09501 -0.0499,-0.15503 0,-0.09338 0.03164,-0.161685 0.09491,-0.204925 0.06327,-0.04323 0.154927,-0.06484 0.274963,-0.06485 l 0.130005,-0.01007 2.189942,0 0.160217,0 c 0.153195,0.01323 0.26316,0.04151 0.329895,0.08484 0.06673,0.04334 0.100094,0.111701 0.100098,0.205078 -4e-6,0.06674 -0.02004,0.121772 -0.06012,0.1651 -0.04008,0.04334 -0.09674,0.07498 -0.169983,0.09491 -0.02665,0.0067 -0.05,0.01338 -0.07004,0.01999 -0.02004,0.0066 -0.04003,0.0099 -0.05997,0.0099 -0.106611,0.03337 -0.173241,0.0734 -0.19989,0.120087 -0.02666,0.0467 -0.03998,0.126704 -0.03998,0.240021 l 0,5.72998 z m 0.359802,0 0,-0.549927 c 0.126746,-0.01343 0.226793,-0.03179 0.300141,-0.05508 0.07334,-0.02329 0.143276,-0.05163 0.209808,-0.08499 0.0067,-0.0067 0.01174,-0.01175 0.01511,-0.01511 0.0034,-0.0034 0.0084,-0.005 0.01511,-0.005 0.166622,-0.09989 0.316616,-0.251515 0.449982,-0.454865 0.133357,-0.203347 0.240016,-0.438383 0.319977,-0.705108 0.01993,-0.0533 0.03657,-0.101622 0.0499,-0.144959 0.01332,-0.04333 0.0267,-0.07833 0.04013,-0.10498 0.03336,-0.07324 0.06835,-0.12156 0.10498,-0.144959 0.03662,-0.02339 0.08494,-0.03509 0.144959,-0.03509 0.08666,2e-6 0.146682,0.02503 0.180053,0.07507 0.03336,0.05005 0.05004,0.131737 0.05005,0.245057 l 0,1.97998 -1.880188,0 z"
         style=""
         id="path3019" />
      <path
         d="m 86.483501,43.433609 -2.17987,0 -0.130005,0 c -0.12675,0 -0.220134,-0.02167 -0.280151,-0.065 -0.06002,-0.04333 -0.09003,-0.108338 -0.09003,-0.195008 -10e-7,-0.06002 0.01668,-0.111694 0.05005,-0.155029 0.03336,-0.04333 0.08341,-0.07497 0.150146,-0.09491 0.02665,-0.0067 0.05163,-0.01505 0.07492,-0.02502 0.02329,-0.01 0.04501,-0.01831 0.06516,-0.02503 0.07324,-0.03336 0.118204,-0.07004 0.134887,-0.110015 0.01668,-0.03998 0.02502,-0.110016 0.02502,-0.210114 l 0,-4.899902 c -10e-7,-0.09338 -0.0083,-0.160059 -0.02502,-0.200043 -0.01668,-0.03997 -0.06165,-0.07664 -0.134887,-0.110016 -0.02014,-0.0065 -0.04186,-0.01479 -0.06516,-0.02487 -0.0233,-0.01006 -0.04827,-0.01846 -0.07492,-0.02518 -0.06673,-0.01993 -0.116781,-0.05157 -0.150146,-0.09491 -0.03337,-0.04333 -0.05005,-0.09501 -0.05005,-0.15503 -10e-7,-0.09338 0.03169,-0.161685 0.09506,-0.204925 0.06337,-0.04323 0.155079,-0.06484 0.275116,-0.06485 l 0.130005,-0.01007 2.17987,0 0.130005,0 c 0.126747,0.01323 0.22013,0.03983 0.280152,0.0798 0.06001,0.03998 0.09002,0.106665 0.09003,0.200042 -4e-6,0.06003 -0.01669,0.111701 -0.05005,0.15503 -0.03337,0.04334 -0.08342,0.07498 -0.150147,0.09491 -0.02666,0.0067 -0.05163,0.01511 -0.07492,0.02518 -0.0233,0.01008 -0.04492,0.01837 -0.06485,0.02487 -0.07345,0.03337 -0.118513,0.07004 -0.135193,0.110016 -0.01669,0.03998 -0.02503,0.110022 -0.02502,0.210114 l 0,4.880065 c -3e-6,0.09318 0.0117,0.168102 0.0351,0.224762 0.02339,0.05666 0.05839,0.09171 0.10498,0.105133 l 0.149841,0.03998 c 0.06673,0.02665 0.115099,0.06165 0.145112,0.104981 0.03001,0.04334 0.04501,0.09837 0.04501,0.1651 -4e-6,0.08667 -0.02833,0.149994 -0.08499,0.189972 -0.05666,0.03998 -0.145012,0.05997 -0.265045,0.05997 l -0.130005,0 z m 1.929932,-4.729919 1.470032,3.859863 c 0.0067,0.01994 0.01174,0.03662 0.01511,0.05005 0.0033,0.01343 0.0084,0.0234 0.01511,0.02991 0.03316,0.08016 0.06978,0.141907 0.109863,0.185242 0.04007,0.04334 0.09012,0.07833 0.150147,0.10498 0.01322,0.0065 0.02649,0.01312 0.03982,0.01984 0.01332,0.0067 0.0267,0.01343 0.04013,0.02014 0.04658,0.02665 0.07822,0.05498 0.09491,0.08499 0.01668,0.03001 0.02502,0.07167 0.02502,0.124969 -7e-6,0.08667 -0.03002,0.149994 -0.09003,0.189972 -0.06003,0.03998 -0.153307,0.05997 -0.279846,0.05997 l -2.450256,0 c -0.119837,0 -0.21144,-0.02335 -0.274811,-0.07004 -0.06338,-0.04669 -0.09507,-0.113372 -0.09506,-0.200043 -4e-6,-0.0533 0.01332,-0.09994 0.03998,-0.139923 0.02665,-0.03998 0.07334,-0.07665 0.140075,-0.110016 0.03336,-0.01322 0.06169,-0.02655 0.08499,-0.03998 0.02329,-0.01343 0.04165,-0.02675 0.05508,-0.03998 0.01993,-0.01343 0.03321,-0.03011 0.03983,-0.05005 0.0066,-0.01994 0.0099,-0.03998 0.0099,-0.06012 -5e-6,-0.01322 -0.0033,-0.03148 -0.0099,-0.05478 -0.0066,-0.02329 -0.01664,-0.05498 -0.03006,-0.09506 l -0.619812,-1.879883 c -0.02666,-0.07344 -0.04832,-0.148516 -0.065,-0.22522 -0.01669,-0.0767 -0.02503,-0.144955 -0.02502,-0.204773 -4e-6,-0.02685 0.0017,-0.05361 0.005,-0.08026 0.0034,-0.02665 0.0083,-0.0533 0.0148,-0.07996 0.01342,-0.03336 0.03011,-0.06668 0.05005,-0.09994 0.01994,-0.03326 0.04659,-0.06993 0.07996,-0.110016 l 1.159973,-1.650086 c 0.02665,-0.02665 0.04832,-0.05828 0.065,-0.09491 0.01668,-0.03662 0.03509,-0.07497 0.05524,-0.115051 0.01322,-0.04659 0.02482,-0.09155 0.03479,-0.134888 0.01,-0.04333 0.01495,-0.08504 0.01495,-0.125122 -5e-6,-0.09318 -0.02498,-0.179794 -0.07492,-0.259857 -0.04995,-0.08005 -0.114904,-0.133407 -0.194855,-0.160065 l -0.180054,-0.09003 c -0.05331,-0.01993 -0.09329,-0.04826 -0.119934,-0.08499 -0.02666,-0.03672 -0.03998,-0.08173 -0.03998,-0.135041 -4e-6,-0.09338 0.02665,-0.161685 0.07996,-0.204925 0.0533,-0.04323 0.133256,-0.06484 0.239868,-0.06485 l 1.740113,-0.01007 c 0.113315,0.0067 0.201612,0.03505 0.264892,0.08499 0.06327,0.04995 0.0949,0.121619 0.09491,0.214996 -7e-6,0.06653 -0.01832,0.124823 -0.05493,0.174866 -0.03663,0.05006 -0.09156,0.08841 -0.164795,0.115051 l -0.26001,0.100098 c -0.03337,0.01994 -0.07508,0.04492 -0.125122,0.07492 -0.05006,0.03001 -0.101731,0.06506 -0.155029,0.105133 -0.02666,0.01323 -0.05163,0.02986 -0.07492,0.0499 -0.0233,0.02005 -0.04827,0.03668 -0.07492,0.0499 -0.0067,0.0067 -0.01343,0.01343 -0.02014,0.02014 -0.0067,0.0067 -0.01333,0.01333 -0.01984,0.01984 -0.0468,0.0468 -0.101833,0.106868 -0.1651,0.180206 -0.06328,0.07335 -0.141607,0.173294 -0.234986,0.299835 l -0.3302,0.450135 z"
         style=""
         id="path3021" />
    </g>
    <path
       sodipodi:type="arc"
       style="fill:#00ff00;fill-opacity:0;stroke:#000000;stroke-width:1.77165353;stroke-miterlimit:4;stroke-opacity:1;stroke-dasharray:none"
       id="path2995"
       sodipodi:cx="51.42857"
       sodipodi:cy="12.362181"
       sodipodi:rx="3.5714285"
       sodipodi:ry="3.5714285"
       d="m 54.999998,12.362181 a 3.5714285,3.5714285 0 1 1 -7.142857,0 3.5714285,3.5714285 0 1 1 7.142857,0 z"
       transform="translate(2,-2)" />
    <path
       id="path3790"
       d="M 50.871503,62.529387 C 50.112784,60.970999 48.53449,59.97966 46.801495,59.971697 l -4.264522,-0.01877 2.184018,-5.689253 c 0.228639,-0.542592 0.355471,-1.139215 0.355471,-1.765414 0,-2.512758 -2.035572,-4.550037 -4.548899,-4.550037 h -0.0023 -9.331557 c -1.909878,0 -3.616709,1.192678 -4.273052,2.98653 L 20.2321,69.214527 c -0.509604,1.391742 -0.308834,2.944442 0.536904,4.161008 0.846307,1.216567 2.231793,1.945141 3.713399,1.952535 l 3.335746,0.01592 -4.195134,11.988779 c -0.736537,2.10496 0.160958,4.434011 2.120317,5.499857 0.687056,0.373672 1.433831,0.553967 2.172074,0.553967 1.368422,0 2.709545,-0.617099 3.597371,-1.761433 L 50.376661,67.3109 c 1.061865,-1.369561 1.254104,-3.223701 0.494817,-4.78152 z m -22.953797,26.306607 6.303506,-18.010752 -9.716034,-0.04721 6.688553,-18.279773 h 9.331557 l -4.597812,11.975697 10.854113,0.04721 -18.863883,24.314828 z"
       inkscape:connector-curvature="0"
       style="fill:#ff6600" />
    <path
       id="path3790-7"
       d="m 90.51419,62.652732 c -0.758719,-1.558388 -2.337013,-2.549727 -4.070008,-2.55769 l -4.264522,-0.01877 2.184018,-5.689253 c 0.228639,-0.542592 0.355471,-1.139215 0.355471,-1.765414 0,-2.512758 -2.035572,-4.550037 -4.548899,-4.550037 h -0.0023 -9.331557 c -1.909878,0 -3.616709,1.192678 -4.273052,2.98653 l -6.688554,18.279774 c -0.509604,1.391742 -0.308834,2.944442 0.536904,4.161008 0.846307,1.216567 2.231793,1.945141 3.713399,1.952535 l 3.335746,0.01592 -4.195134,11.988779 c -0.736537,2.10496 0.160958,4.434011 2.120317,5.499856 0.687056,0.37367 1.433831,0.55397 2.172074,0.55397 1.368422,0 2.709545,-0.6171 3.597371,-1.761435 l 18.863884,-24.31426 c 1.061865,-1.369561 1.254104,-3.223701 0.494817,-4.78152 z m -22.953797,26.306607 6.303506,-18.010752 -9.716034,-0.04721 6.688553,-18.279773 h 9.331557 l -4.597812,11.975697 10.854113,0.04721 -18.863883,24.314828 z"
       inkscape:connector-curvature="0"
       style="fill:#ff6600" />
  </g>
</svg>
