<?xml version="1.0" encoding="UTF-8" standalone="no"?>
<!-- Created with Inkscape (http://www.inkscape.org/) -->

<svg
   xmlns:dc="http://purl.org/dc/elements/1.1/"
   xmlns:cc="http://creativecommons.org/ns#"
   xmlns:rdf="http://www.w3.org/1999/02/22-rdf-syntax-ns#"
   xmlns:svg="http://www.w3.org/2000/svg"
   xmlns="http://www.w3.org/2000/svg"
   xmlns:xlink="http://www.w3.org/1999/xlink"
   xmlns:sodipodi="http://sodipodi.sourceforge.net/DTD/sodipodi-0.dtd"
   xmlns:inkscape="http://www.inkscape.org/namespaces/inkscape"
   width="210mm"
   height="297mm"
   viewBox="0 0 744.09448819 1052.3622047"
   id="svg3408"
   version="1.1"
   inkscape:version="0.91pre4 r13712"
   sodipodi:docname="Canada_BritishColumbia.svg">
  <defs
     id="defs3410" />
  <sodipodi:namedview
     id="base"
     pagecolor="#ffffff"
     bordercolor="#666666"
     borderopacity="1.0"
     inkscape:pageopacity="0.0"
     inkscape:pageshadow="2"
     inkscape:zoom="1.4"
     inkscape:cx="37.142853"
     inkscape:cy="863.13367"
     inkscape:document-units="px"
     inkscape:current-layer="layer1"
     showgrid="false"
     inkscape:window-width="1920"
     inkscape:window-height="1017"
     inkscape:window-x="-8"
     inkscape:window-y="-8"
     inkscape:window-maximized="1" />
  <metadata
     id="metadata3413">
    <rdf:RDF>
      <cc:Work
         rdf:about="">
        <dc:format>image/svg+xml</dc:format>
        <dc:type
           rdf:resource="http://purl.org/dc/dcmitype/StillImage" />
        <dc:title></dc:title>
      </cc:Work>
    </rdf:RDF>
  </metadata>
  <g
     inkscape:label="Layer 1"
     inkscape:groupmode="layer"
     id="layer1">
    <circle
       style="color:#000000;clip-rule:nonzero;display:inline;overflow:visible;visibility:visible;opacity:1;isolation:auto;mix-blend-mode:normal;color-interpolation:sRGB;color-interpolation-filters:linearRGB;solid-color:#000000;solid-opacity:1;fill:none;fill-opacity:1;fill-rule:nonzero;stroke:#ff00ff;stroke-width:0.1;stroke-linecap:butt;stroke-linejoin:miter;stroke-miterlimit:4;stroke-dasharray:none;stroke-dashoffset:0;stroke-opacity:1;color-rendering:auto;image-rendering:auto;shape-rendering:auto;text-rendering:auto;enable-background:accumulate"
       id="path3416-2-3"
       cx="-309.90762"
       cy="-97.59095"
       r="71.793961"
       transform="matrix(-0.99995257,0.0097398,-0.0097398,-0.99995257,0,0)" />
    <g
       id="g3506"
       transform="translate(-27.857143,-132.14286)">
      <circle
         transform="matrix(-0.99995257,0.0097398,-0.0097398,-0.99995257,0,0)"
         r="71.793961"
         cy="-228.88359"
         cx="-120.97825"
         id="path3416"
         style="color:#000000;clip-rule:nonzero;display:inline;overflow:visible;visibility:visible;opacity:1;isolation:auto;mix-blend-mode:normal;color-interpolation:sRGB;color-interpolation-filters:linearRGB;solid-color:#000000;solid-opacity:1;fill:none;fill-opacity:1;fill-rule:nonzero;stroke:#00ff00;stroke-width:0.1;stroke-linecap:butt;stroke-linejoin:miter;stroke-miterlimit:4;stroke-dasharray:none;stroke-dashoffset:0;stroke-opacity:1;color-rendering:auto;image-rendering:auto;shape-rendering:auto;text-rendering:auto;enable-background:accumulate" />
      <text
         transform="matrix(0.71634793,0.69774325,-0.69774325,0.71634793,193.68972,-21.40518)"
         y="-192.93913"
         x="783.78107"
         sodipodi:linespacing="80.000001%"
         id="text3418"
         style="font-style:normal;font-variant:normal;font-weight:normal;font-stretch:normal;font-size:15px;line-height:80.00000119%;font-family:sans-serif;-inkscape-font-specification:'sans-serif, Normal';text-align:start;letter-spacing:0px;word-spacing:0px;writing-mode:lr-tb;text-anchor:start;fill:#000000;fill-opacity:1;stroke:none;stroke-width:0.1;stroke-linecap:butt;stroke-linejoin:miter;stroke-opacity:1"
         xml:space="preserve"><textPath
           style="font-style:normal;font-variant:normal;font-weight:normal;font-stretch:normal;font-size:15px;line-height:80.00000119%;font-family:sans-serif;-inkscape-font-specification:'sans-serif, Normal';text-align:start;writing-mode:lr-tb;text-anchor:start;stroke-width:0.1"
           id="textPath3422"
           xlink:href="#path3416">British Columbia.                Burning Man 2015</textPath></text>
      <ellipse
         ry="88.54409"
         rx="88.544098"
         cy="227.69444"
         cx="123.20179"
         id="path3434"
         style="color:#000000;clip-rule:nonzero;display:inline;overflow:visible;visibility:visible;opacity:1;isolation:auto;mix-blend-mode:normal;color-interpolation:sRGB;color-interpolation-filters:linearRGB;solid-color:#000000;solid-opacity:1;fill:none;fill-opacity:1;fill-rule:nonzero;stroke:#ff0000;stroke-width:0.1;stroke-linecap:butt;stroke-linejoin:miter;stroke-miterlimit:4;stroke-dasharray:none;stroke-dashoffset:0;stroke-opacity:1;color-rendering:auto;image-rendering:auto;shape-rendering:auto;text-rendering:auto;enable-background:accumulate" />
      <g
         transform="translate(-394.15561,-31.073276)"
         id="g3485">
        <path
           inkscape:connector-curvature="0"
           style="color:#000000;clip-rule:nonzero;display:inline;overflow:visible;visibility:visible;opacity:1;isolation:auto;mix-blend-mode:normal;color-interpolation:sRGB;color-interpolation-filters:linearRGB;solid-color:#000000;solid-opacity:1;fill:none;fill-opacity:1;fill-rule:nonzero;stroke:#0000ff;stroke-width:0.1;stroke-linecap:butt;stroke-linejoin:miter;stroke-miterlimit:4;stroke-dasharray:none;stroke-dashoffset:0;stroke-opacity:1;color-rendering:auto;image-rendering:auto;shape-rendering:auto;text-rendering:auto;enable-background:accumulate"
           d="m 520.50586,200.5332 c -0.18275,0.3653 -0.0239,0.82094 0.86523,0.88086 0.44744,1.43845 -2.29562,0.40841 -2.34961,1.86914 -0.66613,0.99234 2.54872,2.64477 1.03125,2.68555 -0.59482,-0.51828 -2.15044,-2.10853 -1.91211,0.0312 1.75603,1.44394 -1.29712,1.15959 0.32813,2.3125 0.63792,0.73753 2.58287,-0.1757 1.07422,1.11328 -2.01396,-0.77398 -2.56716,-0.20297 -1.49805,1.79297 0.30616,1.79699 3.35312,-0.53724 1.28516,1.18164 -1.62391,0.75365 0.12197,2.57041 1.14844,1.20117 -0.11072,1.62661 1.2069,-0.89226 1.99023,-0.0488 2.3425,0.36109 -0.29664,0.52013 -0.79492,1.56446 -1.91608,0.39385 -0.79446,2.03565 -0.30274,2.29492 -1.62299,0.88826 3.05583,1.1731 0.94532,1.56055 -0.97194,0.79426 1.2751,2.01702 2.17382,2.0039 10e-4,-1.43423 0.65581,-0.61515 1.26954,-0.30078 -0.71964,-1.84751 -0.75676,-2.9546 0.24218,-0.51562 1.18289,2.17088 0.32493,-2.72265 1.0293,-1.38282 0.99284,0.59961 -0.28976,-1.90038 0.41016,-2.69726 -0.19503,0.45424 0.0105,3.56462 1.09961,0.77344 0.0451,-1.26819 2.23365,-1.4355 2.31445,-2.80469 -0.43321,-2.58106 -1.01815,-0.36051 -1.33789,-1.84766 -1.92932,0.88481 -0.61323,-0.84013 -0.97852,-2.21875 -1.54515,-0.59133 0.27053,-2.77016 -1.53711,-3.12304 -0.65337,0.91431 0.92491,3.10004 -0.77539,1.37109 0.0711,-1.72537 -0.2566,-1.96053 -1.64844,-2.39844 -0.32073,-1.31803 -1.32609,-2.57089 -1.54882,-4.02148 -0.12334,-0.46845 -0.37443,-0.9255 -0.7793,-1.20703 a 71.793961,71.793961 0 0 0 -1.74414,-0.0703 z m 5.1543,0.46289 c -0.20282,0.41782 -0.35192,0.83526 -0.0274,1.56446 1.21002,-0.35109 2.84871,-0.0485 3.82422,-1.02735 a 71.793961,71.793961 0 0 0 -3.79687,-0.53711 z m 4.59765,0.65235 c -0.30416,0.36932 -0.69343,0.74082 -1.05469,0.90625 -0.8675,0.7053 -3.6804,-0.32335 -2.89648,1.50586 1.20288,1.99774 2.60634,0.78284 3.21875,-0.89649 0.29353,-0.55964 1.23162,-1.00448 2.04102,-1.19531 a 71.793961,71.793961 0 0 0 -1.3086,-0.32031 z m 2.03321,0.49804 c -1.58221,0.40638 -2.86864,1.70363 -3.20313,3.31055 0.72923,0.52648 2.40526,1.31508 3.1543,0.16016 0.70048,-1.32443 2.75792,-1.49863 1.125,0.20703 1.24617,0.21668 2.60314,-0.72814 3.42187,-1.66602 0.11721,-0.29836 0.2234,-0.56805 0.33008,-0.82812 a 71.793961,71.793961 0 0 0 -4.82812,-1.1836 z m 7.06445,1.96485 c -0.75122,0.29771 -1.91735,0.60868 -2.25586,1.2207 -0.52961,1.7075 -2.69404,1.32625 -3.84961,2.25586 0.26636,1.40672 1.42733,2.41739 1.97461,3.71484 1.73741,0.63159 0.9875,1.46505 -0.48633,0.4961 -1.06043,-1.45218 -1.72852,-4.25151 -4,-3.8711 -2.11126,-1.14771 -1.58428,1.59256 -1.42773,2.8418 0.84626,1.07229 2.08768,1.78381 2.34179,3.42578 1.78019,2.18237 -0.38299,0.54868 0.0742,2.00781 0.84585,0.84049 3.70093,-0.51671 2.48438,0.66211 -1.25566,0.71687 -2.16862,0.065 -3.53321,-0.22461 -1.58649,0.35043 -2.32906,1.45372 -2.5957,3.04688 -0.68901,1.98878 1.58607,1.36534 1.78516,0.29492 -0.7524,2.16388 0.75723,1.05732 1.20312,-0.26953 0.10091,0.9269 1.10993,0.77482 -0.16797,1.75391 -0.8145,0.65191 -0.51898,2.54296 0.20313,3.04297 1.43785,0.17155 2.02937,-1.31971 2.59375,-2.65821 -0.26723,1.17675 -0.62724,2.99023 -1.9336,3.30078 -2.11461,0.60125 -1.58818,-2.67531 -3.39257,-2.74804 -1.60408,0.28783 -0.80659,2.52844 0.0996,3.06054 1.12604,1.53673 -1.95487,0.43221 -2.12891,1.95704 -1.67365,0.71741 0.1715,3.69266 0.48828,1.98242 0.13417,-2.73826 -0.26382,1.89541 1.24609,0.59179 -0.33698,-0.70172 1.31753,0.0662 1.42579,-0.27539 1.05129,1.89615 2.41139,0.0674 2.49609,-0.45703 0.54814,1.50902 2.08084,0.26487 2.17773,-0.22851 0.6219,0.69053 2.04295,0.49684 1.35352,1.96484 0.94925,0.43326 2.13372,-0.90991 2.90234,-1.57227 1.15185,-1.13979 0.27051,-2.59711 -0.86718,-1.99218 0.15385,-1.51854 -1.56888,-1.67663 -2.6543,-1.42774 -0.86423,0.0294 0.1296,-1.05047 0.22266,-1.33203 0.77128,1.38371 3.6164,1.16238 3.75976,-0.51367 -0.50671,-1.9887 0.49291,-2.01636 1.95703,-2.30469 1.02428,-0.24942 1.91659,-2.55535 0.1836,-2.84375 0.35747,-0.33184 2.67552,0.0572 1.80273,-1.52734 -1.04254,-0.66689 -1.88486,-2.07405 -3.3125,-1.30469 -1.72918,-0.0556 -0.93045,-0.90064 0.58984,-0.5918 0.9436,-0.88318 2.71434,1.22312 2.85547,-0.40039 -0.0501,-0.81829 -2.07718,-0.38385 -2.28711,-1.89453 -1.0178,-0.98932 1.71273,0.80706 2.40625,-0.0293 1.7049,0.1874 1.80238,-2.18289 0.0899,-2.20312 -0.59919,-1.40231 2.01989,0.82274 2.70898,0.63281 0.99533,-0.72081 1.27128,-1.81472 1.38477,-2.73437 -2.31718,0.699 -0.95509,-0.5396 0.56445,-0.77149 -0.024,-0.25897 -0.0556,-0.4734 -0.0898,-0.66406 a 71.793961,71.793961 0 0 0 -8.39258,-3.41406 z m -24.93945,4.71679 c -0.56324,-0.0862 -1.19694,0.57402 -0.76172,1.5918 1.08518,0.50503 1.6556,1.83135 1.45117,-0.54687 -0.0396,-0.67313 -0.35151,-0.99321 -0.68945,-1.04493 z m -5.15821,5.09376 c -0.59494,-0.0312 -1.33403,0.35345 -1.77539,0.27929 -0.90727,1.9457 1.40283,1.21163 0.61719,2.98438 1.33722,-2.06395 0.45964,0.29463 1.58203,0.23047 -0.41306,0.93293 0.30472,1.56079 -1.59766,1.26367 -0.44786,1.94664 1.60762,1.54075 2.48829,1.14062 0.10945,0.9076 2.59418,0.3017 2.28515,2.10742 0.52701,2.0542 3.02613,0.1501 1.61719,-1.21679 -1.12148,-1.01346 0.30997,-2.4183 -1.07813,-3.39453 -1.35538,0.65014 -0.83898,-2.77174 -2.42382,-1.33008 -0.50229,1.91953 0.0746,-1.75103 -1.1836,-1.86328 -0.14967,-0.13515 -0.33293,-0.19076 -0.53125,-0.20117 z m 6.96485,3.30664 c -0.94679,0.0205 -0.4406,1.81777 -0.28321,2.48437 1.40641,1.44639 0.23752,1.25807 1.20117,2.5957 -0.11814,0.97451 2.19863,-0.20435 2.39063,-0.92187 -0.62402,-1.09743 0.55304,-2.52195 -1.45703,-2.57813 -0.01,-0.85442 -0.79889,-1.02248 -1.35156,-1.4707 -0.19981,-0.078 -0.36475,-0.1123 -0.5,-0.10937 z m -13.78711,1.05078 c -0.25039,0.0594 -0.44397,0.65632 -0.19336,1.72656 0.24797,0.14104 0.73345,0.16388 0.72656,-0.22852 0.0249,-1.07935 -0.28282,-1.55747 -0.5332,-1.49804 z m 7.95703,2.13281 c -0.29358,0.0713 -0.86684,0.59801 -0.11914,0.58008 0.37051,-0.50245 0.29529,-0.62287 0.11914,-0.58008 z m -8.02539,0.88281 c -0.15479,0.0331 -0.27903,0.28026 -0.125,0.90039 0.72512,-0.41392 0.38298,-0.95546 0.125,-0.90039 z m 9.2539,1.0586 c -0.69541,0.081 -1.21321,1.11528 0.1543,1.10546 0.098,-0.38492 1.06149,0.0724 0.74414,-0.4375 -0.22933,-0.54529 -0.58234,-0.70479 -0.89844,-0.66796 z m 7.2793,0.58984 c -0.29449,0.0567 -0.73123,0.3463 -0.8418,0.61328 -0.36886,1.50691 2.69491,1.40104 3.16407,0.7793 1.12412,-1.70521 -1.43162,-1.08004 -2.32227,-1.39258 z m -12.10547,0.28125 c 0.43899,0.9843 0.30963,3.13257 1.69336,3.15625 0.0786,-1.06023 -0.58188,-2.91319 -1.69336,-3.15625 z m 17.52539,0.50586 c -1.11613,-0.0389 -0.13305,3.11747 1.06446,1.99805 0.43293,-0.59413 -0.0154,-1.32541 -0.45118,-1.76368 -0.25055,-0.15774 -0.45383,-0.22882 -0.61328,-0.23437 z m -5.70898,3.125 c -0.6053,-0.0524 -1.13276,0.14724 -1.18164,0.81641 0.3337,0.55712 -0.42044,1.25575 1.28515,1.52148 -1.00808,0.88443 0.80175,1.88584 1.7461,1.49414 1.51678,-1.11364 1.57747,1.02852 2.24414,2.14648 0.10523,1.24649 -0.47552,2.55671 0.0176,3.63868 0.19181,2.64756 1.476,0.37282 1.84179,1.83203 1.32578,1.04923 1.71771,-1.17692 2.07032,-0.56836 0.39123,-0.45745 0.32442,2.05854 2.26562,1.14258 -0.30194,0.16698 1.50841,-0.46846 1.93164,-0.21094 0.11264,0.18944 2.18115,0.27512 1.97852,-1.19141 0.0539,-1.19236 0.18817,1.76008 1.39257,1.3086 1.21261,0.0613 2.78343,-0.58305 2.23438,-1.71485 2.30107,0.1482 -1.47088,-0.6537 0.65039,-1.35351 0.24974,-1.18198 -0.65005,-1.55951 -1.29883,-2.01953 -0.72591,-1.09647 -2.25793,-0.50755 -3.41601,-0.78907 -0.60097,0.82201 -2.79781,0.8487 -2.59375,1.91797 -1.4955,-1.30109 -1.82255,-0.0695 -2.94336,-1.13867 -0.0186,0.94105 -1.32405,0.77559 -0.90625,-0.008 0.30693,-0.96132 -0.90351,-1.70805 -1.68555,-2.17969 -1.76742,-1.18637 1.52628,0.48181 1.8457,-0.71094 -0.38067,-0.61196 -3.99405,-1.33466 -1.60937,-1.00586 0.0184,-1.64714 -2.10136,-0.84821 -2.87109,-0.56445 -0.90993,1.75346 0.70939,-2.30516 -1.34376,-1.66602 -0.36493,-0.34049 -1.04899,-0.64485 -1.65429,-0.69726 z m 6.41015,1.08398 c -0.59004,-0.10029 -0.46929,1.9837 0.48633,1.63477 -0.23545,-0.4056 -0.026,-0.76117 0.0332,-1.16016 -0.21029,-0.31253 -0.38337,-0.45146 -0.51954,-0.47461 z m -21.45703,0.20508 c -0.92872,-0.12636 -1.62391,2.07083 -1.21289,2.81836 0.83362,0.92216 -0.17651,1.93946 1.13867,2.93555 -1.49393,0.15444 -1.35714,1.60124 -1.24804,3.36523 0.66207,0.0109 0.91892,-0.55175 1.3457,-0.94531 0.2763,0.66262 1.9067,0.73498 2.67773,0.15625 1.18336,-0.85974 1.17361,-2.83518 0.99024,-4.19336 -1.49861,-1.93586 -1.33502,1.91975 -1.57422,0.73242 -1.29522,-0.5671 -0.64861,-0.0859 -1.33398,-1.24805 0.1039,-0.81109 -0.68707,-2.24178 -0.375,-3.41406 -0.13965,-0.12389 -0.27553,-0.18898 -0.40821,-0.20703 z m 9.56641,0.31641 c -0.40233,-0.003 -1.59143,0.49058 -0.81836,0.75781 l 0.0996,-0.0606 c 0.91869,-0.51429 0.96015,-0.69568 0.71875,-0.69726 z m -4.19141,0.29101 c -0.29452,-0.0468 -0.83324,0.93993 -0.28515,1.40625 1.12973,1.2728 2.1984,-1.07427 0.44922,-0.95703 0.005,-0.30245 -0.0659,-0.43361 -0.16407,-0.44922 z m 6.58008,0.20117 c -0.46687,0.005 -0.67998,0.97829 -1.10156,0.47461 -0.91126,-1.44984 -2.63891,0.88436 -0.67774,1.10547 -0.32584,0.86029 0.17364,0.49147 0.33399,1.68555 -1.20513,0.37966 -1.31849,-2.40554 -2.49219,-2.30664 -0.24978,1.0913 0.2732,1.43713 0.4043,2.5 1.26869,1.82949 -0.84494,-0.83152 -1.03711,0.96094 -1.2796,1.54799 1.57093,0.33919 2.34375,0.27343 2.1592,-0.66641 0.53791,0.38008 -0.39649,1.13477 0.97125,0.51278 -0.34703,1.8796 1.30664,1.83008 1.24319,0.0503 1.97563,-0.5938 2.14844,-0.85547 -0.7772,-1.51786 1.44554,-1.06869 -0.17968,-2.50195 0.59952,-0.97828 0.18994,-2.33055 0.18554,-3.47852 -0.35972,-0.62656 -0.62567,-0.82472 -0.83789,-0.82227 z m -4.92773,1.59766 c -1.98449,0.0382 -1.97417,1.12484 -1.19532,1.98047 0.53592,-0.11821 1.61445,1.33809 1.76758,-0.57813 -0.52226,-0.33802 -0.15573,-1.06541 -0.57226,-1.40234 z m 27.1914,0.9043 c -0.18529,-0.1799 -1.16461,2.33975 -0.041,0.91992 l 0,-0.0156 0.008,-0.26758 c 0.0775,-0.41048 0.076,-0.59521 0.0332,-0.63672 z m -17.91211,0.6914 c -0.34735,-0.0153 -0.65092,0.32101 0.12891,1.05469 0.60957,-0.6725 0.21844,-1.03939 -0.12891,-1.05469 z m -1.73047,1.6875 c -1.21365,0.0439 -1.01686,1.73127 0.0781,0.47266 0.37628,-0.17246 -0.0704,-0.31414 -0.0781,-0.47266 z m 1.29883,0.0371 c -0.62708,0.0698 -1.22348,0.56521 -1.26562,1.38477 -1.02373,1.09507 -0.2184,1.91731 0.95312,2.25391 0.76864,1.41969 2.80182,0.50218 2.00196,-1.0293 0.15493,-0.50499 -0.11701,-0.95938 -0.23829,-1.43945 -0.16678,-0.88261 -0.82408,-1.23976 -1.45117,-1.16993 z m -10.48437,0.83789 c -0.61863,0.001 -1.42351,1.87835 0.0371,1.73438 0.4133,-0.1156 0.72232,-0.57549 0.42773,-0.96484 -0.0739,-0.56138 -0.25863,-0.76987 -0.46484,-0.76954 z m 9.80859,3.48633 c -0.29564,0.0194 -0.5476,0.45047 0.3418,0.56641 0.0293,-0.44123 -0.16441,-0.57805 -0.3418,-0.56641 z m -2.06445,0.0996 c -0.19632,0.0341 -0.65748,1.01797 0.0547,0.37696 0.0466,-0.29556 0.0108,-0.38831 -0.0547,-0.37696 z m 4.48242,1.91797 c -0.35742,0.06 -0.68475,0.28606 -1.13281,0.21484 -1.78809,0.3653 0.67,2.61914 -1.2461,1.58985 -0.33065,2.04198 0.19101,4.08472 0.46094,6.09765 0.37606,1.61985 2.16063,-0.18734 1.83203,-1.4707 -1.72831,-1.84531 1.47206,0.0239 1.90821,-1.15039 0.51333,-1.32964 0.92216,-2.30318 1.6582,-3.62305 0.12276,-1.79604 -2.38049,-0.36092 -3.10742,-1.64648 -0.13175,-0.0341 -0.25391,-0.0317 -0.37305,-0.0117 z m -4.9707,0.23828 c -1.37624,-4.4e-4 -2.44029,1.66083 -0.50782,0.99219 0.21788,-0.13442 1.0758,-0.90116 0.50782,-0.99219 z m -2.49414,0.67188 c -0.19634,-0.007 -0.27223,0.19381 -0.23633,0.32617 -1.01073,-0.0457 -0.59415,1.54977 -0.58008,1.41992 -1.57628,-0.28531 -0.44077,0.66178 0.45703,1.05469 -0.49013,0.10358 0.67599,1.73982 -0.10351,1.23437 -0.41472,2.13976 -1.45433,-0.3626 -2.21289,-0.4707 -1.06852,0.97389 0.38245,2.7845 1.16796,2.89258 1.09353,0.68881 1.94841,2.17022 2.47071,3.48047 1.76926,1.25058 0.5019,-2.93278 1.13086,-1.06836 1.52539,0.49922 2.00923,-1.16415 1.73437,-2.25586 0.74056,-1.44023 -0.47897,-1.19367 -0.6543,-2.16797 0.0623,-1.44696 -2.31155,0.27667 -0.94726,-1.32227 1.40664,-1.09869 0.14171,-1.13685 1.20508,-2.13476 -0.56787,-1.85453 -2.65479,1.05182 -3.43164,-0.98828 z m 15.89453,0.33007 c -0.20758,0.0138 -0.44334,0.0567 -0.70899,0.13282 -2.10991,0.55633 -2.8015,2.79796 -3.19726,4.66406 -0.41443,1.38832 -0.44251,2.31345 -0.41797,3.75586 -0.0344,1.7462 2.18596,1.16703 2.9668,2.16797 0.2767,1.2258 -3.17651,-1.12749 -2.21289,0.77148 0.29887,1.05551 1.31613,2.22651 2.31836,1.8086 0.97351,-1.55007 0.66136,1.3847 2.14648,0.6875 1.28337,0.55083 2.7117,0.38078 3.88672,0.79687 2.07883,0.59643 0.52691,-0.20215 0.74414,-0.77734 0.94922,0.11597 3.19488,1.5107 2.82031,-0.39453 -1.18865,-1.47719 0.1302,-1.0536 0.92188,-0.0312 0.53534,0.74644 1.12251,1.59814 1.51757,2.18164 0.13497,-0.85805 1.41739,1.11123 0.90625,1.75781 -1.83,0.85416 0.12986,1.05373 0.97657,0.28906 0.69471,-0.86177 -0.12108,0.88636 1.01367,1.25781 0.47945,-1.31658 0.40928,0.95173 1.02734,0.85938 0.37576,1.04137 1.76216,2.69909 0.84571,3.58398 -0.41902,1.05411 -1.57041,1.86239 -2.07227,2.8418 1.32855,1.18109 0.88446,1.98612 -0.67187,1.98828 -1.658,-0.30869 0.0634,2.35173 -0.81055,0.63672 -1.15863,-1.17015 -1.95285,-0.81238 -2.51367,0.20703 -1.22418,1.30112 0.89697,2.9012 2.01953,1.86914 1.18834,0.0455 1.53756,-1.00204 1.79883,-0.96093 0.626,1.39904 1.24567,-0.32509 1.5664,1.21093 0.95398,1.27058 0.86532,1.24927 2.07227,1.83203 -1.39903,0.7928 0.55309,1.33412 0.92969,1.81055 1.42913,0.11068 1.87452,1.90142 3.59179,1.78125 1.46141,1.26479 2.13338,0.0471 0.91406,-1.11328 -1.03555,-0.95562 -1.86401,-1.47817 -2.60156,-2.79492 1.6916,0.91716 0.8852,-0.44667 1.98633,1.02344 0.92923,0.67593 0.65452,0.33863 1.83984,1.11328 0.71403,0.99257 1.03459,-0.36035 0.6543,-1.17578 -0.55923,-2.29535 0.96359,1.65162 0.58789,-1.20508 -0.0446,-0.6398 -1.92321,-1.06382 -0.66992,-1.66992 -0.18798,-0.58766 -1.09508,-1.10325 -1.32031,-1.11719 -0.78613,0.11934 -0.95071,-1.05782 -1.34766,-2.00977 -0.91006,0.20414 -0.5561,-1.01641 -1.18164,-1.5332 1.00239,0.51766 1.7798,0.69382 0.62695,-0.94922 1.13269,1.14093 0.44964,-0.80725 1.25586,-0.25391 0.82812,1.21207 0.9687,1.38079 1.8086,1.48047 2.01879,-1.69386 -0.76923,0.36141 0.043,1.3086 0.86347,1.78443 0.72714,0.19226 1.52148,1.35351 1.10028,0.81616 0.10097,-2.14374 0.50195,-2.05859 1.22189,1.57328 0.74287,-1.03964 1.59375,-0.69141 -1.68403,-1.32101 0.85035,-0.25506 0.31446,-1.32617 -0.0234,-0.26112 1.24574,-1.65425 -0.85157,-1.12695 -2.33281,0.67894 0.0972,-0.60266 -1.30664,-1.3125 -2.06725,0.84139 0.33403,-0.34602 -0.70703,-0.91211 -0.9741,-0.41293 -0.93067,-1.8954 -1.32031,-0.0117 -0.26105,-1.22091 -0.64585,-1.22314 -1.29492,-0.56055 0.93276,-2.34659 -0.5973,0.20578 -0.42578,-1.21094 0.67795,-1.14566 -1.30917,-0.3332 -1.5,-1.40039 -2.39065,-0.83994 0.0338,0.0304 0.52539,-0.73242 -0.74899,-1.10095 -2.20348,-0.55221 -0.0156,-0.85351 1.95347,0.76475 1.00387,-1.33061 -0.4082,-0.94141 -2.05444,-0.11764 -0.53816,-0.65233 0.64648,-0.84961 1.38957,0.16632 -1.08792,-3.1463 -0.77148,-1.2168 -1.15263,1.24923 -0.42824,-1.22084 -2.09766,0.23438 0.52428,-0.82107 3.1536,-1.42865 1.10352,-2.38477 -1.40601,-1.05852 -2.45492,0.79173 -2.67774,2.09375 0.65304,-2.18349 -1.38958,-0.35272 0.60743,-2.06054 1.11344,-1.65632 -1.25682,-1.3011 -1.72266,-0.35547 -0.62754,-0.61354 2.39622,-1.08889 1.03125,-2.27539 -1.59904,-1.99869 -2.14085,1.31722 -2.27344,-0.0215 -1.4746,0.63463 0.3275,-1.17625 -0.79492,-0.73437 -1.04462,1.11407 -0.99015,2.27043 -0.63867,0.0254 -1.16599,0.38762 2.03871,-1.97467 -0.48242,-1.43164 -1.80723,2.23442 0.15448,0.14622 0.0312,-1.18164 -0.67718,-0.84176 -1.91301,-1.41023 -3.06641,-1.30664 -2.29817,0.44202 1.39174,2.82473 -0.37109,1.67187 -1.64083,-1.10299 -0.0735,3.02206 -1.01954,0.56641 -0.0999,-1.50878 -1.48752,-0.96813 -1.27539,-0.31836 -1.06675,1.62547 -0.98727,0.68111 -0.67187,-0.4668 -1.26556,0.0758 0.80343,-0.57605 0.12891,-2.26562 -0.34528,-1.04175 -0.55767,-2.57127 -1.55469,-3.20704 -1.57289,-0.49322 -2.01778,1.45687 -2.83203,1.10938 -2.3666,0.62832 0.19423,2.71835 -0.19336,2.39258 -1.43093,-1.50783 -1.68951,2.09842 -0.28907,1.7168 0.79517,1.8056 0.18631,0.19866 -0.96875,1.26757 -0.68266,1.2632 2.01434,1.46505 1.08008,3.00391 0.12045,1.20467 -0.77089,0.17445 -1.64453,0.49609 0.26512,-0.19439 0.53332,-0.3778 0.88281,-0.4375 0.96233,-1.06007 -1.72983,-2.18092 -1.06445,-3.74218 -0.1844,-1.43562 -0.63288,-2.79501 0.38281,-4.12305 1.3173,-1.03339 1.28119,-2.34254 -0.17187,-2.2461 z m -22.38867,0.41211 c -0.34096,-0.0307 -0.71713,0.0523 -1.0918,0.28711 -0.83765,1.07025 1.0681,2.11386 1.51953,3.09766 0.30781,-0.31187 0.34756,-0.69176 0.5918,-1.03711 0.69781,-1.13676 0.003,-2.25566 -1.01953,-2.34766 z m 28.98242,0.0449 c -0.68478,-0.0875 -0.5417,0.72164 -0.4082,1.74023 1.04255,0.60591 0.86889,3.31866 2.80078,1.75 1.28128,0.14501 3.39014,0.51735 1.97265,-1.20703 -0.4526,-1.39836 -1.88072,-2.20971 -3.37304,-1.87109 -0.4433,-0.25412 -0.76393,-0.38295 -0.99219,-0.41211 z m -31.76758,1.82422 c -0.21913,0.84973 0.0612,2.42678 0.32422,3.61718 0.26559,0.87869 0.96998,3.13168 -0.43555,2.41602 -0.3238,-1.83567 -0.50188,-3.64157 -2.08203,-4.75977 5.9e-4,2.43832 10e-4,4.87613 0.002,7.31446 -0.23585,1.43267 0.8654,4.20222 -1.53125,3.47461 -1.92664,0.36235 -1.37251,0.24287 -3.35742,-0.002 -1.4901,-0.0129 -3.92371,-0.36582 -2.97851,1.17188 0.2994,0.84003 1.0531,1.25169 1.94531,1.25195 2.00384,-0.60803 1.54594,1.37312 2.33203,2.45117 1.64945,-0.12366 3.34475,-0.16688 4.86719,-0.89844 1.22535,-0.26823 2.18588,-1.75575 2.89648,-1.92773 0.43515,0.91094 1.57564,1.43117 2.30664,1.45703 0.8782,0.72373 3.10274,0.2901 2.84571,-1 -0.13316,-2.03956 -1.79329,1.25007 -1.48438,-0.91211 -0.32832,-0.0691 1.05556,-1.08257 1.74219,-0.58594 0.59886,0.45433 1.45341,-1.12712 0.0351,-1.68554 0.51483,0.144 -1.82227,-2.10306 -1.72461,-1.08789 -1.18112,-0.76486 -1.9054,-2.09877 -1.43945,-3.46094 -0.67285,-1.71586 -0.92345,-3.60683 -1.43359,-5.34961 -0.82349,-1.24816 -1.87341,-1.4043 -2.83008,-1.48437 z m 12.98242,0.54101 c -0.31102,-0.0305 -0.83495,0.5592 -0.008,0.91016 0.30429,-0.65048 0.19443,-0.89188 0.008,-0.91016 z m 2.02735,4.70313 c -1.49275,0.7235 -0.20258,1.81387 -0.875,2.17968 -1.01326,-0.86843 -1.37588,2.98871 -0.14454,2.27344 -0.43777,0.5628 -1.29272,2.01029 -0.0898,3.02344 1.1351,0.72233 2.1451,0.81419 2.78516,1.38086 0.13405,0.69859 -1.09211,-0.51265 -0.66993,0.89258 -1.44533,2.30913 0.87563,-0.60156 0.53516,1.23828 0.25381,0.60848 -1.16145,2.2151 -2.07031,2.16601 -0.70839,0.96645 1.09694,2.86062 -0.32813,3.26758 0.15443,1.39553 -1.033,-0.27946 -0.25976,-0.23633 1.46204,-0.21624 -0.24251,-0.72829 -0.45117,-1.48242 0.61952,-1.33806 0.32986,-1.70777 0.0723,-1.9043 -0.0206,-0.0348 -0.0967,-0.12378 -0.24219,-0.28711 -0.0253,0.12429 0.10075,0.18093 0.23633,0.28321 0.0887,0.1873 -2.38437,-2.16536 -2.25586,-0.59961 -1.13913,0.57536 0.84914,1.16313 1.29102,1.85742 -1.2263,0.77706 -1.72291,-2.06448 -1.80078,-0.14063 -1.21036,-0.19986 -2.59904,0.0165 -3.82617,0.0605 -1.13065,-0.50127 -1.86724,-0.94475 -2.98829,-1.20898 -0.84131,-0.31246 -0.72551,-1.98019 -1.75195,-2.40235 -0.86745,0.69803 -3.74779,0.89889 -2.45117,2.38477 0.9152,-0.4329 1.73844,-0.45316 2.51758,-1.35742 0.95937,0.051 -0.76693,1.63819 -1.50977,1.68164 -1.00863,0.30592 -0.30797,2.01194 0.18555,2.8457 0.0453,0.61419 -1.00159,0.71014 -0.043,1.97461 -1.26384,-1.35934 -0.90707,-1.65568 -0.99414,-2.66992 -0.86022,-1.06254 -0.803,-0.38579 -2.00586,-1.6543 -0.78138,-0.42095 -2.20497,0.84788 -3.47266,0.59961 -0.93647,-0.0497 -3.62685,-0.11096 -2.39648,-1.40039 1.51148,-0.1708 1.33401,-1.39604 0.0176,-2.2168 -1.54578,-0.95289 -1.09471,0.49736 -2.76563,-0.28125 -1.16158,-0.87223 -2.67885,-0.99756 -3.70703,-2.00781 l 0.004,4.95703 c 2.94467,2.36654 5.91937,4.69571 8.95312,6.94727 1.52345,0.4585 3.16682,0.21215 3.98047,2.04883 2.72217,0.86449 5.68747,1.08739 8.5,1.71093 -8.6e-4,3.45834 -0.003,6.91667 -0.004,10.375 2.76504,-3.8e-4 5.53182,-0.002 8.29687,-0.002 0.0724,-0.94895 0.0534,-1.14209 0.49219,-1.91211 -0.017,-1.1464 1.2281,-1.82109 0.875,-2.67187 0.66928,-0.61751 0.95156,-0.86329 0.91601,-1.00196 1.15207,-0.70163 0.20128,-0.85436 0.99024,-1.24609 1.65285,0.43945 1.73832,-1.69598 0.25,-2.0625 -0.78817,0.51536 -1.51443,-0.86888 -2.26953,-0.73047 -0.21677,-0.98808 1.61361,0.7054 2.17578,0.51367 1.26899,0.92879 2.23365,-0.16688 2.08008,-0.875 0.3971,-0.23604 1.01746,0.66001 1.90625,-0.11328 0.40118,-0.74128 2.49545,-3.01678 0.64648,-3.07031 -1.74048,0.37518 -2.10543,-1.80249 -3.73047,-1.80469 -1.25269,-0.0169 1.46919,-0.12314 1.79492,0.16406 0.87967,0.67458 2.26981,2.43257 3.08399,0.62305 2.09328,-0.92071 -0.79012,-2.32367 0.5,-2.49805 1.22447,-0.34477 1.99038,1.49925 2.83593,0.66407 0.1356,-1.23805 -2.32813,-2.20133 -0.82031,-1.97266 0.59052,0.63901 1.0726,2.46416 2.17578,1.12109 0.69783,-0.90974 2.18029,-1.83995 1.26368,-3.15039 -0.45814,-1.04102 -1.42703,-1.9453 -0.76758,-2.61328 1.85256,0.27751 0.19846,-1.48041 0.69531,-1.58398 0.81032,-1.0659 -2.10976,-0.96576 -0.93359,-2.0918 -1.10086,-0.0151 -2.93001,-1.03195 -3.47461,-0.41797 -0.46552,1.31817 0.91189,2.10137 0.4375,3.0586 -0.50057,0.0126 -0.93396,1.61545 -1.24805,2.7539 -0.3621,0.84011 -1.20979,3.39135 -1.80664,1.41992 -1.10897,-1.288 -0.62254,-2.47015 -0.11523,-2.95703 0.0413,-0.86943 -1.1538,-3.04981 -1.84376,-2.2539 -0.40553,0.83357 -0.7971,4.11586 -1.26171,1.76367 0.50756,-1.32299 -1.35926,-2.08532 -0.24414,-2.51953 0.35987,-0.38143 -0.7601,-1.09372 -1.33399,-0.45313 -1.93018,-0.41012 0.36555,-1.27397 -0.61133,-1.83203 0.33191,-0.72244 1.37188,-0.0146 0.45313,-1.03906 -0.76251,-1.12037 -1.09226,-1.94582 -1.12696,-3.31055 -0.716,-1.05867 -1.3092,-2.16946 -2.25585,-2.19726 z m -6.34961,4.49609 c -0.19913,0.03 -0.34283,0.53324 0.26757,0.64453 -0.009,-0.51054 -0.1481,-0.66251 -0.26757,-0.64453 z m 15.63672,1.94727 c -1.32961,0.3252 1.52495,0.74605 0,0 z m -12.52735,0.81054 c -0.33973,0.0585 -0.68938,0.8956 -0.54883,1.1836 -0.45269,-0.39217 -0.008,1.62217 -1.33789,1.30468 0.0443,1.22089 1.35229,0.50529 2.09571,1.62891 0.83438,1.20681 3.1055,-0.73932 2.36914,-0.74609 -0.61688,-0.87373 -1.12199,-2.5472 -2.12696,-2.61329 -0.0957,-0.60163 -0.27195,-0.78867 -0.45117,-0.75781 z m 21.11328,0.27735 c -0.46881,0.23622 -1.03343,-0.14515 -1.18945,0.16796 -0.74363,0.41038 1.2905,1.09366 1.18945,-0.16796 z m 1.60742,0.24218 c -1.31377,0.12943 -0.77632,1.73114 0,0 z m 11.65235,0.10743 c -0.27483,0.005 -0.7659,0.34068 -0.0469,0.46484 0.29875,-0.35161 0.21178,-0.46787 0.0469,-0.46484 z m -32.02539,0.18164 c -0.0386,0.006 -0.0753,0.0271 -0.10352,0.0684 -0.3854,0.74819 0.67603,0.92335 0.41602,0.10742 -0.0536,-0.0808 -0.19675,-0.19438 -0.3125,-0.17578 z m -6.23828,0.1875 c -0.16713,-0.0126 -0.31529,0.16391 0.0586,0.5664 0.29462,-0.35206 0.10853,-0.5538 -0.0586,-0.5664 z m 12.4414,0.44336 c -0.32835,0.0757 0.32278,1.34432 0.20703,0.0508 -0.0919,-0.0489 -0.16012,-0.0616 -0.20703,-0.0508 z m 15.50586,0.12695 c -0.37156,-0.0616 -1.09526,0.41028 -0.14844,0.8164 0.46763,-0.55025 0.37138,-0.77943 0.14844,-0.8164 z m -15.83398,0.0488 c -0.10962,0.0491 -0.15372,0.49498 0.19726,0.51757 -0.0426,-0.4341 -0.13149,-0.54704 -0.19726,-0.51757 z m 14.02148,0.0976 c -0.36698,0.10671 -1.32437,1.39764 -0.8789,1.62305 0.63799,-0.1425 0.60179,-0.84204 0.97656,-1.25195 0.0828,-0.31073 0.0247,-0.40667 -0.0977,-0.3711 z m -24.85547,0.74024 c -0.12709,0.0301 -0.2062,0.93099 0.12891,0.34765 -0.0398,-0.2705 -0.0865,-0.3577 -0.12891,-0.34765 z m -0.34765,0.33593 c -0.24385,-0.0606 -0.4562,1.32102 0.22265,0.66993 -0.0564,-0.46947 -0.14137,-0.64972 -0.22265,-0.66993 z m -1.68164,0.69141 c -0.33845,-0.0177 -0.87779,0.42683 0.0351,0.67383 0.29868,-0.48644 0.16792,-0.6632 -0.0351,-0.67383 z m 30.73437,0.39453 c -0.34084,-0.10136 -0.74128,0.4488 0.23828,1.02149 0.1492,-0.66473 -0.0338,-0.96067 -0.23828,-1.02149 z m -34,0.31446 c -0.33896,-0.0485 -0.75656,0.24311 0.20899,0.52929 0.17003,-0.34887 -0.006,-0.50021 -0.20899,-0.52929 z m 29.62891,0.66796 c -0.21607,0.005 -0.64318,0.37907 -0.0957,0.52149 0.27977,-0.39386 0.22535,-0.52422 0.0957,-0.52149 z m 3.26172,0.10157 c -0.44068,0.0203 -0.85932,0.18351 -0.98438,0.69921 -0.86358,1.03815 -0.41665,3.37188 1.30078,2.47461 1.0894,-0.44509 1.2398,-2.80461 0.1211,-3.15429 -0.1419,-0.0169 -0.29061,-0.0263 -0.4375,-0.0195 z m -12.1211,0.28125 c -0.31082,0.0711 -0.67576,1.00022 0.0293,1.53515 0.17422,-0.10063 0.13533,-0.32089 0.22851,-0.46679 0.0949,-0.84569 -0.0713,-1.11101 -0.25781,-1.06836 z m -26.18164,0.42578 c -0.0911,0.01 -0.14817,0.26083 0.13477,0.33398 -0.0131,-0.25908 -0.0801,-0.33982 -0.13477,-0.33398 z M 543.53516,262 c -0.66421,-0.0116 -1.30894,0.97782 0.44922,0.86328 l 0.24609,-0.0293 c -0.087,-0.61691 -0.3934,-0.82871 -0.69531,-0.83398 z m -40.33399,0.25781 c 0.25235,0.75524 0.58216,-0.0987 0,0 z m 1.29688,1.08008 c -0.13795,-0.0913 -0.18362,1.20569 0.1582,0.67383 -0.0553,-0.45779 -0.11222,-0.6434 -0.1582,-0.67383 z m 52.27734,1.34375 c -0.1906,0.0512 -0.67612,0.38567 -0.23828,0.35352 0.36045,-0.31249 0.35264,-0.38426 0.23828,-0.35352 z m -52.14062,0.49024 c -0.0482,-0.0111 -0.11454,-0.008 -0.20118,0.0137 0.0287,0.78431 0.53867,0.0641 0.20118,-0.0137 z m 28.31445,2.09179 c 0.0778,0.0633 0.62185,0.27589 0.13281,0.01 -0.13339,-0.0353 -0.15874,-0.0309 -0.13281,-0.01 z m -1.2168,0.49219 c -0.10417,-0.0219 -0.17511,0.0147 -0.17187,0.14062 0.14225,1.00864 1.95112,1.46388 0.83007,0.75 0.2571,-0.23824 -0.34569,-0.82493 -0.6582,-0.89062 z m -0.81445,0.23047 c -0.23855,-0.0263 -0.36536,0.82735 0.38476,1.27539 -0.0583,-0.9274 -0.24163,-1.25964 -0.38476,-1.27539 z m -0.65039,0.33984 c -0.13231,0.0454 -0.29439,0.27541 -0.5,0.79102 -0.28687,1.38494 -0.28769,2.98288 -0.46875,4.24804 -2.02088,1.53281 0.29882,0.71887 0.86328,1.30079 0.035,2.32228 1.97883,-0.18773 2.34375,-1.05664 0.75204,-1.36829 1.24795,0.88028 2.24414,0.92968 1.41004,1.07941 1.96787,-1.41833 0.74414,-1.12109 -1.71508,0.66056 -0.0742,-1.78691 -1.88867,-1.98633 -0.84883,-0.47392 -1.96932,-2.46777 -2.58399,-1.30469 -0.22883,-0.41695 -0.35698,-1.93692 -0.7539,-1.80078 z m 9.0293,5.05078 c -0.19773,0.0202 -0.6134,0.41796 0.0762,0.14453 0.0316,-0.11591 -0.0103,-0.15128 -0.0762,-0.14453 z m 0.71874,0.98633 c -0.32939,0.0244 -0.55301,0.56105 0.4629,0.70508 -0.0304,-0.54998 -0.26526,-0.71969 -0.4629,-0.70508 z m -1.28906,0.4707 c -1.53363,-0.0337 1.95908,2.18124 0.37696,0.0391 -0.14992,-0.0242 -0.27472,-0.0368 -0.37696,-0.0391 z m -4.35547,1.34961 c -1.05578,-0.0798 -2.02383,0.1757 -2.16992,1.40039 0.36646,1.31142 2.38334,-0.33267 2.16992,-1.40039 z m 12.67969,0.18946 c -0.28889,0.003 -0.27546,0.58929 0.70313,0.82617 -0.24733,-0.61941 -0.52979,-0.82793 -0.70313,-0.82617 z m -4.04492,0.38281 c -0.18732,0.0292 -0.11623,0.26929 0.54492,0.27148 -0.22752,-0.23011 -0.43253,-0.28903 -0.54492,-0.27148 z m 11.07422,0.41992 c -0.53677,0.79831 1.24081,0.0298 0,0 z m -16.89063,0.36328 c -0.45471,-0.0438 -0.52699,0.133 -0.72851,0.49414 -0.64797,2.39052 1.88341,0.8873 0.72851,-0.49414 z m -15.59765,1.17774 c -0.10933,0.0285 -0.1819,0.12723 0.10937,0.21289 0.14602,-0.19951 -5e-5,-0.24135 -0.10937,-0.21289 z m 32.06445,0.0527 c -0.24032,-0.0292 0.75102,0.86082 0.1875,0.0762 -0.0927,-0.0493 -0.15317,-0.072 -0.1875,-0.0762 z m 0.0117,0.58008 c -0.32078,0.0673 -0.50699,0.37926 0.40234,0.73242 0.37378,-0.62222 -0.0816,-0.79968 -0.40234,-0.73242 z m -14.98438,2.07227 c -0.004,-0.0617 -0.79249,0.1473 -0.33203,0.16796 0.24811,-0.0981 0.33348,-0.14741 0.33203,-0.16796 z m 15.55469,0.67578 c -0.19968,-0.0233 -0.0504,0.68913 0.32031,0.33593 -0.14906,-0.23754 -0.25375,-0.32819 -0.32031,-0.33593 z m -3.84961,0.006 c -0.22636,-0.003 -0.52511,0.19934 -0.2207,0.62109 0.60102,-0.40779 0.44706,-0.6176 0.2207,-0.62109 z m -13.59375,1.48242 c -0.0346,-0.0804 -0.60754,0.18156 -0.20117,0.21484 0.16423,-0.12437 0.21271,-0.18806 0.20117,-0.21484 z m -0.37695,0.35937 c -0.0694,0.007 -0.16453,0.0766 -0.0781,0.18946 0.19108,-0.1396 0.1475,-0.19614 0.0781,-0.18946 z m 12.59961,1.24219 c -0.1239,0.0609 -0.29146,0.84595 0.0879,0.25781 -0.01,-0.21841 -0.0466,-0.27812 -0.0879,-0.25781 z m -12.07617,3.37891 c -0.074,0.0398 -0.17651,0.62711 0.0508,0.20117 -0.005,-0.16587 -0.0261,-0.21444 -0.0508,-0.20117 z m -0.0703,1.58007 c -0.0378,-0.035 -0.26909,0.29195 -0.0508,0.18555 0.0541,-0.12134 0.0634,-0.17388 0.0508,-0.18555 z m 0.36524,0.19141 c -0.0369,-0.0925 -0.18722,0.18773 -0.0176,0.23828 0.0286,-0.13642 0.0299,-0.20743 0.0176,-0.23828 z m 0.24023,0.36133 c -0.047,0.0332 -0.0726,0.15271 -0.0566,0.40625 0.0866,-0.34992 -1.07943,1.2366 -0.23437,0.75 0.0408,-0.15314 0.47754,0.51274 0.70312,-0.46875 0.0573,-0.11653 -0.27112,-0.78715 -0.41211,-0.6875 z m -0.49414,0.4082 c -0.17628,0.0365 -0.45033,0.20832 -0.29101,0.40235 0.54578,-0.33997 0.46729,-0.43883 0.29101,-0.40235 z m 1.13281,0.0352 c -0.10955,0.0346 -0.25263,0.23308 -0.10156,0.49219 0.28714,-0.39773 0.21112,-0.52685 0.10156,-0.49219 z m -1.48046,6.01172 c -0.0565,0.005 0.0141,0.29071 0.10351,0.11718 -0.0509,-0.0883 -0.0847,-0.1187 -0.10351,-0.11718 z m -1.49415,0.32226 c -0.6582,-0.17861 -0.9794,0.9197 0.68555,0.85352 l 0.0234,-0.1582 c -0.23366,-0.43366 -0.48958,-0.63578 -0.70899,-0.69532 z m 2.36133,2.09375 c -0.13893,-0.0718 -0.85584,0.29749 -0.1289,0.25 0.15686,-0.15412 0.17521,-0.22605 0.1289,-0.25 z"
           id="path3416-2" />
        <g
           transform="translate(-194.98928,-312.38589)"
           id="g8"
           style="fill:none;stroke:#0000ff;stroke-width:0.1">
          <g
             id="g3422"
             transform="matrix(0.12799176,0,0,0.12799176,661.66345,472.7032)"
             style="stroke:#0000ff;stroke-width:0.78130031">
            <path
               style="fill:none;stroke:#0000ff;stroke-width:0.78130031"
               d="m 277.92,1131.52 -36.42,0 0,0 0.05,-0.61 -1.19,-1.78 -1.48,-0.58 -1.89,-2.51 -0.11,-2.06 -1.4,-0.6 0.82,-1.98 -0.38,-2.82 0.3,-1.19 -1.23,-4.74 -1.83,-2.61 -0.88,-0.56 -1.03,0.44 -0.89,-1.14 -0.37,-1.33 -2.58,-1.79 0.42,-0.76 -0.28,-0.76 -1.57,-1.53 -1.83,-0.85 -0.39,-1.43 -1.87,-1.32 -0.54,-1.8 -2.3,-2.91 -0.96,-2.02 -0.76,0.03 -0.64,1.06 -0.74,0.02 -1.12,-2.49 -1.86,-2.34 -0.67,-1.59 -2.4,0.21 -1.46,-0.96 -0.64,-0.94 0.81,-1.63 -2.43,-1.5 -0.52,1.07 -1.44,0.39 -0.03,-1.42 -1.13,-2.07 0.18,-1.25 -1.31,-2.51 -1.38,-0.46 -0.43,-1.73 -0.79,-0.59 -0.33,-1.31 -1.7,-1.23 -0.26,1.44 -2.14,-1.05 -1.25,-2.14 -2.51,-0.27 -1.25,-1.81 -0.66,-0.36 -0.22,-1.46 1.57,-0.04 0.07,-0.28 -0.69,-0.99 -0.83,-0.36 -0.87,-1.83 0.01,-101.21 0,0 89.65,0 0,0 z"
               class="land"
               title="Alberta"
               id="CA-AB"
               inkscape:connector-curvature="0" />
            <path
               style="fill:#00ff00;stroke:#0000ff;stroke-width:0.78130031"
               d="m 154.04,960.68 34.24,0 0,0 -0.01,101.21 0.87,1.83 0.83,0.37 0.69,0.98 -0.07,0.28 -1.57,0.04 0.22,1.46 0.67,0.37 1.25,1.81 2.51,0.27 1.24,2.14 2.14,1.04 0.26,-1.44 1.69,1.23 0.33,1.31 0.79,0.59 0.43,1.73 1.38,0.46 1.32,2.51 -0.18,1.26 1.12,2.07 0.04,1.42 1.44,-0.39 0.52,-1.07 2.42,1.51 -0.81,1.62 0.64,0.94 1.46,0.96 2.4,-0.21 0.68,1.58 1.86,2.34 1.11,2.49 0.74,-0.02 0.64,-1.06 0.75,-0.03 0.96,2.02 2.31,2.92 0.53,1.79 1.87,1.33 0.4,1.43 1.83,0.84 1.57,1.54 0.28,0.75 -0.41,0.76 2.58,1.79 0.37,1.33 0.89,1.14 1.03,-0.44 0.88,0.56 1.83,2.61 1.23,4.74 -0.3,1.19 0.38,2.83 -0.82,1.98 1.4,0.6 0.11,2.06 1.89,2.51 1.48,0.58 1.19,1.78 -0.05,0.61 0,0 -78.23,0 -1.21,-1.11 -0.7,0.19 -0.42,0.92 -0.33,0 -0.28,-0.86 0.34,-1.01 -0.92,0.01 -0.43,-1.79 2.53,-0.45 0.61,-1.45 -1.22,1.05 -2.34,-0.3 0.8,-4.63 -1.23,1.42 -0.1,1.63 -0.91,0.11 -0.84,0.74 -3.24,-1.34 -1.23,-1.49 -0.23,-0.81 0.55,-1.03 0.63,0.26 0.95,1.81 0.7,-0.1 1.4,-1.21 -1.62,0.31 -1,-1.08 -0.27,-3.39 1.07,-1.49 -0.37,-0.78 -1.08,-0.55 0.72,1.56 -0.82,1.1 -0.25,1.63 -1.4,1.15 -1.25,0.29 -1.81,-0.5 -2.68,-2.94 -1.35,-3.88 -0.47,-0.81 -0.52,-0.11 -0.12,-0.77 1.74,-3.08 0.02,-3.32 -0.66,0.88 -0.08,2.05 -1.04,2.14 -1.35,0.53 -2.39,-0.29 -0.45,-0.52 -0.12,-1.62 -0.63,2.29 -0.78,0.3 -0.67,-0.61 -1.73,0.29 -4.35,-0.88 0.3,-0.81 4.65,-1.09 -0.75,-0.38 -3.49,0.63 -1.29,-0.18 -0.03,-0.64 1.28,-1.6 -1.32,-0.41 0.33,-1.34 -0.29,-1.37 -1.03,2.01 -3.82,0.67 -2.68,-1.11 -3.15,-2.92 -0.06,-1.68 0.73,-2.27 2.56,-3.09 5.87,-0.88 -5.8,-0.06 -0.93,0.41 -1.81,2.88 -0.62,-0.17 -1.22,-2.63 -0.11,-2.13 1.22,-2.5 -1.18,0.04 0.14,-1.4 0.43,-1.52 3.2,-2.41 1.75,-0.57 0.6,1.17 1.5,0.35 2.64,3.35 -1.62,-2.4 -0.38,-1.21 -1.69,-0.91 -0.6,-1.27 0.06,-1.18 1.72,-1.77 0.39,-0.93 -0.51,-1.79 -0.04,1.81 -0.48,0.99 -4.06,4.31 -1.74,0.6 -1.08,0.99 -2.4,6.72 -0.82,-3.04 -1.47,-2.34 2.87,-2.33 -0.13,-1.98 1,-1.35 -0.88,0.21 -2.09,2.47 1.25,-6.52 0.71,-1.55 -2.79,1.26 -0.78,-0.75 -0.65,-3.92 -1.14,-1.54 -1.94,-1.26 -1.9,-0.59 -0.81,-2.5 0.51,-1.62 0.83,-0.77 0.77,-0.35 0.73,0.16 -0.46,2.19 3.26,2.08 0.57,0.16 1.08,-0.74 2.02,0.63 1.84,2.14 -0.2,-0.83 -2.31,-2.3 -2.73,0.1 -1.47,-1.17 -0.79,-2.9 0.44,-0.96 1.64,-0.73 -1.06,-0.92 -0.48,0 -1.66,1.35 -0.62,-0.18 -2.23,3.02 -0.45,3.36 -1.83,1.07 -0.91,1.42 -2.31,-2.42 -0.81,-2.08 -1.46,-0.37 -1.69,-1.18 -0.65,-1.05 0.92,-2.17 1.32,-1.64 0.38,-2.4 2.26,-0.49 1.48,-0.99 -2.44,0.06 -1.67,0.69 -1.85,-1.36 -0.95,-1.25 -0.3,-1.06 0.72,-3.61 1.18,-1.16 2.95,-6.76 2.95,-4.68 -1.26,0.38 -0.84,-1.91 -0.38,3.79 -1.89,4.1 -0.39,-0.79 0.86,-2.45 0.1,-1.49 -0.97,-4.31 0.71,-5.07 -0.75,-2.54 -1.05,0.42 -1.78,-0.64 -0.57,-1.74 -1.54,-0.53 -0.83,-1.24 -3.06,-1.03 -4.41,-3.14 -2.23,0.14 -0.08,-1.54 -0.47,-0.93 0.18,-0.83 -2.13,-1.04 0.65,-2.78 -2.75,-0.87 0.95,-1.96 -10.67,-19.1 0.19,-1.26 -3.76,-5.05 -4.27,-3.34 -1.29,-3.25 -3.24,-2.88 -1.27,-0.67 -1.14,-2.69 0.18,-2.42 -3.81,-3.8 -4.11,2.32 -3.47,1.02 0.67,1.27 -0.28,0.93 -0.63,0.43 -1.06,-0.05 0,3.15 -1,2.23 -2.1,0.04 -4.16,2.82 -1.44,1.48 -0.74,-0.21 0.33,-1.32 -0.98,-4.1 -9.31,-9.73 -0.66,-2.19 -3.15,-1.79 0,0 136.55,-0.02 z m -57.33,83.03 0.38,-1.74 1.21,-2.52 -0.99,-5.63 0.31,-1.99 0.78,-1.73 -0.87,3.14 0.94,6.41 -1.76,4.06 z m -3.24,3.99 3.24,-3.99 0.09,1.23 -1.3,2.06 -1.67,1.02 -0.36,-0.32 z m -3.15,4.49 -0.24,-0.97 0.42,-1.39 1.33,0.28 -0.05,0.57 -1.46,1.51 z m -15.5,5.38 0.82,0.9 2.34,-0.46 1.23,2.19 -0.08,1.65 -3.49,2.4 0.27,0.54 3.12,-0.5 0.65,-2.65 -0.18,-2.65 1.74,-0.12 2.45,-1.52 -0.31,2.36 -1.67,4.13 -0.61,6.1 -0.48,0.65 -3.01,1.13 -1.55,-0.07 -2.04,-1.74 0.49,-0.86 2.4,0.46 -2.2,-1.83 -1.57,-0.74 -2.1,-4.97 -0.17,-2.56 0.44,-2.34 3.51,0.5 z m 21.69,2.58 -1.33,1.74 -0.77,-0.27 -1.07,-1.19 -0.47,0.29 -0.02,1.16 -0.53,-0.72 0.5,-1.5 1.78,-1.49 1.18,0.64 0.73,1.34 z m 3.48,11.9 -0.77,-0.13 -1.95,-2.53 -1.38,-0.92 -1.9,-2.06 0.59,-1.31 4.55,2.93 1.7,2.87 -0.84,1.15 z m 6.1,0.75 -0.98,0.1 -0.42,-0.46 0.77,-2.81 0.55,1.06 0.08,2.11 z m 5.52,2.65 0.38,6.22 -1.52,3.36 -0.47,-0.98 -0.32,-3.55 0.18,-2.43 -0.76,1.25 -0.62,0.07 -1.1,-1.21 -1.37,-3.1 1.28,-4.69 1.57,0.77 2.02,1.73 0.73,2.56 z m -28.7,-3.81 0.91,1.38 0.16,2.69 -1.44,0.55 -0.76,-0.44 -0.83,0.52 2.19,1.83 2.44,0.81 -1.21,1.82 1.44,2.29 1.53,0.09 -0.54,1.65 1.59,0.17 0.24,1.05 -0.94,0.96 -1.8,-1.23 -1.26,-2.37 -5.41,-5.64 -0.83,-2.23 1.01,-0.35 0.01,-0.62 -2.91,-1.08 -0.7,-0.98 3.52,-0.34 2.34,-1.06 1.25,0.53 z m 21.87,3.03 -0.86,-0.47 -0.81,-1.57 -0.01,-0.89 0.45,0.2 1.23,2.73 z m 3.38,7.12 -0.29,0.67 -1.63,-2.07 -0.89,-1.72 0.04,-1.32 2.26,2.21 0.48,0.9 0.03,1.33 z m 5.09,1.6 -0.69,0.2 0.29,-1.25 -0.24,-3.29 0.67,-1.26 1.05,-0.04 -1.08,5.64 z m -23.85,6.41 -0.66,-0.76 0.05,-1.99 0.78,0.81 -0.17,1.94 z m 27.83,7.04 -1.08,0 -0.93,-2.2 1.05,-1.18 1.03,1.77 -0.07,1.61 z m 6.52,11.86 4.45,1.76 9.73,2.2 1.19,0.58 2.23,4.25 2.68,3.89 0.27,0.64 -0.23,0.58 0.9,1.56 1.68,1.4 5.8,2.81 1.58,1.92 2.9,6.81 0.48,-1.47 0.48,0.27 0.95,2.9 -0.24,0.59 -1.21,-0.22 -1.14,1.41 -3.08,-0.86 -6.92,-2.84 -3.87,-2.21 -0.13,-0.83 2.56,-2.8 0.33,-2.52 -1.03,2.71 -3.9,0.22 -1.14,0.88 -3.04,-2.15 1.65,-1.28 -0.75,-0.19 -0.96,-1.05 -1.04,0.39 -0.29,-0.55 0.43,-1.56 -0.76,0.46 -0.71,-0.73 -1.29,-0.29 -0.55,0.83 -1.26,-0.95 -0.67,0.75 -0.4,-2.01 0.2,-0.65 3.66,-1.13 -1.91,0.16 -1.03,-0.82 -0.56,0.01 -1.42,-2.17 -1.97,-0.94 -0.66,0.85 -1.23,0.04 -0.73,-0.96 0.15,-1.72 -0.63,-0.9 -0.36,0.94 -0.53,0.26 -1.06,-1.55 -1.86,0 -0.86,0.59 -0.84,-0.09 0.22,-2.31 -1.11,-0.74 0.51,-1.39 2.37,-0.48 1.39,1.04 -0.38,-1.86 0.57,-0.65 -2.56,-0.34 0.18,1.01 -1.2,0.52 -1.74,0.01 -1.87,-1.56 -0.74,-1.23 0.03,-0.67 0.94,-1.19 2.9,-0.46 1.84,0.56 4.61,2.52 z m 18.05,7.61 -0.1,0.74 -1.46,-3.73 0.51,-1.44 0.94,0.34 1.09,2.37 -0.98,1.72 z m 1.85,0.94 -0.21,0.12 -0.22,-1.58 0.31,-1.16 0.75,1.86 -0.63,0.76 z m -14.91,5.87 -0.92,-0.11 -1.75,-1.45 0.37,-0.89 -0.26,-0.76 0.89,-0.48 0.79,0.4 0.79,1.36 0.09,1.93 z m 22.3,1.03 0.12,0.29 -1.99,-1.07 -2.58,-2.35 0.24,-0.23 1.81,0.66 2.4,2.7 z m -17.38,2.44 0.25,1.24 -1.48,-0.44 0.19,-1.15 1.04,0.35 z m 24.38,6.39 -1.51,-0.81 -1.33,-2.03 2.84,2.84 z m -0.56,1.78 -0.38,0.35 -0.36,-0.29 -0.58,-2.38 1.03,0.79 -0.18,0.29 0.72,1.22 -0.25,0.02 z"
               class="land"
               title="British Columbia"
               id="CA-BC"
               inkscape:connector-curvature="0" />
            <path
               style="fill:none;stroke:#0000ff;stroke-width:0.78130031"
               d="m 466.63,1014.55 -21.78,24.6 -20.1,24.19 -13.74,13.85 -0.02,49.18 0,0 -0.06,5.17 -55.62,-0.02 0,0 -5.68,-100.29 -0.01,-70.55 0,0 64.81,-0.01 0,0 -0.15,12.99 -0.73,3.14 -0.78,0.33 1.62,0.84 0.92,2.61 0.85,0.03 1.43,2.13 1.19,0.5 -0.41,7.17 0.54,-1.37 0.57,-4.25 0.77,-1.9 0.6,-0.41 2.47,-0.21 2.64,0.48 1.86,-0.2 0.89,0.53 0.71,4.05 5.98,19.7 -0.41,1.9 -1.22,2.74 -1.64,1.92 3.06,-1.88 1.37,-0.15 -0.47,1.23 3.03,-1.53 8.13,-2.93 1.91,-0.25 2.74,0.53 7.18,4.01 z"
               class="land"
               title="Manitoba"
               id="CA-MB"
               inkscape:connector-curvature="0" />
            <path
               style="fill:none;stroke:#0000ff;stroke-width:0.78130031"
               d="m 690.01,1170.96 -0.18,0.45 -0.97,0.17 -1.39,1.66 0,0 -1.5,0.38 -1.35,-1.8 0.35,1.71 -1.66,2.24 -1.07,0.16 -5.8,3.68 -3.04,1.45 -0.64,0.01 -1.38,-1.2 0.75,-1.28 -1.4,1.05 0.68,0.99 -0.33,0.37 -2.65,1.67 -0.64,-0.6 -3.24,0.96 -0.41,-0.99 -0.52,-0.15 -0.96,0.17 -1.48,-0.72 -0.59,0.6 -1.41,-1.55 0.4,-1.3 -0.59,-1.22 0.62,-0.72 -0.07,-0.93 -1.46,-0.23 -1.85,-1.37 0.32,-2.56 -0.36,-15.01 -3.84,-3.46 -1.1,0.02 -0.17,0.37 -4.05,1.49 -1.56,-0.44 -0.45,-0.77 0,0 3.81,-1.66 1.78,-1.42 0.45,-0.8 0.01,-4.53 2.37,0 0,-0.92 4.49,0 0.3,0.79 1.92,1.13 0.52,-0.43 2.24,-0.42 0.95,0.25 0.24,-0.85 1.98,-0.79 0,0 0.65,0.15 1.82,-0.75 0.62,0.08 1.34,0.96 3.23,1.04 0.84,0.68 0.8,2.18 0.53,0.35 1.11,-0.23 2.29,-1.65 2.03,-0.47 -0.4,0.72 1.55,-0.06 1.53,0.96 -1.33,2.06 -0.54,2.66 -3.65,3.52 1.14,0.68 1.34,-0.51 1.89,0.37 -0.67,2.26 0.8,2.47 0.81,0.36 0.7,4.1 0.82,0.58 0.14,0.92 2.96,0.26 3.04,0.96 0.37,0.5 -2.01,1.1 0.18,0.1 z m -3.99,-25.49 -1.03,0.69 0.82,-1.42 0.21,0.73 z m -0.29,0.96 -0.23,0.97 -0.78,0.82 -0.57,-0.02 0.19,-1.46 1.39,-0.31 z m -20.21,41.46 -1.21,0.66 0.85,-2.22 0.51,0.18 -0.15,1.38 z"
               class="land"
               title="New Brunswick"
               id="CA-NB"
               inkscape:connector-curvature="0" />
            <path
               style="fill:none;stroke:#0000ff;stroke-width:0.78130031"
               d="m 752.14,1097.28 -0.01,-8.05 -59.67,-0.14 -0.26,-0.58 1.09,-0.14 -0.91,-3.46 -1.52,-1.22 -0.14,-0.7 -0.99,-0.42 0.02,-0.4 1.44,-1.53 4.38,-1.47 -1.26,-1.26 -0.04,-2.82 -1.05,-2.03 -0.46,-0.13 -1.64,0.48 -0.61,2.7 -1.49,0.6 -0.35,0.58 -0.04,3.85 0.72,2.58 -0.25,2.8 -1.26,1.51 -0.57,3.5 0.4,1.63 -1.94,1.73 -0.82,0.12 -0.94,-2.09 0.68,-1.16 -2.74,-3.33 -1.84,-1.45 -2.82,-0.7 -1.23,1.89 -1.72,-0.45 -0.42,0.75 -0.5,-0.03 -1.37,-0.8 -0.55,-1.46 -1.64,-1.33 -0.59,2.13 -0.56,-0.42 -0.49,-1.62 0.61,-1.81 -0.29,-3.57 1.13,-3.49 -1.15,-1.69 -0.36,-0.12 -0.48,0.89 -0.84,0.4 -0.66,3.03 -1.13,0.6 -1.22,-0.17 -1.05,-0.84 0.13,-2.44 0.75,-2.27 0.23,-4.21 -1.18,-0.93 -0.8,-1.89 -2.77,-1.06 0.02,-2.77 -2.6,-4.01 2.24,-2.68 -0.88,-3.31 0.07,-1.56 0.58,-0.31 2.25,0.83 0.44,-1.03 0.77,-0.48 0.03,-0.56 -2.41,-5.13 0.07,-1.37 0.95,0.13 1.21,1.97 2.69,2.43 1.28,0.51 0.66,-0.78 -0.87,-5.15 0.2,-1.32 -0.65,-1.27 0.21,-0.54 5.53,5.64 2.45,0.94 0.78,1.59 1.08,0.93 4.97,0.4 7,-0.11 3.86,1.43 1.89,0.29 2,-5.38 -0.67,-1.94 0.15,-0.85 3.79,-3.13 -0.38,-2.74 -1.35,-0.45 -0.99,-0.85 -2.56,-4.21 0.02,-1 1.25,-1.1 -0.18,-0.53 -3.82,-1.15 0.11,-0.76 0.83,-1.09 -1.99,-1.4 -0.13,-1.54 1.62,-0.72 0.26,-0.59 -1.7,-3.77 1.9,-2.97 0.24,-2.19 1.06,-3.37 -0.38,-1.51 0.52,-1.28 -0.15,-2.61 1.29,-1.94 0.12,-0.9 -1.02,0.46 -0.7,-0.17 -1.5,-1.61 -0.75,0.28 -1.62,-3.91 -1.44,-1.38 -0.07,-0.77 2.66,-3.65 2.24,-1.72 -0.31,-1.64 -1.61,0.01 -0.08,-1.49 0.99,-0.73 4.16,-1.19 -0.85,-1.32 -1.21,-0.55 -4.17,1.61 -0.92,-1.68 -4.97,-1.44 0.14,-1.23 0.56,-0.5 3.38,0.87 0.62,-0.37 -1.38,-1.67 -0.37,-1.91 0.15,-3.03 1.12,-1.35 -0.06,-0.7 -0.53,-0.23 -2.42,1.09 -0.93,-1.3 0.24,-4.88 1.16,-1.89 -1.55,-1.15 -0.48,-0.89 2.13,-1.34 0.25,-0.56 -1.5,-0.99 -0.51,-0.99 2.08,-1 0,0 1.59,1.41 0.15,1.02 -0.97,1.38 -2.16,1.48 0.32,0.26 1.55,-0.82 2.47,-0.37 0.9,1.63 0.13,2.26 -0.52,1.87 1.53,-1.45 1.14,3.15 1.6,2.34 -1.98,1.82 0.23,0.51 1.48,0.54 0.04,1.26 1.24,-1.13 0.88,0.15 1.12,2.42 -0.82,1.38 -1.25,0.63 -2.92,0.44 0.27,0.46 1.32,0.01 3.54,-0.92 1.35,0.2 0.23,0.19 -0.78,0.53 0.84,1.71 -0.59,1.05 0.87,0.17 1.21,-0.35 1.58,3.55 -2.05,2.18 -2.58,1.6 -1.32,2.09 0.57,-0.01 2.36,-2.33 0.58,0.11 0.12,0.85 3.54,-1.39 1.16,-0.07 0.13,0.38 -0.72,2.64 -1.23,2.02 -2.25,1.24 -1.78,1.9 0.37,0.21 3.61,-2.15 2.97,-0.42 1.62,3.08 1.69,0.14 1.42,0.88 0.53,0.85 -0.86,1.54 0.57,1.69 -0.33,0.95 -3.32,2.13 -1.41,-0.08 0.89,0.68 2.76,-0.08 1.5,0.53 0.64,0.84 -1.14,2.03 1.05,0.83 2.08,0.24 2.64,2.84 -0.51,2.58 0.17,2.81 -1.43,0.43 -4.76,-0.72 -2.72,-1.11 -0.14,-0.34 0.77,-0.74 -1.81,0.51 0.91,1.17 2.5,1.03 1.12,1.24 1.23,0.11 1.05,0.95 -1.45,0.33 -0.99,0.83 0.62,0.49 3.82,0.54 0.8,0.48 -2.53,1.16 -0.05,0.93 1.38,0.37 1.74,-0.13 0.57,2.71 -1.32,0.4 -0.01,0.43 2.35,0.64 0.88,1.42 0.84,0.06 1.47,-1.52 0.79,0.26 0.06,0.87 1.29,1.15 0.27,1.4 0.77,-1.24 1.21,0.33 -0.6,2.15 1.94,2.67 -1.51,1.81 -0.8,2.61 -1.5,2.19 3.63,-2.76 2.53,-0.36 1.54,-0.79 0.57,0.64 0.06,1.14 0.75,0.36 0.79,-0.38 0.72,0.34 -2.72,3.64 -0.86,2 3.67,-3.76 1.51,-2.26 1.55,0.26 0.8,0.53 1.95,4.85 3.42,1 1.57,-0.6 0.25,-0.83 2.09,-0.15 0.3,1.59 0.92,0.84 1.79,1.06 1.29,0.16 0.7,0.76 -1.42,2.32 -1.22,0.83 -4.05,0.55 -0.61,0.98 -1.93,0.89 -1.78,2.73 -2.57,0.25 -1.06,1.06 -4.1,1.96 -2.93,0 -2.09,1.53 -0.79,2.07 -2.25,-0.86 0.23,0.69 2.41,1.81 -1.7,1.43 -0.14,0.47 0.49,0.25 -0.85,0.82 0.15,0.34 1.62,-0.6 2.86,-2.97 1.86,-0.49 2.68,-1.61 3.61,-3.5 2.4,-1.56 2.92,-1.13 3.5,-0.6 -1.16,-0.54 -2.26,0.19 -0.35,-0.88 1.47,-0.86 6.96,1 1.95,3.63 0.57,2.01 -0.98,1.16 -2.51,1.57 1.24,0.77 0.49,1.38 2.87,-3.06 1.54,-1.01 3.37,-0.39 1,2.12 2.19,0.56 2.25,3.66 0.55,1.97 -0.85,3.15 0.56,1.81 -0.38,2.11 0.63,1.37 -4.39,1.02 -0.29,0.43 2.44,0.1 2.74,0.92 0.36,0.68 -0.64,0.94 -2.1,-0.44 2.88,2.24 -0.04,1.51 -5.26,4.95 -6.22,4.89 -1.08,0.2 z m -41.63,-94.35 0.75,0.49 0.2,1.81 -1.42,-0.11 -1.62,-1.21 -0.32,-0.88 1.46,-0.51 0.95,0.41 z m 6.72,24.76 0.11,0.39 -1.87,-0.52 0.3,-1.13 0.63,-0.36 1.08,0.67 -0.25,0.95 z m 50.5,63.15 -0.52,-0.15 0.18,-0.56 1.13,-0.82 -0.17,0.95 -0.62,0.58 z m -0.88,5.1 -1.12,2.12 -4.01,0.86 -0.12,0.95 0.4,0.89 1.42,-0.08 0.41,0.55 -0.04,1.89 -0.64,1.79 -2.11,2.1 -0.8,2.46 -2.32,2.88 -0.27,1.53 -2.23,3.67 -0.2,1.73 -0.85,1.63 0.35,0.76 -0.12,1.34 4,-4.43 1.16,-2.18 0.61,-0.35 0.51,0.73 -0.35,1.71 2.1,-1.08 1.45,0.8 2.35,-0.32 -0.72,1.26 -4.09,2.6 -0.9,1.18 1.45,-0.81 0.97,0.11 -0.2,1.24 -1.75,1.77 2.44,-0.87 1.23,1.11 2.71,-0.76 0.29,1.61 0.57,-0.55 -0.03,-1.39 0.48,0.08 0.26,1.37 -1.28,3.29 -0.1,1.21 0.9,-0.57 0.07,-1.08 0.61,-0.61 1.34,-0.83 0.09,0.62 0.3,-0.11 4.31,-3.56 0.3,-0.03 0.19,2.75 0.83,-1.18 3.57,-0.37 3.03,1.65 0.45,0.79 -0.03,1.68 -1.66,1.44 -1.3,1.99 -2.31,1.38 2.77,-0.32 -1.01,1.42 2.4,0.36 -0.07,0.33 -0.79,1.75 -2.87,1.79 2.83,-0.75 0.54,-0.63 0.85,-0.21 0.83,0.4 1.26,-1.08 1.71,-0.21 1.46,-1.1 0.27,0.33 -0.09,1.61 -0.88,1.54 -1.78,0.62 -0.64,0.83 -1.83,1.16 0.44,0.45 -0.08,1.15 -2.69,0.91 2.07,0.07 -0.51,1.25 -1.51,1.79 0.88,1.82 0.83,0.02 0.61,-0.19 0.9,-1.08 1.98,-3.38 3.24,-2 0.49,0.46 -2.58,5.05 -0.14,2.95 0.42,0.75 1.59,-1.29 1.46,-2.88 0.64,0.32 0.52,2.6 -0.27,1.63 -2.05,4.25 0.27,1.21 -0.71,2.51 -1.37,2.13 -0.89,-0.06 -0.98,-0.75 -1.91,1.12 -0.48,-0.08 -0.07,-6.63 -3.7,4.01 -0.83,0.19 -0.64,-0.73 0.73,-2.7 2.18,-4.66 -1.25,-4.19 -1.82,-1.38 -2.66,6.05 -0.67,0.38 0.79,-2.27 -1.59,1.84 -1.84,0.31 -2.1,2.78 -0.44,1.68 -1.58,1.84 -1.93,-0.11 -2.31,0.61 -1.45,-0.79 0.27,-1.17 0.72,-0.72 3.11,-1.17 2.7,-3.8 2.88,-1.61 0.76,-1.24 -1.45,0.58 -1.15,-0.49 -2.62,-0.05 -0.61,2.12 -1.27,0.48 -2.56,-0.86 -2.38,0.36 2.33,-1.19 0.08,-3.01 -1.45,0.74 -0.91,-0.34 -1.27,1.74 -4.58,1.24 -6.27,-0.88 -1.67,0.08 -2.38,-0.66 -3.65,-0.03 -0.03,-0.72 -2.48,1.39 -4.52,0.74 -1.28,-0.84 -0.55,-1.36 -0.37,-2.02 0.81,-1.42 2.79,-2.19 3.19,-3.38 2.46,-1.49 -3.52,-0.25 -3.98,0.25 -0.01,-0.5 2.92,-2.54 -0.58,1.3 0.56,0.61 1.14,0.1 2,-5.5 0.81,-1.11 1.95,0.31 1.22,1.01 0.53,-0.01 -0.97,-1.22 1.07,-2.08 -1.89,-0.4 -0.2,-1.75 0.95,-1.55 0.82,-0.59 1.43,0.95 0.58,-0.22 -0.95,-1.52 -0.26,-1.39 4.42,-11.22 0.92,-1.4 1.35,-0.14 -1.06,-1.18 2.19,-2.24 0.43,-1.17 -0.27,-1.01 1.89,-1.63 1.28,-2.96 5.89,-3.38 1.11,0.06 0.33,0.8 1.57,0.53 0.28,-0.57 -0.37,-0.7 0.31,-0.28 1.3,-0.25 0.61,0.49 0,0.36 z m -0.69,11.64 -0.84,-0.01 0.22,-0.85 1.21,-0.22 -0.59,1.08 z m 12.93,13.63 1.01,1.14 -2.74,0.92 0.08,-1.6 0.7,0.32 0.55,-0.87 0.4,0.09 z m -4.13,2.15 -2.08,1.28 -0.69,-1.1 0.45,-0.32 0.72,0.51 1.56,-0.96 0.04,0.59 z m 2.93,28.98 -0.89,0.44 1,-2.34 0.78,-0.82 -0.89,2.72 z"
               class="land"
               title="Newfoundland and Labrador"
               id="CA-NL"
               inkscape:connector-curvature="0" />
            <path
               style="fill:none;stroke:#0000ff;stroke-width:0.78130031"
               d="m 716.24,1171.84 2.15,-0.5 -0.03,0.45 -1.52,0.85 0.59,0.57 -1.08,1.15 0.3,0.58 1.15,-0.57 1.73,-0.05 2.49,-2.79 -2.19,0.46 -0.25,-0.3 1.43,-1.35 -0.11,-0.71 0.72,-1.12 1.86,-1.39 0.64,1.5 1.2,-0.13 2.04,0.6 0.15,0.6 -0.76,1.2 0.95,0.7 -0.13,0.3 -1.56,0.79 -3.32,2.89 -2.57,0.82 -1.78,-0.25 -3.69,0.47 -1.49,-1.82 -0.41,-2.89 0.13,-1.52 0.64,-1.43 1.51,-1.71 3.32,-6.42 2.68,-2.64 1.46,-0.06 -0.15,1.05 0.83,2.43 -1.34,4.21 -0.11,1.85 -0.74,1.27 -4.74,2.91 z m -28.78,1.4 1.39,-1.66 0.97,-0.17 0.18,-0.45 0,0 2.94,1.99 1.74,-0.21 1.94,1.57 3.42,-0.31 1.88,0.46 -0.44,1.18 1.47,-0.16 0.92,0.5 4.73,-3.15 0.7,1.97 0.9,0.75 1.07,0.17 1.48,-0.57 1.27,1.45 0.61,1.69 -1.6,0.95 3.18,0.23 0.67,0.72 -0.62,0.74 -0.58,-0.29 -1.06,0.26 -11.03,4.95 -4.64,1.62 -1.11,0.04 -1.35,0.86 -1.35,0.03 -1.32,-0.54 0.53,1.75 -0.58,0.8 -1.89,-0.38 -1.61,-1.68 -0.91,1.97 -0.59,-1.24 -1.07,0.46 -0.47,1.32 0.56,1.38 -0.53,0.53 -0.39,-0.14 -0.81,1.48 -0.98,0.54 -2.54,3.41 -2.01,1.74 -1.33,0.01 -0.85,0.72 -0.13,1.46 -0.75,-0.15 -0.48,0.53 -0.74,-0.43 -0.87,0.24 -0.68,-0.33 -1.33,-2.9 -0.82,-0.24 -0.53,0.9 -0.79,-0.89 -0.6,-4.1 0.84,-2.79 2.08,-2.52 -0.66,-0.08 -1.83,1.75 1.12,-1.58 0.94,-0.67 2.7,-0.82 1.02,-1.01 -2.03,0.8 0.64,-0.79 6.76,-4.55 4.07,-1.71 0.38,-0.63 -0.37,-0.4 1.05,0.36 -0.21,2.17 1.07,0.3 0.89,1.15 -0.42,-1.57 0.8,-0.89 3.09,-1.19 2.58,-0.13 0.83,-0.55 -2.21,-0.37 -2.62,0.2 -1.62,-0.42 -2.23,0.27 -2.36,-0.26 -1.31,1.09 -1.49,-0.64 0.77,-1.28 2.4,-1.91 2.16,-2.71 z m 30.06,4.42 -0.37,0.11 -0.71,-0.97 1.52,-0.12 -0.44,0.98 z m -47.62,15.1 -0.45,0.44 1.02,-1.68 -0.57,1.24 z m 58.15,4.39 -2.24,0.41 -0.71,-0.58 2.25,0.08 1.25,-0.69 -0.55,0.78 z"
               class="land"
               title="Nova Scotia"
               id="CA-NS"
               inkscape:connector-curvature="0" />
            <path
               style="fill:none;stroke:#0000ff;stroke-width:0.78130031"
               d="m 277.88,449.94 0.01,16.42 0,0 -3.72,1.18 -3.02,-0.7 -3.71,-3.35 -0.54,0.44 -1.85,3.94 -0.74,0.56 -2.17,-0.36 -3.33,-3.68 -3.82,1.09 -3.96,2.15 -1.55,0.4 -1.08,-2.24 1.28,-3.29 2.64,-2.61 5.75,-3.64 4.53,-1.22 1.69,-1.29 1.07,-1.85 2.95,-2.94 1.74,-1.22 2.33,-1.05 1.88,0.05 3.62,3.21 z m 0.01,26.59 0,6.93 0,0 -6.7,3.06 -1.03,0.98 0.48,1.31 0.83,0.92 3.83,-0.21 0.92,0.4 0.64,2.59 0.01,3.81 -0.73,4.17 -4.34,3.25 -1.89,0.82 -1.49,-0.3 -1.49,0.19 -6.51,3.46 -2.01,0.02 -1.76,-0.83 -2.43,-3.27 -2.53,-1.29 -2.14,-2.29 -0.4,-2.08 0.79,-2.19 -1.46,-7.6 0.13,-2 0.74,-2.23 3.43,-1.25 4.48,-2.8 9.84,-3.52 2.99,0.33 1.31,-0.69 2.41,-0.29 4.08,0.6 z m -34.33,14.35 -2.45,1.43 -1.63,-0.03 -2.88,-2.02 -3.34,-6.22 -0.44,-2.23 1.25,-0.4 2.54,-2.74 2.48,-1.61 0.45,3.17 0.89,0.26 0.84,0.87 1.7,2.68 1.16,0.51 1.35,3.03 -0.01,0.8 -1.91,2.5 z m -15.41,16.28 0.68,1.59 -0.28,1.31 -1.05,1.07 -5.29,3.55 -1.04,1.66 0.39,1.42 3.84,5.29 0.42,1.2 -0.92,1.22 -1.76,-0.39 -1.28,0.67 0.17,1.07 1.95,3.53 0.63,2.86 -2.46,3.89 -2.22,1.31 -4.77,1.75 -0.41,6.06 -0.98,2.85 -1.73,0.96 -1.3,0 -3.13,-2.73 -1.36,-2.32 -0.24,-1.55 0.49,-4.9 1.66,-8.18 -0.34,-0.78 -0.56,-0.04 -2.89,1.75 -0.88,0.93 -0.97,2.9 -0.53,4.45 -0.95,0.85 -1.42,-0.02 -0.54,0.48 -0.07,1.89 1.4,1.77 0,3.15 -1.51,2.18 -1.64,4.97 -0.78,0.78 -0.78,-0.09 -0.7,-1.22 -2.46,-6.82 -0.51,0.52 -0.61,1.77 0.08,4.63 -0.9,1.46 0.13,0.66 1.57,1.78 0.21,2.03 -0.1,0.56 -0.63,-0.09 -1.14,2.55 -1.6,2.08 -2.22,0.25 -2.23,0.96 -1.38,-6.73 -0.66,-0.95 -1.21,-4.94 -0.69,-0.61 -0.46,0.72 -1.07,5.34 -1.74,1.36 -1.92,0.1 -2.39,-1.45 -1.92,-0.54 -1.34,0.62 -3.08,2.74 -1.19,-0.25 -0.96,-2.15 -0.05,-0.81 0.89,-1.84 -0.56,-1.53 0.14,-1.52 -0.82,-0.01 -1.96,1.04 1.15,-3.49 2.28,-4.74 1.38,-1.83 6.74,-1.53 0.47,-0.46 4.12,-7.99 5.53,-5.17 1.56,-4.39 0.99,-1.06 3.31,-5.68 4.55,-6.72 2.1,-2.62 2.42,-1.13 7.3,-1.99 5.26,2.61 1.25,0.16 1.17,-1.94 0.79,0.51 1.95,0.37 1.25,-1.65 -0.56,-0.75 -2.36,-1.38 -0.09,-1.37 1.83,-2.64 2.9,-0.78 1.33,0.2 1.38,1.11 1.8,2.29 4.13,3.99 z m 17.85,24.8 -1.36,1.28 -9.31,-1.89 -0.75,-1.4 1.69,-2.21 2.04,-0.96 4.74,-0.77 1.65,0.87 1.71,1.89 0.26,1.64 -0.67,1.55 z m 31.9,45.08 0,24.13 0,0 -3.44,1.27 -1.4,1.15 -1.85,3.15 -1.72,1.66 -7.06,4.61 -7.09,2.85 -4.46,0.5 -4.46,-0.94 -2.89,-1.97 -3.87,-3.88 -0.97,-2.25 0.58,-1.5 1.62,-1.74 2.42,-1.58 4.83,-2.15 4.38,-3.46 1.55,-0.65 4.21,-0.53 2.13,0.33 2.55,-0.66 3.7,-3.77 1.61,-2.36 0.41,-1.11 -0.54,-1.04 -0.79,-0.15 -3.94,3.25 -1.43,0.06 -3.88,1.16 -0.37,-0.03 -2,-2.32 -1.07,-0.41 -0.95,0.86 -1.36,2.33 -0.86,0.45 -6.82,1.36 -0.74,-0.53 -0.45,-0.99 -0.37,-3.45 0.29,-1.7 0.85,-2.2 2.61,-3.35 -1.09,0.14 -2.6,1.3 -1.24,-2.09 -1.36,6.89 -1.04,-0.37 -1.29,-1.1 -0.48,-0.15 -0.28,0.35 1.4,3.66 0.01,1.06 -0.86,1.85 -5.09,3.88 -0.97,-1.15 -1.36,-3.2 -1.2,-0.47 -1.11,1.19 -0.64,2.47 -1.07,1.43 -3.71,-2.54 -2.99,-4.54 -3.27,0.71 -1.47,-0.16 -4.46,-1.67 -0.88,-2.39 0.78,-3.01 1.12,-2.3 1.17,-1.36 0.93,-0.48 2.36,-0.27 6.08,-0.09 1.22,-0.36 6.65,-4.49 1.73,-2.19 0.18,-0.99 -8.18,3.58 -3.51,0.77 -5.37,-0.58 -1.01,-0.56 -0.23,-1 1.71,-3.66 1.53,-0.94 3.7,-1.34 4.94,-1.19 3.24,-0.03 2.72,-0.94 1.63,-1.08 -12.07,0.56 -2.84,-1.78 -0.09,-1.04 1.03,-2.19 -0.54,-2.11 0.17,-0.82 1.23,-1.77 2.19,-1.92 1.35,-0.27 2.61,0.66 7.43,0.68 1.44,-0.24 -2.21,-1.46 -6.92,-1.55 -0.31,-1.63 0.47,-2.61 1.78,-2.77 5.22,-2.3 2.08,-0.32 2.08,0.15 2.11,1.03 0.94,0.89 0.7,2.12 0.51,3.61 1.22,2.7 0.89,0.84 5.85,-1.92 1.73,0.49 2.52,1.62 3.26,4.85 4.2,4.91 -0.02,1.05 -1.61,1.63 -0.3,0.7 0.22,0.48 4.55,0.44 2.45,7.62 1.01,1.52 0.99,0.78 1.46,0.06 1.47,-0.45 6.45,0.77 z m 0,-25.93 -2.19,-2.35 -0.6,-2.39 0.4,-1.81 2.39,-2.4 0,0 0,8.95 z m -74.64,24.47 -2.56,2.31 -1.82,-0.24 -2.42,-1.7 -1.97,-0.58 -0.69,-0.56 -0.1,-0.59 1.5,-2.94 5.39,-7.59 4.39,-3.26 3.44,-4.39 1.06,-0.1 1.09,0.58 0.12,0.83 -1.14,4.13 -5.38,12.95 -0.91,1.15 z m -24.63,-5.99 -0.7,0.17 -0.78,-0.41 0.18,-0.93 1.75,-2.56 -0.14,-2.04 0.44,-0.9 0.71,-0.37 0.32,1.14 -0.38,3.38 -1.4,2.52 z m 12.01,56.32 2.38,-2.91 2.38,0.11 0.5,0.99 0.28,4.98 3.35,-5.78 1.79,-1.73 3.09,-0.73 2.1,0.02 4.04,1.13 2.83,1.99 2.23,2.29 8.9,11.44 2.9,2.63 1.11,1.49 0.92,2.44 -0.04,2.43 -1.01,1.51 -4.19,2.93 -4.4,2.18 -5.23,4.52 -3.58,2.14 -4.65,4.15 -8.77,6.6 -1.52,2.26 -2.48,7.4 -0.94,1.7 -2.28,1.73 -2.89,0.43 -0.81,0.48 -0.13,2.51 -1.54,6.92 -0.69,7.36 -1.58,3.54 -2.79,1.68 -4.86,1.61 -1.34,-1.65 -1.14,0.08 -3.65,5.01 -3.52,2.01 -2.6,2.66 -2.29,0.1 -1.03,-0.82 -1.64,-2.65 -2.59,-7.69 -2.92,-5.23 -6.74,-4.51 -4.81,-3.98 -4.22,0.35 -0.7,-0.52 0.7,-2.19 0.05,-2.43 1.6,-1.33 -0.45,-0.8 0.06,-1.31 1.03,-1.56 1.16,-3.43 3.55,-4.89 -0.39,-1.7 0.54,-6 0.35,-0.6 3.12,-1.91 0.16,-0.56 -0.21,-1.87 -1.33,-0.53 -0.72,-1.11 0.12,-2.06 1.88,-3.64 1.52,-5.48 2.78,-3.42 0.75,-3.71 2.09,-3.96 -0.68,-1.91 -1.93,-0.94 -0.93,-1.46 -3.44,-11.3 -1.2,-2.61 0.12,-0.7 11.01,-2.93 7.58,-0.94 7.85,-2.57 2.19,-0.15 1.69,0.51 6.82,5.92 5.48,3.29 3.42,0.69 -1.37,2.6 -0.2,1.39 z m 87.26,35.78 0.02,84.3 -22.41,0 0,2.34 -1.35,2.01 -2.02,0.03 -0.06,-4.38 -37.42,-0.02 -0.18,2.96 3.42,5.02 0.39,1.18 -1.84,0 0,0 -2.22,-4 -0.82,-6.52 0.54,-1.21 5.21,-1.97 9.19,-2.17 8.4,-1.47 3.81,0.13 2.25,0.69 6.33,0.47 5.14,1.02 3.33,-0.78 0.68,-0.56 3.64,0.07 1.35,-0.95 -0.84,-1.15 -3.48,-2.53 -9.25,-4.56 -5.48,-2.01 -1.87,-0.15 -3.27,0.57 -4.57,1.46 -10.31,0.95 -3.02,-1.01 -5.96,0.54 -5.33,-0.7 -6.07,-7.03 -1.01,-2.18 0.96,-1.84 4.08,-3.42 4.48,-1.49 8,-3.51 4.75,-1.23 -1.38,-1.16 0.01,-0.88 0.57,-0.42 2.21,-0.45 2.35,0.54 1.17,-0.19 0.34,-0.6 -0.31,-0.48 -2.23,-1 -10.7,2.89 -4.99,0.27 -3.46,1.23 -1.9,-0.04 -2.26,-1.23 -0.34,-0.88 0.7,-1.65 2.42,-0.99 1.22,-2.8 -5.64,0.55 -1.9,-0.26 -2.56,-1.08 -1.07,-2.21 0.39,-6.37 3.18,-5.3 1.98,-1.11 1.39,-1.68 -0.29,-1.42 -2.11,-3.45 0.96,-3.16 7.38,-8.95 2.65,-2.53 2.55,-1.37 3.57,-2.93 9.15,-4.9 8.19,-4.96 3.01,1.31 0.86,1.03 0.71,2.09 0.68,4.94 -0.02,3.46 -0.5,2.96 -3.7,8.09 0.57,0.38 1.04,-0.31 3.45,-1.82 2.38,-0.64 0.63,0.78 0.4,-0.16 0.7,-1.27 0.08,-3.86 1.78,-3.89 0.76,-0.95 1.21,-0.44 2.87,0.28 6.32,2.99 5.31,3.71 1.66,1.58 0.17,1.36 -0.94,2.89 -2.29,4.07 -2.55,2.35 1.2,0.62 0.78,1.04 3.26,-4.58 0.42,-0.12 0.1,0.3 -0.13,2.53 0.75,0.21 0.4,-0.26 1.62,-1.97 1.59,-3.03 2.41,-1.97 0.66,-1.01 2.1,-0.84 0.07,-2.94 -3.2,-3.11 -1.22,-2.53 0.26,-1.95 5.91,0.75 z m -95.74,95.56 0.04,38.73 36.64,29.12 36.64,27.67 16.44,0.11 10.34,12.68 2.7,1.89 2.17,0.71 62.52,11.46 -0.02,81.06 0,0 -71.7,0 0,0 -89.65,0 0,0 -34.24,0 0,0 -0.54,-0.69 -1.18,-0.11 0.12,-1.44 -1.68,-3.5 -0.37,-2.39 -0.21,-0.38 -1.38,-0.38 -1.76,-3.06 -0.11,-0.71 0.95,-1.6 -0.7,-3.02 -2.01,-0.15 -0.66,1.85 -2.43,0.29 -1.53,0.95 -3.45,-0.88 -1.72,-0.92 -0.93,1.5 -1.42,-1.05 -0.55,0.18 -0.11,0.86 -0.56,0.45 -2,-0.29 -1.3,0.7 -1.74,-0.13 -0.76,-5.21 -0.99,0.02 -0.34,-0.36 0.59,-1.04 0.05,-2.05 -0.46,-2.48 -0.84,-1.78 -1.19,-0.89 -2.77,-0.39 -1.78,-1.61 -1.67,-1.74 -0.48,-1.93 -1.43,-0.98 -1.74,-3.21 -1.44,-1.59 -1.06,0.09 -1.21,0.93 -0.84,-1.06 -2.05,-0.12 -1.06,-0.52 0.2,-1.29 -0.54,-1.43 0.48,-1.52 -0.51,-1.01 0.96,-1.26 -2.7,-2.1 -0.31,-1.46 -0.85,-0.76 -0.88,-2.34 0.04,-1.94 0.92,-2.53 -1.93,-0.65 -0.7,-1.9 -2.04,-1.77 0.29,-0.84 1.76,-1.74 0.54,-1.6 -0.38,-1.39 -0.79,-1.22 -0.78,-0.4 -0.43,-1.2 -1.19,0.34 -0.53,-0.51 0.39,-0.68 1.24,-0.72 0.03,-0.41 -1.48,-0.59 -4.26,-3.47 -1.54,-2.71 0.15,-1.38 -1.73,-4.3 -2.26,-1.19 -2.04,1.62 -1.89,-0.16 0.61,-3.03 -1.47,-0.9 -1.91,-2.61 -1.92,-1.27 -2.4,-0.66 -0.12,-0.67 0.86,-1.22 0.07,-1.56 1.29,-2.11 -1.47,-0.79 -0.22,-1.62 -0.35,-0.31 -1.15,0.37 -0.58,-0.77 0.1,-0.46 1.48,-1.18 0.5,-1.3 1.76,-2.21 1.35,-3.33 -0.9,-2.57 -2.33,-3.08 0.14,-0.64 1.78,-1.52 -0.02,-0.52 -0.25,-0.32 -1.01,0.1 -1.17,-0.89 -1.86,2.23 -0.73,0.32 -0.59,-0.44 0.46,-1.49 -0.19,-0.59 -2.61,0.5 -1.64,1.1 -1.88,-0.41 -0.5,-2.67 0.97,-1.79 -0.13,-2.41 -1.86,-0.43 -0.09,-0.47 0.54,-2.55 0.77,-0.29 0.17,-2.53 -1.15,-1.92 -0.38,-1.87 0.1,-1.94 -2.13,-2.86 -0.22,-1.38 -18.95,-0.25 -0.48,-1.68 0.05,-2.14 1.01,-2.85 -0.65,-2.76 0.07,-2.14 -0.57,-2.02 -1.5,-1.54 -0.4,-1.91 0.02,-27.85 0,0 2.88,0.32 2.29,1.23 4.52,3.37 0.93,0.3 0.25,-0.25 -1.82,-3.65 -1.82,-1.25 -2.3,-0.86 -0.27,-1.64 3,-0.39 0.13,-0.47 -1.5,-0.56 -1.5,-1.56 1.96,-5.04 0.69,0.51 1.03,-1.17 1.85,0.74 0.34,-0.41 0.23,-2.58 0.8,-1.09 2.58,-0.46 3.22,0.46 0.33,-0.25 -0.35,-2.42 0.39,-2.41 0.38,-0.42 1.5,0.33 1.48,2.85 1.59,0.76 0.18,0.53 -2.64,6.48 4.31,-2.93 4.76,-1.67 1.21,-1.9 1.01,-3.11 0.67,-0.54 2.81,0.19 1.1,-0.4 -0.67,-0.87 -0.8,-0.14 0.72,-1.03 1.39,-0.36 0.91,1.13 0.62,0.08 2.06,-1.25 4.42,-4.27 1.07,-0.16 0.92,0.61 0.71,-0.16 1.88,-3.79 2.34,-1.98 1.5,-0.43 2.9,1.51 2.06,-0.13 1.93,-2.67 0.49,-0.02 1.23,2.32 0,0.82 -0.99,2 -7.27,5.67 -3.35,3.32 -9.91,3 -1.71,3.38 -1.81,2.4 -1.35,0.88 -1.84,0.34 -1.17,1.37 -5.39,9.04 0.63,1.84 1.36,0.74 0.53,-0.17 -1.63,-1.81 0.14,-0.69 5.36,0.81 1.55,-1.51 -0.09,-0.36 -1.45,-0.15 -0.31,-0.66 -0.28,-2.24 0.46,-1.68 1.56,-1.54 1.68,-0.66 3.93,-3.12 1.19,-2.05 -0.3,-0.77 0.28,-0.77 2.02,-0.75 1.97,0.66 0.36,0.52 -0.19,1.37 1.46,-2.39 0.88,0.11 0.45,0.56 0.24,1.68 0.14,3.9 0.86,-2.81 3.22,-6.37 1.46,-2.22 2.12,-1.66 4.89,-2.76 4.15,-1.44 1.88,-2.2 -0.36,2.38 -1.79,1.1 -0.18,0.84 0.5,2.15 0.42,0.41 1.8,-1.29 4.18,-5.44 0.97,-3.88 1.64,-1.4 2.97,-1.6 0.73,-1.02 -2.6,-0.86 -0.62,-0.95 0.49,-0.92 -1.62,-1.48 0.38,-2.82 1.22,-1.35 2.14,1.53 4.72,5.9 2.68,6.19 1.51,5.45 1.31,3.19 4.92,6.76 3.01,2.22 1.82,0.72 1.24,0.06 1.93,-2 0.04,-1.32 -1.7,-3.75 0.1,-0.94 1.13,-1.81 0.16,-2.5 1.09,0.29 2.79,-4.49 -1.99,-0.96 2.2,-1.41 0.35,-0.97 1.36,-0.9 0.99,1.07 -0.25,5.03 0.58,3.93 0.52,0.85 2.01,1.15 -0.12,0.95 -3.07,5.84 0.5,1.17 0.79,0.37 2.03,0.15 0.56,-0.35 4.67,-0.42 1.5,-2.74 1.33,-1.15 1.23,-6.21 1.08,-0.94 1.54,0.27 6.41,-0.2 4.83,1.05 5.1,2.98 2.5,2.43 z"
               class="land"
               title="Northwest Territories"
               id="CA-NT"
               inkscape:connector-curvature="0" />
            <path
               style="fill:none;stroke:#0000ff;stroke-width:0.78130031"
               d="m 551.16,1104.76 0.06,46.05 -0.42,0.97 1.11,4.6 3.77,6.89 2.09,2.77 2.87,1.12 6.97,1.55 2.79,1.6 1.24,2.05 1.81,1.23 0.81,0.08 0.25,-0.96 0.8,-0.05 1.41,3.04 1.02,1.28 1.25,0.58 2.61,-0.11 1.09,0.27 0.87,0.81 2.49,-0.39 6.83,-2.44 2.57,0.13 1.62,0.82 -0.73,3.18 1.23,1.31 0,0 -3.3,2.67 -1.33,0 -2.89,1.32 -5.54,5.14 -2.33,1.55 -3.14,1.3 -2.51,0.55 -2.72,1.79 -0.45,0.04 -0.13,-0.44 1.27,-1.14 -0.87,0.56 -0.44,-0.65 -2.39,0.34 -2.32,1.04 2.26,-0.73 0.01,0.61 0.32,0.08 0.22,-0.51 1.4,-0.43 0.29,0.31 -0.17,1.27 2.15,-0.67 -1.62,1.84 1.56,-0.16 -0.08,0.27 -1.57,0.74 -1.38,0.09 0.16,-0.89 -0.69,0.32 -0.43,-0.31 0.5,-0.22 -2.19,0.02 -0.58,-0.56 0.17,-0.21 -1.19,-0.25 -0.4,0.44 -11.32,1.91 -3.65,2.6 -0.75,0.12 -1.04,1.04 -1.58,3.08 0.41,0.59 3.5,0.68 2.48,-1.04 -0.11,2.33 1.23,2.27 -1.08,0.55 -2.95,-0.22 -6.4,0.95 -1.08,0.34 -2.07,1.96 3.49,0.72 -0.28,0.09 -8.47,-1.41 -3.27,0.39 -2.92,2.22 -1.23,2.27 -0.07,-0.68 -4.82,2.55 -0.89,2.06 -1.2,-1.26 -2.61,0.37 -1.54,-0.78 0.31,-2.76 1.84,-1.03 2.89,-2.9 1.15,-4.78 2.95,-1.41 2.72,-2.38 0.4,-0.79 0.31,-2.04 -0.03,-7.1 1.28,-2.86 1.46,-1.26 1.12,-2.29 0,-1.84 -0.72,-1.53 0.03,-0.84 -0.86,-0.47 -1.25,-1.91 -1.04,-0.73 0.08,-0.35 3.7,0.13 -0.25,1.08 0.48,1.62 1.09,0.76 0.04,0.63 0.53,0.05 0.91,-0.71 -0.3,1.18 -1.11,1.34 1.5,-0.5 0.61,0.35 -0.13,2.05 1.07,-1.04 1.07,-0.34 0.69,1.11 1.19,0.76 3.37,1.11 0.69,-1.03 0.09,-1.01 -0.99,-1.94 1.6,-0.71 0.04,0.63 0.88,0.56 1.33,-0.01 -0.16,-1.34 -0.68,0.7 -0.51,-1.48 -0.66,-0.25 -1.65,-1.93 0.71,-0.56 -1.03,-0.89 0.64,-0.99 -0.07,-0.93 -1.07,-0.28 -0.01,0.67 -1.54,-0.7 -0.58,-2.81 -0.27,0.46 -0.6,-0.07 -2.75,-4.63 -2.5,0.12 -0.57,-0.17 -0.12,-0.79 -0.57,0.54 -1.91,-0.26 -1.32,0.36 -0.39,-0.95 0.88,-0.45 -0.66,-0.58 -1.34,0.79 -0.04,-0.6 -3.83,-0.38 -1.38,-0.76 -2.58,0.27 -0.73,-0.45 -2.75,0.33 -7.33,-1.56 -0.35,-0.4 -1.88,-0.36 0.04,-1.89 -0.7,-0.72 -2.39,0.53 -0.61,0.5 -0.61,-1.21 1.17,-1.91 -0.45,-0.27 -0.46,0.6 -0.12,-1.41 1.67,-0.97 -1.08,-0.84 -1.23,0.28 -1.35,-1.07 1.62,-4.16 -1.09,-1.4 -1.97,-1.5 -0.7,-1.31 1.43,-4.14 -6.81,0.12 -2.68,-1.19 -1.71,-2.42 -1.6,-5.22 -1.58,-2.26 -1.09,0.16 -1,-0.74 -1.14,0.48 -3.62,-0.04 -6.65,-2.48 -0.51,-0.54 -2.02,0.18 0.21,1.61 1.04,1.24 -0.27,1.26 -0.85,1.16 -1.89,0.5 -0.51,1.26 -0.52,0.27 -0.06,-1.09 2.18,-2.85 -0.65,-1.44 -0.96,0.16 -0.42,2.37 -0.68,0.8 -0.98,2.9 -1.78,0.65 1.42,-3.34 -3.82,1.78 -0.19,1.88 -1.11,2.54 -0.83,0.3 -1.25,1.3 -3.73,-0.18 -0.88,-1.38 -5.85,0.18 -0.86,-1.29 -0.68,-0.12 -1.14,0.21 -3.08,1.81 -1.17,0 -3.05,-1.87 -1.32,-1.4 -1.49,-0.49 -1.14,0.13 -0.45,0.7 -0.59,0 -0.77,-2.13 -4.44,-2.38 -3.41,-0.07 -0.78,0.76 -2.19,0.48 -0.86,-0.32 -0.43,-0.79 -1.83,-0.7 -5.07,-1.13 -0.75,-0.89 -0.88,-2.64 -0.46,-4.12 -0.76,-0.62 -1.94,-0.28 0,0 0.01,-49.18 13.75,-13.85 20.1,-24.19 21.78,-24.6 0,0 1.09,0.61 3.4,3.35 3.33,2.29 5.31,7.18 5.05,1.71 8.38,3.48 2.76,1.5 2.42,2.68 1.7,1.29 0.05,0.81 -1.37,3.42 1.36,-2.27 1.37,-0.96 4.87,0.42 5.44,-0.88 6.24,1.57 2.04,-0.26 1.06,1.11 2.6,0.19 1.65,1.27 0.76,1.09 0.8,2.87 -1.78,7.06 -0.05,1.71 1.65,3.05 0.88,3.45 -0.44,3.12 0.28,5.21 -0.9,1.56 -0.28,1.92 0.28,1.04 2.16,2.21 3.77,5.58 0.25,0.96 -0.36,0.63 -1.94,1.46 2.5,-0.18 0.75,0.47 1.62,1.68 2.84,1.7 2.78,3.1 1.92,5.32 -3.66,3.77 3.34,-2.6 0.99,-0.32 0.92,0.19 1.45,0.48 2.4,1.56 2.86,3.66 z m -0.01,-0.67 -1.74,-2.16 -0.21,-0.98 0.44,-2.29 1.5,-2.84 0,0 0.01,8.27 z m -76.29,31.17 -0.4,-0.31 0.17,-1.3 1.27,-0.38 1.34,0.32 -0.46,0.99 -1.92,0.68 z m 3.67,-0.53 -0.98,0.03 -0.16,-1.08 0.73,0.18 0.41,0.87 z m 17.53,13.74 -1.73,0.19 -0.83,-0.38 0.61,-0.58 1.05,-0.21 1.52,0.66 -0.62,0.32 z m 16.65,20.51 -0.61,0.24 -0.28,0.65 -0.64,-0.16 -1.06,-2.3 0.32,-0.29 1.53,0.33 0.86,0.9 -0.12,0.63 z m 4.27,3.69 -0.49,0.15 -0.84,-0.49 0.79,-1.05 1.09,0.35 -0.55,1.04 z m 4.58,-1.24 -0.02,0.86 0.52,0.66 0.94,-0.02 1.16,0.69 0.1,-0.55 -0.54,-0.6 0.48,-0.55 1.75,-0.56 1.7,1.45 0.79,-1.1 1.04,-0.31 0.88,1.21 0.33,1.82 0.95,-1.93 0.3,0.28 -0.18,0.9 0.83,0.13 -0.83,1.73 -1.28,1.4 -0.48,0.14 -0.86,-0.44 1.01,-0.52 0.94,-1.11 -2.65,1.74 -1.8,-1.26 -3.32,-1.43 -2.79,-0.5 -2.56,-1.17 0.41,-0.86 0.71,0.43 2.47,-0.53 z m 9.26,6.54 -0.37,-0.41 1.04,-0.37 -0.67,0.78 z m 14.47,8.32 -0.56,-0.7 0.58,0 -0.02,0.7 z m 34.15,8.17 -0.52,0.43 -0.55,-0.08 -0.07,-0.43 0.55,-0.81 1.82,-0.34 -1.23,1.23 z m -2.89,0.23 -1.09,-0.03 1.5,-0.74 -0.41,0.77 z m -53.35,29.18 -0.42,0.13 0.27,-1.1 0.15,0.97 z"
               class="land"
               title="Ontario"
               id="CA-ON"
               inkscape:connector-curvature="0" />
            <path
               style="fill:none;stroke:#0000ff;stroke-width:0.78130031"
               d="m 691.98,1165.07 0.66,-0.15 0.5,-1.06 2.02,0.76 0.79,-0.06 2.14,1.12 8.66,-0.85 1.25,0.85 -4.5,2.83 -0.16,2.25 0.59,0.37 -0.48,0.29 -2.45,0.05 -0.66,-0.36 -0.22,-0.86 -1.07,0.02 1.15,-0.73 -0.53,-0.93 -0.55,0.07 -0.37,-0.44 0.03,-0.59 0.66,-0.6 -2.62,1.5 1.06,0.15 -0.54,0.37 -3.84,-0.91 -1.43,-1.77 0.38,-0.4 -3.16,-0.36 -0.22,-2.26 -2.26,-0.53 -0.14,-0.67 0.44,-1.01 3.23,-3.82 0.11,1.94 -0.95,1.8 1.66,1.78 0.35,0.87 -0.38,0.82 z"
               class="land"
               title="Prince Edward Island"
               id="CA-PE"
               inkscape:connector-curvature="0" />
            <path
               style="fill:none;stroke:#0000ff;stroke-width:0.78130031"
               d="m 684.78,955.19 -2.08,1 0.51,0.99 1.5,0.99 -0.25,0.56 -2.13,1.34 0.48,0.89 1.55,1.15 -1.16,1.89 -0.24,4.88 0.93,1.3 2.42,-1.09 0.53,0.23 0.06,0.7 -1.12,1.35 -0.15,3.03 0.37,1.91 1.38,1.67 -0.62,0.37 -3.38,-0.87 -0.56,0.5 -0.14,1.23 4.97,1.44 0.92,1.68 4.17,-1.61 1.21,0.55 0.85,1.32 -4.16,1.19 -0.99,0.73 0.08,1.49 1.61,-0.01 0.31,1.64 -2.24,1.72 -2.66,3.65 0.07,0.77 1.44,1.38 1.62,3.91 0.75,-0.28 1.5,1.61 0.7,0.17 1.02,-0.46 -0.12,0.9 -1.29,1.94 0.15,2.61 -0.52,1.28 0.38,1.51 -1.06,3.37 -0.24,2.19 -1.9,2.97 1.7,3.77 -0.26,0.59 -1.62,0.72 0.13,1.54 1.99,1.4 -0.83,1.09 -0.11,0.76 3.82,1.15 0.18,0.53 -1.25,1.1 -0.02,1 2.56,4.21 0.99,0.85 1.35,0.45 0.38,2.74 -3.79,3.13 -0.15,0.85 0.67,1.94 -2,5.38 -1.89,-0.29 -3.86,-1.43 -7,0.11 -4.97,-0.4 -1.08,-0.93 -0.78,-1.59 -2.45,-0.94 -5.53,-5.64 -0.21,0.54 0.65,1.27 -0.2,1.32 0.87,5.15 -0.66,0.78 -1.28,-0.51 -2.69,-2.43 -1.21,-1.97 -0.95,-0.13 -0.07,1.37 2.41,5.13 -0.03,0.56 -0.77,0.48 -0.44,1.03 -2.25,-0.83 -0.58,0.31 -0.07,1.56 0.88,3.31 -2.24,2.68 2.6,4.01 -0.02,2.77 2.77,1.06 0.8,1.89 1.18,0.93 -0.23,4.21 -0.75,2.27 -0.13,2.44 1.05,0.84 1.22,0.17 1.13,-0.6 0.66,-3.03 0.84,-0.4 0.48,-0.89 0.36,0.12 1.15,1.69 -1.13,3.49 0.29,3.57 -0.61,1.81 0.49,1.62 0.56,0.42 0.59,-2.13 1.64,1.33 0.55,1.46 1.37,0.8 0.5,0.03 0.42,-0.75 1.72,0.45 1.23,-1.89 2.82,0.7 1.84,1.45 2.74,3.33 -0.68,1.16 0.94,2.09 0.82,-0.12 1.94,-1.73 -0.4,-1.63 0.57,-3.5 1.26,-1.51 0.25,-2.8 -0.72,-2.58 0.04,-3.85 0.35,-0.58 1.49,-0.6 0.61,-2.7 1.64,-0.48 0.46,0.13 1.05,2.03 0.04,2.82 1.26,1.26 -4.38,1.47 -1.44,1.53 -0.02,0.4 0.99,0.42 0.14,0.7 1.52,1.22 0.91,3.46 -1.09,0.14 0.26,0.58 59.67,0.14 0.01,8.05 0,0 -1.79,-0.5 -1.46,0.13 -2.76,0.62 -2.27,1.49 -4.37,0.39 -5.87,7.32 -1.91,1.48 -2.1,2.58 -1.82,1.04 -0.64,1.43 -1.74,0.87 -4.73,0.47 -1.78,-0.4 -1.34,0.62 -2.99,0.05 -3.9,1.37 -1.75,-1.8 -7.14,-0.96 -3.77,0.11 -0.92,0.72 -3.12,-0.22 -2.4,-0.79 -2.84,0.63 -3.03,-0.55 -3.22,0.47 -3.59,-0.62 -4.43,0.85 -1.73,-0.49 -1.53,1.3 -3.32,-0.15 -2.2,2.04 -1.79,1 -2.63,5.43 -0.25,2.07 -0.99,1.41 -6.13,1.26 -2.02,0.82 0.55,0.65 -2.9,1.28 -1.12,1.59 -2.33,1.5 -2.71,3.46 -1.29,2.52 -1.57,1.82 -1.11,0.69 -1.59,-0.11 -4.77,-2.14 -5.69,-1.2 1.61,1.19 3.03,0.18 5.69,2.45 0.81,0.99 -1.17,3.55 -0.8,1.23 -4.07,4.19 -2.31,3.74 -3.67,2.82 -1.36,1.69 -4.39,1.59 -1.1,-0.17 -2.91,1.67 -0.47,0.96 -3.8,2.56 -2.7,1 -0.37,1.15 -1.11,0.7 -2.97,4.21 -2.11,0.35 -1.66,1.88 -1.26,0.79 -2.49,-0.37 2.83,1.25 0.23,1.12 -1.11,0.27 -2.17,1.39 0,0 -1.23,-1.31 0.73,-3.18 -1.62,-0.82 -2.57,-0.13 -6.83,2.44 -2.49,0.39 -0.87,-0.81 -1.09,-0.27 -2.61,0.11 -1.25,-0.58 -1.02,-1.28 -1.41,-3.04 -0.8,0.05 -0.25,0.96 -0.81,-0.08 -1.81,-1.23 -1.24,-2.05 -2.79,-1.6 0,0 0,0 0,0 -6.97,-1.55 -2.87,-1.12 -2.09,-2.77 -1.35,-2.88 -1.79,-2.55 -1.63,-5.07 -0.11,-1 0.42,-0.97 -0.06,-46.05 0,0 1.54,2.21 -1.55,-2.88 0,0 -0.01,-8.27 0,0 1.64,-1.2 0.37,0.08 0.29,1.02 2.01,1.27 1.23,3.77 0.4,-2.63 1.14,-1.63 -2.21,-3.4 -0.04,-0.59 0.48,-0.35 0.89,-2.38 1.13,-1.01 1.48,-2.63 0.8,-0.7 -0.7,-0.72 -0.28,-2.66 -1.68,-2.41 -0.19,-1.54 0.39,-1.43 -1.58,-2.77 -1.81,-9.19 -0.12,-0.92 0.65,-1.52 0.85,-0.21 -1.16,-1.53 0.71,-1.07 -0.64,-0.75 -1.57,-0.71 0.56,-0.28 0.29,-0.8 -1.88,-1.44 -2.17,-5.2 -1.03,-1.08 11.09,-5.27 6.27,-4.39 5.47,-5.88 3.62,-5.3 1,-1.78 0.93,-4.05 0.24,-5.65 -0.48,-7.78 -2.85,-9.6 -2.38,-4.39 -3.55,-3.74 -4.13,-2.72 -3.03,-3.11 -1,-0.37 -0.47,-1.37 0.76,-3.79 3.25,-5.19 2.02,-1.83 0.74,-1.32 -0.88,-1.68 1.13,-1.86 0.07,-1.68 1.22,-0.08 1.74,1.97 0.43,-0.17 -1.22,-1.87 1.38,-1.99 -0.37,-2.29 0.75,-1.73 -0.2,-0.36 -2.11,-0.34 -0.35,-0.48 1.19,-1.04 -2.05,-5.08 0.75,-1.45 0.85,-0.65 -0.11,-0.37 -1.79,-0.27 -0.68,-1.13 1.17,-2.74 0.64,-0.35 -0.12,-0.3 -2.41,0.72 -1.13,-0.59 -1.64,-0.02 3.15,-4.88 0.89,-2.27 -0.05,-4.31 1.99,-2.23 -3.37,-3.25 -1.18,-1.96 -1.13,-7.19 0.71,-2.82 4.16,-3.4 2.08,-0.8 4.42,0.92 9.53,4.05 1.27,1.28 -1.2,1.08 0.17,0.27 2.7,-2.05 1.32,-0.49 2.86,0.92 3.5,2.85 -0.51,-1.3 0.4,-0.53 8.43,-5.05 3.64,2.86 3.74,3.83 1.75,0.02 0.49,1.86 -1.25,3.55 0.4,0.03 1.99,-1.6 2.51,1.73 1.67,2.86 -0.38,0.73 -1.48,0.74 0.28,0.28 1.73,-0.46 1.41,-1.44 2.04,1.35 0.17,0.83 -1.22,0.87 -0.88,1.63 1.87,0.5 -0.78,0.77 -0.1,0.65 2.88,3.32 2.22,0.23 4.05,1.69 1.64,0.23 2.34,-0.48 1.09,0.89 0.11,1.82 0.45,0.76 0.92,0.44 2.55,-1.07 0.76,-2.49 0.6,-0.19 0.48,0.36 0.8,2.18 0.09,1.39 -2.11,2.88 -0.99,3.69 0.1,2.81 1,2.41 -0.4,2.21 -1.09,0.83 -1.5,0.21 -6.2,-0.15 0.31,0.75 7.3,0.71 0.64,0.48 0.93,1.71 0.46,2.61 -1.01,3.3 0.09,2.58 2.53,0.07 0.5,0.61 -0.95,2.15 0.33,1.63 -1.05,3.78 -1.05,0.84 -1.22,-2.34 -0.75,1.73 -2.62,1.15 0.05,0.5 3.27,1.23 4.65,-3.36 5.14,-0.36 2,1.4 0.84,1.38 0.49,2.55 0.66,0.67 0.21,1.23 -0.04,1.46 -1.1,4.02 -1,1.47 -4.28,1.82 -0.86,1.12 2.33,-1.24 2.56,-0.6 0.73,-0.68 1.12,-2.13 1.02,-3.83 0.58,-1.21 0.81,-0.21 1.19,3.24 -1.57,2.66 1.86,-2.27 0.9,-2.25 0.59,2.74 0.1,4.28 0.97,-3.77 4.93,-3.74 2.67,-0.99 1.02,-0.99 0.83,-2.55 1.37,-1.62 1.12,0.33 1.31,1.95 0.79,3.91 0.71,-2.41 -1.08,-4.28 1.69,-0.45 0.17,-0.24 -0.76,-0.94 0.71,-1.08 1.24,0.11 -0.16,-0.92 1.59,0.21 0.16,-0.42 1.17,-0.04 0.11,-0.38 -2,-0.88 -0.84,-1.79 0.35,-0.29 0.48,0.29 0.85,-2.41 0.91,0.62 -0.57,-2.73 1.12,-0.15 2.47,1.77 0.32,-0.17 -1.19,-1.31 -2.12,-1.36 -0.71,-1.93 0.48,-2.27 1.3,-0.74 2.1,1.16 0.24,-0.32 -1.17,-1.06 -0.11,-1.39 2.16,-6.17 1.02,-1.43 1,-0.09 0.72,0.46 z m 25.22,174.96 -3.75,0.2 -7.37,-1.99 -4.7,-2.39 -1.89,-2.79 -5.95,-3.12 -0.41,-0.82 1.01,-0.54 2.17,-0.22 7.53,1.73 3.89,1.54 9.33,5.81 1.08,1.98 -0.94,0.61 z m -43.96,14.47 -1.98,0.79 -0.24,0.85 -0.95,-0.25 -2.24,0.42 -0.52,0.43 -1.92,-1.13 -0.3,-0.79 -4.49,0 0,0.92 -2.37,0 -0.01,4.53 -0.45,0.8 -1.78,1.42 -3.81,1.66 0,0 0.03,-1.74 -1.73,-0.48 -6.86,9.9 -0.53,3.48 -1.62,2.46 -0.5,2.5 0.07,1.95 -1,1.34 -0.12,0.82 -2.52,2.39 0.11,1.57 -0.98,0.3 -0.59,1.7 -0.3,0.1 -0.91,-0.95 -1.21,0.94 -1.73,-0.35 -0.82,1.14 -0.88,2.44 -28.61,0.05 3.94,-2.33 1.97,-0.67 2.56,-1.96 1.85,-0.38 0.83,-2.64 2.74,-4.84 1.52,-1.21 2.3,-1.01 2.13,-2.21 2.3,-1.16 1.17,-1.42 1.87,-1.05 2.06,-0.28 3.68,-1.34 0.98,-0.82 5.67,-2.79 4.03,-4.54 0.47,-1.24 3.91,-4.67 0.99,-1.91 1.48,-1.07 2.86,-3.05 3.9,-2.45 2.81,-2.28 6.07,-3.11 8.63,-3.68 3.76,-1.19 5.87,-0.73 6.16,1.02 2.41,1.19 3.15,3.15 0.07,0.92 -2.73,-0.47 2.4,2.03 -0.07,1.9 -0.85,1.71 -2.55,0.84 -1.69,2.2 -3.92,2.35 -1.94,-0.14 -4.04,-2.11 -1.4,1.15 -3.28,-0.23 -2.31,1.31 z m 42.94,9.79 1.27,0.33 -0.55,0.49 -1.56,-0.15 0.75,-2.52 3.38,-2.73 1.37,-0.08 -0.72,0.98 -0.96,0.05 -0.91,0.81 -1.82,2.04 -0.25,0.78 z m -81.68,5.4 -0.82,0.11 1.31,-1.26 1.3,-0.44 -1.79,1.59 z m -22.77,18.11 -3.53,0.35 0.96,-0.95 1.48,-0.58 1.48,-1.79 0.42,-0.05 -0.81,3.02 z m -1.16,-1.48 -1.46,0.15 1.19,-1.26 1.37,-0.29 -1.1,1.4 z"
               class="land"
               title="Quebec"
               id="CA-QC"
               inkscape:connector-curvature="0" />
            <path
               style="fill:none;stroke:#0000ff;stroke-width:0.78130031"
               d="m 355.31,1131.52 -77.39,0 0,0 0,-170.84 0,0 71.7,0 0,0 0.01,70.55 z"
               class="land"
               title="Saskatchewan"
               id="CA-SK"
               inkscape:connector-curvature="0" />
            <path
               style="fill:none;stroke:#0000ff;stroke-width:0.78130031"
               d="m 40.86,774.22 -0.02,27.85 0.4,1.91 1.5,1.54 0.57,2.02 -0.07,2.14 0.65,2.76 -1.01,2.85 -0.05,2.14 0.48,1.68 18.95,0.25 0.22,1.38 2.13,2.86 -0.1,1.94 0.38,1.87 1.15,1.92 -0.17,2.53 -0.77,0.29 -0.54,2.55 0.09,0.47 1.86,0.43 0.13,2.41 -0.97,1.79 0.5,2.67 1.88,0.41 1.64,-1.1 2.61,-0.5 0.19,0.59 -0.46,1.49 0.59,0.44 0.73,-0.32 1.86,-2.23 1.17,0.89 1.01,-0.1 0.25,0.32 0.02,0.52 -1.78,1.52 -0.14,0.64 2.33,3.08 0.9,2.57 -1.35,3.33 -1.76,2.21 -0.5,1.3 -1.48,1.18 -0.1,0.46 0.58,0.77 1.15,-0.37 0.35,0.31 0.22,1.62 1.47,0.79 -1.29,2.11 -0.07,1.56 -0.86,1.22 0.12,0.67 2.4,0.66 1.92,1.27 1.91,2.61 1.47,0.9 -0.61,3.03 1.89,0.16 2.04,-1.62 2.26,1.19 1.73,4.3 -0.15,1.38 1.54,2.71 4.26,3.47 1.48,0.59 -0.03,0.41 -1.24,0.72 -0.39,0.68 0.53,0.51 1.19,-0.34 0.43,1.2 0.78,0.4 0.79,1.22 0.38,1.39 -0.54,1.6 -1.76,1.74 -0.29,0.84 2.04,1.77 0.7,1.9 1.93,0.65 -0.92,2.53 -0.04,1.94 0.88,2.34 0.85,0.76 0.31,1.46 2.7,2.1 -0.96,1.26 0.51,1.01 -0.48,1.52 0.54,1.43 -0.2,1.29 1.06,0.52 2.05,0.12 0.84,1.06 1.21,-0.93 1.06,-0.09 1.44,1.59 1.74,3.21 1.43,0.98 0.48,1.93 1.67,1.74 1.78,1.61 2.77,0.39 1.19,0.89 0.84,1.78 0.46,2.48 -0.05,2.05 -0.59,1.04 0.34,0.36 0.99,-0.02 0.76,5.21 1.74,0.13 1.3,-0.7 2,0.29 0.56,-0.45 0.11,-0.86 0.55,-0.18 1.42,1.05 0.93,-1.5 1.72,0.92 3.45,0.88 1.53,-0.95 2.43,-0.29 0.66,-1.85 2.01,0.15 0.7,3.02 -0.95,1.6 0.11,0.71 1.76,3.06 1.38,0.38 0.21,0.38 0.37,2.39 1.68,3.5 -0.12,1.44 1.18,0.11 0.54,0.69 0,0 -136.6,-0.01 0,0 -1.15,-1.47 0.95,-4.69 -5.35,0.28 -2.66,2.62 -4.3,-2.1 -0.65,1.47 L 0,955.3 0,755.09 l 5.35,1.24 3.84,-0.5 7.13,2.72 4.41,5.06 7.35,5.65 5.46,3.22 1.7,0.33 3.17,1.54 2.45,-0.13 z m -23.3,-17.23 -0.74,0.96 -1.48,-1.5 1.36,-1.33 0.6,0.05 1.74,1.49 -1.48,0.33 z"
               class="land"
               title="Yukon"
               id="CA-YT"
               inkscape:connector-curvature="0" />
          </g>
        </g>
      </g>
    </g>
    <text
       xml:space="preserve"
       style="font-style:normal;font-weight:normal;font-size:15px;line-height:125%;font-family:sans-serif;letter-spacing:0px;word-spacing:0px;fill:#000000;fill-opacity:1;stroke:none;stroke-width:1px;stroke-linecap:butt;stroke-linejoin:miter;stroke-opacity:1"
       x="6.4285665"
       y="285.93365"
       id="text3502"
       sodipodi:linespacing="125%"><tspan
         sodipodi:role="line"
         id="tspan3504"
         x="6.4285665"
         y="285.93365">Map from: http://www.amcharts.com/svg-maps/?map=canada</tspan></text>
  </g>
</svg>
