<?xml version="1.0" encoding="UTF-8" standalone="no"?>
<!-- Created with Inkscape (http://www.inkscape.org/) -->

<svg
   xmlns:dc="http://purl.org/dc/elements/1.1/"
   xmlns:cc="http://creativecommons.org/ns#"
   xmlns:rdf="http://www.w3.org/1999/02/22-rdf-syntax-ns#"
   xmlns:svg="http://www.w3.org/2000/svg"
   xmlns="http://www.w3.org/2000/svg"
   xmlns:xlink="http://www.w3.org/1999/xlink"
   xmlns:sodipodi="http://sodipodi.sourceforge.net/DTD/sodipodi-0.dtd"
   xmlns:inkscape="http://www.inkscape.org/namespaces/inkscape"
   width="3in"
   height="3in"
   viewBox="0 0 270 270.00001"
   id="svg3408"
   version="1.1"
   inkscape:version="0.91pre4 r13712"
   sodipodi:docname="city.svg">
  <defs
     id="defs3410" />
  <sodipodi:namedview
     id="base"
     pagecolor="#ffffff"
     bordercolor="#666666"
     borderopacity="1.0"
     inkscape:pageopacity="0.0"
     inkscape:pageshadow="2"
     inkscape:zoom="2.8"
     inkscape:cx="36.195308"
     inkscape:cy="89.383435"
     inkscape:document-units="px"
     inkscape:current-layer="g3464"
     showgrid="false"
     inkscape:window-width="1920"
     inkscape:window-height="1017"
     inkscape:window-x="-8"
     inkscape:window-y="-8"
     inkscape:window-maximized="1"
     units="in" />
  <metadata
     id="metadata3413">
    <rdf:RDF>
      <cc:Work
         rdf:about="">
        <dc:format>image/svg+xml</dc:format>
        <dc:type
           rdf:resource="http://purl.org/dc/dcmitype/StillImage" />
        <dc:title></dc:title>
      </cc:Work>
    </rdf:RDF>
  </metadata>
  <g
     inkscape:label="Layer 1"
     inkscape:groupmode="layer"
     id="layer1"
     transform="translate(0,-782.36215)">
    <g
       id="g3464"
       transform="matrix(0.41607725,0,0,0.41607725,-313.84738,237.98643)">
      <path
         style="fill:none;stroke:#000000;stroke-width:2.40339994"
         d="m 1070.3398,1867.4371 c -14.2058,-1.3406 -19.9009,-2.0929 -27.7143,-3.661 -12.5691,-2.5225 -12.3985,-2.4723 -12.3985,-3.6493 0,-1.167 1.5292,-7.5312 1.8096,-7.5312 0.098,0 4.0792,0.7941 8.8476,1.7647 11.9413,2.4305 19.5082,3.4257 30.1849,3.9699 l 9.1165,0.4647 0.2172,4.5582 0.2171,4.5583 -3.8637,-0.1167 c -2.1251,-0.064 -5.0125,-0.2251 -6.4164,-0.3576 z"
         id="path3722"
         inkscape:connector-curvature="0" />
      <path
         style="fill:none;stroke:#000000;stroke-width:2.40339994"
         d="m 1083.6128,1863.4428 0.2195,-4.6479 9.4812,-0.4875 c 10.3333,-0.5313 21.9318,-2.0952 31.9001,-4.3012 3.5057,-0.7758 6.5179,-1.4106 6.694,-1.4106 0.5133,0 2.1569,7.9921 1.7312,8.4178 -1.5726,1.5726 -27.9943,5.677 -42.3681,6.5816 l -7.8774,0.4957 0.2195,-4.6479 z"
         id="path3720"
         inkscape:connector-curvature="0" />
      <path
         style="fill:none;stroke:#000000;stroke-width:2.40339994"
         d="m 1017.2941,1857.346 c -12.0119,-4.0525 -34.46775,-14.0373 -36.93499,-16.4229 -0.36101,-0.349 0.27921,-2.207 1.47306,-4.2748 l 2.11161,-3.6574 8.37281,4.2486 c 9.39201,4.7658 22.40951,10.0584 30.83921,12.5384 6.0603,1.783 6.0731,1.8014 4.7966,6.8707 -0.5507,2.1872 -1.2025,3.2362 -2.0056,3.2277 -0.6543,-0.01 -4.5481,-1.1455 -8.6527,-2.5303 z"
         id="path3718"
         inkscape:connector-curvature="0" />
      <path
         style="fill:none;stroke:#000000;stroke-width:2.40339994"
         d="m 1136.0427,1855.878 c -0.5077,-2.2687 -0.8118,-4.193 -0.6758,-4.2763 0.136,-0.083 3.2011,-1.079 6.8112,-2.2127 9.0312,-2.836 20.6342,-7.6265 29.6388,-12.2368 4.1562,-2.1279 7.7863,-3.9761 8.0669,-4.1071 0.4312,-0.2014 4.2304,6.4681 4.2304,7.4265 0,0.5474 -10.2223,5.928 -17.1391,9.0214 -7.9269,3.5451 -23.8,9.3511 -27.4031,10.0235 l -2.6062,0.4863 -0.9231,-4.1248 z"
         id="path3716"
         inkscape:connector-curvature="0" />
      <path
         style="fill:none;stroke:#000000;stroke-width:2.40339994"
         d="m 1060.8586,1854.7136 c -11.2672,-1.2566 -27.7143,-4.7203 -27.7143,-5.8364 0,-0.3737 0.5474,-2.6484 1.2164,-5.0548 0.9308,-3.3479 1.4874,-4.2931 2.3703,-4.0256 7.6967,2.3317 30.5082,5.5056 39.57,5.5056 l 4.2493,0 0,5.1052 0,5.1053 -7.1109,-0.095 c -3.911,-0.052 -9.5724,-0.3691 -12.5808,-0.7047 z"
         id="path3714"
         inkscape:connector-curvature="0" />
      <path
         style="fill:none;stroke:#000000;stroke-width:2.40339994"
         d="m 1083.4676,1850.4076 0,-5.1052 4.155,0 c 7.1552,0 20.3905,-1.5457 30.9318,-3.6123 l 10.1382,-1.9877 0.7156,2.6574 c 1.6553,6.1474 1.6903,7.1492 0.2656,7.5947 -7.7485,2.4232 -30.4148,5.5584 -40.1848,5.5584 l -6.0214,0 0,-5.1053 z"
         id="path3712"
         inkscape:connector-curvature="0" />
      <path
         style="fill:none;stroke:#000000;stroke-width:2.40339994"
         d="m 1018.1932,1845.0184 c -10.644,-3.7985 -16.3091,-6.1972 -24.43238,-10.3448 -9.06892,-4.6305 -8.57569,-3.9073 -5.87947,-8.6198 1.28695,-2.2494 2.65058,-4.0898 3.03028,-4.0898 0.37971,0 3.67067,1.4968 7.31324,3.3262 8.43563,4.2367 20.59963,9.2069 27.62623,11.2881 3.0084,0.8911 5.7437,1.8677 6.0783,2.1704 0.3346,0.3026 0.045,2.5574 -0.6431,5.0106 -1.0358,3.6915 -1.5178,4.4537 -2.7964,4.4214 -0.8497,-0.021 -5.4832,-1.4444 -10.2967,-3.1623 z"
         id="path3710"
         inkscape:connector-curvature="0" />
      <path
         style="fill:none;stroke:#000000;stroke-width:2.40339994"
         d="m 1133.1152,1844.7554 c -0.4669,-1.9054 -1.0104,-4.0076 -1.2078,-4.6716 -0.2851,-0.9589 0.885,-1.6174 5.6852,-3.1997 9.5204,-3.1381 19.5998,-7.2806 28.1564,-11.5718 l 7.8855,-3.9548 2.3226,4.2248 c 1.2774,2.3236 2.3225,4.4265 2.3225,4.6731 0,0.7127 -15.351,8.2188 -23.1535,11.3212 -7.6211,3.0302 -18.6026,6.6431 -20.1923,6.6431 -0.5515,0 -1.3358,-1.494 -1.8186,-3.4643 z"
         id="path3708"
         inkscape:connector-curvature="0" />
      <path
         style="fill:none;stroke:#000000;stroke-width:2.40339994"
         d="m 1061.8443,1841.2801 c -4.472,-0.5139 -11.9667,-1.6847 -16.6548,-2.6017 l -8.5239,-1.6673 0.4893,-3.2633 c 0.849,-5.661 1.5772,-6.8894 3.8423,-6.4809 15.647,2.8217 20.6594,3.5528 29.3461,4.2806 l 10.207,0.8552 0,4.9912 0,4.9912 -5.2876,-0.085 c -2.9082,-0.047 -8.9465,-0.5058 -13.4184,-1.0197 z"
         id="path3706"
         inkscape:connector-curvature="0" />
      <path
         style="fill:none;stroke:#000000;stroke-width:2.40339994"
         d="m 1083.4676,1837.4777 0,-5.1297 7.1109,-0.4876 c 9.6322,-0.6606 17.3269,-1.6735 26.3146,-3.4639 4.2472,-0.8461 7.8015,-1.2244 8.1464,-0.8671 0.3364,0.3486 1.1045,2.5412 1.7068,4.8724 0.8144,3.1523 0.8761,4.3082 0.2409,4.51 -6.2605,1.9895 -23.5205,4.5534 -35.108,5.2152 l -8.4116,0.4804 0,-5.1297 z"
         id="path3704"
         inkscape:connector-curvature="0" />
      <path
         style="fill:none;stroke:#000000;stroke-width:2.40339994"
         d="m 967.14052,1832.8263 c -12.60853,-8.5018 -30.26691,-23.0888 -30.26691,-25.0026 0,-0.4837 1.29582,-2.1448 2.8796,-3.6913 l 2.87961,-2.8119 5.75058,5.4098 c 7.0724,6.6532 18.16834,15.2124 26.41502,20.376 3.40958,2.1349 6.3131,3.9616 6.45225,4.0594 0.50034,0.3516 -3.91631,7.5712 -4.62894,7.5666 -0.40113,-0 -4.66767,-2.6603 -9.48121,-5.906 z"
         id="path3702"
         inkscape:connector-curvature="0" />
      <path
         style="fill:none;stroke:#000000;stroke-width:2.40339994"
         d="m 1185.9543,1836.9152 c -3.6965,-6.0676 -4.1399,-4.8936 3.8067,-10.0789 8.6981,-5.6757 18.3343,-13.1279 26.013,-20.1173 l 5.7689,-5.2509 3.1524,3.0939 c 3.7596,3.6898 4.2697,2.787 -7.1047,12.5739 -9.4659,8.1447 -28.2726,21.6026 -30.1886,21.6026 -0.1853,0 -0.8367,-0.8205 -1.4477,-1.8233 z"
         id="path3700"
         inkscape:connector-curvature="0" />
      <path
         style="fill:none;stroke:#000000;stroke-width:2.40339994"
         d="m 1025.4864,1833.3234 c -4.0113,-1.3233 -9.8329,-3.431 -12.937,-4.6838 -6.0656,-2.448 -20.24722,-9.3998 -20.24722,-9.9251 0,-0.1754 1.14154,-2.2667 2.53677,-4.6473 l 2.53676,-4.3283 5.49709,2.8805 c 6.9339,3.6334 18.5839,8.514 26.6249,11.1542 3.4096,1.1196 6.3007,2.1197 6.4247,2.2226 0.3158,0.2619 -2.1075,8.6205 -2.6765,9.232 -0.2565,0.2756 -3.7482,-0.5816 -7.7595,-1.9048 z"
         id="path3698"
         inkscape:connector-curvature="0" />
      <path
         style="fill:none;stroke:#000000;stroke-width:2.40339994"
         d="m 1130.5132,1834.8803 c -0.933,-2.8176 -2.5247,-8.8098 -2.3721,-8.9301 0.099,-0.078 2.4773,-0.8875 5.2852,-1.799 7.9952,-2.5955 18.7499,-6.988 25.8906,-10.5742 3.5943,-1.8052 6.8385,-3.2821 7.2094,-3.2821 0.6135,0 5.1894,7.428 5.1894,8.424 0,0.7189 -20.428,10.2549 -26.9849,12.5969 -10.2742,3.6696 -13.8832,4.5745 -14.2176,3.5645 z"
         id="path3696"
         inkscape:connector-curvature="0" />
      <path
         style="fill:none;stroke:#000000;stroke-width:2.40339994"
         d="m 1071.0691,1828.7615 c -6.5758,-0.4827 -15.8587,-1.7779 -23.5761,-3.2896 -7.3534,-1.4403 -7.8656,-1.6514 -7.4581,-3.0742 0.2406,-0.8402 0.8208,-3.115 1.2892,-5.0551 0.8287,-3.432 0.9122,-3.5146 3.0822,-3.051 8.6101,1.8395 19.3725,3.4122 25.5688,3.7365 11.2768,0.5902 10.5752,0.183 10.5752,6.1378 l 0,5.0914 -3.0996,-0.1275 c -1.7048,-0.07 -4.5765,-0.2358 -6.3816,-0.3683 z"
         id="path3694"
         inkscape:connector-curvature="0" />
      <path
         style="fill:none;stroke:#000000;stroke-width:2.40339994"
         d="m 1083.618,1823.9697 0.2143,-5.2876 4.7406,-0.169 c 7.1046,-0.2532 17.7193,-1.5805 25.7729,-3.2229 3.9464,-0.8048 7.251,-1.3554 7.3436,-1.2237 0.4143,0.5893 2.6526,9.567 2.4386,9.781 -0.6737,0.6737 -21.0108,3.962 -28.6266,4.6286 -13.4362,1.1762 -12.1337,1.6701 -11.8834,-4.5064 z"
         id="path3692"
         inkscape:connector-curvature="0" />
      <path
         style="fill:none;stroke:#000000;stroke-width:2.40339994"
         d="m 974.68568,1823.5526 c -7.53363,-4.9678 -18.56106,-13.5965 -26.1429,-20.4564 l -4.01128,-3.6293 1.47733,-1.513 c 1.29678,-1.3281 1.7547,-1.4083 3.74706,-0.6563 1.60829,0.6071 2.98436,0.6425 4.72192,0.1216 2.32506,-0.697 2.67905,-0.5402 6.82813,3.0252 6.32348,5.4338 15.27076,12.0804 21.15037,15.7118 2.8079,1.7341 5.22105,3.2371 5.36257,3.3399 0.39588,0.2874 -4.53857,9.0318 -5.09666,9.0318 -0.27027,0 -3.88671,-2.2389 -8.03654,-4.9753 z"
         id="path3690"
         inkscape:connector-curvature="0" />
      <path
         style="fill:none;stroke:#000000;stroke-width:2.40339994"
         d="m 1179.8855,1826.5216 c -1.7184,-2.4437 -3.9894,-6.8158 -3.6653,-7.0562 0.1299,-0.096 2.3074,-1.4145 4.839,-2.9294 5.9502,-3.5605 15.2882,-10.4395 21.2881,-15.6822 4.4857,-3.9196 4.8696,-4.1043 7.1393,-3.4362 1.5905,0.4681 3.2358,0.4492 4.8828,-0.056 2.1402,-0.6569 2.6664,-0.5598 3.8006,0.7012 1.2877,1.4317 1.2211,1.5512 -3.0595,5.4819 -6.8264,6.2685 -16.878,14.1827 -24.0677,18.9497 -9.8047,6.5009 -9.4964,6.3896 -11.1573,4.0275 z"
         id="path3688"
         inkscape:connector-curvature="0" />
      <path
         style="fill:none;stroke:#000000;stroke-width:2.40339994"
         d="m 1025.9901,1819.4544 c -4.9376,-1.7482 -13.0822,-5.1952 -18.0991,-7.66 l -9.1216,-4.4815 2.4186,-4.3061 c 1.3303,-2.3684 2.5828,-4.3397 2.7834,-4.3808 0.2005,-0.041 4.4671,1.8827 9.4812,4.2749 5.0141,2.3922 12.5626,5.5339 16.7744,6.9814 4.2118,1.4476 8.0287,2.7635 8.4819,2.9244 1.1702,0.4153 -1.3777,9.4738 -2.721,9.6742 -0.5612,0.084 -5.0602,-1.2782 -9.9978,-3.0265 z"
         id="path3686"
         inkscape:connector-curvature="0" />
      <path
         style="fill:none;stroke:#000000;stroke-width:2.40339994"
         d="m 1126.1613,1818.9144 c -0.6173,-2.0785 -1.1218,-4.2938 -1.1212,-4.923 7e-4,-0.8054 2.4176,-1.9651 8.1673,-3.9188 4.4914,-1.5262 12.3706,-4.7778 17.5093,-7.2259 5.1386,-2.448 9.4464,-4.3172 9.5728,-4.1537 0.7726,0.9993 4.8623,8.0478 4.8623,8.3799 0,1.4327 -33.8319,15.6205 -37.2483,15.6205 -0.341,0 -1.125,-1.7006 -1.7422,-3.779 z"
         id="path3684"
         inkscape:connector-curvature="0" />
      <path
         style="fill:none;stroke:#000000;stroke-width:2.40339994"
         d="m 980.47316,1811.313 c -8.4921,-5.739 -13.5268,-9.6189 -18.28913,-14.094 -2.47162,-2.3225 -2.72166,-2.8789 -2.33147,-5.1884 0.24037,-1.4228 0.0772,-3.5334 -0.36267,-4.6903 -0.66548,-1.7504 -0.58017,-2.3177 0.50817,-3.38 1.25003,-1.2201 1.58204,-1.0348 7.50712,4.1906 6.75657,5.9587 18.96822,15.0871 23.87973,17.8505 1.7017,0.9575 3.09653,2.0177 3.09962,2.3562 0.009,0.97 -4.64935,8.5012 -5.25816,8.5012 -0.30088,0 -4.23982,-2.4956 -8.75321,-5.5458 z"
         id="path3682"
         inkscape:connector-curvature="0" />
      <path
         style="fill:none;stroke:#000000;stroke-width:2.40339994"
         d="m 1172.014,1813.0373 c -1.1669,-2.1018 -2.2268,-4.0583 -2.3553,-4.3478 -0.1285,-0.2894 2.1688,-2.065 5.1053,-3.9456 6.929,-4.4377 15.3982,-10.8978 22.4702,-17.1397 5.3381,-4.7115 5.7144,-4.9152 6.8215,-3.692 0.9318,1.0296 1.0277,1.8162 0.4685,3.8415 -0.4157,1.5055 -0.4449,3.4475 -0.071,4.75 0.6075,2.1183 0.3894,2.4075 -5.6598,7.5036 -6.003,5.0571 -22.8544,16.8515 -24.0769,16.8515 -0.3194,0 -1.5353,-1.7197 -2.7022,-3.8215 z"
         id="path3680"
         inkscape:connector-curvature="0" />
      <path
         style="fill:none;stroke:#000000;stroke-width:2.40339994"
         d="m 1061.2232,1814.2605 c -8.0923,-1.0976 -17.8684,-3.1293 -17.8684,-3.7134 0,-0.2076 0.566,-2.5016 1.2578,-5.0977 1.1032,-4.1404 1.4392,-4.6687 2.7349,-4.3012 4.1993,1.191 19.1539,3.4035 25.721,3.8053 l 7.4818,0.4578 0,4.9944 0,4.9944 -6.0169,-0.075 c -3.3093,-0.041 -9.2989,-0.5203 -13.3102,-1.0644 z"
         id="path3678"
         inkscape:connector-curvature="0" />
      <path
         style="fill:none;stroke:#000000;stroke-width:2.40339994"
         d="m 1083.4676,1810.2949 0,-5.1053 3.6754,0 c 5.6292,0 17.1135,-1.396 24.3475,-2.9597 3.5794,-0.7737 6.586,-1.3268 6.6813,-1.2291 0.2025,0.2074 2.4913,8.9565 2.4913,9.5232 0,1.3443 -22.6769,4.8395 -31.5432,4.8619 l -5.6523,0.014 0,-5.1053 z"
         id="path3676"
         inkscape:connector-curvature="0" />
      <path
         style="fill:none;stroke:#000000;stroke-width:2.40339994"
         d="m 1029.8991,1806.6378 c -9.5012,-3.3937 -23.7426,-10.1397 -23.7329,-11.242 0.01,-0.8323 4.214,-8.4393 4.667,-8.4393 0.1476,0 3.9109,1.7567 8.3628,3.9038 4.452,2.147 11.4189,5.0187 15.4822,6.3815 4.0632,1.3628 7.542,2.8706 7.7306,3.3506 0.1885,0.4799 -0.187,2.6953 -0.8346,4.9229 -0.8507,2.9265 -1.5259,4.0398 -2.4334,4.0126 -0.6907,-0.021 -4.8495,-1.3213 -9.2417,-2.8901 z"
         id="path3674"
         inkscape:connector-curvature="0" />
      <path
         style="fill:none;stroke:#000000;stroke-width:2.40339994"
         d="m 1122.8167,1806.5204 c -1.7516,-6.5046 -1.9414,-6.2473 6.9262,-9.3879 4.3922,-1.5556 11.5278,-4.5389 15.8569,-6.6296 4.3291,-2.0907 7.9842,-3.6619 8.1225,-3.4915 0.1383,0.1704 1.3017,2.176 2.5854,4.4569 l 2.334,4.1471 -3.1265,1.8315 c -6.7397,3.948 -27.566,12.1186 -30.8895,12.1186 -0.544,0 -1.3581,-1.3703 -1.809,-3.0451 z"
         id="path3672"
         inkscape:connector-curvature="0" />
      <path
         style="fill:none;stroke:#000000;stroke-width:2.40339994"
         d="m 929.08426,1800.3169 c -7.8113,-8.7049 -14.09506,-16.738 -19.33524,-24.718 -7.19462,-10.9564 -6.97105,-10.1586 -3.46701,-12.3706 4.51754,-2.8518 4.53308,-2.8483 7.21978,1.6559 5.76419,9.6635 15.27151,22.0334 23.2757,30.2839 l 4.0749,4.2002 -3.32551,3.3255 -3.32551,3.3255 -5.11711,-5.7024 z"
         id="path3670"
         inkscape:connector-curvature="0" />
      <path
         style="fill:none;stroke:#000000;stroke-width:2.40339994"
         d="m 1226.5641,1802.8145 -3.1329,-3.2177 5.5754,-6.1378 c 6.686,-7.3605 17.1557,-21.0987 21.0737,-27.6529 1.5586,-2.6073 2.9203,-4.8544 3.0259,-4.9936 0.3438,-0.453 7.5855,3.8808 7.5862,4.5401 4e-4,0.3522 -2.4038,4.2905 -5.3428,8.7518 -5.8399,8.8649 -14.6151,20.0914 -21.3492,27.3129 l -4.3035,4.6149 -3.1328,-3.2177 z"
         id="path3668"
         inkscape:connector-curvature="0" />
      <path
         style="fill:none;stroke:#000000;stroke-width:2.40339994"
         d="m 987.76872,1800.2347 c -7.56837,-5.2238 -18.73185,-14.1523 -22.13039,-17.6996 l -2.06787,-2.1584 3.2132,-3.274 c 1.76726,-1.8007 3.60407,-3.274 4.08179,-3.274 0.47773,0 2.97412,1.9081 5.54754,4.2402 5.52683,5.0087 14.57568,11.9493 20.44746,15.6837 2.30648,1.4668 4.19055,2.9172 4.18675,3.2231 -0.016,1.3146 -4.47964,8.211 -5.29549,8.182 -0.49329,-0.018 -4.08564,-2.2329 -7.98299,-4.923 z"
         id="path3666"
         inkscape:connector-curvature="0" />
      <path
         style="fill:none;stroke:#000000;stroke-width:2.40339994"
         d="m 1165.2214,1801.1894 c -1.2416,-2.2002 -2.2576,-4.1534 -2.2576,-4.3406 0,-0.1872 2.3795,-1.8741 5.2876,-3.7485 6.2361,-4.0195 12.922,-9.1531 19.5723,-15.0281 2.6419,-2.3339 5.1171,-4.2435 5.5004,-4.2435 0.3833,0 2.1601,1.5015 3.9484,3.3366 l 3.2515,3.3366 -4.198,3.9291 c -7.7857,7.2869 -26.0379,20.7586 -28.1249,20.7586 -0.3971,0 -1.738,-1.8001 -2.9797,-4.0002 z"
         id="path3664"
         inkscape:connector-curvature="0" />
      <path
         style="fill:none;stroke:#000000;stroke-width:2.40339994"
         d="m 1065.9638,1801.49 c -6.6871,-0.8427 -17.0962,-2.891 -18.2196,-3.5853 -0.7642,-0.4723 -0.7009,-1.4908 0.3292,-5.2964 l 1.2754,-4.7116 3.3846,0.7083 c 2.6442,0.5533 4.3684,1.6475 7.882,5.002 2.5882,2.4709 6.4584,5.2214 9.1166,6.479 4.9276,2.3311 4.5894,2.4571 -3.7682,1.404 z"
         id="path3662"
         inkscape:connector-curvature="0" />
      <path
         style="fill:none;stroke:#000000;stroke-width:2.40339994"
         d="m 1092.5841,1800.9773 c 5.4268,-2.3688 7.3452,-3.6806 11.2337,-7.6813 3.1794,-3.2713 4.5203,-4.117 7.4444,-4.6951 l 3.5666,-0.7052 0.7189,2.6697 c 1.3734,5.1005 1.6116,7.1566 0.8815,7.6078 -0.9772,0.604 -16.0507,3.0983 -22.0217,3.6442 l -4.7406,0.4334 2.9172,-1.2735 z"
         id="path3660"
         inkscape:connector-curvature="0" />
      <path
         style="fill:none;stroke:#000000;stroke-width:2.40339994"
         d="m 937.45469,1791.8794 c -2.58663,-2.9081 -6.78352,-7.9131 -9.32643,-11.1221 -4.58378,-5.7845 -14.60098,-20.4846 -14.58435,-21.4023 0.01,-0.5275 8.77571,-5.4879 9.00816,-5.0974 4.46103,7.494 12.93542,19.2876 19.04161,26.4997 3.68691,4.3546 3.7045,4.3997 3.61578,9.2714 -0.0813,4.4647 -1.01811,7.1383 -2.50118,7.1383 -0.30284,0 -2.66696,-2.3794 -5.25359,-5.2876 z"
         id="path3658"
         inkscape:connector-curvature="0" />
      <path
         style="fill:none;stroke:#000000;stroke-width:2.40339994"
         d="m 1035.925,1794.6455 c -8.375,-2.8953 -23.2018,-9.8058 -23.2018,-10.8139 0,-0.7071 4.2996,-8.5443 4.6875,-8.5443 0.1125,0 3.9447,1.7637 8.516,3.9193 4.5714,2.1556 11.0192,4.8081 14.3285,5.8945 3.3093,1.0863 6.0169,2.1269 6.0169,2.3124 0,1.2934 -2.4569,9.7456 -2.8236,9.714 -0.2521,-0.022 -3.6377,-1.1387 -7.5235,-2.482 z"
         id="path3656"
         inkscape:connector-curvature="0" />
      <path
         style="fill:none;stroke:#000000;stroke-width:2.40339994"
         d="m 1119.3471,1793.7028 c -0.4604,-1.9054 -1.0346,-4.1541 -1.276,-4.9971 -0.3969,-1.3862 0.3057,-1.7899 7.3483,-4.2227 4.283,-1.4794 10.7498,-4.1779 14.3708,-5.9964 3.621,-1.8186 6.8399,-3.0362 7.1532,-2.7059 0.3132,0.3303 1.5882,2.3444 2.8333,4.4757 l 2.2638,3.875 -8.9424,4.2599 c -6.8421,3.2593 -21.1214,8.7757 -22.7159,8.7757 -0.1088,0 -0.5746,-1.5589 -1.0351,-3.4642 z"
         id="path3654"
         inkscape:connector-curvature="0" />
      <path
         style="fill:none;stroke:#000000;stroke-width:2.40339994"
         d="m 1219.8453,1796.0662 c -1.3487,-1.6252 -1.3968,-11.1693 -0.062,-12.2599 3.2976,-2.6937 20.2892,-25.7893 21.3792,-29.0593 0.206,-0.6182 1.6564,-0.141 4.6277,1.5227 2.3801,1.3327 4.4494,2.5319 4.5984,2.6648 0.6865,0.6127 -9.5794,16.057 -15.4752,23.2814 -5.1465,6.3062 -13.0056,14.9511 -13.5919,14.9511 -0.3096,0 -0.9739,-0.4954 -1.4765,-1.1008 z"
         id="path3652"
         inkscape:connector-curvature="0" />
      <path
         style="fill:none;stroke:#000000;stroke-width:2.40339994"
         d="m 996.67812,1790.0691 c -6.75231,-4.4143 -18.07539,-13.3245 -21.44365,-16.874 l -2.11658,-2.2305 3.57522,-3.6029 3.57523,-3.6029 6.19925,5.4363 c 3.40959,2.9899 9.69096,7.8118 13.95861,10.7153 l 7.7593,5.2791 -2.5489,4.3478 c -1.4019,2.3913 -2.5962,4.4011 -2.654,4.4662 -0.058,0.065 -2.8949,-1.7054 -6.30448,-3.9344 z"
         id="path3648"
         inkscape:connector-curvature="0" />
      <path
         style="fill:none;stroke:#000000;stroke-width:2.40339994"
         d="m 1158.6164,1789.7092 c -2.3811,-4.3312 -2.415,-4.5056 -1.0617,-5.4616 0.7688,-0.5432 4.296,-3.0094 7.8383,-5.4804 3.5422,-2.4711 9.1531,-6.871 12.4687,-9.7775 l 6.0283,-5.2846 3.543,3.5971 3.543,3.5971 -2.5192,2.6244 c -4.7157,4.9126 -17.1608,14.4996 -24.7959,19.1015 l -2.5849,1.558 -2.4596,-4.474 z"
         id="path3646"
         inkscape:connector-curvature="0" />
      <path
         style="fill:none;stroke:#000000;stroke-width:2.40339994"
         d="m 1052.246,1785.6075 c -1.8627,-0.5246 -1.861,-0.5186 -1.1825,-4.135 0.7084,-3.7764 1.3008,-3.593 2.6013,0.8051 0.6422,2.1723 0.9647,3.9169 0.7165,3.8769 -0.2482,-0.04 -1.2091,-0.2861 -2.1353,-0.547 z"
         id="path3644"
         inkscape:connector-curvature="0" />
      <path
         style="fill:none;stroke:#000000;stroke-width:2.40339994"
         d="m 1110.4627,1782.5507 c 0.6787,-2.005 1.3912,-3.8026 1.5833,-3.9947 0.1921,-0.1921 0.6889,1.1349 1.104,2.9487 0.8114,3.5458 0.8017,3.566 -2.0331,4.2414 l -1.8883,0.45 1.2341,-3.6454 z"
         id="path3642"
         inkscape:connector-curvature="0" />
      <path
         style="fill:none;stroke:#000000;stroke-width:2.40339994"
         d="m 1040.0675,1781.9329 c -7.0246,-2.437 -20.7804,-8.8189 -20.7804,-9.6408 0,-0.4783 4.0522,-7.7887 4.72,-8.5151 0.104,-0.1132 3.2366,1.2774 6.9613,3.0903 3.7247,1.8128 9.5204,4.1911 12.8793,5.2849 3.359,1.0939 5.9768,2.3289 5.8174,2.7444 -0.1593,0.4155 -0.712,2.6425 -1.2281,4.949 -0.5161,2.3065 -1.2964,4.1756 -1.734,4.1535 -0.4375,-0.022 -3.4235,-0.9518 -6.6355,-2.0662 z"
         id="path3640"
         inkscape:connector-curvature="0" />
      <path
         style="fill:none;stroke:#000000;stroke-width:2.40339994"
         d="m 1116.7649,1783.4922 c -0.1857,-0.3008 -0.8353,-2.4531 -1.4435,-4.7827 -1.2699,-4.8647 -2.1665,-3.9728 7.5297,-7.4911 3.0084,-1.0917 8.0061,-3.2483 11.106,-4.7925 3.0998,-1.5443 5.7761,-2.8077 5.9473,-2.8077 0.4315,0 4.8264,7.8554 4.8264,8.6267 0,1.2266 -24.179,11.7943 -26.9854,11.7943 -0.3536,0 -0.7948,-0.2461 -0.9805,-0.547 z"
         id="path3638"
         inkscape:connector-curvature="0" />
      <path
         style="fill:none;stroke:#000000;stroke-width:2.40339994"
         d="m 943.28005,1778.2074 c -7.44077,-8.9458 -18.07562,-23.9528 -18.07562,-25.5067 0,-0.4133 5.71587,-3.9087 8.17284,-4.9979 0.29143,-0.1292 1.74086,1.6759 3.22094,4.0113 3.98688,6.2908 11.83361,16.5932 17.6767,23.2086 6.22582,7.0487 6.00929,7.9133 -1.99932,7.9838 l -5.05015,0.044 -3.94539,-4.7435 z"
         id="path3636"
         inkscape:connector-curvature="0" />
      <path
         style="fill:none;stroke:#000000;stroke-width:2.40339994"
         d="m 1205.6361,1781.8551 c -0.8533,-0.9461 -0.2321,-1.9544 4.4959,-7.2971 6.4052,-7.2379 11.8001,-14.2966 16.583,-21.6974 1.8795,-2.9081 3.6112,-5.2875 3.8483,-5.2875 0.3878,0 7.4662,4.1689 8.1783,4.8167 0.8573,0.7798 -10.3103,16.8698 -17.636,25.4095 l -4.3445,5.0645 -5.0674,0.045 c -3.6321,0.032 -5.3479,-0.2664 -6.0576,-1.0532 z"
         id="path3634"
         inkscape:connector-curvature="0" />
      <path
         style="fill:none;stroke:#000000;stroke-width:2.40339994"
         d="m 1152.1391,1778.5452 c -1.2667,-2.1178 -2.3031,-4.1693 -2.3031,-4.559 0,-0.3896 2.8412,-2.6357 6.3138,-4.9913 3.4725,-2.3555 9.008,-6.6359 12.3011,-9.5119 l 5.9874,-5.2292 3.5308,3.5847 3.5307,3.5847 -2.8864,2.9896 c -3.0863,3.1968 -17.2105,13.9996 -21.5514,16.4836 l -2.6199,1.4992 -2.303,-3.8504 z"
         id="path3632"
         inkscape:connector-curvature="0" />
      <path
         style="fill:none;stroke:#000000;stroke-width:2.40339994"
         d="m 1002.3586,1777.7423 c -6.18937,-4.2069 -15.87564,-11.996 -18.39297,-14.7903 -1.40516,-1.5598 -1.40157,-1.5695 1.79283,-4.8243 1.76044,-1.7938 3.48922,-3.2614 3.84173,-3.2614 0.35252,0 3.15589,2.1564 6.22973,4.7921 3.07384,2.6356 8.59648,6.8388 12.27258,9.3405 l 6.6838,4.5484 -2.2999,4.152 c -1.265,2.2836 -2.7011,4.152 -3.1914,4.152 -0.4902,0 -3.6116,-1.8491 -6.9364,-4.109 z"
         id="path3630"
         inkscape:connector-curvature="0" />
      <path
         style="fill:none;stroke:#000000;stroke-width:2.40339994"
         d="m 956.05053,1772.5524 c -7.87578,-8.9549 -19.17692,-24.5587 -19.17692,-26.478 0,-0.556 7.36356,-5.0653 8.27144,-5.0653 0.23979,0 2.1421,2.5436 4.22736,5.6523 5.11991,7.6329 9.00029,12.6403 14.79166,19.088 l 4.86218,5.4132 -3.46807,3.521 c -1.90745,1.9366 -3.70849,3.521 -4.00232,3.521 -0.29382,0 -2.77122,-2.5435 -5.50533,-5.6522 z"
         id="path3628"
         inkscape:connector-curvature="0" />
      <path
         style="fill:none;stroke:#000000;stroke-width:2.40339994"
         d="m 1198.8601,1775.0851 c -1.6922,-1.7242 -3.0767,-3.4224 -3.0767,-3.7738 0,-0.3514 1.9096,-2.8004 4.2435,-5.4423 5.875,-6.6503 11.0086,-13.3362 15.0281,-19.5723 1.8744,-2.9081 3.6383,-5.2776 3.9197,-5.2655 0.2815,0.012 2.3934,1.1018 4.6933,2.4213 l 4.1816,2.3992 -6.1308,9.0656 c -5.7027,8.4323 -17.3147,22.5029 -19.0298,23.0588 -0.4138,0.1341 -2.1368,-1.1669 -3.8289,-2.891 z"
         id="path3626"
         inkscape:connector-curvature="0" />
      <path
         style="fill:none;stroke:#000000;stroke-width:2.40339994"
         d="m 1010.4828,1767.1809 c -6.7018,-4.615 -13.50087,-10.0176 -16.24955,-12.9121 l -2.0802,-2.1906 3.08474,-3.3466 c 1.69661,-1.8406 3.38899,-3.3465 3.76085,-3.3465 0.37186,0 2.94086,1.9492 5.70886,4.3315 2.768,2.3824 7.591,6.0419 10.7178,8.1323 3.1269,2.0903 5.7809,3.8744 5.898,3.9646 0.2296,0.1769 -4.8919,9.0979 -5.2232,9.0979 -0.1099,0 -2.6377,-1.6787 -5.6173,-3.7305 z"
         id="path3624"
         inkscape:connector-curvature="0" />
      <path
         style="fill:none;stroke:#000000;stroke-width:2.40339994"
         d="m 1043.8172,1769.1136 c -5.5065,-1.9431 -17.9661,-7.7026 -17.9661,-8.3049 0,-1.3864 8.3205,-14.7297 9.0043,-14.44 0.4629,0.196 3.8322,1.6692 7.4874,3.2737 3.6553,1.6045 8.0268,3.331 9.7145,3.8366 2.1854,0.6548 2.9834,1.249 2.7729,2.065 -0.1626,0.6301 -1.088,4.3445 -2.0566,8.2543 -1.2556,5.0689 -2.0748,7.1049 -2.8549,7.0955 -0.6017,-0.01 -3.3473,-0.8083 -6.1015,-1.7802 z"
         id="path3622"
         inkscape:connector-curvature="0" />
      <path
         style="fill:none;stroke:#000000;stroke-width:2.40339994"
         d="m 1113.0114,1769.9997 c -0.683,-1.9914 -3.9948,-15.395 -3.8294,-15.4986 0.097,-0.061 2.3099,-0.8706 4.9172,-1.7996 2.6073,-0.929 7.1951,-2.8067 10.195,-4.1727 5.1662,-2.3522 5.506,-2.4142 6.4292,-1.1726 1.1403,1.5337 7.4435,12.9578 7.4435,13.4909 0,0.5515 -14.0406,7.0377 -18.7178,8.6469 -4.8135,1.6561 -6.0109,1.7502 -6.4377,0.5057 z"
         id="path3620"
         inkscape:connector-curvature="0" />
      <path
         style="fill:none;stroke:#000000;stroke-width:2.40339994"
         d="m 1145.2192,1766.4516 -2.5275,-4.485 5.4979,-3.7142 c 3.0238,-2.0428 8.0368,-5.9082 11.1399,-8.5897 l 5.642,-4.8754 3.5545,3.6412 3.5544,3.6412 -4.9128,4.5936 c -3.9483,3.6918 -13.9182,11.0917 -18.5586,13.7746 -0.5466,0.3161 -1.7876,-1.1432 -3.3898,-3.9863 z"
         id="path3618"
         inkscape:connector-curvature="0" />
      <path
         style="fill:none;stroke:#000000;stroke-width:2.40339994"
         d="m 968.10323,1765.9885 c -6.21225,-6.4966 -19.56045,-24.5798 -19.56045,-26.4991 0,-0.3318 1.88712,-1.7066 4.19361,-3.055 l 4.19361,-2.4517 4.19648,6.1469 c 5.14255,7.5326 7.64905,10.7928 13.05828,16.9848 l 4.19383,4.8007 -3.45611,3.4042 c -1.90087,1.8723 -3.62438,3.4041 -3.83005,3.4041 -0.20566,0 -1.5508,-1.2307 -2.9892,-2.7349 z"
         id="path3616"
         inkscape:connector-curvature="0" />
      <path
         style="fill:none;stroke:#000000;stroke-width:2.40339994"
         d="m 1189.0939,1765.3351 -3.3884,-3.3884 5.2213,-5.9744 c 2.8717,-3.2859 7.2613,-8.8994 9.7546,-12.4744 2.4933,-3.575 4.9987,-7.1562 5.5675,-7.9583 1.0273,-1.4484 1.0556,-1.4464 4.2186,0.3021 6.2603,3.4606 6.1065,2.7666 2.0252,9.1367 -5.3483,8.3477 -17.9728,23.745 -19.4689,23.745 -0.2978,0 -2.0663,-1.5247 -3.9299,-3.3883 z"
         id="path3614"
         inkscape:connector-curvature="0" />
      <path
         style="fill:none;stroke:#000000;stroke-width:2.40339994"
         d="m 896.7728,1753.4315 c -2.40636,-4.8004 -5.49684,-11.4463 -6.86773,-14.7688 -2.79921,-6.7841 -7.73071,-21.2486 -7.73071,-22.6748 0,-0.8451 5.18488,-2.693 7.55594,-2.693 0.58437,0 1.6224,2.2509 2.60654,5.6522 2.30597,7.9697 8.95375,24.1038 13.26726,32.1994 2.84748,5.3442 3.44098,6.9983 2.6923,7.5038 -1.46188,0.9869 -6.32094,3.5092 -6.7603,3.5092 -0.21345,0 -2.35694,-3.9276 -4.7633,-8.728 z"
         id="path3612"
         inkscape:connector-curvature="0" />
      <path
         style="fill:none;stroke:#000000;stroke-width:2.40339994"
         d="m 1258.3261,1760.133 c -1.9036,-1.0916 -3.3645,-2.1489 -3.2465,-2.3494 5.0063,-8.5107 16.4631,-35.8324 17.774,-42.3869 0.4714,-2.3566 1.016,-2.4734 5.6975,-1.2213 2.1107,0.5646 3.2886,1.2844 3.2817,2.0057 -0.018,1.879 -5.4621,17.3992 -9.093,25.922 -3.7179,8.7273 -9.63,20.069 -10.4438,20.0355 -0.2799,-0.012 -2.0663,-0.914 -3.9699,-2.0056 z"
         id="path3610"
         inkscape:connector-curvature="0" />
      <path
         style="fill:none;stroke:#000000;stroke-width:2.40339994"
         d="m 977.60854,1756.5073 c -6.68117,-7.052 -17.40975,-21.7348 -17.38793,-23.7966 0.005,-0.45 1.9077,-1.8609 4.22877,-3.1355 l 4.22011,-2.3173 2.60251,4.1634 c 1.43138,2.2898 5.3539,7.564 8.71672,11.7204 3.36281,4.1564 6.43602,7.995 6.82934,8.5303 0.52473,0.714 -0.14679,1.8514 -2.52215,4.2717 -1.78051,1.8142 -3.43054,3.2985 -3.66674,3.2985 -0.2362,0 -1.59548,-1.2307 -3.02063,-2.7349 z"
         id="path3608"
         inkscape:connector-curvature="0" />
      <path
         style="fill:none;stroke:#000000;stroke-width:2.40339994"
         d="m 1016.8575,1755.3838 c -6.7494,-4.6385 -14.5031,-11.3472 -14.1923,-12.2794 0.1233,-0.37 3.4816,-2.6142 7.4627,-4.9871 l 7.2385,-4.3143 4.4247,3.4721 c 2.4335,1.9096 5.6652,4.2203 7.1815,5.1348 l 2.7569,1.6626 -2.7237,4.8499 c -1.498,2.6674 -3.395,6.0779 -4.2155,7.5788 -0.8205,1.501 -1.6779,2.7317 -1.9053,2.735 -0.2273,0 -2.9397,-1.7302 -6.0275,-3.8524 z"
         id="path3606"
         inkscape:connector-curvature="0" />
      <path
         style="fill:none;stroke:#000000;stroke-width:2.40339994"
         d="m 1140.125,1757.6522 c -0.5827,-0.9305 -2.5455,-4.2914 -4.3617,-7.4685 l -3.3022,-5.7765 5.5878,-3.9722 c 3.0733,-2.1848 6.4084,-4.7086 7.4112,-5.6086 l 1.8233,-1.6363 7.5115,4.8975 7.5115,4.8975 -4.1314,3.7758 c -3.7441,3.4219 -9.8818,8.0496 -15.035,11.3362 -1.8967,1.2097 -1.9872,1.1963 -3.015,-0.4449 z"
         id="path3604"
         inkscape:connector-curvature="0" />
      <path
         style="fill:none;stroke:#000000;stroke-width:2.40339994"
         d="m 1179.6225,1755.8637 -3.3785,-3.3785 5.4217,-6.285 c 2.9819,-3.4568 7.3331,-9.1096 9.6692,-12.5617 l 4.2476,-6.2767 4.4285,2.4873 4.4284,2.4873 -1.568,2.6954 c -4.5029,7.7405 -17.745,24.2104 -19.4656,24.2104 -0.2226,0 -1.9251,-1.5203 -3.7833,-3.3785 z"
         id="path3602"
         inkscape:connector-curvature="0" />
      <path
         style="fill:none;stroke:#000000;stroke-width:2.40339994"
         d="m 906.33301,1745.9321 c -5.0039,-10.2473 -11.16568,-26.1336 -12.12012,-31.248 l -0.48932,-2.622 4.44183,-1.2463 c 4.57811,-1.2846 5.88866,-1.1265 5.88866,0.7105 0,3.3383 10.269,27.9293 16.58053,39.7052 0.19764,0.3687 -7.96758,5.0934 -8.80248,5.0934 -0.23327,0 -2.70786,-4.6768 -5.4991,-10.3928 z"
         id="path3600"
         inkscape:connector-curvature="0" />
      <path
         style="fill:none;stroke:#000000;stroke-width:2.40339994"
         d="m 1247.7477,1754.0607 c -2.1059,-1.2277 -3.829,-2.5392 -3.829,-2.9145 0,-0.3753 1.6422,-3.9548 3.6494,-7.9545 4.0135,-7.9979 8.1948,-18.2222 11.2813,-27.5856 1.935,-5.8701 2.0682,-6.0603 3.929,-5.6119 6.4653,1.5581 7.3956,1.9543 7.3866,3.1464 0,0.6865 -1.4931,5.6789 -3.3065,11.0941 -3.1528,9.4153 -13.5742,32.1078 -14.7297,32.0741 -0.3037,-0.01 -2.2752,-1.0205 -4.3811,-2.2481 z"
         id="path3598"
         inkscape:connector-curvature="0" />
      <path
         style="fill:none;stroke:#000000;stroke-width:2.40339994"
         d="m 919.9235,1743.3794 c -5.53324,-10.536 -12.95215,-29.6769 -12.95215,-33.4167 0,-1.3033 0.64223,-1.7573 3.46428,-2.4488 1.90536,-0.4669 4.00335,-1.0091 4.6622,-1.2049 0.94558,-0.2809 1.53576,0.763 2.80182,4.956 2.16316,7.164 7.45779,20.0231 11.27415,27.3816 l 3.12458,6.0246 -4.18937,2.5449 c -2.30415,1.3997 -4.33443,2.5449 -4.51172,2.5449 -0.1773,0 -1.8305,-2.8717 -3.67379,-6.3816 z"
         id="path3596"
         inkscape:connector-curvature="0" />
      <path
         style="fill:none;stroke:#000000;stroke-width:2.40339994"
         d="m 984.91738,1744.6679 c -4.96656,-5.5473 -13.03626,-17.0169 -13.03626,-18.5288 0,-0.932 6.38646,-4.8217 7.9167,-4.8217 0.4349,0 2.45464,2.4658 4.48831,5.4796 2.03366,3.0137 5.79738,7.8872 8.36382,10.8298 l 4.66625,5.3504 -3.44372,3.3919 c -1.89404,1.8656 -3.65777,3.3919 -3.91939,3.3919 -0.26163,0 -2.52769,-2.2919 -5.03571,-5.0931 z"
         id="path3594"
         inkscape:connector-curvature="0" />
      <path
         style="fill:none;stroke:#000000;stroke-width:2.40339994"
         d="m 1170.2408,1746.4625 c -3.6125,-3.6809 -3.7057,-3.1352 1.5731,-9.217 3.5573,-4.0984 11.2482,-14.595 11.711,-15.9833 0.1631,-0.4895 2.0873,0.2496 4.8221,1.8525 2.8932,1.6956 4.3678,2.9829 4.0488,3.5345 -4.1711,7.2113 -16.8333,23.1118 -18.4049,23.1118 -0.282,0 -1.9696,-1.4843 -3.7501,-3.2985 z"
         id="path3592"
         inkscape:connector-curvature="0" />
      <path
         style="fill:none;stroke:#000000;stroke-width:2.40339994"
         d="m 1236.9902,1747.8499 c -1.6045,-0.9754 -3.3943,-2.0615 -3.9772,-2.4134 -0.871,-0.5259 -0.1988,-2.4388 3.7739,-10.7385 2.6585,-5.5543 6.224,-14.2011 7.9233,-19.2152 1.6993,-5.0141 3.1329,-9.1852 3.1857,-9.2691 0.1874,-0.2974 8.7942,2.1009 9.309,2.5939 1.5244,1.46 -14.6773,41.1187 -16.7025,40.8847 -0.3272,-0.038 -1.9077,-0.8669 -3.5122,-1.8424 z"
         id="path3590"
         inkscape:connector-curvature="0" />
      <path
         style="fill:none;stroke:#000000;stroke-width:2.40339994"
         d="m 929.94343,1733.4297 c -5.09367,-10.5189 -11.08947,-27.2443 -10.08856,-28.1421 0.66668,-0.5981 6.84076,-2.2033 8.47437,-2.2033 0.57102,0 1.42178,1.3648 1.93219,3.0997 1.7337,5.8927 7.40011,19.7762 10.53989,25.8243 l 3.1514,6.0704 -2.99257,1.7297 c -6.84326,3.9554 -5.68895,4.6237 -11.01672,-6.3787 z"
         id="path3588"
         inkscape:connector-curvature="0" />
      <path
         style="fill:none;stroke:#000000;stroke-width:2.40339994"
         d="m 1225.321,1741.0099 c -2.0056,-1.1893 -3.9738,-2.2773 -4.3738,-2.4179 -0.3999,-0.1406 1.306,-4.4951 3.7909,-9.6767 2.485,-5.1817 5.7659,-13.1129 7.2911,-17.625 2.3387,-6.9189 3.0097,-8.204 4.2841,-8.2049 1.9346,-10e-4 8.3348,2.1661 8.3348,2.8227 0,1.1054 -3.9355,12.5013 -6.2808,18.1871 -2.3391,5.6708 -8.8368,19.117 -9.2247,19.0895 -0.096,-0.01 -1.816,-0.9855 -3.8216,-2.1748 z"
         id="path3586"
         inkscape:connector-curvature="0" />
      <path
         style="fill:none;stroke:#000000;stroke-width:2.40339994"
         d="m 994.89827,1735.7619 c -4.21617,-4.657 -12.59175,-16.4106 -12.02246,-16.8713 0.77341,-0.6258 13.52825,-7.6984 14.26564,-7.9104 0.4554,-0.1309 2.06518,1.5671 3.57735,3.7733 1.5121,2.2062 3.9935,5.5126 5.5142,7.3475 l 2.765,3.3362 -4.9682,7.4617 -4.96825,7.4617 -4.16328,-4.5987 z"
         id="path3584"
         inkscape:connector-curvature="0" />
      <path
         style="fill:none;stroke:#000000;stroke-width:2.40339994"
         d="m 1160.3116,1731.9522 c -4.3221,-7.2996 -4.4306,-7.6053 -3.1647,-8.9144 0.721,-0.7457 3.1002,-3.871 5.2871,-6.9451 l 3.9763,-5.5895 7.211,4.0629 c 3.966,2.2346 7.3438,4.1716 7.5061,4.3044 0.916,0.7494 -14.1066,20.5991 -15.6109,20.627 -0.4011,0.01 -2.7433,-3.388 -5.2049,-7.5453 z"
         id="path3582"
         inkscape:connector-curvature="0" />
      <path
         style="fill:none;stroke:#000000;stroke-width:2.40339994"
         d="m 942.02325,1727.7635 c -4.03319,-8.4538 -9.52558,-22.9048 -9.52558,-25.0627 0,-0.9773 7.47041,-3.5687 8.90725,-3.0897 0.41537,0.1384 1.96458,3.6842 3.44269,7.8794 1.47811,4.1952 4.4435,11.3221 6.58976,15.8376 2.14626,4.5155 3.76782,8.3182 3.60347,8.4505 -0.16435,0.1322 -2.19458,1.3076 -4.51163,2.612 l -4.21281,2.3716 -4.29315,-8.9987 z"
         id="path3580"
         inkscape:connector-curvature="0" />
      <path
         style="fill:none;stroke:#000000;stroke-width:2.40339994"
         d="m 1213.7696,1734.4675 c -1.9409,-1.1262 -3.834,-2.3528 -4.2069,-2.7257 -0.418,-0.4179 0.9754,-4.1569 3.6314,-9.7449 2.3702,-4.9867 5.247,-11.9799 6.3928,-15.5404 1.1459,-3.5605 2.4601,-6.6182 2.9205,-6.7948 0.4604,-0.1767 2.8315,0.275 5.2691,1.0037 l 4.432,1.3249 -2.455,7.2998 c -2.7987,8.3216 -9.3356,23.2846 -11.2028,25.643 l -1.2523,1.5819 -3.5288,-2.0475 z"
         id="path3578"
         inkscape:connector-curvature="0" />
      <path
         style="fill:none;stroke:#000000;stroke-width:2.40339994"
         d="m 953.81878,1721.4997 c -3.33433,-7.0576 -9.24378,-22.7196 -8.75345,-23.1994 0.40235,-0.3937 9.48357,-2.5808 9.72277,-2.3416 0.13715,0.1372 1.27612,3.1914 2.53104,6.7871 1.25492,3.5958 3.89605,9.944 5.86919,14.1071 1.97314,4.1631 3.58753,7.6846 3.58753,7.8255 0,0.4496 -7.62569,4.6476 -8.45547,4.6547 -0.43867,0 -2.4644,-3.5212 -4.50161,-7.8334 z"
         id="path3576"
         inkscape:connector-curvature="0" />
      <path
         style="fill:none;stroke:#000000;stroke-width:2.40339994"
         d="m 1201.071,1727.1304 c -2.1059,-1.2077 -3.829,-2.3599 -3.829,-2.5604 0,-0.2004 1.454,-3.2595 3.2311,-6.7979 1.7771,-3.5384 4.4149,-9.8345 5.8618,-13.9913 1.4469,-4.1569 2.7418,-7.669 2.8776,-7.8047 0.1357,-0.1358 2.4173,0.2984 5.0701,0.9648 4.6415,1.1659 4.806,1.2839 4.3608,3.1305 -1.7757,7.365 -11.481,29.2747 -12.9621,29.2617 -0.4297,-0 -2.5044,-0.995 -4.6103,-2.2027 z"
         id="path3574"
         inkscape:connector-curvature="0" />
      <path
         style="fill:none;stroke:#000000;stroke-width:2.40339994"
         d="m 965.72599,1715.4246 c -2.94624,-6.2636 -7.70201,-18.8499 -7.70201,-20.3836 0,-0.262 1.88713,-0.8987 4.19361,-1.4148 2.30649,-0.5161 4.5363,-1.0698 4.95513,-1.2305 0.41884,-0.1606 1.52419,2.0966 2.45632,5.016 0.93214,2.9194 3.29908,8.7247 5.25987,12.9006 1.9608,4.176 3.48102,7.6648 3.37827,7.753 -1.04996,0.9014 -7.81226,4.7108 -8.36232,4.7108 -0.39653,0 -2.27702,-3.3082 -4.17887,-7.3515 z"
         id="path3572"
         inkscape:connector-curvature="0" />
      <path
         style="fill:none;stroke:#000000;stroke-width:2.40339994"
         d="m 1189.8012,1720.666 c -1.8863,-1.0743 -3.6095,-2.1332 -3.8293,-2.3531 -0.2198,-0.2198 0.7894,-2.8336 2.2426,-5.8085 3.2323,-6.6163 7.5689,-17.6838 7.5689,-19.3165 0,-0.6599 0.4101,-1.0422 0.9117,-0.8498 0.5014,0.1924 2.7987,0.772 5.1052,1.2881 2.435,0.5449 4.1936,1.3302 4.1936,1.8728 0,3.3538 -10.5512,27.3376 -11.9656,27.1988 -0.4386,-0.043 -2.3408,-0.9574 -4.2271,-2.0318 z"
         id="path3570"
         inkscape:connector-curvature="0" />
      <path
         style="fill:none;stroke:#000000;stroke-width:2.40339994"
         d="m 977.54649,1709.1012 c -4.00181,-8.606 -6.78485,-16.8858 -5.92873,-17.6386 0.71067,-0.625 15.62541,-4.6536 15.89171,-4.2926 0.0949,0.1286 0.94239,2.3672 1.88339,4.9745 0.94099,2.6073 2.80103,7.161 4.13341,10.1192 1.33239,2.9583 2.42252,5.4832 2.42252,5.611 0,0.2965 -14.1824,8.3375 -14.7052,8.3375 -0.21478,0 -1.87848,-3.2 -3.6971,-7.111 z"
         id="path3568"
         inkscape:connector-curvature="0" />
      <path
         style="fill:none;stroke:#000000;stroke-width:2.40339994"
         d="m 1175.5313,1712.3044 c -3.7178,-2.1442 -6.922,-4.0609 -7.1205,-4.2593 -0.1984,-0.1985 0.7455,-2.7906 2.0977,-5.7604 1.3522,-2.9698 3.2187,-7.5329 4.1477,-10.1402 0.929,-2.6073 1.7644,-4.8456 1.8564,-4.974 0.2844,-0.3965 15.2175,3.653 15.9427,4.3233 0.4205,0.3886 0.1771,2.2481 -0.6328,4.8347 -1.4799,4.7265 -8.4131,19.8862 -9.0915,19.879 -0.242,-0 -3.4819,-1.759 -7.1997,-3.9031 z"
         id="path3566"
         inkscape:connector-curvature="0" />
      <path
         style="fill:none;stroke:#000000;stroke-width:2.40339994"
         d="m 879.6742,1706.5486 c -2.55057,-11.2407 -5.5224,-34.7698 -5.5224,-43.7228 0,-1.1296 0.66169,-1.3129 4.7406,-1.3129 l 4.7406,0 8.8e-4,5.6523 c 10e-4,7.7167 1.90855,23.5923 4.05259,33.7312 0.97549,4.6129 1.7753,8.5944 1.77736,8.8476 0.004,0.4907 -5.76255,2.0922 -7.5333,2.0922 -0.71505,0 -1.44436,-1.7091 -2.25633,-5.2876 z"
         id="path3564"
         inkscape:connector-curvature="0" />
      <path
         style="fill:none;stroke:#000000;stroke-width:2.40339994"
         d="m 1277.4676,1710.9756 c -1.4039,-0.401 -2.6411,-0.8155 -2.7493,-0.9211 -0.1082,-0.1055 0.29,-2.2913 0.8849,-4.8573 2.1925,-9.4568 4.2067,-23.8944 4.6701,-33.4738 l 0.4763,-9.8458 4.5582,-0.2172 4.5583,-0.2171 -0.01,2.7698 c -0.025,9.3886 -2.5044,29.0105 -5.164,40.8769 -1.666,7.4328 -1.7034,7.4632 -7.227,5.8856 z"
         id="path3562"
         inkscape:connector-curvature="0" />
      <path
         style="fill:none;stroke:#000000;stroke-width:2.40339994"
         d="m 892.0998,1707.6426 c -2.34553,-7.8085 -5.5495,-31.1754 -5.5495,-40.473 l 0,-5.6567 4.99823,0 4.99823,0 0.49908,8.5696 c 0.57033,9.7927 2.10931,21.0887 4.0963,30.0664 0.75242,3.3996 1.25706,6.292 1.12143,6.4277 -0.35195,0.3519 -7.8853,2.3233 -8.91789,2.3337 -0.47437,0 -1.03502,-0.5657 -1.24588,-1.2677 z"
         id="path3560"
         inkscape:connector-curvature="0" />
      <path
         style="fill:none;stroke:#000000;stroke-width:2.40339994"
         d="m 1265.3644,1707.6647 -3.716,-1.0844 1.6913,-8.1296 c 2.0223,-9.7204 3.9153,-25.1944 3.9165,-32.0149 l 9e-4,-4.9229 5.1052,0 5.1053,0 0,6.4034 c 0,9.5643 -3.1297,32.0311 -5.5341,39.7263 -0.4659,1.4912 -1.5226,1.4948 -6.5691,0.022 z"
         id="path3558"
         inkscape:connector-curvature="0" />
      <path
         style="fill:none;stroke:#000000;stroke-width:2.40339994"
         d="m 905.21076,1704.6881 c -2.26757,-7.4605 -5.53264,-31.1851 -5.53264,-40.2011 l 0,-2.9741 5.04303,0 5.04304,0 0.42276,5.6523 c 0.7625,10.1943 2.66337,24.5081 4.0203,30.2733 l 1.33186,5.6586 -4.10155,1.1375 c -2.25585,0.6257 -4.49499,1.2624 -4.97587,1.4151 -0.48087,0.1526 -1.04379,-0.2801 -1.25093,-0.9616 z"
         id="path3556"
         inkscape:connector-curvature="0" />
      <path
         style="fill:none;stroke:#000000;stroke-width:2.40339994"
         d="m 1254.004,1704.6324 c -2.2751,-0.6509 -4.3527,-1.4012 -4.6168,-1.6674 -0.2641,-0.2661 0.1909,-3.8763 1.0111,-8.0225 1.7725,-8.9598 2.7774,-16.6432 3.4422,-26.3187 l 0.4886,-7.1109 5.1165,0 5.1165,0 -0.4762,8.3369 c -0.713,12.4846 -4.0507,34.0403 -5.4986,35.5119 -0.2457,0.2498 -2.3082,-0.078 -4.5833,-0.7293 z"
         id="path3554"
         inkscape:connector-curvature="0" />
      <path
         style="fill:none;stroke:#000000;stroke-width:2.40339994"
         d="m 916.57547,1694.2115 c -2.11903,-11.5463 -2.93681,-18.1564 -3.18817,-25.77 l -0.2167,-6.5639 5.17535,-0.212 5.17535,-0.2121 0.44461,8.9639 c 0.24453,4.9302 1.1275,12.5741 1.96216,16.9865 0.83466,4.4124 1.70225,9.0253 1.92799,10.2509 0.39674,2.1539 0.29235,2.2568 -3.12623,3.0822 -1.94517,0.4696 -4.23432,1.0534 -5.08699,1.2973 -1.45848,0.4172 -1.64018,-0.046 -3.06737,-7.8228 z"
         id="path3552"
         inkscape:connector-curvature="0" />
      <path
         style="fill:none;stroke:#000000;stroke-width:2.40339994"
         d="m 1240.3916,1701.038 c -4.6045,-1.1495 -4.6195,-1.1617 -4.1403,-3.3826 1.7451,-8.0877 3.2533,-17.796 3.6357,-23.4027 0.2453,-3.5973 0.6166,-7.9354 0.8249,-9.6402 l 0.3789,-3.0996 5.1545,0 5.1546,0 -0.5054,7.4756 c -0.7793,11.5268 -4.3656,33.4817 -5.4371,33.2848 -0.2446,-0.045 -2.5242,-0.6008 -5.0658,-1.2353 z"
         id="path3550"
         inkscape:connector-curvature="0" />
      <path
         style="fill:none;stroke:#000000;stroke-width:2.40339994"
         d="m 929.68739,1691.2328 c -1.92251,-9.3216 -3.02431,-18.3486 -3.02431,-24.7778 l 0,-4.9421 4.99785,0 4.99784,0 0.50156,7.7579 c 0.44411,6.8693 2.57308,21.2705 3.77053,25.5054 0.38943,1.3773 -0.0626,1.6627 -4.33141,2.735 -2.62142,0.6585 -4.90214,1.1972 -5.06826,1.1972 -0.16612,0 -0.99583,-3.364 -1.8438,-7.4756 z"
         id="path3548"
         inkscape:connector-curvature="0" />
      <path
         style="fill:none;stroke:#000000;stroke-width:2.40339994"
         d="m 1227.1443,1697.4406 c -2.2062,-0.6325 -4.0998,-1.2142 -4.208,-1.2926 -0.1082,-0.078 0.3287,-2.4061 0.9708,-5.1726 1.5852,-6.8293 3.2056,-19.3509 3.223,-24.9042 l 0.014,-4.5583 5.1052,0 5.1053,0 -0.013,6.0169 c -0.023,10.4457 -3.5865,31.2402 -5.3327,31.1198 -0.4692,-0.032 -2.6583,-0.5764 -4.8645,-1.209 z"
         id="path3546"
         inkscape:connector-curvature="0" />
      <path
         style="fill:none;stroke:#000000;stroke-width:2.40339994"
         d="m 943.50349,1692.3268 c -1.3908,-5.2861 -2.96335,-15.9391 -3.44512,-23.3383 l -0.48673,-7.4756 5.21489,0 c 3.68537,0 5.21508,0.2674 5.21551,0.9117 0.004,5.8951 2.82623,26.0057 4.12435,29.3885 0.28902,0.7532 -6.67632,3.2487 -9.06763,3.2487 -0.45964,0 -1.15951,-1.2307 -1.55527,-2.735 z"
         id="path3544"
         inkscape:connector-curvature="0" />
      <path
         style="fill:none;stroke:#000000;stroke-width:2.40339994"
         d="m 1213.6021,1693.8259 -3.6964,-1.0922 1.2892,-5.9409 c 0.7091,-3.2675 1.6816,-10.2921 2.1612,-15.6104 l 0.8718,-9.6695 4.9996,0 4.9995,0 0,3.9444 c 0,4.5843 -1.848,19.4031 -3.1461,25.2286 -1.0284,4.6148 -1.631,4.8678 -7.4788,3.14 z"
         id="path3542"
         inkscape:connector-curvature="0" />
      <path
         style="fill:none;stroke:#000000;stroke-width:2.40339994"
         d="m 956.91432,1691.1452 c -1.31887,-4.0654 -3.78791,-21.9228 -3.97104,-28.7206 -0.0151,-0.5591 0.95534,-0.9117 2.50934,-0.9117 2.04847,0 2.73993,0.3984 3.60934,2.0797 0.59149,1.1438 1.85114,2.5879 2.79923,3.2091 1.50986,0.9893 1.88907,2.2473 3.05557,10.1365 1.98657,13.4356 2.2495,12.2763 -3.12034,13.7579 -3.26582,0.901 -4.69292,1.0323 -4.8821,0.4491 z"
         id="path3540"
         inkscape:connector-curvature="0" />
      <path
         style="fill:none;stroke:#000000;stroke-width:2.40339994"
         d="m 1201.9826,1690.6677 c -5.0588,-1.4091 -4.8929,-0.7693 -3.021,-11.651 0.6555,-3.8107 1.1932,-7.9767 1.1948,-9.2577 0,-1.7976 0.488,-2.6155 2.1288,-3.5848 1.1692,-0.6906 2.4749,-2.022 2.9016,-2.9585 0.5991,-1.3149 1.3609,-1.7028 3.3441,-1.7028 2.3186,0 2.5671,0.195 2.5556,2.0057 -0.043,6.82 -3.1033,26.9486 -4.2494,27.9499 -0.2632,0.2299 -2.4477,-0.1304 -4.8545,-0.8008 z"
         id="path3538"
         inkscape:connector-curvature="0" />
      <path
         style="fill:none;stroke:#000000;stroke-width:2.40339994"
         d="m 968.69829,1682.1163 c -0.63052,-3.5099 -1.34687,-8.0226 -1.59188,-10.0282 l -0.44547,-3.6466 3.22181,-1.6799 3.22181,-1.68 5.4052,1.3578 5.4052,1.3577 1.35636,7.8393 c 0.74599,4.3116 1.17977,8.0158 0.96394,8.2317 -0.28647,0.2864 -15.54705,4.6247 -16.28401,4.6291 -0.0586,4e-4 -0.62244,-2.871 -1.25296,-6.3809 z"
         id="path3536"
         inkscape:connector-curvature="0" />
      <path
         style="fill:none;stroke:#000000;stroke-width:2.40339994"
         d="m 1185.7079,1686.3327 c -4.1375,-1.1342 -7.6947,-2.2341 -7.9049,-2.4443 -0.2101,-0.2101 0.2357,-3.9189 0.9907,-8.2417 l 1.3727,-7.8597 5.3504,-1.3469 c 5.1595,-1.2988 5.464,-1.3002 8.5351,-0.037 3.7177,1.5286 3.8288,2.1276 2.1375,11.52 -1.5924,8.8427 -2.0056,10.5799 -2.5028,10.5237 -0.2507,-0.028 -3.8411,-0.9795 -7.9787,-2.1137 z"
         id="path3534"
         inkscape:connector-curvature="0" />
      <path
         style="fill:none;stroke:#000000;stroke-width:2.40339994"
         d="m 874.50515,1651.1201 c 0.89031,-14.153 5.04176,-41.1928 6.55703,-42.708 0.37124,-0.3713 8.40541,1.2112 8.40541,1.6555 0,0.1277 -0.66711,3.4682 -1.48248,7.4233 -2.5047,12.1498 -3.6249,20.6187 -4.11054,31.0765 l -0.4657,10.0282 -4.68698,0 -4.68699,0 0.47025,-7.4755 z"
         id="path3532"
         inkscape:connector-curvature="0" />
      <path
         style="fill:none;stroke:#000000;stroke-width:2.40339994"
         d="m 886.78787,1648.9321 c 0.78902,-16.4852 4.63122,-37.7425 6.82185,-37.7425 0.60681,0 2.90039,0.5224 5.09683,1.161 3.04437,0.885 3.89126,1.4274 3.56324,2.2822 -1.29988,3.3874 -4.22741,22.5334 -4.96576,32.476 l -0.85303,11.4868 -5.06283,0 -5.06283,0 0.46253,-9.6635 z"
         id="path3530"
         inkscape:connector-curvature="0" />
      <path
         style="fill:none;stroke:#000000;stroke-width:2.40339994"
         d="m 899.95042,1650.5015 c 0.71063,-11.7003 2.5981,-24.6506 4.89537,-33.5881 l 0.6846,-2.6634 4.18477,1.081 c 2.30162,0.5945 4.47,1.3563 4.81863,1.6928 0.35731,0.3448 -0.0201,3.8991 -0.86497,8.1463 -1.46818,7.3804 -2.60659,16.4882 -3.47145,27.7733 l -0.43318,5.6522 -5.15268,0 -5.15269,0 0.4916,-8.0941 z"
         id="path3528"
         inkscape:connector-curvature="0" />
      <path
         style="fill:none;stroke:#000000;stroke-width:2.40339994"
         d="m 913.25347,1658.0004 c -1.09209,-1.767 3.49105,-38.594 4.98953,-40.0925 0.22657,-0.2265 9.12577,1.9858 9.71883,2.4161 0.11261,0.082 -0.63676,4.7048 -1.66527,10.2736 -1.02852,5.5688 -2.07385,14.1465 -2.32295,19.0616 l -0.45293,8.9364 -4.94967,0 c -2.72231,0 -5.11521,-0.2678 -5.31754,-0.5952 z"
         id="path3526"
         inkscape:connector-curvature="0" />
      <path
         style="fill:none;stroke:#000000;stroke-width:2.40339994"
         d="m 926.66308,1653.5277 c 0,-8.0821 3.33042,-30.2281 4.81757,-32.0349 0.12311,-0.1495 2.39533,0.3159 5.04937,1.0343 4.28647,1.1603 4.77752,1.4758 4.39579,2.8246 -1.1921,4.2119 -3.32215,18.6289 -3.76548,25.4861 l -0.50156,7.7578 -4.99784,0 -4.99785,0 0,-5.0679 z"
         id="path3524"
         inkscape:connector-curvature="0" />
      <path
         style="fill:none;stroke:#000000;stroke-width:2.40339994"
         d="m 940.05837,1651.1201 c 0.48477,-7.4454 2.05643,-18.0619 3.46698,-23.4196 0.81271,-3.0868 0.87504,-3.0961 7.98242,-1.1823 l 2.67979,0.7216 -1.30665,6.3791 c -1.06559,5.2021 -2.86661,20.2671 -2.87699,24.0651 -10e-4,0.6441 -1.53302,0.9116 -5.21739,0.9116 l -5.21489,0 0.48673,-7.4755 z"
         id="path3522"
         inkscape:connector-curvature="0" />
      <path
         style="fill:none;stroke:#000000;stroke-width:2.40339994"
         d="m 953.25084,1653.308 c 1.19265,-13.1335 3.17606,-24.6259 4.2708,-24.7459 0.29855,-0.033 2.53652,0.3636 4.97326,0.8808 l 4.43044,0.9402 -0.52154,2.9841 c -0.28685,1.6412 -1.07702,6.5942 -1.75593,11.0066 -1.19501,7.7667 -1.33104,8.1214 -4.26459,11.1222 -2.29327,2.3458 -3.58741,3.0996 -5.3214,3.0996 l -2.2912,0 0.48016,-5.2876 z"
         id="path3520"
         inkscape:connector-curvature="0" />
      <path
         style="fill:none;stroke:#000000;stroke-width:2.40339994"
         d="m 1205.6394,1657.169 c -0.249,-0.7846 -1.4967,-2.305 -2.7726,-3.3786 -2.1779,-1.8326 -2.4033,-2.4928 -3.6844,-10.7896 -2.0673,-13.3896 -2.3175,-12.2395 2.9759,-13.6802 2.5034,-0.6813 4.6834,-1.0191 4.8445,-0.7506 1.1164,1.8611 4.0456,21.9591 4.0837,28.02 0.011,1.8009 -0.2429,2.0056 -2.4908,2.0056 -1.8442,0 -2.6227,-0.3757 -2.9563,-1.4266 z"
         id="path3518"
         inkscape:connector-curvature="0" />
      <path
         style="fill:none;stroke:#000000;stroke-width:2.40339994"
         d="m 1214.014,1656.9547 c -0.01,-4.4678 -1.6654,-18.3708 -2.8282,-23.7064 l -1.312,-6.0202 2.6581,-0.7157 c 5.0158,-1.3506 7.1428,-1.6117 7.5651,-0.9284 0.9301,1.5049 3.4138,17.6082 3.8672,25.0731 l 0.4821,7.9385 -5.2149,0 c -4.9211,0 -5.2151,-0.092 -5.2174,-1.6409 z"
         id="path3516"
         inkscape:connector-curvature="0" />
      <path
         style="fill:none;stroke:#000000;stroke-width:2.40339994"
         d="m 1227.1443,1654.257 c 0,-5.2276 -1.8109,-19.4986 -3.2653,-25.7334 -0.5785,-2.4795 -0.9829,-4.5641 -0.8989,-4.6325 0.3449,-0.2806 8.4563,-2.491 9.1409,-2.491 1.6563,0 5.1982,21.1535 5.2205,31.1786 l 0.013,6.0169 -5.1053,0 -5.1053,0 0,-4.3386 z"
         id="path3514"
         inkscape:connector-curvature="0" />
      <path
         style="fill:none;stroke:#000000;stroke-width:2.40339994"
         d="m 1240.7318,1656.9547 c -0.2419,-0.9026 -0.4507,-3.6102 -0.464,-6.017 -0.03,-5.4037 -1.6754,-18.0118 -3.2185,-24.6599 -0.6342,-2.7325 -1.1531,-5.2196 -1.1531,-5.527 0,-0.3073 1.5589,-0.9355 3.4643,-1.3959 1.9053,-0.4605 4.1499,-1.0336 4.988,-1.2737 1.3883,-0.3977 1.6319,0.07 2.7416,5.2702 1.7036,7.9823 3.201,18.9715 3.7839,27.7687 l 0.4953,7.4755 -5.0989,0 c -4.6712,0 -5.1357,-0.1376 -5.5386,-1.6409 z"
         id="path3512"
         inkscape:connector-curvature="0" />
      <path
         style="fill:none;stroke:#000000;stroke-width:2.40339994"
         d="m 1253.4944,1647.8381 c -0.7493,-9.1126 -1.8201,-16.5278 -4.1903,-29.0164 -0.4183,-2.2039 -0.3985,-2.219 4.4464,-3.3782 3.4955,-0.8363 4.9399,-0.9318 5.127,-0.3388 1.912,6.0605 4.5656,23.8983 5.1953,34.9243 l 0.4893,8.5666 -5.0915,0 -5.0916,0 -0.8846,-10.7575 z"
         id="path3510"
         inkscape:connector-curvature="0" />
      <path
         style="fill:none;stroke:#000000;stroke-width:2.40339994"
         d="m 1267.0067,1649.7696 c -0.535,-9.9501 -2.1197,-21.5417 -4.1261,-30.1824 -0.8775,-3.7788 -1.0942,-5.9838 -0.617,-6.2787 0.4044,-0.25 2.5562,-0.862 4.7817,-1.36 3.1845,-0.7127 4.1636,-0.7158 4.597,-0.014 1.9065,3.0847 5.8253,30.1634 5.8253,40.2523 l 0,6.4093 -4.9932,0 -4.9932,0 -0.4745,-8.826 z"
         id="path3508"
         inkscape:connector-curvature="0" />
      <path
         style="fill:none;stroke:#000000;stroke-width:2.40339994"
         d="m 1280.8097,1656.9547 c -0.1827,-0.9026 -0.5026,-5.4153 -0.7108,-10.0282 -0.4193,-9.2897 -1.8864,-20.0095 -4.0957,-29.9282 -0.7991,-3.5874 -1.4529,-6.6512 -1.4529,-6.8084 0,-0.3633 6.1248,-1.9176 7.5563,-1.9176 2.3799,0 7.7111,32.728 7.752,47.5884 l 0.01,2.7349 -4.3621,0 c -3.9389,0 -4.3942,-0.1591 -4.6943,-1.6409 z"
         id="path3506"
         inkscape:connector-curvature="0" />
      <path
         style="fill:none;stroke:#000000;stroke-width:2.40339994"
         d="m 969.51082,1653.47 c -1.66557,-0.8971 -2.73496,-2.0083 -2.73496,-2.8419 0,-1.8044 2.854,-18.4679 3.22691,-18.8408 0.15916,-0.1592 2.69813,0.372 5.64214,1.1804 2.94401,0.8084 6.72295,1.8244 8.39764,2.2577 2.96698,0.7678 3.02834,0.8456 2.39875,3.0408 -0.35536,1.2391 -1.023,4.8304 -1.48363,7.9807 l -0.83749,5.7277 -3.90797,1.136 c -6.49135,1.8871 -7.78444,1.9306 -10.70139,0.3594 z"
         id="path3504"
         inkscape:connector-curvature="0" />
      <path
         style="fill:none;stroke:#000000;stroke-width:2.40339994"
         d="m 1184.4386,1653.0425 -4.4162,-1.0485 -1.2466,-7.75 c -0.6856,-4.2625 -1.0893,-7.9074 -0.897,-8.0997 0.4616,-0.4615 15.8545,-4.6401 16.1147,-4.3745 0.4071,0.4157 2.4453,11.2782 2.9145,15.5329 l 0.4838,4.3874 -2.6522,1.2648 c -3.1092,1.4826 -4.3794,1.4934 -10.301,0.088 z"
         id="path3502"
         inkscape:connector-curvature="0" />
      <path
         style="fill:none;stroke:#000000;stroke-width:2.40339994"
         d="m 982.82097,1631.9107 c -8.69036,-2.3021 -11.66917,-3.2822 -11.66917,-3.8393 0,-2.8127 9.0786,-24.175 10.27395,-24.175 0.66481,0 13.14702,7.1358 14.10502,8.0635 0.41126,0.3982 -0.49144,3.1602 -2.30512,7.053 -1.6396,3.5192 -3.5291,8.1215 -4.19887,10.2275 -0.66978,2.1059 -1.43754,3.8073 -1.70615,3.7809 -0.26861,-0.026 -2.29345,-0.5262 -4.49966,-1.1106 z"
         id="path3500"
         inkscape:connector-curvature="0" />
      <path
         style="fill:none;stroke:#000000;stroke-width:2.40339994"
         d="m 1175.394,1629.9697 c -0.7639,-2.5501 -2.5241,-6.8072 -7.0476,-17.0453 -0.3306,-0.7483 12.7985,-9.028 14.3156,-9.028 1.5043,0 10.7283,22.1303 10.0599,24.1356 -0.2284,0.6852 -13.7087,4.9222 -15.9678,5.0188 -0.2373,0.01 -0.8494,-1.3763 -1.3601,-3.0811 z"
         id="path3498"
         inkscape:connector-curvature="0" />
      <path
         style="fill:none;stroke:#000000;stroke-width:2.40339994"
         d="m 963.00395,1626.6284 c -2.27511,-0.6694 -4.33372,-1.4158 -4.57467,-1.6588 -1.16018,-1.1701 9.82178,-27.6371 11.46746,-27.6371 0.77278,0 8.54829,4.3154 8.54829,4.7443 0,0.1437 -1.47267,3.287 -3.27259,6.9852 -1.79994,3.6981 -4.16495,9.464 -5.25559,12.813 -1.09065,3.349 -2.16149,6.0623 -2.37966,6.0297 -0.21817,-0.033 -2.25813,-0.607 -4.53324,-1.2763 z"
         id="path3496"
         inkscape:connector-curvature="0" />
      <path
         style="fill:none;stroke:#000000;stroke-width:2.40339994"
         d="m 1194.0521,1621.5647 c -1.1527,-3.5001 -3.5165,-9.3134 -5.2527,-12.9185 l -3.1569,-6.5548 3.7941,-2.363 c 2.0868,-1.2996 4.1477,-2.3704 4.5798,-2.3795 1.6089,-0.034 12.4918,25.3056 11.7258,27.3019 -0.1702,0.4435 -2.0703,1.2531 -4.2225,1.7991 -2.1521,0.5459 -4.2412,1.102 -4.6423,1.2356 -0.4011,0.1337 -1.6725,-2.6207 -2.8253,-6.1208 z"
         id="path3494"
         inkscape:connector-curvature="0" />
      <path
         style="fill:none;stroke:#000000;stroke-width:2.40339994"
         d="m 949.2721,1623.0169 c -2.2062,-0.6219 -4.09909,-1.1912 -4.20642,-1.265 -0.58954,-0.4057 4.97021,-15.0931 8.64026,-22.8254 l 4.26281,-8.9811 3.4919,1.9861 c 5.857,3.3312 5.77336,2.79 1.74345,11.2818 -1.98671,4.1864 -4.66251,10.6475 -5.94623,14.3579 -1.28372,3.7104 -2.70314,6.708 -3.15426,6.6613 -0.45113,-0.047 -2.62531,-0.5937 -4.83151,-1.2156 z"
         id="path3492"
         inkscape:connector-curvature="0" />
      <path
         style="fill:none;stroke:#000000;stroke-width:2.40339994"
         d="m 1207.1764,1618.3502 c -1.0813,-3.282 -3.301,-8.7793 -4.9327,-12.2162 -1.6316,-3.4369 -3.4258,-7.3081 -3.9871,-8.6028 l -1.0204,-2.3539 3.8319,-2.1975 c 2.1075,-1.2087 4.1891,-2.2006 4.6257,-2.2044 1.5824,-0.014 14.5216,30.0681 13.3012,30.9235 -0.2637,0.1848 -9.1792,2.6185 -9.5925,2.6185 -0.1431,0 -1.1448,-2.6852 -2.2261,-5.9672 z"
         id="path3490"
         inkscape:connector-curvature="0" />
      <path
         style="fill:none;stroke:#000000;stroke-width:2.40339994"
         d="m 936.62954,1619.5714 c -1.93932,-0.5329 -3.73874,-1.1816 -3.99871,-1.4416 -0.79718,-0.7972 4.83338,-16.2767 9.37172,-25.7648 l 4.29473,-8.9787 4.39605,2.4148 c 2.41783,1.3282 4.39995,2.6243 4.4047,2.8803 0.005,0.2561 -1.77782,4.1698 -3.9613,8.6972 -2.18347,4.5275 -5.05518,11.6113 -6.38158,15.7418 -2.63395,8.2025 -2.40721,8.0225 -8.12561,6.451 z"
         id="path3488"
         inkscape:connector-curvature="0" />
      <path
         style="fill:none;stroke:#000000;stroke-width:2.40339994"
         d="m 1221.8206,1620.1665 c -0.1965,-0.3243 -0.8483,-2.2306 -1.4485,-4.2363 -1.617,-5.4039 -5.2305,-14.1963 -8.5383,-20.7752 -1.6074,-3.197 -2.9187,-6.0661 -2.9139,-6.3759 0.01,-0.3097 1.9578,-1.6337 4.3401,-2.9422 l 4.3314,-2.379 1.8717,3.1938 c 2.7047,4.6152 7.4417,15.747 10.2866,24.1732 l 2.4624,7.2933 -2.7319,0.8171 c -4.8034,1.4367 -7.2927,1.8368 -7.6596,1.2312 z"
         id="path3486"
         inkscape:connector-curvature="0" />
      <path
         style="fill:none;stroke:#000000;stroke-width:2.40339994"
         d="m 923.24952,1616.0409 c -1.67689,-0.462 -3.26971,-1.0653 -3.53958,-1.3407 -1.36732,-1.3954 11.59275,-33.7397 14.93823,-37.2813 0.30469,-0.3225 2.50302,0.5559 4.88518,1.952 l 4.33119,2.5385 -4.40712,9.0281 c -2.42392,4.9655 -5.71991,12.8657 -7.32442,17.556 -3.21145,9.3877 -2.96486,9.1782 -8.88348,7.5474 z"
         id="path3484"
         inkscape:connector-curvature="0" />
      <path
         style="fill:none;stroke:#000000;stroke-width:2.40339994"
         d="m 1234.4375,1615.9267 c 0,-2.1017 -5.9909,-17.5563 -9.9833,-25.7537 -2.2109,-4.5394 -3.9049,-8.338 -3.7644,-8.4413 0.9817,-0.7223 7.9981,-4.8203 8.2531,-4.8203 0.1749,0 1.4793,2.0767 2.8988,4.6149 5.4829,9.8044 13.7366,32.0128 12.3596,33.2564 -0.7183,0.6487 -6.8494,2.2415 -8.6281,2.2415 -0.6246,0 -1.1357,-0.4939 -1.1357,-1.0975 z"
         id="path3482"
         inkscape:connector-curvature="0" />
      <path
         style="fill:none;stroke:#000000;stroke-width:2.40339994"
         d="m 910.98263,1612.7511 c -4.96721,-1.4065 -4.89146,-1.1286 -2.41438,-8.8547 2.45128,-7.6457 6.90964,-18.511 10.40522,-25.3583 4.6864,-9.1799 3.94664,-8.669 8.68318,-5.9959 2.26143,1.2763 4.11169,2.5843 4.11169,2.9067 0,0.3224 -2.08267,4.8651 -4.62815,10.0948 -2.54549,5.2296 -6.07275,13.7958 -7.83837,19.0358 -1.76561,5.2401 -3.37514,9.5011 -3.57673,9.469 -0.20159,-0.032 -2.3357,-0.6159 -4.74246,-1.2974 z"
         id="path3480"
         inkscape:connector-curvature="0" />
      <path
         style="fill:none;stroke:#000000;stroke-width:2.40339994"
         d="m 1246.5789,1609.6988 c -1.721,-6.1904 -5.7975,-16.3855 -10.4101,-26.0357 -2.1556,-4.5097 -3.9192,-8.3347 -3.9192,-8.4999 0,-0.3353 7.7878,-4.8157 8.3705,-4.8157 0.734,0 9.0091,17.3017 11.6855,24.4323 3.4156,9.1 5.5152,16.2973 4.8691,16.691 -0.2711,0.1652 -1.9697,0.6813 -3.7748,1.147 -1.805,0.4656 -3.8012,0.9958 -4.4358,1.1781 -0.8795,0.2527 -1.4467,-0.7216 -2.3852,-4.0971 z"
         id="path3478"
         inkscape:connector-curvature="0" />
      <path
         style="fill:none;stroke:#000000;stroke-width:2.40339994"
         d="m 897.97363,1609.1959 -4.25712,-1.1118 0.49284,-2.6409 c 1.28693,-6.8958 13.12183,-35.3285 17.00678,-40.8578 0.59202,-0.8427 1.46483,-0.6033 4.98272,1.3662 2.34574,1.3133 4.34962,2.4593 4.45307,2.5467 0.10345,0.087 -1.43001,3.2469 -3.40769,7.021 -4.26568,8.1405 -7.93274,16.89 -11.35936,27.1034 -1.37528,4.0992 -2.76008,7.5052 -3.07732,7.569 -0.31724,0.064 -2.49251,-0.3843 -4.83392,-0.9958 z"
         id="path3476"
         inkscape:connector-curvature="0" />
      <path
         style="fill:none;stroke:#000000;stroke-width:2.40339994"
         d="m 1257.4628,1600.487 c -1.9036,-5.5457 -5.8483,-15.0374 -8.766,-21.0926 l -5.3049,-11.0095 4.1849,-2.3007 c 2.3017,-1.2653 4.3869,-2.3006 4.6337,-2.3006 0.6916,0 8.6919,16.3266 11.6987,23.8741 1.4757,3.7043 3.607,9.8122 4.7362,13.5733 l 2.0531,6.8382 -3.3617,0.8134 c -1.8489,0.4474 -4.0482,1.0101 -4.8873,1.2505 -1.3917,0.3986 -1.8294,-0.4481 -4.9867,-9.6461 z"
         id="path3474"
         inkscape:connector-curvature="0" />
      <path
         style="fill:none;stroke:#000000;stroke-width:2.40339994"
         d="m 885.27398,1605.8931 c -1.70479,-0.4099 -3.09962,-1.1722 -3.09962,-1.6939 0,-1.553 4.73989,-15.5474 7.64633,-22.5755 1.48651,-3.5946 4.7022,-10.5535 7.14597,-15.4642 4.2366,-8.5134 4.51319,-8.883 5.94764,-7.9484 0.82743,0.5392 2.55055,1.519 3.82915,2.1776 l 2.32473,1.1973 -4.98307,10.3976 c -5.62577,11.7388 -9.43312,21.173 -11.82306,29.2964 -1.76026,5.9831 -1.63496,5.9004 -6.98807,4.6131 z"
         id="path3472"
         inkscape:connector-curvature="0" />
      <path
         style="fill:none;stroke:#000000;stroke-width:2.40339994"
         d="m 1269.8681,1595.8154 c -2.0315,-6.1949 -6.026,-15.9482 -9.207,-22.4801 l -5.6188,-11.5378 3.8355,-2.203 3.8355,-2.203 3.2931,6.2957 c 6.0953,11.6527 15.8371,36.3592 15.8371,40.165 0,0.9068 -1.0213,1.4881 -3.7022,2.1069 -2.0362,0.47 -3.9234,0.842 -4.1936,0.8266 -0.2703,-0.015 -2.1061,-4.952 -4.0796,-10.9703 z"
         id="path3376"
         inkscape:connector-curvature="0" />
      <circle
         r="21.672922"
         cy="1542.5807"
         cx="1081.9507"
         id="path3382"
         style="color:#000000;clip-rule:nonzero;display:inline;overflow:visible;visibility:visible;opacity:1;isolation:auto;mix-blend-mode:normal;color-interpolation:sRGB;color-interpolation-filters:linearRGB;solid-color:#000000;solid-opacity:1;fill:#ff0000;fill-opacity:1;fill-rule:nonzero;stroke:#ff0000;stroke-width:2.40339994;stroke-linecap:butt;stroke-linejoin:miter;stroke-miterlimit:4;stroke-dasharray:none;stroke-dashoffset:0;stroke-opacity:1;color-rendering:auto;image-rendering:auto;shape-rendering:auto;text-rendering:auto;enable-background:accumulate" />
      <circle
         r="215.80598"
         cy="1659.0756"
         cx="1081.9507"
         id="path3386"
         style="color:#000000;clip-rule:nonzero;display:inline;overflow:visible;visibility:visible;opacity:1;isolation:auto;mix-blend-mode:normal;color-interpolation:sRGB;color-interpolation-filters:linearRGB;solid-color:#000000;solid-opacity:1;fill:none;fill-opacity:1;fill-rule:nonzero;stroke:#ff0000;stroke-width:2.40339994;stroke-linecap:butt;stroke-linejoin:miter;stroke-miterlimit:4;stroke-dasharray:none;stroke-dashoffset:0;stroke-opacity:1;color-rendering:auto;image-rendering:auto;shape-rendering:auto;text-rendering:auto;enable-background:accumulate" />
      <circle
         r="22.175785"
         cy="1774.7899"
         cx="1081.9507"
         id="path3382-9-4"
         style="color:#000000;clip-rule:nonzero;display:inline;overflow:visible;visibility:visible;opacity:1;isolation:auto;mix-blend-mode:normal;color-interpolation:sRGB;color-interpolation-filters:linearRGB;solid-color:#000000;solid-opacity:1;fill:#ff0000;fill-opacity:1;fill-rule:nonzero;stroke:#ff0000;stroke-width:2.40339994;stroke-linecap:butt;stroke-linejoin:miter;stroke-miterlimit:4;stroke-dasharray:none;stroke-dashoffset:0;stroke-opacity:1;color-rendering:auto;image-rendering:auto;shape-rendering:auto;text-rendering:auto;enable-background:accumulate" />
      <circle
         r="172.63857"
         cy="-655.9718"
         cx="-1868.9169"
         id="path3386-8"
         style="color:#000000;clip-rule:nonzero;display:inline;overflow:visible;visibility:visible;opacity:1;isolation:auto;mix-blend-mode:normal;color-interpolation:sRGB;color-interpolation-filters:linearRGB;solid-color:#000000;solid-opacity:1;fill:none;fill-opacity:1;fill-rule:nonzero;stroke:#00ff00;stroke-width:0.24033998;stroke-linecap:butt;stroke-linejoin:miter;stroke-miterlimit:4;stroke-dasharray:none;stroke-dashoffset:0;stroke-opacity:1;color-rendering:auto;image-rendering:auto;shape-rendering:auto;text-rendering:auto;enable-background:accumulate"
         transform="matrix(-0.79282806,-0.60944538,0.60944538,-0.79282806,0,0)" />
      <text
         xml:space="preserve"
         style="font-style:normal;font-weight:normal;font-size:36.05099869px;line-height:125%;font-family:sans-serif;letter-spacing:0px;word-spacing:0px;fill:#000000;fill-opacity:1;stroke:#000000;stroke-width:2.40339994;stroke-linecap:butt;stroke-linejoin:miter;stroke-opacity:1;"
         id="text3754"
         sodipodi:linespacing="125%"><textPath
           xlink:href="#path3386-8"
           id="textPath3758"><tspan
   id="tspan3756"
   style="fill:#000000;stroke:#000000;stroke-width:2.40339994;">Burning Man 2015</tspan></textPath></text>
      <circle
         r="22.175787"
         cy="1658.6852"
         cx="1081.9507"
         id="path3382-9"
         style="color:#000000;clip-rule:nonzero;display:inline;overflow:visible;visibility:visible;opacity:1;isolation:auto;mix-blend-mode:normal;color-interpolation:sRGB;color-interpolation-filters:linearRGB;solid-color:#000000;solid-opacity:1;fill:#ff0000;fill-opacity:1;fill-rule:nonzero;stroke:#ff0000;stroke-width:2.40339994;stroke-linecap:butt;stroke-linejoin:miter;stroke-miterlimit:4;stroke-dasharray:none;stroke-dashoffset:0;stroke-opacity:1;color-rendering:auto;image-rendering:auto;shape-rendering:auto;text-rendering:auto;enable-background:accumulate" />
    </g>
  </g>
</svg>
